<svg xmlns="http://www.w3.org/2000/svg" viewBox="0 0 36.96 37.16"><defs><style>.cls-1{fill:#fff;}.cls-2{fill:none;}.cls-3{fill:#5f2a2b;}</style></defs><title>Element 1</title><g id="Ebene_2" data-name="Ebene 2"><g id="Isolationsmodus"><path class="cls-1" d="M28.46,36.57a7,7,0,0,1-2.28-.69,8.62,8.62,0,0,1-3.16-3,7.72,7.72,0,0,1-1-2.51,10.6,10.6,0,0,1-3.75.23,6.16,6.16,0,0,1-3.68-1.66,12.51,12.51,0,0,1-1.37-1.67l-.08,0a3.83,3.83,0,0,1-.45.12,9.46,9.46,0,0,1-1.78.11H10.4a13.89,13.89,0,0,1-1.92-.11,10.58,10.58,0,0,1-4-1.29,9.52,9.52,0,0,1-1.37-1,4.51,4.51,0,0,0-2.3-1.26.49.49,0,0,1,.14-1H1a11.68,11.68,0,0,1,1.93.46A3.18,3.18,0,0,1,3,21.7a1.49,1.49,0,0,1,.89-.88.52.52,0,0,1,.22,0,.48.48,0,0,1,.39.66,4,4,0,0,0-.11,3.11,4.52,4.52,0,0,0,2.3,1.21l.68.23a4.61,4.61,0,0,0,1,.23,8.71,8.71,0,0,0,2.16,0,4.44,4.44,0,0,0,.61-.16c.33-.09.71-.2,1.08-.28a41,41,0,0,1-1.89-4c-.43-1-.87-2.06-1.38-3.05a.49.49,0,0,1,0-.43l.19-.41a.49.49,0,0,1,.44-.28,25.94,25.94,0,0,0,3.65-.26.49.49,0,0,1-.34-.31l-.14-.39c-.47-.29-.73-1.22-1-3.35l0-.26,0-.21c-.22-1.51-.55-3.79.53-5.07a1,1,0,0,1,.89-.42c1,.13,1.45,2.36,1.57,3.31a12.73,12.73,0,0,1-.9,6.41.48.48,0,0,1-.21.23c1.15-.17,2.29-.38,3.41-.59,1.33-.25,2.71-.51,4.09-.68A16.3,16.3,0,0,1,25,16a9.66,9.66,0,0,1,1.28.24,6.63,6.63,0,0,0,.95-1.4,6,6,0,0,0,.55-2c.06-.36.12-.72.21-1.08a5.41,5.41,0,0,1,1.06-4.43,2.66,2.66,0,0,1,2.4-1.08,2.74,2.74,0,0,1,.86.27A2.63,2.63,0,0,1,33,7a.38.38,0,0,1,0-.16s0,0,0,0l-.34-.29a6,6,0,0,0-2.23-1.42c-.81-.23-2.19-.75-2.35-1.56a.93.93,0,0,1,.43-.94,1.2,1.2,0,0,1,.91-.2,4.44,4.44,0,0,1,1.72.75,4,4,0,0,1-.07-2,.59.59,0,0,1,.61-.34,1.43,1.43,0,0,1,1,.66,5.71,5.71,0,0,1,.81,2.39A2.34,2.34,0,0,1,35,3.31a1,1,0,0,1,.52.21,1.31,1.31,0,0,1,.59,1.19c-.07.91-1.12,1.73-1.77,2.16a.48.48,0,0,1,0,.3.48.48,0,0,1-.5.27l-.07,0-.42-.12-.07,0a11.66,11.66,0,0,1,1.42,2.25c.22.42.43.82.63,1.1.38.57.69,1.16.4,1.63s-1,.4-1.57.33l-.32,0-.35,0a6.48,6.48,0,0,0-1.62-.05,7.08,7.08,0,0,1-1.47,0l-.44,0c-.14.36-.29.7-.44,1s-.39.87-.53,1.3-.19.68-.28,1-.18.7-.29,1a3.33,3.33,0,0,1-.14.35,2.79,2.79,0,0,1,1.06,1.68,10.35,10.35,0,0,1-5.1,10.68,7.14,7.14,0,0,1-.93.43l.2.6a6.56,6.56,0,0,0,.37,1c.17.26.32.56.49.87a6.61,6.61,0,0,0,.94,1.47A4.26,4.26,0,0,0,27.41,35h.17a4.4,4.4,0,0,0,2.3-1,.48.48,0,0,1,.35-.09.49.49,0,0,1,.28.14.48.48,0,0,1,0,.63,4.46,4.46,0,0,1-.71.76,7,7,0,0,0,1,0h.1a.49.49,0,0,1,.1.95,5.93,5.93,0,0,1-2.57.18Zm2.6-27.86.1,0a.23.23,0,0,0,.25-.14.62.62,0,0,1-.22-.08l-.07.05a.25.25,0,0,0-.07.14ZM31,8.9l.1,0a.22.22,0,0,0,.25-.15.65.65,0,0,1-.22-.08.21.21,0,0,0-.07.06A.23.23,0,0,0,31,8.9ZM6.56,16.71c-1.77-.23-2.81-.58-3.1-1a.68.68,0,0,1-.07-.59c.22-.65,1.06-.91,2.42-.73a5.67,5.67,0,0,1,.92.19,6,6,0,0,1,1.14.67c.24.16.6.39.76.48h0a.49.49,0,0,1,.39.32l.05.15a.49.49,0,0,1-.33.63,8.84,8.84,0,0,1-2.24-.07Zm3.69-1a.46.46,0,0,1-.32-.18l-.19-.24a.51.51,0,0,1-.09-.21c-.16-.21-.69-.77-1.17-1.26-2.3-2.38-3.3-3.57-3.2-4.36s.59-1,1-.93c.6.08,1.43.82,2.46,2.19s2.11,2.94,2.06,4.52a.49.49,0,0,1-.33.45.51.51,0,0,1-.21,0Z"/><path class="cls-2" d="M28.46,36.57a7,7,0,0,1-2.28-.69,8.62,8.62,0,0,1-3.16-3,7.72,7.72,0,0,1-1-2.51,10.6,10.6,0,0,1-3.75.23,6.16,6.16,0,0,1-3.68-1.66,12.51,12.51,0,0,1-1.37-1.67l-.08,0a3.83,3.83,0,0,1-.45.12,9.46,9.46,0,0,1-1.78.11H10.4a13.89,13.89,0,0,1-1.92-.11,10.58,10.58,0,0,1-4-1.29,9.52,9.52,0,0,1-1.37-1,4.51,4.51,0,0,0-2.3-1.26.49.49,0,0,1,.14-1H1a11.68,11.68,0,0,1,1.93.46A3.18,3.18,0,0,1,3,21.7a1.49,1.49,0,0,1,.89-.88.52.52,0,0,1,.22,0,.48.48,0,0,1,.39.66,4,4,0,0,0-.11,3.11,4.52,4.52,0,0,0,2.3,1.21l.68.23a4.61,4.61,0,0,0,1,.23,8.71,8.71,0,0,0,2.16,0,4.44,4.44,0,0,0,.61-.16c.33-.09.71-.2,1.08-.28a41,41,0,0,1-1.89-4c-.43-1-.87-2.06-1.38-3.05a.49.49,0,0,1,0-.43l.19-.41a.49.49,0,0,1,.44-.28,25.94,25.94,0,0,0,3.65-.26.49.49,0,0,1-.34-.31l-.14-.39c-.47-.29-.73-1.22-1-3.35l0-.26,0-.21c-.22-1.51-.55-3.79.53-5.07a1,1,0,0,1,.89-.42c1,.13,1.45,2.36,1.57,3.31a12.73,12.73,0,0,1-.9,6.41.48.48,0,0,1-.21.23c1.15-.17,2.29-.38,3.41-.59,1.33-.25,2.71-.51,4.09-.68A16.3,16.3,0,0,1,25,16a9.66,9.66,0,0,1,1.28.24,6.63,6.63,0,0,0,.95-1.4,6,6,0,0,0,.55-2c.06-.36.12-.72.21-1.08a5.41,5.41,0,0,1,1.06-4.43,2.66,2.66,0,0,1,2.4-1.08,2.74,2.74,0,0,1,.86.27A2.63,2.63,0,0,1,33,7a.38.38,0,0,1,0-.16s0,0,0,0l-.34-.29a6,6,0,0,0-2.23-1.42c-.81-.23-2.19-.75-2.35-1.56a.93.93,0,0,1,.43-.94,1.2,1.2,0,0,1,.91-.2,4.44,4.44,0,0,1,1.72.75,4,4,0,0,1-.07-2,.59.59,0,0,1,.61-.34,1.43,1.43,0,0,1,1,.66,5.71,5.71,0,0,1,.81,2.39A2.34,2.34,0,0,1,35,3.31a1,1,0,0,1,.52.21,1.31,1.31,0,0,1,.59,1.19c-.07.91-1.12,1.73-1.77,2.16a.48.48,0,0,1,0,.3.48.48,0,0,1-.5.27l-.07,0-.42-.12-.07,0a11.66,11.66,0,0,1,1.42,2.25c.22.42.43.82.63,1.1.38.57.69,1.16.4,1.63s-1,.4-1.57.33l-.32,0-.35,0a6.48,6.48,0,0,0-1.62-.05,7.08,7.08,0,0,1-1.47,0l-.44,0c-.14.36-.29.7-.44,1s-.39.87-.53,1.3-.19.68-.28,1-.18.7-.29,1a3.33,3.33,0,0,1-.14.35,2.79,2.79,0,0,1,1.06,1.68,10.35,10.35,0,0,1-5.1,10.68,7.14,7.14,0,0,1-.93.43l.2.6a6.56,6.56,0,0,0,.37,1c.17.26.32.56.49.87a6.61,6.61,0,0,0,.94,1.47A4.26,4.26,0,0,0,27.41,35h.17a4.4,4.4,0,0,0,2.3-1,.48.48,0,0,1,.35-.09.49.49,0,0,1,.28.14.48.48,0,0,1,0,.63,4.46,4.46,0,0,1-.71.76,7,7,0,0,0,1,0h.1a.49.49,0,0,1,.1.95,5.93,5.93,0,0,1-2.57.18Zm2.6-27.86.1,0a.23.23,0,0,0,.25-.14.62.62,0,0,1-.22-.08l-.07.05a.25.25,0,0,0-.07.14ZM31,8.9l.1,0a.22.22,0,0,0,.25-.15.65.65,0,0,1-.22-.08.21.21,0,0,0-.07.06A.23.23,0,0,0,31,8.9ZM6.56,16.71c-1.77-.23-2.81-.58-3.1-1a.68.68,0,0,1-.07-.59c.22-.65,1.06-.91,2.42-.73a5.67,5.67,0,0,1,.92.19,6,6,0,0,1,1.14.67c.24.16.6.39.76.48h0a.49.49,0,0,1,.39.32l.05.15a.49.49,0,0,1-.33.63,8.84,8.84,0,0,1-2.24-.07Zm3.69-1a.46.46,0,0,1-.32-.18l-.19-.24a.51.51,0,0,1-.09-.21c-.16-.21-.69-.77-1.17-1.26-2.3-2.38-3.3-3.57-3.2-4.36s.59-1,1-.93c.6.08,1.43.82,2.46,2.19s2.11,2.94,2.06,4.52a.49.49,0,0,1-.33.45.51.51,0,0,1-.21,0Z"/><path class="cls-3" d="M10.17,15.95c.1,0,0-.1.07,0S10.2,16,10.17,15.95Z"/><path class="cls-3" d="M10.53,15.86a1.87,1.87,0,0,1,.23-.38.32.32,0,0,0,0-.39s.16,0,.12-.06c-.24-.23-.15-.59-.06-.93h0c0-.07-.15-.09-.15-.15s0,0,.08,0-.07-.09-.15-.09.1-.05.12-.1h-.11c-.27,0-.06-.22-.23-.29,0,0,0,0,.06,0-.22-.13-.3-.37-.45-.54a.32.32,0,0,0,.13-.06.18.18,0,0,1-.21,0c.09-.08-.14,0-.12-.13h0c-.13,0,0-.1-.12-.07l.06-.07c-.15.06,0-.11-.06-.1l0,0c-.05,0,0-.07,0-.09h0c-.08-.05,0-.14-.14-.08.07-.08.08,0,.18-.07a2.51,2.51,0,0,1-.58-.68c0-.06,0-.08.05-.12s-.08-.08-.15-.06,0-.05,0-.07-.14,0-.14,0a.16.16,0,0,0,.11-.05c-.11,0-.14,0-.2-.08A.12.12,0,0,0,9,11c-.13,0-.05-.11-.14-.11l.07,0c0-.13-.14.07-.14,0s0,0,.07,0c-.15,0-.19-.1-.27-.13h0c-.06-.05-.08-.15-.18-.18s.14-.1.07-.15-.14-.08-.23.06c0-.07-.06-.19-.13-.2s.11-.14.16-.1l0-.09s0,0,.06,0-.12-.05-.12-.09S8,10,7.9,10,8,9.85,8,9.85l-.29.09s.08-.08,0-.09a.19.19,0,0,1-.09,0s-.11-.07,0-.17.06,0,.07,0-.08,0-.12,0h0s-.12,0-.15,0,.05-.07.05,0a.15.15,0,0,1-.18,0s.05,0,.09-.06a.62.62,0,0,1-.3,0s.1-.07.09,0c0-.14-.24,0-.22-.2,0,0-.06.08,0,.06s0-.11,0-.1,0,0-.08,0,0,0,0,0-.25,0-.29-.14-.12.09-.13.08l.05-.07c0-.06-.06,0,0-.09s.2,0,.1,0-.14.08-.07,0-.12.05-.12,0,.08-.1,0-.11,0,0-.09,0l0,0c0,.08,0,0-.05.07,0-.07-.07,0,0-.11l0-.11s-.06.11-.08.16a.22.22,0,0,1,0-.05c0,.17,0,0-.07.11,0-.06-.07,0-.11-.1C6,9,6,9.07,6,9A.15.15,0,0,0,6,9S6,9,6,9s-.08-.07-.14-.1.07.13.11.17c-.13-.11,0,.12-.1,0S5.8,9,5.75,9s.06.12,0,.12l.13.06c-.09,0,0,.09-.08,0,0,0-.07,0,.06.08-.14,0,0,.21-.23.23,0,0,0,0,.07,0s-.05,0,0,0l.06,0s0,0-.15,0,.23.05.19.11-.08,0-.07,0l.1,0s-.12.06-.21.08,0,.06.1.05l-.1.08c.07-.06.06,0,.09,0h0s0,0,0,.06a.14.14,0,0,0,.07-.09s0,0,.1,0,0,.07,0,.1.09,0,.09,0,0,0-.06.06,0,0,0,0-.1.07,0,.08.16-.09.13,0l-.1,0,0,.07.08,0,0,0c.09,0,.07.06.16,0s0,.08,0,.11H6c0,.06,0,.08.09.07h0a.08.08,0,0,0,.09,0c0,.08-.26.2-.14.18s.17,0,.21-.08c0,.1.18.1.12.25,0,0,0,0,.08,0s.25.15.18.34c-.05,0-.07.05-.11.08s0,.08.07,0,.09-.07.09-.12.16.13.13.21,0,0,.07,0-.07.13,0,.14l.06,0,0,.07s.13-.09.11,0l-.05.06c.08,0,.2,0,.18.05l-.06.1s.1,0,.1-.06c0,.11,0,.15,0,.24a.51.51,0,0,1,.52.24l0,0c0,.07.09,0,.08,0s-.06.11-.14.12.13,0,.18,0-.06,0,0-.05,0,.11.11,0a.39.39,0,0,1-.13.11h.07c-.06.13-.25.08-.33.23l0,0c-.06.11-.17,0-.13.11s.21-.09.22-.15.22-.15.28-.08-.06,0-.12,0,.1,0,.1.08.11-.11.14-.11-.1.05-.06.11.13,0,.13-.09,0,.08.12,0c-.06.09-.22.12-.21.2.06-.08.16,0,.24-.16,0,0-.06.1-.12.12s.2-.05.07.09l.08-.06,0,.12s.18,0,.07.09.07.06.13,0-.1,0,0-.11c-.06.11.06,0,.11,0l0,0s0,0,.1,0a.1.1,0,0,0-.06.07l.08,0c.08,0-.1.12,0,.15H8.45s0,.07,0,.08l.21-.14c.05,0-.06.08,0,0L8.6,13s-.08.12,0,.16.17,0,.16-.11,0,.08,0,.11.06-.07.13-.07,0,.15-.07.24l-.14.06,0,0c-.11,0,0,.07-.15.14s.05,0,.09,0c.09-.18.24-.12.35-.25.1,0-.26.33,0,.22,0,0,.15-.1.07-.11s.15-.09.15,0-.09.16-.21.17c0,0,0-.06,0-.06s-.13.11-.08.16.08.05.14,0,0,0,0-.09,0,.14.13.05c0,0,0-.1.07-.15h.07l-.06,0c0,.1.11-.06.15,0l-.07.12c-.1.06-.05-.13-.17,0,0,0,.11,0,.12.07H9.2S9,14,9.2,14s.06,0,.11-.08.15,0,.2.07c-.11.08.06.09-.08.13,0-.07-.06-.17-.18-.11s0-.07-.16,0c0,.06-.07.16-.14.23s.05,0,.07,0,.06-.07.13-.14a.19.19,0,0,0,.23.07c0,.05-.09.11-.12.09a.52.52,0,0,1,.19.22c.08-.14.1.05.17-.06a.21.21,0,0,1,.12-.19s-.05,0-.07.07-.06.13.07.08c-.1,0-.16.11-.26.17.1,0-.07.05,0,.1a.64.64,0,0,1,.26.06c0,.14.15.17.21.22h0l.06.13h0l-.06,0s-.08,0-.08,0,.13-.07.09,0h0s0,.14.13,0l-.13.07s0,0,.05,0-.06.07-.1.07.07.07.11.11l0-.08c.11,0,.08.14.14.15l-.06.06h.06c-.06.06-.05.13,0,.08a.53.53,0,0,1-.24.07c0-.07.11,0,.15-.12s0-.1-.1-.06,0,0,.07,0-.11,0-.19.07,0,0,0,0a.12.12,0,0,1-.13,0c.06,0,0-.06.08-.07s-.14,0-.16,0-.14-.06-.17-.2a1.18,1.18,0,0,1,.27,0c0-.07,0,0,0-.12s-.2,0-.28,0l.07,0h0l0,.07c-.07,0-.15.05-.17,0a1.51,1.51,0,0,0-.19-.27l.06-.05c-.17.07-.16-.08-.27-.09s-.23-.13-.16-.26a1.36,1.36,0,0,1-.47-.37l.11-.05c-.09,0,0-.06,0-.08s-.12,0-.19.07C8.23,14,8.08,14,8,14L8,13.9c-.17,0-.14-.12-.2-.22s.05-.1,0-.11-.15,0-.26,0a.43.43,0,0,1-.1-.22c-.29,0-.37-.3-.61-.41l.06-.08c-.31,0-.37-.38-.58-.46l.13-.09c0-.08-.13-.08-.2,0,0-.08-.16-.07-.09-.19s-.11,0-.16,0a.38.38,0,0,0-.19-.25v0s.09-.05.08-.08-.08-.16-.19,0c0-.17-.27-.2-.23-.39,0,0-.06,0-.1,0s-.07-.26-.19-.3.09,0,.07-.07-.06,0-.1,0C5,11,5,10.7,4.93,10.53A1.21,1.21,0,0,1,4.66,10a1.86,1.86,0,0,1,0-.7h0c-.12-.17.21-.25.05-.43,0,0,.07-.12.13-.06,0-.16.24-.24.27-.45,0,0,0,0,0,0,.18-.07.26-.27.48-.29,0,0,0,0,0,.09s.11-.22.21-.06c0,0,0-.1,0-.08A2.52,2.52,0,0,1,7,8.13c.17.21-.13.27.09.25,0,0,0-.05,0,0s0,.23.07.17.06,0,.1-.09c.07.14,0,.23.16.23l0,0c.2-.05.25.1.45,0A10.58,10.58,0,0,1,9.21,10a10,10,0,0,1,1,1.47c-.05.21,0,.21.1.31,0,0,0,0,0,0s.07.09.18,0c.1.21.24.37.35.59,0,0-.13,0-.1,0h.09l0,0s.1,0,.12,0a4.73,4.73,0,0,1,.55,1.78,1.65,1.65,0,0,0,.1.53c0,.13-.07.25-.1.37a1.94,1.94,0,0,1-.18.52,1.23,1.23,0,0,1-1.06.59A1.4,1.4,0,0,1,10.53,15.86Z"/><path class="cls-3" d="M10,15.92c0-.07,0-.12,0-.18A1.83,1.83,0,0,1,10,15.92Z"/><path class="cls-3" d="M9.64,14.48s0,0,0,0,.07,0,0,0S9.66,14.46,9.64,14.48Z"/><path class="cls-3" d="M9.43,14.2a.16.16,0,0,1,.17,0Z"/><path class="cls-3" d="M9.39,13.81c0-.05,0-.06.07,0S9.42,13.8,9.39,13.81Z"/><path class="cls-3" d="M9.28,13.88s0-.05,0-.08S9.36,13.82,9.28,13.88Z"/><path class="cls-3" d="M8.92,13.26s-.07,0,0-.06S9,13.21,8.92,13.26Z"/><path class="cls-3" d="M8.65,13.1s0,0,0,0a.05.05,0,0,1,.06,0Z"/><polygon class="cls-3" points="5.83 9.17 5.84 9.2 5.8 9.17 5.83 9.17"/><path class="cls-3" d="M7.27,9.69s0,.05,0,.06S7.3,9.71,7.27,9.69Z"/><polygon class="cls-3" points="8.34 10.48 8.34 10.47 8.43 10.4 8.34 10.48"/><path class="cls-3" d="M6.5,16.91c.05,0,0-.1,0,0S6.51,17,6.5,16.91Z"/><path class="cls-3" d="M6.71,16.88c.19-.28.37,0,.57-.13,0,0,0,.16,0,.12.19-.21.44-.06.65.12v0s.09-.12.14-.09,0,0,0,.08.08,0,.1-.11,0,.11,0,.15l0-.1c.06-.25.17,0,.25-.12a.13.13,0,0,0,0,.07c.13-.16.33-.15.42-.28a.47.47,0,0,0,.08.12.23.23,0,0,1,0-.18c.1.06,0-.1,0-.1l0,0c-.09-.08.08,0,0-.09H9c-.15,0,.09,0,0-.07H9s0,0,0-.05h0s0-.09-.09-.06c.09,0,.06,0,.19,0-.18-.18-.22-.35-.4-.41a.53.53,0,0,1,0-.12s-.06,0-.08,0h0l0,0a.17.17,0,0,0,0-.06h0c0-.06-.1.1-.11,0a.2.2,0,0,0,.07-.1c-.08.07-.11,0-.16,0a.15.15,0,0,0,0-.06c-.09.07-.06-.07-.13,0l0-.05c0-.11-.09.12-.11,0s0,0,0-.06-.16,0-.23,0l0,0c-.06,0-.09-.08-.17-.07s.1-.14,0-.15-.12,0-.18.15c0,0-.07-.14-.13-.12s.08-.16.12-.15l0-.09s0,0,0,0-.11,0-.11,0-.2.17-.27.15.07-.14.1-.15l-.23.18s.06-.1,0-.08a.24.24,0,0,1-.07.07s-.09,0,0-.14,0,0,.05-.06-.06,0-.1,0v0s-.1,0-.11.09,0-.08,0,0S7,15,7,15a.34.34,0,0,0,.07-.08.53.53,0,0,1-.24.09c0,.06.08-.1.07-.06,0-.12-.19,0-.17-.1s0,.09,0,.07,0-.11,0-.08,0,0-.05,0,0,0,0,0-.19.1-.24,0-.08.13-.1.12l0-.08c0-.05-.06,0,0-.08-.06.1.16-.06.09,0s-.1.12-.06,0-.09.09-.1,0,.06-.11,0-.11,0,0-.07.06l0,0c0,.08,0,0,0,.08,0-.07-.08,0,0-.11l0-.11s-.06.11-.08.15a.19.19,0,0,1,0-.05c0,.17,0,0-.09.1,0-.07-.11,0-.11-.14,0,0-.08.1-.11.06a.1.1,0,0,0,0-.06c0-.05,0,0-.06,0s0-.11-.06-.17a.43.43,0,0,0,0,.2c0-.17-.11.1-.13-.06s.06-.08,0-.12-.07.12-.12,0v.14c0-.09-.08.08-.07-.07,0,0-.06,0-.06.09-.08-.12-.2.06-.25-.18,0,0,0,0,0,.07s0-.06,0,0,0,0,0,.06,0,0,0-.15-.05.23-.12.18,0-.08,0-.07l0,.1s0-.13,0-.22-.05,0-.06.09l0-.12c0,.08,0,.06,0,.08v0s0,0,0,0a.15.15,0,0,0,.06.09s0,0,0,.09,0-.06-.07-.07,0,.09,0,.09,0,0,0-.07,0,0,0,0,0-.12-.05-.05,0,.18,0,.13a.72.72,0,0,0,0-.1l0,0,0,.08v0c0,.09,0,0,0,.14s-.05,0-.07-.05h0s-.05,0,0,.06v0s0,0,0,.07-.13-.3-.12-.19,0,.16.06.21,0,.11-.14,0a.33.33,0,0,1,0,.07c-.07,0,0,.13-.15,0S3.84,15,3.8,15s-.07,0,0,.05a.5.5,0,0,0,.13.08s0,.07-.07.05l.07,0c-.11-.06-.14,0-.1,0l.07,0-.08,0s.15.06.07,0l-.08,0c.05,0,.16.05.09,0h0l-.17,0c.24,0,.25,0,.25,0l0,0s.08-.06.05,0a1.72,1.72,0,0,1-.14.12c0,.06.09,0,.12-.06s0,0,0,0,0,.06.06,0L4,15.47l0,0c-.06.12-.19.15-.28.28h0c-.06.11-.14.06-.11.13a.47.47,0,0,0,.19-.19c.06,0,.18-.2.21-.17s0,0-.09.07.07,0,.07,0a.32.32,0,0,1,.11-.14c0,.06-.07.08,0,.11s.09-.08.09-.13,0,.05.08,0c0,.1-.15.19-.14.25,0-.09.11-.1.16-.24a.37.37,0,0,1-.08.15c0,.07.13-.14,0,0l.05-.09,0,.11s.12-.1.05,0c0,0,.06,0,.08-.09s-.06.06,0-.08c0,.12,0,0,.08,0l0,.06s0,0,.06-.05a.16.16,0,0,0,0,.08l0-.08c.05,0-.05.15,0,.14l-.06.05s0,.07,0,.05l.11-.22s0,.09,0,0l-.06.08s0,.14,0,.15.1-.12.08-.18,0,.06,0,.11,0-.09.07-.12,0,.14,0,.23l-.08.12h0c-.06.1,0,.08-.06.19s0,0,.07,0c0-.19.13-.23.16-.4s-.08.41.06.17c0,0,.07-.16,0-.13s.07-.16.1-.08,0,.18-.08.26,0,0,0,0,0,.16,0,.18S5,16,5,16s0,0,0-.09,0,.13.09,0c0,0,0-.09,0-.16l0,0,0,.06c0,.06,0-.11.1-.08v.13c0,.1-.07-.07-.1.11,0,0,.07-.07.09,0l0,0s0,.24.05.12,0-.06,0-.13.1-.07.14-.07.06,0,0,.15c0-.08-.09-.09-.14,0s0,0-.09.12,0,.16,0,.26,0,0,0,0a1.79,1.79,0,0,0,0-.19s.11,0,.16-.09,0,.14,0,.14a.26.26,0,0,1,.19.05c0-.16.08,0,.07-.15a.29.29,0,0,1,0-.22s0,.07,0,.1,0,.14.07,0c-.07,0,0,.18-.08.3.06-.06,0,.08,0,.09a.46.46,0,0,1,.17-.12c0,.12.15,0,.21,0s0,.2,0,.22,0-.15,0-.08v0s.09.11.13-.08l0,.14s0,0,0,0,0,.09,0,.12.07,0,.11,0v-.09c.07-.06.1,0,.17,0v.09l0,0c0,.08,0,.14,0,.07l-.12.19c0-.05,0-.1,0-.18s-.06-.06-.08,0,0,0,0,0,0,.11-.07.19,0,0,0,0-.05.06-.09.06,0-.08,0-.11-.06.13-.1.09-.1.06-.15,0a.66.66,0,0,1,.12-.22c0-.06,0,0-.06-.06a.63.63,0,0,1-.11.24v-.08s-.07.15-.11.12a1,1,0,0,0-.23-.09v-.08c-.07.16-.13,0-.2.1-.07-.09-.2,0-.21-.11a.73.73,0,0,1-.46,0l.06-.1c0,.07,0-.07,0-.06s-.07.1-.11.17c0-.1-.16,0-.25,0l0-.08c-.11.12-.14,0-.21-.08s0-.11,0-.11-.11.08-.2.13a.29.29,0,0,1-.13-.15c-.26.07-.38-.13-.64-.24l.05-.08c-.35-.07-.36-.5-.46-.75h.16c0-.07,0-.17-.15-.16.05-.08,0-.23.1-.25s0-.11,0-.18a.66.66,0,0,0,.18-.3l0,0s.08.07.1,0,.15-.12,0-.2c.17,0,.2-.32.4-.28,0,0,0-.06,0-.1s.27,0,.32-.14,0,.09.05.08,0-.06,0-.1.37,0,.51-.06a1.54,1.54,0,0,1,.75-.13v0c.08-.15.18.15.25-.06,0,0,.07,0,.05.09.07-.1.16.11.26,0s0,0,0,0,.17,0,.25.07a.12.12,0,0,0,0,.06c0,.07.1-.15.1,0,0,0,0-.09,0-.08.19.11.42,0,.65,0s-.07.3.08.19c0,0,0-.07,0,0s0,.21.07.13,0-.05.06-.12c.07.09.06.19.17.14l0,.05c.16-.11.22,0,.38-.12.45.21.85.38,1.19.55a5.49,5.49,0,0,0,.5.32l-.25-.08.12,0-.2,0,.17,0,.09,0,.17.06a1.21,1.21,0,0,1,.31.19,1.15,1.15,0,0,1,.38.6c-.05.08-.08.11-.08.15s0,0,.09.17,0,0-.05,0,0,.17.16.18a1.48,1.48,0,0,1-.11.58,1.18,1.18,0,0,1-.34.46c0-.06,0-.15-.05-.1v.11l0,0s0,.13,0,.13A1.09,1.09,0,0,1,9,17.6a1.26,1.26,0,0,1-.25,0,1.5,1.5,0,0,1-.39,0,3.68,3.68,0,0,0-.66-.09.54.54,0,0,0-.35,0,1.13,1.13,0,0,0-.89-.28S6.58,16.93,6.71,16.88Z"/><path class="cls-3" d="M6.44,16.92c0-.06,0-.1,0-.18A1.68,1.68,0,0,1,6.44,16.92Z"/><path class="cls-3" d="M5.63,16.13s0,0,0,0,0-.05,0,0S5.64,16.1,5.63,16.13Z"/><path class="cls-3" d="M5.41,16a.13.13,0,0,1,.1-.09Z"/><path class="cls-3" d="M5.25,15.77c0-.05,0-.07,0-.07A.26.26,0,0,1,5.25,15.77Z"/><path class="cls-3" d="M5.21,15.89s0,0,0-.07S5.24,15.8,5.21,15.89Z"/><path class="cls-3" d="M4.83,15.62s0,0,0,0S4.86,15.54,4.83,15.62Z"/><path class="cls-3" d="M4.61,15.64s0,0,0,0a.08.08,0,0,1,0-.06Z"/><polygon class="cls-3" points="5.4 14.72 5.37 14.75 5.38 14.69 5.4 14.72"/><path class="cls-3" d="M6.94,15.09s0,.05,0,.06S7,15.1,6.94,15.09Z"/><polygon class="cls-3" points="7.89 15.37 7.88 15.37 7.95 15.27 7.89 15.37"/><path class="cls-3" d="M31,8.69s0,.1,0,0S31,8.66,31,8.69Z"/><path class="cls-3" d="M31.08,8.9c-.23,0,0,0-.14-.06l.12,0c-.21-.09-.07-.07.09,0l0,0-.08-.05.07,0-.09-.06.13.08-.09-.06c-.2-.14,0,0-.08-.07l.05,0C31,8.74,31,8.74,31,8.7l.11.1L31,8.69c.09.07-.07-.07,0,0l0,0c-.08-.08.05,0,0-.06l.06.06c-.11-.11.06.05,0,0l0,0s0,0,0,0h0s0,0,0-.07l.12.14c-.07-.11,0-.11,0-.12l.06.1v0h0c.09,0,0,0,.05,0l0,.06s.07-.12,0-.07l-.06.1.06-.1,0,.06c.05-.1,0,0,0,0l0,.06c0,.08.07-.13.05-.09l0,.07a.79.79,0,0,1,.07-.11v0s0,0,0,0-.08.16-.06.14l.1-.2s0,.07,0,0l-.08.17,0,.08,0,0s0-.06,0,0l.11-.25-.07.17.11-.25,0,.07,0-.09s0,0,0,.1l0,.07,0,0v0l0-.13,0,0,0-.1,0,.1.07-.18,0,.08c0,.09,0-.12,0,0l0-.07,0,.07v0s0-.13,0,0l0-.13,0,.09,0,.07c0-.1,0,.09,0,0,0,.07,0-.14,0,0s0-.1,0,0l0,.11,0-.07v0l0-.08,0,.1,0,.11,0-.16v.05l0-.11,0,.11c0-.05,0-.11,0-.07v.06c0,.05,0,0,0,0l0,.16,0-.2c0,.17,0-.11,0,0l0,.12v.05l.2.23h0v0l0,0s.08,0,0,0l.13,0c-.08,0,.07.05-.07,0,0,0,0,0,.08,0-.11,0,0,.08-.18,0l.06,0c.07,0,0,0,0,0l.05,0-.14-.07c-.08,0,.2.12.14.11l-.06,0,.08.06A1.35,1.35,0,0,1,31.53,9L31.6,9,31.49,9c.07,0,0,0,.06.05h0s0,0,0,0l.09.05.06.06c-.08-.06-.06,0-.07,0l.06.05-.06,0s0,0,0,0-.1-.07-.05,0,.15.11.1.08l-.07-.06,0,0,.07.05,0,0c.07.06,0,0,.09.09l-.06,0h0s0,0,0,0h0s0,0,0,0-.24-.22-.16-.14l.15.16c-.05,0,0,.08-.07,0l0,.06s0,.11-.09,0a1.05,1.05,0,0,0-.08-.11c0,.07,0-.06,0,0l.09.12s0,.05-.05,0l0,.07c-.07-.11-.08-.12-.07-.08l0,.07,0-.07s.08.14,0,.08l0-.07c0,.06.06.16,0,.1l-.06-.1a.38.38,0,0,0,0,.1.53.53,0,0,1-.1-.14c.07.22,0,.25,0,.24l0-.05s0,.1,0,.06,0-.11-.05-.18,0,.1,0,.13,0,0,0,0,0-.05,0,.06l0-.17v.05c0-.13,0-.23-.09-.39v0c0-.11,0-.13,0-.17l.06.26s.05.26,0,.26,0,0,0-.11,0,.05,0,0a.86.86,0,0,1,0,.17c0-.05,0-.11,0-.12a.85.85,0,0,0,0,.16c0,.15,0,0,0,.08,0-.1,0-.24,0-.29s0,.14,0,.28a1,1,0,0,1,0-.17c0-.06,0,.18,0,0v.1l0-.11s0,.14,0,0a.24.24,0,0,0,0,.12c0,.06,0-.08,0,.07,0-.12,0,0,0,.06V9.63a.22.22,0,0,0,0,.07.51.51,0,0,0,0-.09V9.7s0-.16,0-.13V9.5s0-.07,0,0,0,.18,0,.25,0-.09,0,0V9.6a.55.55,0,0,0,0-.13.92.92,0,0,0,0,.19.26.26,0,0,1,0-.11s0,.09,0,.14V9.33h0v-.2s0,0,0,.05c0,.19,0,.25,0,.43s0-.42,0-.15c0,0,0,.17,0,.13s0,.17,0,.1,0-.17,0-.27c0,.06,0,0,0,0a1.58,1.58,0,0,0,0-.17.3.3,0,0,0,0,.11c0,.1,0,0,0,.09s0-.11,0,.06a.6.6,0,0,1,0,.15v0s0,.12,0,.1V9.62c0-.11,0,.05,0-.13,0,0,0,.08,0,0v0s0-.24,0-.11l0,.13,0,.1,0-.15c0,.08,0,.07,0-.05s0,0,0-.13L31,9v.05l0,.19s0,0,0,.12l0-.15s0,0,0,0l0,.16,0,.21v-.1c0,.08,0-.14,0,0l0-.31c0,.07,0-.09,0-.09l0,.14c0-.11,0,0,0,0L31,9s0,.15,0,.08v0s0-.09,0,.1L31,9v0l0-.12c0-.1,0,0,0,0V9c0,.07,0,0,0,0V9c0-.08,0-.14,0-.07l0-.21,0,.19c0,.07,0,.05,0,0v0l0-.19s0,0,0,0a.33.33,0,0,1,0-.07v.11c0-.1,0-.14,0-.11s0-.08,0,0l0,.23v.05l0-.25v.08s0-.15,0-.13a.11.11,0,0,0,0,.05v.08c0-.17,0-.06,0-.13s0-.07,0,.06c0-.06,0-.11,0-.09v.11c0-.08,0,.07,0,0V8.63h0v0s0,0,0,0h0v0h0l0,0h0l.16.05-.08.58s0,0,0,0v0c0-.08,0,0,0-.05l0-.06c0-.07,0,.15,0,0l0,.08c0-.08-.05,0-.09.06s.08-.3,0-.17v0s0-.2,0-.11l0,.12c0-.07,0-.17,0-.09l0-.06c-.06.16,0,.07-.11.25-.06,0-.16.09-.23.09s-.06,0-.09,0l.47-.58,0,.06,0,0h0l0,0h0V9h0l-.05,0H31L31,8.36H31l0,0,0,.05,0,0L31,8.9h.05Z"/><path class="cls-3" d="M31,8.68l0,.18Z"/><path class="cls-3" d="M31,9.34v0s0,.06,0,0Z"/><path class="cls-3" d="M31,9.38a.76.76,0,0,1,0,.11Z"/><path class="cls-3" d="M31,9.62s0,.07,0,.07Z"/><path class="cls-3" d="M31,9.49v.06A.47.47,0,0,1,31,9.49Z"/><path class="cls-3" d="M31.06,9.66s0-.05,0,0S31.06,9.75,31.06,9.66Z"/><path class="cls-3" d="M31.11,9.58s0,0,0,0a.24.24,0,0,1,0,.07Z"/><polygon class="cls-3" points="31.73 8.92 31.75 8.93 31.7 8.91 31.73 8.92"/><path class="cls-3" d="M31.35,8.34l0-.06Z"/><polygon class="cls-3" points="31.21 8.59 31.21 8.59 31.16 8.69 31.21 8.59"/><path class="cls-3" d="M31.21,8.56l0,0Z"/><path class="cls-3" d="M31.18,8.71c-.25,0,0,0-.15-.06l.12,0c-.21-.08-.07-.07.09,0l0,0-.08-.05.07,0-.09-.06.13.08-.09-.05c-.21-.13,0,0-.09-.07l.05,0c-.12-.09-.09-.09-.12-.13l.11.09-.11-.11c.08.08-.07-.07,0,0l0,0c-.08-.09.05,0,0-.06l.06.06c-.11-.12.06.06,0,0l0,0s0,0,0,0h0s0,0,0-.07l.12.15c-.07-.11,0-.11,0-.12l.05.1s-.07,0,0-.08l0,.06s.07-.12,0-.07l-.06.1.06-.1,0,.06c.06-.09,0,0,0,0l0,.06c0,.08.07-.13.05-.08l0,.07a.83.83,0,0,1,.07-.11v0s0,0,0,0-.08.16-.06.14l.1-.2s0,.07,0,0l-.08.17,0,.08,0,0s0-.05,0,0l.11-.25-.07.17.11-.25,0,.07,0-.09s0,0,0,.1l0,.07,0,0v0l0-.13,0,0,0-.1,0,.1.07-.18,0,.08c0,.09,0-.12,0,0l0-.07,0,.07v0s0-.13,0,0l0-.13,0,.09,0,.07c0-.1,0,.09,0,0,0,.07,0-.14,0,0s0-.1,0,0l0,.11,0-.07v0l0-.08,0,.1,0,.11,0-.16v.05l0-.12,0,.11,0-.07V8.2c0,.05,0,0,0,0l0,.16,0-.2c0,.17,0-.11,0,0l0,.12v.05l.19.3h0s.09,0,0,0l.13,0c-.08,0,.07,0-.06,0,0,0,0,0,.08,0-.11,0,0,.08-.18,0l.06,0c.07,0,0,0,0,0l.05,0-.14-.07c-.08,0,.2.13.14.11l-.06,0,.08.06a1.38,1.38,0,0,1-.19-.12l.06.06-.1-.06c.07,0,0,0,.06.05l0,0s0,0,0,0l.09.05.06.06c-.08-.06-.06,0-.07,0l.06.05-.06,0s0,0,0,0-.1-.07-.05,0,.15.11.09.08l-.07-.06,0,0,.07.05,0,0c.07.06,0,0,.09.09l-.06,0h0s0,0,0,0h0s0,0,0,0-.23-.23-.16-.15l.14.16s0,.08-.07,0l0,.06s0,.11-.09,0A1.05,1.05,0,0,0,31.52,9c0,.07,0-.06,0,0l.09.12s0,.05-.05,0l0,.07c-.06-.11-.08-.12-.07-.08l0,.07,0-.07s.08.14,0,.08l0-.07c0,.06.06.16,0,.1l-.06-.1a.39.39,0,0,0,0,.1.53.53,0,0,1-.1-.14c.07.22,0,.25,0,.24l0-.05s0,.1,0,.06,0-.11-.05-.18,0,.1,0,.13,0,0,0,0,0-.05,0,.06l0-.17v.05c0-.13,0-.23-.08-.39v0c0-.11,0-.13,0-.17l.06.26s.05.26,0,.26,0,0,0-.11,0,.05,0,0a.87.87,0,0,1,0,.18c0-.05,0-.11,0-.12a.81.81,0,0,0,0,.16c0,.15,0,0,0,.08,0-.1,0-.24,0-.29s0,.14,0,.28a1,1,0,0,1,0-.17c0-.06,0,.18,0,0v.1l0-.11s0,.14,0,0c0,0,0,0,0,.12s0-.08,0,.07c0-.12,0,0,0,.06V9.43a.22.22,0,0,0,0,.07.48.48,0,0,0,0-.09v.09s0-.16,0-.13V9.31s0-.07,0,0v.25s0-.09,0,0V9.4a.55.55,0,0,0,0-.13.91.91,0,0,0,0,.19.26.26,0,0,1,0-.11s0,.09,0,.14V9.14h0v-.2s0,0,0,.05c0,.19,0,.25,0,.43s0-.42,0-.15c0,0,0,.17,0,.13s0,.17,0,.1,0-.17,0-.27c0,.06,0,0,0,0a1.66,1.66,0,0,0,0-.17.31.31,0,0,0,0,.11c0,.1,0,0,0,.09s0-.11,0,.06a.65.65,0,0,1,0,.15v0s0,.12,0,.1V9.42c0-.11,0,.05,0-.13,0,0,0,.08,0,0v0s0-.24,0-.11a.7.7,0,0,0,0,.13s0,.08-.06.09,0,0,0-.15c0,.08,0,.08,0,0s0,0,0-.13a1.39,1.39,0,0,1,0-.26v0l0,.19s0,0-.06.11a.76.76,0,0,1,0-.15s0,0,0,0c0,.15,0,0-.06.15a1,1,0,0,1-.06.21.61.61,0,0,1,0-.1c0,.08,0-.13,0,0A1.82,1.82,0,0,0,31,9c0,.06,0-.08,0-.08A.5.5,0,0,1,31,9c0-.11,0,0,0,0L31,8.81s-.07.13,0,.07l0,0s0-.08-.07.08L31,8.81l0,0,.07-.1c.06-.08,0,0,0,0L31,8.82c-.05.05,0,0,0,0L31,8.76l0,0,0-.05.15-.16-.12.14c0,.06,0,0,0,0l0,0,.13-.15h0l0-.06-.07.09.07-.09c-.07.1,0-.07,0,0l-.13.2,0,0,.13-.21,0,.07.06-.12,0,0,0,.07a.39.39,0,0,0,0-.13c0,.07,0-.08,0,.05,0-.06,0-.12,0-.08v.1c0-.08,0,.07,0,0V8.45h0v0h0s0,0,0,0h0v0h0l0,0h.09l-.47-.17h0l.48.76s0,0,0,0v0c0-.08,0,0,0-.05V9.07c0-.07,0,.15,0,0l0,.08c0-.08-.06,0-.09.06s.08-.3,0-.17v0s0-.2,0-.11l0,.12c0-.07,0-.17,0-.09l0-.06c-.06.16,0,.07-.11.25-.07,0-.17.09-.24.08s-.06,0-.09,0l.47-.57,0,0h0l0,0h0l.09.08h0l-.07,0h0l-.06,0h-.13l.48,0a.55.55,0,0,0-.15-.36.52.52,0,0,1,.07.21.48.48,0,0,1,0,.12l-.41,0h.06Z"/><path class="cls-3" d="M31.22,8.55l-.13.13Z"/><path class="cls-3" d="M31,9.12s0,0,0,0,0,.05,0,0Z"/><path class="cls-3" d="M31,9.18a.18.18,0,0,1-.05.1Z"/><path class="cls-3" d="M31,9.42s0,.07,0,.07Z"/><path class="cls-3" d="M31.06,9.29s0,0,0,.06S31,9.39,31.06,9.29Z"/><path class="cls-3" d="M31.15,9.47s0-.05,0,0S31.14,9.55,31.15,9.47Z"/><path class="cls-3" d="M31.2,9.39s0,0,0,0a.24.24,0,0,1,0,.07Z"/><polygon class="cls-3" points="31.81 8.74 31.84 8.75 31.79 8.73 31.81 8.74"/><path class="cls-3" d="M31.44,8.15l0-.06Z"/><polygon class="cls-3" points="31.3 8.4 31.31 8.4 31.26 8.5 31.3 8.4"/><path class="cls-3" d="M28,36.71c.7.09-.36-.15.46,0A.7.7,0,0,1,28,36.71Z"/><path class="cls-3" d="M30.77,36.62l.3-.13a.58.58,0,0,0,.28-.26.56.56,0,0,0-.11-.68c-.19-.19-.46-.12-.68-.12h-.71a6,6,0,0,0,.8-.93.5.5,0,0,0-.22-.56.52.52,0,0,0-.6,0,5.44,5.44,0,0,1-2.12,1.07c-.29,0,.07-.12-.54-.19a3.67,3.67,0,0,1-2.45-1.74c-.29-.5-.55-1-.84-1.55a16.48,16.48,0,0,1-.57-1.69l0,.06a9.81,9.81,0,0,0,2.09-1l-.12.14a8.63,8.63,0,0,0,1.32-1.26s-.1.16,0,.1.69-.82.77-1.06.21-.1.42-.33c0-.11.07-.23.1-.34a16.72,16.72,0,0,0,1.29-3.26c0,.06,0,.19,0,.1a11.79,11.79,0,0,0,.19-3,5.62,5.62,0,0,0-.1-.79,3.5,3.5,0,0,0-.18-.78,2.76,2.76,0,0,0-.94-1.23l0,0,0-.06a3.45,3.45,0,0,0,.17-.52c0,.1.05.2.13.08a4.53,4.53,0,0,1,.22-1.41,2.38,2.38,0,0,0,.2-.69,5.64,5.64,0,0,1,.36-1v.07c.09-.54.36-.69.4-1.14l.15-.19.08-.1.05,0,.1,0c.24-.15.75.15,1.18.07v0c.4,0,.6,0,1-.05l0,0c.91,0,1.41.16,1.4,0,.3.13-.87-.06-.39.14a6.39,6.39,0,0,0,2,0,.69.69,0,0,0,.46-.75,2.29,2.29,0,0,0-.39-.91,31.89,31.89,0,0,0-2.16-3.53l.11-.14a5.49,5.49,0,0,0,.53.16.52.52,0,0,0,.51-.16.53.53,0,0,0,0-.3h0a3.85,3.85,0,0,0,.8-.7c-.07.07.18-.08.29-.19.38-.38.3-.52.54-1,0,.22,0,.31,0,.26a1.85,1.85,0,0,0,0-.84,1.27,1.27,0,0,0-.47-.73c.08,0,.18.14.2.1a1.34,1.34,0,0,0-1.57-.29l.18-.13c-.46.1-.49.2-.52.25s0,.11-.37.31c.14-.13.07-.11.08-.16l-.15.14,0,0v0a6.9,6.9,0,0,0-.84-2.25s0,0,0,0a1.51,1.51,0,0,0-.88-.7.54.54,0,0,0-.51.12c-.12.1-.12.34-.14.55s-.21-.12-.15.73c.08,0,.16.54.27.82l.09.23-.24-.13c-.16-.08-.24-.1-.12,0a5.09,5.09,0,0,0-1.07-.59,1.43,1.43,0,0,0-1-.1c.29-.11-.38-.12.2-.22a1.19,1.19,0,0,0-.48,0c0-.11.5-.11.33-.15a1.22,1.22,0,0,0-.71.4,1.19,1.19,0,0,0-.32.72,1,1,0,0,0,.51.72,6.32,6.32,0,0,0,1,.49c-.4-.13.15.25-.12.15a8.5,8.5,0,0,0,1.27.17c.31.1,0,.12.47.26,0,0,.19,0,.32.06s1.1.72,1.09.92-.4-.29-.17,0c.38.32.46.34.79.62l0,.07v0h0l0,.08a.41.41,0,0,1,0,.07h0V7l0,.37-.21-.24c-.25-.29-.84-.49-.56-.26s0-.13.24.11a4.35,4.35,0,0,0-1.25-.37c.17,0,.15,0,.23-.07a2.45,2.45,0,0,0-1.88.76c0,.06.13-.27.25-.31-.88.49-1.2,1.62-1.55,2.37,0-.14.11,0,.09,0-.13.46-.22.43-.24.74-.07,0,0,.4,0,.72,0,.16,0,.09,0-.2a4.8,4.8,0,0,0,.17,1.13l0,.08,0,.12L28.21,13A6.7,6.7,0,0,1,28,14.1a2.27,2.27,0,0,1-.26,1l0-.14c-.15.2-.43.78-.53.78-.12.27.19-.2.4-.67s.34-1,.26-.61c-.12.19-.36,1.06-.39.85a4.31,4.31,0,0,1-.81,1.21l-.2.18-.2-.07-.12,0h.13l.33,0,0-.06c0-.09,0-.16-.07-.06l-.14.12-.13,0-.13,0a7.74,7.74,0,0,0-.78-.07l-.36,0c0,.08-.63-.08-.38,0-.08-.09-1,0-1-.16l.1-.11a2.94,2.94,0,0,0-.75.16s-.12,0-.11-.05c0,.17-.74,0-1.09.17-.64,0-1.64.24-2,.17a8.57,8.57,0,0,1-1.51.33c.11,0,.27-.07.29-.11a2.56,2.56,0,0,0-.77.15,10.87,10.87,0,0,0-1.15,0c-.49.14-.3.2-.34.26-.49-.09-1.4.35-2,.3.17-.05.72-.21.29-.18a2.12,2.12,0,0,0-1,.2l-.92.29.73-.86a.27.27,0,0,0,0-.09,2.35,2.35,0,0,1,.14-.32l-.2.11c.21-.26.27-1,.39-.91,0-.24.27-.81.12-.77a22,22,0,0,0,.52-3.57c0-.17,0-.59-.11-.5,0,.29.09.39,0,.5,0-.15-.06-.18-.07-.2,0-.37,0-.66.13-.32,0-.83-.32-.82-.53-1.81.07,0,.07-.05,0-.33a3.56,3.56,0,0,0-.3-.45c-.27-.49-.07-.34,0-.42-.21-.26-.5-.36-.6-.26a.52.52,0,0,0-.32,0c.25-.06-.16.16-.22.33l.08-.13c-.07,0-.28.34-.36.52.07,0,.29-.34.44-.46a2.69,2.69,0,0,0-.27.55c-.06-.11-.28.45-.32.73s0,.36,0,.45-.05.51-.1.26a3,3,0,0,0,0-.42.88.88,0,0,0-.11.61c0,.34.18-.08.12.55a2.55,2.55,0,0,0-.1-.32c0,.2,0,.4,0,.6L12,11c0,.08,0,0,0,.06s.11.92.23,1c0,.31,0,.65.06,1V13a3.6,3.6,0,0,0,.19,1.14h0a3.74,3.74,0,0,0,.21.87c0,.48-.29.24,0,.72s.43.51.39.37a.41.41,0,0,0,.13.17l.15.1.06.16.14.38s0,0,0,0l-.05,1a7,7,0,0,1-1.51.12.72.72,0,0,1-.32.1l-1.06.06-.53,0H9.65c-.06,0,0,0,0,0s.06-.09,0,.13l-.11.22c0,.06,0,0,0,0l0,0,.08.21c0,.14.09.28.13.41-.19-.35-.09,0-.13,0,.2.26.09.39.26.44s.1,0,0-.41a17.38,17.38,0,0,1,1,2.3c-.06-.22,0-.07.13.08-.14,0,.08.55.3.94l.09,0,0,.3c.09.15.22.11.34.54a.2.2,0,0,0,0,.15,8.77,8.77,0,0,1,.79,1.39l.09.41a1.86,1.86,0,0,0,.15.21l.35.4-.69.34c-.09,0-.13.09,0,.07l.7-.08-.31-.77,0-.06,0,.06.32.72-.71.13-1,.18a3.08,3.08,0,0,1-.66.07A5.75,5.75,0,0,1,8,26.77l-.79-.17-.65-.21A11.51,11.51,0,0,1,5.2,25.9l.07,0c-.44-.27-.29,0-.6-.24.18,0-.29-.32.11-.15a2.5,2.5,0,0,1-1.1-1.22c-.11-.06.19.42.07.35A2.06,2.06,0,0,1,3.57,24a2.47,2.47,0,0,0-.1-.62c0-.19.13,0,.17.06a4.36,4.36,0,0,1,0-.46c.09-.27.11.05.17.36s.16.6.22.31a3.52,3.52,0,0,1,0-.39c.11-.36.15,1,.17.06,0-.41-.14-.79-.24-.42C4,22,3.67,22.41,4,21.46c.14-.24-.22.76-.06.61a4,4,0,0,0,.21-.65c0-.15,0-.11,0-.13s0,0,0,0-.18,0-.09.15,0,0,0-.06,0,0,0,0-.3.28,0,.17c0,.16-.32.17-.32.45-.17.09,0-.52-.28-.09.09,0-.06.69.16.44-.06.2-.14.23-.18.05-.12.32.15.79,0,.93l-.7.66,0,0v0l-.16.06-.44-.25c-.33-.1-1.09-.1-1-.24l-.19,0h0s.09,0,.1.07a.1.1,0,0,1-.12,0h0a.56.56,0,0,1,.41.12.87.87,0,0,0-.41-.11h0a.23.23,0,0,0,.25,0l0,0c.08-.06,0-.26,0-.33s0,.07-.08.06l0-.06s0,0,0,0c.85.16.17.17.95.42a4.23,4.23,0,0,0-.6-.14c.13,0,.37.18.72.32a4,4,0,0,1,.6.07c.39.22.11.19.5.38l-.51-.25c-.08,0,.25.33.64.67s.73.42.37.06c.2.17.43.42.24.34.45.32,0-.11.4.14a6,6,0,0,0,.86.77l-.51-.12.29.17c-.44-.11.16.18-.12.17a2.68,2.68,0,0,0,.69.28c-.54-.44.8.06.68-.19.86.24.42.59,1.42.56-.14-.08.32-.11-.25-.18.55.14.41-.08,1.05.09-.5,0,.51.25-.22.24.06,0-.39-.11-.5-.12.22.11-.08.16.51.26.36.05.86,0,.8,0s-.55,0-.31-.11c.72,0,.83.16,1.13,0-.45,0-.56-.12-.54-.19h.52l-.1.06c.84.08.22-.08,1.07-.06l.4.13c-.21.12-1.23-.05-1.08.12.52,0,.74-.08,1.24,0l-.38,0a1.74,1.74,0,0,0,1.14.07c.37-.09.09-.07.09-.14a3.22,3.22,0,0,0,.82-.23l.4-.14.32.39.47.56c-.18,0,.6.75.11.37a7.9,7.9,0,0,0-.63-.9l-.27-.35-.39.13a4.3,4.3,0,0,0-.63.26c.32.12-.64.06-.82.2.68,0,.66.11.79.2a1.35,1.35,0,0,0,.47-.15c.05-.11-.18,0-.21-.14l.48-.12.23-.07.14.2a4.93,4.93,0,0,0,1,1.05c.13.22,0,.23-.2,0a6.21,6.21,0,0,0,2.11,1.66c-.45-.34.9.31.59,0s-.71-.44-.46-.41,0,.06.06.13c.35.05.47.32.84.28-.78-.17-.21.14-.38.22.6.1-.05.08.53.23a12.67,12.67,0,0,0,2,.05A6.47,6.47,0,0,0,21.91,30l.31-.09.07.34c0,.17.08.33.12.46.06.38-.16.18,0,.59s0-.4.22.31l-.05-.05c.1.2.53,1.28.85,1.34l-.25-.11a1.38,1.38,0,0,0,.25.3s0,.19-.14,0a4.07,4.07,0,0,0,1,1.15l-.16-.3a9.71,9.71,0,0,0,1.72,1.47l-.07.06.46.21c-.15,0,.24.29.51.31a6.22,6.22,0,0,1-1.26-.45c-.28-.25.39.14.25-.06a3.75,3.75,0,0,0-.9-.64,1.69,1.69,0,0,0,.45.31c0,.16-.36-.12-.58-.22.12.1.28.27.33.27a3.69,3.69,0,0,1-.91-.73c.28.22-.08-.19,0-.12-.1,0-.49-.3-.85-.84a19.06,19.06,0,0,1-1-1.69,10.92,10.92,0,0,1,.74.91,8.17,8.17,0,0,1-.42-.89,2,2,0,0,1-.6-.84L22,31c-.12-.31-.19-.43-.26-.64l.32.21a2.41,2.41,0,0,1-.59.15,11.38,11.38,0,0,1-3.41,0l0-.08a5.4,5.4,0,0,1-2.37-.61,6.51,6.51,0,0,1-2.31-2.23L13,27.39l.28.1a8.12,8.12,0,0,1-2.7.34c-.44,0-.9,0-1.36-.05a8.27,8.27,0,0,1-1.41-.15l.38-.05c-.4,0-.24-.1-.61-.16.41.18-.54,0-.82,0a20.21,20.21,0,0,1-2.89-1.18l0-.08c-.84-.37-1.45-1.27-2.29-1.7a1,1,0,0,0-.5-.29c-.15,0-.22,0-.4,0a.8.8,0,0,1-.52-.33A.87.87,0,0,1,0,23.11a.92.92,0,0,1,.7-.67,1,1,0,0,1,.28,0H1A9.22,9.22,0,0,1,3,23l-.5.42v-.11a3.11,3.11,0,0,1,.19-2,1.94,1.94,0,0,1,.77-.83l.27-.12a1.63,1.63,0,0,1,.42-.06.94.94,0,0,1,.74.42A1,1,0,0,1,5,21.6c-.06.17-.09.26-.14.4a5.23,5.23,0,0,0-.17.8,2.36,2.36,0,0,0,.16,1.42.86.86,0,0,0,0,.14A10,10,0,0,0,8,25.56a5.29,5.29,0,0,0,1.66.18,7.26,7.26,0,0,0,.8-.06c.27-.05.44-.13.67-.19-.05.07-.09.13-.13.2a3.65,3.65,0,0,0,1.2-.4l-.34.75s-.06,0-.06,0a9.66,9.66,0,0,1-.86-1.8,12.67,12.67,0,0,0-.63-1.17,25.74,25.74,0,0,0-1.18-2.69l.11.27c.09.1.15.09,0-.19s-.63-1.51-.62-1c-.06-.16-.1-.28-.19-.49a1.11,1.11,0,0,1,0-.86l.07-.15.12-.25,0-.06.07-.13a1.11,1.11,0,0,1,.76-.5h.37c.72,0,1.44-.08,2.06-.06-.11,0,.2-.08.32-.13l1-.1L13.12,18a1.14,1.14,0,0,1-.76-.66l-.16-.46.26.33a1.86,1.86,0,0,1-.66-.82c-.11-.25-.19-.48-.27-.69s.16.28,0-.21c-.08-.28-.07,0-.17-.33A21,21,0,0,1,11,12.38,14.79,14.79,0,0,1,11,9.62a3.87,3.87,0,0,1,.95-2.43,1.54,1.54,0,0,1,1.74-.38,2.28,2.28,0,0,1,1,1.14,8.49,8.49,0,0,1,.64,2.32,12.83,12.83,0,0,1,.14,2.28l0,0c.13,1-.39,2.29-.39,3.1-.09.22-.27.86-.29.67a3.8,3.8,0,0,1-.18.61l-.14.35a1.23,1.23,0,0,1-.17.31,1.09,1.09,0,0,1-.33.28l-.39-1.13a12.29,12.29,0,0,0,1.82-.33,1.26,1.26,0,0,0-.26.07c1.09-.1,2-.38,3.2-.5a1.29,1.29,0,0,0-.35.13c.46,0,1-.33,1.3-.19.26,0,.17-.12,0-.09a18.37,18.37,0,0,1,7.22-.12l-.63.18a4.5,4.5,0,0,0,.46-.62c.51-.73.56-.73.59-.68s.05.12.2-.54c.06-.1,0-.1,0-.1.08-.52.36-.79.35-1.21-.14.15,0-.28-.07-.31l.19-.68v.24a10,10,0,0,1-.07-1.79l.05.08a6.34,6.34,0,0,1,1.09-3.33A3.44,3.44,0,0,1,31,5.59a3.34,3.34,0,0,1,2.5.92l-1.11.79a1.65,1.65,0,0,1-.1-.45l.12.39A.81.81,0,0,1,32.3,7l.23.36A9.25,9.25,0,0,0,30.65,6a3,3,0,0,0-.48-.17l-.65-.2A5.66,5.66,0,0,1,28.24,5a2.61,2.61,0,0,1-.63-.6,1.67,1.67,0,0,1-.32-1.07,1.7,1.7,0,0,1,.44-1,1.88,1.88,0,0,1,.86-.57,2.69,2.69,0,0,1,1.72.14,6.5,6.5,0,0,1,1.26.66l-1.23.85a5.77,5.77,0,0,1-.2-1.6,3.77,3.77,0,0,1,0-.44l0-.22a1.64,1.64,0,0,1,.11-.33A1.32,1.32,0,0,1,31,.14,1.44,1.44,0,0,1,31.77,0a2.15,2.15,0,0,1,1.3.71,3.71,3.71,0,0,1,.64,1,7.73,7.73,0,0,1,.54,2L33,3.23a3.21,3.21,0,0,1,2-.74,1.93,1.93,0,0,1,.68.16,1.79,1.79,0,0,1,.32.19l.22.18a2.09,2.09,0,0,1,.57,2.38,3.26,3.26,0,0,1-.57.93,6.65,6.65,0,0,1-1.42,1.21l.36-.82a1.31,1.31,0,0,1-1,1.5,1.28,1.28,0,0,1-.51,0l-.23-.06L33.2,8.1l-.09,0L32.88,8l1-1.27a11.8,11.8,0,0,1,1.49,2.38l.6,1.09a3.16,3.16,0,0,1,.62,1.64,1.48,1.48,0,0,1-.85,1.28,2,2,0,0,1-.89.17c-.48,0-.89-.07-1.61-.13.06,0,.15,0,.06,0s-1-.08-1.08.07l-.23,0-.32,0c-.22,0-.44,0-.64,0-.43,0-.78-.05-1.15-.07l.75-.48a21.66,21.66,0,0,0-1.33,3.76c.08-.36,0-.56-.07-.14l0,.46-.05.06c0,.27-.17.69,0,.35l-.14.35-.24-1a3.61,3.61,0,0,1,1.36,2.1,9.57,9.57,0,0,1,.18,2.16,10.51,10.51,0,0,1-1,4.11,11,11,0,0,1-5.83,5.74l.42-.9.15.42c.09.32.19.56.29.87a9.13,9.13,0,0,0,.56,1,9.69,9.69,0,0,0,.57,1,2.48,2.48,0,0,0,.62.63,3.57,3.57,0,0,0,1.29.73,1.79,1.79,0,0,0,1.26-.28,7.36,7.36,0,0,0,.7-.42l.18-.12a1,1,0,0,1,1.3.09,1,1,0,0,1,.19,1.28,1.13,1.13,0,0,1-.19.23l-.68.7-.3-.91h.85a1.27,1.27,0,0,1,.54.07,1,1,0,0,1,.36,1.57,1,1,0,0,1-.49.3,6.88,6.88,0,0,1-2.74.22,3.5,3.5,0,0,1,.54-.12A17.54,17.54,0,0,0,30.77,36.62Z"/><path class="cls-3" d="M27.14,36.51c-.13-.1-.58-.3-.18-.25C27,36.34,27.21,36.48,27.14,36.51Z"/><path class="cls-3" d="M17.51,30s-.16-.07-.2-.09a2,2,0,0,1,.4.07C17.57,30,17.59,30,17.51,30Z"/><path class="cls-3" d="M14.88,28.58c.07,0,.56.39.88.57A4.56,4.56,0,0,1,14.88,28.58Z"/><path class="cls-3" d="M12.2,26.75c-.24,0-.17-.05.13-.09C12.36,26.69,12.27,26.72,12.2,26.75Z"/><path class="cls-3" d="M12,26.9a1.28,1.28,0,0,1-.47,0C11.56,26.91,12.09,26.8,12,26.9Z"/><path class="cls-3" d="M5.81,26a1.52,1.52,0,0,1-.54-.26C5.38,25.8,5.94,25.92,5.81,26Z"/><path class="cls-3" d="M3.35,24.46a1.17,1.17,0,0,0-.21-.17c-.14-.14.05,0,.18.05Z"/><path class="cls-3" d="M13.75,17.7h0l-.67.17.39-1a.05.05,0,0,0,0,0l0,0h0l.27.78Z"/><path class="cls-3" d="M31.1,6.68c.28,0,.19.06.23.06C31.09,6.74,31.42,6.67,31.1,6.68Z"/><polygon class="cls-3" points="31.09 2.18 31.1 2.27 30.98 2.25 31.09 2.18"/><path class="cls-3" d="M18.5,17.31s.07.08,0,0S18.47,17.28,18.5,17.31Z"/><path class="cls-3" d="M18.45,17.49c.1.15.11.17.08.22s0,.11.06.14-.16,0-.12,0c.25,0,.14.18.07.39l0,0s.13,0,.12,0l-.07,0c.08,0,.06,0,.12,0s-.08.08-.1.11l.09-.06c.21-.14.05.08.18,0l0,0c.16,0,.22,0,.31,0L19,18.6c.07-.09.1-.09.13-.1s.09-.07.08,0l0,0c.08-.09,0,.07.08,0l0,.08c.09-.13,0,.09,0,0l0,0s0,0,0,0v0s0,.07.08,0c0,.09,0,0-.1.16.16-.07.24,0,.35,0a.49.49,0,0,1,0,.11s0,0,.08-.06a.34.34,0,0,0,0,.07c0,.05.07-.12.07-.06a.39.39,0,0,0,0,.11c.05-.08.07-.06.1-.08a.28.28,0,0,0,0,.07c.06-.09,0,0,.08,0l0,.07c0,.09.06-.14.07-.08a.33.33,0,0,0,0,.07c.07-.12.1-.06.13-.1v0s.05,0,.1,0-.05.17,0,.15.07,0,.09-.21c0,0,0,.09.08,0s0,.17-.05.18v.09c0,.06,0,0,0,0s.06,0,.06,0,.1-.24.13-.25,0,.16,0,.18l.1-.26s0,.11,0,.08a.45.45,0,0,1,0-.09s.05,0,0,.11,0,0,0,.08,0,0,.05,0v0s0-.05,0-.13,0,.08,0,0,0-.1.07-.1a.61.61,0,0,0,0,.1.59.59,0,0,1,.11-.18c0-.07,0,.12,0,.08s.09-.12.11,0,0-.1,0-.08,0,.11,0,.07,0,0,0,0,0,0,0,0,.09-.13.12,0a.37.37,0,0,1,0-.13v.09c0,.05,0,0,0,.07,0-.11-.07.09,0,0,0,.07,0-.14,0,0s0-.1.05,0,0,.12,0,.12,0,0,0-.07v0c0-.09,0,0,0-.09,0,.07,0,0,0,.1v.11a1,1,0,0,0,0-.17v.05c0-.17,0,0,0-.12,0,.06,0,0,.07.11,0-.05,0-.12,0-.08a.27.27,0,0,0,0,.06s0,0,0,0a.93.93,0,0,0,.06.15,1,1,0,0,0,0-.2l0,0-.28.53s-.14,0,0-.06a.22.22,0,0,0,.12,0c.15-.07-.13,0-.06,0l-.13.05c.08,0-.09,0,0-.06h0l.1.16s0,0-.07,0c0-.11-.13,0,0-.22,0,0,0,0-.06,0s0,0,0,0l0,0s0,0,.1-.12-.18.15-.18.08.05-.06,0-.06l-.08.06S20.9,19,21,19s0,0-.08,0l.07-.1c-.05.07,0,0-.07,0h0s0,0,0,0a.2.2,0,0,0,0,.09l-.08,0c.07-.07,0-.06,0-.08s-.07.05-.07,0,0,0,0-.06,0,0,0,0,.08-.1,0-.06-.12.14-.1.08l.07-.06,0-.05-.06.06,0,0c-.07.06,0,0-.11.07s0-.06,0-.07h0s0,0-.06,0h0s0,0-.06,0,.21-.25.12-.18-.12.1-.15.15-.1,0,0-.1l-.06.05c0-.06-.14,0-.07-.14s.05-.07.08-.11,0-.07,0,0a.43.43,0,0,0-.08.13s-.08,0-.05-.08a.16.16,0,0,1-.05.06c.07-.1.07-.13,0-.1l0,.06,0-.07s-.1.13-.07.06l0-.07s-.13.11-.1.05l.05-.1a.19.19,0,0,0-.07.09.4.4,0,0,1,0-.17c-.17.16-.23.14-.27.09l0,0c0-.05-.06.08,0,0a1.53,1.53,0,0,1,.09-.16c0-.06-.07.07-.1.08s0,0,0,0,0-.07-.06,0a1.18,1.18,0,0,1,.09-.15l0,0c0-.12.15-.19.22-.33h0c0-.11.1-.1.09-.15a.85.85,0,0,0-.15.23s-.14.23-.17.21,0,0,.07-.09-.05,0,0,0a.44.44,0,0,1-.09.15c0-.05.06-.09,0-.11s-.07.09-.08.14,0,0-.06,0c0-.1.13-.2.13-.26a2.13,2.13,0,0,0-.15.24.57.57,0,0,1,.07-.15c0-.06-.11.15,0,0l-.05.09,0-.11s-.09.11,0,0c0,0,0,0-.07.1s.05-.06,0,.07c0-.11,0,0-.05,0l0-.05s0,0-.05.06a.29.29,0,0,0,0-.08l0,.08s.06-.15,0-.13l0-.06s0-.07,0,0l-.11.22s0-.09,0,0l.05-.09s0-.13,0-.13a.45.45,0,0,0-.09.17s0-.05,0-.11,0,.08-.07.12l0-.21.07-.12h0c.06-.1,0-.08.08-.19s0,0,0,0a3.83,3.83,0,0,1-.17.39s.13-.4,0-.16c0,0-.07.16,0,.12s-.07.16-.07.08,0-.17.1-.26,0,0,0,0,.06-.16,0-.17,0,0-.06.09,0,0,0,.09,0-.12-.05,0c0,0,0,.09,0,.15l0,0,0-.06c0-.05,0,.11-.06.08l0-.13c0-.1,0,.06.07-.11,0,0,0,.07,0,0l0,0s.06-.24,0-.11a.43.43,0,0,0,0,.12s-.06.08-.08.08,0,0,0-.15c0,.08,0,.08.07,0s0,0,.07-.12,0-.16.05-.25,0,0,0,0,0,.09,0,.18-.06,0-.1.1a.35.35,0,0,1,0-.14s-.07,0-.09,0c0,.15,0,0-.06.15a.56.56,0,0,1,0,.21s0-.07,0-.1,0-.14,0,0a1.26,1.26,0,0,0,.08-.3c0,.06,0-.08,0-.09a.47.47,0,0,1-.1.13c0-.12-.07,0-.1,0s0-.19,0-.22,0,.15,0,.08v0s0-.1-.07.09l0-.15s0,0,0,0a.56.56,0,0,1,0-.12c0-.1,0,0-.06,0v.09c0,.07,0,0,0,0l0-.08v0c0-.08-.05-.13,0-.07a.55.55,0,0,1,0-.2c0,.05,0,.1,0,.18s0,.06,0,0,0,0,0,0a.4.4,0,0,1,0-.19s0,0,0,0,0-.07.07-.07,0,.07,0,.11.05-.13.07-.1.06-.07.08,0a1.15,1.15,0,0,1-.08.23c0,.06,0,0,0,.06A1,1,0,0,1,19,17.3v.08s0-.15.07-.12a.37.37,0,0,0,.12.08l0,.08c.06-.16.08,0,.13-.11,0,.08.12,0,.11.09.1,0,.19-.07.26,0l-.05.1c0-.07,0,.07,0,.05s.06-.1.1-.17c0,.1.08,0,.15,0l0,.07c.09-.12.08,0,.11.05s0,.1,0,.1a.5.5,0,0,1,.15-.15.14.14,0,0,1,0,.11c.17-.11.2,0,.34,0l0,.08c.19-.12.2.1.32.06l-.09.13c0,.05.07,0,.13-.1s.1,0,0,.09.07,0,.1,0,0,.08.09.09v0s-.07.08-.06.09,0,.08.13-.09c0,.12.15,0,.1.16,0,0,0,0,.07-.07s0,.14.09.1-.07.06-.05.08,0-.05.07-.06.05.17.12.2.22.13.31.2l0,0c.13-.08,0,.17.14,0v0l.16.25s0,0-.06,0c.1,0-.06.11.07.1h0s0,0,0,0l.15.69-.56.07s-.08.06-.14,0a.14.14,0,0,0,0-.07c0-.07,0,.17-.07,0,0,0,0,.09,0,.09-.14-.05-.26.07-.39.1s0-.31-.07-.17c0,0,0,.07,0,0s0-.21-.05-.11,0,.06,0,.13,0-.18-.09-.1v-.06c-.06.16-.1.07-.17.25a3.92,3.92,0,0,1-.79,0c-.23-.11-.51-.11-.71-.33,0-.17,0-.16-.08-.14a.13.13,0,0,0,0,0c-.06.11,0,0-.11.09-.08-.08-.18-.09-.28-.16s.09-.08.07-.09l-.06.05,0,0a.16.16,0,0,0-.08.09c-.32-.08-.39-.51-.58-.79,0-.11-.08-.21-.14-.3s.12-.32.15-.44a2.89,2.89,0,0,1,.27-.66A4.86,4.86,0,0,1,18.45,17.49Z"/><path class="cls-3" d="M18.54,17.29a.38.38,0,0,1,.09.17Z"/><path class="cls-3" d="M19,18s0,0,0,0,0,.05,0,0A.22.22,0,0,0,19,18Z"/><path class="cls-3" d="M19.12,18.05a.15.15,0,0,1-.06.09Z"/><path class="cls-3" d="M19.14,18.31s0,.07,0,.07Z"/><path class="cls-3" d="M19.19,18.18s0,0,0,.07S19.16,18.27,19.19,18.18Z"/><path class="cls-3" d="M19.33,18.41s0,0,0,0S19.29,18.48,19.33,18.41Z"/><path class="cls-3" d="M19.45,18.37s0,0,0,0a.14.14,0,0,1,0,.06Z"/><polygon class="cls-3" points="21 19.18 20.97 19.18 21.02 19.16 21 19.18"/><path class="cls-3" d="M20.65,18.7s0-.05,0-.06S20.64,18.71,20.65,18.7Z"/><polygon class="cls-3" points="20.13 18.88 20.13 18.88 20.1 18.99 20.13 18.88"/><path class="cls-3" d="M19.13,21.69s0-.09,0,0S19.15,21.72,19.13,21.69Z"/><path class="cls-3" d="M19.32,21.6c.11-.32.38-.06.52-.29,0,0,0,.16.07.11.12-.26.4-.2.67-.11v0c.05,0,0-.14.09-.14s0,0,0,.08.06-.07,0-.14.06.09.09.12l0-.1c0-.26.16-.06.19-.22A.13.13,0,0,0,21,21c.06-.2.23-.28.32-.42a.43.43,0,0,0,.09.12.17.17,0,0,1,0-.19c.09.07,0-.13.06-.11v0c0-.05,0-.05,0-.05l.12.25s0,0,0,0l0-.08c0,.16-.07-.07-.09,0v0s-.05,0-.07,0v0a.08.08,0,0,1-.06,0h-.06s0,0-.06,0c0-.1.08,0,.11-.16a1.61,1.61,0,0,1-.64-.12.29.29,0,0,1,0-.12s-.09,0-.12.06,0-.06,0-.07-.07.12-.1.06a.2.2,0,0,0,0-.11c-.06.09-.1.06-.15.08a.15.15,0,0,0,0-.07c-.07.1-.08,0-.14,0l0-.07c-.05-.1,0,.14-.09.08a.18.18,0,0,0,0-.08c-.08.12-.15.06-.21.1a.11.11,0,0,0,0,0c-.06,0-.11,0-.19,0s0-.17,0-.15-.11,0-.09.21c0,0-.13-.09-.17,0s0-.18,0-.19l0-.09c0-.06,0,0,0-.05s-.09.06-.11,0-.1.25-.16.26,0-.16,0-.18l-.11.27s0-.11,0-.08a.24.24,0,0,1,0,.09s-.09,0-.1-.11,0,0,0-.08,0,0-.08.05v0s-.08.06-.05.14,0-.09,0,0-.07.1-.11.11a.33.33,0,0,0,0-.1.47.47,0,0,1-.17.19c0,.07,0-.12,0-.09s-.16.13-.22,0,0,.1,0,.08,0-.1-.06-.07,0,0-.05,0,0,0,0,0-.16.14-.25.06,0,.14-.06.14v-.09c0-.05-.06,0-.07-.06,0,.11.14-.1.1,0,0-.07-.06.15-.06,0s-.06.11-.1,0,0-.13,0-.12,0,0-.05.08l0,0c0,.09,0,0,0,.09,0-.07-.07.05-.08-.09v-.11s0,.12,0,.17a.17.17,0,0,1,0-.05c0,.17-.05,0-.06.13-.05-.05-.12,0-.15-.09,0,.06-.05.12-.1.09a.1.1,0,0,0,0-.06s0,0-.05,0-.07-.09-.11-.15a.43.43,0,0,0,0,.2c-.06-.16-.08.13-.14,0s0-.09,0-.13,0,.14-.11.07l0,.14c0-.08-.06.09-.08,0,0,.05-.07,0,0,.1-.11-.1-.17.12-.29-.1,0,0,0,0,0,.08s0-.06,0,0,0,0,0,.06-.06,0-.06-.14,0,.24-.08.21,0-.07,0-.06v.11s-.07-.11-.1-.2,0,0,0,.1l-.07-.1c.05.07,0,.06,0,.09v0s0,0,0,0a.14.14,0,0,0,.08.08s0,0,0,.09-.06,0-.09-.05,0,.09,0,.09,0,0,0-.06,0,0,0,0-.06-.11-.06,0,.08.17,0,.13a.72.72,0,0,0,0-.1l-.06,0,0,.08,0,0c0,.09,0,.05,0,.15S16,21,16,21h0s-.06,0,0,.07v0s0,0,0,.08-.18-.28-.15-.16,0,.16.08.2,0,.13-.17.05,0,0,0,.07,0,.18-.2.09c0,0-.06-.06-.1-.09s-.08,0,0,.06.09.08.12.08a.08.08,0,0,1,0,.06l.08-.59s0,0,0,.05l.07,0c-.11.07-.11.09-.07.08l.06,0-.06.06s.12-.1.08,0l-.05.06c.06,0,.13-.1.1,0l-.06.1a.17.17,0,0,0,.07-.09.44.44,0,0,1,0,.18c.16-.17.25-.16.33-.12l0,.05c0,.06,0-.09,0-.05s0,.12,0,.18.07-.09.1-.11,0,0,0,0,0,.07.06,0a.69.69,0,0,1,0,.17l0,0c0,.14-.11.22-.1.38h0c0,.12-.09.12,0,.17a.45.45,0,0,0,.07-.26c.06,0,.06-.26.12-.25s0,0,0,.1.06,0,.08,0a.24.24,0,0,1,0-.17c0,.06,0,.1,0,.12s.05-.11,0-.16,0,0,.07-.07c0,.1-.06.23,0,.29,0-.1.07-.13.05-.28a.29.29,0,0,1,0,.17c0,.06.07-.18.07,0v-.1l0,.11s.08-.14.07,0c0,0,.06,0,0-.11s0,.08-.05-.07c0,.12,0,0,.06-.05v.06s0,0,0-.08a.14.14,0,0,0,0,.09V21s0,.16.06.13l0,.07s0,.07,0,0l0-.25s0,.09,0,0l0,.1s0,.14.06.13.05-.15,0-.19,0,0,0,.11,0-.09,0-.14.06.13.1.21l0,.14h0c0,.11,0,.08,0,.2s0,0,.05-.06c-.06-.18,0-.26,0-.43s.07.41.12.14c0,0,0-.18,0-.12s0-.17.07-.11.05.17,0,.28c0-.06,0,0,0,0s0,.17.05.17.06,0,0-.11,0,0,0-.09.07.11.08-.07c0,0,0-.08-.05-.15l0,0V21c.06,0,0-.12.07-.11l0,.13c0,.11-.09,0-.06.14,0,0,0-.09.08,0l0,0s.05.24.09.1,0-.06,0-.13.07-.1.11-.11.07,0,0,.14c0-.07-.12-.06-.13.07s-.05,0,0,.14c.05,0,.07.15.09.25s0,0,0-.06a1.82,1.82,0,0,0,0-.19c.06,0,.11,0,.13-.14s0,.14,0,.15a.27.27,0,0,1,.21,0c-.06-.15.07,0,0-.17a.28.28,0,0,1-.07-.21s0,.07,0,.1.06.13.07,0c-.05.06,0,.19,0,.31,0-.07,0,.09.05.08a.46.46,0,0,1,.13-.17c.08.1.16,0,.21,0s0,.19.08.21-.05-.14,0-.09v0s.12.07.1-.12v.15s0,0,0,0,0,.09,0,.12.07,0,.11,0l0-.08c.05-.08.11,0,.17,0v.09l0-.06c0,.08,0,.13.06.06l-.06.22s0-.11,0-.19-.08,0-.08,0,0,0,0,0,0,.12,0,.2,0,0,0,0,0,.07-.07.08,0-.07,0-.11,0,.14-.07.12-.07.09-.13.07a.65.65,0,0,1,0-.25s0,0-.08,0a.63.63,0,0,1,0,.26l0-.08s0,.16-.07.15a.93.93,0,0,0-.25,0v-.08c0,.17-.12.08-.16.16s-.18.1-.24,0a.76.76,0,0,1-.44.14l0-.12c0,.09,0-.06-.05,0s0,.12,0,.19c-.08-.08-.16,0-.23.1v-.08c-.06.15-.14,0-.23,0s0-.1,0-.1-.07.12-.13.2a.29.29,0,0,1-.18-.09c-.2.17-.38,0-.61.1v-.09c-.25.16-.46-.1-.69-.13l.1-.13c0-.07-.15,0-.2.06,0-.08-.2-.06-.14-.19s-.12,0-.18,0a.67.67,0,0,0-.17-.3l-.16-.19.24-.44,0,0h0l-.08.63.06,0,.07-.56h0c0-.06.14-.08,0-.18.17,0,.16-.29.35-.23,0,0,0-.06,0-.1s.23,0,.26-.16,0,.09.06.07,0-.06,0-.1.34-.07.45-.14a1.62,1.62,0,0,1,.68-.3v0c0-.16.21.09.22-.13,0,0,.07,0,.07.08,0-.11.19.06.25-.08s0,0,0,0,.16-.06.26,0a.12.12,0,0,0,0,.07c0,.07.06-.17.1,0,0,0,0-.09,0-.09.21,0,.4-.1.61-.16.16.1,0,.31.14.16,0,0,0-.07,0,0s.08.2.11.1,0-.06,0-.13.11.17.18.08v.06c.08-.17.18-.09.24-.28A8.88,8.88,0,0,1,20,19.34a4.12,4.12,0,0,1,1.4.39c.06.19.06.19.22.19,0,0,0,0,0,0s0,0,0,0l-.39-.06s.06,0,.06-.08a1,1,0,0,0,.23,0l2.35-.48L22.15,21a2.2,2.2,0,0,1-.23.22s0-.12-.06-.09l0,.09,0,0a.1.1,0,0,0,.05.11c-.38.43-1,.4-1.36.56a.67.67,0,0,0-.36.12,1.37,1.37,0,0,0-1,0S19.21,21.69,19.32,21.6Z"/><path class="cls-3" d="M19.07,21.71c0-.06-.06-.09,0-.18A1.58,1.58,0,0,1,19.07,21.71Z"/><path class="cls-3" d="M18,21.21s0,0,0,0,0-.06,0,0S18,21.19,18,21.21Z"/><path class="cls-3" d="M17.8,21.21a.13.13,0,0,1,.07-.12Z"/><path class="cls-3" d="M17.56,21s0-.07,0-.07A.25.25,0,0,1,17.56,21Z"/><path class="cls-3" d="M17.55,21.13s0,0,0-.06S17.55,21,17.55,21.13Z"/><path class="cls-3" d="M17.08,21s0,.05,0,0S17.09,20.93,17.08,21Z"/><path class="cls-3" d="M16.88,21.11s0,0,0,0a.07.07,0,0,1,0-.07Z"/><polygon class="cls-3" points="17.06 20.66 17.04 20.69 17.03 20.64 17.06 20.66"/><path class="cls-3" d="M18.78,20.5s0,.05,0,.06S18.81,20.49,18.78,20.5Z"/><polygon class="cls-3" points="19.75 20.27 19.74 20.27 19.75 20.16 19.75 20.27"/></g></g></svg>