<?xml version="1.0" encoding="utf-8"?>
<!-- Generator: Adobe Illustrator 21.1.0, SVG Export Plug-In . SVG Version: 6.00 Build 0)  -->
<svg version="1.1" id="Слой_1" xmlns="http://www.w3.org/2000/svg" xmlns:xlink="http://www.w3.org/1999/xlink" x="0px" y="0px"
	 viewBox="0 0 292.6 61.9" style="enable-background:new 0 0 292.6 61.9;" xml:space="preserve" preserveAspectRatio="none">
<style type="text/css">
	.st0{fill:none;stroke:#CED72A;stroke-width:1.875;}
	.st1{fill:#C7D126;}
</style>
<path id="Shape_1_copy" class="st0" d="M0.9,1C0.9,4.5,5,12.7,5.1,15.9c0.1,15.5-3.2,23.4-3.5,40.8c20.2,0.6,94.8,1,112.6,1.2
	c70.5,0.7,104.2,2.3,173.1,3.1c3.6-19.2,0.5-61.3,3.7-55.7C291,5.2,212.2,4.7,0.9,1z"/>
<path class="st1" d="M284.9,7.8c0,18-1.4,30.6-1.4,49.2c-19.1,0-89.5-1.6-106.3-1.9c-66.6-1.2-98.5-0.7-163.6-1.9
	c-2.7-14.9,1.4-18-1.4-32.8c-0.4,0.2,6.9-1.5,1.4-8.7c-0.2,0.3-2.5-8-2.7-7.7C10.9,3.9,85.3,5.6,284.9,7.8z"/>
</svg>
