<svg xmlns="http://www.w3.org/2000/svg" viewBox="0 0 35.35 44.33"><defs><style>.cls-1{fill:#fff;}.cls-2{fill:#6d983e;}.cls-3{fill:#5d3739;}</style></defs><title>Element 1</title><g id="Ebene_2" data-name="Ebene 2"><g id="Calque_1" data-name="Calque 1"><path id="_Zusammengesetzter_Pfad_" data-name="&lt;Zusammengesetzter Pfad&gt;" class="cls-1" d="M20.7,39.54a3.56,3.56,0,0,1-1.77-.59,7.85,7.85,0,0,0-1.11-.5,5.55,5.55,0,0,0-.13-1.86c0-.23-.08-.45-.1-.65L17.1,32l-.31.08a13.5,13.5,0,0,0-1.13-3.21c-.23-.5-.45-1-.65-1.52l-.09-.26c-.21-.59-.41-1.15-.86-1.29a.89.89,0,0,0-.79.16l-.15.11a9.76,9.76,0,0,0-1.75,2.84c-.2.41-.38.79-.53,1a6.32,6.32,0,0,0-.47,1.15,4.52,4.52,0,0,1-.56,1.25l-.05.07-.05.16a10,10,0,0,0,0,1.19,8.54,8.54,0,0,1,0,1.17c0,.22,0,.51,0,.83a7.27,7.27,0,0,1-.31,2.48.74.74,0,0,1-.18.21,5.52,5.52,0,0,1-2.61.61L6,39.12a3.42,3.42,0,0,0,1.22-2,40.46,40.46,0,0,0,.58-4.29l0-.28-.27,0a2.16,2.16,0,0,1-.33-.07l-.17-.06a1.22,1.22,0,0,0,0-.24,5.12,5.12,0,0,1,.14-1c0-.2.07-.38.09-.51A25.77,25.77,0,0,1,8,27.52a25.07,25.07,0,0,0,.72-3.32,22.49,22.49,0,0,1,.5-2.58l.07-.3-.45-.09A7.37,7.37,0,0,1,5.5,20c-1.42-1.09-2.13-2.07-1.9-2.64a7.73,7.73,0,0,1,2.12-2.31l.5-.42.61-.53.3-.27A10.33,10.33,0,0,0,9.49,11.1c.46-.12,1-.24,1.43-.35l.94-.23h0a8.74,8.74,0,0,0,2.88.47c1.54.08,3,.16,3.83,1.29a20.5,20.5,0,0,1,2,4c.25.61.49,1.2.72,1.69.9,1.93.91,2.19.93,2.71,0,.17,0,.37,0,.65h0a.76.76,0,0,1-.23,0,1.66,1.66,0,0,0-.42,0,7.38,7.38,0,0,0-.88-2.18,17.15,17.15,0,0,1-.86-1.71c-.15-.34-.34-.72-.53-1.12A11.39,11.39,0,0,1,18,12.52l-.6,0A14.69,14.69,0,0,0,18.89,20l-.85.14-.31,0,.06.31c.31,1.54.54,2.91.69,4.17.06.54.17,1.07.28,1.58a8.81,8.81,0,0,1,.27,3,4.63,4.63,0,0,1-.28,1.12l0,.07v.08c.18,1.43.46,2.8.81,4.43a10.76,10.76,0,0,1,.17,1.15,7.9,7.9,0,0,0,.3,1.64c.09.26.2.52.31.78A5.62,5.62,0,0,1,20.7,39.54ZM6.24,16.44a3.13,3.13,0,0,0-1,1.16,1.22,1.22,0,0,0,.06,1A3.87,3.87,0,0,0,7.56,20a8.8,8.8,0,0,0,1,.22l.36.06V20a15.14,15.14,0,0,1,.36-3.21,19.4,19.4,0,0,0,.36-2.59l0-.45-.42.15a2.21,2.21,0,0,0-.65.41,11,11,0,0,0-.84.82l-.4.41-.2.18-.4.33Z"/><polygon id="_Pfad_" data-name="&lt;Pfad&gt;" class="cls-2" points="21.52 20.95 22.44 23.03 24.59 23.48 25.17 21.99 22.28 21.07 22.02 19.75 21.52 20.95"/><path id="_Pfad_2" data-name="&lt;Pfad&gt;" class="cls-3" d="M32.64,44.27c.27.08-.09-.11.18,0,0,0-.08.08-.18,0"/><path id="_Pfad_3" data-name="&lt;Pfad&gt;" class="cls-3" d="M32.31,43.93c0-.07.13-.29.14-.13s-.08.13-.14.13"/><polygon id="_Pfad_4" data-name="&lt;Pfad&gt;" class="cls-3" points="34.36 40.77 34.38 40.7 34.42 40.84 34.36 40.77"/><path id="_Pfad_5" data-name="&lt;Pfad&gt;" class="cls-3" d="M34.37,39.65c.05,0,.1.26.1.4Z"/><path id="_Pfad_6" data-name="&lt;Pfad&gt;" class="cls-3" d="M34.65,38.61c.05-.09.07-.06.06.06Z"/><path id="_Pfad_7" data-name="&lt;Pfad&gt;" class="cls-3" d="M34.53,38.53l.07-.17s0,.21-.07.17"/><path id="_Pfad_8" data-name="&lt;Pfad&gt;" class="cls-3" d="M35,36.33s0-.16.07-.19,0,.25-.07.19"/><path id="_Pfad_9" data-name="&lt;Pfad&gt;" class="cls-3" d="M35.27,35.34l0-.09c0-.05.06,0,0,.08Z"/><path id="_Pfad_10" data-name="&lt;Pfad&gt;" class="cls-3" d="M11.41,7.45l0,0,0,0"/><path id="_Pfad_11" data-name="&lt;Pfad&gt;" class="cls-3" d="M11.45,7.34c.27.05,0,0,.16.05l-.11,0c.21,0,.07,0-.09,0h0l.09,0-.08,0,.1,0-.14,0,.09,0c.23.06,0,0,.1,0l-.06,0a.44.44,0,0,1,.15.07l-.13,0,.14.05c-.1,0,.09,0,0,0h0l.06,0-.08,0c.14,0-.08,0,0,0h0s0,0,.07,0l-.17-.06c.15.07-.23,0-.08,0h.09c-.1,0,0,0,0,0h-.08l.14,0-.21,0s.07,0,0,0h.19l-.26,0H11.2c.09,0-.12,0,0,0h0s-.13,0-.05,0h0c-.1,0,.09,0,0,0s-.13,0,0,0-.1,0,0,0h-.07c.16,0-.1,0,0,0h.12c.16,0-.12,0,0,0h-.13c.08,0-.08,0,.06,0H11c.11,0-.07,0,.16,0h-.06c-.07,0,.05,0,0,0H11c.05,0-.08,0,0,0H11s-.1,0,.06,0H11s0,0,0,0h0L11.87,7h0l.06,0-.06,0,.07,0-.07,0,.09,0L11.89,7l.09,0L11.84,7c.2-.1.21-.1.2-.09l0,0,.05,0L11.89,7,12,7l0,0,0,0L11.93,7l0,0-.33.18h0l-.14.08.22-.12L12,7l-.09,0c-.07,0,0,0,0,0L12,6.94l-.1.05.13-.07.06,0L11.89,7l.24-.13L12,7c-.05,0,.15-.08,0,0l.09,0L12,7s.12-.06,0,0l.1-.05.05,0c-.1.06,0,0,0,0l0,0,.06,0-.07,0,.08,0L12.06,7,12,7l0,0,.2-.11s-.08,0,0,0l-.08,0L12,7l.16-.09L12,7l.12-.06L12,7l-.11.06h0l-.17.09,0,0L12.11,7s-.34.19-.12.07l.1-.06.08,0-.23.12h0l-.14.08.09,0L12,7s-.09.05.05,0l.13-.07,0,0-.05,0,.08,0-.1.06L12,7h0l0,0s-.2.11-.08.05L12,7l.09,0L12,7c.06,0,.06,0-.05,0l-.11.06-.21.12,0,0,.16-.09.1,0-.13.07v0l.14-.07.18-.1L12,7c.07,0-.11.06,0,0l-.26.14-.07,0,.13-.06c-.09.05,0,0,0,0l-.18.1.07,0h0l.09,0-.12.07,0,0-.1.06c-.08,0,0,0,0,0l.07,0c.06,0,0,0,0,0l-.07,0,0,0-.05,0-.18.09.16-.09c.06,0,0,0,0,0h0l-.16.09h0l-.06,0,.09,0-.09,0c.1-.06-.07,0,0,0l.2-.1,0,0-.21.11.06,0-.11.06,0,0,.06,0a.61.61,0,0,1-.12.05c.06,0-.07,0,0,0-.05,0-.11,0-.09,0l.1-.05,0,0-.16.08c.07,0,0,0-.08,0l.06,0c-.12.06,0,0,0,0l.08,0-.16.08.06,0c-.15.07-.06,0-.16.05l.08,0c-.17.08,0,0-.11,0l.13-.07L11,7.45s-.07,0,0,0l-.08,0c2.1-.59.56-.16,1.07-.29h0c-.1,0,.08,0-.05,0h.09s-.1,0,0,0h0c.09,0-.09,0-.07,0s0,0,.07,0h0c.14,0-.14,0,.07,0h-.08c.09,0-.09,0,0,0h0c-.08,0,0,0,0,0H12c-.07,0,.15,0,0,0H12c-.07,0,0,0,.08,0l-.16,0h.17l.16,0s0,0,0,.06c-.61-.08,1.33.17-1.37-.17h.05l0,0-.12,0h0l.1,0-.07,0h0l-.11,0,.12,0h0c.32.06-.07,0,.55.08-.72-.11.11,0,0,0"/><path id="_Pfad_12" data-name="&lt;Pfad&gt;" class="cls-3" d="M11.4,7.46l.15-.08Z"/><path id="_Pfad_13" data-name="&lt;Pfad&gt;" class="cls-3" d="M11.92,7.12l0,0h0Z"/><path id="_Pfad_14" data-name="&lt;Pfad&gt;" class="cls-3" d="M11.94,7.09,12,7Z"/><path id="_Pfad_15" data-name="&lt;Pfad&gt;" class="cls-3" d="M12.13,7l.06,0Z"/><path id="_Pfad_16" data-name="&lt;Pfad&gt;" class="cls-3" d="M12,7l.05,0L12,7"/><path id="_Pfad_17" data-name="&lt;Pfad&gt;" class="cls-3" d="M12.15,6.93s0,0,0,0,.06,0,0,0"/><polygon id="_Pfad_18" data-name="&lt;Pfad&gt;" class="cls-3" points="12.07 6.96 12.07 6.96 12.13 6.93 12.07 6.96"/><path id="_Pfad_19" data-name="&lt;Pfad&gt;" class="cls-3" d="M11.1,7.41h0Z"/><polygon id="_Pfad_20" data-name="&lt;Pfad&gt;" class="cls-3" points="11.37 7.44 11.37 7.45 11.48 7.43 11.37 7.44"/><path id="_Pfad_21" data-name="&lt;Pfad&gt;" class="cls-3" d="M11.69,7.52l0,0,0,0"/><path id="_Pfad_22" data-name="&lt;Pfad&gt;" class="cls-3" d="M11.38,7.63a1.42,1.42,0,0,0,.17,0l-.11,0c.21,0,.08,0-.08,0h0l.09,0h-.08l.1,0-.14,0,.1,0,.1,0h-.06l.16,0-.13,0,.15,0h0c.15,0-.08,0,0,0h.07l-.18,0,.1,0-.1,0h.09l-.11,0,.1,0h-.07l.12,0h0l-.14,0,.21,0h0l-.18,0H11.4l.25,0-.17,0,.26,0h-.13l.13,0h0l.18,0h-.08c-.09,0,.12,0,0,0h.06l.13,0h-.15c.1,0-.08,0,0,0h-.09l.16,0h0l.11,0c-.4,0,.79.07-.86-.06l.07,0-.07,0h0l.15,0-.18,0c.15,0-.1,0,0,0l.12,0c.15,0-.12,0,0,0l-.13,0c.08,0-.08,0,.06,0l-.08,0c.11,0-.07,0,.16,0h-.06c-.07,0,0,0,0,0H11.1l.14,0-.17,0h0l.21,0h-.08l.11,0h-.05l-.09,0H11l.2,0H11c.06,0-.08,0,0,0H11s-.1,0,.06,0H11s0,0,0,0h.08c-.22,0-.23,0-.21,0h0l.17,0-.12,0h0s.05,0-.05,0l.16,0H11l.37-.05h0l.16,0-.25,0-.24,0,.1,0c.09,0,0,0,0,0l-.17,0H11l-.15,0c-.14,0,0,0-.07,0l.27,0-.26,0,.16,0c.06,0-.17,0,0,0l-.1,0H11s-.13,0,0,0l-.11,0c-.06,0,.07,0-.06,0,.11,0,0,0,0,0h.06l-.07,0,.08,0-.08,0,.12,0,.07,0h0l-.23.05s.09,0,0,0l.09,0,.13,0-.18,0,.1,0-.13,0,.2,0,.13,0h0l.18,0h0l-.39.1s.38-.1.14,0l-.11,0-.09,0,.25-.07h0l.16,0-.1,0-.08,0s.1,0-.05,0l-.14,0h0l.06,0s-.11,0-.09,0l.12,0c.1,0,0,0,.12,0,0,0-.07,0,0,0h0s.22-.07.09,0l-.12,0-.09,0,.13,0c-.07,0-.07,0,0,0l.12,0,.23-.07,0,0-.17.05-.1,0,.13,0h0l-.15.06-.19.07.09,0c-.07,0,.12,0,0,0l.27-.1.08,0-.13.05c.1,0,0,0,0,0l.19-.08-.07,0h0l-.09,0,.13-.06h0l.11,0h0l-.07,0c-.06,0,0,0,0,0l.08,0,0,0,.06,0,.18-.09-.16.08h0l0,0,.17-.08h0l.05,0-.08,0,.09,0c-.06,0,0,0,0,0l-.16.07,0,0,.21-.09-.06,0,.06,0h0l-.06,0,.07,0h-.06l.09,0h.11v0h0c-1.75-.09-.54,0-1,0l.16,0h.07l-.12,0h.14l-.25,0-.15,0s0,0,.05,0h.13l-.13,0h0l.1,0h0l-.11,0c-.1,0,.14,0,.11,0s0,0,0,0c.16,0,.29,0,.18,0l.37-.07"/><path id="_Pfad_23" data-name="&lt;Pfad&gt;" class="cls-3" d="M11.69,7.52l-.14.07Z"/><polygon id="_Pfad_24" data-name="&lt;Pfad&gt;" class="cls-3" points="11.14 7.74 11.1 7.75 11.08 7.75 11.14 7.74"/><path id="_Pfad_25" data-name="&lt;Pfad&gt;" class="cls-3" d="M11.1,7.73l-.09,0Z"/><path id="_Pfad_26" data-name="&lt;Pfad&gt;" class="cls-3" d="M10.89,7.78l-.06,0Z"/><path id="_Pfad_27" data-name="&lt;Pfad&gt;" class="cls-3" d="M11,7.75l-.06,0,.06,0"/><path id="_Pfad_28" data-name="&lt;Pfad&gt;" class="cls-3" d="M10.84,7.75s0,0,0,0-.06,0,0,0"/><polygon id="_Pfad_29" data-name="&lt;Pfad&gt;" class="cls-3" points="10.92 7.71 10.92 7.71 10.85 7.73 10.92 7.71"/><polygon id="_Pfad_30" data-name="&lt;Pfad&gt;" class="cls-3" points="11.12 7.42 11.1 7.41 11.15 7.42 11.12 7.42"/><path id="_Pfad_31" data-name="&lt;Pfad&gt;" class="cls-3" d="M11.91,7.47h0Z"/><polygon id="_Pfad_32" data-name="&lt;Pfad&gt;" class="cls-3" points="11.64 7.52 11.64 7.52 11.54 7.53 11.64 7.52"/><path id="_Pfad_33" data-name="&lt;Pfad&gt;" class="cls-3" d="M15.73,2.95c.44-.14,1,.35.65.77,0,0-.11-.11-.15,0-.22.44-.94.56-.69,1.25l0,0c0,.1.16.17.18.27h-.08c.09,0,.09.16.17.19l-.12.11.1,0c.24.13,0,.39.14.6h-.06a1.72,1.72,0,0,1,0,1.21l-.13,0c.1,0,.09.18.08.3s.07.24-.09.31v0c0,.13-.14.08-.08.21H15.5c.1.12-.15.06-.14.17l0,0c0,.08-.1.07-.13.14h0c-.08.16-.19.17-.11.26-.1,0,.07-.16-.08-.19a2.48,2.48,0,0,1-1.38.76l-.13-.09s-.19,0-.24.1l-.06-.06c-.09,0-.12.11-.22,0l.06-.1c-.1.07-.22,0-.34,0l.06-.05c-.16.08-.18-.1-.29-.11l.07,0c-.08-.17-.12.08-.21,0l.07,0c-.21,0-.3-.2-.4-.3h0l-.23-.4c0-.07.16,0,.09-.17-.13,0-.14-.23-.26-.1,0-.13,0-.35-.07-.42s.15-.1.18,0l.06-.1c.06,0,0,.08.06,0s-.1-.19-.09-.24-.27-.15-.31-.31c.06.07.14-.07.17,0L11.4,6.7c0-.05.1,0,.06-.1l-.09,0s-.07-.21.06-.26,0,.08.08,0l-.08-.19h0c.38-.14.16.14.32,0,0,0-.08,0,0-.05a.31.31,0,0,1,.09.26l-.09,0,.16.41c.06,0-.11-.06-.08-.07-.34.23.66.26-.59.64,0,0-.07.06-.06,0s0-.12,0-.16-.05-.06-.1-.11,0,0,0,0a1,1,0,0,1-.35-.53c-.12-.25-.15-.2-.17-.31h.08c.05,0,0-.17.07-.18-.1-.1.08.41,0,.27s-.13-.19,0-.17-.1-.2,0-.3.12.08.11,0,0,0-.06-.16l0-.08c-.08,0,0-.13-.08-.08.07,0,0-.22.1-.18l.1,0-.11-.18h.05c-.15,0,.06-.14,0-.25.1-.11.12-.33.23-.35V4.49c.21,1,0,.23,0,.42H11c0-.09-.07-.07-.15-.1v0c.2-1.15.09-.31.16-.57l.16,0c.06-.08,0-.15,0-.2.28,0,0,0,.19-.06,0,0,0,.15,0,.12s0-.2.2-.26l-.12-.07c.11,0,.11-.21.19-.1,0-.07.16-.09.06-.18.23-.11.46-.38.7-.26,0,0,.1-.06.06-.11s0,.08-.09,0V3.1c.08,0,.13,0,.12.1.18,0,0-.28.26-.33,0,.05,0,.06.08,0L13,2.78c.16,0,.12.1.15.19s.16,0,.18-.11l.11.1c-.08-.07.05-.06.08-.09l0,0s.1,0,.14,0-.11-.06-.16-.07l.14-.1c0,.09.13,0,.19,0s.08-.09.1-.09.12,0,.06.06h-.09s0,.11.13,0,0-.17.13-.14l-.08.1s.26,0-.05.05l0-.07,0,0c0-.09.14-.1.12-.2l.18,0h0c.11.4.08-.91.23.73v0l-.13.07c-.07-.05,0-.3-.1-.19s-.11.16-.08.21c-.14,0-.24.07-.41,0l0,.09c-.23,0-.42.26-.65.17,0-.05,0-.08,0-.12s-.09,0-.06.08,0,.1.11.1c-.11.09-.26.2-.36.17s0,0,0,.08-.13-.08-.17,0l0,.07-.08,0s0,.15,0,.12L12.48,4c0,.09-.07.22-.17.21l-.12-.05s0,.11,0,.1c-.15,0-.26.08-.35,0a1.58,1.58,0,0,1-.78.74V5c-.1,0,0,.11-.07.11s-.1-.07-.07-.16c-1.08-1.24-.31-.5-.55-.84,0-.05,0,.08-.06,0s.14-.09.07-.17l.12.11V3.91c.15,0,0,.3.22.32l0-.06c.13,0,0,.22.12.11s-.07-.24-.15-.21,0-.57-.21,0c0,.27.15-.3.18-.21-.07.54-.1,0-.1.07s-.14,0-.17,0,.1.06.11-.08-.11-.15-.15,0c-.14-.06,0-.15-.07-.24.1,0,.23.16.28,0-.1,0-.1-.19-.25-.13a.1.1,0,0,1,.16,0c.07-.07-.14-.22,0-.22l-.09,0,.12-.08c0-.07-.09-.26.05-.22,0,0,0-.18-.07-.14s0,.13-.11.15c.12,0,0-.14,0-.21h.06s0-.11,0-.15h.09l-.07-.06c0-.15.15,0,.17-.13l0,.12s.08,0,.08-.12l-.19-.17c0-.09.09,0,0-.11l.05.13s.14,0,.19-.11-.06-.21-.14-.13.1-.1.13,0c0-.12-.08,0-.08-.13s.19-.1.29-.14l.07.16,0-.06c.06.13.09,0,.17.09V1.67c-.22,0-.13-.25-.28-.3.08-.2.4.11.31-.2-.06,0-.1-.15-.13,0,.08-.09-.08-.17.06-.25,0,.13.2,0,.18.19,0,0-.08,0-.08.08s.13.1.19,0,.08-.15,0-.2-.06.1-.1,0,.21-.06.13-.22a.13.13,0,0,1-.2,0l.06-.11,0,.06c.18-.11,0-.12.13-.25l.15,0c0,.11-.25.16-.1.26.09-.08.07-.17.19-.21l0,.09s.21.12.25-.09,0-.06,0-.12c.18-.11.22-.2.35-.27,0,.13.24-.09.14.09-.09,0-.39.1-.39.23s-.14.06-.08.22c.11-.1.19,0,.26.1l.06-.08L12.28.55a.64.64,0,0,0,.36-.28.08.08,0,0,1,0,.15c.17-.14.41-.07.6-.06-.12-.15.23,0,.15-.15S13.21.06,13.28,0s0,.06,0,.1.13.13.24,0c-.22,0-.07.17-.13.28.14-.05,0,.07.1.1L14,.55c.13.15.38.25.48.38s-.12.14-.08.22.06-.14.11,0h0c.05,0,.11.24.27.2l-.14,0,.06,0-.11,0c0,.12.09.15.13.24l0-.09c.13.13.1.26.19.39l-.08,0,.07.08c-.08,0-.11.09,0,.12l-.24-.17c0-.07.12,0,.18,0s0-.18-.11-.17l.08.08c-.1.05-.13,0-.21,0l0,.06-.14-.15c.06,0,0-.06.09-.05s-.15,0-.17-.13-.15-.14-.21-.23l.31,0-.07-.16-.29,0,.05-.05c-.09,0-.16,0-.22-.06s-.29-.19-.4-.28l0-.07c-.11.08-.26,0-.36.08-.18-.11-.33.1-.45,0-.27.14-.41.41-.64.65L12,1.49c0,.1-.07,0-.1.06s0,.14.07.21c-.17.07-.18.3-.16.46l-.07,0c.08.19-.13.27-.19.44,0,0-.11,0-.12.07s.07.17.1.32l-.14.34a1.77,1.77,0,0,1-.25,1.43l-.09,0c-.95-1.54.37-.79.33-1.3l.06.14c.1,0,.2-.17.11-.23.13,0,.23-.22.36-.16s.1-.14.18-.21a1.47,1.47,0,0,0,.52-.28l-.06,0s0,.11.07.08.3-.09.16-.23c.26,0,.5-.27.76-.22l0-.11c.27,0,.55,0,.75-.05,0,0-.07.09,0,.08s0-.06.08-.09c.14.53.15-1.29.39,1.22l-.23.08c.11,0-.69.14-.71.15a4.23,4.23,0,0,0-1.14.46v0c-.06.17-.38.06-.31.3,0,0-.1.07-.13,0-.11.21-.07,0-.54.5l0,0c-.07-.37-.64,1-.21-.64l-.07,0s0,0,.08,0c.08.3-.11-.66.19.67h-.07s.07.07.07,0a1.55,1.55,0,0,0-.12,1.12c-.11.28-.29,0-.17.25s0-.33,0-.16-.09.23,0,.25.07,0,.13,0c0,.21,0,.3.13.4l-.05,0,.14.09,0,0h0L11,7.19h0v-.1a.49.49,0,0,0-.12-.3c.58-.25-1.29-.65,1.3-.79l.17.76A6.85,6.85,0,0,0,12.74,8c.21.58.72.53,1.51.17.22,0,.31.08.38-.13l0,0c-.08-.1.07-.12,0-.22.16-.22.38-.36.39-.7,0,.05.09.11.09,0l-.06-.09h0s-.05-.1-.1-.07a4.55,4.55,0,0,0-.09-2.39c.5-1.92.52-.76.71-1.3.66-.17.47.26-.41-.22a.58.58,0,0,1,.5-.23"/><polygon id="_Pfad_34" data-name="&lt;Pfad&gt;" class="cls-3" points="11.81 8.09 11.8 8.07 11.91 8.04 11.81 8.09"/><path id="_Pfad_35" data-name="&lt;Pfad&gt;" class="cls-3" d="M22.22,19.73c.1.47.05-.27.09.31a.39.39,0,0,1-.09-.31"/><path id="_Pfad_36" data-name="&lt;Pfad&gt;" class="cls-3" d="M21.45,22.06c-1-1.28-1.35-3.38-2.21-4.88-.1-.18.16,0-.07-.41A13.3,13.3,0,0,1,17.83,14a6.2,6.2,0,0,1-.37-1.64c-.28-.15-.16.91-.27,1.27l0-.13a4.16,4.16,0,0,0,.19,1.27s-.06-.13-.09,0,.16.74.25.9-.08.17-.08.38l.14.21c.44.56.39,1.55.87,2.33,0,0-.09-.11-.08,0,.25.56,1.17,1.62-.14,1.53-.79,0,0,1.43,0,2,0-.06-.12-.1-.14,0s.22.55.31,1c-.07.2.22.71.24,1.22l0,0c.17.35,0,.55.21.82l0,.25c.17.13,0,.54.16.83l0,0a5.33,5.33,0,0,1,.11.71v0c.12.63.09,1,.19,1-.07.23-.1-.61-.2-.25a18,18,0,0,0,.45,6.16,1.67,1.67,0,0,1,0,.45c.07.2.14.77.23.95,0-.07,0,.14,0,.25,0,.38.18.4.2.81-.06-.16-.11-.21-.14-.15a7.88,7.88,0,0,1,.34,1.2c0-.06-.06-.15-.09-.13.21.41.28.79.49,1.14l-.12-.11c.15.64.2.13.32.69-.06-.13-.07-.07-.11-.09.72.65-.59,1-1,.68l0,0c-.57-.16-1.07-.5-1.65-.7-.2-.1.14-.13-.44-.31-.3.32-.37-.82-.43-.47a3.64,3.64,0,0,0-.08-1.59c.09.22.12-.27.2.14l0-.33c.06,0,0,.33.09.22a8.36,8.36,0,0,1-.19-1,6.21,6.21,0,0,1-.43-1.36c.09.29.13-.19.18,0l-.37-.85c0-.21.1-.06,0-.36,0,0-.07-.11-.11-.2s0-.26-.05-.48c.7.45-.58-.09-.23-.13-.18-.11.46.34.1.1-.09-.38-.13-.39-.22-.77h0c0-.26-.23-.72-.23-.43s.06-.09.08.18a7.38,7.38,0,0,1-.42-.93c.07.12.09.09.15.13l-.8-1.47c-.06,0,.19.15.2.25a21.63,21.63,0,0,1-.86-2c0,.09-.07.08-.05.07-.12-.34,0-.37-.15-.56,0,0-.13-.26-.24-.37s0-.09.09.06c-.08-.48-.72.23-1.21,1a1.82,1.82,0,0,1-.21.62l0-.1c-.13.1-.26.53-.34.52-.1.37.61-1.33.44-.84-.13.08-.23.68-.28.53a4.46,4.46,0,0,1-.45,1c.06-.08,0-.31-.1,0-.22.47,0,.15-.2.54l-.09.26c.06.06-.22.42-.06.28-.1,0-.22.68-.33.57l-.07-.11a1.86,1.86,0,0,0,0,.54l-.07.05c.16.07-.24.5-.25.82-.4.5-.28.69-.37,1.12a4.2,4.2,0,0,1,.1,1.1c0-.09,0-.2-.06-.23a1.53,1.53,0,0,0,0,.58s-.09.52-.17.8.13.24.18.27c-.18.33.08,1-.12,1.45,0-.13,0-.55-.1-.25s.1.68-.19,1.26l.17-.1c-.07.24-.38.91-.48.75-.12.28-.66.35-.54.46a6.16,6.16,0,0,1-2.75.34c-.12,0-.43,0-.36.1s.28-.08.36,0c-.11,0-.13.05-.14.07-.27,0-.47,0-.24-.12-.62-.44-.53,1.26-1.24-.56,0,.06.06,0,.23-.1L5,38.39c.35-.29.28-.08.34,0,.18-.17.41-.39.4-.53L6,37.68c-.21.12.1-.18.1-.3l0,.11c.06,0,.12-.29.16-.42s-.17.26-.25.38L6.11,37c.06.07.21-.31.22-.54s0-.28,0-.35.06-.38.1-.19-.07.18,0,.32c.05-.15.13-.12.12-.45s-.18,0-.06-.42l.06.25.1-.43-.08,0,0,0c-.07-.14.06-.66,0-.77l.16-.66v0a2.1,2.1,0,0,0,.07-.81h0l0-.31v-.11h0l.37.47H6.9c-.4-.16,0-.33-.46-.35-.48-1-.27-.53-.44-.63a7.94,7.94,0,0,1,.36-2c0-.1,0,0,0-.24A20,20,0,0,1,7,27c0,.28.08,0,.12,0,0-.24.13-.25,0-.36s-.11,0-.19.22a8.62,8.62,0,0,1,.39-1.68c-.07.15-.06,0-.06-.1.1.06.21-.34.23-.65l-.06-.05.12-.19c0-.12-.12-.15,0-.45l.09-.08a3.92,3.92,0,0,1,.13-1.17L8,22.26c0-.16,0-.42-.07-.16.09-.3.16-.55.22-.74.16.16-.24-.75.39.32l-.17-.1A6.65,6.65,0,0,1,4.53,20.3l.06,0c-.23-.26-.2,0-.36-.22.12,0-.13-.25.12-.13a6.75,6.75,0,0,0-.78-.57c-.09,0,.22.16.11.18S3.23,19,3.09,19s.07-.09.15-.08L3,18.69c-.14-.36.71.56.58.13l-.19-.19c-.09-.25.57.44.15-.07-.19-.21-.46-.36-.36-.1-.32-.59-.49,0-.65-.9,0-.22.14.69.22.46a3.37,3.37,0,0,1-.13-1.15c0,.43-.19,0-.1-.24.25-.3,0,.25.25-.2,0-.1.23-.55,0-.21,0-.23.33-.49.44-.75.18-.06-.17.52.23.16-.13,0,.37-.56.07-.45.17-.13.24-.1.17.05.25-.17.4-.65.6-.57v-.14l.35-.16c.19-.16.54-.64.61-.51.05-.06.48-.42.25-.36s-.25.31-.49.34c.27-.08.37-.34.5-.5l.06,0c.08-.09.29-.26.31-.36,0,.08,0,.08.1,0l0-.15c.32-.37.19,0,.51-.32l-.22.3c0-.07.22-.12.37-.3l.08-.39c.17-.21.15,0,.28-.26l-.18.3c0,.05.26-.07.52-.32s.22-.53,0-.28c.09-.13.26-.29.23-.15.2-.32-.09,0,.05-.3.11-.07.42-.36.63-.53L8.19,11l.14-.19c-.09.3.16-.09.16.11l.26-.44c-.61.27.76-.84.43-.65.66-.21.52.27,1.15-.15-.12,0,.17-.21-.23-.07.42-.08.24-.22.74-.28-.34.15.42.07-.07.28,0-.06-.3,0-.37.06.18,0,0,.17.42.07.25-.08.6-.16.53-.23s-.39.11-.25,0c-.06.19.64-.57-.1.44V9.88c1.46-1,.43-.26.77-.48l.07,0a.3.3,0,0,0,.28,0c-.27-.09-.3-.19-.27-.25l.31.07-.08,0c.48.2.14,0,.65.1l.23.16c-.17.1-.75-.2-.69,0,.31.14.48,0,.79.14H12.8c.13,0,.21.3.77.21.28,0,.08-.06.09-.12.6,0,.8,0,1.21,0-.09.12.72.06.26.15a3.32,3.32,0,0,0-1.33,0c.21.16-.48,0-.62.07.48.06.45.19.53.3l.36,0c.06-.08-.12-.1-.12-.19a5.2,5.2,0,0,0,1.42,0c.19.06.12.15-.11.13a6,6,0,0,1,2.06.42c-.35-.34.71.31.49.07s-.6-.44-.38-.41,0,.06.05.13c.32.07.38.33.72.36-.65-.28-.21.09-.39.13.45.18,0,0,.32.31a4.38,4.38,0,0,1,1.11,1.06c.26.57,1,1.24,1.21,1.74.1.28-.11.18,0,.47s0-.31.2.2l0,0c.11.13.42.91.66,1l-.21-.08.17.23s0,.14-.13,0a5.88,5.88,0,0,0,.47,1l0-.25a9.86,9.86,0,0,1,.61,1.54H22.1l.14.34c-.1-.06-.06.27,0,.43l-.43-.84c0-.26.18.23.21.06a1.37,1.37,0,0,0-.3-.73,1.25,1.25,0,0,0,.17.35c-.08.1-.19-.2-.31-.32,0,.1.06.26.11.27a5.24,5.24,0,0,1-.35-.72c.14.21,0-.15.08-.08-.1,0-.27-.29-.43-.71s-.48-.69-.71-1.15a2.6,2.6,0,0,1,.59.58c-.12-.31-.18-.31-.3-.62a1.53,1.53,0,0,1-.54-.48l.05-.06c-.23-.31-.3-.26-.58-.67a16.55,16.55,0,0,0-1.37-1.87l0-.07A4.46,4.46,0,0,0,16.81,11a16.79,16.79,0,0,0-2.11-.35c-1.28.35-3.15-.86-3.93-.2l.22-.17c-.24.14-.19,0-.44.06.32,0-.33.19-.49.3-.82,0-1,.24-1.37,1.06l-.07,0A4.17,4.17,0,0,1,7.2,13.22a1.07,1.07,0,0,0-.39.24,4.82,4.82,0,0,1-.79,1c-.34.29-.87.71-1.24,1-1.34,1.25-1.85,2.32-.27,3.42l0,.15c1.34,1.36,2.73.83,4.59,2.6L9,21.38c-.13.41-.15,1,0,.89a7.33,7.33,0,0,1-.31,1.32,6.82,6.82,0,0,0-.1.92,18.74,18.74,0,0,0-.46,2.09l.05-.21c0-.1-.07-.12-.13.09s-.29,1.15-.05.88c-.29.85-.36,2-.68,2.86.06-.06,0,.14,0,.25-.07.4-.19.86-.22,1.12a4.24,4.24,0,0,0-.07.65c.38.08-.65.49-.24-.4-.2-.1.09,0,.12,0s-.23,0,.09.13c.13,0,0-.06.19-.06,1.25,2.37-.07,2.92.09,4.33A3.91,3.91,0,0,1,5.65,39.3L5,39.79c-1-2.14.26-.75.23-1.23.55-.08,1.07-.11,1.55-.17l0,0c.61-.19,1.57-.06,1.77-.46.18,0,.21-.19.25-.1A3.81,3.81,0,0,0,9.11,36v.19c.09-.73.05-1.53.09-2.26,0,.08,0,.22.07.25.06-.31-.16-.69,0-.9,0-.19-.09-.13-.08,0,.17-2.33,1.18-3.57,1.9-5.46.73-1.17.28.06.7-1,.07-.06,0-.09,0-.09.16-.4.51-.46.67-.76-.17,0,.11-.2.07-.26a1.12,1.12,0,0,1,1.93.36l-.07,0c.48.72.69,1.51,1.11,2,.76,2.15,1.83,3.72,1.94,5.75.14,1.05.27,1.95.47,3-.07,0,.46,2.36-.49.77a8.31,8.31,0,0,1,1.58.65,3.63,3.63,0,0,0,1.12.41c-.13.26.66-.65-.2.71l-.18-.58a10.61,10.61,0,0,1-.84-3c-.15-2-.92-3.69-.79-6.29a2.53,2.53,0,0,0,.26-1.8s0,.1.06,0-.11-.69-.23-.77l-.78-4.41c.05.24.17.34.11.06l-.12-.29,0-.05c-.05-.19-.14-.39-.15-.19l-.26-1.42L17,20.33c1.41-2,.59-.58,1-1l.7-.12c-1,1.67-1-1.14-1.37-1.54a15.29,15.29,0,0,1-.6-3,6.69,6.69,0,0,1,0-1.54l0-.78v-.19c2.67.09.76.11,1.37.17l.07.31a8.6,8.6,0,0,0,1.07,2.8C20.38,18,21.14,21.1,22.34,23c.14-.46-.15.32-.89-1"/><path id="_Pfad_37" data-name="&lt;Pfad&gt;" class="cls-3" d="M22.12,19.16c0-.11,0-.45.14-.2,0,0-.08.23-.14.2"/><path id="_Pfad_38" data-name="&lt;Pfad&gt;" class="cls-3" d="M18.22,10.9s-.09-.13-.12-.14a.8.8,0,0,1,.28.21c-.1-.09-.1-.05-.16-.07"/><path id="_Pfad_39" data-name="&lt;Pfad&gt;" class="cls-3" d="M15.86,10a1.9,1.9,0,0,1,.89.06Z"/><path id="_Pfad_40" data-name="&lt;Pfad&gt;" class="cls-3" d="M13.7,9.66c-.18-.06-.12-.08.12-.06,0,0-.06,0-.12.06"/><path id="_Pfad_41" data-name="&lt;Pfad&gt;" class="cls-3" d="M13.54,9.77a.59.59,0,0,1-.33-.1c0,.06.4,0,.33.1"/><path id="_Pfad_42" data-name="&lt;Pfad&gt;" class="cls-3" d="M8.84,9.86c-1,.81-.41.48-.72.69l.16-.22c.23-.21-.42.31.53-.49Z"/><path id="_Pfad_43" data-name="&lt;Pfad&gt;" class="cls-3" d="M7.27,11.84,7.14,12c-.11.07,0,0,0-.13Z"/><polygon id="_Pfad_44" data-name="&lt;Pfad&gt;" class="cls-3" points="9.99 37.39 9.95 37.66 9.91 37.6 9.99 37.39"/><path id="_Pfad_45" data-name="&lt;Pfad&gt;" class="cls-3" d="M15.23,30c.11.2,0,.17,0,.21-.08-.19.09,0,0-.21"/><polygon id="_Pfad_46" data-name="&lt;Pfad&gt;" class="cls-3" points="17.51 38.63 17.44 38.61 17.5 38.51 17.51 38.63"/><path id="_Pfad_47" data-name="&lt;Pfad&gt;" class="cls-3" d="M7.32,19.65c.06,0,0-.1,0,0Z"/><path id="_Pfad_48" data-name="&lt;Pfad&gt;" class="cls-3" d="M8.53,18.56c-.27-.19,0-.37-.12-.56,0,0,.15,0,.12,0-.19-.2,0-.44.18-.62l0,0s-.1-.1-.07-.14l.08,0c-.08,0,0-.08-.09-.11h.14l-.09,0c-.22-.11,0-.16-.07-.27l.06,0c-.12-.17-.06-.34-.08-.51l.13,0a.16.16,0,0,1-.13-.13c.11,0-.08-.09,0-.13h0c-.1-.06.07,0-.05-.1h.09c-.14,0,.09,0,0-.08h0l0-.07h0c0-.07.06-.09-.05-.11.09,0,0,.07.17.06a1.36,1.36,0,0,1,0-.64l.11,0L8.87,15l.07,0s-.12-.06-.07-.09l.11,0c-.09,0-.07-.09-.09-.14l.07,0c-.1-.06,0-.08,0-.13l.07,0c.09-.06-.14,0-.08-.09l.07,0c-.12-.07-.07-.15-.1-.2h0v-.18s.16,0,.15,0,0-.11-.2-.08c0,0,.09-.13,0-.16s.17,0,.18,0l.09,0c.05,0,0,0,0,0l0-.11C9,13.77,9.09,14,9,14L9,13.87l0,.29s0-.1-.06,0l0,.09s0,.08-.12,0l0-.07,0,.09v0s0,.09,0,.14,0-.07,0,0,0,.12,0,.14l0-.09a.57.57,0,0,1,0,.24c0,.05-.05-.11,0-.08s0,.18-.16.12.06.07,0,.05-.09-.06-.08,0,0,0,0,.05,0,0,0,0a.17.17,0,0,1-.14.19s.06.13,0,.14l-.05-.07s0,.05-.09,0c0,.1,0-.17.06-.08s0,.15,0,.06,0,.12-.06.09-.06-.1-.08-.08V15c.05.06,0,0,0,.08s0,.08-.12,0L8,15s.05.11.07.15l0,0c.11.12,0,0,0,.14s-.09.08-.18,0,0,.13,0,.13l0-.05c-.05,0,0,0,0,.06l-.16-.05.11.16c-.13-.09,0,.15-.13.07l-.07-.1c-.14-.09,0,.13-.06.12l.1.09c-.08,0,0,.11-.1,0s-.08,0,0,.1c-.15,0-.13.2-.33.06,0,0,0,0,0,.07s0-.06,0,0l0,.05s-.06,0-.11-.1.09.21,0,.23l-.06,0,0,.1c-.05,0-.1-.08-.16-.15s0,0,0,.11l-.1-.07c.07.05,0,.06,0,.08v0l0,0,.1,0v.09c-.05-.07-.07,0-.1,0s0,.08,0,.08,0,0-.06,0,0,0,0,0-.08-.08-.07,0,.11.13,0,.12l0-.09H6.68l.05.06,0,0c0,.07,0,.06,0,.14h-.1c-.05,0-.06,0,0,.08h0l0,.08c-.07,0-.21-.23-.17-.13s.05.15.1.18,0,.15-.17.09l0,.07c-.09,0-.07.2-.24.13L6,16.9c0,.07-.07,0,0,.06l.11.08a.1.1,0,0,1-.14.09l.05.06c-.08-.08-.12-.07-.12,0l.05.05-.07,0s.09.11,0,.08l-.06,0c0,.06.09.15,0,.13l-.1,0,.08.07-.18,0c.17.18,0,.24.08.29l-.05,0s.1,0,.06,0l-.17,0s.1.05.13.06,0,0,0,0,0,0,.06,0H5.72l.05,0-.38-.05,0,0c-.11,0-.13-.07-.16,0a.46.46,0,0,0,.26,0s.26,0,.25,0,0,0-.1,0,0,0,0,0l.17,0-.11,0,.15,0c.14,0,0,0,.06,0l-.26.08a1.3,1.3,0,0,0,.25-.06l-.15.05c-.06,0,.15,0,0,0l.09,0-.1.06s.15,0,0,0c0,0,0,0,.12,0s-.08,0,0-.06c-.08.06,0,0,.08,0l0,0,.08,0-.07,0,.08,0c.06,0-.12.09-.08.1l-.07,0s0,0,0,0l.2-.12s-.07.06,0,0L6,18s-.09.09-.07.11L6.06,18,6,18.08,6.11,18,6,18.18l-.11.07v0c-.09.05,0,.07-.14.13h.07c.1-.16.19-.14.29-.27s-.24.32,0,.17c0,0,.11-.12.06-.1s.11-.11.09,0l-.16.2s0-.05,0,0-.1.13-.08.15.06,0,.1-.05,0,0,0-.08,0,.12.1,0,0-.09.05-.14l.05,0,0,0c0,.06.08-.08.11,0l0,.11c-.07.08,0-.07-.13.07s.08,0,.09,0l0,0s-.1.21,0,.12l.07-.1.14,0c-.07.1,0,0-.05.13,0-.07-.05-.1-.13,0s0,0-.12.08,0,.15-.08.23l.06,0,.08-.16s.1,0,.17,0l-.08.12.16.1c0-.15.07,0,.1-.12a.28.28,0,0,1,.06-.2l0,.09c.06-.06,0,.13.05,0s-.09.16-.15.25,0,.07,0,.09l.18-.06c0,.12.14.05.19.07s-.06.17,0,.21,0-.14.06-.07l0,0s.06.12.14-.05L7,19.2l0,0,0,.11c0,.1.07,0,.11,0v-.09c.08,0,.09.05.16,0l0,.08,0,0c0,.07,0,.13,0,.08l-.15.15.06-.16c0-.07,0-.07-.08,0l0,0c0,.11-.06.09-.1.16h0l-.1,0,0-.1c0,.09-.08.11-.12.07s-.11,0-.15,0l.16-.18,0-.07-.16.2,0-.07c-.05,0-.09.12-.14.09l-.21-.15,0-.07c-.1.13-.14,0-.22,0s-.2,0-.18-.16c-.16,0-.32,0-.44-.17l.08-.06c-.07,0,0-.07,0-.07s-.1.06-.16.09c0-.12-.13-.13-.24-.13l.05-.05c-.15,0-.13-.11-.17-.19s.06-.08,0-.09a.45.45,0,0,1-.26,0,.18.18,0,0,1,0-.21c-.2-.17-.12-.46-.22-.73h.09c-.23-.32.15-.47.15-.67l.12.1c.07,0,0-.13-.05-.18.07,0,0-.17.15-.12s0-.11,0-.15a.23.23,0,0,0,.18-.14h0l.08.07c0-.05.12-.06,0-.16.14,0,.12-.22.28-.19l0-.08c.06-.06.2,0,.19-.15l.07.06,0-.09c0-.15.27-.1.35-.19a1.92,1.92,0,0,1,.43-.44l0,0c0-.14.21,0,.11-.17,0,0,.05,0,.09,0,0-.1.17,0,.14-.18v0c.11,0,.08-.13.19-.14l0,.06c.07,0-.05-.16.08-.05l-.06-.06c.17-.08.23-.3.34-.47s.21.2.19,0c0,0,0-.05,0,0s.18.09.14,0,0-.05-.07-.1c.13,0,.2,0,.21-.06l0,0c0-.17.11-.17.06-.37l.6-.52c2.12,1.26.6.72,1.05,1.18a5.86,5.86,0,0,1-.21,1.27c-.16.07-.16.08-.12.2H9.4c.12,0,0,.08.11.11l-.07.45s-.1-.06-.1,0l.07,0h0l.11,0c0,.42-.26.74-.29,1.12-.06.08,0,.21,0,.31a.82.82,0,0,0-.25.8s-.31-.06-.37-.19"/><path id="_Pfad_49" data-name="&lt;Pfad&gt;" class="cls-3" d="M7.26,19.64l0-.17Z"/><polygon id="_Pfad_50" data-name="&lt;Pfad&gt;" class="cls-3" points="6.63 18.73 6.64 18.7 6.67 18.69 6.63 18.73"/><path id="_Pfad_51" data-name="&lt;Pfad&gt;" class="cls-3" d="M6.47,18.6l.11-.06Z"/><path id="_Pfad_52" data-name="&lt;Pfad&gt;" class="cls-3" d="M6.41,18.32l0-.05Z"/><path id="_Pfad_53" data-name="&lt;Pfad&gt;" class="cls-3" d="M6.33,18.41v-.07s0,0,0,.07"/><path id="_Pfad_54" data-name="&lt;Pfad&gt;" class="cls-3" d="M6.14,18.08s0,0,0,0,.07,0,0,0"/><polygon id="_Pfad_55" data-name="&lt;Pfad&gt;" class="cls-3" points="5.99 18.03 5.98 18.03 6.04 17.99 5.99 18.03"/><polygon id="_Pfad_56" data-name="&lt;Pfad&gt;" class="cls-3" points="7.6 15.68 7.6 15.71 7.57 15.67 7.6 15.68"/><path id="_Pfad_57" data-name="&lt;Pfad&gt;" class="cls-3" d="M8.83,14.52s0,0,0,0Z"/><polygon id="_Pfad_58" data-name="&lt;Pfad&gt;" class="cls-3" points="8.89 14.22 8.89 14.21 9 14.23 8.89 14.22"/><polygon id="_Pfad_59" data-name="&lt;Pfad&gt;" class="cls-3" points="0 39.7 0.05 39.7 0.01 39.77 0 39.7"/><polygon id="_Pfad_60" data-name="&lt;Pfad&gt;" class="cls-3" points="11.66 39.88 11.6 39.92 11.6 39.87 11.66 39.88"/><path id="_Pfad_61" data-name="&lt;Pfad&gt;" class="cls-3" d="M16.66,39.53c.07,0,0,.05.05.06s0-.06-.05-.06"/><polygon id="_Pfad_62" data-name="&lt;Pfad&gt;" class="cls-3" points="19.35 39.79 19.33 39.78 19.37 39.68 19.35 39.79"/><path id="_Pfad_63" data-name="&lt;Pfad&gt;" class="cls-3" d="M23,33.52c0,.09,0,0,.08.08-.13-.06-.09-.06-.08-.08"/><path id="_Pfad_64" data-name="&lt;Pfad&gt;" class="cls-3" d="M24.5,11c.26.29,0,.63.12.94,0,0-.15,0-.12.06a1.13,1.13,0,0,1-.14,1.09l0,0c0,.07.1.15.08.22h-.08c.09,0,0,.13.1.17l-.14.05.1,0c.23.13,0,.27.08.43h-.06a2.55,2.55,0,0,1,.12.84h-.14c.1,0,.12.11.14.18s.09.13,0,.22h0c.11.07-.07.09.06.15l-.08,0c.15,0-.08.09,0,.15h0l0,.12h0c0,.11-.05.17.06.17-.1,0,0-.11-.18-.06a3.33,3.33,0,0,1,0,1.09l-.11.07s0,.14.07.17l-.07,0c0,.06.12.08.07.15l-.11,0c.09.07.07.15.09.22l-.07,0c.1.09,0,.14,0,.22l-.07,0c-.09.11.14,0,.08.13l-.07,0c.12.1.07.24.1.33h0v.31s-.16,0-.15.08,0,.18.21.13c0,.09-.09.22,0,.28s-.17,0-.18,0l-.08.05c-.05,0,0-.06,0,0s0,.15,0,.18.23.14.24.26c-.05-.06-.15,0-.17,0l.25.17s-.11,0-.07.06l.08,0s0,.15-.11.16,0-.06-.07,0l0,.14h0s0,.13.13.09-.08,0,0,0a.18.18,0,0,1,.09.18l-.09,0,.17.3c.06,0-.11,0-.08-.06s.11.28,0,.38h.07c0,.06-.1.05-.07.1s0,.05,0,.1,0,0,0,0a.49.49,0,0,1,0,.43l.12.12-.08,0c-.05,0,0,.11-.07.11.1.07-.07-.26,0-.17s.13.13,0,.11.09.13,0,.18-.11-.06-.11,0,0,0,.06.1l0,0c.08,0,0,.08.08.05-.07,0,0,.13-.1.12l-.1,0,.15.1h0c.16,0,0,.09.1.14-.06.08,0,.21-.12.24,0,.06.1.12.06.19l-.05,0s0,.05,0,.1-.1.09-.16.13.13,0,.19.06c-.16,0,.09.18-.06.24s-.07-.1-.12,0,.11.12,0,.21h.13c-.08,0,.07.14-.07.12,0,0-.05.11.08.1-.12.14,0,.37-.19.45,0,0,0,.07.06.07s0-.05,0-.06l.05,0s0,.08-.15,0,.21.12.16.25-.07,0-.07,0l.09.08c0,.08-.13,0-.22,0s0,.1.07.13l-.12,0c.09,0,.05,0,.07.06l0,0s0,.06,0,.09l.1-.08.07.09c-.09,0-.07.07-.08.11s.08.05.07.06,0,.07-.07,0v-.05s-.12,0-.06.08.18,0,.12.08l-.09,0-.05.07h0c.08,0,0,.12.12.14l-.07.11h0c-.05,0,0,.11,0,.14h0l0,.12c-.07.06-.31,0-.21.08s.14.11.2.09.06.25-.07.34l.07,0c0,.16.08.36-.09.48,0-.05-.08,0-.13,0s-.08,0,0,.06l.14,0c0,.1,0,.25,0,.3l.08,0c-.12,0-.14.06-.1.12h.07l-.08,0s.15,0,.08.08h-.08c.06.06.15.15.08.2l-.11,0s.07.08.1,0-.08.17-.17.2a.72.72,0,0,1,.17.67H24.2c-.05.05.09,0,.05.07h-.17c-.06.08.09.11.11.16s0,0,0,0-.06.11,0,.13l-.16,0,0,.05c-.13.05-.21-.15-.37-.1v0c-.11,0-.12-.13-.16,0s.2.11.25.06.25.06.23.18,0-.09-.1-.07,0,.11,0,.15.15,0,.17,0-.1,0-.11,0,.1.1.15,0,0,.08.06.13c-.1,0-.22-.1-.27,0s.12.12.26.08a.14.14,0,0,1-.16,0c-.06,0,.16.13,0,.13l.1,0-.11.06s.12.15,0,.13c0,0,0,.11.11.08s-.07-.08.07-.1c-.11,0,0,.09,0,.13h-.06l.07.09H24.2l.08,0c0,.09-.15,0-.13.09l-.06-.07,0,.08.23.07c0,.05-.09,0,0,.07l-.09-.07s-.13,0-.13.1.13.11.18.05a.07.07,0,0,1-.11,0c0,.07.09,0,.13.06l-.21.14-.13-.07v0c-.1-.06-.08,0-.19,0l0,.1c.18-.07.23.12.4.1s-.4,0-.15.19c0,0,.16.05.12,0,0,.07.16.06.09.14s-.17.06-.26,0,0,0,0-.06-.16,0-.17.06,0,.11.1.11,0-.07.08,0-.12.1,0,.15c0-.06.09-.07.15-.06l0,.07-.06,0c-.05.1.11,0,.09.14l-.12,0c-.1,0,.06-.15-.11-.14,0,.07.07.1,0,.16L24,31s-.24,0-.11.14.06,0,.12,0l.08.22c-.12,0,0,.12-.14,0,.08,0,.08-.19,0-.24s0-.08-.12-.12-.15.07-.25.08l0,.07h.18a.23.23,0,0,0,.09.25s-.13,0-.14,0l0,.35c.15-.06,0,.12.15.08A.18.18,0,0,1,24,31.8s-.07,0-.1,0-.13.06,0,.12c0-.11-.18,0-.29-.06.06.08-.08,0-.09.06l.12.26c-.12.1,0,.27,0,.36s-.19,0-.22.05.14,0,.08.05h0s-.1.16.08.21l-.14,0,0,.05-.11,0c-.1,0,0,.12,0,.18l.09,0c.05.11,0,.18,0,.28h-.08l0,.07c-.08,0-.13,0-.07.07l-.17-.18s.09.06.17,0,.06-.11,0-.14l0,.07c-.11,0-.11-.06-.18-.09v.05L23.09,33s.07,0,.1,0-.12-.08-.09-.15-.06-.15,0-.24l.21.16.06-.12c-.07,0-.18-.06-.22-.14h.07c0-.07-.14-.08-.11-.16l.08-.4h.07c-.15-.07,0-.21-.11-.3s0-.31.09-.37a2.15,2.15,0,0,1,0-.73l.11,0c-.08-.05.06,0,0-.07s-.11-.07-.17-.11c.09-.11,0-.26-.06-.37h.07c-.13-.11,0-.23,0-.35l.1-.07c-.12-.08-.11-.12-.17-.22l.1-.27c-.15-.29,0-.57-.11-.87h.09c-.17-.29,0-.63-.06-.88l.15,0c.05-.07,0-.18-.13-.16.05-.07-.06-.2.06-.24s-.06-.1-.08-.16a.53.53,0,0,0,0-.36v0s.1,0,.11,0,.05-.2-.13-.16c.11-.15-.06-.37.08-.51l-.09,0c0-.14.11-.28,0-.39s.08,0,.09,0l-.08,0c-.08-.23.12-.45.11-.65a5.18,5.18,0,0,1,0-1.08h0c-.13-.12.16-.26,0-.37,0,0,0-.1.09-.08-.09-.1.11-.25,0-.39l0,0c.09-.13,0-.25.07-.39l.06.05c.07-.05-.14-.14,0-.16,0,0-.08,0-.08,0a3.1,3.1,0,0,0,0-1c.11-.22.29,0,.17-.19,0,0-.06,0,0,0s.2-.1.11-.15-.06,0-.12,0,.17-.16.1-.28h.05c-.15-.14-.06-.29-.23-.41l0-2.13c.07-.69,0-1.38.17-2.08.15-.16.15-.17.1-.36h0c-.12,0,0-.13-.12-.15l0-.77s.11.07.1,0l-.07-.06h0l-.11,0a18.07,18.07,0,0,1,.22-2,1.39,1.39,0,0,0,0-.55,2.79,2.79,0,0,0,.26-1.47s.31.09.36.31"/><path id="_Pfad_65" data-name="&lt;Pfad&gt;" class="cls-3" d="M23,33.43c.06,0,.1,0,.17,0Z"/><polygon id="_Pfad_66" data-name="&lt;Pfad&gt;" class="cls-3" points="23.8 31.94 23.84 31.92 23.86 31.97 23.8 31.94"/><path id="_Pfad_67" data-name="&lt;Pfad&gt;" class="cls-3" d="M23.87,31.54c.05,0,.09.1.09.15Z"/><path id="_Pfad_68" data-name="&lt;Pfad&gt;" class="cls-3" d="M24.11,31.18s.07,0,.07,0Z"/><path id="_Pfad_69" data-name="&lt;Pfad&gt;" class="cls-3" d="M24,31.15l.06-.06s0,.07-.06.06"/><path id="_Pfad_70" data-name="&lt;Pfad&gt;" class="cls-3" d="M24.2,30.34s0-.07,0-.08.06.1,0,.08"/><polygon id="_Pfad_71" data-name="&lt;Pfad&gt;" class="cls-3" points="24.15 29.96 24.15 29.93 24.22 29.95 24.15 29.96"/><polygon id="_Pfad_72" data-name="&lt;Pfad&gt;" class="cls-3" points="24.36 23.07 24.38 23.11 24.33 23.1 24.36 23.07"/><path id="_Pfad_73" data-name="&lt;Pfad&gt;" class="cls-3" d="M24.53,20.05s.05,0,.06,0-.06,0-.06,0"/><polygon id="_Pfad_74" data-name="&lt;Pfad&gt;" class="cls-3" points="24.35 18.41 24.35 18.42 24.24 18.41 24.35 18.41"/><path id="_Pfad_75" data-name="&lt;Pfad&gt;" class="cls-3" d="M20.9,39.52c0,.05.1,0,0,0s-.08,0,0,0"/><path id="_Pfad_76" data-name="&lt;Pfad&gt;" class="cls-3" d="M25.57,40c-.26-.19,0-.38-.13-.58,0,0,.15,0,.12,0-.2-.19-.07-.45.11-.66h0s-.11-.09-.09-.14h.08c-.08,0,0-.08-.1-.1l.14,0-.1,0c-.23-.07,0-.17-.1-.26h.06c-.15-.15-.13-.34-.18-.5h.14a.15.15,0,0,1-.15-.1c.11,0-.1-.08,0-.13h0c-.11,0,.06-.06-.07-.09l.08,0c-.15,0,.08-.06,0-.09h0v-.07h0c0-.06,0-.11-.08-.1.09,0,0,.06.18,0a1.31,1.31,0,0,1-.17-.64l.1-.06-.09-.09.06,0s-.13,0-.09-.08h.11c-.09,0-.09-.08-.12-.11h.07c-.11,0,0-.09-.06-.12h.07c.07-.08-.14,0-.11-.06h.08c-.13,0-.12-.12-.17-.16h0c0-.05,0-.12-.08-.17s.16,0,.12-.09-.08-.09-.22,0,0-.15,0-.17.15-.08.17,0l.07-.06c.06,0,0,0,.06,0l-.06-.09c-.09,0-.25,0-.28-.05s.13-.07.16-.06h-.27s.1,0,0-.06l-.09,0s-.08-.05,0-.12l.07,0-.09,0h0s-.09,0-.14,0,.06,0,0,0-.12,0-.14,0l.09,0a.48.48,0,0,1-.23,0c-.05,0,.1-.06.08,0s-.17,0-.1-.17-.06.07-.05.05.06-.1,0-.09,0,0,0,0,0,0,0,0-.2.06-.2,0-.09.1-.1.1l0-.07s0,0,0-.07.14,0,.07,0-.1.1,0,0-.08.07-.07,0,.06-.1,0-.1l-.06,0,0,0c0,.08,0,0,0,.07,0-.07,0,0,0-.12l0-.1-.06.14v-.05c0,.17,0,0-.06.09,0-.05-.1,0-.12-.09,0,.05-.06.12-.09.08l0-.06s0,0,0,0-.05-.09-.09-.15v.19c-.06-.16-.07.11-.13,0v-.12c-.06-.15,0,.12-.1,0l0,.13c0-.08,0,.08-.08-.05,0,.05-.06,0,0,.1-.1-.07-.12.14-.26-.06,0,0,0,0,0,.07s0-.06,0,0v.06s-.05,0-.08-.12.06.22,0,.2l-.05,0,0,.09s-.09-.09-.14-.17,0,0,0,.1l-.09-.07c.07,0,0,.06,0,.08v0s0,0,0,0l.09,0,0,.09c-.05-.07-.06,0-.08,0s0,.08,0,.08,0,0-.06,0,0,0,0,0-.09-.08-.07,0,.12.13.06.11l0-.08h-.06l.06.06,0,0c.05.07,0,.06,0,.13h-.09c-.05,0-.05,0,0,.07h0V35c-.07,0-.26-.18-.19-.09s.1.13.15.15,0,.15-.12.13l.05.06c-.07.06,0,.2-.18.19l-.11-.06c.05,0-.08,0,0,.05l.14,0a.11.11,0,0,1-.1.13l.07,0c-.11,0-.14,0-.11,0l.06,0h-.07s.14.07.06.07l-.07,0c0,.05.12.13.06.14h-.11l.1,0c-.08,0-.1.07-.19.06a.31.31,0,0,1,.09.4l-.05,0c-.06,0,.09,0,0,.05l-.17,0c-.06,0,.08.08.1.12s0,0,0,0-.06.05,0,.08l-.16,0,0,0c-.13,0-.2-.13-.36-.13v0c-.11,0-.11-.1-.16,0a.4.4,0,0,0,.24.08c0,.07.24.08.22.14s0-.05-.09-.06,0,.07,0,.09l.16,0c-.05,0-.09,0-.11,0l.14,0c.13,0,0,0,.06.08-.1,0-.21-.09-.27,0,.09,0,.12.09.26.09l-.16,0c-.06,0,.16.1,0,.07L22,37l-.11,0s.11.1,0,.07c0,0,0,.07.1.06s-.07-.05.07,0c-.11,0,0,.05,0,.08H22l.06.06h-.08l.08,0c0,.05-.15,0-.13,0l-.06,0,0,0,.23.07s-.09,0,0,0l-.09,0s-.13,0-.13,0,.13.08.18,0l-.11,0,.13,0-.21.06-.13-.05v0c-.1,0-.08,0-.19,0l0,.06c.18,0,.23.09.4.09s-.4,0-.15.1c0,0,.16,0,.12,0s.16,0,.09.09-.17,0-.26,0,0,0,0,0-.16,0-.17,0,0,.07.1.07,0,0,.08,0-.11.05,0,.09c0,0,.09,0,.15,0l0,0H21.9c0,.06.11,0,.09.09h-.12c-.1,0,.06-.08-.11-.09,0,0,.07.06,0,.09l0,0s-.23,0-.11.07l.12,0,.08.13c-.12,0,0,.07-.14,0,.07,0,.08-.11,0-.14s0,0-.12-.08-.15,0-.25,0l0,0h.18c0,.05,0,.11.1.15s-.14,0-.14,0l0,.21c.15,0,0,.08.15.06a.24.24,0,0,1,.21,0h-.1c.08,0-.13,0,0,.07,0-.07-.18,0-.29,0,.06,0-.08,0-.08,0l.13.16c-.11.06,0,.16,0,.22s-.19,0-.21,0,.14,0,.08,0h0s-.09.1.09.13l-.14,0,0,0h-.12c-.1,0,0,.07,0,.11l.08,0c.06.07,0,.11,0,.17h-.08l0,0c-.08,0-.13,0-.07,0L21,39.31l.18,0c.07,0,.05-.07,0-.08l0,0c-.11,0-.11,0-.18-.05v0l-.06-.09H21c-.1,0-.13,0-.1-.09s-.07-.09,0-.15l.22.1.05-.07a.57.57,0,0,1-.23-.09H21s-.15,0-.12-.1l.06-.24H21c-.15,0-.05-.13-.12-.19s-.05-.2.08-.23a.85.85,0,0,1,0-.45l.1,0c-.08,0,.06,0,0,0s-.11-.05-.17-.08c.09-.06,0-.16-.06-.24h.07c-.13-.08,0-.14,0-.22l.1,0c-.11-.06-.1-.08-.16-.16L21,36.8c-.13-.21,0-.37-.05-.57H21c-.15-.22.1-.4.05-.58l.14.06c.06,0,0-.12-.11-.14.06,0,0-.14.1-.13s0-.08-.05-.13a.34.34,0,0,0,.11-.22l0,0,.1,0c0-.05.1-.11-.08-.15.14-.05.05-.27.23-.3l-.06-.07c0-.09.18-.12.15-.24l.08,0-.05-.08c0-.19.31-.2.4-.32.11-.29.43-.38.67-.51v0c0-.17.24,0,.25-.18,0,0,.08,0,.09.06,0-.1.21.07.28-.07l0,0c.11.07.19-.05.3,0l0,.07c0,.06.09-.16.12,0v-.08a3.18,3.18,0,0,1,.82.1c.16.18-.11.26.09.22,0,0,0-.05,0,0s0,.2.07.15.06,0,.1-.09c.06.12,0,.18.13.19l0,0c.17,0,.17.12.36.07A3.4,3.4,0,0,1,26,35.42a4.48,4.48,0,0,1,.17,1.38c-.13.12-.13.12-.06.24h-.05c.12,0,0,.08.13.08l0,.49s-.11,0-.1,0l.08,0h0l.12,0c.13.43-.13.85-.11,1.26-.06.1,0,.24,0,.35a1.19,1.19,0,0,0-.25.91s-.3-.08-.36-.21"/><path id="_Pfad_77" data-name="&lt;Pfad&gt;" class="cls-3" d="M20.89,39.45c.06,0,.09,0,.17,0Z"/><polygon id="_Pfad_78" data-name="&lt;Pfad&gt;" class="cls-3" points="21.56 38.54 21.6 38.53 21.62 38.56 21.56 38.54"/><path id="_Pfad_79" data-name="&lt;Pfad&gt;" class="cls-3" d="M21.61,38.3l.09.09Z"/><path id="_Pfad_80" data-name="&lt;Pfad&gt;" class="cls-3" d="M21.86,38.11l.07,0Z"/><path id="_Pfad_81" data-name="&lt;Pfad&gt;" class="cls-3" d="M21.74,38.08l.06,0s0,0-.06,0"/><path id="_Pfad_82" data-name="&lt;Pfad&gt;" class="cls-3" d="M21.94,37.62s0,0,0,0,.06.06,0,0"/><polygon id="_Pfad_83" data-name="&lt;Pfad&gt;" class="cls-3" points="21.89 37.39 21.89 37.37 21.95 37.4 21.89 37.39"/><polygon id="_Pfad_84" data-name="&lt;Pfad&gt;" class="cls-3" points="23.38 34.36 23.37 34.39 23.36 34.33 23.38 34.36"/><path id="_Pfad_85" data-name="&lt;Pfad&gt;" class="cls-3" d="M24.53,34.8s0,0,0,0Z"/><polygon id="_Pfad_86" data-name="&lt;Pfad&gt;" class="cls-3" points="25.11 35.51 25.1 35.51 25.21 35.48 25.11 35.51"/><path id="_Pfad_87" data-name="&lt;Pfad&gt;" class="cls-3" d="M24.19,33.92s-.09,0,0,0Z"/><path id="_Pfad_88" data-name="&lt;Pfad&gt;" class="cls-3" d="M23.18,39.66c-.26-.12,0-.16-.13-.26,0,0,.15,0,.12,0-.2-.11-.05-.2.13-.26h0s-.1-.05-.08-.07h.08c-.09,0,0,0-.1-.05h.14l-.09,0c-.23-.07,0-.07-.09-.13h.06c-.13-.09-.09-.16-.13-.24l.14,0c-.1,0-.12,0-.14-.07s-.09,0,0-.06h0c-.11,0,.07,0-.06,0h.08c-.15,0,.08,0,0,0h0l0,0h0s.05,0-.06-.06c.09,0,0,0,.17,0-.1-.11-.06-.2-.05-.29h.11l-.07-.06h.07s-.12,0-.07,0l.11,0c-.09,0-.07,0-.1-.07l.07,0c-.1,0,0,0,0-.06l.07,0c.08,0-.14,0-.09,0l.07,0c-.12,0-.07-.07-.11-.1h0l0-.08s.16,0,.14,0,0-.05-.2-.06c0,0,.08,0,0-.07s.17,0,.17,0h.08c.06,0,0,0,0,0l0-.05c-.08,0-.23-.07-.24-.1l.17,0-.25-.08s.1,0,.07,0l-.08,0s0,0,.1,0l.07,0,0,0h0s-.05,0-.12,0,.08,0,0,0l-.09-.06.09,0-.17-.1c-.06,0,.11,0,.08,0s-.11-.09,0-.1h-.07s.1,0,.07,0,0,0,0,0h0s-.11-.1,0-.12l-.12,0,.08,0s0,0,.07,0c-.1,0,.08.08,0,0s-.12-.06,0,0-.09,0,0,0,.12,0,.11,0l-.06,0,0,0c-.08,0,0,0-.08,0,.07,0,0,0,.1,0l.1,0-.15-.05h0c-.16,0,0,0-.11-.05.06,0,0-.05.11,0s-.1,0-.06-.06l.05,0s0,0,0,0h.16l-.19,0c.16,0-.09-.06.05-.06l.12,0c.16,0-.11,0,0-.06l-.13,0c.08,0-.07,0,.07,0,0,0,0,0-.08,0,.11,0-.05-.11.18-.09l-.06,0c-.07,0,0,0,0,0l-.06,0s0,0,.15,0-.21-.06-.16-.09h.07l-.09,0s.12,0,.21,0l-.07,0h.12c-.08,0-.05,0-.07,0h0v0h-.1l-.07,0c.09,0,.07,0,.08,0l-.07,0s0,0,.07,0h0s.11,0,.06,0-.17,0-.11,0l.09,0h0c-.08,0,0,0-.11-.05l.07,0h0s0,0,0,0h0l0,0c.06,0,.31,0,.21,0a.51.51,0,0,0-.2-.05c.06,0-.07-.07.06-.08l-.07,0s-.08-.11.08-.11l.13,0c-.07,0,.07,0,0,0H23.2s0-.07,0-.07h-.08c.12,0,.14,0,.1,0h0s-.15,0-.08,0h.08c-.06,0-.15-.06-.09-.07h.11l-.1,0,.17,0c-.21-.08-.21-.15-.18-.2h.05c.05,0-.09,0-.05,0l.17,0c.06,0-.09,0-.11-.06s0,0,0,0,.06,0,0,0l.16,0,0,0,.37.08h0c.11,0,.12.05.16,0a.93.93,0,0,0-.25-.05s-.25-.05-.24-.08,0,0,.1,0,0,0,0,0l-.16,0h.11l-.15,0c-.14,0,0,0-.06,0a1.44,1.44,0,0,0,.27,0c-.09,0-.12,0-.26-.06l.16,0c.06,0-.17-.06,0,0l-.1,0h.11s-.12-.06,0,0c0,0,0,0-.1,0s.07,0-.07,0c.11,0,0,0,0,0h.05l-.06,0h.08l-.08,0s.15,0,.13,0l.06,0h0l-.23-.05s.09,0,0,0l.09,0s.13,0,.13,0l-.18,0h.1l-.13,0h.21l.13,0h0a1.58,1.58,0,0,0,.19,0l0,0a3.41,3.41,0,0,1-.39-.08s.39,0,.15,0c0,0-.16,0-.12,0s-.16,0-.09,0l.25,0c-.05,0,0,0,0,0s.16,0,.16,0,0,0-.1,0,0,0-.08,0,.11,0,0,0c0,0-.08,0-.15,0l0,0h.06s-.11,0-.09-.05h.12c.1,0-.05,0,.12.06,0,0-.07,0,0,0l0,0s.23,0,.1,0l-.12,0-.09-.07c.12,0,0,0,.14,0-.07,0-.07,0,0,.07s0,0,.12,0,.15,0,.24,0l0,0-.18,0s0-.05-.1-.08l.14,0,0-.09c-.15,0,0,0-.15,0h-.11c-.08,0,.13,0,0,0a1.14,1.14,0,0,0,.29.06c-.06,0,.08,0,.08,0l-.13-.09c.11,0,0-.07,0-.09s.18,0,.21,0-.14,0-.08,0h0s.09,0-.09-.07l.14,0,0,0,.12,0c.1,0,0,0,0,0h-.08c-.06,0,0,0,0-.07h.08l0,0c.08,0,.13,0,.07,0l.19.07L24,34c-.07,0-.05,0,0,0l0,0a.69.69,0,0,1,.18,0h0l.06,0h-.1c.1,0,.12,0,.09.05s.07,0,0,.07L24,34.09l-.05,0,.23.07h-.07s.14,0,.12.06l-.06.1h-.07c.15,0,0,.06.11.1s.06.09-.07.09c0,.07.09.14.05.2l-.11,0c.08,0-.06,0,0,0l.17.05c-.09,0,0,.07.06.11h-.07c.13,0,0,.06,0,.09h-.09a.62.62,0,0,1,.17.08l-.09.06c.15.1,0,.15.12.24h-.09c.17.1,0,.16.07.24l-.15,0s0,.05.14.06c0,0,.06.06-.06.05s.06,0,.08.06-.05,0,0,.09h-.1s0,0,.13.06c-.11,0,.07.11-.08.12l.09,0s-.11.06,0,.1h-.09l.09,0c.08.07-.11.1-.1.16s0,.19,0,.28h0c.13.05-.15,0,.05.1,0,0,0,0-.09,0,.09,0-.1.05,0,.1h0c-.08,0,0,.07-.06.09l-.06,0c-.07,0,.14.06,0,0H24c-.08.07,0,.17,0,.26s-.29,0-.17,0h0s-.19,0-.11,0,.06,0,.12,0-.17,0-.09.06h-.05c.15.06.06.09.23.14l.06.56c-.06.17,0,.36-.14.52s-.15,0-.1.08h0c.12,0,0,0,.12.06l0,.2s-.11,0-.1,0l.07,0h0l.11,0c.08.19-.19.32-.19.49s0,.1,0,.14c-.18.1-.33.2-.24.35a1.2,1.2,0,0,1-.36-.14"/><path id="_Pfad_89" data-name="&lt;Pfad&gt;" class="cls-3" d="M24.19,33.94l-.17,0Z"/><polygon id="_Pfad_90" data-name="&lt;Pfad&gt;" class="cls-3" points="23.52 34.24 23.48 34.24 23.46 34.23 23.52 34.24"/><path id="_Pfad_91" data-name="&lt;Pfad&gt;" class="cls-3" d="M23.47,34.34l-.1-.05Z"/><path id="_Pfad_92" data-name="&lt;Pfad&gt;" class="cls-3" d="M23.23,34.4l-.07,0Z"/><path id="_Pfad_93" data-name="&lt;Pfad&gt;" class="cls-3" d="M23.35,34.42h-.06s0,0,.06,0"/><path id="_Pfad_94" data-name="&lt;Pfad&gt;" class="cls-3" d="M23.16,34.6s0,0,0,0-.06,0,0,0"/><polygon id="_Pfad_95" data-name="&lt;Pfad&gt;" class="cls-3" points="23.23 34.71 23.23 34.72 23.16 34.7 23.23 34.71"/><polygon id="_Pfad_96" data-name="&lt;Pfad&gt;" class="cls-3" points="23.15 36.5 23.13 36.49 23.18 36.5 23.15 36.5"/><path id="_Pfad_97" data-name="&lt;Pfad&gt;" class="cls-3" d="M23,37.27s0,0-.06,0Z"/><polygon id="_Pfad_98" data-name="&lt;Pfad&gt;" class="cls-3" points="23.22 37.73 23.22 37.72 23.33 37.74 23.22 37.73"/><path id="_Pfad_99" data-name="&lt;Pfad&gt;" class="cls-3" d="M22.77,20.57s0,0,0,0Z"/><path id="_Pfad_100" data-name="&lt;Pfad&gt;" class="cls-3" d="M21.92,22.87c.16-.12.2.09.35,0s0,.09,0,.08.26.06.34.21l0,0,.1,0,0,0,.08,0,0,.09,0,0c.1-.12.08,0,.17,0l0,0c.12,0,.21,0,.31,0l0,.08.1-.06c0,.07.07,0,.08,0h0c.05-.05,0,.05.07,0v.05c0-.08,0,.06,0,0v0l0,0h0s0,.05.07,0,0,0-.06.09a.72.72,0,0,1,.38.1v.07l.06,0v0s0-.08.05,0l0,.07.08-.06v0c0-.06.05,0,.08,0v0c0,.05,0-.09,0-.05v0c0-.07.09,0,.12-.07v0h.11s0,.1,0,.09.07,0,0-.13l.1,0,0,.11,0,.05,0,0,.06,0c0-.05.06-.14.1-.15v.11l.06-.15,0,0,0-.05s.06,0,.06.07v0l.05,0h0l0-.08v0l.07-.06,0,.06c-.09,0,.35-.27-.16.08,0,0,.07,0,0,0s-.07-.1,0-.13h0l0,0,0,0h0s-.07-.11,0-.16l-.08,0h.05l0,0c-.06,0,0,.1,0,.06s-.08-.05,0,0v-.07h.07l0,0,0,0s0,0,0,0,0,0,.06,0h.07l-.09,0h0c-.1,0,0,0-.07-.05s0-.07.07-.08l0-.07,0,0v0l.1,0-.12,0c.1,0-.06-.07,0-.09l.07,0c.1,0-.07,0,0-.07h-.08c.05,0,0-.05,0,0s0,0-.05,0c.07,0,0-.13.11-.16l0,0v0h0s0,0,.09,0-.13,0-.1-.09h0l-.06,0s.08,0,.13,0l0,0H25c-.05,0,0,0,0,0h0v0l-.06,0,0,0c.06,0,0,0,0,0l0,0h0v0s.07,0,0,0-.11,0-.07,0l.05,0,0,0h0L24.87,22c.08.11-.16-.3.24.24h0l0,0s0-.19,0-.13l-.05.12s-.09,0-.11-.06l0,0c-.05,0-.13,0-.16-.08l0-.08s0,0,0,0v.09a.07.07,0,0,1-.1,0l0,0c0-.07,0-.09,0-.06v0s0,.09,0,0v0s-.07.08-.08,0v-.06l0,.06-.05-.11a.2.2,0,0,1-.25.08v0l0,0,0-.1s0,0-.07.06,0,0,0,0,0,0-.05,0l0-.1,0,0,.07-.22h0l0-.1,0,.15s0,.15-.09.14l0-.06c0-.06,0,0-.05,0l0,.1V22l0,.09c0,.08,0,0-.05,0s.06-.13,0-.17-.05.07-.06.16l0-.1s-.06.09,0,0l0,.06V22s-.07.07,0,0,0,0,0,.06,0,0,0,0c0-.07,0,0-.05,0v0l0,0v-.05l0,.05s0-.09,0-.08l0,0,0,0,0,.14s0-.05,0,0l0-.05,0-.08,0,.11V22l0,.08c.19.1-.3-.26-.21-.27l.08,0h0l.09-.07h0l-.21.13s.18-.17,0-.11-.09.05-.05.05-.09,0-.08,0l.13-.09v0l.07-.08h-.07s0,0,0,0,0-.07-.06,0l-.06.08h0l0,0s-.06,0-.08,0l.05-.06c.06,0,0,.06.09,0l0,0h0s.1-.1,0-.08l-.06,0-.09,0c.06,0,0,0,.06-.07s0,.08.08,0,0,0,.09,0,.06-.08.1-.12h0l-.08.08s-.05,0-.11,0l.08,0-.07-.1c-.06.08,0,0-.09,0l-.08.1,0,0s0-.07,0,0l.15-.1s0,0,0-.05l-.12,0c0-.07-.06-.08-.08-.1l.09-.1s-.06.07,0,0h0s0-.08-.09,0l.08,0h0l.06,0c0-.05,0,0,0,0l0,0-.07-.08,0,0h0s.06-.06,0,0l.13,0-.09.06s0,.05,0,0h0l.11-.05h.05l0,0s.08,0,.08,0,.07,0,.07.05l-.14,0v.05l.14-.05,0,0s.09,0,.1,0l.07.13,0,0c.09,0,.07,0,.13,0s.1.06.05.13l.2.18-.06,0s0,0,0,0l.11,0c-.08,0,.21.18,0,0v0c.05-.08.08,0,.12,0l0,.06.1-.1.09.07c.12-.08.21,0,.32,0v.05c.12-.09.22,0,.32,0l0,.09s.07,0,.07-.08.08,0,.08,0l.07,0,.13,0h0v.07s.07,0,.07-.07c0,.07.14,0,.18.07l0-.05s.09.08.14,0v.06l0-.05c.17.17-.2-.42.39.45l0,.11v.39h0c.08,0-.1.09,0,.13l-.05,0c.06,0-.06.09,0,.14h0l0,.14,0,0s.09.05,0,.05h.05c0,.11,0,.23,0,.35s-.18,0-.11.06h0s-.13,0-.07.05l.08,0s-.11.05-.06.1h0c.09.06,0,.1.15.15-1,.81-.71.27-1.13.44-.09,0-.71,0-.87-.22s0-.11-.1-.1l0,0-.08.05L23,23.78l0-.06,0,0v0l0,.06c-.25,0-.4-.28-.62-.36l-.19-.07c-.12-.17-.24-.31-.43-.32,0,0,.1-.16.19-.17"/><path id="_Pfad_101" data-name="&lt;Pfad&gt;" class="cls-3" d="M22.8,20.59l-.08.07Z"/><polygon id="_Pfad_102" data-name="&lt;Pfad&gt;" class="cls-3" points="22.83 21.27 22.82 21.29 22.8 21.28 22.83 21.27"/><path id="_Pfad_103" data-name="&lt;Pfad&gt;" class="cls-3" d="M22.9,21.4h0Z"/><path id="_Pfad_104" data-name="&lt;Pfad&gt;" class="cls-3" d="M22.88,21.58l0,0Z"/><path id="_Pfad_105" data-name="&lt;Pfad&gt;" class="cls-3" d="M22.94,21.55l0,0s0,0,0,0"/><polygon id="_Pfad_106" data-name="&lt;Pfad&gt;" class="cls-3" points="23.42 22.01 23.43 22.01 23.41 22.05 23.42 22.01"/><path id="_Pfad_107" data-name="&lt;Pfad&gt;" class="cls-3" d="M25,23.5v0Z"/><polygon id="_Pfad_108" data-name="&lt;Pfad&gt;" class="cls-3" points="24.42 23.63 24.43 23.63 24.42 23.69 24.42 23.63"/></g></g></svg>