<svg xmlns="http://www.w3.org/2000/svg" viewBox="0 0 118.93 84.09"><defs><style>.cls-1{fill:#672b11;}.cls-2{fill:#fff;}</style></defs><title>Element 1</title><g id="Ebene_2" data-name="Ebene 2"><g id="Ebene_2-2" data-name="Ebene 2"><path class="cls-1" d="M4.14,3.05l18-1.31"/><polygon class="cls-2" points="41.86 3.24 74.5 2.3 76.01 2.87 75.07 24.82 75.63 32.51 77.69 23.13 86.51 11.5 103.96 3.05 114.28 4.55 117.85 10 117.47 28.76 116.91 55.97 118.79 68.91 115.78 77.17 110.16 81.3 90.64 80.73 73.57 81.3 34.91 81.67 20.47 81.48 13.71 81.86 5.83 79.61 1.51 74.35 0.77 67.22 0.58 22.57 0.58 6.81 5.08 1.93 17.46 1.36 41.86 3.24"/></g><g id="Ebene_1-2" data-name="Ebene 1"><path class="cls-1" d="M.27,10C-.31,20.36.21,30.82.34,41.2c.13,10.17-.95,21,.55,31.1.19,1.31,1.05,1.2,1.24,0,1.4-9.39.1-19.71-.2-29.18C1.58,32.17,1.77,21.2,1.15,10.3,1.09,9.29.35,8.55.27,10Z"/><path class="cls-1" d="M.72,10.51A6.64,6.64,0,0,1,4,4.58,10.33,10.33,0,0,1,7.18,3.4c1.29-.31,2.26,0,2.93-1.23a1.63,1.63,0,0,0,0-1.42c-.54-.82-.6-.83-1.59-.67A15.41,15.41,0,0,0,6.22.67,10.12,10.12,0,0,0,2.39,3C.25,5,0,7.91.31,10.68.39,11.37.73,11,.72,10.51Z"/><path class="cls-1" d="M10.77,3.22c11.07.3,22.14.54,33.21.85q7.79.22,15.58.31c5.23.06,11.68.94,16.72-.47.6-.17.53-2.37-.06-2.54C71.73.13,66.09,1.16,61.42,1.18c-5.84,0-11.68-.09-17.52-.22C32.84.73,21.77.23,10.7.49,10,.5,10.07,3.2,10.77,3.22Z"/><path class="cls-1" d="M75.67,1.73c-.31,6.32-.69,12.65-.92,19-.17,4.77-.5,9.85.7,14.5.36,1.41.89,0,.9-.7,0-5.59-.51-11.1-.29-16.72.21-5.25.55-10.48.38-15.74C76.41,1,75.74.28,75.67,1.73Z"/><path class="cls-1" d="M75.86,40.13c-.66,5.78-.19,11.76.06,17.55.3,7-.44,14.1-.12,21.11.05,1.12,1.13,3,1.6.95,1.33-5.85.66-12.29.47-18.24-.23-7.09-.37-14.35-1.24-21.39C76.51,39.15,76,39.2,75.86,40.13Z"/><path class="cls-1" d="M1.55,71.9a12.6,12.6,0,0,0,4.12,9.5c2.23,1.84,8.77,4,10.79,1.59a1.86,1.86,0,0,0,0-1.75c-1.15-1.35-2.15-1-3.88-1.13a15.21,15.21,0,0,1-5.19-1.24c-3.28-1.48-4.19-4.49-5.24-7.63C1.85,70.45,1.54,71.64,1.55,71.9Z"/><path class="cls-1" d="M17.66,83.67c3.91-.9,8.05-.31,12,0a128.78,128.78,0,0,0,15.11.13c10.69-.32,21.49.63,32.12-.71,1.17-.15.81-4.52-.11-4.37-10.53,1.72-21.46,1.11-32.1,1.67a130.83,130.83,0,0,1-15.11.17c-4-.25-8.08-.76-12,.38C16.84,81.19,17.09,83.8,17.66,83.67Z"/><path class="cls-1" d="M75.91,33.42c.6-2.77.88-5.37,3.26-7.31,2-1.63,5.18-1.34,7.55-1.22,4.24.22,8.35.68,11.19-3,2.07-2.67,1.31-7.51,1.38-10.57.22-8.67,7.58-4,11.68-6.71.4-.27.29-1.72,0-2C108.37.52,102.28.8,100.2,3.79c-3.41,4.9,0,12.82-4.47,16.66C90.94,24.61,83,19.41,78,24c-2.29,2.1-2.91,6.52-2.15,9.38C75.83,33.53,75.89,33.52,75.91,33.42Z"/><path class="cls-1" d="M111.49,4.47c6.17,1.62,5.85,8.71,5.57,13.88-.41,7.45-.62,14.9-.78,22.36a165.7,165.7,0,0,0,.34,18.49c.26,2.9.54,5.8.59,8.72.07,4-1.44,6-3.11,9.27-.33.65-.55,2.7.36,3,4.32,1.48,4.5-11.39,4.47-13.52-.05-3.64-.59-7.24-1-10.85-.56-5.43-.14-11-.09-16.49.08-8.82,1.09-17.88.39-26.7C118,8.81,117,1,111.45,2.79,111.05,2.91,111.09,4.36,111.49,4.47Z"/><path class="cls-1" d="M78.25,82.31c7.83,1,15.85.49,23.73,1,4.86.33,12.43,1.27,14.48-4.24.13-.34.23-1.62-.29-1.73-2.22-.48-5.27,2-7.84,2.27a58,58,0,0,1-8.7-.16c-4.11-.18-8.28,0-12.39,0-3.12,0-6.27-.83-9.15.58C77.59,80.25,77.65,82.23,78.25,82.31Z"/><path class="cls-1" d="M75.85,31.86c1.5-7.82,4.89-13.31,11-18.45a44.92,44.92,0,0,1,8-5.18c3-1.56,6.58-1.92,9.29-3.79.5-.35.49-2.73-.19-2.87-3.39-.71-7.78,2.22-10.67,3.8a44.27,44.27,0,0,0-10.8,8.5c-4.32,4.56-8.05,11.38-7,17.85C75.52,32.06,75.75,32.38,75.85,31.86Z"/><path class="cls-1" d="M30.06,23.1c-2.41-3.26-6.06-3.41-9.78-2.47-3.46.87-5.4,3.27-6.5,6.52-2.15,6.35,0,14.59,6.6,17.21,6.85,2.73,13.39-3.76,15-9.89,1-3.88-1.13-17.72-7.66-13.44-.32.21-.28,1.56,0,1.77,1.75,1.12,3.71,1.49,5.24,3,3.38,3.38,1.53,8.56-1.06,11.64a11.5,11.5,0,0,1-10.69,3.65C14.17,39.76,12,30.48,16.52,25.37,19.46,22,26.78,21.73,30,24.68,30.18,24.88,30.28,23.38,30.06,23.1Z"/><path class="cls-1" d="M25.93,26.5c-1.25-1.07-2.48-1.66-3.85-.49-1.19,1-1.64,2.85-1.89,4.32-.49,2.87-.14,7.8,3.32,8.66,3.12.77,4.07-4.45,4.25-6.45a11.86,11.86,0,0,0-.65-5.13c-.39-1-1.77-3.25-2.89-1.68a1.93,1.93,0,0,0,0,1.75c1,1.64,2.72,2,2.63,4.26-.07,1.66-.95,4-2.87,4.08-4.92.28-3.18-10.22,1.9-7.84C26.18,28.13,26.18,26.71,25.93,26.5Z"/><path class="cls-1" d="M47.92,22.87c-2.29.46-3.37,2.87-4.54,4.71-2.49,3.94-4.87,7.93-7.4,11.84-4.81,7.44-9.35,15.12-13.54,22.93-.34.63.12,3.4.59,2.55,8-14.19,16.8-27.86,24.89-42Z"/><path class="cls-1" d="M21.58,63.78c1.89-.1,3.79-.06,5.68-.17,1.09-.06,3.17.24,3.14-1.36,0-1.34-2-.62-2.82-.55-2,.18-4,.3-6,.6C21.15,62.35,21.22,63.8,21.58,63.78Z"/><path class="cls-1" d="M46.75,22.86a15.67,15.67,0,0,0,5.26.46c1.19,0,3.47.14,3.9-1.29.1-.33.16-1.17-.15-1.42-.52-.43-3.12.37-3.81.44a25.75,25.75,0,0,0-5.23.73C46.48,21.84,46.51,22.79,46.75,22.86Z"/><path class="cls-1" d="M54.59,22c-5,5.06-8.87,11.84-12.84,17.76-4.47,6.66-9,13.69-12.89,20.71-.35.63.07,4,.59,3.41,4.56-5.41,7.35-12.51,11-18.57,4.61-7.72,10.36-14.89,14.22-23Z"/><path class="cls-1" d="M60.55,43.35C55.11,36.91,44,40.47,42.63,48.8c-1.1,6.9,1.16,13.71,8.72,15C58.59,65,63.56,60,64.49,53.33c.38-2.73-.31-16.68-6.25-12.48a1.82,1.82,0,0,0,0,1.88c1.62,1.13,3.3,1.27,4.48,3,1.58,2.37,1,5.92.31,8.49-1.25,4.47-6.06,6.19-10.26,6.06-6.54-.19-11.37-5.69-8.46-12.35,2.22-5.09,12-7.81,16.12-3.42C60.6,44.69,60.76,43.6,60.55,43.35Z"/><path class="cls-1" d="M56.26,46.79c-2.55-3.83-5.72-1.19-6.94,2.14-1.14,3.12-.95,8,2.44,9.63,3.06,1.49,5-3,5.42-5.22.35-1.74.5-9.4-3-7.94-.37.16-.24,1.18,0,1.42,1.52,1.71,2.69,2.94,2,5.33-.47,1.76-1.83,3.9-3.91,3.66-5.36-.64-1.73-12.35,3.84-7.93C56.35,48,56.37,47,56.26,46.79Z"/><path class="cls-1" d="M85.71,37.11c1.87.64,5.46-.25,7.51-.23,2.48,0,5,.12,7.44.27s10.77,2.62,10.33-1.78c-.26-2.55-9-1.38-11.08-1.45-3.09-.1-12.76-1.58-14.35,1.66C85.42,35.86,85.32,37,85.71,37.11Z"/><path class="cls-1" d="M85.31,53.2c4.31.87,9.11.14,13.51.25,3,.07,8.5,1.55,10.22-1.49a1.69,1.69,0,0,0-.1-1.53c-1.24-1.09-2.43-.39-4-.28-2,.14-4.12,0-6.17,0-4.21,0-9.82-.31-13.51,1.9C85,52.17,85.06,53.15,85.31,53.2Z"/><path class="cls-1" d="M85.92,69.43c6.56,1.54,14.82.4,21.61,0,2.34-.14,4.58-1.31,2.89-3.79a.38.38,0,0,0-.29-.24c-7.84,2-16.41-.07-24.25,1.89C85.35,67.41,85.4,69.3,85.92,69.43Z"/><path class="cls-1" d="M2.13,64.42c.65,4.69,2,9.39,6.75,11.26,3.62,1.41,8,1,11.75.64,5.33-.45,10.53-1,15.88-1.07,5.18-.11,10.35-.14,15.53,0,5.37.17,10.77,1.33,16.1.36,5.92-1.08,8.56-6.63,8.66-12.05,0-.18-.18-.51-.23-.16C75.3,72,69.75,75.23,61.48,74.86c-7.72-.34-15.32-.79-23.05-.64-6.59.13-13,.72-19.54,1.33A24.46,24.46,0,0,1,7.77,74.4C4,73,2.86,67.75,2.3,64.29,2.25,64,2.11,64.23,2.13,64.42Z"/><path class="cls-1" d="M77.74,63.71c-.43,8.87,7.54,10.56,15,10.73,5.49.13,11.89.91,17-1.28,5.54-2.39,6.48-9.61,7.31-14.76,0-.11-.1-.74-.2-.41-1.42,4.82-1.93,9.67-6,13.16s-9.64,2.24-14.37,2.34c-7,.15-19.12.64-18.52-9.64C77.94,63.63,77.76,63.35,77.74,63.71Z"/></g></g></svg>