<?xml version="1.0" encoding="utf-8"?>
<!-- Generator: Adobe Illustrator 17.0.0, SVG Export Plug-In . SVG Version: 6.00 Build 0)  -->
<!DOCTYPE svg PUBLIC "-//W3C//DTD SVG 1.1//EN" "http://www.w3.org/Graphics/SVG/1.1/DTD/svg11.dtd">
<svg version="1.1" id="Слой_1" xmlns="http://www.w3.org/2000/svg" xmlns:xlink="http://www.w3.org/1999/xlink" x="0px" y="0px"
	 width="389px" height="440px" viewBox="0 0 389 440" enable-background="new 0 0 389 440" xml:space="preserve">
<path d="M0.125,409c0-8,0-16,0-24c0.203-2.14,0.588-4.28,0.582-6.419c-0.156-53.77,3.108-107.463,1.004-161.323
	c-2.02-51.714-0.48-103.569-0.367-155.362c0.032-14.487,0.507-28.974,0.873-43.458C2.354,13.054,2.761,7.677,3.069,1.839
	c3.308,0,5.787,0.133,8.247-0.024C19.923,1.264,28.523,0.613,37.125,0c7.333,0,14.667,0,22,0
	c10.567,0.958,21.131,2.692,31.701,2.727c31.1,0.103,62.202-0.702,93.303-0.705c26.952-0.002,53.904,0.605,80.855,0.944
	c10.467,0.132,20.947,0.655,31.4,0.327C327.299,2.322,358.197-0.612,389.125,3c0,3.667,0,7.333,0,11
	c-0.269,1.778-0.772,3.556-0.772,5.335c-0.001,50.089,0.042,100.179,0.12,150.268c0.003,1.799,0.425,3.598,0.652,5.397
	c0,10.333,0,20.667,0,31c-0.363,10.287-0.906,20.572-1.059,30.862c-0.984,66.215-5.437,132.396-2.069,198.657
	c0.039,0.774-0.225,1.563-0.366,2.463c-1.864,0.111-3.515,0.205-5.166,0.308c-9.113,0.569-18.226,1.14-27.339,1.71
	c-10.667,0-21.333,0-32,0c-2.294-0.275-4.587-0.778-6.883-0.789c-24.457-0.122-48.917-0.007-73.372-0.315
	c-8.935-0.112-17.856-1.209-26.787-1.799c-7.419-0.49-14.857-1.42-22.263-1.23c-16.966,0.436-33.916,1.991-50.877,2.078
	c-25.623,0.131-51.249-0.734-76.876-0.924c-19.284-0.143-38.571,0.118-57.856,0.172c-1.576,0.004-3.153-0.201-4.687-0.307
	C1.038,427.201,0.582,418.101,0.125,409z"/>
</svg>
