<svg xmlns="http://www.w3.org/2000/svg" viewBox="0 0 39.99 35.81"><defs><style>.cls-1{fill:#6d983e;}.cls-2{fill:#fff;}.cls-3{fill:#5d3739;}</style></defs><title>Element 1</title><g id="Ebene_2" data-name="Ebene 2"><g id="Calque_1" data-name="Calque 1"><path id="_Pfad_" data-name="&lt;Pfad&gt;" class="cls-1" d="M.38,16c1.06-.16,2.29-1.47,3.17-2.19,2-1.66,4.08-3.44,6-5.24A64,64,0,0,0,14.5,3.46c.27-.31,1.1-1.75,1.42-1.74.84,0,2.58,3.23,3.16,3.92,2,2.41,3.81,5.31,6.07,7.32s6.7,6.22,9.06,7.93a6.2,6.2,0,0,1-.67.49c-.74-1.48-5.21-4.63-6.38-5.53a50.39,50.39,0,0,1-4.63-3.75A27.65,27.65,0,0,1,18.68,7c-.79-1.23-1.77-3.14-2.83-3.84a49.22,49.22,0,0,1-3.92,4.43,25.1,25.1,0,0,1-4.26,3.87c-1.5,1.13-2.93,2.4-4.37,3.6-1.08.9-1.89,2.17-2.94.77"/><path id="_Zusammengesetzter_Pfad_" data-name="&lt;Zusammengesetzter Pfad&gt;" class="cls-2" d="M28.79,22.59a32.4,32.4,0,0,1,.11,3.64c0,1.3.12,7.15.15,8.45-6.1,1.34-7.81,1.19-10,1-.61-.05-1.25-.11-2-.14a23.53,23.53,0,0,0-2.69.11,15.66,15.66,0,0,1-4.07,0,9.7,9.7,0,0,0-2.95-.21A3.21,3.21,0,0,0,7,35.5a1.86,1.86,0,0,1-.3.05v-.07c-.1-1-.1-2.63-.09-4.2s0-3.3-.1-4.39c0-.12,0-.24,0-.35-.26-1.87-.57-3.93-1-6.48,0-.17-.07-.35-.1-.53a9.12,9.12,0,0,1-.17-1,2.33,2.33,0,0,1,0-.81l.1-.39c.21-.11.43-.21.66-.32a8.21,8.21,0,0,0,1.1-.56c1.36-.87,2.72-1.81,4-2.73l1.72-1.19a15.63,15.63,0,0,0,2.28-1.77l.17-.17A3,3,0,0,1,16,10c.43-.18.74.14,1.32.86.13.17.27.33.41.49.55.62,1.06,1.28,1.56,1.92A17.88,17.88,0,0,0,23,17.07c1,.71,2,1.42,3,2.05l.57.4a5.54,5.54,0,0,0,1.95,1.07A12.85,12.85,0,0,1,28.79,22.59ZM12.18,31.2a12.29,12.29,0,0,0,.55,3.42l.06.12.13,0a10.29,10.29,0,0,0,3,.07c.54,0,1.07-.07,1.55-.07s1,0,1.57-.06a17.66,17.66,0,0,1,3.34,0l.28,0,.05-.28a53,53,0,0,0,0-8.57c-.08-2-.16-3.88-.1-5v-.21l-.19-.08a2.37,2.37,0,0,0-1.48,0,3.55,3.55,0,0,1-.67.11c-.75,0-1.48.09-2.18.16l-.91.09L16,21.11a14.67,14.67,0,0,0-4.46.73l-.22.09,0,.24c.14.89.24,1.76.32,2.6q.07.73.11,1.46v.17C11.87,27.19,12,29.31,12.18,31.2Z"/><path id="_Pfad_2" data-name="&lt;Pfad&gt;" class="cls-3" d="M33.54,20.84c.43.36-.16-.24.3.2a.37.37,0,0,1-.3-.2"/><path id="_Pfad_3" data-name="&lt;Pfad&gt;" class="cls-3" d="M35,20.4c-.38-1.16-1.9-1.81-2.8-2.67-.12-.09.13-.08-.15-.28a18,18,0,0,1-3.39-3.14l.09,0c-.19-.21-.53-.34-.74-.56,0,0,.1,0,.07,0s-.43-.34-.56-.38,0-.14-.1-.28l-.19,0c-.5-.16-.85-.79-1.41-1.14,0,0,.1,0,.07,0a16.94,16.94,0,0,1-2.49-2.48c.05,0,.13,0,.12-.07s-.36-.25-.57-.48c0-.17-.41-.36-.59-.69h0c-.25-.15-.19-.36-.43-.46l0-.19c-.19,0-.18-.36-.37-.49l0,0c-.16-.15-.17-.28-.3-.42v0c-.31-.34-.42-.59-.5-.52,0-.18.31.32.26,0A21.75,21.75,0,0,1,18.2,2.49c-.07-.16-.12-.25-.11-.31a4.71,4.71,0,0,0-.49-.51s0-.12-.06-.18c-.14-.25-.27-.16-.45-.39.11.06.16.06.16,0a2.58,2.58,0,0,0-.8-.39l.11,0a.67.67,0,0,0-.75.29l0-.12c-.38.3,0,.19-.29.47,0-.09,0-.08,0-.11a10,10,0,0,1-.7,1.2v0c-.25.34-.6.6-.87,1-.14.1-.08-.14-.37.19.11.08-.48.57-.19.49a7.52,7.52,0,0,0-.87.86c.08-.16-.24,0,0-.21l-.22.12c0-.06.18-.16.08-.15s-.38.48-.5.56a3.67,3.67,0,0,1-.54.91c.12-.2-.19,0-.1-.14l-.28.65c-.11.12-.09,0-.23.14,0,0,0,.1,0,.17s-.43.49-.56.45.16-.2,0-.11-.17.26-.39.45h0c-.16.11-.39.41-.18.32s-.09,0,.08-.12a2.07,2.07,0,0,1-.51.57c.06-.08,0-.1,0-.15a8.08,8.08,0,0,1-.81.94s0-.19.12-.21c-.48.3-.79.84-1.22,1,.05-.06.09,0,.07,0-.21.17-.26.09-.37.23,0,0-.15.15-.28.29s-.05,0,.06-.1A8.56,8.56,0,0,1,5.36,11.8s-.19.33-.29.41v-.09c-.12,0-.33.3-.39.26-.15.26.77-.78.53-.47-.12,0-.32.45-.33.31-.2.18-.34.42-.58.52.06,0,.09-.23-.07-.08s-.06.1-.27.32l-.12.15c0,.07-.26.21-.1.19-.08,0-.38.38-.44.27l0-.11c-.12.11-.13.26-.2.38H3c.08.13-.3.25-.39.47-.33.17-.72.56-1,.54l-.36.26c.33.13-.68,0-.57,0a.06.06,0,0,0,.1,0,.05.05,0,0,1-.06-.07c.1.06,0-.12.12,0,.05-.16-.14.08-.08.12s.39.13.28,0c.07.26.49.24.64.37-.05,0-.28,0-.13.08.18.25.35-.15.66-.14l-.13-.1c.17,0,.36-.32.41-.18.07-.08.35-.22.24-.3.5-.33,1.14-1.11,1.56-1.16.06-.08.24-.2.17-.22s-.13.17-.2.17.05-.09,0-.11c.17-.11.29-.2.21,0,.38-.22.21-.45.67-.77,0,.05.06,0,.18-.07l.18-.27c.29-.22.23,0,.29,0,.14-.13.33-.28.35-.38l.25-.06c-.18,0,.09-.14.15-.21L6.56,12c.05,0,.21-.15.29-.23s-.25.1-.36.17l.26-.3c0,.09.28-.15.41-.24s.11-.19.15-.21.23-.17.16,0-.13.05-.19.15c.11,0,.15,0,.3-.17s-.14-.1.16-.28L7.67,11,8,10.81l0-.07H8c0-.13.37-.33.36-.44L8.75,10l0,0a1.24,1.24,0,0,0,.44-.4v0a1.57,1.57,0,0,0,.33-.34c.24-.12.26.17.42-.09s.23-.36.11-.34c.4-.26.66-.75,1.06-1,0-.07,0-.05.06-.17A12.83,12.83,0,0,1,12.6,6.4c-.12.17,0,.06.09.09.06-.17.19-.1.14-.22s-.08-.07-.24.06a5.19,5.19,0,0,1,.91-.93c-.1.06-.06,0,0-.1.06.1.29-.12.42-.32l0-.07L14,4.84c0-.08,0-.17.16-.3h.09a2,2,0,0,1,.47-.68L15,3.76c.06-.09.14-.27,0-.14a3.17,3.17,0,0,1,.68-.55c1.69-1.61,1.86.81,2.52,1.13h-.06c.09.23.14.06.2.22-.08,0,0,.21-.14.08.14.32.31.33.45.51.08,0-.13-.13,0-.14s.21.44.32.43-.09.08-.15.06l.15.15c0,.28-.48-.38-.47-.08l.12.16c0,.21-.37-.37-.15.06.15.15.37.23.31,0,.25.36.31,0,.55.45,0,.14-.2-.31-.23-.19s.27.34.36.52c-.09-.2.1-.1.19,0s-.16-.08,0,.21c.08,0,.29.25.17,0,.18,0,.17.31.35.41,0,.14-.37-.17-.2.17,0-.1.36.31.36.07.06.13,0,.19-.1.13.07.2.41.33.31.48h.11l.06.28c.1.15.43.42.31.48,0,.05.3.36.28.18S21,8.72,21,8.53c0,.22.23.29.35.38l0,0c.07.05.19.21.27.22s-.07,0,0,.08l.13,0c.26.24-.06.15.18.4l-.22-.16s.06.17.19.28l.33,0c.15.13,0,.12.17.22l-.23-.13s0,.21.19.41.37.23.23,0c.09.1.17.27.06.23.21.21,0-.08.23.08a5.77,5.77,0,0,0,.28.6l-.27-.11.11.14c-.22-.11,0,.14-.14.12l.33.22c-.16-.36.46.1.49-.09.4.29,0,.48.53.63,0-.08.22,0,0-.19.22.21.26,0,.49.3-.24-.13.12.31-.24.12.05,0-.14-.17-.19-.2.06.13-.12.1.12.3s.36.28.38.2-.23-.18-.08-.17c.31.22.27.37.49.35-.19-.15-.18-.25-.14-.3l.24.15h-.08c.31.32.16,0,.49.29l.09.21c-.15,0-.47-.43-.51-.25.2.19.34.17.53.37l-.18-.1c.08.07,0,.3.43.45.2.09.08,0,.12-.05.38.26.52.3.76.47-.12.06.41.33.07.22a1.8,1.8,0,0,0-.81-.55c0,.21-.27-.23-.44-.18.29.23.19.32.18.43l.24.12c.09,0,0-.12,0-.19a2.9,2.9,0,0,0,.89.54c.08.12,0,.16-.14.06l1.17.9c-.16-.29.44.28.34.07s-.29-.38-.15-.35,0,0,0,.11c.21.06.17.28.4.3-.39-.23-.17.08-.3.12.3.14-.06.05.2.24a8.56,8.56,0,0,1,.94.54,8.19,8.19,0,0,0,1.22.94c.13.17-.06.18.11.34s-.07-.23.2.07h0c.11.06.51.53.72.47l-.18,0,.18.1s0,.12-.1.07c.13.22.39.33.59.5l-.07-.17a6.38,6.38,0,0,1,.88.82l-.06,0,.22.16c-.1,0,0,.21.17.27l-.61-.36c-.1-.17.21.08.18-.06s-.32-.4-.43-.38a.92.92,0,0,0,.23.17c0,.11-.2-.06-.34-.08.06,0,.13.15.16.14a1.84,1.84,0,0,1-.48-.35c.16.09,0-.11,0-.09s-.29-.09-.51-.33-.52-.34-.8-.6a1.65,1.65,0,0,1,.59.21c-.16-.19-.21-.17-.36-.36a1,1,0,0,1-.54-.14l0-.07c-.24-.15-.31-.06-.58-.3-.46-.41-1-.78-1.34-1.08l0-.07c-.3,0-.73-.48-1.06-.64-.45-.42-1.08-.74-1.26-1a18.43,18.43,0,0,1-2.47-1.88l.21,0c-.2-.07-.06-.13-.22-.24.11.21-.27-.1-.42-.14a13.54,13.54,0,0,0-1.2-1l0-.06a5.2,5.2,0,0,1-1-1.17.6.6,0,0,0-.14-.31,4,4,0,0,1-.72-.58,7.93,7.93,0,0,1-.59-1,34,34,0,0,1-2.12-3l0-.12L16.55,3.78c.12-.21-1.1-.45.15-.62l-.54.68,0-.16c-.25.22-.46.59-.33.59-.25.22-.49.67-.71.75-.24.24-.22.36-.4.57a9.35,9.35,0,0,0-1,1.09l.11-.1c0-.07,0-.12-.13,0s-.61.59-.32.53c-.52.41-1,1.19-1.6,1.57.07,0,0,.12-.07.19-.41.44-.93.81-1.26,1.15-.09,0,.07-.16-.13,0s0,0-.08.18c-.69.67-1.58,1.16-2.22,1.7-1.13,1-2.38,2-3.48,3v0c-.3.42-.9.62-1.1,1.07-.12.06-.45.3-.39.18a2,2,0,0,1-2.12.21l.16.09c-.23-.16-2-1.22-.14-2.07a.81.81,0,0,0-.48.11,1.62,1.62,0,0,1,.95.05c-.86-.27-.1-.18-.23-.17.1-.05,0-.11,0-.08a15.85,15.85,0,0,0,3-2.52c.8-.57.22.17.73-.43.07,0,0-.08,0-.06.2-.23.47-.17.57-.37-.13,0,.07-.13,0-.18a3.59,3.59,0,0,0,1-.72V10c.32-.48.86-.84,1.1-1.27,2.37-1.94,4.15-4.26,6.24-6.35A13.84,13.84,0,0,0,15.09.65c.39-1.16,2.85-.54,2.88.2C19,2,19.72,3.41,20.52,4.5a4.07,4.07,0,0,0,.9,1.26s-.07,0-.05,0,.35.42.48.42c.65.89,1.28,1.71,2,2.57-.12-.13-.25-.14-.11,0l.19.12v0c.1.1.25.19.18,0A73.39,73.39,0,0,0,30,14.9a22.88,22.88,0,0,0,1.75,1.54c.75.76,1.47,1.48,2.23,2.15.41.4.7.5,1.26,1.09,0,1.56-.41,1.27-1.47,1.7.12.06.7-.33,1.18-1"/><path id="_Pfad_4" data-name="&lt;Pfad&gt;" class="cls-3" d="M33.29,20.52c0-.09-.11-.31.06-.2,0,.05,0,.19-.06.2"/><path id="_Pfad_5" data-name="&lt;Pfad&gt;" class="cls-3" d="M28.64,15.77s-.06-.08-.07-.1l.19.12c-.07,0-.08,0-.12,0"/><path id="_Pfad_6" data-name="&lt;Pfad&gt;" class="cls-3" d="M27.31,14.73c.05,0,.37.17.54.28Z"/><path id="_Pfad_7" data-name="&lt;Pfad&gt;" class="cls-3" d="M26.18,13.6c-.08-.12,0-.11.11,0Z"/><path id="_Pfad_8" data-name="&lt;Pfad&gt;" class="cls-3" d="M26,13.62a.52.52,0,0,1-.17-.2s.26.16.17.2"/><path id="_Pfad_9" data-name="&lt;Pfad&gt;" class="cls-3" d="M23.51,11.33c-.07,0-.23-.13-.25-.22,0,.08.34.21.25.22"/><path id="_Pfad_10" data-name="&lt;Pfad&gt;" class="cls-3" d="M22.4,10.25l-.08-.1c0-.09,0,0,.1,0Z"/><path id="_Pfad_11" data-name="&lt;Pfad&gt;" class="cls-3" d="M30.23,33.73A22.28,22.28,0,0,1,30,31.07c0-.1.14,0,.11-.2a9,9,0,0,1,0-3.15l0,.06c0-.19-.12-.43-.1-.63,0,0,0,.06.08,0s0-.37-.11-.45.1-.07.13-.18l-.09-.12c-.23-.32,0-.79-.1-1.23,0,0,0,.07.06,0-.11-.72-.12-1.6-.19-2.39,0,0,.09.06.13,0s-.14-.28-.18-.49-.13-.36-.09-.61l0,0c-.12-.17,0-.28-.1-.41l.07-.13c-.14-.06,0-.28-.06-.41h0c-.06-.13,0-.22-.06-.34v0c-.1-.29-.06-.49-.16-.46.07-.13.1.28.19.09-.07-1.16-1.67-.94-2.33-1.78-.07-.1-.12-.16-.12-.21a2.36,2.36,0,0,0-.44-.22s0-.09-.07-.12-.24,0-.38-.17c.09,0,.13,0,.13,0a2.1,2.1,0,0,1-.57-.27h.1c-.24,0-.33-.25-.53-.31h.1c-.22-.24-.15.06-.36-.14l.09,0a3.82,3.82,0,0,1-.85-.43l0,0-.75-.49c-.07-.1.12-.1-.11-.29-.07.11-.41-.3-.37-.07a3.52,3.52,0,0,0-.61-.59c.12,0,0-.2.18-.07l-.06-.16c.05,0,.11.12.12,0a3.72,3.72,0,0,1-.4-.31c-.19-.08-.46-.08-.68-.32.13.08.05-.16.13-.1l-.47-.18c-.07-.08.06-.09-.06-.18s-.08,0-.13,0-.31-.32-.24-.44.13.12.09,0-.16-.13-.29-.28h0c-.07-.11-.28-.26-.25-.11s0-.08.09.05a1,1,0,0,1-.4-.34h.13l-.67-.54c-.05,0,.16,0,.16.07-.17-.34-.58-.53-.68-.84,0,0,0,.08,0,.06s0-.2-.14-.27-.1-.1-.19-.19,0,0,.07,0A4.26,4.26,0,0,1,18,9.86s-.25-.08-.3-.15l.08,0c0-.09-.19-.2-.15-.26-.19-.07.53.46.31.33,0-.09-.32-.17-.21-.2-.12-.13-.29-.18-.35-.36,0,0,.17,0,.07-.08s-.08,0-.25,0h-.11c0,.07-.15-.07-.12,0,0-.07-.24-.07-.21-.2l0-.09c-.09,0-.14,0-.19.12l0,0c0,.18-.19,0-.24.19s-.4.24-.53.27a1.2,1.2,0,0,1-.33.42l0-.12c-.13.07-.11.11-.19.22S15,10,14.9,10s0,.18,0,.22c-.23,0-.34.42-.58.44,0-.06.16-.23,0-.16s-.19.31-.45.4L14,11c-.15,0-.28.29-.33.16,0,.09-.28.15-.19.23-.42.17-.84.65-1.18.62,0,.05-.18.12-.11.16s.09-.12.15-.11l0,.08c-.13.06-.22.11-.17,0-.29.11-.13.35-.48.52,0-.05,0-.05-.14,0l-.12.19c-.21.12-.18,0-.23-.09-.1.09-.24.17-.25.26h-.19c.14,0-.06.1-.1.15l0-.05s-.16.09-.21.14.19,0,.27-.07l-.17.21c0-.09-.21.07-.3.12s-.07.14-.1.16-.17.1-.12,0,.1,0,.13-.09-.12-.05-.22.09.12.12-.1.21l.05-.14-.21.09,0,.07,0,0c0,.1-.26.21-.25.31l-.32.14v0a.59.59,0,0,0-.32.26v0a.79.79,0,0,0-.24.23c-.18.05-.21-.21-.32,0s-.16.28-.07.28c-.3.14-.53.46-.86.51,0,0,0,.05-.07.12-.47.21-.93.58-1.3.59.11-.09,0-.07,0-.11s-.16,0-.14.12,0,.09.18.06a7,7,0,0,1-.7.39c.08,0,0,0,0,.08-.05-.1-.22,0-.3.11L5,17H4.83s.07.14,0,.18l-.08,0c-.16.26.19.18,0,0-.08,0-.1,0-.13,0s-.09-.07,0-.11c-.22.35-.19-.45.74.43a5.7,5.7,0,0,1,.46,1.76H5.72c0,.17.11.08.09.19-.06,0-.09.14-.16,0,0,.24.13.28.18.43s-.06-.12,0-.1,0,.33.11.35-.11,0-.16,0l.07.13c-.09.19-.27-.36-.39-.15l0,.13c-.09.14-.17-.32-.16,0,.07.13.24.23.26.1.08.29.26.1.31.42,0,.09-.06-.25-.13-.18s.09.29.09.43c0-.16.13,0,.17,0S6,20.95,6,21.18c.06,0,.14.23.15,0,.15.06,0,.24.12.35-.08.09-.25-.2-.26.06.08-.05.17.29.28.14,0,.1-.08.12-.14.06,0,.15.22.32,0,.39l.1,0-.07.2c0,.12.19.38,0,.39,0,0,.06.32.13.2s-.1-.19,0-.31c-.09.14.05.25.1.35l-.05,0c0,.06,0,.2.1.23s-.07,0-.08,0l.09.05c.07.24-.14.08-.08.32l-.09-.17s0,.13,0,.24l.25.13c.05.13-.08.07,0,.2L6.56,24s-.1.14-.08.32.18.28.19.09c0,.09,0,.22-.08.16.05.2.08,0,.15.13s-.08.32-.13.46L6.46,25l0,.12c-.12-.14-.06.09-.18,0l.09.26c.13-.27.27.24.41.15.09.33-.34.26-.07.59,0-.06.17.1.1-.12,0,.22.17.14.13.4-.08-.19-.14.22-.25-.05.05,0,0-.16,0-.2s-.16,0-.14.22,0,.32.12.29,0-.21.07-.13c.06.27-.08.32.08.42,0-.17.07-.22.13-.22l0,.19-.06,0c0,.32.11.09.1.4L7,27.44c-.1-.07,0-.45-.13-.39,0,.2.08.26,0,.45l0-.14c0,.07-.22.15-.08.43s.06,0,.12,0c0,.32.09.41.1.61-.12,0,0,.36-.13.14a.86.86,0,0,0-.06-.67c-.14.12,0-.25-.13-.31,0,.25-.13.24-.22.29l0,.18c.09,0,.09-.06.17-.07a1.41,1.41,0,0,0,.12.71c0,.09-.13.07-.14,0v1c.14-.2,0,.36.15.22s.13-.32.19-.22-.06,0-.09,0-.12.21,0,.34c0-.3-.17-.06-.28-.11.06.22-.08,0-.08.21l.13.73a3.37,3.37,0,0,0,0,1c-.05.14-.18,0-.2.2s.13-.14.08.13l0,0c0,.08-.08.49.1.57l-.14-.08,0,.14s-.08.06-.11,0c-.09.17,0,.35,0,.53l.07-.12a6.34,6.34,0,0,1,0,.81H6.46l.05.17c-.08,0-.11.13,0,.22L6.26,34c0-.13.1.14.17.05a.38.38,0,0,0,0-.39.32.32,0,0,0,0,.19c-.11,0-.11-.12-.18-.2v.15a.91.91,0,0,1-.08-.4c0,.12.07-.07.1,0s-.14-.19-.11-.41-.08-.42,0-.68l.22.4c0-.16,0-.18,0-.35A.58.58,0,0,1,6.15,32h.07c0-.19-.14-.19-.12-.44,0-.42,0-.85,0-1.18h.07c-.15-.18-.06-.6-.12-.83.07-.41-.07-.89,0-1.1L6,26.32l.11.11c-.09-.13.05-.09,0-.22C6,26.37,6,26,5.91,26a2.38,2.38,0,0,0-.23-1l.07,0a2.3,2.3,0,0,1-.14-1,.33.33,0,0,0,.06-.23,1.94,1.94,0,0,1-.26-.57,5.35,5.35,0,0,1-.05-.79c-.29-.78-.32-1.61-.55-2.43l.07-.07C4.8,19.41,4,17.22,5,18V17.8c-.09.1-.8.17-.7.22-.75,0-.61-1.5-.37-1.31.19-.2.14-.35.31-.49.45-.25.59-.42,1-.66l-.1,0s0,.1.1.06.57-.23.34-.31c.51-.13.86-.53,1.31-.6-.06,0,0-.09.06-.14A5.54,5.54,0,0,0,7.84,14c.06,0,0,.12.1,0s0-.05.05-.14a17.17,17.17,0,0,1,1.6-1c.81-.65,1.73-1.23,2.55-1.82v0c.22-.3.72-.33.82-.64.08,0,.25-.16.24-.07.17-.22.65-.35.84-.69L14,9.78c.33-.19.52-.46.85-.68l-.05.13c.16-.06.17-.37.36-.32s0-.11,0-.06a2.09,2.09,0,0,1,3.14-.07c.43.61-.17.22.3.56,0,.05.07,0,.05,0,.17.13.06.36.22.41,0-.11.1,0,.15,0,.2.35.19.48.45.68l-.06,0c.36.2.57.6.91.74a22,22,0,0,0,4.17,4.18c1.51,1,3.55,2.51,4.68,3.14,1.33.81.71.94,1,1.41,0,0,0-.05-.05,0s.09.38.21.41a22.9,22.9,0,0,1,.29,2.3c0-.12-.12-.18-.1,0l.08.15,0,0c0,.1.08.21.11.1.19,2-.15,3.89,0,5.8a11.58,11.58,0,0,0,.05,1.59c-.41,1.64.44,2.38-.72,4.67-.08.11.62-.76.27-1.2"/><path id="_Pfad_12" data-name="&lt;Pfad&gt;" class="cls-3" d="M20,12.43c.1.07,0,.09,0,.11s.07,0,0-.11"/><polygon id="_Pfad_13" data-name="&lt;Pfad&gt;" class="cls-3" points="23.45 15.7 23.43 15.68 23.5 15.61 23.45 15.7"/><path id="_Pfad_14" data-name="&lt;Pfad&gt;" class="cls-3" d="M23.07,32.45c-.25-.54,0-1.23-.12-1.81,0-.07.15,0,.11-.13a4.46,4.46,0,0,1,0-2.13l0,0c0-.13-.11-.29-.1-.42h.08c-.08,0,0-.25-.11-.3l.13-.13-.1-.08c-.23-.21,0-.53-.13-.83l.06,0a9.78,9.78,0,0,1-.22-1.61h.13c-.1,0-.13-.19-.16-.33s-.1-.24-.05-.41h0c-.11-.12.05-.19-.08-.28L22.7,24c-.15-.05.07-.18,0-.28h0c0-.09,0-.15,0-.24h0c0-.21,0-.33-.08-.33.08-.08,0,.2.17.08a11,11,0,0,1-.14-2.11l.1-.15c0-.07,0-.26-.07-.33s.06,0,.06-.08-.12-.14-.07-.28l.11.06c0-.18-.11-.14-.3-.15l.06-.06c-.17.08-.27-.09-.41,0l.05-.07c-.23-.05-.06.14-.24.12l0-.08a2.66,2.66,0,0,1-.6.23v0c-.18.06-.4,0-.61.12s0-.16-.18-.12c0,.13-.34.08-.22.22a1.66,1.66,0,0,0-.56,0c.08-.06-.09-.15.05-.17l-.11-.07c0-.05.11,0,.07-.05a1.66,1.66,0,0,1-.34.06c-.13.09-.25.25-.46.28.1-.06-.07-.14,0-.16l-.29.27c-.07,0,0-.1-.12-.06l-.06.09s-.3.06-.34-.07.11,0,0-.07-.13.06-.27.07v0c-.09,0-.25.08-.15.14s0-.07.06,0a.49.49,0,0,1-.34.12l.05-.1a1.88,1.88,0,0,1-.55.21c0,.06.07-.11.1-.09-.26-.07-.52.15-.74,0,0,0,0,.08,0,.07s-.12-.09-.2,0-.1,0-.18,0,0,0,0,0a1.8,1.8,0,0,1-.83.11s-.15.14-.21.14l0-.08c-.06,0-.2,0-.22,0-.12.1.49-.12.32,0-.05-.06-.23.14-.2,0-.12,0-.23.12-.35.06,0,0,.08-.12,0-.1s0,0-.18.09l-.08,0c0,.08-.15,0-.08.09s-.24.07-.24-.06v-.1c-.07,0-.1.12-.15.18l0,0c0,.15-.18,0-.24.14-.16,0-.37.1-.46,0a.54.54,0,0,1-.32.17l.05-.07c-.09,0-.1,0-.17.07s-.19,0-.3-.06,0,.14,0,.2c-.32,0,.39-.55.1-.07,0,0-.09-.17-.12-.06s.13.21.08.39l.12-.06c-.07.09.1.25,0,.25.05.05,0,.21.1.18-.07.3.14.7-.06.91,0,0,0,.15.08.12s-.06-.09,0-.12l.06,0c0,.09,0,.17-.13.09-.06.21.23.19.21.45-.05,0-.07,0-.05.09l.1.13c0,.17-.11.1-.19.12s0,.2.1.23l-.1.12c.07-.08.06.07.08.11l0,0s0,.12,0,.17.06-.12.07-.18l.09.17c-.09,0,0,.15,0,.22s.09.09.09.11,0,.13-.06.07,0-.07,0-.11-.1.05,0,.16.17,0,.13.13l-.09-.07,0,.15h.08l0,0c.09,0,0,.22.13.25l0,.23v0a.28.28,0,0,0,.05.27h0l.06.22c-.05.12-.29.06-.18.19s.15.18.2.13c0,.22.1.46,0,.67,0,0,.05,0,.08.07,0,.32.14.67,0,.94,0-.09-.08,0-.12,0s-.07.1.06.12.1,0,.13-.1a1.1,1.1,0,0,1,0,.59c0-.06.05,0,.08,0s-.12.14-.07.24h.07l-.06.07s.15,0,.09.14l-.07,0c.06.11.17.25.13.38l-.09.11s.08.13.1,0c0,.21,0,.34-.12.41a2.55,2.55,0,0,1,.34,1.24h-.05c0,.11.1,0,.07.12s-.1.1-.17,0c0,.16.11.19.14.29s-.05-.07,0-.07,0,.22.08.22-.11,0-.15,0l.06.09c-.1.13-.25-.23-.38-.09l0,.08c-.09.1-.16-.21-.16,0s.22.15.26.06c.06.19.25.05.28.26s0-.16-.12-.11.08.19.06.28c0-.1.14,0,.16,0s-.11,0-.09.1.13.14.15,0c.14,0,0,.14.11.17-.08.07-.24-.06-.25.08.08,0,.16.12.27,0a.11.11,0,0,1-.14.07c-.17,0,.51.37-.28-.06l.05-.09.08.11c.08,0,.26-.09.23,0s.2,0,.14-.09-.13.05-.17-.08c.06.11.15,0,.21,0v.05s.12,0,.14,0v.08l0-.08c.15,0,0,.16.17.14l-.12.05s.07.07.15,0l.11-.22c.09,0,0,.08.13,0l-.11.09s.07.12.2.12.19-.13.07-.17c.06,0,.14,0,.1.1.13,0,0-.08.1-.13s.2.12.29.19l-.12.13h.08c-.1.1.06.08,0,.18l.18-.05c-.17-.16.17-.24.12-.39.22-.06.16.37.39.11,0,0,.07-.16-.08-.11.15,0,.09-.16.26-.11-.12.07.14.15,0,.25,0-.05-.1,0-.13,0s0,.15.14.15.21,0,.19-.11-.14,0-.09-.07.21.09.28-.07a.12.12,0,0,1-.15-.13l.13,0,0,.06c.21,0,.05-.11.26-.1l.1.11c0,.1-.31,0-.26.13.13,0,.18-.08.3,0l-.09,0s.11.22.29.08,0-.06,0-.12c.22,0,.28-.09.42-.11,0,.12.25,0,.09.13a.44.44,0,0,0-.46.07c.08.14-.17,0-.21.13.17,0,.17.14.2.22l.12-.05-.05-.17a.69.69,0,0,0,.48-.13.07.07,0,0,1,0,.14h.67c-.14-.13.23,0,.14-.15s-.21-.13-.15-.19,0,.06,0,.09.14.12.23,0c-.2.05,0,.17-.07.28.14-.07,0,.08.14.07l.49-.15c.21.09.52,0,.71,0s0,.18.14.19-.1-.13.09-.08l0,0c.05,0,.34.08.39-.1l-.05.13.09,0s0,.08,0,.11c.11.09.24,0,.36,0l-.08-.08c.21-.06.35,0,.56,0v.08l.12,0c0,.07.08.13.15.07l-.32.17c-.09,0,.1-.09,0-.17s-.23,0-.26,0l.13,0c0,.11-.09.1-.14.18h.1l-.27.07c.08,0,0-.07,0-.1s-.13.12-.28.1-.28.08-.45,0l.26-.22-.24,0c0,.07-.08.18-.22.24v-.07c-.13,0-.12.15-.29.14s-.58,0-.8,0v-.07c-.12.15-.41.07-.57.14s-.61.08-.75,0a11,11,0,0,1-1.41.15l.08-.11c-.08.08-.06-.05-.15,0,.11.08-.12.11-.18.18a1.33,1.33,0,0,0-.72.11v-.07c-.21.14-.46,0-.71,0l-.15-.1a1,1,0,0,1-.45.12c-.25-.11-.21.11-.76-.34a6.17,6.17,0,0,1-.52-1.73l.08-.05a9.84,9.84,0,0,1-.29-1.7l.14,0c0-.15-.07-.33-.16-.29,0-.15-.11-.36,0-.47s-.08-.18-.11-.3a2.15,2.15,0,0,0,0-.7v.07s.09,0,.1,0,0-.39-.15-.28c.07-.31-.13-.71,0-1,0,0-.06,0-.09-.08a2.73,2.73,0,0,0,0-.76s.08.06.08,0-.06,0-.09-.08a12.19,12.19,0,0,1,0-1.27,19.4,19.4,0,0,1-.28-2.06h0c-.15-.21.08-.54-.14-.69,0-.05,0-.2.06-.17-.11-.17,0-.51-.11-.74l0,.06c.75-1.33.62-.54,1-.86l-.07.08c.13,0,.22-.21.32-.07.06,0,0-.09,0-.08l1.93-.43c.47.06.06.27.41.12,0,0,0-.07,0,0s.24.17.32.07.06-.06.06-.12c.28,0,.35.13.56,0v.05c.25-.17.54-.11.75-.29,1.35-.13,2.87-.34,4.07-.48.47.3,1.5-1.23,2.54,1l0,2a.86.86,0,0,0-.06.7h0c.12,0,0,.25.13.28l.07,1.5c0-.08-.11-.12-.1,0l.08.1,0,0c0,.07.08.14.11.07.15,1.31,0,2.62,0,3.92a5.42,5.42,0,0,0,0,1.09A20,20,0,0,0,23.37,33a.74.74,0,0,1-.3-.59"/><path id="_Pfad_15" data-name="&lt;Pfad&gt;" class="cls-3" d="M17.47,20.93c.08,0,.06,0,.07.05s0-.06-.07-.05"/><polygon id="_Pfad_16" data-name="&lt;Pfad&gt;" class="cls-3" points="20.61 20.42 20.59 20.43 20.59 20.32 20.61 20.42"/><path id="_Pfad_17" data-name="&lt;Pfad&gt;" class="cls-3" d="M40,26.71s-.05-.08,0-.05,0,.07,0,.05"/><path id="_Pfad_18" data-name="&lt;Pfad&gt;" class="cls-3" d="M39.95,26.75l-.09-.15Z"/><polygon id="_Pfad_19" data-name="&lt;Pfad&gt;" class="cls-3" points="39.02 26.73 38.98 26.71 38.98 26.68 39.02 26.73"/><path id="_Pfad_20" data-name="&lt;Pfad&gt;" class="cls-3" d="M38.87,26.86l0-.12Z"/><path id="_Pfad_21" data-name="&lt;Pfad&gt;" class="cls-3" d="M38.58,26.86l0-.05Z"/><path id="_Pfad_22" data-name="&lt;Pfad&gt;" class="cls-3" d="M38.67,26.95H38.6s0,0,.07,0"/><path id="_Pfad_23" data-name="&lt;Pfad&gt;" class="cls-3" d="M38.29,27.18s0,.05,0,0,0-.08,0,0"/><polygon id="_Pfad_24" data-name="&lt;Pfad&gt;" class="cls-3" points="38.27 27.37 38.26 27.39 38.21 27.34 38.27 27.37"/></g></g></svg>