<?xml version="1.0" standalone="no"?>
<!DOCTYPE svg PUBLIC "-//W3C//DTD SVG 20010904//EN"
 "http://www.w3.org/TR/2001/REC-SVG-20010904/DTD/svg10.dtd">
<svg version="1.0" xmlns="http://www.w3.org/2000/svg"
 width="900.000000pt" height="366.000000pt" viewBox="0 0 900.000000 366.000000"
 preserveAspectRatio="xMidYMid meet">
<metadata>
Created by potrace 1.10, written by Peter Selinger 2001-2011
</metadata>
<g transform="translate(0.000000,366.000000) scale(0.100000,-0.100000)"
fill="#000000" stroke="none">
<path d="M1810 3644 c0 -13 -14 -15 -77 -15 -148 1 -491 -17 -510 -27 -10 -6
-74 -11 -142 -11 -68 -1 -132 -6 -142 -12 -11 -5 -65 -12 -122 -16 -56 -3
-127 -12 -157 -19 -30 -8 -77 -14 -105 -14 -27 0 -77 -7 -110 -15 -33 -8 -84
-14 -113 -15 -29 0 -62 -5 -72 -10 -11 -6 -47 -13 -82 -16 -35 -3 -89 -13
-120 -22 l-58 -17 0 -1717 0 -1718 4500 0 4500 0 0 961 c0 556 -4 958 -9 955
-5 -3 -14 1 -21 9 -7 8 -17 15 -22 15 -6 0 -27 14 -48 30 -21 17 -41 30 -45
30 -3 0 -32 19 -63 43 -62 46 -86 62 -117 77 -11 6 -33 19 -50 30 -16 11 -39
24 -50 30 -11 6 -33 19 -50 30 -16 11 -39 24 -50 30 -11 6 -33 19 -50 30 -16
10 -52 30 -80 45 -48 24 -64 33 -102 55 -10 6 -28 14 -40 19 -11 6 -24 15 -28
20 -3 6 -14 11 -24 11 -10 0 -24 7 -31 15 -7 8 -20 15 -30 15 -10 0 -23 7 -30
15 -7 8 -20 15 -30 15 -10 0 -23 7 -30 15 -7 8 -20 15 -30 15 -10 0 -23 7 -30
15 -7 8 -20 15 -30 15 -10 0 -23 7 -30 15 -7 8 -23 15 -35 15 -12 0 -28 7 -35
15 -7 8 -20 15 -30 15 -10 0 -23 7 -30 15 -7 8 -20 15 -29 15 -10 0 -26 7 -37
15 -10 8 -29 15 -40 15 -12 0 -27 7 -34 15 -7 8 -18 15 -25 15 -8 0 -28 8 -47
17 -18 9 -45 22 -60 30 -14 7 -35 13 -46 13 -11 0 -25 7 -32 15 -7 8 -22 15
-34 15 -12 0 -31 7 -42 15 -10 8 -27 15 -36 15 -9 0 -30 7 -47 15 -17 8 -45
22 -62 30 -17 8 -41 15 -53 15 -12 0 -31 7 -42 15 -10 8 -28 15 -40 15 -11 0
-29 7 -40 15 -10 8 -28 15 -40 15 -11 0 -29 7 -40 15 -10 8 -31 15 -45 15 -14
0 -34 7 -45 15 -10 8 -31 15 -45 15 -14 0 -34 7 -45 15 -10 8 -33 15 -50 15
-16 0 -39 7 -50 15 -10 8 -30 15 -44 15 -14 0 -38 7 -54 15 -15 8 -40 15 -55
15 -15 0 -35 6 -46 14 -11 7 -36 16 -55 18 -19 3 -48 10 -65 16 -66 23 -112
36 -150 43 -22 4 -53 11 -70 17 -36 13 -106 30 -160 41 -61 13 -135 31 -185
47 -25 8 -59 14 -76 14 -17 0 -48 7 -67 15 -20 8 -55 15 -77 15 -23 0 -53 6
-68 14 -15 7 -56 16 -91 19 -35 3 -68 10 -74 16 -6 6 -33 11 -59 11 -27 0 -65
7 -85 15 -19 8 -56 15 -82 15 -25 0 -64 7 -86 15 -22 8 -66 14 -97 15 -31 0
-69 5 -85 11 -15 6 -69 15 -120 20 -51 4 -101 13 -112 18 -11 6 -50 11 -88 11
-37 0 -84 5 -103 11 -19 5 -96 14 -169 20 -74 5 -140 14 -145 18 -6 5 -67 11
-136 14 -69 3 -137 10 -153 16 -15 6 -91 11 -169 12 -77 0 -153 5 -167 11 -25
9 -416 27 -588 27 -89 0 -127 7 -118 22 4 5 -178 9 -464 9 -421 0 -471 -2
-471 -16z"/>
</g>
</svg>
