<svg xmlns="http://www.w3.org/2000/svg" viewBox="0 0 436.73 407.08"><defs><style>.cls-1{fill:#fff;}.cls-1,.cls-2{stroke:#642200;stroke-miterlimit:10;stroke-width:9px;}.cls-2{fill:#3fafff;}</style></defs><title>Element 1</title><g id="Ebene_2" data-name="Ebene 2"><g id="Ebene_2-2" data-name="Ebene 2"><path class="cls-1" d="M15.2,121.82s1.71-3.42,17.94-9.4S93.79,109,100.62,109,163.84,92.78,169,92.78s53-19.65,62.36-35,41-39.29,41-39.29,47.84-16.23,70-7.69S397,36.4,404.73,50.92,432.06,150,432.06,163.68,426.94,258.5,415,278.15s-36.73,56.38-56.38,56.38-63.21-3.42-68.34-4.27-41-26.48-44.42-33.32-40.15-40.15-64.07-40.15-52.11-2.56-52.11-2.56l6.83,67.48s6.83,62.36,0,68.34-34.17,8.54-34.17,8.54L81,388.34,75,275.59l.85-33.32-35-2.56-29-29-1.71-57.23Z"/></g><g id="ICON"><path class="cls-2" d="M425.33,115.21c-2.12-10.9-5.41-21.69-7.9-32.52S413,60.62,410.32,49.75c-1.67-6.74-8.16-12.41-12.47-17.5-5.37-6.36-10.76-11.57-18.59-14.57C362.4,11.2,343,6,324.88,5.63A4.31,4.31,0,0,0,322,4.5c-28.64.16-54.78,5.27-75.7,26.11-22,22-28.45,50.33-32.47,80.29-4.46,33.23-4.22,65.82-.26,99.06,1.67,14,3.69,27.66,6.07,41.51,2.65,15.46,11.42,28.9,17.7,42.94,2.39,5.33,6.82,8.65,9.59,13.8,2.26,4.18,6,7.18,9.89,9.72,5.63,3.7,10.12,8.36,16.52,10.85a158.59,158.59,0,0,0,23.46,7c23.87,5.26,53,4.38,75.82-4.84,24.83-10,34.13-35.83,43.27-59,5.9-14.94,10-30.63,13.21-46.35s2.57-32.49,3.07-48.43C432.79,157,429.19,135,425.33,115.21Zm-3.13,93.91c-.35,17.56-6.24,36.45-12,52.92a246.3,246.3,0,0,1-20.42,44.47c-7.5,12.72-22.84,18.18-36.47,21-29,6-65,3-89.05-14.9-11.12-8.27-17.81-20.09-23.38-32.54-3.59-8-8.3-15-11-23.58-2.63-8.38-3.62-17.44-5.1-26.07-5.54-32.25-7.57-66.13-4.65-98.73,1.54-17.22,3.83-34.58,8.24-51.32,4.89-18.54,13.07-32.52,26.63-46,17.21-17.15,40.93-20.61,64.12-21a4.7,4.7,0,0,0,2.77.92,4.75,4.75,0,0,0,1.15.15c15.17,0,28.41,5,43,8.34,17.68,4.06,35,19.84,37.34,38.34,1.85,14.74,6.64,29.7,10.21,44.14,4.54,18.33,6.73,36.82,9,55.56C424.54,176.76,422.52,193.11,422.2,209.12Z"/><path class="cls-2" d="M245.76,295.43c-3-7.26-8.81-11.59-15.08-16a236.29,236.29,0,0,0-27.75-17.45c-23.11-12-50.66-14.78-76-19.2-13.06-2.28-25.79-4.31-39.06-4.7S59.33,237,46.34,233.93c-12.74-3-22.17-13.69-26.79-25.5-4.78-12.23-3.14-25.94-5.42-38.73-2.46-13.8-1.57-31.09,4.11-43.93A24.52,24.52,0,0,1,29.66,114a46.36,46.36,0,0,1,16-4.61c9.2-1.1,18.62-.35,27.85-.18,13.52.25,27-1.07,40.55-1.09,24.52,0,49.1-7.25,71.5-17.06a139.94,139.94,0,0,0,31.52-19c9.46-7.54,20.68-15.24,27.14-25.68,3-4.85-4.63-9.27-7.61-4.45-7,11.34-21,20.48-31.49,28.18-12.31,9-26.5,14.69-40.91,19.4-14,4.57-27.82,9-42.59,9.64-13.77.61-27.65.83-41.44,1.19-18.47.48-37.37-2.67-54.6,5.71C4.61,116.28,4,143.8,4.64,163.77c.19,6,1.87,11.84,2.51,17.76.62,5.68-.22,11.37.83,17,1.79,9.7,4.81,19.34,11.21,27.06,6.85,8.27,14.51,13.71,24.8,16.81,12.55,3.78,26.11,1.61,38.91,3.94,5.7,1,11.61.45,17.36,1.1,8.18.91,16.28,2.11,24.34,3.78,14.15,2.93,28.45,5.19,42.62,8.11a138.5,138.5,0,0,1,40.93,15.41c8.39,4.72,25.31,13.84,29.11,23C239.4,302.95,247.94,300.68,245.76,295.43Z"/><path class="cls-2" d="M84.32,126.92c2.09-8.42,6.23-13,13.83-17,2.59-1.36,3.22-2.43,4.31-5.08,2.16-5.26-6.37-7.53-8.5-2.34-.36.88-9.63,6.13-11.05,7.55-3.89,3.89-5.49,9.42-7.09,14.5-4.6,14.64-4.11,32-4.55,47.18-.42,14.23,2.3,26.48,5.95,40s9.16,22.87,17.88,33.91c3.52,4.46,9.72-1.83,6.23-6.23-8.56-10.83-12.93-20.06-16.5-33.33a127.1,127.1,0,0,1-4.63-38C80.6,154.5,81,140.15,84.32,126.92Z"/><path class="cls-2" d="M134.72,245.81c-.46-5.66-9.25-5-8.79.65,2.35,28.94,4.63,57.37,5.54,86.42.43,13.9,1,27.66,2.16,41.5,1.4,16.13-10.82,18.17-23.5,19.17-14.45,1.13-23.85-2.61-25.14-18.32-1.06-12.82-1.19-25.81-2-38.67-2-31-3.61-62.1-5.87-93.12-.41-5.67-9.21-5-8.79.65,2.77,38.11,4.57,76.29,7.34,114.41.7,9.57-2.05,24.59,4.14,32.87,7.16,9.58,16.71,11.58,28.19,11.16,8.71-.32,20-.47,26.88-6.73,9.7-8.87,7.52-22.7,6.22-34.39-2.1-18.86-1-38.81-1.39-57.82C139.21,284.2,136.28,265.09,134.72,245.81Z"/><path class="cls-2" d="M360.08,142.64c-8.23-10.23-19.93-12.06-32.15-13.37-19-2-37.73-4.77-56.43-8.66-16.5-3.43-34-7.52-50.93-8.09-5.69-.19-5.67,8.63,0,8.82,27.17.92,54.33,9.81,81.22,13.62,12.86,1.82,26.65,1.81,39.21,5s20.64,17.58,21,29.7c.41,15-12.28,20-24.79,22.23-11.36,2-22.86,3.72-34.29,5.36-13.66,2-27.15,4.82-40.9,6.2-13.56,1.35-27.85,3.32-41.43,3.84-5.67.22-5.69,9,0,8.82a160.41,160.41,0,0,0,19.77-2.42c9.64-1.57,19.57-1.09,29.28-2.27,15.76-1.91,31.45-5,47.14-7.37,20.55-3.16,52.4-4.24,53.88-31.62C371.26,160.88,367.27,151.58,360.08,142.64Z"/><path class="cls-2" d="M350.57,187.63c-17.1,2.33-32.69-.79-33.25-20.62-.51-18.28,14.08-25.21,30-24.73,5.69.17,5.67-8.65,0-8.82-22.83-.69-39.43,12-38.76,36.06.7,25.11,23.64,29.44,44.34,26.61C358.52,195.37,356.12,186.88,350.57,187.63Z"/></g></g></svg>