<svg xmlns="http://www.w3.org/2000/svg" viewBox="0 0 34.05 33.73"><defs><style>.cls-1{fill:#fff;}.cls-2{fill:#b6bd00;}.cls-3{fill:#5f2a2b;}.cls-4{fill:none;}</style></defs><title>Element 1</title><g id="Ebene_2" data-name="Ebene 2"><g id="Isolationsmodus"><path class="cls-1" d="M31.06,4.11A1,1,0,0,0,30.53,3a2.2,2.2,0,0,0-1.3-.35,1.27,1.27,0,0,0-.9-.24c-1.21.05-2.12,1.3-2.41,2.52-.86,1.55,0,2.59-.83,4.17l-.4.46a30.34,30.34,0,0,0-3,1.66c-1.55.5-2.21.75-3.34,1.1a10.27,10.27,0,0,1-1.88.53,40.35,40.35,0,0,1-6.86.8,12.57,12.57,0,0,1-3-.15c-.33-.63-1.27-3.41-2.24-2.88s1.14,3.57,1.16,3.87C4.16,13.34,4.14,13,2.7,11.9c-1.12-.9-1.84-.06-1.1.86S2.44,14.27,3.44,15c-.4-.06-1.41-.31-1.8-.35-1-.09-1.17,1-.19,1.5A9.43,9.43,0,0,0,4.92,17a1,1,0,0,0,.28.58c.31.31.61.64.91,1a.46.46,0,0,0,0,.25c3.51,5,8.59,9.52,15.75,7.34,5.51-1.68,8.37-6.09,7.77-11.61a1.22,1.22,0,0,0-.2-.73c0-.12,0-.24,0-.36a.69.69,0,0,0,.13-.39c0-.05,0-.1,0-.15.26-.16-.43-1.24-.56-1.61-.76-2.24.37-3.79.25-4.2a1,1,0,0,0,1.21-.45,1.12,1.12,0,0,0,.08-.24c1.79-.07,3,.71,3.25.24S31.25,4.35,31.06,4.11Z"/><path class="cls-2" d="M28.92,4.51h0s0,0,0,0,0,0,0,0,0,0,0,0h0l0,0s0,0,0,0a.55.55,0,0,1,.07.08h0s0,0,0,0h0v0s0,0,0,0h0s0,0,0,0,0,0,0,0,.06-.06.11,0a.41.41,0,0,1,0-.12h0v0h0s0,0,0,0l0,0h0l-.17,0Z"/><path class="cls-2" d="M29.47,4.94l0,0c.16.06.08.25-.11.33h0c-.07,0-.14,0-.14,0h0c0,.08,0,.06,0,0s0,0-.08,0l0,0a.12.12,0,0,1-.1-.14h0c0,.06,0,0,.1,0h.07a.67.67,0,0,1,.25,0s-.1,0-.07,0h0l-.05,0h0s0,0,0,0H29.4c0-.05,0-.14,0-.2s0,0,0-.09h-.07c-.1,0-.07.13-.11.18h0s0,0,0,0h-.06c-.22,0,0,.13,0,.14S29,5,29,5s-.16,0-.24.05-.1.26,0,.46a.79.79,0,0,0,.57.33.93.93,0,0,0,.38,0h0l0,0h0c.1,0,0-.32.23-.25a.79.79,0,0,0,.14-.2l0,0a.66.66,0,0,0-.24-.71c-.07-.06-.15,0-.11-.1s-.37-.11-.51-.07,0,.07,0,.08.15.05.13.14h0l0,.07,0,0a.23.23,0,0,1,0,.05.31.31,0,0,1,0,.18S29.48,4.9,29.47,4.94Z"/><path class="cls-2" d="M29.42,5h0s0,0,0,0h0s0,0,0,0h0l0,0,.09-.05h0s0,0,0,0h0s0,0,0,0,0,0,0-.05l-.09.07h0s0,0,0,0l0,0h0l0,.05Z"/><path class="cls-2" d="M29.45,4.45v0c-.2,0-.53.07-.64.36L28.7,4.8a.47.47,0,0,0,.15.27l0,0c.07,0,.11.06.1.09h0s0,0-.1,0h-.06a.69.69,0,0,1-.24.09s.1,0,.08,0h0l.06,0,0,0s0,0,0,0l.06,0c0,.07.11.09.11.16s0,0,.07,0l0-.06c0-.09,0-.1,0-.16l0,0s0,0,0,0l.05,0c.17-.13-.07,0-.05-.06s.13,0,.12,0,.13-.08.2-.1.08,0,.07,0,0,0,0,0-.13-.18,0,0l0,0,0,0s0-.06,0-.1,0-.1,0,0,0-.07,0-.07l.05-.07s0,0,0-.13h0l0-.07,0,0,0,0a.91.91,0,0,0,0-.18S29.48,4.5,29.45,4.45Z"/><path class="cls-2" d="M28.9,5.75h0s0,0,.07,0,0,0,0,0,0,0,.06,0h0a0,0,0,0,1,0,0,.41.41,0,0,1,0-.1l0,0a0,0,0,0,1,0,0h0a0,0,0,0,1,0,0h-.06s0,0,0,0h0l0,0s0,0,0,0-.11,0-.12-.1-.06.06-.1.07,0,0,0,0h0s0,0,0,0,0,0,0,0l0,0h0a.79.79,0,0,0,.17.17Z"/><path class="cls-2" d="M29,5l0,0c0-.09.32,0,.31.09s-.14.21-.24.23V5.19c0,.07-.06.12-.18.08v0c-.08,0-.16-.08-.14-.15h0c0,.08,0,0,.1,0H29a.61.61,0,0,1,.2,0H29v0s0,0,0,0,0,0,.06,0V5c0-.1-.13-.06-.17-.06l0,0s0,0,0,0V4.85c0-.1-.11-.07-.12,0s0,.12,0,.13-.09-.11-.1-.08c0-.15-.2,0-.27.06s-.06.58.14.74a1.11,1.11,0,0,0,.67.14.75.75,0,0,0,.51-.26.43.43,0,0,0,.06-.32c0-.11,0-.19.06-.28a.71.71,0,0,0-.14-.35l0,0a.64.64,0,0,0-.47-.22,1,1,0,0,0-.45.09c-.13.07-.1.17-.21.14-.28.2-.16.58-.06.74,0,0,.07,0,.07,0a.12.12,0,0,1,.09-.21v0l.07,0,0,0h.05A.2.2,0,0,1,29,5S29,5,29,5Z"/><path class="cls-3" d="M17.39,18.05l0-.06s0,0,0,.06"/><path class="cls-2" d="M15,15.77c.08-.08-.11-.06,0-.08S15,15.79,15,15.77Z"/><path class="cls-2" d="M23.82,22.19c-.07.49-.65.4-.9.73,0,0-.05-.17-.13-.1-.25.37-.88.36-1.33.23l0-.05c-.09,0-.16.15-.26.14s0-.05,0-.09-.15.06-.18.14,0-.12-.09-.15l0,.12c-.12.3-.34,0-.53.15,0,0,0,0,0-.07a2.55,2.55,0,0,1-1.05.18.25.25,0,0,0,0-.16c0,.12-.13.15-.23.16s-.17.1-.27,0v0c-.09.12-.11-.09-.2.06l0-.1c-.06.17-.11-.1-.18,0v0c-.07,0-.09-.06-.15,0v0c-.14,0-.21-.09-.23.05,0-.12.14,0,.09-.2A3.53,3.53,0,0,1,16.78,23c0-.06-.06-.09-.06-.14s-.17,0-.23,0,0-.08,0-.09-.13.12-.2,0a.13.13,0,0,0,.07-.12c-.1.08-.2,0-.3,0s0,0,.06-.07-.17-.08-.27,0l.06-.07c-.1-.13-.09.14-.19,0s0,0,.05-.07c-.15.1-.31,0-.44,0a.06.06,0,0,0,0,0,1.67,1.67,0,0,0-.38-.11c0-.05.09-.17,0-.2-.06.15-.23,0-.24.16-.09-.07-.23-.2-.32-.19.07,0,0-.2.13-.16l0-.12c0-.05.05.06.07,0s-.19,0-.21-.07-.28.16-.42.1c.09,0,.06-.17.12-.17l-.33.14s.06-.11,0-.12-.06,0-.1.05-.19-.1-.11-.23.08,0,.08-.05-.11,0-.18-.07v0c0-.06-.17-.08-.19,0s.06-.08.07,0a.27.27,0,0,1-.26-.11s.07,0,.11,0a.66.66,0,0,1-.22-.06l-.21-.1.35-.44.16-.17c0-.07,0,.14,0,.12.19,0,.26-.27.45-.19,0,0-.05-.09,0-.07s.12.08.15,0,.05,0,.1-.08,0,0,0,0a.66.66,0,0,1,.49-.26.24.24,0,0,1,.09-.19l0,.1c.05,0,.13-.06.16,0,0-.14-.28.21-.2.09.06.06.1-.2.12-.07.08,0,.11-.16.22-.1s0,.15,0,.12,0-.06.1-.12l0-.06c0-.09.11,0,0-.11,0,.07.17-.1.2.06V20s0-.06.06-.11v.72l-.06.08a.11.11,0,0,1,0-.06c-.05.18-.1,0-.19.09-.08-.08-.24-.06-.27-.18-.09,0-.17.1-.25,0s0,0,.06-.05-.07,0-.12,0-.09-.13-.14-.21-.08.15-.1.21c0-.2-.25.07-.3-.11,0,0,.13-.06.08-.13s-.17.11-.27,0v.16c0-.11-.2,0-.15-.11-.05,0-.13-.09-.15.06-.16-.17-.52-.08-.53-.38,0,0-.1,0-.11,0s.09,0,.08,0,0,0-.06,0-.09-.09,0-.18c-.09-.14-.25.17-.39,0,0-.05,0-.08,0-.1l-.15,0c-.1-.09,0-.16.07-.25s-.12-.07-.2,0l0-.15c0,.11-.08,0-.12,0h0s-.06-.07-.09-.08,0,.13,0,.17-.09,0-.16,0a.06.06,0,0,0,0-.05l0-.79.13,0s.11,0,.14,0,0-.11,0-.12.09,0,.08.05-.07,0-.08,0,.09.11.13,0-.1-.18,0-.17c0,0,0,.08,0,.12h.12l0-.09s0,0,0,0,.14-.09.13-.2.13,0,.19,0h0c.08,0,.15,0,.19-.1v0a.19.19,0,0,0,.14-.1c.1.05.09.35.17.21s.11-.19.06-.25c.16,0,.33-.13.49,0,0,0,0-.06.05-.09s.35-.05.5,0L14,19.3a.29.29,0,0,1-.12-.13c.07,0,0-.09.05-.14s0-.1-.1,0,0,.12,0,.17c-.14,0-.33-.07-.37-.17,0,.05,0,.07-.05.08s0-.18-.11-.16l0,.07V19s-.09.15-.13.05a.25.25,0,0,0,0-.09c-.09,0-.24.1-.28,0v-.14s-.12,0-.08.1c-.1-.12-.17-.17-.17-.28a1,1,0,0,1-.88-.14l0-.05c0-.09-.08.08-.11,0s0-.14.09-.18-.17,0-.25,0,.07,0,0,.07-.1-.13-.18,0c0-.06.06-.13.1-.16l-.09,0c0-.16.28-.14.29-.34h-.06c0-.14.21-.06.1-.16s-.22.15-.2.23c-.13,0-.2.23-.32.15s.11,0,.14-.06-.15,0-.19-.08-.08.15-.13.15.1-.08,0-.14-.17,0-.12.13c-.12.12-.08-.1-.2,0,0-.12.24-.16.17-.27,0,.1-.21,0-.24.21,0-.05,0-.13.09-.16s-.26.06-.15-.13l-.09.08s0-.08,0-.16-.14,0-.17-.06l.07.05s0,0,0-.08-.14-.08-.16,0,.11,0,.09.11l-.08-.06v0l.08.06c0-.11-.12,0-.18,0l0-.06s-.1-.05-.16,0a.07.07,0,0,0,0-.09l-.09.06c-.18-.08.1-.13-.09-.27a.49.49,0,0,0,.17,0s0-.11-.11-.17-.3,0-.45-.34a.79.79,0,0,1,.09-.54.66.66,0,0,1,.18-.2,3.19,3.19,0,0,0,.32-.22,1.13,1.13,0,0,0-.26.22.86.86,0,0,0-.22.62s0,0,0-.05a.88.88,0,0,1,.22-.41.8.8,0,0,1,.31-.16l.16,0c.08,0,.2-.19.06-.22.08,0,.15,0,.11.11.12,0,0-.1.08-.16s.16.14.22.23l-.08.16h.06c-.07.12,0,.09,0,.22s.08,0,.12-.06c-.11-.2.12-.28.08-.47.14-.05.1.46.24.16,0,0,0-.19,0-.14.09,0,.06-.19.16-.12-.07.08.09.19,0,.3,0-.06-.06,0-.08,0s0,.19.09.19.13,0,.12-.12-.08,0-.05-.1.13.12.17-.07c-.07,0-.09-.09-.09-.17l.08,0v.07c.13,0,0-.13.15-.12l.07.14c0,.12-.18,0-.15.15.08,0,.1-.1.18-.05l-.05,0s.08.27.18.1,0-.07,0-.15.15-.12.23-.14c0,.15.14,0,.07.15-.05-.08-.23,0-.26.09s-.1,0-.12.16c.1,0,.12.16.14.27s.06,0,.07-.06,0-.1,0-.21a.26.26,0,0,0,.27-.17s0,.15,0,.17a1.09,1.09,0,0,1,.42-.05c-.12-.15.14-.07,0-.2a.21.21,0,0,1-.13-.21s0,.07,0,.11.11.13.13,0c-.11.08,0,.21,0,.34.07-.09,0,.09.11.08a1,1,0,0,1,.26-.23c.16.09.31-.09.41-.13s.09.2.16.2-.11-.13,0-.11v0s.24,0,.18-.2l0,.16s0,0,0-.06.07.08,0,.13.13-.08.2-.12l-.09-.06c.08-.13.21-.08.3-.17l0,.09,0-.09c0,.09.12.11.12,0l-.06.3c-.08,0,0-.13-.08-.19s-.16,0-.13.11,0,0,.05-.08c.08.11,0,.14,0,.23s.07,0,.06,0-.05.11-.13.15-.06-.06-.06-.1c0,.11,0,.18-.12.19s-.14.16-.27.17a.63.63,0,0,1,.07-.31c-.09,0-.07,0-.16,0s0,.23,0,.31l0-.08c-.07.07,0,.19-.14.2s-.39.07-.53.1l0-.08c0,.2-.25.13-.34.23-.2,0-.39.15-.5,0a2.39,2.39,0,0,1-.94.17l.05-.13c-.06.09,0-.07-.1-.05s-.08.13-.12.21c-.15-.1-.34,0-.45.11V17c-.05.08-.12.09-.15.08s0,0,0,0a.93.93,0,0,0,0-.17c0-.07,0-.09,0-.12s-.05-.06,0-.06,0,0,.07,0,.17-.13.21-.16-.08.09,0,.11.17,0,.31,0l.06,0,.05,0a.84.84,0,0,1,.13.2c.37,0,.6.3,1,.36l0,.1c.4,0,.7.32,1,.34l-.1.15a.14.14,0,0,0,.24-.08c.07.09.25,0,.25.17s.14,0,.22,0a.62.62,0,0,0,.4.17l0,0s-.06.1,0,.12.21.12.22-.09a.23.23,0,0,0,.1.07l4.2,1.75-4.42-.45c-.16,0-.33.1-.47,0,0,.06,0,.07,0,.11s-.32-.08-.42,0,0-.1,0-.1,0,.07,0,.11c-.2.15-.47,0-.65.12l-.13.11.13-1.11a3.49,3.49,0,0,0,.77.4l0,0c.16-.11.23.25.4,0,0,0,.11,0,.07.12.13-.08.27.17.46.07,0,0,0,0,0,0,.14.12.31,0,.47.14,0,0-.06,0-.07.06s.2-.14.2.06c0,0,0-.09,0-.09a2.42,2.42,0,0,0,.63.14l1.86.21-1.88,1-.46.25c-.3,0-.14-.31-.29-.09,0,0,0,.08,0,0s-.21-.16-.23,0,0,.08,0,.15c-.19,0-.27-.1-.36,0l0-.06c-.08.23-.29.22-.33.46l-.23.12.28-1.1a5.25,5.25,0,0,0,1.74.9,21.28,21.28,0,0,0,2.34.72c.16.2.18.2.41.17,0,0,0,0,0,.06,0-.13.15,0,.19-.12a6.14,6.14,0,0,0,.91.08c-.05,0-.08.13,0,.12l.07-.09v0s.09-.09.05-.13a15.53,15.53,0,0,0,2.31,0,1,1,0,0,0,.59-.17,1.6,1.6,0,0,0,1.45-.55S24,22,23.82,22.19Z"/><path class="cls-2" d="M14.85,15.86c-.06,0-.14,0-.14-.15C14.75,15.76,14.82,15.8,14.85,15.86Z"/><path class="cls-2" d="M12.78,15.93s0,0,0,0,0-.07.05,0S12.78,15.89,12.78,15.93Z"/><path class="cls-2" d="M12.31,16c0-.06.09-.13.14-.15Z"/><path class="cls-2" d="M11.84,15.77s0-.08,0-.08S11.85,15.74,11.84,15.77Z"/><path class="cls-2" d="M11.83,15.91s-.06,0-.08-.06S11.83,15.81,11.83,15.91Z"/><path class="cls-2" d="M10.84,15.78s-.08.06-.1,0S10.86,15.69,10.84,15.78Z"/><path class="cls-2" d="M10.25,15.91a.23.23,0,0,0-.13,0c-.1,0,0-.07.06-.1Z"/><polygon class="cls-2" points="13.67 20.42 13.61 20.43 13.63 20.38 13.67 20.42"/><path class="cls-2" d="M12.85,21.41c.07,0,0,.07,0,.08S12.91,21.46,12.85,21.41Z"/><polygon class="cls-2" points="14.84 22.4 14.82 22.4 14.88 22.29 14.84 22.4"/><path class="cls-3" d="M29.36,4.51h0s0,0,0,0,0,0,0,0,0,0,0,0h0l0,0,0,0a.28.28,0,0,1,0,.06h0a0,0,0,0,1,0,0h0s0,0,0,0h0s0,0,0,0,0,0,0,0,.06,0,.1,0a.24.24,0,0,1,0-.08h0s0,0,0,0l0,0h0l-.15,0Z"/><path class="cls-3" d="M29.9,4.83l0,0c.17.09.1.32-.11.41h0l-.18,0V5.19c0,.08,0,.06,0,.05a.15.15,0,0,1-.09-.06v0a.13.13,0,0,1-.07-.14h0c0,.06,0,0,.07,0h0a.32.32,0,0,1,.18,0s-.07,0-.05,0h0l0,0h0s0,0,0,0h0c0-.06,0-.14,0-.21s0,0,0-.09h0c-.07,0-.05.13-.09.19h0s0,0,0,0h0c-.16,0,0,.12,0,.14s-.09,0-.09,0-.11,0-.17.06-.08.24,0,.41a.58.58,0,0,0,.45.26.81.81,0,0,0,.33,0h0c.09,0,.06-.25.21-.22a.7.7,0,0,0,.12-.17h0a.56.56,0,0,0-.19-.59c-.06-.06-.12,0-.1-.09s-.31-.1-.44-.08,0,0,0,.06.13,0,.12.1h0l0,.05h0a.12.12,0,0,1,0,0,.24.24,0,0,1,0,.14S29.9,4.79,29.9,4.83Z"/><path class="cls-3" d="M29.89,4.86h0s0,0,0,0h0s0,0,0,0,0,0,0,0h0l0,0,.07,0h0s0,0,0,0h0s0,0,0,0,0,0,0,0l-.07,0h0s0,0,0,0l0,0h0a.2.2,0,0,1,0,0Z"/><path class="cls-3" d="M29.83,4.44v0c-.19,0-.48.07-.57.34l-.08,0a.41.41,0,0,0,.1.24V5s.08.06.07.09h0s0,0-.07,0h0a.38.38,0,0,1-.17.06s.07,0,.06,0h0l0,0,0,0s0,0,0,0h0c0,.06.09.09.1.14s0,0,.06,0l0,0c0-.07,0-.09,0-.14h0s0,0,0,0l0,0c.12-.09-.06,0,0-.06s.09,0,.08,0S29.56,5,29.6,5s0,0,0,0,0-.06,0-.07-.07-.15,0,0h0v0s0-.06,0-.08,0-.07,0,0,0,0,.07,0l0,0s0,0,0-.1h0V4.61h0v0a.76.76,0,0,0,0-.13S29.85,4.47,29.83,4.44Z"/><path class="cls-3" d="M29.32,5.6h0s0,0,.06,0,0,0,0,0,0,0,.05,0h0s0,0,0,0,0,0,0-.07h0s0,0,0,0h0s0,0,0,0-.1,0-.12-.09,0,0-.07,0a0,0,0,0,1,0,0h0s0,0,0,0,0,0,0,0l0,0h0a.66.66,0,0,0,.15.14Z"/><path class="cls-3" d="M29.39,4.89v0c.07-.09.37,0,.39.12s-.14.29-.29.31V5.21c0,.06-.12.06-.22,0v0c-.06,0-.13-.1-.12-.17h0c0,.08,0,0,.07,0h0a.3.3,0,0,1,.18,0s-.07,0-.05,0h0l0,0h0l0,0s0-.05.07,0,0,0,.08,0v0c0-.07-.15,0-.2,0v0s0,0,0,0v0c-.11-.13-.14.12-.14.12s-.06-.09-.07-.06c0-.13-.15,0-.2.07s0,.5.13.63a.84.84,0,0,0,.56.12A.67.67,0,0,0,30,5.43c.13-.14,0-.39.1-.5A.58.58,0,0,0,30,4.65h0a.67.67,0,0,0-.78-.12c-.11.06-.09.13-.18.12a.49.49,0,0,0-.06.63s.05,0,.05,0,0-.19.05-.19v0l0,0,0,0h0a.19.19,0,0,1,.14-.06S29.35,4.88,29.39,4.89Z"/><polygon class="cls-3" points="28.55 32.37 28.53 32.32 28.6 32.34 28.55 32.37"/><path class="cls-3" d="M28.12,32s.16,0,.21,0Z"/><polygon class="cls-3" points="18.34 27.5 18.41 27.48 18.4 27.53 18.34 27.5"/><path class="cls-3" d="M12.63,25.79c-.06,0,0-.07,0-.08s0,0,0,.08"/><polygon class="cls-3" points="10.78 24.51 10.79 24.53 10.7 24.59 10.78 24.51"/><polygon class="cls-1" points="28.73 4.99 28.73 4.99 28.73 4.98 28.71 4.96 28.7 4.97 28.68 4.95 28.68 4.96 28.66 4.94 28.63 4.95 28.57 4.97 28.56 4.99 28.54 4.98 28.54 4.99 28.54 4.98 28.54 4.97 28.53 4.98 28.54 4.99 28.53 5 28.54 5 28.54 4.99 28.55 4.99 28.55 5 28.57 5 28.58 4.99 28.58 4.99 28.61 5 28.61 5.03 28.64 5.12 28.72 5.1 28.71 5.11 28.72 5.11 28.72 5.09 28.74 5.08 28.75 5.09 28.76 5.08 28.73 4.99 28.73 4.99"/><path class="cls-3" d="M18.73,18.84s0-.09,0,0,0,.08,0,0"/><path class="cls-3" d="M18.67,18.85l0-.17Z"/><path class="cls-3" d="M17.81,18.22v0s0-.05,0,0Z"/><path class="cls-3" d="M17.59,18.18l.08-.1Z"/><path class="cls-3" d="M17.41,17.93l0-.07Z"/><path class="cls-3" d="M15.29,17s0,0,0,0,.06-.06,0,0"/><polygon class="cls-3" points="15.09 17.01 15.08 17.01 15.1 16.94 15.09 17.01"/><polygon class="cls-3" points="17.42 16.98 17.4 17 17.4 16.95 17.42 16.98"/><path class="cls-3" d="M22,17.39c.09,0,0-.11.06,0s0,.07-.06,0"/><path class="cls-3" d="M21.93,17.37c0-.07,0-.12,0-.18Z"/><polygon class="cls-3" points="21.32 16.07 21.33 16.03 21.38 16.04 21.32 16.07"/><path class="cls-3" d="M21.09,15.84h0Z"/><path class="cls-3" d="M21,15.48l.05,0Z"/><path class="cls-3" d="M20.9,15.57v-.08s.06,0,0,.08"/><path class="cls-3" d="M20.5,15.05s-.06,0,0,0,.1,0,0,0"/><polygon class="cls-3" points="20.22 14.94 20.2 14.92 20.25 14.88 20.22 14.94"/><polygon class="cls-3" points="17.05 11.7 17.07 11.73 17.02 11.7 17.05 11.7"/><path class="cls-3" d="M18.42,11.93s0,.05,0,.06Z"/><polygon class="cls-3" points="19.54 12.51 19.53 12.51 19.61 12.43 19.54 12.51"/><path class="cls-3" d="M16.09,15.24c.08-.08-.09,0,0-.07S16.13,15.24,16.09,15.24Z"/><path class="cls-3" d="M25,21.73c-.12.42-.66.41-.93.68,0,0,0-.13-.12-.06a1.56,1.56,0,0,1-1.33.26l0,0c-.09,0-.17.11-.26.11s0,0,0-.07-.15.05-.19.11,0-.08-.09-.11l0,.09c-.13.22-.34,0-.53.11,0,0,0,0,0-.05a3.11,3.11,0,0,1-1.05.13.14.14,0,0,0,0-.12c0,.09-.13.11-.23.12s-.17.07-.27,0v0c-.09.09-.11-.07-.19,0l0-.08c-.05.12-.11-.08-.18,0v0c-.07,0-.09,0-.15,0v0c-.14,0-.21-.07-.22,0,0-.09.14,0,.08-.14A4.4,4.4,0,0,1,18,22.49c0-.05-.07-.07-.07-.11s-.17,0-.22,0,0-.06,0-.07-.12.08-.19,0a.08.08,0,0,0,.06-.08c-.1.05-.19,0-.29,0s0,0,0,0-.17-.07-.27,0l0,0c-.11-.11-.08.1-.18,0s0,0,0-.05c-.14.06-.3,0-.42,0v0a2.61,2.61,0,0,0-.37-.12s.07-.12-.06-.16-.22,0-.21.1a.91.91,0,0,0-.32-.18c.06,0,0-.15.1-.12l0-.1s.05.05.06,0-.18,0-.21-.08-.25.09-.38,0c.08,0,0-.13.09-.12l-.29.07s0-.08,0-.1-.05,0-.08,0-.18-.1-.12-.2.08,0,.06,0-.1,0-.17-.08h0c0-.05-.15-.09-.16,0s0-.06.06,0-.17-.05-.23-.12.06,0,.09,0a.68.68,0,0,1-.19-.08l-.18-.1.28-.29.16-.14c0-.05,0,.11,0,.09.18,0,.27-.24.44-.19,0,0,0-.07,0-.05s.1,0,.14,0S15,20,15,20s0,0,0,0a.86.86,0,0,1,.49-.25s.06-.14.1-.16v.07s.12-.05.15,0c0-.11-.28.19-.2.08s.11-.16.12-.06.12-.14.22-.1,0,.12,0,.09,0,0,.1-.1l0,0c0-.07.11,0,0-.08s.17-.08.19,0v.09s0,0,.06-.09V20l-.06.05a.07.07,0,0,1,0,0c0,.13-.11,0-.19.06C16,20,15.85,20,15.82,20s-.16.06-.24,0,0,0,.06,0-.07,0-.12,0-.1-.1-.15-.16-.07.11-.09.15c0-.15-.24,0-.3-.1s.13,0,.07-.09-.16.07-.27,0v.12c0-.08-.19,0-.15-.09s-.13-.07-.14,0c-.16-.14-.5-.09-.54-.33,0,0-.09,0-.1,0s.08,0,.08,0,0,0-.05,0-.09-.08,0-.14c-.1-.12-.21.11-.36,0,0,0,0-.06,0-.08l-.13,0c-.09-.08,0-.13,0-.19s-.12-.07-.18,0v-.12c0,.09-.07,0-.1,0h0s-.06-.06-.09-.08,0,.1,0,.14S13,19,13,19a0,0,0,0,0,0,0l-.15-.58.21,0s.1,0,.13,0,0-.09,0-.1.09,0,.07,0-.06,0-.07,0,.07.07.12,0-.07-.13.05-.13,0,.06,0,.09h.11l0-.07s0,0,0,0,.14-.08.14-.16.12,0,.17,0h0A.17.17,0,0,0,14,18v0a.23.23,0,0,0,.14-.08c.09,0,.08.25.15.15a.13.13,0,0,0,.07-.19c.16,0,.32-.1.47,0s0,0,.05-.07.34,0,.49,0l-.15.86a.32.32,0,0,1-.13-.11c.07,0,0-.06,0-.1s0-.08-.09,0,0,.09,0,.13a.54.54,0,0,1-.36-.16s0,0,0,.06,0-.14-.12-.13l0,.05,0-.08s-.08.11-.12,0a.15.15,0,0,0,0-.07c-.09,0-.22.06-.27,0l0-.11s-.11,0-.06.07c-.1-.1-.18-.14-.19-.23a1.17,1.17,0,0,1-.85-.2l0,0c0-.07-.07.06-.1,0s0-.11.07-.13-.16,0-.23,0,.07,0,0,.05-.11-.11-.17,0,0-.09.07-.12h-.08c0-.13.25-.08.24-.24h-.06c0-.11.19,0,.07-.12s-.19.1-.16.16c-.13,0-.16.16-.28.08s.11,0,.12,0-.14,0-.18-.09-.05.11-.1.11.09,0,0-.11-.15,0-.09.09c-.1.08-.08-.09-.18,0s.2-.1.12-.2c0,.08-.18,0-.2.15,0,0,0-.1.06-.12s-.22,0-.15-.12l-.07.05s0-.07,0-.13-.13,0-.16-.07l.05,0s0,0,0-.06-.13-.08-.14,0,.1,0,.1.09l-.06,0v0l.06,0c0-.08-.11,0-.17,0l0,0s-.09-.05-.14,0a0,0,0,0,0,0-.07l-.07,0c-.15-.08.07-.1-.09-.22l.14,0s0-.09-.1-.14-.22,0-.34-.25a.57.57,0,0,1,.05-.4.51.51,0,0,1,.13-.16l.26-.19a.82.82,0,0,0-.21.18.63.63,0,0,0-.16.47c0,.06,0-.07.18-.34a.58.58,0,0,1,.25-.14l.14,0c.07,0,.19-.15.06-.17.07,0,.13,0,.1.08s0-.07.08-.12.15.1.21.17l-.08.11h.06c-.07.09,0,.07,0,.16s.08,0,.12,0,.12-.21.08-.35c.15,0,.1.34.25.12,0,0,0-.14,0-.1.09,0,.06-.14.16-.09-.08.06.09.14,0,.22s-.06,0-.08,0,0,.14.09.14.13,0,.12-.09-.09,0-.05-.07.13.09.17-.06c-.07,0-.09-.07-.09-.12l.08,0v.05c.13,0,0-.1.16-.09l.07.1c0,.09-.18,0-.15.12s.1-.08.18,0l-.05,0s.07.2.18.07,0-.05,0-.11.16-.09.24-.11.15,0,.07.11a.19.19,0,0,0-.27.08c.06.12-.1,0-.12.12s.11.12.14.2.06,0,.07,0,0-.07,0-.15a.31.31,0,0,0,.28-.13s0,.11,0,.12a1.59,1.59,0,0,1,.42-.06c-.11-.1.14-.06.06-.15s-.15-.09-.12-.15,0,.05,0,.08.11.09.14,0c-.11.07,0,.16,0,.26.08-.07,0,.07.1.05a1.24,1.24,0,0,1,.27-.19c.15.06.31-.09.42-.13s.07.14.14.14-.1-.09,0-.08v0s.23,0,.19-.17l0,.12s0,0,0-.05.05.06,0,.1.13-.07.2-.11l-.08,0c.09-.11.21-.08.3-.17l0,.06,0-.07c0,.07.1.07.11,0l-.09.25c-.07,0,0-.1-.05-.15s-.15,0-.14.1,0,0,.06-.07,0,.11,0,.18.07,0,.06,0-.06.09-.13.13-.05,0,0-.08,0,.14-.13.16-.15.14-.27.15a.49.49,0,0,1,.09-.24c-.08,0-.07,0-.16,0a.34.34,0,0,1-.07.25l0-.06c-.07.06,0,.15-.15.17l-.52.11,0-.06c0,.15-.25.11-.34.19s-.39.12-.5,0a2.94,2.94,0,0,1-.93.14l.05-.09c-.06.07,0-.05-.1,0s-.08.1-.12.16a.53.53,0,0,0-.45.08V16.4a.18.18,0,0,1-.16.06c0,.09-.07-.27-.12-.27s0,0,.08,0l.12-.08s0,0,0,0,0,.08,0,.1.15,0,.29,0l.06,0,0,0h0a1.19,1.19,0,0,1,.15.19c.35.07.6.32,1,.41v.08c.38,0,.71.33,1,.37l-.08.11c.07.07.21.05.22,0,.07.07.24,0,.25.15s.13,0,.21,0a.84.84,0,0,0,.41.17l0,0s0,.07,0,.09.22.11.21-.05l.1.06-.16,1c-.16,0-.35.07-.49,0,0,0,0,.05,0,.08s-.33-.05-.44,0,0-.08,0-.07,0,.05,0,.09c-.22.12-.49,0-.69.16l-.14.11.09-.82a3.24,3.24,0,0,0,.83.45v0c.15-.07.26.21.41.07,0,0,.11,0,.08.09.12-.05.28.15.47.08h0c.15.1.31,0,.48.13,0,0-.06,0-.07,0s.19-.1.2.06,0-.07,0-.07a3.37,3.37,0,0,0,.62.13l1.67.24-1.68.65c-.14.05-.32.15-.49.23s-.1-.23-.27,0c0,0,0,.06,0,0s-.19-.1-.22,0,0,.06,0,.11c-.18,0-.25,0-.35.07v0c-.1.19-.3.2-.36.39l-.23.12.21-.81a5,5,0,0,0,1.8,1A17.89,17.89,0,0,0,19,22a.41.41,0,0,0,.42.15s0,0,0,0,.16,0,.19-.08a7.51,7.51,0,0,0,.93.08c-.05,0-.08.09,0,.09l.07-.06v0s.09-.06,0-.1a13.08,13.08,0,0,0,2.37,0,1.36,1.36,0,0,0,.61-.17,2,2,0,0,0,1.5-.64A.42.42,0,0,1,25,21.73Z"/><path class="cls-3" d="M16,15.32s-.13,0-.11-.11S16,15.27,16,15.32Z"/><path class="cls-3" d="M14,15.56s0,0,0,0,0-.05.06,0S14,15.54,14,15.56Z"/><path class="cls-3" d="M13.49,15.62s.1-.1.15-.11Z"/><path class="cls-3" d="M13,15.49s0-.06,0-.06S13,15.47,13,15.49Z"/><path class="cls-3" d="M13,15.6s-.06,0-.08,0S13,15.52,13,15.6Z"/><path class="cls-3" d="M12,15.51s-.08,0-.1,0S12,15.44,12,15.51Z"/><path class="cls-3" d="M11.45,15.61a.21.21,0,0,0-.1,0c-.08,0,0-.05.05-.08Z"/><polygon class="cls-3" points="14.87 19.81 14.81 19.82 14.83 19.77 14.87 19.81"/><path class="cls-3" d="M14.11,20.85c.06,0,0,.06,0,.07S14.17,20.9,14.11,20.85Z"/><polygon class="cls-3" points="16.02 21.88 16.01 21.88 16.05 21.79 16.02 21.88"/><path class="cls-3" d="M30.84,14.64c-.06-.23-.07.14-.06-.15A.12.12,0,0,1,30.84,14.64Z"/><path class="cls-3" d="M5.91,13.25a4.58,4.58,0,0,1-.71-1,3.91,3.91,0,0,0-.37-.55c-.14-.16-.33-.34-.52-.31s0-.2-.22,0a.77.77,0,0,0,0,.14h0c0,.28.2.39.31.6s.26.41.39.63a7.29,7.29,0,0,1,.61,1.35l-.06,0c.05.16.27.31.27.48,0,0,0,0-.08,0s.05.06.05,0-.12,0-.14,0,0-.11-.07-.19l-.14,0c-.38,0-.6-.44-1-.59,0,0,.07,0,.06,0-.63-.28-1.31-.79-2-1.06,0,0,.09-.06.07-.11s-.3,0-.49,0-.35,0-.49,0v0c0,.13-.2.09-.12.26L1.1,13a.07.07,0,0,1,0,.1l0-.1c0,.07.05.21.16.25l0,0c.12.07.12.17.23.24v0c.24.17.32.34.39.25,0,.14-.24-.16-.2,0a17.53,17.53,0,0,1,2.37,1.81c0,.12.07.2,0,.23A.12.12,0,0,1,4,16l-.23.09S3.72,16,3.68,16s-.22.08-.4,0c.08,0,.12,0,.1-.09a2.07,2.07,0,0,1-.6,0s.08,0,.08,0c-.23.05-.38-.1-.58-.07l.08-.05c-.29-.13-.11.11-.36,0,.07,0,0,0,.06-.06-.26.08-.65,0-.87.08a0,0,0,0,0,0,0,.71.71,0,0,0-.33.12.24.24,0,0,0,0,.29c0,.09-.18.06,0,.26.07-.08.42.21.36,0a1.57,1.57,0,0,0,.69.28c-.12,0,.08.18-.12.14l.13.11s-.15-.06-.12,0,.41,0,.49.07A2.06,2.06,0,0,1,3,16.84c-.15,0,.06.15,0,.16l.44-.21c.1,0,0,.1.16.08,0,0,.06-.05.1-.08s.41,0,.45.11-.16,0-.05.07h.17l0,0a1,1,0,0,1,.17.16h0c.06.11.27.25.24.1s0,.07-.09,0a.92.92,0,0,1,.38.32c-.06,0-.08,0-.12,0a4.09,4.09,0,0,1,.63.51s-.15,0-.15-.06c.16.33.56.49.66.79,0,0,0-.08,0-.06s0,.19.13.25.11.09.19.17,0,0-.07,0a3.81,3.81,0,0,1,.82.84s.25.08.3.14l-.08,0c0,.09.2.2.16.26.19.06-.54-.45-.32-.32,0,.09.33.16.21.2.12.12.3.18.36.35,0,0-.17,0-.07.07s.08,0,.23.14l.11.06c.06,0,.15.16.14,0,0,.07.28.22.17.29l-.09,0c.08.07.2,0,.29.07s0,.05,0,.06.18.18.35.17c.13.19.41.37.42.52a1.18,1.18,0,0,1,.44.28s-.08,0-.11,0,.11.1.21.15.13.22.2.35.17,0,.21-.06c0,.21.43.21.5.43-.06,0-.24-.09-.15,0s.31.1.47.29l0-.14c0,.13.34.14.24.24.09,0,.21.2.26.08.28.31.85.47,1,.78.06,0,.18.1.18,0s-.14,0-.15-.08a.07.07,0,0,0,.09,0c.09.09.18.14,0,.17.21.2.35,0,.64.16,0,0,0,.07.07.11h.21c.19.12.07.16,0,.24s.25.11.33.07l.09.16c-.07-.12.11,0,.18,0h-.06s.15.08.21.1-.12-.13-.18-.18.16,0,.25,0c-.06.07.16.14.25.18s.15,0,.17,0,.17.07.06.1-.07-.07-.14-.06,0,.13.18.13,0-.17.21,0c-.06,0-.08,0-.13,0l.18.11,0-.07s0,0,0,0,.3.07.38,0,.19.12.28.16h0a.5.5,0,0,0,.38.07h0a.65.65,0,0,0,.3,0c.15.1,0,.3.18.24s.29-.08.23-.14c.28.12.64.07.89.23,0,0,0,0,.11-.05.43.12.93,0,1.26.22-.13,0,0,.08,0,.12s.12.08.17,0,0-.1-.11-.14a2,2,0,0,1,.8.07c-.07,0,0-.05,0-.07s.17.13.32.08l0-.07.1.07c.06,0,.06-.14.21-.08a.12.12,0,0,0,0,.07,1,1,0,0,1,.52-.12l.14.09c.07,0,.18-.08.06-.1a1.71,1.71,0,0,1,.56.1,6.67,6.67,0,0,1,1.66-.53V26c.15,0,0-.11.16-.11s.14.07,0,.16c.22,0,.24-.17.36-.23s-.09.07-.09,0,.3,0,.29-.15.05.1,0,.15l.1-.09c.19.05-.27.33-.06.41l.11-.06c.15.06-.27.23,0,.15.11-.1.16-.28,0-.27.25-.13,0-.27.3-.37.1,0-.21.1-.13.16s.24-.15.36-.17c-.14,0-.07-.12,0-.17s0,.13.15,0c0-.07.15-.2,0-.16,0-.15.21-.07.26-.21.1.05-.09.29.14.22-.07-.06.19-.24,0-.3.09,0,.13,0,.1.12.15,0,.18-.3.31-.17v-.1h.19c.1-.06.23-.3.3-.18s.22-.19.09-.2-.1.17-.25.11c.16,0,.17-.15.22-.23l0,0c0-.05.13-.12.12-.19s0,.06.07,0v-.1c.14-.17.13.08.28-.08l-.08.15s.13,0,.19-.11l0-.27c.06-.11.1,0,.12-.12l0,.17s.16,0,.27-.11.09-.28-.06-.19c.05-.06.17-.11.16,0,.11-.15-.08,0,0-.18a3.73,3.73,0,0,0,.39-.18v.21l.07-.09c0,.18.1,0,.14.12a.49.49,0,0,0,.11-.23c-.27.08,0-.34-.2-.37.15-.26.42.05.38-.35-.06,0-.08-.17-.14,0,.11-.15-.07-.19.1-.34,0,.17.23-.07.18.18,0,0-.1.09-.11.13s.12.09.22-.08.13-.25,0-.27-.08.16-.12.05.23-.19.13-.35c-.05.14-.15.13-.2.1l0-.17,0,.06c.16-.23-.06-.12.07-.35l.15-.07c.07.1-.2.33,0,.36.08-.15,0-.24.14-.38l0,.13c0-.05.25,0,.24-.31s0-.05-.09-.08c.08-.27.06-.37.1-.55.1.07.11-.3.16-.07a.76.76,0,0,0-.16.59c.17,0-.1.2,0,.31.09-.21.22-.15.31-.15a.38.38,0,0,0,0-.17c-.07-.06-.1,0-.18,0a1.05,1.05,0,0,0,.11-.65c.07-.07.14,0,.12.08.07-.3.17-.62.26-.9-.18.15,0-.33-.1-.23s-.19.25-.23.15.06,0,.1,0,.16-.16.07-.3c0,.28.15.09.25.16,0-.21.08,0,.11-.17a6.13,6.13,0,0,1,0-.7,2.45,2.45,0,0,0,.1-1c.06-.13.18,0,.21-.17s-.14.12-.07-.13l0,0c0-.08.1-.46-.08-.54l.13.08s0-.09,0-.13.08-.06.11,0c.09-.16,0-.33,0-.5l-.07.11c-.07-.29,0-.49,0-.77h.08l-.06-.16c.08,0,.11-.12,0-.21l.23.42c0,.13-.1-.13-.17,0a.35.35,0,0,0,.05.37.31.31,0,0,0,0-.18c.1,0,.11.11.19.19s0-.13,0-.14a.77.77,0,0,1,.08.38c0-.12-.06.07-.1,0s.13.18.1.4.07.41,0,.66a.91.91,0,0,1-.2-.39c-.05.15,0,.17-.06.33a.54.54,0,0,1,.2.35h-.07c0,.19.13.2.08.43-.08.4-.14.82-.2,1.12H30.7c.12.2-.06.57-.05.82-.16.37-.17.85-.35,1a5.88,5.88,0,0,1-.79,1.89l0-.16c0,.15-.09,0-.15.16.15-.08,0,.21,0,.32a2.94,2.94,0,0,0-.56.89l-.06,0c-.1.31-.44.48-.71.73a.33.33,0,0,0-.23.07,1.81,1.81,0,0,1-.35.52,3.45,3.45,0,0,1-.69.38,7.41,7.41,0,0,1-2.17,1.16l-.08-.06a8.61,8.61,0,0,1-2.41.62l.05-.15c-.22,0-.48.08-.42.17-.22,0-.54.12-.68,0s-.27.07-.45.09a7.11,7.11,0,0,0-1,0h.1s.05-.09,0-.1-.57-.07-.42.11c-.43-.14-1,0-1.45-.24,0,.05-.08,0-.13.06A8.22,8.22,0,0,0,16.52,27c-.06,0,.12-.05,0-.09s0,.06-.14.05a8.41,8.41,0,0,1-1.75-.64A12.72,12.72,0,0,1,11.83,25l0,0c-.34-.07-.58-.51-.9-.5,0-.07-.23-.18-.15-.2-.27-.07-.54-.49-.91-.62a.18.18,0,0,0,.09,0c-.26-.28-.58-.41-.84-.72,0,0,.1.05.13,0s-.37-.12-.33-.3-.1,0-.06.05c-.61-.62-1.36-1.17-2-1.8-.38-.53.17-.22-.27-.5,0-.05-.07,0,0,0-.17-.11-.07-.35-.23-.39,0,.11-.1,0-.15,0-.21-.34-.2-.45-.46-.64l.06,0c-.35-.18-.56-.55-.89-.68-.39-.45-.75-.91-1.12-1.34l.49.25a12.94,12.94,0,0,1-2.17-.15,4.53,4.53,0,0,1-1.16-.34A1.57,1.57,0,0,1,.61,17a1.42,1.42,0,0,1-.34-.32A1.11,1.11,0,0,1,.2,15.34,1.13,1.13,0,0,1,.62,15,2.55,2.55,0,0,1,1,14.9a2.73,2.73,0,0,1,.5,0,5.8,5.8,0,0,1,.82.08c.5.08,1,.19,1.44.29l.14,0h0a2.32,2.32,0,0,0,0,.66c-.09-1.31,0-.36,0-.66h0s0,0,0,.11a1.14,1.14,0,0,0,.05.19.7.7,0,0,0,.1.23c.09.09.06,0-.14.08a1.65,1.65,0,0,0-.3.17l-.08,0h0L3.37,16l-.22-.2-1.09-.9a2,2,0,0,0-.75-.7s.06,0,0,0-.29-.24-.4-.2c-.16-.16-.32-.33-.48-.51l-.19-.22,0-.26a1.46,1.46,0,0,1,.2-.66,1.12,1.12,0,0,1,.74-.51A2,2,0,0,1,2.39,12c-.14,0-.24,0-.08.08H2.5v0c.11,0,.24,0,.15-.05a11.25,11.25,0,0,1,2.42,1.58c.17.14.36.28.5.38l0,0s.06-.07-.07.2a1.11,1.11,0,0,0-.08.28h0L5.57,14h0v.06l0,.08a2.58,2.58,0,0,0,0,.29c0,.17.1.14,0,.1a.91.91,0,0,0-.24,0l-.18,0H5a4.22,4.22,0,0,0-.53-1,15.44,15.44,0,0,0-.84-1.3L3.55,12a1.7,1.7,0,0,1-.06-.19v-.06a1,1,0,0,1,0-.13.61.61,0,0,1,0-.17.72.72,0,0,1,.15-.31l-.12.19a1,1,0,0,1,.4-.47.8.8,0,0,1,.76,0,1.59,1.59,0,0,1,.49.46,7.48,7.48,0,0,1,.51.83l.89,1.65A1.13,1.13,0,0,1,5.91,13.25Z"/><path class="cls-3" d="M30.89,14.92c0,.06-.06.22-.15.1S30.84,14.91,30.89,14.92Z"/><path class="cls-3" d="M30.14,19.16s0,.05,0,.06,0-.11,0-.14S30.12,19.13,30.14,19.16Z"/><path class="cls-3" d="M29.85,20.19s0-.26,0-.39Z"/><path class="cls-3" d="M29.34,21c-.07.06-.08,0,0-.07S29.32,21,29.34,21Z"/><path class="cls-3" d="M29.42,21.15a.23.23,0,0,1-.12.13S29.35,21.1,29.42,21.15Z"/><path class="cls-3" d="M28.28,22.9s-.06.15-.13.15S28.25,22.82,28.28,22.9Z"/><path class="cls-3" d="M27.72,23.67s0,0-.05.06,0,0,0-.08Z"/><polygon class="cls-3" points="10.95 23.3 11.05 23.34 11.01 23.37 10.95 23.3"/><path class="cls-3" d="M5.15,17.58c-.09-.07,0-.09,0-.11S5.07,17.48,5.15,17.58Z"/><polygon class="cls-3" points="0.99 16.23 1.01 16.25 0.94 16.31 0.99 16.23"/><path class="cls-3" d="M6.61,13.4c-.06,0,0,.07,0,0S6.59,13.37,6.61,13.4Z"/><path class="cls-3" d="M21.35,11.64c-.09.25-.39.16-.52.35,0,0,0-.1-.07-.06-.12.21-.45.22-.7.19v0s-.07.11-.12.11,0,0,0-.05-.07.05-.08.1,0-.06-.07-.08v.07c0,.18-.18,0-.25.15s0,0,0,0a1.66,1.66,0,0,1-.5.27.17.17,0,0,0,0-.09c0,.07,0,.1-.08.13s-.06.09-.13.07v0c0,.08-.07,0-.08.07l0,0c0,.1-.07,0-.09,0v0s-.06,0-.08,0h0c-.06,0-.12,0-.1.08s.06,0,0-.13a2.05,2.05,0,0,1-.69.24s-.05,0-.07-.06-.08,0-.1.08,0,0,0,0,0,.1-.08.07a.09.09,0,0,0,0-.08c0,.07-.08.07-.12.1a.07.07,0,0,0,0-.05c0,.08-.1,0-.13.06v0c-.08,0,0,.1-.07.08s0,0,0-.05-.14.09-.2.13a0,0,0,0,0,0,0c-.06,0-.13,0-.2.06s0-.11-.08-.08-.11.06,0,.16-.16,0-.19,0,0-.11,0-.12l0,0s0,0,0,0-.09.06-.11,0-.06.18-.13.2,0-.1,0-.12L16,13.4s0-.07,0,0,0,0,0,.06-.1,0-.12,0,0,0,0-.05,0,0-.09.05h0s-.08.05,0,.1,0-.05,0,0a.12.12,0,0,1-.11.09s0,0,0-.07a.45.45,0,0,1-.17.15s0-.08,0-.06-.17.11-.25,0,0,.06,0,0-.05-.06-.07,0,0,0-.06,0,0,0,0,0a.32.32,0,0,1-.28.08s0,.1-.06.1v-.06s-.07,0-.08,0,.16-.08.11,0-.07.1-.07,0-.07.08-.12,0,0-.08,0-.07,0,0-.06.05l0,0c0,.06-.05,0,0,.06s-.08,0-.09-.05v-.07s0,.08,0,.12a.07.07,0,0,1,0,0c0,.11-.06,0-.08.09s-.14,0-.17-.05-.07.08-.12.06,0,0,0,0,0,0-.06,0-.07-.06-.1-.09,0,.1,0,.13-.11.08-.17,0,.05-.06,0-.08-.07.09-.13,0l0,.09c0-.05-.08.06-.09,0s-.07,0-.06.06c-.11-.07-.24.07-.32-.09,0,0-.05,0,0,0s0,0,0,0,0,0,0,0-.06,0,0-.1-.06.16-.15.13,0-.05,0,0l0,.07c-.06,0,0-.08,0-.14s-.07,0-.08.06l0-.07c0,.05,0,0,0,.06v0s0,0-.06,0,0,.05.06.06,0,0-.06.06-.05,0-.08,0,0,.06,0,.06,0,0,0,0,0,0,0,0,0-.08-.06,0,0,.12,0,.09a.26.26,0,0,0,0-.06l-.05,0V14s0,0,0,0-.08,0-.08.09-.06,0-.08,0h0s-.07,0-.09,0h0a.08.08,0,0,0-.07,0s0-.21-.07-.14-.06.11,0,.14-.16.06-.23,0,0,0,0,.05-.23.08-.32,0,0-.06,0-.09,0-.05,0,0,0,.07,0,.09a.2.2,0,0,1-.2,0s0,0,0,.05,0-.09-.08-.06v0l0-.05s0,.1-.05.06a.16.16,0,0,0,0-.05s-.09.11-.13.07l0-.07s0,.05,0,.07-.12,0-.14-.11a.47.47,0,0,1-.44.15v0s0,.06,0,0,0-.08,0-.12-.07.06-.11.08,0,0,0,0-.08,0-.08,0a.2.2,0,0,1,0-.11l0,0c0-.08.09-.15.05-.26h0c0-.08.08-.09,0-.11s-.06.14,0,.17,0,.17-.11.17.06,0,0-.07-.07,0-.1,0,0,.1,0,.12,0-.07,0-.08-.06.07,0,.1-.06,0-.09,0,.06-.15,0-.19-.07.09,0,.18a.1.1,0,0,1,0-.11s-.08.12-.09,0v.07l0-.07s-.1.09-.09,0-.08,0-.05.07,0,0,.07,0c0-.08-.06,0-.09,0v0s0,0-.06,0a.05.05,0,0,0,0-.06l0,.06c-.06,0,0-.1-.07-.09l0,0s0,0-.06,0l0,.16s0-.06,0,0l0-.06S9,14.1,9,14.1s-.07.09,0,.13a0,0,0,0,1,0-.07s0,.06,0,.09-.07-.09-.1-.14l0-.09h0c0-.07,0-.05,0-.13s0,0-.06,0-.07.16-.06.27,0-.27-.13-.1,0,.11,0,.08,0,.11-.1.06,0-.11,0-.18,0,0,0,0,0-.11,0-.11-.07,0-.07.07,0,0,0,.06-.07-.08-.1,0,0,.06,0,.1l0,0v0c-.07,0,0,.08-.1.06l0-.09c0-.07.1,0,.1-.08s-.06.05-.11,0l0,0s0-.16-.09-.07,0,0,0,.08-.1.05-.15.06-.08,0,0-.1.13.05.16,0,.06,0,.08-.08,0-.1-.05-.17,0,0,0,0,0,.06,0,.12A.15.15,0,0,0,8,14s0-.09,0-.1a.47.47,0,0,1-.23,0c0,.1-.08,0-.06.1a.13.13,0,0,1,0,.14s0,0,0-.07,0-.09-.08,0,0-.12,0-.2,0-.06,0-.06a.49.49,0,0,1-.18.08c-.06-.08-.18,0-.24,0s0-.13,0-.15,0,.1,0,.05v0s-.11-.08-.14,0l0-.09s0,0,0,0,0-.06,0-.08-.08,0-.12,0l0,.06c-.08,0-.12,0-.19,0V13.6l0,0c0-.05,0-.09,0-.05l.13-.12s0,.06,0,.12.07,0,.09,0,0,0,0,0,0-.07.07-.12,0,0,0,0a.1.1,0,0,1,.1,0s0,.05,0,.07.06-.08.1-.06.1,0,.16,0a.32.32,0,0,1-.11.14s0,0,.07,0,0-.12.1-.15v.05s.06-.1.11-.08a1.58,1.58,0,0,0,.26.06v.05c.05-.1.14,0,.2-.07s.21,0,.25.06a1.37,1.37,0,0,1,.48,0l0,.07c0-.05,0,0,0,0s0-.07.07-.12.17,0,.24,0v.05c.07-.09.15,0,.24,0s0,.07,0,.06.07-.08.14-.12a.39.39,0,0,1,.18.06c.19-.11.38,0,.57-.11v.06c.19-.13.42,0,.58-.08v.1c.05,0,.11,0,.1-.1s.12-.05.16,0,.06,0,.1-.07a.34.34,0,0,0,.24,0h0s0,.07,0,.07.13,0,.09-.1c.11.07.24-.06.34,0s0,0,0-.06.19.06.26,0,0,.06,0,.06,0,0,0-.06.3,0,.43,0a3.53,3.53,0,0,1,.71-.1v0c.07-.1.19.08.23-.07,0,0,.07,0,.06.05s.18,0,.25,0l0,0c.09,0,.16,0,.26,0s0,0,0,0,.07-.11.11,0,0-.06,0-.06a1.87,1.87,0,0,0,.63-.13c.16,0,0,.2.14.09s0,0,0,0,.09.12.11.05,0,0,0-.09.13.09.19,0v0c.07-.12.18-.08.23-.21.47-.09.9-.25,1.35-.34s.88-.21,1.34-.27c.13.07.14.07.24,0s0,0,0,0,.08,0,.07-.11a3.22,3.22,0,0,0,.48-.14s0,.09,0,.07l0-.06v0s0-.06,0-.08c.4-.19.87-.16,1.26-.33a.85.85,0,0,0,.33-.13,1.68,1.68,0,0,0,.94-.25S21.46,11.54,21.35,11.64Z"/><path class="cls-3" d="M6.67,13.4s0,.07,0,.12A.63.63,0,0,1,6.67,13.4Z"/><path class="cls-3" d="M7.66,14s0,0,0,0,0,0,0,0S7.66,14,7.66,14Z"/><path class="cls-3" d="M7.93,14s-.07.06-.1.06Z"/><path class="cls-3" d="M8.17,14.17s0,0,0,0S8.17,14.19,8.17,14.17Z"/><path class="cls-3" d="M8.2,14.09s0,0,0,0S8.19,14.15,8.2,14.09Z"/><path class="cls-3" d="M8.74,14.23s0,0,.05,0S8.73,14.28,8.74,14.23Z"/><path class="cls-3" d="M9,14.18H9a0,0,0,0,1,0,0Z"/><polygon class="cls-3" points="13.63 13.85 13.6 13.87 13.6 13.84 13.63 13.85"/><path class="cls-3" d="M15.63,13.58s0,0,0,0S15.67,13.57,15.63,13.58Z"/><polygon class="cls-3" points="16.68 13.21 16.67 13.22 16.66 13.14 16.68 13.21"/><path class="cls-3" d="M21.8,12.31c-.07,0,.06.06,0,0S21.77,12.29,21.8,12.31Z"/><path class="cls-3" d="M30.06,7.8c0,.33-.31.55-.23.88,0,0-.11,0-.1,0a1.82,1.82,0,0,1-.16,1.06l0,0c0,.07.09.14.07.21s0,0-.06,0,0,.12.09.15-.08,0-.1.07l.08,0c.19.1,0,.27.12.4s0,0,0,0a4.15,4.15,0,0,1,.24.77.15.15,0,0,0-.11,0c.08,0,.12.07.15.14s.1.1.07.19h0c.1,0,0,.1.08.13l-.05.05c.12,0,0,.1,0,.14h0s0,.08,0,.12h0c.05.09,0,.17.09.14s-.06-.09-.15,0a5.18,5.18,0,0,1,.37,1s0,.08-.05.09.06.12.11.13,0,0,0,.05.12,0,.1.11a.08.08,0,0,0-.09,0c.08,0,.1.11.15.16s0,0-.06,0,0,.14.11.18h-.06c0,.12.11,0,.11.09s0,0-.06,0l.06,0,0,0h-.1a1,1,0,0,1-.26-.07v0a2.29,2.29,0,0,0-.27-.15s.09-.1,0-.14-.16-.08-.19.05c-.06-.07-.13-.2-.2-.21s.06-.12.12-.07v-.08s0,0,.05,0-.13-.07-.13-.1-.22,0-.3-.05.07-.09.11-.08h-.25s.06-.06,0-.08,0,0-.08,0-.11-.11,0-.18.05,0,.06,0-.07,0-.11-.09h0s-.11-.08-.13,0,0,0,0,0a.19.19,0,0,1-.16-.1s0,0,.08,0a.68.68,0,0,1-.27-.16s.1,0,.08,0c0-.14-.22-.17-.19-.31,0,0-.06,0,0,0s0-.09,0-.11,0,0,0,0l.42-.08a.27.27,0,0,1,0,.06s0,0,0,0a.56.56,0,0,1,0,.42s.09.1.08.13l-.06,0s0,.1-.07.1,0-.26,0-.16.08.14,0,.11.05.14,0,.18-.08-.07-.08,0,0,0,0,.11l0,0c.06,0,0,.08.05.06s0,.13-.1.1l-.08,0s.07.08.1.12h0c.12,0,0,.09,0,.16s-.07.2-.15.21,0,.15,0,.2,0,0,0-.05,0,.05,0,.1h0l-.5.06a1.42,1.42,0,0,0,0-.17c-.07,0-.11,0-.14.05s-.17-.08-.12-.21.1,0,.1,0-.14,0-.15-.14l-.07.08c0-.07-.13-.07,0-.12s0-.1-.11,0c0-.17-.26-.26-.16-.44,0,0,0-.06-.08,0s.06,0,0,.05,0,0-.05,0,0-.09.07-.1-.2,0-.24-.14,0,0,0-.06l-.1,0c0-.09.06-.09.12-.12s-.05-.09-.11-.09l.06-.09c0,.06-.06,0-.08,0h0s0-.06,0-.09,0,.08,0,.12,0-.05-.09-.07,0-.1,0-.14-.08,0-.08,0,0-.08,0-.05,0,0,0,.06.08,0,0-.1-.11,0-.11,0l.57.22h0a.09.09,0,0,0,0,0l-.5-.19h0v0l.43.17h-.06l0,.05,0,0c0,.07-.07.08,0,.15s-.09,0-.12,0h0c-.06,0-.09.05-.09.11h0a.13.13,0,0,0-.06.1c-.08,0-.16-.18-.17-.07s0,.15,0,.17c-.11,0-.15.19-.3.17s0,0,0,.07-.25.26-.44.23c0,0,0-.06,0-.09s-.07,0,0,.07,0,.07.1.07a.39.39,0,0,1-.3.13s0,0,0,.06-.11-.06-.16,0v.06l-.06,0s0,.12-.08.09a.12.12,0,0,0,0-.05.49.49,0,0,1-.16.11l-.32.13L24.94,13a.07.07,0,0,1,0-.07l.09,0s0-.08-.08,0,.08-.16.15-.18a.81.81,0,0,1-.07-.64h0s-.07,0,0-.07.09,0,.13,0-.06-.11-.07-.16,0,0,0,0,.05-.1,0-.12a.19.19,0,0,1,.12,0l0,0c.1,0,.16.15.28.1v0c.09,0,.08.13.13,0s-.15-.1-.19-.07-.19-.06-.17-.17,0,.08.07.07,0-.1,0-.14-.11,0-.13,0,.08,0,.09,0-.08-.08-.11,0,0-.07,0-.11c.08,0,.17.08.21,0s-.1-.09-.21-.06a.11.11,0,0,1,.12,0s-.13-.09,0-.11h-.08l.08-.05s0,0,0,0l.73.22s0,.07-.09,0-.1.1,0,.13,0-.1.13-.06c-.1,0-.08.09-.09.14l0,0s-.06.06,0,.11a0,0,0,0,0,0,0l0,.07c-.06.09-.09-.08-.16,0l0-.09s-.07,0-.09,0,0,.14,0,.18-.06,0-.07,0l0-.1s-.09-.06-.15,0,0,.15,0,.14-.09,0-.09,0,0,.05,0,.12-.15,0-.22-.06v-.12l0,0c0-.1-.05,0-.07-.13s0,0-.06.08c.14.08,0,.21.08.31-.1.09-.2-.24-.23,0,0,0,0,.13.07.07s0,.14-.1.13-.12-.09-.06-.19.06,0,.07,0,0-.12-.11-.09-.09.06-.06.11.06,0,.06,0-.13,0-.12.1c0,0,.09,0,.11.08l-.05.05v0c-.11,0,0,.09-.1.12l-.08-.07c0-.08.16,0,.09-.14s-.06.09-.13.08l0,0s-.11-.15-.16,0,0,0,0,.09-.11.11-.17.14-.12,0-.08-.09c.05,0,.2,0,.2-.12s.08,0,.06-.13-.12-.08-.16-.14,0,0,0,.06,0,.06.07.12a.25.25,0,0,0-.2.17s-.06-.09,0-.11a.87.87,0,0,1-.32.1c.1.08-.11.06,0,.14s.14.07.12.13,0,0,0-.07-.1-.07-.11,0c.09-.07,0-.14,0-.23-.06.07,0-.06-.09,0a.76.76,0,0,1-.2.18c-.12-.05-.25.07-.34.1s-.05-.13-.11-.14.07.09,0,.07v0s-.18,0-.17.12v-.11s0,0,0,0,0-.06,0-.09-.11,0-.17.06l.05.05c-.09.08-.17,0-.26.07v-.06l0,.05c0-.06-.06-.09-.08,0l.12-.18s0,.08,0,.14.12,0,.12-.05,0,0-.06,0,0-.09,0-.15,0,0,0,0a.16.16,0,0,1,.12-.08s0,0,0,.08,0-.11.11-.11.12-.09.21-.09a.37.37,0,0,1-.08.2c.06,0,.06,0,.12,0s0-.15.06-.21l0,.05c.05,0,0-.13.11-.13a2.44,2.44,0,0,0,.38-.08l0,.05c0-.13.17-.1.23-.18s.26-.15.35-.08a3.35,3.35,0,0,1,.61-.32v.09c0-.07,0,0,.08,0s0-.1,0-.16.22-.11.27-.21l0,0c0-.14.17-.11.27-.16s.07,0,.09,0,0-.12,0-.22l.06,0,.56-.33v.5a.59.59,0,0,1,0,.2c.14.31,0,.59.07.89h-.07c.11.3-.07.61,0,.86l-.11,0a.11.11,0,0,0,.09.16s0,.1,0,.15l-.45-.49s0,0,0,0,0-.06.07-.09a.32.32,0,0,0,.25-.1h0s0,.07.05.06.17-.06.05-.15c.16,0,.23-.23.41-.22,0,0,0-.05,0-.08s.25-.1.3-.21,0,.07.06,0,0,0,0-.08.31-.2.46-.29l.64-.38.05.65a.25.25,0,0,0,0,.06,7.74,7.74,0,0,0,.45.75h0c.14,0,.06.26.24.24,0,0,0,.09,0,.1.11,0,.09.24.25.28l0,0c0,.11.12.16.18.26l-.74.09,0-.05s0,0,0,.05-.07-.14.06-.12-.06,0-.06,0a2.07,2.07,0,0,0,.16-.85c.12-.19.22,0,.16-.16,0,0,0,0,0,0s.17-.08.1-.13,0,0-.09,0,.14-.14.11-.24l-.16-.51.75.39h0l0,0c.17,0,.19.2.36.22a4.18,4.18,0,0,0,1.22,1.29,1.33,1.33,0,0,0,.26.15l-.77.77a7.94,7.94,0,0,1-.51-1.58.31.31,0,0,0,0-.36s0,0,0,0,0-.12-.13-.12c0-.26-.12-.49-.18-.75,0,0,.1,0,.08,0l-.07,0h0s-.07-.06-.09,0a6.56,6.56,0,0,1-.08-2.05,3.63,3.63,0,0,0,0-.59A7.62,7.62,0,0,1,30,7.37.57.57,0,0,1,30.06,7.8Z"/><path class="cls-3" d="M21.89,12.28s.09.05.06.12S21.9,12.32,21.89,12.28Z"/><path class="cls-3" d="M23.48,12.35s0,0,0,0,0,.05,0,0S23.48,12.37,23.48,12.35Z"/><path class="cls-3" d="M23.87,12.25s-.06.1-.11.12Z"/><path class="cls-3" d="M24.28,12.28s0,0,0,.06S24.28,12.3,24.28,12.28Z"/><path class="cls-3" d="M24.27,12.18s.05,0,.07,0S24.28,12.25,24.27,12.18Z"/><path class="cls-3" d="M25.08,12s0-.06.08,0S25.09,12,25.08,12Z"/><path class="cls-3" d="M25.4,11.7s0,0,0,0,0,0,0,.06Z"/><polygon class="cls-3" points="27.83 13.6 27.79 13.58 27.83 13.56 27.83 13.6"/><path class="cls-3" d="M28.87,12.8s0,0,0,.05S28.9,12.84,28.87,12.8Z"/><polygon class="cls-3" points="30.06 13.91 30.05 13.91 30.11 13.84 30.06 13.91"/><path class="cls-3" d="M21.86,10.54c-.1.07.09,0-.06.06S21.81,10.52,21.86,10.54Z"/><path class="cls-3" d="M30.62,6.87c.32-.34.87-.15,1.28-.28.05,0,0,.13.09.1a1.6,1.6,0,0,1,1.13.13l0,0V6.77c0-.15-.06-.29-.09-.43h0c0-.1-.19-.15-.23-.24s0,0,.06,0-.13-.14-.2-.15.05-.08,0-.14h-.1c-.25,0-.23-.33-.47-.42,0,0,0,0,0,0-.17-.08-.33-.19-.51-.27h0v0a1.93,1.93,0,0,0-.24-.56.12.12,0,0,0,.11,0c-.09,0-.16-.08-.23-.16s-.16-.11-.19-.23h0c-.12,0,0-.14-.17-.12V3.86c-.11.06,0-.14-.14-.13v0c-.07,0-.06-.09-.13-.09v0l-.13,0-.06,0v0c0-.05,0-.08-.07-.07s.07.05.11.06,0,0,0,0,0,0,0,0l0,0c-.23-.47-.37-1-.58-1.44,0-.07,0-.11,0-.14S30,1.75,30,1.74s0-.05,0-.08-.14,0-.17-.13a.08.08,0,0,0,.1,0c-.11,0-.18-.12-.27-.16s0,0,.06,0-.15-.11-.26-.1l0,0v0l0,0h0l0,0h0v0c-.06.14.11.05.07.17,0,0,0,0-.06,0s.12.31.2.42h0a1.61,1.61,0,0,0,.19.4c0,.06-.13,0-.06.17.1-.05.14.22.23.09a2.84,2.84,0,0,0,.1.41l-.23.1h0l.2-.09h0l-.16.07s0-.07.07-.06h0v0l0,0,.07,0V2.76s0,0,0,0l-.17.08s0,0,0,0h0l.22-.1s-.16-.13-.17-.18-.27,0-.37-.17c.08,0,.08-.1.13-.07l-.3-.07s.07-.06,0-.11-.06,0-.09,0-.14-.17-.06-.25.07.06.07,0-.09-.07-.14-.15h0c0-.06-.14-.13-.16,0s0-.05.06,0-.15-.09-.21-.17.06,0,.09,0a1.34,1.34,0,0,1-.35-.25s.11,0,.1,0c0-.2-.3-.24-.31-.41,0,0,0,.06,0,0s0-.11,0-.13-.06,0-.1-.05,0,0,0,0a.8.8,0,0,0-.17,0s0,0,0,0A.07.07,0,0,0,28.1.66s.11,0,.1,0l-.07,0s0,.08-.05.1-.06-.22,0-.13.1.1,0,.07.09.12,0,.2-.11,0-.09,0,0,0,.08.11l0,0c.07,0,0,.1.08,0s.08.15,0,.17h-.09s.12,0,.17.07,0,0,0,0,0,.12.16.13.11.25.06.33.15.09.17.18,0,0-.06,0,0,.06.08.09,0,.11,0,.15l-.27.32v0c-.09,0-.12,0-.16.06,0-.15-.24-.12-.22-.28,0,0,.14,0,.11,0s-.18,0-.23-.18l-.06.1c0-.09-.18-.09-.09-.16s-.08-.13-.15,0c-.09-.21-.4-.3-.37-.53,0,0-.08-.07-.1,0s.08,0,.07.05,0,0-.06,0-.07-.1,0-.13c-.07-.14-.23.05-.34-.08s0-.05,0-.08l-.12,0c-.08-.06,0-.12,0-.19s-.12-.05-.16,0l0-.12c0,.08-.06,0-.08,0h0s-.06,0-.08,0,0,.08.06.1-.06,0-.08,0,0-.06,0-.06l0,.05s0,0,0,0,0,0,0,0-.05-.07,0,0,.11.09.06.08l-.05-.06-.06,0,.06,0h0c.06,0,0,.08.08.11s0,.06-.06.1h0a.1.1,0,0,0,.06.14h0a.14.14,0,0,0,.08.11c0,.08-.24.11-.12.16a.12.12,0,0,0,.19,0c0,.15.19.22.18.39,0,0,0,0,.08,0,.1.19.33.28.36.48-.06,0,0,0-.07.08s0,.09.09,0,.06-.07,0-.13a.87.87,0,0,1,.21.15l.53.55-.62.21a.22.22,0,0,1-.12,0s0,0,0,.07-.12-.07-.17,0l0,.06-.07,0s0,.12-.06.1l0,0c0,.08-.1.18-.17.19l-.1,0s0,.1,0,.09c-.13,0-.2.08-.29,0a2.38,2.38,0,0,1-.29.72l0,0c-.07,0,.06.06,0,.09s-.11,0-.14-.05,0,.15,0,.21,0-.06,0,0-.08.12,0,.16-.1,0-.13,0l0,.07c-.12.05-.14-.21-.28-.17V5c-.11,0-.06-.19-.13,0s.14.16.19.11c0,.14.19.1.16.24s0-.12-.07-.1,0,.15,0,.2.12,0,.14.05-.08-.06-.1,0,.08.12.12,0,0,.1,0,.17c-.08,0-.18-.13-.23,0s.1.16.22.1a.09.09,0,0,1-.13,0c-.05.07.13.18,0,.19l.08,0-.09.08c0,.06.1.21,0,.19s0,.16.09.11-.06-.11.06-.15c-.1.06,0,.13,0,.18h0s0,.1.05.13a0,0,0,0,0-.07,0l.07,0c0,.13-.12,0-.11.15l0-.1s-.06.06,0,.12l.19.1c0,.08-.08,0,0,.1l-.07-.1s-.11.05-.12.15.1.17.15.08,0,.11-.09.07c0,.11.07,0,.1.09s-.14.15-.21.21l-.09-.12v.06c-.07-.1-.07,0-.16,0s0,.1,0,.14c.17-.1.17.19.31.18,0,.2-.34,0-.19.27,0,0,.11.1.11,0-.05.11.1.12,0,.24,0-.12-.17.06-.19-.11,0,0,.06-.07.05-.09s-.13,0-.16.06,0,.16,0,.18,0-.11.09,0-.14.13,0,.24c0-.09.1-.08.15-.06v.12l0,0c-.1.15.07.09,0,.24l-.13,0c-.06-.08.16-.21,0-.24s0,.16-.09.24V8.67s-.21,0-.19.17,0,0,.08.07-.05.24-.12.34c-.07-.08-.14.15-.14,0,.09,0,.24-.22.17-.33s.08-.11,0-.2c-.07.12-.17.05-.25,0s0,.08,0,.1.08,0,.14,0a.67.67,0,0,0-.15.36.06.06,0,0,1-.08-.09,1.6,1.6,0,0,1-.36.4c.17,0-.12.14,0,.17s.21,0,.21,0,0,0-.07,0-.16,0-.14.12c.1-.14-.08-.13-.12-.22-.05.11,0-.05-.13,0a1.42,1.42,0,0,1-.22.33,1.56,1.56,0,0,0-.46.3c-.09,0-.1-.12-.18-.1s.12.07,0,.09v0s-.25.06-.21.22l0-.13s0,0,0,.06-.06,0,0-.09-.15.08-.23.12l.08,0c-.12.11-.24.09-.37.17l0-.06-.07.07a.06.06,0,0,0-.12,0l.15-.24c.07,0,0,.1,0,.15s.18,0,.17-.1,0,0-.08.07,0-.11,0-.18-.07,0-.06,0a.27.27,0,0,1,.16-.13c0,.06.06,0,0,.07s0-.13.15-.16.15-.16.27-.2a.46.46,0,0,1-.08.26c.09,0,.08,0,.17-.05a.37.37,0,0,1,0-.26l0,.05c.06-.07,0-.15.13-.2a1.77,1.77,0,0,0,.47-.3l0,0c0-.16.19-.21.23-.34s.22-.35.36-.36c.14-.31.25-.58.36-.9l.07.08c0-.08.06,0,.07-.09s-.06-.11-.1-.16a.62.62,0,0,0,0-.49h.06c-.09-.15,0-.31.06-.49,0,0,.09,0,.09-.1s-.09-.16-.14-.31A1.37,1.37,0,0,1,25,5.95a3.46,3.46,0,0,1,.06-1.33h.08a2.12,2.12,0,0,1,.74-1.26l.05.12c.12,0,.2-.2.12-.25.12-.05.22-.24.35-.18s.11-.12.19-.18A1.5,1.5,0,0,0,27,2.71l-.09.8-.17-.1,0,0a0,0,0,0,0,0-.09c-.1,0-.23-.24-.26-.07-.13-.23-.48-.39-.53-.67,0,0-.06,0-.1,0-.13-.2-.17-.45-.3-.6s.09,0,.06-.06-.05,0-.1,0A1.15,1.15,0,0,1,25.91.46a.92.92,0,0,1,.77-.12,1.87,1.87,0,0,1,.48.21,6,6,0,0,1,.68.52l0,0c.21,0,.22.36.44.33,0,0,.1.12,0,.14.15,0,.21.32.42.39l0,0a.68.68,0,0,0,.18.22l-.6.7A.73.73,0,0,1,28,2.49s.06,0,.09,0-.22-.12-.12-.24-.08,0-.06,0A6.94,6.94,0,0,1,27.29.84c0-.26.12-.27.15-.25s0,.05.06-.22c0,0,0-.06,0-.06.15-.3.45-.15.55-.21C28,0,28.16,0,28.17,0c.38.19.28.3.5.38l0,0c.26.07.35.3.57.35.46.62.84,1.24,1.24,1.72L29.34,3c0-.14-.18-.42-.31-.71a2.2,2.2,0,0,1-.2-1.19l.08-.62.63.12a1.3,1.3,0,0,1,.85.56,3.18,3.18,0,0,1,.34.57,5.4,5.4,0,0,1,.38,1.11.62.62,0,0,0,.08.54s0,0,0,0a.05.05,0,0,1,.06,0L30.81,3c.11,0,.26.1.31.06a2.67,2.67,0,0,1,1,1.08c0-.06-.13-.05-.09,0l.1.05,0,0s.11.08.11,0a2.12,2.12,0,0,1,.26.74l-.36-.51a2.75,2.75,0,0,1,1,1,7,7,0,0,1,.59,1.17l.36.92-1-.21H33a1.94,1.94,0,0,0-.72-.1,2.27,2.27,0,0,0-1.85.06A.44.44,0,0,1,30.62,6.87Z"/><path class="cls-3" d="M22,10.47s.13,0,.09.12S22,10.51,22,10.47Z"/><path class="cls-3" d="M24.22,9.77s0,0,.05,0,0,.07-.05.07S24.23,9.8,24.22,9.77Z"/><path class="cls-3" d="M24.69,9.35s0,.17-.08.23Z"/><path class="cls-3" d="M25.19,9c.06,0,.07,0,0,.06S25.2,9,25.19,9Z"/><path class="cls-3" d="M25.13,8.87a.13.13,0,0,1,.09-.06S25.18,8.92,25.13,8.87Z"/><path class="cls-3" d="M25.71,7.67s0-.11,0-.13S25.77,7.71,25.71,7.67Z"/><path class="cls-3" d="M25.73,7.07s0,0,0,0,.05,0,.05,0Z"/><polygon class="cls-3" points="27.89 2.31 27.84 2.29 27.88 2.26 27.89 2.31"/><path class="cls-3" d="M28.72,1.57c.05,0,0,.06,0,.07S28.76,1.62,28.72,1.57Z"/><polygon class="cls-3" points="29.86 2.25 29.86 2.27 29.78 2.3 29.86 2.25"/><path class="cls-3" d="M27,32.65s0-.07,0,0S27,32.68,27,32.65Z"/><path class="cls-3" d="M22.55,29.32c.22-.07.09.13.24.11s-.1.07-.06.07.16.11.11.26l0,0s.09,0,.09,0l-.05,0c.06,0,0,0,.09,0l-.08.08.07,0c.16-.09,0,.06.13,0l0,0c.13,0,.16.05.23.08l-.08.07c.06,0,.09,0,.12,0s.08,0,.06,0h0c.08,0,0,.05.06,0l0,0c.09-.07,0,.06,0,0l0,0s0,0,0,0h0s0,.05.07,0,0,0-.11.08c.13,0,.17.08.23.15l0,.07s0,0,.07,0l0,0s.08-.06.07,0l-.07.05c.06,0,.07,0,.1,0l0,0c.07,0,0,0,.06,0l0,0c0,.06.08-.07.07,0l0,0c.08,0,.09,0,.12,0h0s0,0,.07,0-.09.09-.06.09.06,0,.13-.09,0,.08,0,.06-.08.1-.1.09l0,.05s0,0,0,0,.06,0,.05,0,.15-.11.18-.1-.07.09-.09.1l.17-.12s-.06.06,0,.05l.05,0s0,0,0,.08,0,0,0,0,0,0,.05,0h0s.05,0,.08-.06,0,0,0,0,.07,0,.08,0l-.06,0a.36.36,0,0,1,.15-.06s-.07.06-.05,0,.11,0,.07.06l0,0s0,.07,0,.05,0,0,0,0h0s.12,0,.1,0l.08-.06,0,0s0,0,0,.06-.09,0,0,0,.09-.06,0,0,.07,0,0,0-.07.06-.05.07,0,0,.05,0h0s0,0,0,0,0,0,0,.07l-.05.06s.07-.06.09-.08l0,0c.08-.1,0,0,.08,0s0,0,0,.1.07,0,.07,0l0,0s0,0,0,0a.72.72,0,0,0,0,.11.52.52,0,0,0,.1-.11c-.06.11.08,0,0,.06s-.05,0-.06.07.08-.06.06,0l.06-.09c0,.06.06,0,0,.05s0,0,.06,0c0,.09.1,0,0,.17,0,0,0,0,0,0s0,0,0,0l0,0s0,0-.06.1.12-.12.12-.07,0,0,0,0l.05,0s0,.09-.08.14,0,0,.06,0l0,.08c0-.06,0,0,0,0h0s0,0,0,0a.13.13,0,0,0,0-.07l.05,0c0,.06,0,.05,0,.06s0,0,0,0,0,0,0,.05,0,0,0,0,0,.08,0,0,.07-.12.06-.07l0,.05v0l0-.05v0c0-.05,0,0,.08-.06s0,0,0,.06h0s0,0,0,0h0s0,0,0,0-.12.2-.07.15.08-.09.1-.12.08,0,0,.07l0,0s.11,0,.07.1,0,.05,0,.09,0,.06,0,0a.28.28,0,0,0,0-.1s.06,0,.05.05a.1.1,0,0,1,0-.05c0,.08,0,.1,0,.08l0,0,0,.05s.06-.1,0,0l0,.05s.08-.09.08,0l0,.08a.12.12,0,0,0,0-.07.26.26,0,0,1,0,.13c.12-.13.17-.11.21-.08l0,0s0-.06,0,0a1,1,0,0,1-.06.12s.05-.05.07-.07,0,0,0,0,0,0,0,0a.74.74,0,0,1-.05.11l0,0c0,.09-.1.14-.14.26h0c0,.08-.07.08-.05.11a.57.57,0,0,0,.09-.17s.09-.17.11-.16,0,0,0,.07,0,0,0,0a.28.28,0,0,1,.06-.12s0,.07,0,.08.05-.07.05-.1,0,0,0,0-.09.15-.08.2a1.42,1.42,0,0,0,.09-.19.36.36,0,0,1,0,.11s.08-.11,0,0l0-.07,0,.08s.07-.08,0,0,0,0,0-.07,0,0,0-.05c0,.08,0,0,0,0v0s0,0,0,0a.18.18,0,0,0,0,.06l0-.06s0,.11,0,.1l0,0s0,.05,0,0l.08-.16s0,.07,0,0l0,.06s0,.1,0,.1a.28.28,0,0,0,.06-.13s0,0,0,.08,0-.06,0-.09l0,.16,0,.09h0c0,.07,0,.06-.05.14s0,0,0,0,.08-.17.12-.29-.09.29,0,.12,0-.12,0-.09.05-.11.05-.06,0,.13-.07.19,0,0,0,0,0,.12,0,.12,0,0,0-.07,0,0,0-.06,0,.09,0,0,0-.07,0-.11l0,0,0,0s0-.08.05-.06l0,.09c0,.08,0,0-.06.08s0-.05,0,0l0,0s0,.17,0,.08,0,0,0-.09,0-.05.07-.06,0,0,0,.11,0-.06-.06,0,0,0-.05.09,0,.11,0,.19,0,0,0,0,0-.07,0-.13,0,0,.08-.07a.23.23,0,0,1,0,.1.06.06,0,0,1,.08,0c0-.11,0,0,0-.11a.35.35,0,0,1,0-.16s0,0,0,.07,0,.1,0,0,0,.13-.07.22,0,.06,0,.07a.31.31,0,0,1,.09-.09c0,.09.06,0,.08,0s0,.14,0,.16,0-.11,0-.06v0s0,.07.06-.06l0,.1s0,0,0,0a.36.36,0,0,1,0,.09c0,.08,0,0,0,0v-.06s0,0,.07,0v.06l0,0c0,.06,0,.1,0,.05l-.07.14s0-.07,0-.13,0,0,0,0,0,0,0,0a.49.49,0,0,1,0,.14s0,0,0,0,0,0,0,0,0-.05,0-.08,0,.09-.05.07,0,0-.07,0a.78.78,0,0,1,.07-.16s0,0,0,0a.71.71,0,0,1-.07.17v-.06s0,.11-.06.09a.28.28,0,0,0-.09-.06v-.06c0,.11-.06,0-.1.08s-.09,0-.08-.07-.14,0-.2,0l0-.08c0,.05,0,0,0,0s0,.08-.07.12-.07,0-.11,0l0-.05c-.06.09-.06,0-.09,0s0-.08,0-.07a.37.37,0,0,1-.1.11.11.11,0,0,1,0-.08c-.12.09-.16,0-.26,0l0-.06c-.13.1-.16-.06-.24,0l.06-.1s-.05,0-.09.08-.07,0,0-.06,0,0-.07,0,0-.06-.08-.06h0s0-.06,0-.07,0-.05-.09.07c0-.09-.12,0-.1-.1s0,0,0,.05,0-.1-.08-.06,0,0,0-.06,0,0,0,.05-.06-.13-.12-.14-.18-.08-.26-.12l0,0c-.09.07,0-.13-.11,0s0,0,0-.07,0-.1-.1,0h0c0-.07-.07,0-.06-.09l0,0c0-.05-.1.07,0,0s0,0,0,0-.15-.08-.24-.11.14-.17,0-.13l0,0s.08-.13,0-.09,0,0-.07.07,0-.12,0-.1l0,0c-.11.07-.09,0-.21.08a5.53,5.53,0,0,1-.49-.3c-.11-.15-.28-.24-.35-.43s.05-.11,0-.11l0,0c-.07.06,0,0-.1,0s-.09-.1-.14-.15.08,0,.06,0l-.05,0,0,0a.14.14,0,0,0-.07,0c-.18-.09-.14-.34-.26-.46s-.06-.08-.1-.11c0-.18,0-.33-.11-.39A.79.79,0,0,1,22.55,29.32Z"/><path class="cls-3" d="M27,32.66a.34.34,0,0,1,0-.13Z"/><path class="cls-3" d="M26.7,32.1s0,0,0,0,0,0,0,0S26.71,32.09,26.7,32.1Z"/><path class="cls-3" d="M26.62,32.05a.1.1,0,0,1,.05-.07Z"/><path class="cls-3" d="M26.59,31.87s0-.05,0,0Z"/><path class="cls-3" d="M26.55,32s0,0,0,0S26.58,31.89,26.55,32Z"/><path class="cls-3" d="M26.42,31.78s0,0,0,0S26.44,31.72,26.42,31.78Z"/><path class="cls-3" d="M26.32,31.81s0,0,0,0a.09.09,0,0,1,0,0Z"/><polygon class="cls-3" points="24.85 31.18 24.87 31.17 24.85 31.2 24.85 31.18"/><path class="cls-3" d="M24.3,30.73s0,0,0,0S24.29,30.72,24.3,30.73Z"/><polygon class="cls-3" points="23.87 30.6 23.88 30.6 23.82 30.66 23.87 30.6"/><path class="cls-3" d="M30.87,32.53s0-.06,0,0S30.87,32.55,30.87,32.53Z"/><path class="cls-3" d="M24.94,33.47c0-.19.16-.06.19-.19s0,.09,0,.06.18-.12.3,0v0s0-.08,0-.07a.19.19,0,0,0,0,.05c0-.05,0,0,0-.08s0,.06,0,.08v-.06c0-.15.07,0,.09-.1a.1.1,0,0,0,0,0c0-.11.12-.11.19-.17a.36.36,0,0,0,0,.09c0-.07,0-.09,0-.11s0-.07.05,0v0c0-.07,0,0,0-.05l0,0c0-.1,0,0,0,0v0s0,0,0,0h0s.05,0,0-.06,0,0,0,.11a.4.4,0,0,1,.27-.13.21.21,0,0,1,0,.06s0,0,0-.06l0,0s0-.08,0-.06a.16.16,0,0,0,0,.07c0-.06,0-.06,0-.08a.12.12,0,0,0,0,0c0-.07,0,0,.05,0v0s0-.09,0-.07a.15.15,0,0,0,0,0c0-.08.05-.07.07-.1v0s.06,0,.08,0,0,.1,0,.08,0,0,0-.14.07,0,.08,0,0,.1,0,.11l0,0s0,0,0,0,0,0,0,0,0-.16,0-.18,0,.09,0,.11v-.17s0,.07,0,0a.18.18,0,0,1,0-.06s0,0,.06.05,0,0,0,0,0,0,0,0h0s0,0,0-.09,0,.05,0,0,0-.07,0-.07a.25.25,0,0,0,0,.06.26.26,0,0,1,.05-.13s0,.08,0,.05.06-.09.1,0,0-.06,0,0,0,.06,0,0,0,0,0,0,0,0,0,0,.06-.1.11-.05,0-.09,0-.09v.05s0,0,0,0-.06.07,0,0,0-.09,0,0,0-.07,0,0,0,.08,0,.07,0,0,0,0v0c0-.05,0,0,0-.05s0,0,0,.05v.07s0-.07,0-.11v0c0-.1,0,0,0-.08s.06,0,.08.06,0-.07,0-.06a.07.07,0,0,0,0,0s0,0,0,0a.51.51,0,0,0,.05.09.33.33,0,0,0,0-.12c0,.1,0-.07.07,0s0,.05,0,.08,0-.08.05,0l0-.08c0,.05,0-.06,0,0s0,0,0-.06.09-.06.14.09c0,0,0,0,0,0s0,0,0,0,0,0,0,0,0,0,0,.09,0-.15,0-.12,0,0,0,0v-.06s0,.08,0,.13,0,0,0-.05l0,.07c0-.05,0,0,0-.05v0s0,0,0,0a.09.09,0,0,0,0-.06s0,0,0-.05,0,0,0,0,0-.05,0-.05,0,0,0,0,0,0,0,0,0,.07,0,0,0-.11,0-.08a.43.43,0,0,0,0,.06l0,0v0c0-.06,0,0,0-.08s0,0,0,0h0s0,0,0,0h0s0,0,0,0,0,.2,0,.13,0-.1,0-.13.06-.06.1,0,0,0,0,0,.09-.08.14,0,0,.05,0,.08,0,0,0,0,0-.07,0-.09a0,0,0,0,1,.09,0,.06.06,0,0,1,0-.05c0,.08,0,.08,0,.06v0l0,0s0-.1,0-.05v0s0-.1,0-.07l0,.07a.07.07,0,0,0,0-.07s.05,0,.07.1c0-.15.11-.16.17-.16v0s0-.06,0,0,0,.07,0,.11,0-.06,0-.08,0,0,0,0,0,0,0,0a.43.43,0,0,1,0,.1v0c0,.08,0,.15,0,.24h0c0,.07,0,.08,0,.1a.36.36,0,0,0,0-.16s0-.16,0-.16,0,0,0,.07,0,0,0,0a.16.16,0,0,1,0-.11s0,.07,0,.07,0-.07,0-.1,0,0,0,0,0,.15,0,.18,0-.09,0-.17a.2.2,0,0,1,0,.1s0-.11,0,0V32l0,.07s0-.09,0,0,0,0,0-.07,0,0,0,0c0,.07,0,0,0,0v0s0,0,0,0a.1.1,0,0,0,0,.05V31.9s0,.1,0,.08v0s0,0,0,0v-.15s0,.06,0,0V32s0,.08,0,.08a.16.16,0,0,0,0-.12s0,0,0,.07,0-.05,0-.09L30,32v.09h0c0,.07,0,.05,0,.12s0,0,0,0,0-.16,0-.26,0,.25.06.09,0-.11,0-.08,0-.1,0-.06,0,.1,0,.17,0,0,0,0,0,.1,0,.1,0,0,0-.07,0,0,0-.05,0,.07,0,0,0-.05,0-.09l0,0v0s0-.07,0-.06l0,.08c0,.07,0,0,0,.08s0-.05,0,0v0s0,.15,0,.06,0,0,0-.08,0-.05.06-.06,0,0,0,.09-.06,0-.07,0,0,0,0,.08,0,.09,0,.16,0,0,0,0,0-.06,0-.12.05,0,.07-.07,0,.09,0,.09a.1.1,0,0,1,.1,0c0-.09,0,0,0-.1a.2.2,0,0,1,0-.13s0,0,0,.06,0,.08,0,0,0,.11,0,.19,0,.05,0,.05a.25.25,0,0,1,.07-.09c0,.07.08,0,.11,0s0,.12,0,.14,0-.09,0,0v0s0,.06.07-.06l0,.09s0,0,0,0a.22.22,0,0,1,0,.07c0,.06,0,0,.05,0v-.05s.05,0,.09,0l0,.05,0,0s0,.08,0,0l-.08.11s0-.06,0-.11,0,0,0,0,0,0,0,0,0,.06,0,.11,0,0,0,0,0,0,0,0,0,0,0-.07,0,.08,0,.06,0,0-.06,0a.46.46,0,0,1,.05-.14s0,0,0,0a.57.57,0,0,1,0,.15v0s0,.09,0,.08a.2.2,0,0,0-.1,0v0c0,.1-.06,0-.08.08s-.08,0-.1,0-.12.08-.19.06v-.07c0,.05,0,0,0,0s0,.07,0,.12-.07,0-.09.06v0c0,.09-.06,0-.09,0s0-.06,0-.06a.3.3,0,0,1,0,.13.11.11,0,0,1-.08,0c-.07.11-.15.05-.22.12v-.05c-.06.13-.17,0-.22.1v-.1s0,0,0,.1,0,.05-.07,0,0,0,0,.06-.06,0-.1,0h0s0-.06,0-.07-.06,0,0,.09c-.05-.06-.09.07-.14,0s0,0,0,.06-.08-.05-.11,0,0-.05,0-.05,0,0,0,.06-.13,0-.18,0-.19.06-.28.09v0c0,.09-.09-.08-.09.06,0,0,0,0,0,0s-.08,0-.1,0h0S28,33,28,33a.09.09,0,0,0,0,0s0,.1,0,0S28,33,28,33s-.17.06-.25.1,0-.18-.07-.09,0,0,0,0-.05-.12-.05-.06,0,0,0,.08-.06-.09-.08,0v0c0,.11-.07.06-.07.18-.19.06-.35.16-.53.21a2.87,2.87,0,0,1-.55.09c-.07-.08-.07-.08-.11,0a.07.07,0,0,0,0,0c0,.08,0,0,0,.09a.93.93,0,0,0-.2.06s0-.07,0-.07v0a.09.09,0,0,0,0,.07c-.15.11-.36,0-.52.08s-.09,0-.13.06-.29-.09-.39,0S24.9,33.54,24.94,33.47Z"/><path class="cls-3" d="M30.85,32.53a.28.28,0,0,1,0-.1A1.1,1.1,0,0,1,30.85,32.53Z"/><path class="cls-3" d="M30.49,32.09s0,0,0,0,0,0,0,0S30.49,32.07,30.49,32.09Z"/><path class="cls-3" d="M30.37,32.06a.08.08,0,0,1,0-.07Z"/><path class="cls-3" d="M30.26,31.92s0,0,0,0A.16.16,0,0,1,30.26,31.92Z"/><path class="cls-3" d="M30.25,32s0,0,0,0S30.26,31.94,30.25,32Z"/><path class="cls-3" d="M30,31.91s0,0,0,0S30,31.86,30,31.91Z"/><path class="cls-3" d="M29.91,32h0a0,0,0,0,1,0,0Z"/><polygon class="cls-3" points="28.04 32.35 28.05 32.33 28.05 32.36 28.04 32.35"/><path class="cls-3" d="M27.23,32.5s0,0,0,0S27.21,32.51,27.23,32.5Z"/><polygon class="cls-3" points="26.83 32.76 26.83 32.76 26.84 32.83 26.83 32.76"/><path class="cls-3" d="M24.13,27.12s-.05-.05,0,0S24.16,27.14,24.13,27.12Z"/><path class="cls-3" d="M29.75,30.78a.28.28,0,0,1-.24,0c-.07,0-.16,0-.19.08s0-.11-.07-.06c0,.21-.23.25-.43.23v0s0,.11,0,.11,0,0,0-.05,0,.06,0,.11-.05-.06-.08-.07l0,.07c.06.18-.11.06-.11.17a.09.09,0,0,0,0,0c0,.15-.16.2-.25.3a.32.32,0,0,0,0-.09.12.12,0,0,1,0,.14c-.05-.07,0,.09-.07.07v0c0,.09-.06,0,0,.08l0-.05c0,.11-.06,0-.06,0v0s0,0-.06,0h0s-.08,0-.05.08,0,0,0-.14a.65.65,0,0,1-.44.2.19.19,0,0,1,0-.08s-.06,0-.07.07,0,0,0,0,0,.1-.06.06a.14.14,0,0,0,0-.09c0,.07-.06.06-.1.08a.1.1,0,0,0,0-.05c0,.08-.06,0-.1,0l0-.05c0-.06,0,.11-.08.06s0,0,0-.05-.12,0-.17,0v0s-.08,0-.14,0,.05-.12,0-.12-.09,0-.11.13c0,0-.07-.09-.11-.07s0-.12.07-.12v-.07s0,0,0,0-.08,0-.08,0-.13.14-.18.13,0-.11.06-.12l-.16.15s0-.07,0-.06a.17.17,0,0,1,0,.05s-.08,0,0-.1,0,0,0,0,0,0-.07,0h0s-.07,0-.08.07,0-.06,0,0a.09.09,0,0,1-.11,0s0,0,.05-.06a.32.32,0,0,1-.19,0s.06-.07.06,0-.16,0-.14-.1,0,.06,0,0,0-.08,0-.07,0,0-.05,0,0,0,0,0-.17,0-.18-.09-.09.06-.1,0l0,0s0,0,0-.07.14,0,.07,0-.11,0,0,0-.09,0-.08,0,.07-.05.05-.07,0,0-.07,0h0s0,0-.06,0-.07,0,0-.09l.06-.06s-.08,0-.11.07l0,0c-.08.09,0,0-.11,0s-.07-.07,0-.14-.1,0-.1,0l0,0s0,0,0,0,0-.08,0-.13-.09.06-.12.09-.11,0-.06-.1.07,0,.08-.05-.1,0-.09,0l-.07.08c0-.06-.09,0,0-.07s0-.06-.08,0c0-.11-.15-.09,0-.24,0,0,0,0-.06,0s0,0,0,0l0,0s0,0,.07-.09-.16.08-.17,0,0,0,0,0l-.08,0s.06-.08.11-.12,0,0-.08,0l.05-.08c0,.06,0,0-.06,0h0s0,0,0,0a.1.1,0,0,0,0,.08h-.07c.06,0,0-.06,0-.07s-.06,0-.06,0,0,0,0,0,0,0,0,0,.06-.06,0-.06-.1.09-.09,0l.07,0v0l-.05,0,0,0c-.06,0,0,0-.11,0s0-.06,0-.07h0s0,0-.06,0h0s0,0-.06,0,.19-.14.11-.12-.12,0-.15.06S24,29.9,24,29.8s0,0-.06,0-.15-.1-.07-.21.05,0,.09,0,0,0,0,0-.07,0-.08.07a.08.08,0,0,1,0-.12.06.06,0,0,1-.06,0c.08,0,.08-.08,0-.08l0,0,0,0s-.1.05-.07,0l0,0c-.05,0-.13,0-.11,0l.06-.06s-.06,0-.07,0,0-.09.06-.14A.23.23,0,0,1,23.4,29l0,0s-.07,0-.05,0,.06-.07.11-.07-.08,0-.11,0,0,0,0,0,0-.07-.06,0a.35.35,0,0,1,.11-.06h0c.07-.08.17,0,.26-.12h0c.07-.06.1,0,.11-.06a.31.31,0,0,0-.18.08s-.18.08-.19,0,0,0,.08,0-.05,0,0-.06a.13.13,0,0,1-.12.05s.07,0,.07-.06-.09,0-.11,0,0-.05-.07,0,.17,0,.19-.1-.11,0-.2.07a.17.17,0,0,1,.11-.06s-.14,0,0-.07l-.07,0,.06-.07s-.12,0,0-.07,0,0-.09,0,.06,0,0,.07c.07-.06,0,0-.06,0l0,0s0,0-.07,0a.08.08,0,0,0,.06,0l-.06,0s.1-.06.07-.09h.06s0,0,0,0l-.18,0s.06,0,0,0h.08s.08-.06.07-.08-.12,0-.14,0,0,0,.07-.05-.06,0-.11,0l.12-.12h.11v0c.09,0,.05,0,.14,0s0,0-.05,0-.19,0-.3.08.28-.13.07-.12c0,0-.13,0-.08,0s-.12,0-.09,0,.11-.07.19-.06,0,0,0,0,.12,0,.11-.07,0,0-.09,0,0,0-.05,0,.06-.07-.06,0,0,.05-.1.07l0,0h0c0-.06-.09,0-.09,0l.08-.05c.08,0,0,.07.11,0s-.07,0,0-.05h0s.16-.08.05-.09,0,0-.09,0-.08,0-.1-.06,0-.05.09-.06c0,0,0,.1.07.08s0,0,.11,0,.09-.07.16-.11,0,0,0,0a1.25,1.25,0,0,0-.13.06s0-.07-.12-.07.09,0,.11,0l0-.05L23,27.26l.21-.1.09,0c-.07-.09,0,0,0-.12a.2.2,0,0,1-.09-.13s0,0,0,.07.07.08,0,0c0,.05,0,.13.07.22s0,.06.05,0A.36.36,0,0,1,23.4,27c.08.06.1,0,.14-.07s.07.13.1.13-.07-.09,0-.06v0s.1,0,0-.1l0,.1s0,0,0,0,0,.06,0,.08,0,0,.07,0l0,0c0-.06.08,0,.11-.06l0,.06v0c0,.06.06.08.05,0v.17s0-.08-.06-.12-.06,0,0,0,0,0,0,0,0,.08,0,.14,0,0,0,0,0,.06,0,.07,0,0,0-.07,0,.1,0,.1,0,.08-.08.08a.49.49,0,0,1,0-.18s0,0-.06,0a.45.45,0,0,1,0,.19l0-.05s0,.12,0,.12a.69.69,0,0,0-.18,0l0-.05c0,.13-.07.08-.08.15a.07.07,0,0,0-.07,0l.11-.26s.06.06,0,.11a.57.57,0,0,1,.17.28h-.08c.06,0,0,0,0,0s.09,0,.14,0,0,.11.12.12l-.05,0c.12,0,0,.08,0,.14s-.07,0-.05.06a.32.32,0,0,1,.16,0,.19.19,0,0,1,0,.13c.16,0,.12.19.23.26l-.05,0c.16,0,.15.24.26.29l-.1.05s.07.05.13,0,.09,0,0,.11.07,0,.1,0a.15.15,0,0,0,.07.15v0s-.07,0-.07,0,0,.09.13,0c0,.1.14.11.07.21s0,0,.07,0,0,.13.07.13-.06,0-.05,0,0,0,.07,0,0,.19.11.24.22.21.32.31l0,0c.11,0,0,.16.14.07,0,0,0,0,0,.07s0,.13.13.1h0c0,.08.09.06.09.14l0,0c0,.05.12,0,0,.06s.05,0,0,0,.22.15.34.21-.13.18,0,.15,0,0,0,0-.05.15,0,.1,0,0,.07-.07,0,.14.06.12l0,0c.11-.07.13,0,.24-.07a4.07,4.07,0,0,0,.77.26l.18.07s0,0,0,0l.31,0c.09.09.1.08.14,0s0,0,0,0,0,0,0-.11a1,1,0,0,0,.26-.13s0,.09,0,.07v-.06l0,0A.1.1,0,0,0,28,31c.18-.19.51-.18.72-.37.08,0,.13-.09.18-.16a1.29,1.29,0,0,1,.63-.07,1.67,1.67,0,0,1,.56.22A.83.83,0,0,1,29.75,30.78Z"/><path class="cls-3" d="M24.1,27.15S24,27.1,24,27A1.26,1.26,0,0,1,24.1,27.15Z"/><path class="cls-3" d="M23.27,27l0,0s0,0,0,0S23.27,27,23.27,27Z"/><path class="cls-3" d="M22.94,27.52h0l.22-.5a.09.09,0,0,1,0-.05l0,.07-.2.47Z"/><path class="cls-3" d="M22.83,27.73s0,0-.05,0Z"/><path class="cls-3" d="M22.93,27.71s0,0,0,0S22.86,27.73,22.93,27.71Z"/><path class="cls-3" d="M22.93,28.08s0,0,0,0S22.87,28.1,22.93,28.08Z"/><path class="cls-3" d="M23.06,28.23s0,0,0,0a0,0,0,0,1-.05,0Z"/><polygon class="cls-3" points="24.86 30.83 24.83 30.83 24.86 30.8 24.86 30.83"/><path class="cls-3" d="M25.95,31.7s0,0,0,0S26,31.71,25.95,31.7Z"/><polygon class="cls-3" points="26.71 31.86 26.7 31.86 26.73 31.79 26.71 31.86"/><path class="cls-3" d="M28.24,31.89s0,.05,0,0S28.23,31.88,28.24,31.89Z"/><path class="cls-3" d="M31,31.47c0,.18-.08,0-.12.1s0-.1,0-.07-.09,0-.13-.06v0s0,.07,0,.06v-.05c0,.06,0,0,0,.07v0c0,.15,0,0-.06.06a.2.2,0,0,0,0,0c0,.09-.07.07-.11.11V31.5c0,.07,0,.08,0,.1s0,.06,0,0v0c0,.07,0,0,0,0v-.05c0,.1,0-.05,0,0v0s0,0,0,0h0s0,0,0,0,0,0,0-.12c0,.08-.09.06-.13.06a.43.43,0,0,1,0-.07s0,0,0,.05v0s0,.08,0,0a.35.35,0,0,0,0-.07.1.1,0,0,1,0,.07v0c0,.07,0,0,0,0v0c0-.05,0,.09,0,.06a.32.32,0,0,0,0,0c0,.08,0,.05,0,.08v0s0,0,0,0,0-.11,0-.09,0,0,0,.14,0,0,0,0a.9.9,0,0,1,0-.11v-.05s0,0,0,0,0,0,0,0a.75.75,0,0,1,0,.17s0-.1,0-.11v.17s0-.07,0,0v.06s0,0,0-.06,0,0,0,0,0,0,0,0h0s0,0,0,.08,0-.05,0,0,0,.07,0,.07v-.06a.41.41,0,0,1,0,.12s0-.07,0-.05,0,.08,0,0a.36.36,0,0,1,0,0s0-.06,0,0,0,0,0,0,0,0,0,0,0,.09,0,0a.56.56,0,0,1,0,.08v-.05s0,0,0,0,0-.06,0,0,0,.09,0,0,0,.06,0,0,0-.07,0-.07,0,0,0,0v0c0,.05,0,0,0,.05s0,0,0-.06v-.07a.88.88,0,0,0,0,.1v0c0,.1,0,0,0,.07s0,0,0-.06,0,.07,0,.05a.14.14,0,0,0,0,0s0,0,0,0a.9.9,0,0,0,0-.09.74.74,0,0,0,0,.12c0-.1,0,.07,0,0a.22.22,0,0,0,0-.08c0-.1,0,.08,0,0l0,.08c0-.05,0,.05,0,0s0,0,0,.06,0,.05-.07-.09c0,0,0,0,0,0s0,0,0,0v0a.2.2,0,0,1,0-.09s0,.14,0,.11,0,0,0,0v.06a.54.54,0,0,1,0-.13s0,0,0,.05l0-.07c0,.05,0,0,0,.05h0s0,0,0,0a.17.17,0,0,0,0,.06v.05c0-.06,0,0,0,0s0,.05,0,.05,0,0,0,0,0,0,0,0,0-.07,0,0,0,.11,0,.08v-.06l0,0v0c0,.05,0,0,0,.08s0,0,0,0h0s0,0,0,0h0s0,0,0,0-.05-.19,0-.13a.45.45,0,0,0,0,.13s0,.06,0,0a.28.28,0,0,1,0,0s0,.07-.06,0a.37.37,0,0,0,0-.08s0,0,0,0a.39.39,0,0,0,0,.08s0,0,0,0a.15.15,0,0,1,0,0c0-.07,0-.08,0-.05v0l0,0s0,.09,0,.05l0,0s0,.1,0,.07l0-.06a.17.17,0,0,0,0,.06.33.33,0,0,1-.05-.09c0,.14,0,.16,0,.15v0s0,.06,0,0,0-.07,0-.11,0,.06,0,.08,0,0,0,0,0,0,0,0l0-.1v0c0-.07,0-.14-.07-.23h0c0-.07,0-.08,0-.1a.79.79,0,0,0,0,.16s0,.16,0,.16,0,0,0-.06,0,0,0,0a.38.38,0,0,1,0,.1s0-.06,0-.07a.36.36,0,0,0,0,.09c0,.09,0,0,0,0a1.4,1.4,0,0,0-.06-.17c0,.06,0,.08.05.16a.49.49,0,0,1,0-.1s0,.11,0,0l0,.06,0-.06s0,.08,0,0,0,0,0,.07,0,0,0,0,0,0,0,0v0a.1.1,0,0,0,0,0l0-.05,0,.05s0-.09,0-.07v0s0,0,0,0l0,.14s0-.05,0,0v-.06s0-.08,0-.07a.37.37,0,0,0,0,.11.2.2,0,0,1,0-.06s0,.05,0,.08l-.06-.11,0-.08h0c0-.07,0,0,0-.11s0,0,0,0,0,.15.09.25-.1-.23-.05-.08,0,.1,0,.07,0,.1,0,.06,0-.1-.06-.16,0,0,0,0,0-.1,0-.09,0,0,0,.07,0,0,0,0,0-.06,0,0,0,0,0,.08v0s0,.07,0,.06l0-.07c0-.06,0,0,0-.08s0,.05,0,0v0s-.06-.14,0-.05a.36.36,0,0,0,0,.07s0,.06,0,.07,0,0,0-.08,0,0,0,0,0,0,0-.08a.58.58,0,0,1-.07-.14s0,0,0,0l0,.11s0,0,0,.08a.3.3,0,0,1,0-.09s0,0,0,0,0,0,0,.1a.46.46,0,0,1,.06.12.42.42,0,0,1,0-.06c0,.05,0-.07,0,0a1,1,0,0,0-.07-.18s0,0,0,0a.32.32,0,0,1,0,.09c0-.06,0,0,0,0s0-.11-.06-.12,0,.08,0,0v0s0,0,0,.07l0-.08s0,0,0,0l0-.07c0-.06,0,0,0,0l0,0s0,0,0,0l0,0v0s0-.08,0,0l0-.13s0,.06,0,.11,0,0,0,0,0,0,0,0a.71.71,0,0,1,0-.11s0,0,0,0,0,0,0,0a.42.42,0,0,0,0,.06c0-.06,0-.08,0-.07s0-.05,0,0a1,1,0,0,1,0,.14s0,0,0,0a1,1,0,0,1,0-.15l0,0s0-.09,0-.08a.09.09,0,0,0,.06,0l0,0c0-.1,0,0,0-.09s0-.06.06,0,0-.09.06-.08l0,.07s0,0,0,0a.37.37,0,0,1,0-.11s0,0,0-.07l0,0c0-.09,0,0,0,0s0,.06,0,.05a.46.46,0,0,1,0-.12s0,0,0,0,.06-.06.07-.14l0,.05c0-.13.07,0,.08-.1l0,.09s0,0,0-.09,0-.05,0,0,0,0,0-.06,0,0,0,0h0a.2.2,0,0,0,0,.06s0,0,0-.09c0,.06,0-.07.08,0a.23.23,0,0,1,0-.06s.05,0,.05,0,0,.05,0,.05,0,0,0-.06.07,0,.1,0,.09-.05.13-.07v0c0-.09.05.08,0-.05,0,0,0,0,0,.05s0,.05,0,0a0,0,0,0,0,0,0s0,0,.06,0a.15.15,0,0,0,0,0s0-.1,0,0v-.05s.08,0,.12-.07,0,.18,0,.1,0,0,0,0,0,.12,0,.06a.42.42,0,0,1,0-.08s0,.1,0,0v0c0-.1,0-.05,0-.17a2.55,2.55,0,0,1,.28-.12c.1,0,.19,0,.28,0s0,.09,0,.05a.13.13,0,0,0,0,0c0-.08,0,0,0-.08s.07,0,.1,0,0,.07,0,.07v0a.18.18,0,0,0,0-.07c.09-.07.17.1.26.08s0,0,.07,0,.11.2.18.13A1.05,1.05,0,0,1,31,31.47Z"/><path class="cls-3" d="M28.25,31.88a.48.48,0,0,1,0,.1Z"/><path class="cls-3" d="M28.58,32.18v0s0,0,0,0Z"/><path class="cls-3" d="M28.63,32.18a.11.11,0,0,1,0,.07Z"/><path class="cls-3" d="M28.72,32.29s0,0,0,0Z"/><path class="cls-3" d="M28.7,32.22l0,0S28.72,32.28,28.7,32.22Z"/><path class="cls-3" d="M28.82,32.28s0,0,0,0S28.84,32.33,28.82,32.28Z"/><path class="cls-3" d="M28.85,32.22s0,0,0,0a.18.18,0,0,1,0,0Z"/><polygon class="cls-3" points="29.56 31.86 29.56 31.88 29.56 31.84 29.56 31.86"/><path class="cls-3" d="M29.91,31.81s0,0,0,0S29.91,31.8,29.91,31.81Z"/><polygon class="cls-3" points="30.08 31.62 30.08 31.62 30.08 31.55 30.08 31.62"/><path class="cls-3" d="M30.8,7.1s0,.05,0,0S30.81,7.08,30.8,7.1Z"/><path class="cls-3" d="M29.86,8.38c.18,0,0,.1.17.09s-.09,0-.06,0,.1.08,0,.19h0s.08,0,.07,0l0,0s0,0,.07,0L30,8.79l.06,0c.14-.07,0,0,.1,0l0,0c.1,0,.11,0,.17,0l-.07.06c.05,0,.08,0,.09,0s.06,0,0,0h0c.06,0,0,0,0,0l0,0c.07-.06,0,0,0,0h0s0,0,0,0h0s0,0,.05,0,0,0-.08.08.12,0,.18.05l0,.06s0,0,0,0v0s0-.07,0,0l0,.06s0,0,.06,0l0,0c0-.05,0,0,0,0l0,0c0,.05,0-.08,0-.05l0,0c0-.07.05,0,.07-.07v0s0,0,0,0,0,.11,0,.09,0,0,0-.13,0,0,0,0,0,.11,0,.12v.05s0,0,0,0,0,0,0,0a1.36,1.36,0,0,1,0-.17s0,.09,0,.11a1.38,1.38,0,0,0,0-.17s0,.07,0,0V9s0,0,0,.05,0,0,0,0,0,0,0,0h0s0,0,0-.08,0,0,0,0,0-.06,0-.07L31,9l0-.11,0,0s0-.07,0,0l0,0s0,0,0,0,0,0,0,0v0s0-.08,0-.05l-.06-.06,0,0s0,0,0,0,0,.05,0,0-.06-.06,0,0,0,0,0,0l.06,0s0,0,0,0l0,0s0,0,0,0,0,0,.06,0l.06,0L31,8.79h0c-.09-.05,0,0-.06,0s0,0,.07,0-.06,0,0,0l0,0s0,0,0,0l.1,0L31,8.7c.1,0-.06,0,0,0l.07,0c.1,0-.07,0,0,0l-.08,0c.05,0,0,0,0,0s0,0-.05,0c.07,0,0,0,.12,0,0,0,0,0,0,0s0,0,0,0h.06c.05,0-.14,0-.11,0h0l-.06,0h.14s0,0,0,0h.07c-.05,0,0,0,0,0h0s0,0,0,0h-.11c.06,0,0,0,0,0h0s0,0,0,0,.07,0,0,0-.11,0-.08,0h.06c-.05,0,0,0-.08,0l0,0h0s0,0,0,0h0s.2,0,.13,0H31s-.05,0,0,0h0s-.06,0,0-.07l.08,0s0,0,0,0l-.09,0s0,0,0,0h0c.07,0,.08,0,.05,0h0l0,0s-.09,0-.05,0h0s-.1,0-.07,0l.06,0-.07,0A.33.33,0,0,1,31,8.1c-.14,0-.15,0-.16,0h0s-.06,0,0,0L31,8s-.06,0-.08,0,0,0,0,0,0,0,0,0l.1,0h0c.07,0,.14,0,.23-.09h0c.06,0,.08,0,.1,0l-.15.06s-.15.06-.15,0,0,0,.06,0,0,0,0,0l-.1,0s.06,0,.06,0a.31.31,0,0,0-.09,0c-.08,0,0,0,0,0a1.23,1.23,0,0,0,.16-.08,1.54,1.54,0,0,0-.16.07l.09,0s-.1,0,0,0l-.06,0,.06,0s-.08,0,0,0,0,0-.07,0,0,0,0,0,0,0,0,0l0,0h0l0,0,0,0s.08-.05.06-.05l0,0s0,0,0,0l-.13.07s0,0,0,0l.06,0s.07,0,.06-.05a.33.33,0,0,0-.1.06l.05,0-.08,0,.1-.09.08,0h0l.1-.07h0c-.09.07-.14.07-.22.14s.2-.15.06-.07-.09.06-.06,0-.09.05-.06,0,.08-.07.14-.09,0,0,0,0,.09-.06.08-.07,0,0-.06,0,0,0,0,0,0-.05,0,0,0,0-.07.06h0l0,0s-.06,0-.06,0l.06-.05c.06,0,0,0,.07,0s0,0,0,0h0s.11-.1,0-.06l-.06,0h-.06c.06,0,0,0,.07-.06s0,0,0,0,0,0,.07,0,.07-.07.12-.11h0l-.09.07s0,0-.08,0l.07-.06s0,0,0,0,0,0-.08.06a.37.37,0,0,1-.09.09l0,0s.05-.06,0,0,.09-.07.15-.12,0,0,0,0l-.09,0c0-.06,0,0,0,0s.08-.08.09-.1-.06.07,0,0h0s0-.06-.07,0l.07-.06h0l.05-.05c0-.05,0,0,0,0l0,0s0,0,0,0l0,0,0,0s.05-.07,0,0l.11-.07s0,0-.08.08,0,0,0,0h0a.48.48,0,0,1,.09-.08s0,0,0,0,0,0,0,0,0,0,0,0,.07-.05.06,0,.05,0,0,0l-.12.08s0,0,0,0a.7.7,0,0,1,.12-.09l0,0s.08-.06.08,0a.16.16,0,0,0,0,.07l0,0c.08-.06.05,0,.1,0s.07,0,0,.08.11,0,.12.07l-.06,0s0,0,0,0,.07,0,.1-.05,0,0,.08,0l0,0c.09,0,0,0,0,.06s-.05,0,0,0a.3.3,0,0,1,.12,0,.08.08,0,0,1,0,.07c.12,0,.08.08.17.1l0,0c.14,0,.06.11.13.14l-.09,0s0,0,.1,0,.06,0,0,.06,0,0,.06,0,0,0,0,.07h0l-.07,0s0,0,.09,0c-.06,0,.06.07,0,.12h.06s-.06.07,0,.09-.05,0-.06,0h.06c.06,0,0,.1,0,.14s0,.17,0,.24h0c.08,0-.1,0,0,.09s0,0-.06,0-.07,0,0,.09h0c-.06,0,0,.06-.05.08l0,0s.07.07,0,0l0,0c-.07,0,0,.15-.08.24s-.15-.11-.12,0,0,0,0,0-.11-.06-.08,0,0,0,.05.06-.1,0-.09,0l0,0c0,.1,0,.08,0,.19a.87.87,0,0,1-.64.23.83.83,0,0,1-.52-.28c0-.1,0-.1,0-.1l0,0c-.05.06,0,0-.08,0s-.09-.08-.13-.12.06,0,.05,0l0,0,0,0a.12.12,0,0,0-.06,0c-.14-.08-.1-.28-.18-.38s0-.07-.06-.09.09-.24,0-.3A.82.82,0,0,1,29.86,8.38Z"/><path class="cls-3" d="M30.82,7.11a.36.36,0,0,1-.07.09Z"/><path class="cls-3" d="M30.72,7.57v0s0,0,0,0Z"/><path class="cls-3" d="M30.74,7.63l-.06,0Z"/><path class="cls-3" d="M30.66,7.76l0,0Z"/><path class="cls-3" d="M30.72,7.71l0,0S30.67,7.75,30.72,7.71Z"/><path class="cls-3" d="M30.7,7.86s0,0,0,0S30.66,7.88,30.7,7.86Z"/><path class="cls-3" d="M30.77,7.87s0,0,0,0l0,0Z"/><polygon class="cls-3" points="31.07 8.67 31.05 8.66 31.08 8.67 31.07 8.67"/><path class="cls-3" d="M30.9,8.91l0,0Z"/><polygon class="cls-3" points="30.77 9.11 30.78 9.11 30.77 9.18 30.77 9.11"/><path class="cls-3" d="M30.61,1.86a1.27,1.27,0,0,0-1.49-.5.54.54,0,0,0-.17-.3.93.93,0,0,0-.63-.17A3.56,3.56,0,0,0,27.6,1l-.32.08A.46.46,0,0,0,27,.82c-.33-.23-.81.15-.69.58a1,1,0,0,0,.23.42,3,3,0,0,0,.48.72c.34.38,1,.08.82-.45l-.08-.16a1.89,1.89,0,0,1,.5-.11,1.32,1.32,0,0,0,.49.72.48.48,0,0,0,.76-.29c0-.18.32.14.33.16C30.22,2.9,31,2.34,30.61,1.86Z"/><path class="cls-3" d="M31.45,7.79l-.15-.3a.47.47,0,0,0-.84,0c-.3-.05-.64.16-.54.54s.18.61.27.92a.49.49,0,0,0,.73.29A.41.41,0,0,0,31.2,9a2.91,2.91,0,0,0,.11-.61A.43.43,0,0,0,31.45,7.79Z"/><path class="cls-4" d="M3.19,21.72a.43.43,0,0,1,.19,0,.4.4,0,0,1,.26.09.43.43,0,0,1,.15.42,3.44,3.44,0,0,0,.29,2.66,3.86,3.86,0,0,0,2.11.74l.61.11a4.17,4.17,0,0,0,.87.07,7.54,7.54,0,0,0,1.84-.28,3.59,3.59,0,0,0,.5-.21c.27-.12.58-.26.88-.37m1,1.14-.07,0a12.65,12.65,0,0,1-3.92.68,5.75,5.75,0,0,1-4.47-2.09"/><path class="cls-3" d="M11.9,26.18s0-.05,0,0S11.93,26.2,11.9,26.18Z"/><path class="cls-3" d="M3.41,24.81c.22-.07.18.18.36.17,0,0-.08.08,0,.08.2,0,.26.15.29.34l0,0s.1,0,.11,0,0,0,0,0,.06,0,.1,0,0,.07,0,.1l.06,0c.14-.11.08.08.18,0l0,0c.14,0,.23.07.34.1a.33.33,0,0,0-.06.08.12.12,0,0,1,.12-.05c0,.07.08,0,.09,0h0c.07-.05,0,.06.08,0l0,.06c.07-.09,0,.07,0,0v0s0,0,0,0h0c.05,0,0,.06.09,0s-.05,0-.09.1a.87.87,0,0,1,.41.15.22.22,0,0,1,0,.08s.05,0,.09,0,0,0,0,.05.07-.07.08,0a.15.15,0,0,0,0,.07c.05-.05.08,0,.11,0a.11.11,0,0,0,0,0c.06-.06,0,0,.09,0l0,0c0,.07.06-.09.08,0a.13.13,0,0,0,0,0c.07-.07.11,0,.15,0v0s.07,0,.12,0,0,.11,0,.11.08,0,.1-.13.07.08.1.06,0,.12-.05.12v.06s0,0,0,0,.07,0,.08,0,.1-.15.15-.15,0,.11,0,.12l.11-.17s0,.08,0,.06a.18.18,0,0,1,0-.06s.06,0,0,.09,0,0,0,.05,0,0,.06,0h0s.06,0,.06-.09,0,.06,0,0,.06-.06.08-.05a.24.24,0,0,0,0,.07.36.36,0,0,1,.14-.11s0,.08,0,.06.12-.07.14,0,0-.07,0-.05,0,.08,0,.06,0,0,0,0,0,0,0,0,.13-.08.17,0,0-.09.06-.09v.06s0,0,0,.05-.11,0-.06,0,.06-.09,0,0,.06-.06.07,0,0,.08,0,.08,0,0,0,0l0,0c0-.06,0,0,0-.06s.05,0,0,.07v.08s0-.08,0-.11a.13.13,0,0,1,0,0c0-.12,0,0,.06-.08s.08,0,.09.08,0-.08.07-.05a.07.07,0,0,0,0,0s0,0,0,0,0,.07,0,.12a.31.31,0,0,0,0-.14c0,.12.07-.08.09,0s0,.06,0,.09,0-.09.08,0v-.1c0,.06.05-.06,0,0s0,0,0-.06c.06.08.14-.05.18.12,0,0,0,0,0,0s0,0,0,0,0,0,0,0,0,0,0,.11,0-.17.09-.13,0,.05,0,0l0-.07s0,.09,0,.16,0,0,0-.06l0,.08c0-.06,0,0,0-.06v0s0,0,0,0a.1.1,0,0,0,0-.07s0,0,0-.06,0,0,0,.05,0-.06,0-.06,0,0,0,.05,0,0,0,0,0,.08,0,0,0-.13,0-.09a.43.43,0,0,0,0,.07l0,0v-.06a.14.14,0,0,1,0,0c0-.06,0,0,0-.09s0,0,0,0h0s0,0,.05,0h0s0,0,0,0,0,.23,0,.15,0-.11,0-.15.09-.07.14,0,0,0,0-.06.13-.08.19,0,0,.06,0,.09,0,.05,0,0,0-.08,0-.1a.07.07,0,0,1,.12,0,.06.06,0,0,1,0-.06c0,.09,0,.1.05.06v-.05l0,.05s0-.11,0-.06a.3.3,0,0,0,0,.06s0-.12.07-.08l0,.07a.07.07,0,0,0,0-.08s.07,0,.1.11c0-.17.15-.19.23-.19v0s0-.07,0,0,0,.08,0,.13,0-.07,0-.1,0,0,0,0,0,0,0,0a.41.41,0,0,1,0,.12v0c0,.09,0,.17,0,.28l0,0c0,.08,0,.1,0,.12a.33.33,0,0,0,0-.19s0-.19,0-.19,0,0,0,.08,0,0,.06,0a.16.16,0,0,1,0-.12s0,.08,0,.08,0-.08,0-.11,0,0,0-.06c0,.07,0,.17,0,.2s0-.1,0-.2a.2.2,0,0,1,0,.12s0-.13.05,0v-.07l0,.07s0-.11.05,0,0,0,0-.09,0,.06,0,0c0,.08,0,0,0,0v0s0,0,0-.06a.1.1,0,0,0,0,.06v-.06s0,.11.06.08v.05s0,0,0,0v-.17s0,.06,0,0V26s0,.09.06.08,0-.11,0-.14,0,0,0,.07,0-.06,0-.1l.09.13v.1h0c0,.08,0,.05,0,.14s0,0,0,0,0-.18,0-.3.09.28.1.08c0,0,0-.12,0-.08s0-.12,0-.08.05.11,0,.19,0,0,0,0,0,.12.05.11,0,0,0-.08,0,0,0-.06.06.07,0-.05,0-.05-.05-.1l0,0v0s0-.08,0-.08l0,.08c0,.08-.06,0,0,.1s0-.07.05,0v0s.06.16.07.06,0,0,0-.09,0-.07.06-.09,0,0,0,.1-.08,0-.08.06,0,0,0,.1.06.1.08.17,0,0,0,0a1.31,1.31,0,0,0,0-.13s.07,0,.07-.1,0,.09,0,.1a.17.17,0,0,1,.13,0c-.06-.1,0,0,0-.12a.21.21,0,0,1-.07-.14s0,0,0,.07.05.08,0,0,0,.13,0,.21,0,.06,0,.05a.32.32,0,0,1,.07-.13c.06.07.1,0,.14,0s0,.13.07.14,0-.09,0-.06v0s.08,0,.05-.09l0,.1s0,0,0,0,0,.06,0,.08,0,0,.06,0l0-.05c0-.06.07,0,.1,0l0,.06v0c0,.06.05.08,0,0v.16s0-.07,0-.13-.06,0,0,0,0,0,0,0,0,.08,0,.14,0,0,0,0,0,.06,0,.07,0,0,0-.07,0,.1,0,.09,0,.07-.08.06a.48.48,0,0,1,0-.17s0,0-.06,0a.45.45,0,0,1,0,.18l0-.05s0,.11,0,.11a.61.61,0,0,0-.17,0l0-.05c0,.12-.07.06-.09.12s-.11.08-.16,0a.48.48,0,0,1-.27.13v-.08c0,.06,0,0,0,0s0,.09,0,.14-.1,0-.13.09v-.05c0,.11-.09,0-.14,0s0-.07,0-.06a.3.3,0,0,1-.06.15.17.17,0,0,1-.12,0c-.09.15-.22.09-.33.18l0-.06c-.09.16-.25.05-.34.14v-.11s-.07,0,0,.12-.07.06-.1,0,0,.06-.06.07a.13.13,0,0,0-.15,0h0s0-.07,0-.08-.09,0,0,.11c-.07-.07-.14.08-.22,0s0,0,0,.07-.12-.06-.16,0,0-.06,0-.06,0,0,0,.07-.19-.06-.27,0a1.08,1.08,0,0,1-.44.07v0c0,.1-.11-.1-.15.05,0,0,0,0,0-.06s-.11-.07-.17,0h0c-.06-.06-.11,0-.17,0a.09.09,0,0,0,0,0c0-.05-.06.11-.07,0s0,.06,0,.06-.28,0-.42,0S7,27,6.92,27s0,0,0,0,0-.15-.06-.08,0,0,0,.09-.05-.13-.11-.08v0c-.08.1-.13,0-.2.15a4.59,4.59,0,0,1-.93-.17,3,3,0,0,1-.8-.44c0-.13,0-.13-.1-.13s0,0,0,0-.05,0-.1,0a2.78,2.78,0,0,0-.28-.18s.07-.05,0-.06l-.05,0v0a.08.08,0,0,0-.06.06c-.29-.11-.4-.43-.62-.59,0-.07-.12-.11-.18-.15-.08-.23-.14-.43-.35-.52C3.13,24.93,3.31,24.79,3.41,24.81Z"/><path class="cls-3" d="M11.87,26.21s-.06,0-.06-.11S11.85,26.17,11.87,26.21Z"/><path class="cls-3" d="M11.13,26l0,0s0,0,0,0S11.12,26,11.13,26Z"/><path class="cls-3" d="M11,26a.09.09,0,0,1,0-.09Z"/><path class="cls-3" d="M10.79,25.87s0,0,0-.05A.18.18,0,0,1,10.79,25.87Z"/><path class="cls-3" d="M10.8,26s0,0,0,0S10.79,25.89,10.8,26Z"/><path class="cls-3" d="M10.47,25.92s0,0,0,0S10.46,25.86,10.47,25.92Z"/><path class="cls-3" d="M10.34,26s0,0,0,0a.05.05,0,0,1,0-.05Z"/><polygon class="cls-3" points="7.71 26.46 7.73 26.44 7.72 26.48 7.71 26.46"/><path class="cls-3" d="M6.58,26.33s0,0,0,0S6.57,26.33,6.58,26.33Z"/><polygon class="cls-3" points="5.93 26.33 5.94 26.33 5.91 26.41 5.93 26.33"/><path class="cls-3" d="M3.16,21.58s.06.06,0,0S3.13,21.57,3.16,21.58Z"/><path class="cls-3" d="M10.73,24.86c0,.24-.28.11-.36.29,0,0,0-.11-.06-.07-.06.2-.3.2-.5.14v0s0,.1-.07.1,0,0,0-.06,0,.05,0,.1,0-.07-.06-.09v.08c0,.19-.12,0-.16.15s0,0,0,0-.23.15-.35.22a.28.28,0,0,0,0-.1.11.11,0,0,1-.06.13c0-.07,0,.08-.09,0v0c0,.09-.05,0-.06.06l0-.06c0,.11-.05,0-.07,0v0s0,0-.06,0h0s-.09,0-.07.07c0-.07,0,0,0-.13a.91.91,0,0,1-.5.14.19.19,0,0,1,0-.07s-.06,0-.07.07,0,0,0,0,0,.1-.06.06a.13.13,0,0,0,0-.08c0,.07-.06.06-.1.08a.09.09,0,0,0,0-.05c0,.08-.07,0-.1,0v-.05c-.05-.06,0,.11-.06.07s0,0,0-.06-.11.06-.15.09a.07.07,0,0,0,0,0s-.09,0-.15,0,0-.12,0-.11-.09,0-.06.15-.11-.06-.14,0,0-.12,0-.13l0-.06s0,0,0,0-.07,0-.08,0-.08.17-.14.18,0-.11,0-.13l-.11.18s0-.08,0-.05a.16.16,0,0,1,0,.06s-.08,0-.07-.08,0,0,0-.05,0,0-.07,0h0s-.07,0-.06.09,0-.06,0,0a.09.09,0,0,1-.1.06.2.2,0,0,0,0-.07.35.35,0,0,1-.16.11s0-.08,0-.06-.14.07-.17,0,0,.07,0,.05,0-.08,0-.06,0,0,0,0,0,0,0,0-.15.07-.2,0-.05.09-.07.08l0-.06s-.05,0,0-.06.13,0,.08,0-.07.09-.05,0-.07.06-.09,0,0-.08,0-.08,0,0-.05,0l0,0c0,.06,0,0,0,.05s-.07,0,0-.08l0-.08s0,.08-.06.11a.1.1,0,0,1,0,0c0,.12,0,0-.08.07s-.1,0-.1-.1-.07.07-.1,0,0,0,0,0,0,0,0,0,0-.08,0-.13,0,.09-.05.13c0-.12-.1.06-.11-.06s.06,0,0-.08-.07.07-.1,0v.1c0-.06-.08,0,0-.06s0,0-.06,0c0-.1-.19,0-.18-.18,0,0,0,0,0,0s0,0,0,0,0,0,0,0,0,0,0-.11-.1.14-.16.08,0-.05,0-.05l-.06.05s0-.09,0-.16-.05,0-.08,0v-.09c0,.06,0,0-.05,0h0s0,0,0,0a.09.09,0,0,0,0,.08s0,0-.07,0,0-.06,0-.07,0,0-.05,0,0,0,0-.06,0,0,0,0,0-.08,0-.06-.06.12-.08.06l.05,0,0-.05,0,.05v0s-.06,0-.11,0,0-.06,0-.08h0s0,0-.08,0h0a.07.07,0,0,0-.08,0c0-.06.14-.18.06-.15s-.12,0-.13.08-.15-.07-.12-.18,0,0-.06,0-.18-.14-.11-.27.05,0,.08,0,0,0,0,0-.07,0-.08.07-.09-.12-.05-.17a0,0,0,0,1-.06,0c.08,0,.08-.07,0-.09H3.47l0,0s-.11,0-.07,0l.05,0c-.05,0-.13,0-.1-.08l.07,0s-.06,0-.08,0,0-.1.09-.14a.3.3,0,0,1-.22-.31h0s-.07,0,0,0,.08,0,.13,0-.07,0-.09-.07,0,0,0,0,0-.06,0-.06a.29.29,0,0,1,.12,0l0,0c.09,0,.17.06.28,0v0c.08,0,.1,0,.12,0a.28.28,0,0,0-.19,0s-.19,0-.19-.07,0,0,.08,0,0-.05,0-.08-.11,0-.12,0,.08,0,.08,0-.08,0-.11,0,0,0-.05-.06c.07,0,.17,0,.2,0s-.1-.05-.2,0a.15.15,0,0,1,.12,0s-.13-.06,0-.07H3.21l.08,0s-.1-.07,0-.07,0-.06-.08,0,.05,0,0,.05c.08,0,0,0,0-.07h0s0,0-.05,0a.07.07,0,0,0,.06,0H3.13s.11,0,.09-.05l0,0s0,0,0,0l-.17,0s.07,0,0,0l.07,0s.1,0,.1,0-.1-.06-.13,0,0,0,.08,0-.06,0-.1,0l.16-.07.09,0v0c.07,0,.06,0,.14,0s0,0,0,0-.17-.07-.29-.07.29,0,.11-.09-.12,0-.09,0-.12,0-.06-.08.13,0,.19,0,0,0,0,0,.12,0,.12,0,0-.05-.07-.06,0,0-.06,0,.09,0,0-.08-.07,0-.11,0l0,0h0c0-.05-.08,0-.06-.08h.09c.07,0,0,.07.08.08s-.05-.05,0-.08l0,0s.17,0,.08-.06,0,0-.09,0,0-.08,0-.12,0-.06.11,0-.07.09,0,.12,0,0,.09.07.11,0,.19,0,0,0,0,0a1.06,1.06,0,0,0-.13,0s0-.1-.06-.14.1,0,.1,0a.16.16,0,0,1,0-.13c-.11,0,0,0-.11,0H3.4c-.06,0,.09,0,0,0h.22s.06,0,.06,0l-.12,0c.06-.06,0-.06,0-.06s.09-.1.09-.13-.05.09-.05,0h0s0-.09-.09,0l.05-.09s0,0,0,0,0-.06,0-.08-.06,0-.08,0v.06s-.06,0-.1,0v-.06l0,0c0-.06,0-.09,0,0a.65.65,0,0,1,.06-.16s0,.08,0,.13,0,0,.06,0,0,0,0,0,0-.08,0-.13,0,0,0,0a.08.08,0,0,1,.09,0s0,.05,0,.08.06-.09.1,0,.11,0,.15,0l-.16.1s0,0,0,.06.1-.1.16-.09l0,0s.11,0,.14,0A1,1,0,0,1,4,22H3.91c.13,0,.06.13.1.19s0,.16-.08.18a.7.7,0,0,1,0,.34l-.08,0c.06,0,0,0,0,0s.08,0,.13.06,0,.12,0,.17H3.94c.1.05,0,.1,0,.16s-.07,0-.07,0,.08.05.14.1a.21.21,0,0,1-.06.12c.13.12.05.25.14.37l-.06,0c.15.1.05.26.14.35l-.11,0s0,.06.12,0,.07.06,0,.1.06,0,.08,0,0,.09,0,.13h0s-.07,0-.07,0,0,.08.11,0c0,.08.11.07.05.16s0,0,.06,0,0,.1.06.08,0,0,0,.05,0,0,.05,0,.08.14.16.16a1.9,1.9,0,0,1,.42.12v0c.07-.08.08.13.16,0,0,0,0,0,0,.07s.09.09.17,0h0c0,.07.11,0,.17.07a.08.08,0,0,0,0,0c0,.05.08-.1.07,0s0-.06,0-.06.29,0,.45,0,0,.21.07.13,0,0,0,0,0,.15.06.09,0,0,0-.09.06.13.12.09v0c.08-.1.14,0,.22-.15a6.46,6.46,0,0,0,.93,0c.28.05.58,0,.89,0,.09.1.09.09.17,0s0,0,0,0,.05,0,0-.1A1.73,1.73,0,0,0,9,25.07s0,.09,0,.08v0A.08.08,0,0,0,9,25a1.37,1.37,0,0,1,.43-.1,1.3,1.3,0,0,0,.38-.1A.45.45,0,0,0,10,24.7a.93.93,0,0,0,.72-.16S10.8,24.77,10.73,24.86Z"/><path class="cls-3" d="M3.22,21.56s.06.05.05.12S3.23,21.6,3.22,21.56Z"/><path class="cls-3" d="M3.5,22.08h0Z"/><path class="cls-3" d="M3.46,22.17s-.06-.07-.06-.08S3.44,22.15,3.46,22.17Z"/><path class="cls-3" d="M3.26,22.33s-.05,0,0,0Z"/><path class="cls-3" d="M3.35,22.36s0,0,0,0S3.28,22.34,3.35,22.36Z"/><path class="cls-3" d="M3.18,22.76s0,0,0,0S3.12,22.74,3.18,22.76Z"/><path class="cls-3" d="M3.22,23s0,0,0,0a0,0,0,0,1,0,0Z"/><polygon class="cls-3" points="5.17 25.7 5.14 25.71 5.16 25.68 5.17 25.7"/><path class="cls-3" d="M6.58,26s0,0,0,0S6.6,26,6.58,26Z"/><polygon class="cls-3" points="7.39 25.85 7.39 25.85 7.39 25.77 7.39 25.85"/><path class="cls-3" d="M3.09,22.47s-.07,0,0,0S3.11,22.46,3.09,22.47Z"/><path class="cls-3" d="M.68,27c-.08-.2.12-.09.09-.24s.07.09.07.06.1-.15.24-.11l0,0s0-.09,0-.09l0,0c0-.05,0,0,0-.08l.08.07,0-.06c-.09-.15.06,0,0-.12l0,0c0-.12,0-.15.06-.22l.07.08c0-.06,0-.09,0-.11s0-.07,0-.05h0c0-.07,0,0,0-.06l0,0c-.07-.08.06,0,0,0l0,0s0,0,0,0h0s.05,0,0-.07,0,0,.08.1c0-.12.07-.17.13-.23l.07,0s0,0,0-.07l0,0s-.06-.08,0-.06l.06.06c0-.06,0-.06,0-.09l0,0c0-.07,0,0,0-.06l0,0c.06,0-.07-.08,0-.07l0,0c-.05-.08,0-.08,0-.12h0s0,0,0-.07.09.08.09.05,0-.06-.1-.12.07,0,.06,0,.1.07.1.09l.06,0s0,0,0,0,0-.05,0-.05-.12-.13-.11-.16.09.06.1.08l-.13-.15s.06,0,.05,0l0,0s0,0,.08,0,0,0,0,0,0,0,0,0H2s0,0-.07-.07,0,0,0,0,0-.06,0-.08l.05,0a.36.36,0,0,1-.07-.13s.06.06,0,0,0-.1.05-.07l0,0s.07,0,.05,0,0,0,0,0,0,0,0,0,0-.11,0-.1S2,25,2,25l.05,0s0,0,.05,0,0,.08,0,0-.07-.08,0,0,0-.06,0,0,.07.06.07,0,0,0,0,0l0,0c-.05,0,0,0,0,0s0,0,.07,0l.07,0s-.06-.05-.09-.08l0,0c-.1-.06,0,0-.06-.07s0,0,.1,0-.06-.06,0-.06l0,0s0,0,0,0l.11,0a.53.53,0,0,0-.12-.08c.11,0-.05-.07.05,0a.15.15,0,0,0,.07,0c.11,0-.07-.06,0-.05l-.09,0c.06,0,0-.05.05,0s0,0,0,0c.09,0,0-.09.16,0,0,0,0,0,0,0s0,0,0,0l0,0s0,0,.1,0-.14-.09-.1-.1h0l-.06,0s.09,0,.15.05,0,0,0,0l.08,0c-.06,0,0,0,0,0h0s0,0,0,0H2.38l0,0c.06,0,.05,0,.06,0s0,0,0,0,0,0,.05,0,0,0,0,0,.08,0,0,0-.12,0-.08,0l.06,0h0l-.06,0h0c-.06,0,0,0-.07-.06h.06s0,0,0,0h0s0,0,0,0,.22.07.15,0-.1-.06-.14-.06,0-.07.06-.06l0,0s0-.09.08-.08a.28.28,0,0,0,.09,0c-.05,0,.06,0,0,0l-.1,0s0-.06,0-.06l-.06,0c.08,0,.1,0,.07,0h0s-.11,0-.06,0h.06s-.11-.05-.06-.06h.08a.12.12,0,0,0-.07,0,.27.27,0,0,1,.13,0c-.15-.07-.15-.13-.13-.17h0s-.07,0,0,0l.13,0s-.06,0-.08,0,0,0,0,0,0,0,0,0l.12,0,0,0c.09,0,.16.05.27.06h0c.08,0,.09,0,.12,0a.55.55,0,0,0-.18,0s-.18,0-.17-.06,0,0,.07,0,0,0,0,0a.28.28,0,0,1-.12,0s.07,0,.08,0-.08,0-.11,0,0,0,0,0c.07,0,.16,0,.2,0a1.36,1.36,0,0,0-.2,0h.12s-.12,0,0,0h0s-.09,0,0,0,0,0-.08,0,.05,0,0,0c.08,0,0,0,0,0h0s0,0-.05,0h0s.11,0,.09,0l0,0s0,0,0,0l-.17,0s.07,0,0,0l.07,0s.1,0,.1,0a.27.27,0,0,0-.13,0s0,0,.08,0-.06,0-.1,0l.15,0,.1,0h0c.08,0,.06,0,.14,0s0,0,0,0a2.24,2.24,0,0,1-.3,0s.29,0,.11,0c0,0-.12,0-.09,0s-.12,0-.07,0,.12,0,.19,0,0,0,0,0,.12,0,.12,0,0,0-.08,0,0,0-.06,0,.08,0,0,0-.06,0-.11,0l0,0h0s-.08,0-.07,0h.09c.08,0,0,0,.09,0s-.06,0,0,0h0s.17,0,.08,0H2.52s-.06,0-.07,0,0,0,.1,0,0,0,0,.05,0,0,.09,0,.11,0,.18,0l0,0H2.7s0,0-.08-.06h.11a.06.06,0,0,1,0-.08c-.11,0,0,0-.11,0a.33.33,0,0,1-.15,0h.07c-.06,0,.1,0,0,0s.13,0,.22,0,.06,0,.06,0l-.1-.06c.08,0,0-.06,0-.08s.14,0,.15,0-.1,0-.06,0h0s.06,0-.07,0h.17c.07,0,0,0,0,0H2.85s0,0,0-.06h0c.06,0,.1,0,0,0l.15,0s-.07,0-.13,0,0,0,0,0,0,0,0,0a.49.49,0,0,1,.14,0s0,0,0,0,0,0,.05,0-.05,0-.08,0,.1,0,.08,0,.06,0,0,.06l-.17,0s0,0,0,0a.73.73,0,0,1,.18,0H3.05s.11,0,.09,0a.24.24,0,0,0,0,.1H3.06c.12,0,0,0,.09.07s.05.08,0,.09.08.12.05.18H3.08c.06,0,0,0,0,0s.08,0,.13,0,0,.06.06.09H3.18c.1,0,0,.06,0,.09s-.07,0-.07,0a.35.35,0,0,1,.13.07.1.1,0,0,1-.06.06c.12.08,0,.15.09.23H3.19c.12.09,0,.16,0,.23l-.11,0s0,0,.1.06,0,.06-.05.05,0,0,.06.06,0,0,0,.09h0l-.08,0s0,0,.09.06c-.08,0,0,.11-.08.12s0,0,.06,0-.09,0,0,.09-.06,0-.06,0l.06,0c0,.08-.1.09-.11.14s0,.19-.07.28H3c.08.07-.12,0,0,.11,0,0,0,0-.07,0s-.09,0,0,.1h0c-.07,0,0,.07-.07.08l0,0c-.05,0,.08.08,0,0l.05,0c-.08,0-.06.16-.07.24s-.18-.11-.13,0l0,0s-.14-.06-.09,0,0,0,.07.06-.12,0-.09,0l0,0c.08.09,0,.09.1.19a4.31,4.31,0,0,1-.25.5c-.14.11-.21.29-.39.36s-.11,0-.11,0l0,0c.06.07,0,0,0,.09s-.09.09-.13.14,0-.07,0-.06l0,.05,0,0a.13.13,0,0,0,.05.07c-.08.17-.32.14-.43.26s-.08.05-.1.09c-.17,0-.32,0-.36.12A.77.77,0,0,1,.68,27Z"/><path class="cls-3" d="M3.1,22.49a.34.34,0,0,1-.13,0Z"/><path class="cls-3" d="M2.64,22.86h0s0,0,0,0Z"/><path class="cls-3" d="M2.61,22.95a.1.1,0,0,1-.08,0Z"/><path class="cls-3" d="M2.45,23h0Z"/><path class="cls-3" d="M2.54,23h0S2.47,23,2.54,23Z"/><path class="cls-3" d="M2.41,23.2s0,0,0,0S2.36,23.2,2.41,23.2Z"/><path class="cls-3" d="M2.47,23.29s0,0,0,0h0Z"/><polygon class="cls-3" points="2.23 24.73 2.22 24.71 2.25 24.73 2.23 24.73"/><path class="cls-3" d="M1.89,25.29s0,0,0,0S1.89,25.3,1.89,25.29Z"/><polygon class="cls-3" points="1.82 25.7 1.82 25.69 1.88 25.75 1.82 25.7"/><path class="cls-3" d="M3.14,25s-.06,0,0,0S3.16,25,3.14,25Z"/><path class="cls-3" d="M1.84,27.94c-.07-.2.08,0,0-.18s.06.09.06.07,0-.11.17,0l0,0s0-.08,0-.07l0,0c0-.05,0,0,0-.07l.08.07,0-.06c-.1-.14,0,0,0-.1l0,0c0-.1,0-.11,0-.17l.07.07c-.05-.05-.06-.08-.06-.09s0-.06,0,0h0c-.06-.06,0,0,0,0l0,0c-.08-.08.05,0,0,0h0s0,0,0,0h0s0,0,0-.05,0,0,.1.09a.13.13,0,0,1,0-.16l.07,0s0,0,0-.05l0,0s-.07-.06,0,0l.06.05s0,0,0-.07l0,0c-.06-.05,0,0,0,0l0,0c.06,0-.08-.06,0-.05l0,0c-.07-.06,0-.06-.05-.09h0s0,0,0,0,.1.07.09,0,0,0-.12-.1.06,0,0,0,.11.06.11.07l.06,0s0,0,0,0,0,0,0,0S2.5,27,2.5,27l.11.07-.15-.12s.07,0,.05,0l-.05,0s0,0,.07,0l0,0s0,0,0,0h0s0,0-.08-.06.05,0,0,0-.06,0-.05-.06l.06,0a.48.48,0,0,1-.1-.1l0,0c.07,0-.06-.07,0,0l0,0s.07,0,0,0,0,0,0,0h0s-.07-.08,0-.07l-.08-.06.05,0s0,0,0,0,0,.06,0,0-.08-.06,0,0-.06,0,0,0l.07,0s0,0,0,0l0,0c-.05,0,0,0-.05,0s0,0,.07,0l.07,0-.1-.06h0c-.11-.05,0,0-.07-.05s0,0,.08,0-.07,0,0,0l0,0s0,0,0,0l.11,0-.13-.06c.11,0-.06-.05,0,0l.08,0c.11,0-.07,0,0,0l-.09,0c.06,0,0,0,0,0s0,0-.05,0c.08,0,0-.06.14,0,0,0,0,0,0,0s0,0,0,0l0,0,.1,0c.06,0-.15-.07-.11-.07h0l-.06,0a.64.64,0,0,1,.15,0s0,0,0,0l.08,0c-.06,0,0,0-.05,0h0s0,0,0,0H2.64l-.05,0c.06,0,0,0,.06,0l-.05,0h.05s0,0,0,0,.08,0,0,0-.12,0-.08,0l.06,0h0l-.06,0h0c-.06,0,0,0-.08,0h.06s0,0,0,0h0s0,0,0,0,.22.06.15,0l-.14-.05s0,0,0,0l-.05,0s-.06-.06.06,0l.09,0c-.05,0,.06,0,0,0l-.1,0s0,0,0,0l-.06,0c.08,0,.1,0,.07,0h0s-.11,0-.06,0h.06s-.11,0-.07,0h.08l-.08,0h.12c-.16-.05-.16-.08-.14-.11h0s-.07,0,0,0l.13,0s-.07,0-.08,0h0s0,0,0,0l.12,0h0c.09,0,.16,0,.28,0h0c.08,0,.09,0,.12,0l-.19,0s-.19,0-.18,0l.07,0c.06,0,0,0,0,0l-.12,0h.08l-.11,0c-.1,0,0,0-.05,0a1.86,1.86,0,0,0,.2,0l-.2,0h.12s-.13,0,0,0h0s-.09,0,0,0,0,0-.08,0,.05,0,0,0c.08,0,0,0,0,0h0s.11,0,.09,0h0s0,0,0,0l-.17,0s.07,0,0,0h.36c-.13,0-.18,0-.3,0s.29,0,.1,0H2.59s-.12,0-.07,0h.19s0,0,0,0h.12s0,0-.08,0H2.68s.08,0,0,0H2.55s-.08,0-.07,0h.09c.08,0,0,0,.09,0s-.06,0,0,0h0s.17,0,.07,0H2.64l-.07,0c.09,0,0,0,.1,0s0,0,0,0,0,0,.1,0a.77.77,0,0,1,.18,0H2.82s0,0-.09,0h.11s0,0,0,0,0,0-.11,0l-.15,0h.07c-.06,0,.09,0,0,0a1.56,1.56,0,0,0,.22,0s.06,0,.06,0l-.11,0c.08,0,0,0,0,0l.15,0s-.1,0-.06,0h0s.06,0-.08,0l.1,0h0l.08,0c.07,0,0,0,0,0l-.06,0c-.05,0,0,0,0,0l.06,0h0c.06,0,.09,0,0,0l.15,0-.13,0s0,0,0,0H3l.13,0s0,0,0,0,0,0,.05,0l-.07,0c.07,0,.1,0,.08,0s.06,0,0,0H3s0,0,0,0l.18,0H3.14s.11,0,.1,0a.15.15,0,0,0,0,.07H3.16c.12,0,0,0,.1,0s.06,0,0,.06.09.07.07.11H3.21c.06,0,0,0,0,0a.38.38,0,0,1,.13,0c-.06,0,0,0,.06.06H3.31c.1,0,0,0,0,.06H3.24a.46.46,0,0,1,.14,0s0,0-.06,0c.12.06,0,.09.1.15H3.35c.13.07,0,.1.06.15L3.3,26s0,0,.1,0,0,0,0,0,0,0,.06,0,0,0,0,.05h0l-.08,0s0,0,.09,0c-.08,0,0,.07-.06.07l.06,0s-.08,0,0,.06l-.06,0,.06,0c.06.06-.09,0-.08.08s0,.12,0,.18h0c.09.05-.11,0,0,.07,0,0,0,0-.06,0s-.08,0,0,.07h0c-.06,0,0,0-.05,0l0,0s.09.06,0,0l.05,0c-.06,0,0,.1,0,.16s-.19-.09-.12,0H3s-.14-.05-.08,0L3,27c-.05,0-.12,0-.07,0l0,0c.09.07,0,.06.14.14a2.3,2.3,0,0,1-.08.35c-.08.08-.11.21-.24.26s-.1,0-.09,0l0,0c.07.06,0,0,.05.08s-.05.07-.08.1-.05-.06-.05-.05l0,0,0,0a.19.19,0,0,0,.06.06c0,.14-.24.09-.32.18s-.06,0-.07.07-.26-.09-.31,0A1.28,1.28,0,0,1,1.84,27.94Z"/><path class="cls-3" d="M3.15,25.06,3,25.1Z"/><path class="cls-3" d="M2.75,25.36h0Z"/><path class="cls-3" d="M2.72,25.41h0Z"/><path class="cls-3" d="M2.57,25.46h0Z"/><path class="cls-3" d="M2.66,25.45h0S2.59,25.46,2.66,25.45Z"/><path class="cls-3" d="M2.54,25.54s0,0,0,0S2.48,25.54,2.54,25.54Z"/><path class="cls-3" d="M2.6,25.58s0,0,0,0h0Z"/><polygon class="cls-3" points="2.56 26.42 2.54 26.41 2.58 26.43 2.56 26.42"/><path class="cls-3" d="M2.39,26.77l0,0Z"/><polygon class="cls-3" points="2.44 27.06 2.44 27.06 2.51 27.1 2.44 27.06"/></g></g></svg>