<?xml version="1.0" encoding="utf-8"?>
<!-- Generator: Adobe Illustrator 17.0.0, SVG Export Plug-In . SVG Version: 6.00 Build 0)  -->
<!DOCTYPE svg PUBLIC "-//W3C//DTD SVG 1.1//EN" "http://www.w3.org/Graphics/SVG/1.1/DTD/svg11.dtd">
<svg version="1.1" id="Слой_1" xmlns="http://www.w3.org/2000/svg" xmlns:xlink="http://www.w3.org/1999/xlink" x="0px" y="0px"
	 width="1920px" height="1917px" viewBox="0 0 1920 1917" enable-background="new 0 0 1920 1917" xml:space="preserve">
<path d="M1919.847,0c0,622.667,0,1245.333,0,1868c-47.889,7.285-95.627,15.845-143.704,21.533
	c-60.188,7.122-120.562,13.306-181.027,17.289c-68.146,4.489-136.458,7.251-204.741,8.667
	c-116.666,2.42-233.298-0.549-349.844-6.328c-59.246-2.938-118.493-5.935-177.706-9.474c-64.031-3.828-128.019-8.375-192.033-12.503
	c-60.024-3.871-120.038-7.934-180.09-11.314c-74.863-4.214-149.728-8.749-224.654-11.426c-79.762-2.85-159.595-3.708-239.398-5.383
	c-8.778-0.184-17.564-0.025-26.497-0.025c0-619.906,0-1239.289,0-1859.035C640.255,0,1280.051,0,1919.847,0z"/>
</svg>
