<svg xmlns="http://www.w3.org/2000/svg" viewBox="0 0 93.38 85.44"><defs><style>.cls-1{fill:#632200;}.cls-1,.cls-2{fill-rule:evenodd;}.cls-2{fill:#fff;}</style></defs><title>Element 1</title><g id="Ebene_2" data-name="Ebene 2"><g id="Layer_1" data-name="Layer 1"><path class="cls-1" d="M5.88,38.22c4.09,1.45,9.21-.51,13.19-1.47,1.1,2.1,2.74,3.88,3.77,6.49,1.33,3.36.73,7.65,3.14,10.26a30.34,30.34,0,0,0,7.33.63c6.64-1,11.43-3.79,16.75-6.07,4.5-3.18,11.46-3.9,14.87-8.17C64,35.57,62.11,32.25,62,27.12c3.44-.75,6.47-1.91,8.59-4,4.91-9.28-.28-19-8.17-22.2A15.16,15.16,0,0,0,55.3.11,38.75,38.75,0,0,0,34.15,8.9c-6.39,1.7-15.81.38-21.57,2.72C7.13,14.41,2.46,18,.22,24A31.09,31.09,0,0,0,0,29C1.4,32.85,2.1,36.89,5.88,38.22Z"/><path class="cls-2" d="M39,22.1c5.15.36,8.86,2.17,12.77,3.77-3.16,6.4-14.75,4.93-22.62,4.4,1.11-2.31,3.86-3,5-5.24-2.3-.5-4.35,1.42-6.07,2.72-1.9,1.43-3.64,3-5.45,4.19q-6,3.65-15.29,4c0-.25-.38-.18-.63-.21-2.31-1.53-3.29-4.39-4.19-7.33.06-9.59,8.76-15.19,17.8-16.13,3.08-.32,6.46,0,9.43-.42.62.59-2.22,1.23-2.09,2.72C38,10.63,43.51,1.79,58.65,2.62c5.89,2,10,5.76,10.47,13.19A13.68,13.68,0,0,1,67.87,21c-3,4.1-11.34,4.64-17.17,2.93C48.34,22.56,46.09,21,42.32,21A9,9,0,0,0,39,22.1ZM66.4,17.49c-1.11,2.25-3.51,3.2-6.08,4,1.79,2.13,5-.77,6.28-1.88.05-.85.78-1,.63-2.09ZM7.76,20.63q1.72.25,1.47-1.47C8.12,18.37,6.94,19.54,7.76,20.63Zm41.47-.84c1.34.5,3,1.68,4.4,1.47C53.44,19.6,50.49,18.42,49.23,19.79ZM11.11,32.36a7.75,7.75,0,0,0-3.35-1.47c-1.4-1.25-2-3.26-1.88-6.07.07-.65,1.21-2.16.42-2.3C2.28,25.74,5.67,36.22,11.11,32.36Z"/><path class="cls-2" d="M54.46,26.7c1.71.39,4.16,0,5.86.42A23.89,23.89,0,0,0,62,39.06c-5.67,1.51-11.85,1.76-17.38,3.14a97.09,97.09,0,0,0-15.29,5.24,12.59,12.59,0,0,0-1.88-6.49c-.9-1.76-1.51-4.06-3.35-5-.28,2.3,1.91,3.95,2.51,6.07.66,1.6,2,5.32.63,6.91-1.61-4.81-3.2-9.65-6.28-13,2.56-.79,4.25-2.45,6.28-3.77,5.54-.15,11.23,2,16.75,1.47a13.56,13.56,0,0,0,10.47-6.28Z"/><path class="cls-2" d="M54,42.62C48.4,46,41.6,50,33.52,51.62c-1.4-.14-3.35.28-4.4-.21-.88-.47,1.31-1.29,1.68-1.88,1.23-.24,1.79-1.14,3.14-1.26,1.86-1,4.23-1.5,6.28-2.3C44.37,44.39,49.62,43.92,54,42.62Z"/><path class="cls-1" d="M88.43,64.08c4.49-7.28,6.16-15.82,4-21.64-1.7-3.39-3.2-6.85-8.75-9-10.65-4.21-18.84-.93-24.33,10.63A11.12,11.12,0,0,0,58,39.36a10.88,10.88,0,0,0-4.78-2.42c-2.59.22-4.77,1.69-6.28,5.2a17.44,17.44,0,0,1-.45,2.32c1.38,7,5.6,13,5.27,20.52-.18,2.64-1.88,5.77-1.64,8.28a38.11,38.11,0,0,0,12,8.27,74.28,74.28,0,0,1,11.32,3.91A3.29,3.29,0,0,1,74.73,85c1-.71,1-2.17,2.12-2.75,1.15-4.19,4.22-7,6.52-10.36Q86,68,88.43,64.08Z"/><path class="cls-2" d="M85.23,36.6c-.56,1.31-.21,2.32-.75,3.63-1.73-.11-3.32.19-5.09,0a35.92,35.92,0,0,1,.68-5.67A31.46,31.46,0,0,1,85.23,36.6Z"/><path class="cls-2" d="M85.66,36.82a9.8,9.8,0,0,1,3.18,3.43,15.41,15.41,0,0,1-3.78-.09C85.35,39,85.28,38,85.66,36.82Z"/><path class="cls-2" d="M79.35,34.53c-.33.39,0,.55-.29.94-2.36-1.06-4.23-.62-6.1-.18-.28-.31-.09-.78.08-1.24C75.1,34.12,77,33.64,79.35,34.53Z"/><path class="cls-2" d="M89.05,40.9a11,11,0,0,1,0,4.58,43,43,0,0,1-4.58-.31c.38-1.54.29-2.92.6-4.43A24.74,24.74,0,0,1,89.05,40.9Z"/><path class="cls-2" d="M78.59,40.34c-2.23,0-4.35.27-6.61.11.23-1.16.31-2.28.45-3.41A8.37,8.37,0,0,1,79,36.35C78.84,37.68,78.79,39,78.59,40.34Z"/><path class="cls-2" d="M90,42.29a8,8,0,0,1,.86,3.35c-.3-.05-.64-.23-.87-.08A14.79,14.79,0,0,1,90,42.29Z"/><path class="cls-2" d="M65.8,41.15c-1.3-3.86,3.67-6.2,6.29-7,.6.25-.21,1,.07,1.31A13.54,13.54,0,0,0,65.8,41.15Z"/><path class="cls-2" d="M84.55,40.81a26.89,26.89,0,0,1-.68,4.58c-1.52,0-3.1-.11-4.58,0a17.15,17.15,0,0,1,.17-4.65A29.84,29.84,0,0,1,84.55,40.81Z"/><path class="cls-2" d="M71.56,37.33c.22,1-.2,2.24-.23,3.34a16.19,16.19,0,0,0-3.78.27A14.32,14.32,0,0,1,71.56,37.33Z"/><path class="cls-2" d="M78.21,45.43c-2.22-.12-4.29.19-6.54,0A36.29,36.29,0,0,1,72,41c2.25.09,4.31-.39,6.61-.11C78.36,42.47,78.72,43.8,78.21,45.43Z"/><path class="cls-2" d="M89.63,57c-.45-.26-.68.14-1.16-.22a9.94,9.94,0,0,0,.38-2.91,13.62,13.62,0,0,0-1.32,3c-1.29-.24-2.38.13-3.71-.24a33,33,0,0,0,.24-4.79c.55-.54,1.46,0,2-.43-.68-.24-1.22,0-2-.45.21-1.64.16-3.2.46-4.87,1.43-.06,2.94.12,4.36,0C89,49.82,89.73,53.3,89.63,57Z"/><path class="cls-2" d="M83.72,46a20.72,20.72,0,0,1-.39,5.08A38.17,38.17,0,0,1,79,51c.06-1.63-.08-3.2.1-4.87A33.51,33.51,0,0,0,83.72,46Z"/><path class="cls-2" d="M71.1,41.1a16.47,16.47,0,0,1-.24,4.43c-1.91-.06-3.66.41-5.67,0,.32-1.39.05-2.6.38-4C67.43,41.46,69.24,41.2,71.1,41.1Z"/><path class="cls-2" d="M78.1,51a60.44,60.44,0,0,1-6.91,0,41.6,41.6,0,0,0,.32-4.58c2.05-.5,4.45.06,6.54-.33C78.48,47.59,78.1,49.37,78.1,51Z"/><path class="cls-2" d="M64.63,41.65c.34,1.26,0,2.75-.1,4.14-1.5,0-2.86.36-4.43.12C61.39,43.8,62.61,41.51,64.63,41.65Z"/><path class="cls-2" d="M83.26,51.63A15.68,15.68,0,0,1,83,56.79a28.36,28.36,0,0,0-3.85.05,22.58,22.58,0,0,1,0-5.09A25.54,25.54,0,0,0,83.26,51.63Z"/><path class="cls-2" d="M70.62,51.06a29.43,29.43,0,0,1-5.38.19c0-1.52.11-3.1,0-4.58a21.61,21.61,0,0,1,5.74-.19A35.65,35.65,0,0,0,70.62,51.06Z"/><path class="cls-2" d="M55.91,41.61c-.92-.22-1.59.32-2.54,0,.47-.76-.22-1.78.37-2.18C54.76,39.6,56.07,40.65,55.91,41.61Z"/><path class="cls-2" d="M78.24,51.82c-.2,1.68,0,3.24-.31,4.94-2.31-.16-4.55-.1-6.83-.18.28-1.66-.15-3.09.24-4.79C73.69,51.95,75.86,51.54,78.24,51.82Z"/><path class="cls-2" d="M52.95,39.19c.37.65-.19,1.6-.08,2.33-1.14.69-2.54.61-3.86.78C50,40.42,51.35,39.37,52.95,39.19Z"/><path class="cls-2" d="M89.62,57.77a33.43,33.43,0,0,1-2.86,5.65,3.36,3.36,0,0,1-1.52-.22c1.27-1.16,2.28-3.84,3-5.58C88.71,57.7,89.07,57.45,89.62,57.77Z"/><path class="cls-2" d="M57.27,46.12c-1.4-.1-2.65.28-4.07.12.23-1.28.06-2.44.24-3.7.67-.79,1.77-.26,2.55-.71A12,12,0,0,1,57.27,46.12Z"/><path class="cls-2" d="M87,57.53c.19.14-.17.46.07.58-1.45,1.74-1.27,4.92-3,5.22A16.36,16.36,0,0,1,84,57.45,24.2,24.2,0,0,0,87,57.53Z"/><path class="cls-2" d="M64.51,51.24a23.57,23.57,0,0,1-5.89.48,16.75,16.75,0,0,0,0-4.21c1.72-1.15,3.92-.84,6-.77C64.43,48.29,64.57,49.73,64.51,51.24Z"/><path class="cls-2" d="M83.05,63.18c-1.3,0-2.59,0-3.92-.16-.31-1.71,0-3.63-.19-5.38,1.21-.38,2.68.06,3.92-.2C83.34,59.22,83,61.28,83.05,63.18Z"/><path class="cls-2" d="M52.64,42.32a12.42,12.42,0,0,1-.09,4.14,18.07,18.07,0,0,0-3.64.35,6.81,6.81,0,0,1-.2-3.56C49.87,42.46,51.36,42.71,52.64,42.32Z"/><path class="cls-2" d="M65,56.4c.4-1.54-.13-2.78.39-4.36,1.66-.09,3.36-.09,5-.19a17.64,17.64,0,0,1-.1,4.87c-4.17-.17-7.44.34-11.56.52a35.16,35.16,0,0,1,0-4.72c2,0,3.83-.38,5.82-.33A8.61,8.61,0,0,0,65,56.4Z"/><path class="cls-2" d="M55.35,52.43a3.36,3.36,0,0,0,2.62.23,32,32,0,0,1,0,4.94,22.27,22.27,0,0,0-4.14.63,98.68,98.68,0,0,1-.52-11.56c1.52.21,2.79-.35,4.29-.2C58.54,48,58,50,58,51.79A8.45,8.45,0,0,1,55.35,52.43Z"/><path class="cls-2" d="M78,63c-2.27-.16-4.43,0-6.76-.33a37.2,37.2,0,0,0-.12-5.16c2.1-.37,4.45,0,6.61-.11C78.25,59.16,77.9,61.16,78,63Z"/><path class="cls-2" d="M86,64.14c0,1.09-1.2,2-1.69,3a9.72,9.72,0,0,1-.28-3.05A6.92,6.92,0,0,0,86,64.14Z"/><path class="cls-2" d="M64.75,61.2c-.13.57.09,1-.3,1.67a31.61,31.61,0,0,1-5.38.19c0-1.62-.4-3.09-.34-4.73a44.53,44.53,0,0,1,11.85-.74c-.15,1.78.14,3.42-.1,5.23a31.45,31.45,0,0,0-5.3,0C64.76,62.41,65.11,61.69,64.75,61.2Z"/><path class="cls-2" d="M82.73,69.57a15,15,0,0,1-3.56-.16,27.19,27.19,0,0,0,0-5.3,10.71,10.71,0,0,1,4.14.09C83.18,66,84.15,67.71,82.73,69.57Z"/><path class="cls-2" d="M78.23,69.48a61.14,61.14,0,0,0-6.47.18,34.83,34.83,0,0,1-.41-6c2.34.24,4.49-.07,6.9.4C78.15,65.88,78.4,67.61,78.23,69.48Z"/><path class="cls-2" d="M70.82,69.37c-1.45.76-3.32.2-4.87.63-.47-2-.45-4.2-.84-6.25a20.86,20.86,0,0,1,5.45,0C70.46,65.7,70.78,67.49,70.82,69.37Z"/><path class="cls-2" d="M82.15,70.37c-.7,1.19-1.54,1.95-2.2,3.26-.64-1-.25-2.25-.71-3.27A5.91,5.91,0,0,1,82.15,70.37Z"/><path class="cls-2" d="M58.49,63.13a14.36,14.36,0,0,1-4.66.56A31.23,31.23,0,0,0,55,59c.82-.7,2-.27,2.91-.71C58.33,59.8,58.16,61.55,58.49,63.13Z"/><path class="cls-2" d="M76.58,78.12a3,3,0,0,0-1.23-.44c-.61.8-.17,1.26.65,1.6a1.06,1.06,0,0,0-.51.65c-1.34-1.05-3.29-1.9-3.4-3.36.51-.13,1.36,1.5,2,.66.27-.75-1.26-2-1.88-1.32-.62-1.69-.3-3.69-.7-5.45,2-.53,4.4-.09,6.54-.33a18.44,18.44,0,0,1,.85,4.8A23.37,23.37,0,0,0,76.58,78.12Z"/><path class="cls-2" d="M64.45,63.6a35.1,35.1,0,0,1,.76,6.4c-1.57.48-3.44.09-5.23-.1a25.27,25.27,0,0,1-.84-5.53C60.72,63.53,62.79,64.2,64.45,63.6Z"/><path class="cls-2" d="M54,59c.13-.16.36,0,.29.15S54.18,59.11,54,59Z"/><path class="cls-2" d="M58.34,64.15c.23,2.18.66,4.3.91,6.47-1.9,1.23-5,.7-7.12,0,.65-1,2.09.47,2.69-.64-.24-1-1.5-.31-2.32-.81.3-1.47.8-3,1.19-4.5C55.3,64.71,56.76,64.25,58.34,64.15Zm-2.5,6c1,.44,1.89.84,2.4-.06C57.66,69.37,55.85,69.11,55.84,70.17Z"/><path class="cls-2" d="M71.43,76.79c-1.41-.71-3.63-2.2-5.29-3.22-.28-.73.9-.34.66-.94s-1.15-1.16-.79-2c1.51-.05,3-.13,4.51-.27C71.28,72.32,70.91,74.7,71.43,76.79Zm-3-3c.09.8,1.63,1.49,2.39,1.39C71.29,74.22,69,73,68.4,73.79Z"/><path class="cls-2" d="M65.5,71.23c-.2.49-.72,0-.95.43-.12.73,1.33.93,1.15,1.68-1.8-.56-4.14-.86-5.66-1.77C62,71.52,64,70.15,65.5,71.23Z"/><path class="cls-2" d="M73.95,82.61C68,77.1,58.75,76.33,51.83,72.32,58.65,72.46,69.56,76.53,73.95,82.61Z"/><path class="cls-2" d="M69.52,82c-3.94-.91-8.6-2.18-12.76-5A99.74,99.74,0,0,1,69.52,82Z"/><path class="cls-2" d="M90,46.14a.71.71,0,0,0,.72,0c1.33,2.47.34,5.69-.26,8.79C90.09,52.65,89.45,48.76,90,46.14Z"/><path class="cls-2" d="M64.86,39.4c.22.49-.06,1.15.06,1.67-.44.27-1,.15-1.45.36C63.51,40.92,64.47,40.05,64.86,39.4Z"/><path class="cls-2" d="M49,47.39a19.56,19.56,0,0,1,3.56-.56c.38,4.07-.15,8.43.88,12.29C52,55.67,50.93,51.06,49,47.39Z"/><path class="cls-2" d="M53.28,59.76c.37-.23.27.71.43.95C53.25,61,53.6,59.95,53.28,59.76Z"/><path class="cls-2" d="M59.47,71.64c-.28.25-.75-.09-1.09,0C58.19,71.38,59.1,71.41,59.47,71.64Z"/></g></g></svg>