<svg xmlns="http://www.w3.org/2000/svg" viewBox="0 0 111.06 87.71"><defs><style>.cls-1{fill:#f4f4f4;}.cls-2{fill:#62250e;}</style></defs><title>Element 6</title><g id="Ebene_2" data-name="Ebene 2"><g id="Ebene_5" data-name="Ebene 5"><path class="cls-1" d="M77.46,3.43c4.37-2.43,7,2,15,10s15,18,14,25,0,21-5,21-18-5-22-7-25-21-29-22-9-6-9-6-30,48-34,52-7,4-7,4,22-53,28-58,17-8,17-8l35,18S59.46,13.43,77.46,3.43Z"/></g><g id="_1" data-name="1"><path class="cls-2" d="M107.61,32.39a41.56,41.56,0,0,1,3,8.71,21.18,21.18,0,0,1-.22,9.18,31,31,0,0,1-2.67,8.23,10.74,10.74,0,0,1-5.32,4.7c-4.46,1.86-9.6,1.14-14-.49-5.45-2-10.14-5.53-14.78-8.93C68.79,50.23,64,46.57,59.44,42.66q-3.45-3-6.73-6.1a38,38,0,0,0-3-3c-.44-.34-.79-.38-1.13-.87A19.09,19.09,0,0,0,47.3,31c-.24-.27-.86-1.15-1.22-1-.16.06-.3.57-.39.73s-.36.6-.56.89c-.74,1.08-1.63,2.06-2.29,3.2-1.36,2.34-2.43,4.79-4,7-3.17,4.54-7.08,8.53-10.42,13-7.54,10-15,20-23,29.67L3.9,86.24a6.1,6.1,0,0,1-1.36,1.47c-.27-.69-1-1-1.53-1.37a2.59,2.59,0,0,1-1-2.18,16.29,16.29,0,0,1,.2-2.57c.12-1,.11-2,.28-3a39.39,39.39,0,0,1,2-6.06c.7-2,1.35-4.06,2-6.1,1.3-4.18,2.53-8.39,4-12.53A123.1,123.1,0,0,1,13.36,42.1a191.53,191.53,0,0,1,9.79-18.7c3.65-5.93,8-11.65,13.7-15.77a6.79,6.79,0,0,1,2.54-1.39,10.17,10.17,0,0,1,3.38.13,26.55,26.55,0,0,1,6.77,2.11c2.19,1,4.31,2.14,6.43,3.25,1.06.56,2.12,1.07,3.21,1.56.74.34,1.73,1.15,2.56,1.16-.12-.55-.23-1.11-.37-1.65-.09-.37-.29-.72-.36-1.09a6.15,6.15,0,0,1,.32-2.32A12.1,12.1,0,0,1,63,5.56,12.62,12.62,0,0,1,69.13.87,14.56,14.56,0,0,1,77.25.34C80.55,1.07,83.32,3.06,86,5A83.3,83.3,0,0,1,96.6,14l-1.09.07c4.36,5.88,8.89,11.71,12.1,18.32C109,35.41,104.37,25.71,107.61,32.39ZM84.79,30.87c-.08-.18.07-.37-.14-.49.15.49.55,1.43,1.18,1.41a1.33,1.33,0,0,0-1-.92C84.72,30.72,85.32,30.92,84.79,30.87Zm-18-10a5.82,5.82,0,0,0-1.57-1c.35.61.83,1.15,1.59,1,0,1.15,1.17,1.55,1.79,2.34.48-1.2-.87-1.85-1.81-2.32C66.36,20.52,67.37,21.16,66.82,20.88Zm16,32.93c-.43,0-.71-.39-1.13-.51a4.53,4.53,0,0,0-1.45-.07,2.3,2.3,0,0,0,1.08,1.6,1.13,1.13,0,0,0,.87,0c.32-.27-.12-.31,0-.55s.34,0,.5,0c.42,0,.11,0,.17-.23s.07-.45.47-.23a.76.76,0,0,1,.34.55c.08-.39.61-.58.06-1a.54.54,0,0,0-.87.38C82.76,53.8,82.94,53.36,82.85,53.81Zm6.35,6.73c0,.14.34.37.54.5a8.59,8.59,0,0,1,.89.67,1.46,1.46,0,0,0,2-.41A28.58,28.58,0,0,0,89.2,60.54ZM99.11,35c.13-.13-.09-.11-.1-.09a3.28,3.28,0,0,0,.22.79c.19.51.37,1,.56,1.53.32.85.54,1.77,1.58,1.94,0-1.38-.34-4.19-2.26-4.17C99.17,34.91,99.94,35,99.11,35ZM90,58.35c.52.15,1,.37,1.38-.19a4.37,4.37,0,0,0-4.38,0C87.49,58.78,90.09,59.83,90,58.35ZM70.77,28.82c.06-.31-.57-1.55-.93-1.07-.18.24.1.63.24.8s.43.22.73.36.84,1.2,1.35.91-.37-1.59-.47-1.95A4.2,4.2,0,0,0,70.87,26c-.24-.26-1.3-1.47-1.37-.54,0,.59.79,1.42,1.1,1.89.17.26,1.1,1.66.17,1.48C70.82,28.57,71.13,28.89,70.77,28.82ZM56.71,17.55c-.56-.15-.77.18-1.06.58s-.74.83-1.06,1.27-.75,2-.23,2.64c.71.84,1-1.27,1.12-1.66.38-.91,1.46-1.79,1.21-2.86.24,0,.93-.17.5-.53s-.5.31-.48.55C56.32,17.44,56.7,17.42,56.71,17.55ZM83.84,14c.12-.17-.09-.11-.15-.08.23.13.37.42.58.6s.52.42.78.64c.63.52,1.24,1.1,1.89,1.6a6.61,6.61,0,0,0,1.73.68c.75.31,1,.88,1.91.38-1.1-.86-2.17-1.77-3.32-2.59A5,5,0,0,0,83.84,14C83.89,13.89,85.07,13.82,83.84,14ZM77.26,45.45c-.22-.36-.42,0-.43.2a6.61,6.61,0,0,0,.31,1.14c.14.52.22,1.63.65,2s1.39.27,1.89.35a6.18,6.18,0,0,0,2.63.2c-.25-1-1.44-1.39-2.22-1.88-1-.63-1.64-1.7-2.82-2C77.16,45.28,78,45.65,77.26,45.45ZM58.08,30.23c-.62-.21-.77-1-1.44-1.15-.07.79.07,1.43.89,1.73-.54.17-.76.46-.65,1s.4.82.93,1.14.48.88.73,1.32a7.88,7.88,0,0,0,1.27,1.52,9.7,9.7,0,0,0-.37-3.44,3,3,0,0,0-.79-1.06,2.57,2.57,0,0,1-.47-.63l-.08-.22q-.17-.3.16-.33c.24-.29.5-.31.53-.76a5.56,5.56,0,0,0-.21-1.55c-.26-.91-1.1-1.5-1.6-2.27A3,3,0,0,0,56.69,28c.15.34,1.81,2.05,1.39,2.23C57.48,30,58.24,30.16,58.08,30.23Zm35.26-12.9c.39-.19.63.24.85.47a6.37,6.37,0,0,0,1.12.92c.39.26,1.62,1.32,2.1,1A15.67,15.67,0,0,0,90,14.1l3,2.64c-.83.11-1.57-.79-2.11-1.3a30.45,30.45,0,0,0-2.7-2.07,16.39,16.39,0,0,0-2.86-1.83c-.4-.19-2.76-1.4-3-1,.44.27.8.7,1.22,1s1,.69,1.45,1.07a21.54,21.54,0,0,0,2.64,2.15,35.37,35.37,0,0,0,3.2,1.7c.32.15,1.16.25,1.33.57.35.64-.51.23-.74.12s-1.1-.65-1.26-.56c-.32.18.35.7.53.89a13.25,13.25,0,0,0,2.71,2.22q1.6,1,3.11,2.08.73.53,1.44,1.08c.32.25.85.86,1.31.74,0-.3-.39-.42-.32-.7.55-.07.5.18.67.59s.62.64.93.93.7.71,1,1.06c.13.13.86,1,1.08.94.52-.14-1-2.18-1.23-2.49a6.06,6.06,0,0,0-.82-1.2c-.39-.28-.38.17-.78,0s-.78-.84-1-1.09a6,6,0,0,0-1.18-1c-.42-.21-.85,0-1.27-.26s-.68-.66-1-.95a13.17,13.17,0,0,0-1.31-.82,7.85,7.85,0,0,1-1.54-.89c-.37-.37-.19-.37.21-.2s.66.43.74-.16C93.66,17.17,93.29,17.76,93.34,17.33ZM95,21.88c.41.15.63.71.9,1a7.07,7.07,0,0,0,1,.93c.78.62,1.7,1,2.5,1.57a10.92,10.92,0,0,0,1,.83c.36.2.94.31.71-.28-.31-.79-1.61-1.5-2.27-2-.89-.66-1.81-1.27-2.71-1.91-.32-.23-.6-.5-.93-.71S94.32,21.2,94,21a10.48,10.48,0,0,1-1.11-1,8.51,8.51,0,0,0-1.3-.87c-.56-.3-1.15-.55-1.73-.82-.37-.17-.88-.58-1.27-.27a15.42,15.42,0,0,0,3.69,3.25,15.56,15.56,0,0,0,2.06,1.08c.3.13.81.51.8,0C95.11,22.21,95,22,95,21.88ZM79.87,51.4c.8.18,1.2,1,2,1.23.49.12,1.67.26,1.83-.42.31.11.44.43.76.52a6.19,6.19,0,0,0,1.62,0c.29,0,1.23.13,1.22-.31s-.75-.64-1-.79c-.42-.27-.84-.53-1.25-.82s-.72-.7-1.15-.74-.93.19-1.45.1-1.11-.22-1.67-.3-1.14-.14-1.7-.21c-.27,0-1-.26-.94.25,0,.22,2.08,1.41,1.63,1.67-.23.13-.29-.15-.48-.16-.44,0-.24.31-.09.63.27.58.62.55,1.2.39,0-.29-1-.78-.54-1C80.35,51.51,79.65,51.51,79.87,51.4ZM72,9.82c1.31-.18,2,.76,3.17,1.13.32.11.87.08,1.11.34s.08.34.16.52a1.3,1.3,0,0,0,.48.47c2.25,1.73,4.51,3.43,6.64,5.31s4,3.82,5.9,5.82c.89.93,1.87,1.78,2.68,2.78s1.46,2.08,2.15,3.14a57.92,57.92,0,0,1,3.81,7A22.51,22.51,0,0,1,99.35,40c.07.24.58,2.64,1.21,2.2s-.64-3.1-.83-3.58a28.22,28.22,0,0,0-1.52-3.85,5.93,5.93,0,0,1-.77-1.3,10.78,10.78,0,0,0-.72-1.84c-.56-1.08-1.23-2.15-1.87-3.18-.4-.65-.86-1.27-1.29-1.9-.12-.17-1-1.63-.36-1.29.21.1.42.63.55.82l.67,1c.42.62.84,1.24,1.23,1.88a34.74,34.74,0,0,1,2.14,3.75,3.82,3.82,0,0,0,2.53,2.12,11.38,11.38,0,0,0-.78-3.18,1.93,1.93,0,0,0-.27-.54c-.08-.1-.47-.32-.51-.4s0-.3.06-.5a1.4,1.4,0,0,0-.18-.74c-.21-.51-.49-1-.74-1.47s-.34-1-.67-1.26-.68.25-1,.14a1.4,1.4,0,0,1-.61-1c2.49.23,4.29,2.07,6.37,3.25a5.41,5.41,0,0,0-.43-1.35,4.28,4.28,0,0,0-1.26-1.08c-.49-.35-1-.71-1.53-1-.19-.11-.9-.41-.6.13-.44-.11-.73-.72-1.07-1a8.34,8.34,0,0,0-1.36-1.06c-.42-.27-.85-.51-1.28-.74-.2-.11-1.07-.78-1.32-.66-.44.2.32.56.2.84s-.81-.39-.95-.57c-.33-.43-.39-.86-.87-1.17s-.86-.34-1.27-.56c-.08.6.68,1.27,1,1.71l1.56,2.13c-.54-.13-.78-.55-1.12-1s-.9-1.08-1.33-1.64A12.81,12.81,0,0,0,89,20.66c-.36-.35-.34-.82.22-.56.3.14.87.95,1.28.54.2-.2-.87-.85-1.1-1.07A35.24,35.24,0,0,0,86.48,17c-.48-.36-.88-.82-1.35-1.2-.62-.51-1.28-1-1.9-1.47-1.12-.92-2.2-1.81-3.38-2.65S77.46,10,76.19,9.29a8.21,8.21,0,0,0-4.13-1.56,2.91,2.91,0,0,0-1.84.54c-.3.33-.18.9-.09,1.3s.38.9.81.39.56-1.11,1.14-1.38c0,.36-.19.66-.25,1,0,.12,0,.63.14.23C72.68,9.72,71.94,9.9,72,9.82Zm3.76,19c.36-.34-.26-1.06-.26-1.48s.26-.75-.26-1.09a3.1,3.1,0,0,0-1.32-.5c-.29,0-.29.06-.3.4a1.2,1.2,0,0,0,.15.65c.19.33.62.55.61,1s-.21.44-.11.78a1.84,1.84,0,0,0,.3.47c.56.81,1.79,1.63,2,2.62-.76-.23-1-1.12-1.73-1.39.29,1,.24,1.74,1.26,2.35,1.18.7,2.38,1.41,3.58,2.08.21.12,1.34.5,1.32.8,0,.56-1.15-.16-1.42-.3-1.21-.64-2.35-1.4-3.53-2.08S73.69,31.79,72.6,31A15.5,15.5,0,0,1,71,29.8c-.36-.32-.81-.78-1.3-.39-.3.24-.13,1-.61.94s-.26-.9-.24-1.19a1.23,1.23,0,0,0-.66-1.37c-.69-.23-.38.39-.75.66-.48-.52-.13-1.38-.85-1.76-.21.54-.09,1.26-.58,1.67a9.42,9.42,0,0,0,0-1.58c0-.15,0-.43-.1-.55s-.12,0-.37,0c-.46,0-.34-.08-.51-.53a1.86,1.86,0,0,0-.59-.82,2.59,2.59,0,0,0-.77-.51c-.27-.07-.15-.14-.35.05a1.84,1.84,0,0,0-.18.59,20,20,0,0,0-.6,3,7.9,7.9,0,0,0-.17,2.68c.2.81,1,1.33,1.56,1.88q.56.54,1.11,1.11c.18.19.5.74.81.68s.34-.46.33-.67-.16-.33-.17-.5a1.72,1.72,0,0,1,.24-.65,19.07,19.07,0,0,1,.39,2.16,3.08,3.08,0,0,0,1.1,1.67c.54.53,1.08,1,1.63,1.56A3.44,3.44,0,0,0,70.9,39c-.26-1.55-.76-3.12-.37-4.69a33.07,33.07,0,0,0,.65,3.41,5.64,5.64,0,0,0,1.19,3c.75.74,1.57,1.41,2.38,2.09.19.16.51.57.79.46s.15-.54.17-.57c.11-.21.29.53.33.64a4,4,0,0,0,.6,1,11.78,11.78,0,0,0,2.07,1.67c1.69,1.25,3.39,2.47,5.15,3.62A12.78,12.78,0,0,0,86.05,51c.36.14.68,0,1,.26s.57.49.9.7a5.35,5.35,0,0,0,1,.47,4.35,4.35,0,0,1,1,.71,2.82,2.82,0,0,0,2.37.5c0,.52.08.87.63,1,.7.13,1.3-.47,1.87-.8a15.77,15.77,0,0,0,3.71-2.53c-.21-.11-1-.24-.57-.6.25-.21,1-.12,1.38-.19a3.18,3.18,0,0,0,1.3-.53c.28-.21.58-.73.92-.28a42.94,42.94,0,0,1-7.71,5.44c1,.09,1.64.83,2.56.21A20,20,0,0,0,99,53c.75-.73,1.55-1.41,2.29-2.15a2.94,2.94,0,0,0,.85-2.59c-.11-1.34-1.06-.41-1.75-1-.18-.16-.47-.73-.11-.85s.42.46.73.39c.8-.19-1.09-1.59-.4-1.86.38-.15.34.43.56-.1a1.91,1.91,0,0,0-.37-1.45c-.31.2-.12.54-.26.81-.28.57-.51,0-.65-.35-.41-1.11-.55-2.35-.9-3.49a36.35,36.35,0,0,0-2.69-6.46c-1.11-2.06-2.26-4.11-3.55-6.06a30.1,30.1,0,0,0-4.29-4.89A88.76,88.76,0,0,0,78.3,14c-.83-.59-1.62-1.28-2.47-1.83a1.85,1.85,0,0,0-2.37.19A4,4,0,0,0,72.52,15c0,.37.2.64.06,1s-.19.23-.25.5a4.92,4.92,0,0,0,0,1.14,7.91,7.91,0,0,0,.83,3.62c.26.43.58.83.89,1.24.17.22.65,1.15.73.41a6.29,6.29,0,0,0-.52-1.64q-.26-.93-.44-1.87c-.07-.34-.36-1.11-.23-1.45s.42-.25.72-.26A7.16,7.16,0,0,0,75.7,21.5c.25.44.42,1.06.93,1.18.25.06.38-.14.62.07s.15.3.21.44a20.48,20.48,0,0,0,1.85,3.39,5.64,5.64,0,0,0,2.8,2.52l-3.53-5.33L76.79,21a12.12,12.12,0,0,1-1.62-2.68c-.11-.36,0-.71.43-.5s.66,1,.86,1.31L78.2,22a28.33,28.33,0,0,0,3.42,4.92c-.14-1.07-1-1.78-1.55-2.63-.3-.46-1.73-2.17-1.18-2.63s.53.12.67.44a8.94,8.94,0,0,0,.88,1.47c.71,1,1.4,2.11,2.12,3.15s1.52,2,2.31,3c.39.49.75,1,1.1,1.51.21.31.76.83.78,1.23,0,.08-.22.49-.2.52s.32,0,.47.06a1.06,1.06,0,0,1,.65.57,5.83,5.83,0,0,0,1.49,2,3,3,0,0,0-.55-1.41,13.53,13.53,0,0,1-.77-1.41c-.14-.26-1.47-2.25-.85-2.2.26,0,.83,1.3,1,1.53q.45.78.87,1.57c.62,1.18,1.25,2.39,1.75,3.62.12.3.61,1.24.32,1.54-.45.46-.49-.34-.62-.54-.24-.38-.68-.2-1-.47s-.56-.92-.9-1.29a5.31,5.31,0,0,0-1.12-1.07c-.43-.22-.65.07-1-.34-.65-.69-1.19-2.11-2.39-1.76.19.68.39,1.32.63,2a1.09,1.09,0,0,1-.06,1.07,7.23,7.23,0,0,0-1.74-2.51,10,10,0,0,0-2.06-2.24,9.75,9.75,0,0,0,.71,2.56c.13.35.17.75-.31.53s-.6-.81-.85-1.13c-.6-.75-1.32-1.43-2-2.12-.32-.33-.59-.47-.52.1s.36.77.13,1.25a5.63,5.63,0,0,1-1-2.09,7.46,7.46,0,0,0-.49-1c-.15-.25-.71-.8-.54-1S75.7,28.85,75.73,28.8ZM18.65,63.72c1.4-1.21,1.87-3.27,2.41-5a36.9,36.9,0,0,0,1.68-6.2c.28-2,.53-4.09.74-6.14.11-1.1.18-2.21.33-3.31.11-.8.12-1.71,1-2.08-.86,6.5-1,13.19-3.48,19.36a15.59,15.59,0,0,0,2.17-2.79A6.91,6.91,0,0,0,25,54.74,37.62,37.62,0,0,0,25.7,51a25,25,0,0,0,.45-3.78c0-1.28.28-2.6.38-3.88s.29-2.61.45-3.92c0-.25.14-.85.54-.52.25.2,0,1.19,0,1.45-.13,1.43-.28,2.86-.4,4.3s-.23,3.11-.42,4.66c-.16,1.29-.76,2.88-.39,4.18,2.72-4.94,3.05-10.43,3.94-15.88a11.31,11.31,0,0,0,0-1.73,11.19,11.19,0,0,1,.29-2.14c.05-.25.09-1.24.47-1.25s0,1.54,0,1.8c-.18,1.39-.15,2.81-.26,4.21s-.27,2.86-.48,4.28c-.11.73-.25,1.46-.38,2.19,0,.16-.12.33,0,.49s.37.17.47.37-.11.54-.14.73c-.07.36-.07.72-.14,1.07a5.45,5.45,0,0,0-.36,2.25,2.18,2.18,0,0,1,.64-1c.41-.29.54-.24.7-.77A11.1,11.1,0,0,0,31.38,45a27.39,27.39,0,0,1-.05-3.56c0-.24.21-.81.57-.57s0,1.2,0,1.47c0,1.22,0,2.48,0,3.7,0,.35.06.84.45.39a2.89,2.89,0,0,0,.33-1.29,27.8,27.8,0,0,0,.07-3.43c0-.62,0-1.23-.06-1.85,0-.38-.17-.88.29-1.07a30.51,30.51,0,0,1,.46,4.17,5.63,5.63,0,0,0,.55-1.8,8.3,8.3,0,0,0,.38-2.1c0-.55-.21-1.23,0-1.75.09-.21.29-.31.4-.5a2.25,2.25,0,0,0,.16-.8c.33-2.7,1.16-5.51,1-8.25,0-.78,0-1.57,0-2.35,0-.29-.34-1.51.25-1.43s.36,3.1.35,3.64c0,1.51-.1,3-.14,4.52s-.35,3.26.07,4.65c.55-.58.46-1.63.53-2.37.08-.91.24-1.79.41-2.69s.3-1.77.41-2.66.07-1.79.25-2.63c.11-.53.67-.43.73-1,0-.37-.25-.88-.14-1.23.06-.19.18-.35.43-.28s.22.32.24.56c.05.59,0,1.33.43,1.79a8.71,8.71,0,0,0,.38-1.77A3.3,3.3,0,0,0,40,22.72c-.08-.36-.08-1.45.48-.79.31.36.27,1.51.34,2,.23,1.38.47,2.76.67,4.15.1.72.2,1.44.27,2.16a4.66,4.66,0,0,0,.36,1.91c.44-.16.36-1.28.42-1.66.12-.72.24-1.45.3-2.18a15.74,15.74,0,0,0-.57-4.84c-.17-.77-.36-1.53-.58-2.29-.09-.31-.35-1.56.34-.87.38.39.43,1.57.55,2.09s.14,1.62.63,1.85a9.62,9.62,0,0,0,.26-1.8,3.86,3.86,0,0,0,0-1.66c-.12-.43-1.41-2.75-1-3s1.24,2.07,1.38,2.38c.47,1.07.41,2.34,1.12,3.3a14.88,14.88,0,0,0,.24-4.25,17.92,17.92,0,0,0-.54-2.31c-.21-.67-.63-1.29-.83-2s.27-.85.61-.23a12.12,12.12,0,0,1,.7,2.1A14.06,14.06,0,0,1,45.71,19c.09.58,0,1.3.59,1.67a16.42,16.42,0,0,1,.22-2,5.48,5.48,0,0,0-.39-2,17,17,0,0,0-1.55-3.44c-.12-.2-.48-.57-.52-.8s.05-.19.1-.53c.08-.5-.42-1-.69-1.33a8.14,8.14,0,0,0-1.15-1.62c-.43-.35-.92-.17-1.4,0s-1.34.29-1.44.74.41.85.54,1.15a16.36,16.36,0,0,1,1,3.41c.09.44,0,1.09-.36.45a6.11,6.11,0,0,1-.1-1.18c-.05-.29-.12-.58-.19-.87-.24-1-.3-2.27-1.47-2.61a15.56,15.56,0,0,1,.8,4.84c0,.3.25,1.31-.18,1.42-.69.16-.32-1.22-.31-1.51A11,11,0,0,0,39,12.25a7.71,7.71,0,0,0-.26-.8c-.09-.29,0-.59-.11-.87C38.5,10,38,10,37.6,10.33s-.44,1.14-.39,1.82a13.11,13.11,0,0,1-.05,2.42c0,.4-.1.8-.14,1.2a5,5,0,0,1-.09,1.29c-.28.56-.59.1-.58-.31,0-.87.19-1.75.28-2.62a6.79,6.79,0,0,0,.08-2.2c-.15-.6-.61-.7-1-.16a5.54,5.54,0,0,0-.5,2c-.19.9-.42,1.79-.65,2.68-.1.4-.21.79-.31,1.19A6.31,6.31,0,0,1,34,19.07c-.13.22-.38.35-.58.11s0-.69.08-.9a21.59,21.59,0,0,0,.72-2.5c.15-.77.66-2,.36-2.75a1.53,1.53,0,0,0-.8,1.14c-.14.8-.45,1.54-.63,2.33a11.72,11.72,0,0,1-.61,2.24c-.31.69-.61,1.4-.94,2.08-.11.24-.35.68-.65.72a.35.35,0,0,1-.41-.47c.09-.23.51-.43.65-.68a8.3,8.3,0,0,0,.4-.87c.33-.74.67-1.49.93-2.26A15.82,15.82,0,0,0,33,14.61c-1-.29-1.72,2.64-2,3.27a31.57,31.57,0,0,1-1.92,4.31c-.12.2-1.16,1.66-1.14.6,0-.18.29-.52.37-.66.18-.33.34-.66.54-1a15.76,15.76,0,0,0,1.8-4.23,11,11,0,0,0-2.14,3.62,27.54,27.54,0,0,1-2.1,4c-.12.2-.92,1.59-1.23.72-.12-.34.61-1,.78-1.23a11.73,11.73,0,0,0,2-3.88c-.57-.09-1.25,1.17-1.54,1.56-.51.68-1,1.38-1.43,2.11a44,44,0,0,1-2.61,4.31,31.75,31.75,0,0,0-2.88,4.3A42.36,42.36,0,0,1,16.81,37a27.51,27.51,0,0,0-2.42,4.67c-.77,1.67-1.45,3.37-2.17,5-1.48,3.44-2.89,6.87-4.07,10.43s-2.32,7-3.41,10.49c-.54,1.74-1,3.5-1.5,5.24-.06.21-.33.74-.09.93s.47-.27.53-.5c.24-.77.36-1.57.62-2.35a38.93,38.93,0,0,1,1.61-4.76,12.69,12.69,0,0,1,1-2c.43-.57,1.2-.28.76.39-.19.29-.53.45-.73.74a5.5,5.5,0,0,0-.44,1,20.69,20.69,0,0,0-.93,2.35C5,70.45,4.48,72.28,4,74.11c-.27,1-.52,2.06-.72,3.1-.07.34-.53,2.25.48,2,.32-.1.37-.75.45-1a9.76,9.76,0,0,0,.43-1.49,5.17,5.17,0,0,1,.16-1.25c.17-.48.35-.94.5-1.43a50.69,50.69,0,0,0,1.26-5.58,1.26,1.26,0,0,1,.45-.9c.32-.26.5-.24.63-.66.25-.81.12-1.53.92-2.08A109.54,109.54,0,0,1,6.25,78.35c1,0,1.16-.67,1.37-1.62.13-.62.21-1.24.39-1.85a12.44,12.44,0,0,0,.55-1.79c.1-.66.32-1.3.45-1.95s.23-1.51.41-2.26a39.56,39.56,0,0,0,.83-4.43c.18-1.49.19-3,.4-4.48,0-.25.06-1.42.58-1.2s.08,1.33,0,1.67c-.27,1.48-.3,3-.49,4.5s-.48,3-.8,4.48-.62,3.22-1,4.81a25,25,0,0,1-.75,2.5,3.79,3.79,0,0,0-.38,1.9,17.76,17.76,0,0,0,2.89-4.9c.64-2,1-4.12,1.47-6.2s.68-4.3,1-6.45c.16-1.1.24-2.2.41-3.29a3.81,3.81,0,0,1,.93-2.43c-.78,6.19-1.34,12.39-3.21,18.37,1-.44,1.59-1.82,2-2.79a32.07,32.07,0,0,0,1.26-3.75c.36-1.34.62-2.7.87-4.07.12-.65.24-1.3.31-2s.29-1.31.36-2c.13-1.29.22-2.61.32-3.9a4.74,4.74,0,0,1,.26-1.9c.33-.6.63-.13.61.38-.14,2.75-.59,5.54-1,8.27a36.08,36.08,0,0,1-.77,4.11c-.17.65-.36,1.3-.58,1.94s-.08,1,.39.39a12.14,12.14,0,0,0,1.86-3.06,10.84,10.84,0,0,1,.47-1.6,9.55,9.55,0,0,0,.52-1.52c.07-.21.22-.42.28-.63a6,6,0,0,0,0-.88c.07-.6.31-1.17.42-1.76.25-1.38.37-2.79.57-4.18s.38-2.83.45-4.25a10.81,10.81,0,0,1,.14-1.72c.09-.43,0-1.43.37-1.73.74-.69.44.75.39,1-.13.76-.15,1.53-.21,2.29-.13,1.61-.31,3.22-.5,4.83s-.4,3.13-.71,4.68c-.16.77-.33,1.55-.55,2.31C18.79,62.71,18.53,63.47,18.65,63.72ZM85,13.53c-.3-.7-1.21-1.23-1.81-1.69s-1.51-1.08-2.29-1.59c-1.45-.94-3-1.82-4.48-2.64a6.2,6.2,0,0,0-1.94-.72c-.36-.06-2,.25-1.64-.43s1.77-.08,2.23,0a14,14,0,0,0,2.7.31c-.14-.9-2.73-1.1-3.45-1.15a2.74,2.74,0,0,0-3,1.54c2.55-.29,5.17,1.61,7.18,3s3.83,3.44,6.48,3.39C84.9,13.35,83.54,13.55,85,13.53ZM61.56,29.8c.27-.45-.13-1,.16-1.44.15-.23.43-.23.54-.46s0-.91,0-1.19a6,6,0,0,1,.22-1.21,8.55,8.55,0,0,0,.45-1.26c.08-.69-.75-1.39-1.25-1.78s-1.16-.64-1.32.2-.38,1.92-.6,2.88c-.18.81-.55,1.77,0,2.48a7.14,7.14,0,0,0,1.82,1.79C61.63,29.69,60.74,29.29,61.56,29.8ZM64,37.53c.53,1.83.85,3.9,1.94,5.49.5.73,1.14,1.32,1.7,2,.28.35,1.37,1.59,1.89,1.36s-.73-1.92-.91-2.24c-.52-.87-1.07-1.74-1.5-2.66A13.85,13.85,0,0,0,65.74,39c-.46-.62-.89-1.52-1.76-1.5C64.29,38.6,64.44,37.52,64,37.53Zm3.5-.77c-.64.23.63,3.73,1,4.18a22.45,22.45,0,0,0,1.83,1.85c.25.24,1.54,1.84,1.89,1.32.25-.38-.4-1.72-.52-2.1a4.49,4.49,0,0,0-.83-2.06c-.55-.57-1.18-1.07-1.76-1.62-.35-.33-1.14-1.59-1.6-1.57C67.21,36.86,67.67,36.75,67.49,36.76Zm4.7,5.11a16.55,16.55,0,0,0,.6,2,5,5,0,0,0,1,2.13,18.5,18.5,0,0,0,1.92,1.68C76,48,77.19,49.22,77,48a24.59,24.59,0,0,0-.59-2.64,3,3,0,0,0-1.23-1.66,9.35,9.35,0,0,1-1.84-1.64c-.42-.53-1.06-1.33-1.16-.21C72.19,41.9,72.21,41.58,72.19,41.87Zm-9.43-9.76c.27,1.33.3,3.19,1.2,4.25.57.67,1.2,1.29,1.8,1.94.24.26,1.48,1.81,1.51.81a10,10,0,0,0-.55-2.17,4.28,4.28,0,0,0-.81-1.73c-.48-.6-1.1-1.05-1.58-1.66a4,4,0,0,0-1.59-1.43C63,33.29,63.31,32.35,62.76,32.11ZM96.64,55.83a6.44,6.44,0,0,0,1.51.56c.36.15.51.3.85.1a2.94,2.94,0,0,0,.7-.76c.31-.62-.54-.2-.85-.49,1-.07,1.69-.08,2.28-1a5.8,5.8,0,0,0,.63-3,31.5,31.5,0,0,0-2.45,2.24c-.87.81-1.78,1.58-2.68,2.36C97.12,56.21,97.51,55.06,96.64,55.83Zm3.57-24.15a8.79,8.79,0,0,0,.44,2.14,14.6,14.6,0,0,0,.45,1.69c.47,1,2,1.65,2.93,2.1a5.64,5.64,0,0,0-1-3.39,14.57,14.57,0,0,0-2.8-2.54C100.28,33.17,101.51,32.64,100.21,31.68ZM59,26c.59-.09.49-1.65.58-2.11a11.77,11.77,0,0,0,.55-2.23,1.55,1.55,0,0,0-1-1.4c-.8-.38-.91.58-1.14,1.2-.49,1.32-1.62,3.44-.16,4.5.75.54.6-.33.55-.85a4.13,4.13,0,0,1,.39-2.59A14.09,14.09,0,0,0,59,26C59.29,26,58.58,24.88,59,26Zm.39,2.34c.1,1.38,0,2.64.86,3.82a15.08,15.08,0,0,0,1.22,1.42c.36.4.71,1,1.27,1.19,0-1.23-.64-2.36-.93-3.52s-1.55-2.11-2.41-2.9C59.41,29.27,60.28,29.2,59.35,28.36Zm2.76,7.76c.76,1.07.92,2.47,2,3.35a9.27,9.27,0,0,0-3.92-6.32c.17,2.5.79,4.94,2.88,6.52-.1-1.26-1.41-2.19-.92-3.56C62.89,37.22,61.83,36.91,62.11,36.12ZM82.79,9c.88.61,1.75,1.24,2.65,1.82s1.72.91,2.56,1.4a18.43,18.43,0,0,0,2.31,1.35,8.7,8.7,0,0,1,1.25.57c.19.12.76.72,1,.58.51-.29-1.27-1.54-1.55-1.72-.8-.52-1.64-1-2.47-1.47A27.71,27.71,0,0,0,82.79,9C83.51,9.49,85.31,9.73,82.79,9ZM80,32.82c.29-.55-.09-1.13-.29-1.65-.27-.7-.73-1.24-1-1.89a1.67,1.67,0,0,1-.19-.22.27.27,0,0,1,.13-.29c-.06-.28,0-.18-.22-.38s-.95-.48-1.34-.83c-.12-.11-.35-.49-.55-.47-.43.06-.24.4-.18.62a9,9,0,0,1,.29.92,2.92,2.92,0,0,0,.32,1c.73,1.29,2.07,2.18,3.08,3.22C80.14,32.51,78.95,31.77,80,32.82Zm23,.61c.16-1.62-.85-2.4-1.72-3.58A5.46,5.46,0,0,0,100,28.43c-.52-.36-1.1-.61-1.62-1-.29.5.4,1.16.62,1.58a6.55,6.55,0,0,0,.94,1.72,14.72,14.72,0,0,0,1.59,1.33c.51.41.9,1,1.43,1.35C103.07,32.42,102.42,33,103,33.43Zm1.83,9.15c.25-.69-.13-.67-.38-1.13s.23-.81.19-1.31-.58-1.09-1-1.51a8.38,8.38,0,0,0-1.5-1.49c-.79-.44-.54.41-.44.88a7.32,7.32,0,0,0,.35,2c.28.47,1,.82,1.4,1.19s.92.92,1.36,1.4C105,42.06,104,41.65,104.8,42.58ZM40.42,35.8c1.41.23.92-3.59.86-4.28-.08-.91-.19-1.82-.3-2.72-.07-.63,0-1.67-.53-2.1a24.14,24.14,0,0,0-.3,4.46c.15,1.56.27,3.07.27,4.64C40.5,35.81,40.42,35.18,40.42,35.8Zm-33,32.33a5.86,5.86,0,0,0-.81,2.63,23.16,23.16,0,0,1-.75,3c-.31,1-.54,2-.76,3-.09.4-.83,2.42-.3,2.49s.88-1.61,1-2c.27-1,.32-2,.6-2.93a27.87,27.87,0,0,0,1-6.12C7,68.62,7.4,68.76,7.43,68.13ZM73.21,47.47c-.73-.85-1-2-1.7-2.84a28.08,28.08,0,0,0-2.62-2.47c-.32,1.25.93,2.56,1.55,3.51a3.88,3.88,0,0,0,1.11,1.42,3.73,3.73,0,0,0,1.67.37C72.37,46.5,72.12,47.4,73.21,47.47Zm-7.45-2.2c.31-1.29-.81-2.34-1.56-3.24-.45-.54-.91-1.07-1.37-1.61-.24-.28-.89-1.33-1.07-.84-.13.34.49,1.41.64,1.73a11.54,11.54,0,0,0,.94,1.62,7,7,0,0,0,2.42,2.33C66,44.41,64.08,44.42,65.76,45.27ZM57.24,18.62c-.75.43-1.77,2.24-1.37,3,.09.18.2.09.28.32a3.52,3.52,0,0,1,0,.84c0,.25-.11,1.06.14,1.24.58.4,1-2,1.14-2.27a18.14,18.14,0,0,0,.79-1.93c.16-.67-.43-.84-.94-1.2C57.12,18.69,57.55,18.84,57.24,18.62ZM79.55,6.91c.23.65,1.38.64,1.95.82a26,26,0,0,1,2.44.94c.79.33,1.58.67,2.35,1,.62.3,1.64,1.2,2.35.95a8.56,8.56,0,0,0-4.19-2.43c-.84-.28-1.68-.55-2.52-.82-.67-.21-1.68-.77-2.38-.51C79.65,7.19,80,6.74,79.55,6.91ZM52.39,19.47c.4,0,.62-.91.76-1.19L54,16.54c.22-.45.6-1,.22-1.51a.55.55,0,0,0-.85-.07,6.61,6.61,0,0,0-1.61,2.76c-.16.46-.18,1.74.63,1.75C52.59,19.46,52.08,19.47,52.39,19.47ZM73.57,2.32a4.58,4.58,0,0,1,1.81.31,11.26,11.26,0,0,0,1.85.54l4.14,1a17,17,0,0,0-3.67-1.84,4.91,4.91,0,0,0-4.12,0C74.1,2.35,75.51,1.35,73.57,2.32Zm1.12,46.34a15.54,15.54,0,0,0,1.68,2.47c.24.34,1.58,1.63,1.87.82.11-.3-.32-1-.41-1.31a2.38,2.38,0,0,0-.53-1.06,5,5,0,0,0-2.61-.93C75.16,49.72,75.34,48.75,74.69,48.66Zm27.83-6.74a6,6,0,0,0,.3,3.25,8.36,8.36,0,0,0,.79,1.51c.25.39.75,1.17,1,.31s-1.28-1.89-.93-2.56c.12-.22.33-.07.34-.37s-.25-.45-.33-.59a7.92,7.92,0,0,0-1.2-1.57C102.13,44.07,103.19,42.56,102.52,41.92ZM44.15,23.66c-.38,0-.33,1.33-.4,1.75a14.35,14.35,0,0,0-.21,2.13c0,.44,0,3.44.42,3.36.27,0,.16-.23.18-.39a.67.67,0,0,1-.07-.48l.12-.46a15,15,0,0,0,.39-2,9.66,9.66,0,0,0-.43-3.88C44.08,23.67,44.47,24.53,44.15,23.66Zm45-14.35c-2.11-2-4.43-3.78-7.37-4.25,1.05.93,2.53,1.29,3.7,2.08.59.4,1.2.76,1.79,1.14a6.39,6.39,0,0,0,1.88,1C87.06,7.35,88.19,9.07,89.12,9.31ZM84.33,7.42A17.05,17.05,0,0,0,80.05,5.7a13.56,13.56,0,0,0-4.34-.91,6.39,6.39,0,0,0,1.63,1c.4.09.84,0,1.26.13s.83.23,1.24.35c.74.22,1.48.38,2.2.65a5.55,5.55,0,0,0,2.29.52C83.49,6.87,83,7.51,84.33,7.42Zm-1.24,48c-.78,0-1.53-.1-.94.83a3.37,3.37,0,0,0,2,1.25c.28.09.81.39,1.07.17s-.33-.78-.49-1c-.47-.72-.64-1.44-1.69-1.23C82.82,55.43,83.75,55.29,83.09,55.43ZM75.23,21.77c.19.66.23,1.37.48,2s.71.87.93,1.39c.13.3,0,.48,0,.75s.35.4.56.55a5.71,5.71,0,0,0,1.83,1,22.31,22.31,0,0,0-2-2.6,20.85,20.85,0,0,1-1.84-3.1C75.49,22.69,75.66,22.85,75.23,21.77ZM90.39,56c-1.52-.69-3.08-1.38-4.71-.6a5.54,5.54,0,0,0,2.24,1.1A2.72,2.72,0,0,0,90.39,56C88.86,55.29,89.25,56.85,90.39,56ZM83.08,10.07c-2-1.81-4.08-2.78-5.27-2.51A10.73,10.73,0,0,0,83.08,10.07ZM53.16,20.5c.47-.27.38-.32.56-.8a3.78,3.78,0,0,1,.69-.89c.38-.5,1.83-2,.94-2.48s-1.38,1.38-1.62,2A8,8,0,0,1,53,19.71c-.12.18-.48.86.15.79C53.34,20.4,53,20.53,53.16,20.5Zm11.71.81c-.46.38-.1.54.09.89a2.25,2.25,0,0,1,.11.93c0,.46.08,1,.15,1.44a.67.67,0,0,0,.61.64c.76,0,.8-1.2.66-1.71a4.92,4.92,0,0,0-1.61-2.18C64.61,21.52,65.6,22,64.87,21.31ZM35.28,42.78c.91-2.22.44-4.39.47-6.52A13.28,13.28,0,0,0,35.28,42.78ZM84.9,53.44a9.27,9.27,0,0,0,2.92.91c.31,0,1.75,0,1.89-.36.21-.57-1-.86-1.33-.91a7.7,7.7,0,0,0-1.69.17l-1.79.2C86.08,53.85,86,53.32,84.9,53.44Zm10.82,5.75a14.76,14.76,0,0,0-2.6-.63c-.63-.1-1.55-.09-.92.7a2.24,2.24,0,0,0,3.52-.07C94.7,58.83,94.55,60.44,95.72,59.19ZM67.32,24.38a3.41,3.41,0,0,0,.33,2.26c.19.3,1,1.09,1.39.78s0-1.22-.16-1.54a3.37,3.37,0,0,0-1.56-1.5C67.17,24.88,68.34,24.82,67.32,24.38ZM38.86,26.81a9.23,9.23,0,0,0,.2,5.21A8.2,8.2,0,0,0,38.86,26.81ZM106,39.38c-.21-1.48-.27-2.85-1.8-3.75C104.53,37.08,104.36,38.55,106,39.38ZM74.57,31.54a6.18,6.18,0,0,0-.75-2.33c-.19-.32-1.23-1.9-1.47-1.08-.09.29.3.86.37,1.15a4.83,4.83,0,0,0,.23,1,3.27,3.27,0,0,0,1.63,1.21C74.37,30,73.61,31,74.57,31.54ZM52.63,14.06c-.45-.35-.89-.68-1.36-.24a4.66,4.66,0,0,0-1.12,2c0,.25.11.64.4.7s.46-.39.62-.65a15,15,0,0,1,1.45-1.8C51.89,13.48,52,14.78,52.63,14.06ZM38.33,32.44a6.92,6.92,0,0,0-.27,4.81A6.81,6.81,0,0,0,38.33,32.44ZM93.44,58a6.43,6.43,0,0,0,2.65.72c.61,0,.73-.36.94-.9-1.34-.38-2.44-.93-3.59.18C94.18,58.37,94.24,57.24,93.44,58Zm.19-1a4.9,4.9,0,0,0-2-.69,2.79,2.79,0,0,0-1.58.84c1.22.31,2.59,1,3.61-.15C91.67,56.16,93.19,57.54,93.63,57.06ZM72.07,48a38.75,38.75,0,0,0,2.83,3.51,6,6,0,0,0-.81-2.41,2.25,2.25,0,0,0-2-1.1C73,49.17,73.42,48,72.07,48Zm27,11.87a5,5,0,0,0-2.1-.46c-.6,0-.94.45-1.22.93.86,0,3,.83,3.32-.47C98.53,59.52,98.93,60.38,99.07,59.83Zm3.15-7.12a2.59,2.59,0,0,0,1.25-1.22,1.17,1.17,0,0,0,.14-.89,4.55,4.55,0,0,0-.23-.61c-1.15-.9-1.17,2.25-1.16,2.72C102.77,52.46,102.18,51.83,102.21,52.7ZM88.32,60.93a3.69,3.69,0,0,0-2.16-1.55,2.28,2.28,0,0,1-.66-.28c-.13-.1-.23-.29-.38-.36s-.55,0-.84.08a36.49,36.49,0,0,0,4,2.1C87.81,60.09,87,60.22,88.32,60.93Zm-32.23-30c-.08-.86-.16-1.71-.24-2.57,0-.33-.54-1.81-1.09-1.42s.37,1.55.47,2a7.8,7.8,0,0,0,.11,1,3.2,3.2,0,0,0,.75,1C56,29.85,55.54,30.34,56.09,30.92Zm6.29-12.28a2.91,2.91,0,0,0,.31,1.89c.16.3.6,1.16,1,1s.06-1.12-.07-1.41a3.93,3.93,0,0,0-1.25-1.44C62.19,19.76,63.24,19.29,62.38,18.63ZM92.73,62.4a4.54,4.54,0,0,0,2.75.57c-.36-.34-1-.08-1.28-.33s.11-.47,0-.73-.78-.48-1-.09.2.63-.51.57C93.63,62.85,93,62.43,92.73,62.4Zm-.42-7.28c-1.11-.95-2.2-.64-3.31-.2C90.07,55,91.08,56.16,92.31,55.12Zm8.7,2.47a7.75,7.75,0,0,0,2.27-2.48c-.61.08-1.35,0-1.76.58s-.08,1.39-.5,1.9C102,57,101.33,57.2,101,57.59ZM70.13,17.65c.17-.48.33-2.69-.41-2.83-.46-.09-.6,1.12-.56,1.4a2.35,2.35,0,0,0,1,1.43C70.36,17,69.1,16.83,70.13,17.65ZM46.77,11.76A2.49,2.49,0,0,0,45,8.9,13.72,13.72,0,0,0,46.77,11.76ZM104,51.82c-.35.44-1,.83-1.27,1.34s.34.83.88.8.56-.32.63-.86.31-1-.23-1.27C103.67,52.25,104.36,52,104,51.82ZM71.5,14a3.6,3.6,0,0,0,.22,3.9A28.34,28.34,0,0,0,71.5,14Zm-1-8.35c.52-.24,1-.49,1.56-.71a3.7,3.7,0,0,0,1.48-.76c-.53-.32-1.51-.56-2-.1a4.25,4.25,0,0,0-1,1.57C71.07,5.33,70.67,4.88,70.46,5.6Zm3.44,5.49c-1.34-1.14-2.61.76-2.13,2.07.66-.76,1-1.88,2.13-2.07C73.33,10.61,72.74,11.3,73.91,11.1Zm-12.53,8.2c.42-.55.11-1.27-.15-1.83-.12-.25-.18-.45-.46-.56s-.35,0-.44.29c-.29,1,.39,1.54,1.05,2.1C61.88,18.63,60.21,18.3,61.38,19.29ZM49.6,15.37A5.38,5.38,0,0,0,50.49,14c.18-.34,1-1.28.19-1.45-.57-.12-1.74,2.43-1.09,2.86C50.24,14.73,49.36,15.21,49.6,15.37Zm52,28.09c.6,0,.29-1.57.23-2a1.88,1.88,0,0,0-1-1.59,27.82,27.82,0,0,0,.75,3.6C101.87,43.44,101.16,42.31,101.6,43.46ZM57.33,14.92c-.1-.54-.52-1-1-.66s-1.14,1.2-.3,1.62c.51.25,1.36.13.93-.56-.08-.12-.53-.42-.46-.58.13-.36.7.1.85.19C57.25,14.51,57,14.74,57.33,14.92ZM47.25,10.2a18.6,18.6,0,0,0,1.11,3.32C48.77,11.71,48.47,10.83,47.25,10.2ZM95.52,56.81c.26.09,3.18,1.19,2.87.07-.1-.36-1.19-.45-1.5-.49-.53-.08-1.12-.17-1.37.42C96.1,57,95.7,56.4,95.52,56.81ZM44.4,9.73c.05-.59-1.16-2-1.44-1.07a2.8,2.8,0,0,0,.79,1.28c.32.09.32-.21.65-.21C44.46,9.07,44.38,9.73,44.4,9.73ZM83,33.49a2.08,2.08,0,0,0-2.19-2.33A21.12,21.12,0,0,0,83,33.49C83,33,82.15,32.86,83,33.49ZM97.33,58.95a14.16,14.16,0,0,0,2,.27c.22,0,.72,0,.76-.31s-.25-.26-.51-.32-.88-.51-1.31-.45-.68.5-.9.81C98,59,98,58,97.33,58.95ZM36.44,41.62a3.44,3.44,0,0,0,.82-3.6ZM55.35,23.86c-.86,1.3-.77,2.07.3,2.58C55.57,25.58,55.91,24.71,55.35,23.86Zm47.19,4.6c-.06,1.38.32,2,1.27,2.16C103.63,29.78,103.52,28.94,102.53,28.46Zm-.91,29.83c1.17.32,1.74-.39,1.55-1.8ZM52.38,11.53c0-.79-1.76-.64-1.53.33s1.51.34,1.53-.33Zm-1.82-.94c.08-.56-1.71-1.15-1.58-.2,0,.27.43.61.66.74.56.33.77,0,.93-.54C50.59,10.31,50.47,10.87,50.55,10.59Zm12.2,12c-.19-.38-.88-2.86-1.57-1.92s1,1.72,1.57,1.92C62.37,21.78,61.92,22.27,62.75,22.54Zm-10.06.25c.13-.34,1.1-2.2,0-2.07s-.38,1.71,0,2.07C52.9,22.24,52.12,22.17,52.69,22.8ZM69.36,9.66a8.07,8.07,0,0,0,.2,2.45C70.55,11.18,70.22,10.46,69.36,9.66Zm3.78-8c-.37-.17-2.53-.71-2.29.24.18.72,1.87-.11,2.29-.24C72.49,1.32,72.47,1.82,73.14,1.62ZM39.76,33.39c-.71,1.12-.21,2.42-.29,3.62a7.24,7.24,0,0,0,.29-3.62C39.41,33.95,39.93,34.65,39.76,33.39ZM92.48,55.92a2.28,2.28,0,0,0,1.37.48c.3.06,1.14.25.75-.32a3.4,3.4,0,0,0-1.14-.54c-.44-.12-.64.09-1,.38C93,56.47,93.16,55.36,92.48,55.92Zm5,5.28A5.23,5.23,0,0,0,94.58,61C96.07,61.42,97,61.48,97.52,61.19ZM60.57,20.4c-.25-.42-.61-2-1.37-1.55s.89,2,1.37,1.55C60.29,19.94,60.36,20.62,60.57,20.4Zm8.6-7A3,3,0,0,0,68.84,12c-.18-.32-.44-.56-.56,0a3.4,3.4,0,0,0,.32,1.63c.25.57.52.37.57-.17S69.17,13.47,69.17,13.43Zm-.26,11.25a3.09,3.09,0,0,0-1.78-2A4.53,4.53,0,0,0,68.91,24.68Zm36.27,15.67c0,.92.06,1.63.93,2A2,2,0,0,0,105.18,40.34ZM70.5,14.5c-.08-.88.2-1.74.16-2.62A2.2,2.2,0,0,0,70.5,14.5ZM59.45,17.08c.17-.42,0-1.76-.75-1.36s.42,1.15.75,1.36C59.67,16.53,59,16.81,59.45,17.08ZM33.55,45.49a2.1,2.1,0,0,0,.82-2.5A11.62,11.62,0,0,0,33.55,45.49ZM55.49,14c-.18-.47-.39-.55-.83-.35-.24.11-.65.35-.63.63s.58.59.78.61c.43,0,.71-.52.69-.9C55.41,13.81,55.51,14.39,55.49,14Zm15,10.7c0-.2-.45-2.56-1-1.75-.43.63.53,1.54,1,1.75C70.43,24.25,69.77,24.39,70.51,24.71ZM53.86,12.38a.39.39,0,0,0-.53-.37c-.24.09-.47.79-.49,1-.08,1,.89-.35,1-.65S53.69,12.76,53.86,12.38ZM73.25,27.62a2.5,2.5,0,0,0-1.34-2.07A2.25,2.25,0,0,0,73.25,27.62Zm29.48,19c-.16.4.1,2.15.77,1.88s-.49-1.66-.77-1.88C102.42,47.36,103.27,47,102.74,46.58Zm-31-26.7c-.32-.61-.09-1.48-.9-2A1.79,1.79,0,0,0,71.75,19.88Zm6.14,33a2.81,2.81,0,0,0,1.33,1.48C78.88,53,78.77,52.86,77.9,52.92ZM64.55,24.1a9,9,0,0,0-.29-1.74C63.35,23.26,63.38,23.41,64.55,24.1Zm39.38,24.76c-.59.15-.25,1.15.18,1.31.75.28.47-1.33-.18-1.31C103.77,48.9,104.28,48.84,103.93,48.86Zm-45.52-30c1-.35-.17-1.59-.73-1.15-.41.32.38,1.12.73,1.15C58.48,18.83,58.26,18.84,58.42,18.85ZM98.76,57.67c.3.06.87.31,1.16.2a.39.39,0,0,0,.2-.64c-.45-.5-1.14,0-1.36.44C99.19,57.75,99.07,57.09,98.76,57.67Zm5.61-24.58c.1-.8-.36-1.22-1.06-1.64A2.54,2.54,0,0,0,104.37,33.09Zm-51-8.27c-.06.37-.48,1.66.22,1.71s0-1.45-.22-1.71C53.31,25.31,53.84,25.35,53.39,24.81ZM80.55,55.58c.25.65.43,1.11,1.11,1.15C81.42,56.31,81.28,55.81,80.55,55.58Zm5.14.65c.42,1,.85,1.56,1.56.81A5.46,5.46,0,0,0,85.69,56.22Zm-5.38-51c-.54-.48-1.09-.93-2-.47ZM49.24,13.09c.37-.26.91-1.34.14-1.51s-.28,1.2-.14,1.51C49.54,12.87,49,12.64,49.24,13.09ZM74,46.87c.05,1,.38,1.37,1.18,1.19A2.85,2.85,0,0,0,74,46.87Zm12.08,7.62a2.29,2.29,0,0,0-1.33-.6C84.82,54.75,84.93,54.81,86.11,54.49ZM59.85,37a2.67,2.67,0,0,0,.83,1.66C61,37.86,60.13,37.56,59.85,37Zm41,18.69c-.37,0-1.18.77-.81,1.08.56.47,1-.73.81-1.08C100.43,55.61,101.07,56,100.83,55.65ZM81,30.5a1.84,1.84,0,0,0-1.3-.88C80,30.13,80.16,30.76,81,30.5Zm.9-3.11c.09.22.9,1.65,1.08,1,.11-.41-.77-1-1.08-1C82.06,27.91,82,27.4,81.86,27.4ZM105.14,49c.09-.21.26-1.55-.33-1.17s0,1,.33,1.17C105.3,48.61,104.65,48.71,105.14,49Zm-4.39,10.32c.29.23,1.4.22,1-.38-.27-.44-.91.06-1,.38C101,59.51,100.86,59,100.75,59.31Zm-9,.32c-.59-.57-.59-.57-1.32-.25A1.07,1.07,0,0,0,91.71,59.64ZM45.53,25.92c-.09.27-.41,1.07-.15,1.22.51.29.17-1.13.15-1.22C45.41,26.29,45.63,26.33,45.53,25.92Zm11.78,8,.58,1.15C57.79,34.26,57.79,34.26,57.31,34ZM101.79,54.8c.27-.06,1.32-.07.9-.65s-.83.35-.9.65C102.24,54.7,101.91,54.31,101.79,54.8ZM70.43,4.44c-.78.09-.74.55-.75,1ZM100.19,60c-.35,0-.86.51-.31.64.39.09.86-.53.31-.64C99.92,60,100.34,60,100.19,60ZM54.41,24.4c.4-1,.4-1-.08-1.43A1.63,1.63,0,0,0,54.41,24.4Zm51.66,19.2c0-.26-.35-.59-.49-.23s.45.67.49.23C106,43.44,106.06,43.77,106.07,43.6ZM73.91,3.19a1.16,1.16,0,0,0-1,.22C73.24,3.54,73.6,3.76,73.91,3.19ZM51.79,20.82c.4-.74.4-.74-.09-1.22C51.52,20,51.69,20.29,51.79,20.82ZM52.67,24c0-.36-.33-.78-.41-.25,0,.3.39.61.41.25S52.67,24,52.67,24Zm22.84,1.1c-.14-.59-.14-.59-.6-.81Zm-3.1.36c.13-.52-.09-.85-.65-1.12A1.61,1.61,0,0,0,72.41,25.46ZM101.95,46.1c.24-.09.11-.82-.05-.93a1.79,1.79,0,0,0,.05.93C102.11,46,101.81,45.64,101.95,46.1ZM74.58,3.73c.18.17.93.07.7-.23s-.64,0-.7.23C74.78,3.92,74.66,3.4,74.58,3.73Zm-3.89,3c.36-.11.48-.29.59-.7C71,6.27,70.71,6.35,70.69,6.74Zm-12.83,10c0-.27-.49-.52-.52-.15s.44.4.52.15S57.83,16.8,57.86,16.7Zm-4.29,7c.15-.1.56-.82.13-.78s-.26.59-.13.78C53.83,23.49,53.54,23.63,53.57,23.67Zm45.09,37.7c0,.18.38.16.44,0s-.36-.29-.44,0S98.7,61.23,98.66,61.37Zm-2.23,2.08c.12,0,.42-.15.17-.26s-.51.22-.17.26C96.55,63.43,96.34,63.45,96.43,63.46Zm-48.57-54c-.26,0,0,.31.09.29.27,0,.11-.27-.09-.29ZM84.19,31.19l-.15.09a.3.3,0,0,0,.33,0l-.18-.14C84.13,31.23,84.25,31.24,84.19,31.19Zm2.87,2.22c-.34,0-.06.22-.07.3s.47-.18.07-.3C87,33.41,87.16,33.44,87.07,33.41Zm-3.29-.25q.14-.07,0-.14-.14.11,0,.14S83.76,33.15,83.78,33.16Z"/><path class="cls-2" d="M28.75,27.33a1.21,1.21,0,0,0,1.31,0c.45-.33.46-.73-.12-.86a1.33,1.33,0,0,0-.9.17c-.14.07-.36.35-.53.29-.62-.2.64-.91.76-1,1.05-.41,2.48.58,1.46,1.6-.8.81-1.5.84-2-.23C29.5,27.65,29.19,28.28,28.75,27.33Z"/><path class="cls-2" d="M23.1,34.8c.8.08.69,1.51-.2,1.49s-.55-1.4.2-1.49C23.49,34.84,22.65,34.86,23.1,34.8Z"/><path class="cls-2" d="M92.26,28.91a2.75,2.75,0,0,1,1.13,1.34c.38.73.77,1.45,1.15,2.17.75,1.4,1.5,2.79,2.15,4.24s1.23,2.91,1.78,4.38c.28.76.57,1.53.8,2.3.18.57.24.94-.35,1.25-.29-.66-.29-1.4-.52-2.08s-.58-1.44-.87-2.16c-.54-1.35-1.08-2.71-1.69-4-1.14-2.5-2.71-4.8-3.59-7.41C92.86,29.22,93.05,31.27,92.26,28.91Z"/><path class="cls-2" d="M84.11,25.76c.45-.3.27-1.42.93-.42a9.36,9.36,0,0,1,1.15,2.23c0,.12.16.33.09.46s-.22.08-.29.17-.12,0-.17.12.07.29,0,.4c-.27.36-.89-.66-1-.84-.5-.68-.91-1.42-1.37-2.12A21.68,21.68,0,0,1,82,23.56c-.12-.23-.42-.7,0-.79s.49.45.62.64c.5.79,1,1.57,1.53,2.35C84.42,25.55,83.9,25.44,84.11,25.76Z"/><path class="cls-2" d="M93.85,35c.75,1.61,1.53,3.21,2.2,4.85.33.81.63,1.64.88,2.48.14.47.26.94.37,1.42,0,.21.21.91-.24.58-.2-.15-.29-.79-.37-1q-.22-.65-.46-1.3-.47-1.29-1-2.55T94.08,37c-.31-.64-.84-1.33-.24-2C95.27,38.11,93.38,35.53,93.85,35Z"/><path class="cls-2" d="M87.64,28.66c.8-.61,1.14,0,1.51.68a28.37,28.37,0,0,1,1.2,2.82c.37,1,.72,2,1.12,3,.14.34,1.2,2.12.5,2.26-.51.1-.86-1.68-1-2.09a8.81,8.81,0,0,1-.43-1.48,2.24,2.24,0,0,0-.4-1c-.81-1.36-.73-3.69-2.51-4.2C88.25,28.2,88.22,28.83,87.64,28.66Z"/><path class="cls-2" d="M92.73,45.41a1.77,1.77,0,0,1,1.58.81c.35.7-.54,1-1.08,1A1.1,1.1,0,0,1,92,46.37c-.22-.81,0-.85.76-1C92.87,45.41,92.58,45.43,92.73,45.41Zm.36,1.34c.27-.08.55,0,.57-.36s-.54-.53-.82-.49-.52.14-.44.49.4.32.7.36S92.78,46.7,93.09,46.74Z"/><path class="cls-2" d="M82.24,42.88c0-1.12,1.85-1.25,1.8-.09S82.2,44.22,82.24,42.88Z"/><path class="cls-2" d="M94.41,43c-.36-.22-1.4-3.65-.84-3.78s.63,1.27.69,1.56c.17.74.54,1.48.14,2.21C94.35,42.92,94.67,42.49,94.41,43Z"/><path class="cls-2" d="M90.31,49.91c.59-.27,1-.42,1.34.18.28.43.58,1.12-.07,1.37s-.71-.29-.79-.74a1.1,1.1,0,0,0-.14-.49c-.1-.16-.33,0-.34-.33C90.39,49.87,90.31,50.29,90.31,49.91Z"/><path class="cls-2" d="M65.85,28.88c.47.32.37.79.35,1.28a9.35,9.35,0,0,1,.13,1.57c-.42.4-.62-.8-.61-1,0-.61.13-1.23.14-1.84C66.23,29.14,65.85,29.57,65.85,28.88Z"/><path class="cls-2" d="M89,41.53c-.06.61-.65.57-.65,0s.44-.27.65,0C89,41.79,88.92,41.4,89,41.53Z"/><path class="cls-2" d="M75.35,28.41c-.4.21-.51-.17-.74-.41A1.06,1.06,0,0,1,75.35,28.41Z"/><path class="cls-2" d="M75.33,28.42c.83.79-.28.38,0,0Z"/><path class="cls-2" d="M86.81,30.62q-.08,0-.07,0c0-.15,0-.09.11-.12C86.81,30.54,86.8,30.59,86.81,30.62Z"/><path class="cls-2" d="M88.08,19l-.1.14c-.26-.23-.17-.48.1-.14C88,19.09,88,19,88.08,19Z"/><path class="cls-2" d="M98.14,25.82l.18.28C98.22,26.06,98.16,25.87,98.14,25.82Z"/><path class="cls-2" d="M92.79,24.66s0,0,0,0Z"/><path class="cls-2" d="M98.92,22.87c-.33.08-.46-.19-.59-.43A.75.75,0,0,1,98.92,22.87Z"/><path class="cls-2" d="M95,21.87q-.11,0-.07,0Q94.93,21.93,95,21.87Z"/><path class="cls-2" d="M93.15,16.92c.14.11.28.21.21.42C93.2,17.25,93.19,17.08,93.15,16.92Z"/><path class="cls-2" d="M93,16.72l.22.22Z"/><path class="cls-2" d="M90,58.34q-.1.05-.07,0Q90,58.39,90,58.34Z"/><path class="cls-2" d="M82.18,54.3a1.2,1.2,0,0,1-.71-.59c.29,0,1.11.1.71.59C81.91,54.19,82.21,54.25,82.18,54.3Z"/></g></g></svg>