<svg xmlns="http://www.w3.org/2000/svg" viewBox="0 0 104.73 87.73"><defs><style>.cls-1{fill:#f4f4f4;}.cls-2{fill:#62250e;}</style></defs><title>Element 4</title><g id="Ebene_2" data-name="Ebene 2"><g id="Ebene_5" data-name="Ebene 5"><path class="cls-1" d="M11.58,13.16c28-8,18-11,41-8s27,11,36,34c8.38,21.42-5,29-5,29s-19-13-19-16-11-15-11-15-14,14-14,19-7,11-9,14-6,15-11,13-12-7-15-30,0-33,0-33Z"/></g><g id="_1" data-name="1"><path class="cls-2" d="M29.14,77.57c-2.15,2.19-4.31,4.58-7.09,6A7.75,7.75,0,0,1,14.26,83c-4.48-2.67-6.74-8-7.84-12.9-.64-2.86-.82-5.79-1.4-8.67a19.45,19.45,0,0,1-.41-2.83,9.44,9.44,0,0,0-.09-1.36,14.82,14.82,0,0,1-.26-1.64,49.44,49.44,0,0,0-.9-5.84C2.53,45.7,1.74,41.61.95,37.53.22,33.82-.37,30.2.27,26.42a30.43,30.43,0,0,1,1.19-4.57A13.36,13.36,0,0,1,3,18.72,20.36,20.36,0,0,1,8.2,13.57a47.51,47.51,0,0,1,13-6.19,56.36,56.36,0,0,1,9.9-2.5c3.2-.43,6.46-.4,9.67-.68,6.66-.58,13.27-1.68,19.86-2.8C64.94.66,69.55-.44,73.92.19a12.1,12.1,0,0,1,4.64,1.68,14,14,0,0,1,4.14,4.4,89.31,89.31,0,0,1,9.56,19.93,84.53,84.53,0,0,1,3,11c.33,1.62.63,3.25.92,4.88a10.88,10.88,0,0,1,.16,4.46c-.43,1.71-1.06,3.35-1.42,5.09s-.66,3.65-.92,5.49a15.23,15.23,0,0,0-.31,2.58,8.65,8.65,0,0,0,.68,2.82,17.79,17.79,0,0,0,3,4.51,32.4,32.4,0,0,1,3.41,4.5c.91,1.59,1.78,3.26,2.76,4.81a7.66,7.66,0,0,1,1.06,2.25,2.76,2.76,0,0,1-.48,2.37c-.83,1.4-1.45,2.76-3.1,3.32a8.67,8.67,0,0,1-2,.26c-.75.08-1.27.77-1.84,1.22A7.43,7.43,0,0,1,95.44,87a7.67,7.67,0,0,1-2.23.74,10.13,10.13,0,0,1-2-.43,6.4,6.4,0,0,1-2.1-.77A13.09,13.09,0,0,1,87.51,85a4.87,4.87,0,0,1-1.42-1.84c-.61-1.53-.33-3.32-.53-4.93A34,34,0,0,0,84.25,73c-.48-1.67-1.9-2.4-3.25-3.3-1.59-1.06-3.11-2.24-4.6-3.43A53.8,53.8,0,0,0,72.08,63c-1.39-.9-2.85-1.7-4.27-2.56a24.6,24.6,0,0,1-7.34-7c-2-2.82-3.7-6.05-6.13-8.55-.4-.42-1.14-.94-1.73-.56a4.64,4.64,0,0,0-.88,1.2l-.91,1.28a12.9,12.9,0,0,0-1.52,2.38c-.38.88-.7,1.78-1.12,2.64a20,20,0,0,1-2.91,4.44,49.63,49.63,0,0,0-3.36,3.85c-2.14,3-4.07,6.14-6.16,9.18a61.2,61.2,0,0,1-6.6,8.26Zm39-43.69a1.77,1.77,0,0,0-.44.81c0,.45,0,.43.54.52a5.34,5.34,0,0,0-1,2.51,2.35,2.35,0,0,0,.85-1.28A4.54,4.54,0,0,1,69,35a19.19,19.19,0,0,1,3.26-2.33,10.42,10.42,0,0,1-1.25,2.45c-.49.89-.89,1.83-1.33,2.75s-.91,1.78-1.29,2.7c-.13.31-.86,2.33-.6,2.43.51.19,1-1.27,1.24-1.55.52-.62,1.3-.53,1.88-1s.72-1.3,1-1.93a3.32,3.32,0,0,1,1.68-1.67A7.09,7.09,0,0,0,72,40.16a16.07,16.07,0,0,1,4.1-3.09,14.38,14.38,0,0,1-1.6,1.64c-.16.15-.36.26-.37.49s.28.37.19.66-.39.49-.5.74a5.47,5.47,0,0,1-.41.78,7,7,0,0,0-.89,2.12,10.4,10.4,0,0,1-.77,2.06c-.27.53-.58.91-.4,1.52a4.21,4.21,0,0,1,.31.8c0,.22,0,.54,0,.75,0,.75-.4,1.3-.06,2.05.56-1.66,1.14-3.26,1.81-4.89.53-1.29,1.06-3.11,2.47-3.66-.53.82-1.56,2.12-1.53,3.16,0,.56.31.24.6,0a2.75,2.75,0,0,1,1.08-.83A3.54,3.54,0,0,1,75,46.26c-.19.21-.54.48-.65.05-.07-.24.37-.58.15-.8-.6.24-1,1.24-1.21,1.78-.36.93-.56,1.95-.87,2.9a14.42,14.42,0,0,0-1.06,6.32c.28-.27,1.62-1.87,2-1.54s-.93,1.54-1.14,1.84-.82,1-.46,1.48a1.6,1.6,0,0,0,.81.51c.41.06.48-.17.6-.55a16.16,16.16,0,0,0,.47-2.66c.15-1,.42-1.94.65-2.93.39-1.67.71-3.77,2.24-4.81A18.82,18.82,0,0,0,74.6,53.5c-.19.93-.34,1.86-.52,2.79s-.66,2.07-.32,3.13a4.3,4.3,0,0,0,.41-1.5c.07-.6,0-.82.66-1.09a7.08,7.08,0,0,0,0,2.25c.11.38.51,1,1,.65s.25-1.38.29-1.86a5.38,5.38,0,0,1,.63-2.25c.35.67,0,1.91-.09,2.63a2.27,2.27,0,0,0,.54,2.24c.45.42,1.26.7,1.7.22a5.05,5.05,0,0,0,.52-.67c.27-.46.06-.62-.08-1-.08-.25-.14-.66.28-.63s.49.68.61.87a9.81,9.81,0,0,0,.74.82c.23.28.38.63.58.89s1.43,1.51.85,1.6c-.16,0-.63-.5-.73-.59a4.36,4.36,0,0,1-.63-.65c-.35-.5-.66-.83-1.29-.32s-.19,1,.15,1.43a2.87,2.87,0,0,0,1.27,1c.28.08.15-.07.41.1s.58.8.89.79.19-.62.22-.85c.06-.4.41-.66.7-.21.14.22,0,.64.45.61.17,0,.29-.3.41-.4a2.39,2.39,0,0,1,.54-.25c1.61-.8-1.06-1.84-.51-2.79.37-.64.93.45,1.37-.35a.71.71,0,0,0-.1-.95c-.2-.13-.68.15-.58-.31.06-.27.63-.38.8-.62a1.61,1.61,0,0,0,.23-.91,5.5,5.5,0,0,0,0-1.46c-.16-.41-.67-.15-.82-.49.48-.34,1-.86.83-1.5-.08-.29-.43-.46-.51-.69a.68.68,0,0,1,.25-.59c.29-.26.29-.15.68,0a2.66,2.66,0,0,0,1,0c.48,0,1.09.1,1.34-.4.7-1.36-1.36-1.46-2.17-1.62s-1.58-.28-2.38-.42a5.46,5.46,0,0,1-2.29-.62c.4-.47,1.6,0,2.11,0,.73.12,1.46.27,2.19.42,1,.21,2.41.85,3.16-.18.26-.36.45-.73,0-1a4.19,4.19,0,0,0-1.09-.21c-.4-.08-.79-.18-1.19-.24-1.38-.23-2.79-.11-4.17-.38.57-.3,1.76,0,2-.65S84.75,46,84,45.85c1.27-.45.88-2,1-3,0-.43.2-.9-.19-1.23a1.34,1.34,0,0,0-.7-.17c-.38,0-.35.33-.62-.13.18,0,.42-.09.62-.13s.48-.09.58-.38a3.53,3.53,0,0,0,0-1c0-.48-.3-.69.16-.9.15.59.2,1.81.86,2.11a2.69,2.69,0,0,0,1,.11,15,15,0,0,1,1.74.16c.64.1,1.27.28,1.91.4.33.07,1.2.4,1.53.14s.23-.69.15-1a3.42,3.42,0,0,0-.83-1.24,13.68,13.68,0,0,0-1.09-.87,1.41,1.41,0,0,1-.43-.48c-.05-.14.17-.28,0-.44s-.32,0-.44,0c-.28,0-.54-.15-.83-.19s-1.33-.33-1.51,0c-.07.12,0,.36,0,.56s-.26.43-.51.35-.18-.37-.26-.43-.06,0-.29-.1-.24.24-.5,0-.05-.38-.21-.51c-.39-.33-1.08-.21-1.53-.15,0-.63.89-.1,1.12-.61s-.27-1.22-.07-1.8c.46.65.53,1.45,1.14,2a16.64,16.64,0,0,0-.95-3.33c-.33-1.11-.72-2.72-1.7-3.44-.26-.19-.43-.15-.41-.49s.16-.35.18-.62c0-.51-.43-.94-.69-1.32a7.1,7.1,0,0,1-1.22-3.16c.48,0,.59.83.74,1.17.3.67.65,1.32,1,2s.61,1.2.92,1.8c.16.3.67,1,1.05,1,.61,0,.12-.85.07-1.06-.14-.52-.41-1-.58-1.49,0-.06,0-.22,0-.33a4.3,4.3,0,0,0-.23-.5c-.11-.25-.25-.5-.35-.76a6.13,6.13,0,0,0-.31-.6c-.11-.23-.23-.59-.35-.88a5.66,5.66,0,0,0-.73-1.48c-.28-.3-1.42-.51-1.48-.86-.1-.56.86.28.89-.41,0-.16-.27-.4-.33-.51a5.54,5.54,0,0,0-.39-.74c-.27-.36-.5-.71-.77-1.06a12.89,12.89,0,0,1-1-1.27,5,5,0,0,0-.34-.61,5.35,5.35,0,0,1-.53-.84s-.24-.56-.24-.57c.06-.25.4-.2.55-.16s.48.27.82.3a2.65,2.65,0,0,0,.81.07c.63-.34-.35-1.15-.58-1.42-.42-.48-.7-1-1.31-1.27a11.25,11.25,0,0,0-2.32-.49,1.46,1.46,0,0,1,1.14-.22c.27,0,.74.21.76-.25s-1.23-1.3-1.61-1.48-1.48-.13-1.3-.56c.06-.14.34-.13.4-.29s-.37-.63-.55-.74c-.67-.43-1.81-.18-2.55-.14-1.12.06-2.25.12-3.37.22-2.13.2-4.26.47-6.39.73-4.35.52-8.67,1.14-13,2.06-.31.07-.69.09-.89.35s0,.66-.36.76-.37-.19-.58-.35a1,1,0,0,0-1-.14c-1.05.21-2.1.48-3.14.73a7.28,7.28,0,0,0-2.35.75,1.62,1.62,0,0,0-.65,1c-.1.3-.08.65-.5.35-.25-.18-.09-.63-.38-.79s-.92.19-1.18.28a10.85,10.85,0,0,0-2.94,1.09,2.74,2.74,0,0,0-.81,1.07c-.2.46,0,.88-.14,1.33-1.27-.29-.33-1.08-.53-1.86-1.43.25-3.66,1-4.46,2.32a1.78,1.78,0,0,0-.26,1c0,.28.24.78-.17.89-1,.24-.06-1.84-.15-2.08a5.53,5.53,0,0,0-3.85,2.87,10.35,10.35,0,0,0-1,2.43c-.06.33.18,1-.08,1.22s-.64-.23-.65-.5c0-.92.74-1.87,1-2.7.09-.25.57-1.17.18-1.3-.21-.06-1.27.78-1.49.92a7.22,7.22,0,0,0-2.3,1.95,12.34,12.34,0,0,0-1,2.74,1.18,1.18,0,0,1-.3-1,1.91,1.91,0,0,0,.07-.41c0-.16-.19-.17-.23-.33-.12-.44.37-.7.65-1a10.63,10.63,0,0,0,1.17-2.09c.32-.64,1.07-1.59.91-2.3a8.41,8.41,0,0,0-2.61,1.45A10.34,10.34,0,0,0,18,24c-.57,1.06-1.16,2.12-1.74,3.18-.28.52-.95,1.22-.46,1.7.14.14.23,0,.28.22s-.3.52-.38.63c-.22.32-.58.86-1.05.6-.75-.41.49-1.88.73-2.31.52-.95,1-1.93,1.45-2.9.26-.53.53-1.06.82-1.57.2-.35.69-.86.55-1.3-.31,0-.79.61-1,.51-.43-.18.06-.58.26-.72a6.86,6.86,0,0,0,2.14-1.91c.28-.45.54-.9.83-1.34a4.44,4.44,0,0,0,.35-.69,2.58,2.58,0,0,1,.32-.55c.22-.3.3-.68.51-1,.11-.16.32-.22.23-.42s-.54-.05-.7,0c1.33-.38,1.74-1.54,2.57-2.5s2-1.64,2.28-2.84a5.05,5.05,0,0,0-2,.51A9.83,9.83,0,0,0,22,13c-.76.79-1.47,1.64-2.23,2.44-.19.2-.58.5-.58.81,0,.51.59,0,.94.21a4.69,4.69,0,0,0-2.47,1.69,3,3,0,0,0-.34.75c-.13.44-.19.44-.52.75a10.17,10.17,0,0,0-1.24,1.66,44.57,44.57,0,0,0-4.06,7.85,7.45,7.45,0,0,0-.61,1.76c0,.26.18,1.69-.44,1.29s.71-3,.74-3.59-.19-.43-.58-.74a2.08,2.08,0,0,1-.65-1.32c-.19-1.16-.9.07-1.18.55-.4-.25,0-.84.15-1.15A2.1,2.1,0,0,0,9,24.78c0-.39.31-2.73-.51-2.27-.27.15-.48.89-.63,1.16A9.22,9.22,0,0,0,7.18,25a3.6,3.6,0,0,0,.4,3c.45-.21.61-.9,1.16-.9-.36,1.06-1,1.91-.67,3.08.24.78.73,1.91,1.72,1.73-.77.8-.12,1.59.18,2.43a2.41,2.41,0,0,0,.6,1.12c.34.29.59.38.79.82a5.23,5.23,0,0,0,.46,1.2c.29.37.79.53,1.13.85a4.41,4.41,0,0,1,1.25,2.31c.26,1.12.43,2.21.8,3.31s.86,2.29,1.15,3.47a5.49,5.49,0,0,0,.9,2.48c.71.84.89,2.32,1.28,3.37A13.76,13.76,0,0,0,19.43,56c.27.41.51.41.93.57a4.75,4.75,0,0,1,1.24,1c1.56,1.38,2.16,3.5,3.71,4.91A6.29,6.29,0,0,0,28,63.83a6.19,6.19,0,0,0,2.71.52,3.24,3.24,0,0,0,2.07-1.66c.41-.58,1.71-2,1.37-2.73-.22-.5-1-.95-1.38-1.33s-.85-.86-1.27-1.3c-.89-.93-1.84-1.82-2.69-2.78-.71-.8-1-1.89-1.73-2.63-.4-.41-.27-.78-.53-1.24a2.33,2.33,0,0,0-1.13-.86,14,14,0,0,0,3.38-2.12,4.3,4.3,0,0,0,.73-.64c.2-.24.24-.25.2-.61a2.66,2.66,0,0,1,.12-1.85,15.44,15.44,0,0,0,.73,2.27c.16.41.53,1.59,1.08,1.5.18,0,.53-.42.69-.56s.61-.42.7-.62c.2-.48-.56-1.18-.83-1.53,0-.06-.21-.05-.27-.15-.21-.29-.09-.55-.13-.82s-.08-.59-.16-.88-.48-.67-.46-1,.46-.38.53-.71-.27-.63-.31-1,.1-.85-.26-1.17-.26-.07-.53-.06-.43,0-.51-.14c-.19-.36.14-.37.39-.52.68-.4.54-.81.28-1.47-.33-.83-.71-.22-1.32.09s-1.28.24-1.35,1a9.21,9.21,0,0,0,.69,2.89c.08.28.4.92.32,1.23s-.33.34-.56.07-.12-.69-.18-1c-.1-.53-.32-1.09-.43-1.63A11.65,11.65,0,0,0,27.22,38c-.16-.34,0-.26-.39-.37-.13,0-.52,0-.51-.22s.59-.34.7-.54c.25-.46-.1-.41-.35-.29a2.76,2.76,0,0,0-.74.6c-.19.21-.26.89-.5,1-.61.19-1.48-3.84-.64-4.28a4.07,4.07,0,0,0,.09,1.12c.06.14.25.28.34.44s.12.4.2.59c.17.37.1.41.48.25a8.82,8.82,0,0,0,1.32-.9c.19.38.27.85.74.76s.93-.75,1.23-1,.68-.54.72-1.08a12.12,12.12,0,0,0-.16-1.63c.34.34.19.93.53,1.24s.57,0,.86-.28a3.58,3.58,0,0,0,1.33-2.21c0,.47.54.65.57,1.1,0,.24-.21.41-.21.69a2.78,2.78,0,0,0,.12.86c.13.26.36.39.62.23a1,1,0,0,0,.24-.36.56.56,0,0,1,.33-.18,5.15,5.15,0,0,0,1.11-1.17c.16-.31.09-.39.41-.54s.47-.08.69-.27.36-1.07.69-1.17a.24.24,0,0,1,.29.17.24.24,0,0,0,.3-.09,1.62,1.62,0,0,0,.71-.46c.15-.25,0-.49,0-.72.79-.2.29,3.61,1.57,3.22A2,2,0,0,0,41,31.09c.17-.56-.23-1.34.25-1.76.16.21.33,1.09.62,1.13s1.06-.77,1.11-1a3.93,3.93,0,0,0-.06-.91c0-.58-.22-.49-.76-.38s-1.68.61-2.27.31c-.32-.16-.3-.35-.71-.26a5.09,5.09,0,0,0-1,.47,17.79,17.79,0,0,1-2.57.95,6.87,6.87,0,0,1-.81.08c-.3.06-.59.27-.91.34A2,2,0,0,1,32,29.65c2.37.16,4.66-.91,6.78-1.83,2.35-1,4.7-2.09,7-3.19A25.83,25.83,0,0,0,49,22.89c.85-.56,1.69-1,2.62-1.51A11.41,11.41,0,0,0,53,20.51c.22-.17.41-.37.63-.54a5.06,5.06,0,0,1,.69-.39c.34-.2.65-.47,1-.66a6.27,6.27,0,0,0,1.25-.8c.34-.31.64-.57,1-.88.14-.14.38-.24.52-.37s.25-.39.43-.55c.35-.3.73-.57,1-.88a1.16,1.16,0,0,1,.54-.4c.28-.08.49,0,.72-.23a7.91,7.91,0,0,1-1.68,1.85c-.69.68-1.37,1.38-2.12,2-1.52,1.23-3.36,1.92-5,3a76.75,76.75,0,0,1-11.11,5.81c-.15.07-.92.28-.87.54s.75.22.94.17a19.94,19.94,0,0,0,2.71-1c1.79-.71,3.56-1.64,5.29-2.5s3.37-2,5.09-3A11.72,11.72,0,0,0,56.46,20l2.32-2.13a23.1,23.1,0,0,0,2.48-2.38c.24-.29.39-.7.73-.89s.73,0,.42.47-.62.64-.87,1-.57.87-.87,1.29-1.51,1.36-1.29,2.12a23,23,0,0,1,5.15-3.37,13.71,13.71,0,0,1,5.89-1.74,18.41,18.41,0,0,0-5.55,2.06,8.41,8.41,0,0,0-2.15,1.95c-.31.41-.56.86-.87,1.26s-.62.59-.06.86a6.12,6.12,0,0,0-1.95,2.54c-.11.23-.2.45-.3.68s-.3.44-.33.56c-.16.5,0,1.07-.22,1.58s-.42,1.23-.59,1.74A10,10,0,0,0,58,28.95c-.09.51-.39,1-.2,1.53a5.55,5.55,0,0,0,1.52-2.35,6.85,6.85,0,0,1,.6-1.51,13.5,13.5,0,0,0,.92-1.82c.18-.48.18-1,.36-1.48A4.17,4.17,0,0,1,62.07,22c.32-.37.7-.69,1-1.08s.39-.71.91-.83c.16,0,.3,0,.49,0a3.91,3.91,0,0,0,.51-.28c.5-.27,1-.57,1.45-.89s5.5-3.47,5.81-2.55a37.93,37.93,0,0,0-3.92,1.9C67,19,65.87,19.87,64.67,20.7a7.23,7.23,0,0,0-2.48,2.4c-.14.25-.3.53-.42.77a5,5,0,0,0-.31.6c-.07.3.09.32.12.59,0,.55,0-.08-.15.31s-.12.56-.26.87-.47.59-.51.88.1.31.31.42a.28.28,0,0,1,.39.09.52.52,0,0,0,.34.08c.33-.06.5-.53.67-.75.76-1,1.71-2,2.41-3.11.61-1,1.08-2.22,2.11-2.85a5.49,5.49,0,0,1-.64,1.45c-.19.41-.64.65-.44,1.15,1.93-1.81,4.31-3.73,6.92-4.41a41.93,41.93,0,0,0-4.91,3.31c-1.4,1.06-3.24,2.36-4.05,4-.35.7-.36,1.51-.66,2.24a7,7,0,0,0-.72,2.1c0,.19,0,.41.05.57s-.15.29,0,.46.27-.12.41,0,.11.19,0,.37-.54.61-.72.92a4.49,4.49,0,0,0-.5,1.32c-.32,0-.3-.18-.63,0a2.74,2.74,0,0,0-.65.72,5.67,5.67,0,0,0-.65,1.6c-.17.42-.59.58-.67,1.08,0,.19.06,1.29.19,1.31s.66-.77.74-.87a5.79,5.79,0,0,0,.82-1.19c.39-.8.11-2.09.84-2.66.28.29-.11,1.33.16,1.44s.5-.58.62-.82a14.12,14.12,0,0,0,1-2.54,17.11,17.11,0,0,1,1.36-3.35c.41-.8.92-2.3,1.9-2.54-.14.27-1.24,2-.7,2a7.47,7.47,0,0,0,.82-.82c.34-.34.62-.74,1-1,.71-.6,1.53-1.08,2.24-1.69a3.78,3.78,0,0,1,2.08-1.22,17.49,17.49,0,0,1-2,1.66c-.78.69-1.48,1.49-2.22,2.21C66.57,29,65.12,30,64.8,32c0,.28,0,.85-.13,1.09s-.32.18-.45,0,.07-.21-.1-.29-.34.21-.32.36c.05.56.52-.14.71.3,0,0-.09.43-.09.5a5,5,0,0,1,0,.8c-.06.25-.25.44-.31.72s-.07.77-.4,1.07c-.08-.27.08-.82-.28-.9s-.56.37-.69.56c-.57.81-.56,1.87-1.16,2.68.54-.06.92-.59,1.32-.92a1.84,1.84,0,0,0,.56-.69c.12-.27,0-.56.27-.76a2.34,2.34,0,0,1,.16,1.39c0,.41-.29.76-.07,1.2.3-.18.95-1.44,1.32-1.32.59.18-.23,1-.35,1.19a7.3,7.3,0,0,0-1,1.53c-.21.48-.32,1.5.4.79A7.46,7.46,0,0,0,65,40.18a5.68,5.68,0,0,0,.77-1.54c.1-.33.1-.66.18-1a2.76,2.76,0,0,1,.25-.52c0-.09.09-.15.13-.25s0-.39.12-.6c.22-.58.6-1.1.79-1.69.08-.24.38-1-.05-1-.12,0-.09.31-.39.28s-.19,0-.25-.22c-.19-.58,1-1.46,1.28-1.78l1.59-1.6A3.76,3.76,0,0,1,71.93,29a13,13,0,0,0-2.48,2.25,6.88,6.88,0,0,0-.83,1.29C68.52,32.78,68,33.71,68.13,33.88ZM36.59,15.26c-.36.2-.61.74,0,.65a21,21,0,0,0,2.17-.72,8.7,8.7,0,0,0,1.91-.82c.69-.37,1.29-.12,2-.19a13.21,13.21,0,0,0,2.1-.56c.88-.24,1.78-.41,2.67-.65,1.71-.46,3.44-.73,5.16-1.13s3.57-.6,5.36-.85,3.59-.55,5.38-.71,3.39-.42,5.1-.61a26.46,26.46,0,0,1,2.66-.16c.45,0,.9,0,1.34,0a9.77,9.77,0,0,0,1.14-.33c.25-.05,1.4.27,1.34-.11,0-.12-.27-.17-.3-.32s.34-.41,0-.71c-.15-.15-.46,0-.6-.16s-.06-.3-.17-.52c-.26-.53-1.41-1-1.91-1.29a4.25,4.25,0,0,0-2.13-.88c-.2,0-.85,0-1,.18s.05.2.15.47c.25.7-.79-.09-1.13-.2a5.75,5.75,0,0,0-2.34-.07C62,5.84,58.43,6.41,54.87,7S47.75,8.21,44.24,9.06c-.9.22-1.83.59-2.7.74s-1.93.46-2.87.71c-2,.52-3.9,1.09-5.83,1.7a33.38,33.38,0,0,0-5.42,1.84A5.32,5.32,0,0,0,25.65,16c-.34.49-1.56,1.62-1.3,2.27,1.2-.63,3-.82,3.76-2s1.25-2.47,2.69-2.59a8.86,8.86,0,0,0-2,2.76c1-.29,2.74-.55,3.43-1.35.32-.37.49-.85.84-1.22a4.18,4.18,0,0,1,1.39-.94c-.31.37-1.13,1.09-1.22,1.58-.14.78.82.28,1.17.17,1.31-.44,2.67-.77,4-1.19,2.85-.9,5.72-1.78,8.63-2.48s5.83-1,8.7-1.64C57.1,9,58.56,8.89,60,8.67c.72-.11,1.45-.22,2.18-.28a15,15,0,0,0,2.21-.16c1.59-.36,3.19-.39,4.79-.6a7.5,7.5,0,0,0,1.07-.11c.17-.05.22,0,.3-.16.22-.52-.75-.7-1-.88.37-.38,1.12.33,1.53.55a5.58,5.58,0,0,0,.93.43c.24.08.71.08.81.37a.43.43,0,0,1-.31.51c-.14,0-.65-.38-.89-.42a10.42,10.42,0,0,0-2.33.16c-3.55.34-7.12.62-10.65,1.13a101.88,101.88,0,0,0-10.3,1.85c-1.65.42-3.3.81-4.94,1.26s-3.27,1.19-4.93,1.58a18.58,18.58,0,0,0-2.21.52c-.85.31-1.74.51-2.59.81a3.61,3.61,0,0,0-2.62,3,19.9,19.9,0,0,0,3.71-1.76c.75-.56,1.17-1.89,2.25-1.87C36.9,14.89,36.61,15,36.59,15.26Zm39.36-9.2c-.13.19,0,.26.15.24-.12-.16-1-.79-1.14-.38s.83.31,1,.14C75.89,6.14,75.9,6.11,75.95,6.06ZM37.66,61.18a1.41,1.41,0,0,0,.91-.41.34.34,0,0,0-.35-.55c-.48.08-.7,1.13-.64,1.12a.11.11,0,0,0,.08-.15C38,61.17,37.68,61.26,37.66,61.18Zm42-52.34c.1,0,.6.35.58,0s-.46,0-.59,0c0-.7-.65-.9-1.14-1.19a3,3,0,0,0-2.23-.62,3.29,3.29,0,0,0,3.39,1.79C79.81,8.94,78.08,9.14,79.63,8.85ZM60.73,38.59c-1.26,1.06-2,2.42-1.34,4.05a4.74,4.74,0,0,0,1.38-4.06.27.27,0,0,0,0-.1q-.09,0,0,.11C59.47,39.64,60.68,38.54,60.73,38.59Zm27.09-6.45-.16-.08c-.09.2.77.83,1,1a11.58,11.58,0,0,0,1.53.82,5.85,5.85,0,0,0-1-2.52c-.26-.26-.77-.3-1.1-.43a9.29,9.29,0,0,0-1.36-.51c-.23,0-.82-.28-1,0-.27.41.3.51.56.6a10.16,10.16,0,0,1,1.35.6c.43.22.6.32.15.59C87.77,32.11,88,32,87.82,32.14ZM59.68,33.73c.36-.16.62-1.3.75-1.64.2-.53.41-1.05.64-1.57s1.51-2.07.44-2.6c-.28-.14-.78.22-1,.47A3.74,3.74,0,0,0,60,29.92a18.12,18.12,0,0,0-.36,1.93c0,.41-.27,1.6,0,1.89q-.12,0-.08.09l.1,0s-.06,0,0-.06S59.64,33.86,59.68,33.73Zm-1.94,3.88c1.11-.58,1.05-2.14,1.19-3.22.19-1.48.36-3,.54-4.43-.91.9-1.15,2.59-1.45,3.78a14.73,14.73,0,0,0-.42,2.07c0,.31.17,1.74.1,1.8s0,.06,0,0C58.4,37.26,57.73,37.63,57.74,37.61Zm28.21-11c.13.14.84.75,1,.41s-.45-.52-.64-.58a2.91,2.91,0,0,0-1.06-.22c-.41,0-.75.29-1.18.15a8.2,8.2,0,0,0,1,2.61c.46.71,1.94.91,2.71,1.14,1.07.32.56-.88.19-1.38a11.17,11.17,0,0,0-2.63-2c.18-.18.43,0,.59-.13C86.2,26.86,85.78,26.77,85.95,26.59ZM83.86,66c.68,0,2.34,2.46,2.81,1.47.37-.77-1.92-1.8-1.77-2.83,1.11.57,1.78,1.63,2.73,2.39a15.12,15.12,0,0,0-.84-1.7c-.29-.53-.51-1.19-.84-1.69-.22-.33-.15-.28-.56-.15a4.13,4.13,0,0,0-.58.22,1.94,1.94,0,0,0-.81.64,1.59,1.59,0,0,0-.24.92c0,.18.08.37.07.54s-.13.26-.25.53c-.28.65,1.27,1.47,1.72,1.81a3.58,3.58,0,0,0-.86-1.27c-.21-.22-.69-.52-.58-.88C84.54,66,83.76,66.32,83.86,66Zm-2.76-46.7c-.64.17-.47.53-.23,1a16.69,16.69,0,0,0,1,1.93,3.23,3.23,0,0,0,2.56,1.4c.67-.1.39-.59.1-1s-.63-1.05-1-1.57A3.63,3.63,0,0,0,82.51,20c-.42-.27-1.18-.3-1.44-.74.29-.18.64.17.9,0s-.09-.65-.27-.89A3.59,3.59,0,0,0,79.84,17c-.91-.23-.71.36-.35.91a2.11,2.11,0,0,0,.74.77c.29.16.78.15.89.54C80.78,19.36,81,19,81.11,19.27ZM95.44,69.6c-1,.17-1.26-.94-2.15-.74.37.22.46.63.76.91a9,9,0,0,0,1.13.7c.91.61,1.77,1.31,2.64,2a21.64,21.64,0,0,1,2.3,2c.57.59,1.2,1.79,2,2,.28-.52-.63-1.55-.92-1.94a19.61,19.61,0,0,0-1.61-1.89,10.49,10.49,0,0,0-1.72-1.61,21.65,21.65,0,0,1-2.07-1c-.17-.14-.47-.39-.39-.63s.29-.11.29-.29-.57-.55-.71-.68a8.43,8.43,0,0,0-.84-.87c-.25-.19-.61-.36-.52.11.06.29.43.54.64.71s1.25.72,1.15,1.21C95,69.69,95.54,69.14,95.44,69.6ZM86.9,21.94c.65.09,1.05.77,1.73.82a1.57,1.57,0,0,0-.7-1.22,20.36,20.36,0,0,1-1.67-1.28,5,5,0,0,0-1.49-1.18c-.59-.29-1.46-.91-2.13-.78.13,1.3,1.06,1.71,2.11,2.24.2.1,1.12.39,1,.71s-1.26-.34-1.55-.34l1.25,2a6.35,6.35,0,0,0,1.06,1.55c.19.17.7.28.83.44s-.11.28-.18.62c-.13.64,1.18.77,1.6.88-.08-.57-.83-.65-.92-1.21.85.06,1.33,1,2.2,1,.09-1.78-1.67-2-3-2.56-.22-.09-.55-.21-.46-.53s.35-.13.59-.19c.77-.19-.3-.57-.31-1C87.55,22,86.91,22.36,86.9,21.94Zm4,22.22c.58-.29,1.08-1.41.37-1.75-1.05-.51-2.46-.39-3.59-.66-.57-.14-2-.74-2.11.21,0,.42.29.86.14,1.27s-.54.48-.47,1.11c0,.37.05.82.36,1a5.9,5.9,0,0,0,2,.33c.43,0,1.1.07.74-.49-.15-.25-.61-.42-.5-.78s.74.3.92.45a4.83,4.83,0,0,0,1.52,1C91.37,46.1,90.83,44.59,90.9,44.16ZM29.12,9.89a5.07,5.07,0,0,0-1.87.51,8,8,0,0,0-1.47,1.29c-.4.41-2.62,2.64-2.19,3.1s2.62-.77,3-1a12.3,12.3,0,0,0,1.25-1.19,6.52,6.52,0,0,1,1.72-1c-.08.51-.68.7-.72,1.24,1.94-.43,3.61-1.6,5.5-2.17l-3.18,1.58a22.47,22.47,0,0,0,4.21-1c1.5-.45,3-.82,4.52-1.18S43,9.12,44.6,8.74c.64-.16,1.28-.18,1.92-.38s1.45-.42,2.18-.58c2.92-.64,5.93-1.15,8.9-1.52,1.53-.19,3.06-.39,4.59-.6.71-.1,1.43-.2,2.14-.26s1.28,0,1.59-.63c-.5-.1-1-.1-1.51-.22s-.68-.35-1-.42c-.2,0-.49.1-.67,0s-.08-.55-.42-.47-.27.38-.52.48a6.21,6.21,0,0,1-1.54.17c-1.2.14-2.41.27-3.62.29a2.87,2.87,0,0,1,1-.38,2.74,2.74,0,0,1,1.23-.07,11.34,11.34,0,0,0,2.74-.35,13.85,13.85,0,0,0-2.19,0c-.34,0-.67.12-1,.17S57.45,4,57,4c-1.58.08-3.17.21-4.74.44-3.1.44-6.21.75-9.32,1.18s-6.19,1.3-9.33,1.8c-1.51.24-3,.42-4.54.77A7,7,0,0,0,27.19,9c-.32.18-1.51.65-1.64,1-.3.79,1.34.12,1.58,0a12.43,12.43,0,0,1,2.39-.46c.86-.16,1.71-.38,2.57-.57.4-.09.82-.14,1.21-.25a3.27,3.27,0,0,1,1-.3,2.24,2.24,0,0,1-.72.42c-.21,0-.39-.08-.57,0-.41.08-.56.37-1,.41a6.28,6.28,0,0,0-1.24.28c-.26.07-.53.1-.78.19a3.6,3.6,0,0,0-.86.28C28.4,10,29.24,9.8,29.12,9.89Zm59.69,65.9a27.22,27.22,0,0,0,2.75,5.66,8.2,8.2,0,0,0,.67,1c.24.33.44.71.71,1a2,2,0,0,0,2.08.7A3.7,3.7,0,0,0,94.23,83c-.3-.29-.53-.65-.84-1-.62-.63-1.35-1.17-1.34-2.15.68.66,1.35,1.32,2,2a11.64,11.64,0,0,0,1.78,1.94c.51.33.89,0,1.3-.33.8-.7.41-.76-.38-1.07-.26-.1-1.53-1-.72-1.24.25-.08.79.51,1,.62a1.54,1.54,0,0,0,1,.27c.42-.08.64-.47,1-.61a2.71,2.71,0,0,1,1,0,4.13,4.13,0,0,0,2.57-.51c.62-.54.19-1.36,0-2a4.09,4.09,0,0,0-.52-1c-.08-.11-.22-.34-.37-.36s-.29.2-.5.22c-.55,0-.74-1-1-1.37a7.87,7.87,0,0,0-1.65-1.83,12.55,12.55,0,0,0-4.44-2.38,3.48,3.48,0,0,0-2.07-.26c-.34.14-.64.29-1,.4s-.64.49-.88.51c-.62.06-1-1.8-1.36-2.3-.2-.31-.51-.86-.94-.85-.62,0-.36.37-.21.68a3.62,3.62,0,0,0,.69,1,2.19,2.19,0,0,1,.71,1c.11.41.17.9-.37.66-.38-.17-.62-.72-.95-1a3,3,0,0,0,.61,1.77c.06.12.21.2.24.34s-.1.3-.12.49a2.17,2.17,0,0,0,.31,1.06C89.38,77.77,88.69,75.61,88.82,75.79ZM20.28,63c.09.37-1,1.2-1.32,1.45a19.94,19.94,0,0,1-1.89,1.49,21.45,21.45,0,0,1-4,2.17c-1.44.6-3,1.22-4.58.76-.58-.17-1-.45-1,.34a3.87,3.87,0,0,0,.62,2.13c.9,1.19,2.81.26,3.9-.19a18.83,18.83,0,0,0,4.18-2.51c1.34-1,2.59-2.18,3.87-3.27.42-.36,1.41-.91,1.57-1.48s-.75-1.4-1-1.81c-.61-.86-1-.31-1.66.26s-1.4,1.28-2.14,1.89c-1.27,1-2.94,2.66-4.68,2.73a5.73,5.73,0,0,0,2.18-1.51,22.29,22.29,0,0,0,2.3-1.95c-.27-.2-1.56.36-1-.4.18-.26.73-.43,1-.6a5.22,5.22,0,0,0,.94-.77c.47-.47,1-1,1.45-1.45s0-1.33-.29-2c-.7-1.63-1.29-3.29-1.93-4.95-.13-.35-.37-1.58-.85-1.62s-.86,1.15-1,1.53-.1.65-.45.71c-.52.08-.34-.3-.25-.57a12.79,12.79,0,0,1,1.2-2.1c.22-.43.22-1.36-.5-1.27-.55.07-1.34,1.38-1.64,1.78a18.55,18.55,0,0,0-1.31,2.05c-.06.11-.2.53-.35.54-.47,0,.06-.53.16-.67a17.8,17.8,0,0,0,1.08-1.85,8.83,8.83,0,0,1,.67-1c.2-.25.76-.63.72-1a1,1,0,0,0-.76-.59c-.4,0-.74.67-1,1-.64.82-1.29,1.63-1.92,2.46-1.22,1.6-2.14,3.49-3.47,5a27.16,27.16,0,0,1,2.17-4.08c.39-.62.93-1.19,1.29-1.81.21-.36.08-.42,0-.81s0-.71-.07-1.07c-.47.11-.83.12-.88.63,0,.29.26,1.72-.62,1.26-.51-.27.28-.85-.07-1.18-.65-.61-.48,1.64-.49,1.87,0,.62-.41,1-1,.59-.76-.49.35-.62.46-1.13.08-.35,0-1.24-.46-1.13-.23.05-.4.58-.51.77-.27.47-.55.93-.81,1.4a4.88,4.88,0,0,0-.78,2.2,10.73,10.73,0,0,0,.4,2.8c.4,1.73.52,3.5.85,5.25A22.61,22.61,0,0,1,7,66a3.75,3.75,0,0,0,.21,1.59,1,1,0,0,0,.61.46,4.47,4.47,0,0,1,.85.34,3.26,3.26,0,0,0,2.16,0A20.79,20.79,0,0,0,15.9,66a12.47,12.47,0,0,0,2.2-1.46c.66-.57,1.18-1.59,2.17-1.56C20.29,63,19.76,62.94,20.28,63ZM8.8,72.34c.12.43.52.51.86.72a5.25,5.25,0,0,0,1.53.86,7.37,7.37,0,0,0,3.52-.21c2.57-.61,4.58-2.16,6.72-3.63a18.2,18.2,0,0,0,2.82-2.31c.25-.25.91-.78.72-1.2s-.91-.2-1.25-.42-.45-.71-.88-.53-.93,1.06-1.27,1.43a22.61,22.61,0,0,1-2.84,2.61,16.55,16.55,0,0,1-3.55,2.11c-.82.35-2.91,1.31-3.71.61.33-.45.9-.27,1.37-.35a7.92,7.92,0,0,0,1.78-.62,21,21,0,0,0,3.43-2,9.15,9.15,0,0,0,1.51-1.08c.4-.43.68-.94,1.13-1.35a8.17,8.17,0,0,0,1.23-1.28c.12-.17.47-.53.41-.77-.1-.39-.51-.18-.72-.05a15.63,15.63,0,0,0-1.53,1.3l-1.6,1.28a39.85,39.85,0,0,1-3.28,2.38c-1.91,1.22-4.08,2.55-6.4,2.5C9,72.9,10.27,72.37,8.8,72.34ZM28.21,52.39a17.47,17.47,0,0,0,3.92,4.76c.4.4.79.8,1.21,1.19s.72.82,1.08.94c.66.21,1.36-1.17,1.12-1.73-.13-.31-.71-.66-1-.88s-.76-.73-1.13-1.11a25.27,25.27,0,0,1-2.25-2.63,13.31,13.31,0,0,0-1-1.2c-.24-.26-.53-.75-.9-.78a2,2,0,0,0-1.15.47c-.4.4-.09.6.06,1C28.47,53,28.14,52.21,28.21,52.39Zm27.64-19a4,4,0,0,0,.73-1.16c.16-.68.14-1.42.28-2.11a29.8,29.8,0,0,1,1.28-4.07,15.68,15.68,0,0,1,.6-1.69c.23-.47.63-.68.73-1.23.07-.37-.07-.86.08-1.16s.4-.39.54-.57a7.35,7.35,0,0,0,.58-.87c.26-.45.49-.93.78-1.36.14-.21.85-.9.27-.91-.23,0-.77.43-.94.59s-.47.63-.75.91a1.56,1.56,0,0,1-.46.35c-.15.07-.42,0-.54.11s-.55.91-.72,1.21A17.66,17.66,0,0,0,57,25.09a28.86,28.86,0,0,0-1,4.51c-.12.77-.23,1.55-.35,2.32-.07.47-.36,1.2.17,1.49C56.11,33,55.41,33.18,55.85,33.42ZM12.44,74.73c.41.61,1.5,1.82,2.34,1.4.35-.18.39-.68.7-.83.15-.08.38,0,.55,0a2.42,2.42,0,0,0,.8-.31,41.23,41.23,0,0,0,6.13-4.08,14,14,0,0,0,2.64-2.41c.27-.35.62-.91.09-1.25s-.66.28-.93.57a30.31,30.31,0,0,1-5.43,4.49A14.34,14.34,0,0,1,16,74a10,10,0,0,1-1.83.44c-.46.06-1.38-.09-1.71.3C12.8,75.26,12.68,74.43,12.44,74.73Zm13.71-5.88a9.63,9.63,0,0,0-2,1.7q-1.13,1-2.34,1.86T19.39,74a9.16,9.16,0,0,0-2.45,1.76c1,.86,1.73.49,2.7-.19s2-1.25,3-2a26.4,26.4,0,0,0,2.65-2.28c.72-.71,1.38-1.41.85-2.46C26,68.91,26.59,69.73,26.14,68.84ZM9.43,39.06A22.94,22.94,0,0,0,5.6,44.73c-.41.85-1.24,1.94-1.09,2.88,0,.23.05,1.18.24,1.31.45.32.67-.5.81-.78l1.41-3c.46-1,1.11-1.81,1.59-2.76a1.62,1.62,0,0,0,.09-1.13c0-.41,0-.71.48-.48.24.11.21.33.53.14s.19-.34.17-.55a3.31,3.31,0,0,0-.39-1.35C8.82,39.72,9.73,39.51,9.43,39.06Zm-2.57-15c.5-.32.61-1.22.93-1.71.46-.72,1-1.37,1.47-2.11s.78-1.43,1.27-2.09,1.08-1,.89-1.77a5.3,5.3,0,0,0-1.8,1.5c-.65.66-1.34,1.31-1.95,2a3.72,3.72,0,0,0-.92,1.9c-.06.41,0,.83-.09,1.24s-.13.77.2,1C7.32,23.78,6.58,23.84,6.86,24.07Zm25,27c-.56.28-.86.5-.52,1.09a13.7,13.7,0,0,0,1.62,2c.62.71,1.27,1.4,1.93,2.07.22.22.6.79.94.79s.66-.58.64-.93c-.05-.68-1-1.33-1.35-1.85s-.74-1.07-1.52-.94c-.26,0-.77.25-.77-.23,0-.33.45-.35.51-.66.09-.48-1-1.68-1.47-1.35C31,51.52,32.1,50.92,31.86,51.1Zm-10-28.39a27.79,27.79,0,0,0,3.48-2.08c.61-.36.53-.76.85-1.34s.67-.85.71-1.52a7.81,7.81,0,0,0-3.55,1.63A7.33,7.33,0,0,0,22.44,21c-.23.44-.86,1.21-.59,1.73C23.25,22.15,21.67,22.36,21.85,22.71ZM20.2,20.29a6.42,6.42,0,0,0,3.18-2,31.47,31.47,0,0,0,2.39-3.61,9.53,9.53,0,0,0-3.61,2.08,17.26,17.26,0,0,0-2,3.52C21.46,19.83,21.18,18.38,20.2,20.29ZM65.78,51.52c.42.09.8-.92,1-1.28a12.53,12.53,0,0,0,.71-1.4A18,18,0,0,0,68,45.38c0-.22.47-1.16.09-1.25s-.82.83-.91,1a3,3,0,0,0-.35,1.27c0,.51.13,1.09-.28,1.5-.37-.33-.15-.92-.62-1.22a14.33,14.33,0,0,0-.17,4.84C65.86,51.53,65.6,49.93,65.78,51.52ZM32.73,45.15c.45,1,.95,1.71,1.93.88.38-.32.92-.83.79-1.39s-1-.49-1.22-.92.38-.52.35-1-.38-.79-.9-.51a2.21,2.21,0,0,0-.95,3Zm54.8-9.85a3.2,3.2,0,0,0,2,2,8.79,8.79,0,0,0,1.44.3c.71.07.58-.59.39-1.07A3.26,3.26,0,0,0,89,34.34c-.41-.11-1.15-.43-1.54-.21s-.14.82.06,1.18C88.06,36.6,87.49,35.24,87.52,35.31ZM34.19,39.24a1.91,1.91,0,0,0-.47-.93c-.32-.15-.8.26-1.06.41-.64.39-1.09.71-1,1.51A13.12,13.12,0,0,0,32,41.7c.14.63.28,1,.91.58a6,6,0,0,0,1.45-1.37c.44-.59.11-1.05-.16-1.66C34.2,39.24,34.3,39.5,34.19,39.24ZM70.75,50.37A6.73,6.73,0,0,0,69.7,52a18.24,18.24,0,0,0-.48,2,4.29,4.29,0,0,0-.3,1.8,2.18,2.18,0,0,0,.7,1.26c.81.44.85-2.08.95-2.63a14.52,14.52,0,0,0,.18-4.06C70.23,51.06,70.94,52.16,70.75,50.37Zm-63.53-31c1-.82,1.81-1.74,2.76-2.57.66-.57,2.22-1.19,2.16-2.21a9,9,0,0,1-1.79.81,2.67,2.67,0,0,0-1.56.5,3.53,3.53,0,0,0-1.08,1.5,16,16,0,0,1-.49,2C8.72,18.08,7.64,18.53,7.23,19.37Zm-1.94,33c.41-.08.63-1.18.8-1.51.32-.65.81-1.15,1.16-1.75a6.87,6.87,0,0,0,.35-1.85c.09-.4.75-1.41.38-1.78s-.74.42-.87.73c-.34.76-.7,1.51-1,2.28-.16.36-1.77,3.9-.78,3.9C5.47,52.36,5.08,52.4,5.28,52.4Zm66.1-6.87a2.34,2.34,0,0,0-1.65,1.86c0,.2-.1,1.32-.34,1.37s-.22-.61-.44-.71c-1,1.29-.68,2.93-.7,4.43,2-1.66,2.06-4.76,3.14-6.94C70.36,45.88,70.51,47.3,71.38,45.53Zm17.43,2.68c-.07-.51-.76-.71-.67-1.26.61.18,2.12,1.75,2.22.16.06-1-1.87-.93-2.54-1a7,7,0,0,0-1.89,0c-.49.07-.46.13-.51.61a2.18,2.18,0,0,0,0,.74c.25.85,2.7.87,3.41.79C88.73,47.63,87.74,48.34,88.82,48.21Zm2.08-17.6c.33-.15.62.48.92.15s-.17-1.08-.26-1.31a4.26,4.26,0,0,0-2.45-2c-.36-.15-1-.56-1,.06,0,.34.42.73.64.94.61.58,1.45.93,1.83,1.72-.37.09-.59-.38-.93-.26.14.92.44,1,1.33,1.21l-.07-.48C91.16,30.49,90.91,30.77,90.89,30.61ZM64.71,41.44a6.34,6.34,0,0,0-1.15,1.5,3.23,3.23,0,0,0-.11,1.71c0,.73,0,1.45,0,2.18,0,.44,0,1.2.4,1.46.45-.85,1.59-1.46,1.4-2.58-.11-.67-.42-.44-.63,0s-.24.76-.73.76c.34-1.69,1.17-3.28.8-5C64.18,41.94,65.09,43.31,64.71,41.44ZM31.21,16.18c-2,.25-4.17,1.47-4.51,3.67.56.1,1.11-.34,1.58-.57a7.66,7.66,0,0,0,1.43-.71,6.19,6.19,0,0,0,1.5-2.39C28.74,16.48,30.65,17.36,31.21,16.18Zm53.28,2.1c0-.59-.43-.88-.8-1.26s-.76-.85-1.17-1.25c-.72-.71-1.82-1.69-2.89-1.24,1.13,1.85,2.56,3.52,4.85,3.75C84.49,17.94,82.06,18,84.49,18.28Zm7.38,65.06c.08-.56-.62-1.31-.9-1.76-.4-.66-.81-1.33-1.18-2a18.87,18.87,0,0,1-1-2.11c-.11-.27-.42-1.68-.88-1.31s.39,1.59.53,1.95q.47,1.12,1,2.22c.57,1.24,1,2.55,2.44,3C91.91,83.05,91,83.06,91.87,83.34Zm-9-71.65a3.2,3.2,0,0,0-1.73-1.76c-.36-.15-2.2-.8-2.23-.13,0,.29.77,1.1,1,1.32a4.89,4.89,0,0,0,1.12,1c.39.24,2.52.56,1.87-.42C82.26,10.08,83.1,12,82.91,11.7ZM70.28,45a1.28,1.28,0,0,0,1.38.08c.4-.4.39-1.28.49-1.78a7.31,7.31,0,0,1,.78-1.9c.2-.38.81-1.17.61-1.62-.67.38-1,1.16-1.54,1.64-.23-.15,0-.75-.42-.54-.23.11-.37,1-.46,1.29A19.37,19.37,0,0,0,70.28,45C70.55,45.23,70.5,43.62,70.28,45ZM37.59,53c-.23.09-1.65.82-1.45,0,.12-.49,1-.48.69-1.23-.47-1.1-2.29.45-2.13,1.23.1.5.75.81,1.07,1.16s.43.76.82.85c.84.19,1.19-1.52,1-2C37.21,53.14,37.64,53.15,37.59,53Zm-3-14c.09.24.22.92.52,1s.76-.4.95-.57c.83-.78.64-1.36.29-2.33-.14-.4-.09-.64-.56-.55a2.83,2.83,0,0,0-1,.62c-.58.51-.39,1.15-.17,1.81C34.63,39.19,34.12,37.66,34.56,39Zm31.91,1.83a1.42,1.42,0,0,0,1.17.1c.34-.22.51-1,.69-1.29s.43-1,.69-1.49a2.8,2.8,0,0,0,.51-1.56c-.45-.05-.71.34-1,.65a7.8,7.8,0,0,1-1.14,1.09,3.15,3.15,0,0,0-1,2.5C66.67,41,66.5,39.76,66.47,40.83ZM37.12,46.38a2.87,2.87,0,0,0,1.35-1c.31-.53-.28-1-.5-1.53s-.29-1.14-.76-1.29-.82.3-1,.61-.59.56-.53.87c0,.13.26.43.41.43s.07-.12.24-.21,0-.29.28,0a2.47,2.47,0,0,1,.38.59,1.71,1.71,0,0,1,.19,1.57C37.77,46.12,37.53,45.31,37.12,46.38ZM44.46,34c.34.88.82.53,1.35-.05.69-.76.53-1.39.31-2.29-.07-.29,0-.86-.39-1s-.77.53-.92.74A2.68,2.68,0,0,0,44.46,34ZM68.68,46.83a11.36,11.36,0,0,0,2-5.34c-1.94.73-2.11,3.55-2,5.34C69.73,45.23,68.59,45.32,68.68,46.83ZM56.3,40.72a1.66,1.66,0,0,0,0-1.14,5.49,5.49,0,0,1,0-1.72,12.35,12.35,0,0,0,.09-3.68,3.48,3.48,0,0,0-.92,3,10.29,10.29,0,0,0,.81,3.53C56.5,40.16,55.84,39.77,56.3,40.72ZM35.24,33.48A2.91,2.91,0,0,0,33.44,35c-.14.51.16,2,.8,2a3.32,3.32,0,0,0,1.62-1.34,3.08,3.08,0,0,0-.61-2.09C34.86,33.48,35.48,33.61,35.24,33.48Zm-2.12,2.38c-.27-.86-1.16,0-1.5.39a1.74,1.74,0,0,0-.41,2.13c.44.7,1.37.08,1.76-.42a2,2,0,0,0,.15-2.1C33,35.42,33.72,37.14,33.12,35.87Zm1.36,16c.4-.3,1.19-.72,1.17-1.29s-.53-1.37-1-1.21S33,50.15,33,50.71s.89,1.56,1.49,1.18Zm-15,24.73a2.44,2.44,0,0,0,2.68.2c.42-.26,2-1.14,1.84-1.75-1.58.4-3.21.49-4.52,1.55C20.67,77.38,20.3,75.94,19.46,76.63ZM32.72,64a3.86,3.86,0,0,0,2.2-.75c.28-.27.13-.46.3-.78s.68-.43.75-.79-.41-.75-.74-.8-.61.25-.83.58c-.57.84-1.11,1.7-1.67,2.55C33.61,63.93,33.4,62.93,32.72,64ZM75,3.88a3.7,3.7,0,0,0-4.55-.53,3.28,3.28,0,0,0,1.08.55c.54.23.57.3,1.12.11.71-.25,1.83.48,2.36-.13C73.71,2.66,74.75,4.2,75,3.88ZM67.6,50.52a6,6,0,0,0-1.3,2.24,1.4,1.4,0,0,0,0,1.1c.09.21.3.31.4.49s.06.27.09.3c.62.66.93-.6.94-1.09,0-1-.05-2-.08-3C67,51.09,67.63,51.76,67.6,50.52ZM63,44.09c-.59-.21-1.19,1.39-1.34,1.9s-.41,1.38.18,1.74a3.42,3.42,0,0,0,.81.32c.44.07.35-.24.36-.7,0-1.08,0-2.17,0-3.25C63,44.06,63.05,45.33,63,44.09ZM66.62,4.32c.06-.32-.36-.34-.33-.64,0-.48.82-.16,1.06-.1a18.14,18.14,0,0,0,2.73.35A7.34,7.34,0,0,0,69,3,2.27,2.27,0,0,0,67.6,3a16.27,16.27,0,0,1-2,.23,4.12,4.12,0,0,0-1.82.3,2.43,2.43,0,0,0,1.46.31c.51,0,.87.36,1.36.46C66.66,4.09,66.12,4.23,66.62,4.32ZM38.3,54.86c-.56.3-1,.58-.61,1.21a2.85,2.85,0,0,0,.83.78c.15.1.47.38.66.39.92.07,1-3.46-.88-2.38ZM55.6,21.75c-.36-.49-2.54,1.09-2.94,1.34-.75.46-2.35,1-2.18,2.11,2-.67,3.53-2.13,5.12-3.45C55.43,21.53,54,23.06,55.6,21.75Zm-9.35,7.16a2.35,2.35,0,0,0,1.07-1.4c.18-.56.52-.41.84-.8s0-.65.52-.93.92-.35,1.05-1a25.09,25.09,0,0,0-3.07,1.69,1.84,1.84,0,0,0-.41,2.41C46.76,28.53,45.79,27.82,46.24,28.91ZM36.72,50c.47-.38,1.14-.79,1.12-1.49,0-.51-.55-1.24-1.07-1-.14.07-.27.27-.41.37-.29.21-.71.39-.86.75-.23.56.62,1.65,1.23,1.34C37,49.81,36.48,50.14,36.72,50Zm24.6-7.24a4.27,4.27,0,0,0,1.8-4.18A5,5,0,0,0,61.32,42.78Zm-17.69-12c.26.64,1.15,0,1.45-.36a2.12,2.12,0,0,0,.53-1.75c-.13-1-.71-.43-1.18,0-.68.69-1,1.08-.8,2.07C43.75,31.12,43.53,30.31,43.63,30.82ZM20.95,77.7a7,7,0,0,1-2-.39c-.73-.24-1.26.29-1.87.66,1.39,1.16,2.62,1,3.88-.27C20,77.67,19.52,79.14,20.95,77.7ZM46.87,32.53a2.28,2.28,0,0,0,.56-3.42c-.21-.24-.08-.2-.34-.13a1.17,1.17,0,0,0-.34.25,1.13,1.13,0,0,0-.41.79,4.66,4.66,0,0,0,.52,2.52C48.24,31.5,46.41,31.72,46.87,32.53ZM41,37.47c.26.66.56.7,1.06.19s.45-1.13.24-1.9-.75-1-1.34-.24-.21,1.31,0,2S40.95,37.31,41,37.47Zm42.18-12.8c.2.49.44,1.16,1,1.24.39.06,1.63-.25,1.77-.63.23-.64-1.36-1.24-1.81-1.37-.24-.07-.8-.37-1-.29-.55.18-.06.76,0,1C83.75,26,83.09,24.39,83.19,24.67ZM25.79,71.8a16.86,16.86,0,0,0-3.27,3C25.43,74.1,25.43,73.81,25.79,71.8Zm14.07-29.6c.11-.06-.31-1.44-.93-1.17-.88.38-.22,1.54,0,2.1s.29,1.38.93,1.05c1-.48.36-1.35,0-2C39.89,42.2,40,42.48,39.86,42.21Zm-2.26-1c.15-.45-.27-1.78-.76-1.71a2.46,2.46,0,0,0-1.44,1.59c0,.46.25,1.17.73,1.2a1.2,1.2,0,0,0,.88-.58c.1-.21-.14-.94.08-1,.23.16.16.49.51.52C37.81,40.61,37.23,41.21,37.6,41.24ZM30,35.15A11,11,0,0,0,28,36.86c-.34.48-.29,1.33.49,1.15a4.71,4.71,0,0,0,1.73-1.29c.45-.53.18-1.05-.16-1.58C29.37,35.68,30.64,36.11,30,35.15Zm6.39,11.11c-.24-.55-.52-.78-1.08-.46a2.94,2.94,0,0,0-1.15,1.5A.74.74,0,0,0,35.3,48c.63-.38,1.4-.89,1.11-1.7S36.54,46.62,36.41,46.26Zm1.17,13.2a2.33,2.33,0,0,0-1.25-.93c-.43,0-.83.85-.88,1.24a1.07,1.07,0,0,0,1.16,1c.33-.08,1.08-1,1-1.33Zm3.65-27.29c-.42.16-1.26.77-1.38,1.23s.31,1.7.65,1.74c.52.06,1-.79,1.1-1.18a2.49,2.49,0,0,0-.38-1.8C40.65,32.4,41.37,32.5,41.23,32.17Zm23,19.07c.26.46,1,1.75.94.41-.06-1,.05-1.94,0-2.91s-.65-.36-.93.14a2.4,2.4,0,0,0,0,2.35C64.41,51.54,63.74,50.28,64.23,51.24Zm-26.59-18c.2.62.72.55,1.11.12.53-.59.17-1.42,0-2.08s-.53-.87-1-.32-.15,1.59,0,2.29C37.82,33.81,37.57,32.76,37.65,33.27ZM37.83,40c.13.17.11.51.29.64s.58,0,.78-.21a1.8,1.8,0,0,0,.23-1.77c-.17-.56-.51-.88-1-.44s-.51,1-.27,1.77C38,40.24,37.74,39.74,37.83,40ZM32.48,33.4c-.3-.61-1.27.59-1.52.84s-.76,1.19-.24,1.63S32,35.26,32.3,35a1.29,1.29,0,0,0,.18-1.57ZM88.29,53.34a2.13,2.13,0,0,0-1.66-.16c-.43.25-.33.78-.26,1.2.12.68.4,1,1.11.93s.71-1.31.81-2C88.16,53.28,88.22,53.82,88.29,53.34ZM7.87,39.62c-.41-.85-1,.19-1.29.57s-1.16,1.53-1,2.19c.31,1,1-.47,1.11-.75.25-.45,1.36-1.49,1.13-2S7.95,39.8,7.87,39.62Zm29.2-6.91c-.25-.59-.76-.72-1.09-.08a3.12,3.12,0,0,0,.22,2.12c.27.47.74.28,1.05-.12s0-1.34-.19-1.92S37.15,33,37.07,32.71ZM5.23,36.18c.42-.66,1.06-1.13,1.5-1.77.17-.25.24-.75.43-.93s.64-.08.44-.53c-.43-1-1.48.66-1.69.95-.53.73-1.07,1.36-.68,2.29C5.86,35.2,4.95,35.51,5.23,36.18ZM38.15,36c-.21-.53-.53-.93-1.06-.49s-.36,1.48,0,2.12.8.19,1.13-.24.1-.91-.09-1.39ZM37.07,56.68c-1.27.54.18,2.4,1.12,2.19a.87.87,0,0,0,.51-1.22c-.2-.32-1.25-1.13-1.63-1ZM7.33,37.58C7,37,6.14,38.39,5.92,38.66s-1,1.08-.55,1.63,1-.52,1.13-.85,1.07-1.3.84-1.86C7.17,37.33,7.42,37.79,7.33,37.58Zm32.17,8.77c-.27-.81-.94-.26-1.37.1-.59.49-.59.81-.07,1.36.82.87,1.84-.59,1.44-1.46C39.38,46,39.81,47,39.51,46.35Zm-1.34,3.18A3,3,0,0,0,37,50.65a.78.78,0,0,0,.73,1.05c.38-.05.94-.81,1.11-1.13a.79.79,0,0,0,.15-.72.62.62,0,0,0-.78-.32Zm2.55,5.38c.26-.22.33-.56.51-.83s.44-.4.33-.79a.7.7,0,0,0-1.21-.41c-.25.21-.87.68-.84,1s.33.3.53.45.39.51.68.53C41.06,54.62,40.4,54.9,40.71,54.91Zm-1.4-21.11c-.36.21-.92.44-1,.9a3.12,3.12,0,0,0,.39,1.48c.38.54,1-.08,1.23-.51s-.26-1.5-.62-1.87C38.15,34.47,39.63,34.13,39.31,33.79Zm44.86-19c-.33-.49-1-1.55-1.66-1.58-1,0,.32,1.36.58,1.61s1.09,1,1.48.6c.13-.15.36-.94.08-1.06s-.24.36-.48.44C84,14.55,84.41,14.69,84.17,14.76Zm13,58c-.31-.35-.69-1-1.09-1.23s-.65.09-1,0A6.34,6.34,0,0,1,93.8,71c-.33-.14-1-.53-1,0s1.38.68,1.81.84a9.87,9.87,0,0,0,2.6.91C96.87,72.4,96.51,72.73,97.18,72.75Zm-16.73-59a5.1,5.1,0,0,0-1.55-1.68c-.3-.18-1.25-.6-1.35-.06s.63,1.13,1,1.35a2.61,2.61,0,0,0,1.94.39C80.1,13.21,79.24,14,80.46,13.78ZM43.19,31c-.24-.6-.56-.51-.93,0A2,2,0,0,0,42,32.67c.22.8.81.46,1.18-.06A1.6,1.6,0,0,0,43.19,31Zm6.73-4.94c-1.52-.13-.5,2.38-.25,3,1-.58.39-2.1.25-3C49.56,26,50,26.75,49.92,26.07ZM28.78,49.42c-.32-.53-.45-.46-1-.12-.35.21-.87.47-.84.92.06.75.91.82,1.42.61.76-.31.75-.72.44-1.42C28.7,49.29,29.16,50.25,28.78,49.42Zm4,.4c.37-.26,1.25-.63,1.35-1.13a.71.71,0,0,0-.86-.78A3.26,3.26,0,0,0,31.93,49c-.11.43.43,1.1.9.81S32.44,50.07,32.82,49.82Zm33.25-4.56a15.31,15.31,0,0,0,1.36-3.84C65.89,42.29,65.93,43.76,66.07,45.27Zm-26-8.7c-.31.23-.78.48-.85.9a2.94,2.94,0,0,0,.42,1.6c.37.5.93.14,1.06-.42s-.43-1.53-.63-2.08C39.15,37.28,40.34,37.17,40.11,36.57ZM23.19,77.81c-1.43,0-1.89.32-2.43,1.37C22.47,79.37,22.47,79.37,23.19,77.81Zm6.11-28.37c.24.56.44.5.9.15s.79-.71.48-1.28S30,47.66,29.54,48s-.47.82-.23,1.43S29.11,48.94,29.31,49.44ZM7.1,35.35C5.67,36.3,5,37.5,5.46,38.42,6.06,37.44,7.05,36.73,7.1,35.35ZM87.66,56.12c-1.17-1.17-1.41,1-1.23,1.74a.57.57,0,0,0,1,.24c.43-.44.13-1.44.25-2C87.47,55.93,87.53,56.73,87.66,56.12Zm4.23-21.63c.56-1.86.54-1.88-1.29-2.54A10.65,10.65,0,0,0,91.89,34.49ZM68.22,60.73a22.57,22.57,0,0,0-3.74-3.49A18.62,18.62,0,0,0,68.22,60.73ZM10.5,74.5a4.81,4.81,0,0,0,1.23,1.63,1.27,1.27,0,0,0,1.65.27c-1-.63-1.66-1.69-2.88-1.9C10.74,75.26,11.8,74.73,10.5,74.5Zm29.1-23.58c-.48.27-.5.9-.68,1.36s-.52,1.23.26,1a3.45,3.45,0,0,0,1-1.24c.15-.51-.27-.79-.63-1.1C39.07,51.22,40.52,51.7,39.61,50.92ZM77.79,11.09c-.68-1.28-1.32-1.62-2.47-1.27A2.13,2.13,0,0,0,77.79,11.09ZM85,32.75c.17.38.49,1.42,1,.72.29-.37,0-1-.16-1.33s-.56-1-1-.88c-.64.1,0,1.13.11,1.49S84.89,32.41,85,32.75ZM40.91,51.09c.52-.18,1.33-1.76.4-2-.36-.09-.9.46-1.06.77s0,1.42.66,1.22Zm19.64-8.66c-1.23,1.47-1.23,1.47-.56,2.66C61,44.42,60.73,43.48,60.55,42.43ZM4.12,45.57c.56.26.95-.39,1.11-.84s.43-1.25.26-1.57c-.4-.75-.93.15-1,.56-.12.68.14,1.26-.37,1.84C4.46,45.72,4.43,45.21,4.12,45.57ZM15,76.77c.91,1,1.6.93,2.26-.14C16.45,75.83,15.73,76.22,15,76.77ZM18.92,15a3.44,3.44,0,0,0-1.32,1.21c-.2.35-.53,1.14.17.93.5-.15.82-.92,1.17-1.29s.89-1.16,0-.85C18.16,15.4,19.07,14.91,18.92,15Zm-.43,64.47c-.23-.45-1.31-.54-1.73-.71-.25-.1-1-.74-1.19-.21s1.11.85,1.41,1,1.7.68,1.51-.06C18.43,79.29,18.52,79.54,18.49,79.42ZM89.22,66.51a7.93,7.93,0,0,0-.87-1.4c-.42-.44-.86-.07-.67.46a3.76,3.76,0,0,0,.9,1.31c.35.29.95.17.65-.37S89.3,66.66,89.22,66.51Zm-2.67-5.79c-.64.31-.72,2.14.21,1.54a2.52,2.52,0,0,0,.67-.9c.26-.69-.38-.7-.88-.64C86,61,86.84,60.69,86.55,60.72ZM46.43,34.34a2.3,2.3,0,0,0-1.09.91c-.2.27-.48,1.08.09,1.17.34.06.82-.45,1-.71a1.82,1.82,0,0,0,0-1.38C45.81,34.54,46.72,35.39,46.43,34.34Zm-2.25,2c-.26.36-.78.46-.88.94s.18.93.66.79c.86-.25.94-2.2.23-1.74C43.94,36.72,44.43,36.22,44.19,36.38ZM43,35.87c.31-1,.83-1.75.49-2.73C42.46,33.76,42.21,34.08,43,35.87ZM80.34,6.49a1.76,1.76,0,0,0-.93-1c-.25-.12-1-.49-1.22-.41-.67.22.21.77.44.9a3.24,3.24,0,0,0,1.7.46C80,5.49,79.44,6.52,80.34,6.49Zm10.6,62.89c-.31-.42-.5-.9-.78-1.33s-.87-.73-.87,0a1.59,1.59,0,0,0,1.65,1.38C90.63,69,90,69.45,90.95,69.38ZM61.81,30.44a10.62,10.62,0,0,0-1.27,3.32A3.43,3.43,0,0,0,61.81,30.44ZM52.2,25.3c-.3-.64-1.41.52-1.53.86s-.28,1.38.29,1.28.16-1,.2-1.3c.09-.7,1.17-.21,1-.84C52.13,25.15,52.24,25.5,52.2,25.3Zm-37.15-13A5,5,0,0,0,13,13.66C13.69,13.24,14.67,13.27,15.05,12.34ZM43.2,47.91a.81.81,0,0,0-1.44.64c.08.39.42.66.78.48s.52-.78.66-1.11C43.11,47.81,43,48.29,43.2,47.91ZM19.26,80.08c.28.19,2.23.77,2.13,0s-1.8-.31-2.13,0C19.89,80.5,19.93,79.54,19.26,80.08Zm70.37-9.21c.11.24.58,1.52,1,.78.25-.42-.35-.81-.55-1.08s-.22-.68-.54-.64c-.63.07,0,.71.07.94S89.52,70.56,89.62,70.87ZM42,52.48c.23-.26,1.07-2,.12-1.77-.25.07-.59.66-.66.89-.15.47.1.72.54.88C42.29,52.11,41.62,52.35,42,52.48ZM86.07,74.74c.61-1.06-.38-1.33-.81-1.87A3.3,3.3,0,0,0,86.07,74.74ZM42.62,43.35c-.22-.24-.25-.54-.63-.25a1.42,1.42,0,0,0-.33,1.12.45.45,0,0,0,.77.26c.42-.31.31-.7.19-1.13C42.49,43.21,42.67,43.53,42.62,43.35Zm14.7-1a2.62,2.62,0,0,0,.54-1c0-.29-.13-.91-.46-1-.77-.15-.28,1.73-.08,2C57.7,41.74,56.93,41.74,57.32,42.32ZM5.13,33.82c.25-.24,1.49-1.85,1.05-2s-.75.56-.91.76c-.36.43-.56.79-.14,1.27C5.55,33.42,4.83,33.48,5.13,33.82ZM75.1,3c.55.57,1,1.3,2.07.9A2.67,2.67,0,0,0,75.1,3Zm-70.81,31c-.26.18-1.41,2-.48,1.88.14,0,.36-.54.45-.74a1.21,1.21,0,0,0,0-1.13C3.69,34.46,4.72,34.93,4.28,34.05ZM87.52,59.16c-.44-.69-1.52,0-1.25.74s1.57,0,1.25-.74C87.3,58.81,87.67,59.52,87.52,59.16ZM41.31,43a5.21,5.21,0,0,0,.31-1.9C40.53,41.81,40.53,41.81,41.31,43Zm21.53-.68a5.08,5.08,0,0,0-1.43,2.45A5.32,5.32,0,0,0,62.84,42.3ZM8,37.15c.39-.22.54-.64.79-1s.68-.51.27-.77-.75.29-1,.55a1,1,0,0,0-.1,1.2C8.6,36.81,7.77,36.77,8,37.15Zm50,7.62a2.3,2.3,0,0,0,.56-1c0-.32-.09-.87-.51-.71s-.51,1.44-.05,1.68C58.37,44.31,57.59,44.54,58,44.77ZM5,40.59c-.3-.6-1.27.86-.84,1.41.61.78,1.09-.92.84-1.41Zm44.19-8.13c.5-.2,1.12-1.51.18-1.52-.74,0-.7,1.71-.18,1.52S49,32.52,49.15,32.47Zm-36.38,46c-.18-.22-1.52-1.76-1.67-1.06-.07.35,1.36,1.13,1.67,1.06C12.49,78.13,12.2,78.62,12.77,78.48ZM45.08,27.31c-1.79.14-2.18.54-1.58,1.51Zm-32,50c1.26.88,1.26.88,2,.33C14.22,77,14.22,77,13.11,77.34ZM91.95,38.89a1.28,1.28,0,0,0-1-.73c-.72,0-.15.65.08.95s.68,1.19,1.11.85-.33-.66-.23-1.06C91.83,38.54,91.88,39.15,91.95,38.89ZM88.13,20l-.48-1.21c-.06-.14-.38-1-.59-.44s.73,1.48,1.07,1.65C87.92,19.47,87.55,19.7,88.13,20ZM9.49,37.39c-.55-.36-1.67,1-1.2,1.32s1.26-1,1.2-1.32C9.43,37.35,9.53,37.65,9.49,37.39ZM47,36.22c-1.36.78-1.44.93-1,1.72A2.68,2.68,0,0,0,47,36.22ZM77.56,9.7a4,4,0,0,0,2.08,1.85C79,10.71,78.74,9.76,77.56,9.7ZM42.41,54.25c-.34.18-1.34,1-.93,1.54s.85-1.29.93-1.54C41.85,54.55,42.25,54.8,42.41,54.25ZM15.66,19.74A3.15,3.15,0,0,0,17,18,2.35,2.35,0,0,0,15.66,19.74ZM58.92,47c.55-.15.1-1.9-.3-1.59-.16.12,0,.6,0,.78s-.29.86.28.8C59.1,47,58.73,47.05,58.92,47ZM30.09,50.62c.46,0,2.21.33,1.53-.64-.49-.7-1.33,0-1.53.64C30.52,50.65,30.25,50.11,30.09,50.62ZM92.23,70.94c-.17-.43-1.64-1.28-1.42-.44.12.48,1.62,1.09,1.42.44C92,70.49,92.28,71.12,92.23,70.94ZM41.87,46.52c-.27-.58-1.07.28-1,.7.2.87,1.14,0,1-.7C41.82,46.39,42,46.93,41.87,46.52ZM41.24,40c-.3-.81-1.29,0-1,.69s1.21-.09,1-.69ZM93.82,86.1c-.3-.2-1.43-.86-1.79-.64s.35.61.53.67c.38.13,1,.43,1.25,0C93.5,85.89,93.61,86.48,93.82,86.1ZM9.21,74.58c.13.36.68,1.91,1.22,1.74s-1-1.53-1.22-1.74C9.45,75.23,9.68,75.05,9.21,74.58ZM40.85,44.42c-.45.19-1.1.39-1,1,.07.27.25.52.55.32s.33-1,.41-1.31C39.89,44.83,40.74,44.83,40.85,44.42Zm3.72-6.1c-.61.24-1,1.36,0,1.1.76-.21.68-1.4,0-1.1C44.22,38.45,44.85,38.18,44.58,38.31ZM3.74,38.17c.72-.63.75-.75.51-1.68C3.81,37,4,37.64,3.74,38.17ZM81.76,8c-.19-.22-1.93-1.27-1.74-.49.07.3,1.79,1.2,1.74.49C81.37,7.52,81.76,8.06,81.76,8ZM42.57,41.14c.4.35.37-.16.48-.42s.63-.49.42-.79c-.41-.6-1,.83-.9,1.21C42.62,41.19,42.48,40.84,42.57,41.14ZM50.5,29.27c-.34.25-1,1.19-.29,1.48s.48-1.19.29-1.48C50,29.63,50.81,29.75,50.5,29.27ZM87.74,62.63c-.48.34.16,1.45.68,1.27.75-.26,0-1.58-.68-1.27C87.43,62.85,88.18,62.42,87.74,62.63ZM86.07,35.78c.08.28.14.93.38,1.12s.81.09.89-.24c.13-.49-.92-.94-1.27-.89C86.17,36.13,86.64,35.69,86.07,35.78ZM42.49,38.19c-.46.26-1.18.63-.82,1.27.56,1,.93-.81.82-1.27C41.56,38.72,42.61,38.65,42.49,38.19ZM90.81,67.7c0,.34.7,1.81,1.1,1.58.6-.34-.77-1.51-1.1-1.58C90.87,68.42,91.63,67.89,90.81,67.7ZM47.68,32.93c-.36.19-1.15,1.1-.58,1.51s.71-1.22.58-1.51C47.1,33.24,47.9,33.44,47.68,32.93ZM14.93,21a1.66,1.66,0,0,0-1,1.8A3.37,3.37,0,0,0,14.93,21Zm43.3,19a2,2,0,0,0,.09-1.66C57.65,38.93,57.93,39.49,58.23,40ZM89.69,64.81c-.15-.12-.14-.39-.3-.5a.39.39,0,0,0-.6.29c-.08.77,1.35.9.9.2C89.48,64.65,89.81,65,89.69,64.81Zm.28,1c-.49.27.06,1.33.59,1.19s-.16-1.17-.59-1.19C89.84,65.92,90.4,65.86,90,65.85Zm-2.29,2.84c-.21-.11-.19-.45-.39-.58a.47.47,0,0,0-.72.27c-.2.93,1.59,1.14,1.11.31C87.42,68.55,87.86,69,87.68,68.69ZM86.61,32.34c.06.39-.18.72.14,1a1.38,1.38,0,0,0,1.43,0,3.13,3.13,0,0,0-1.57-1.07C86.68,32.77,87.33,32.58,86.61,32.34Zm8,52.79c.65.55,1.1.3,1.76,0A2.83,2.83,0,0,0,94.62,85.13Zm-24-50.46A3.75,3.75,0,0,0,69,36.16C69.91,36.14,70.36,35.62,70.65,34.67ZM41.28,56.61c-.25-.7-1.13.25-.88.67s1-.23.88-.67C41.2,56.38,41.35,56.95,41.28,56.61ZM65.79,40.16a6.24,6.24,0,0,0-.42,2.21C65.63,41.72,66.14,41.12,65.79,40.16Zm23.1,28.9a1.26,1.26,0,0,0-.76-1.26C88.08,68.59,88.08,68.59,88.9,69.06ZM45.25,41c.45-.11.85-1,.24-1.18s-.64.89-.24,1.18C45.57,40.88,45,40.76,45.25,41ZM68.92,4.77a2.44,2.44,0,0,0-1.8,0C67.74,5.35,68.34,4.78,68.92,4.77ZM43.29,45.17c-.26-.61-1,0-.76.43s.93,0,.76-.43C43.18,44.91,43.38,45.4,43.29,45.17ZM12.71,13.23c-.56.58-1.4.43-1.72,1.1C12,14.59,11.8,13.31,12.71,13.23ZM92.45,36.74c0-.31.06-1.83-.66-1.49-.54.25.48,1.25.66,1.49C92.47,36.27,92.21,36.41,92.45,36.74ZM74.65,62.63c0,.38.54,1.06,1,.84.73-.37-.49-1-1-.84C74.61,63.1,75,62.48,74.65,62.63Zm-40-20.47c.09.14.23.55.38.64.31.2.51.05.48-.34-.06-.65-1-1.43-.85-.3C34.75,42.36,34.63,42.12,34.63,42.16ZM87.52,63.84c-.16-.21-.29-.48-.6-.47s-.44.32-.36.62c.23.84,1.43.48,1-.15ZM8.76,44.7a2,2,0,0,0,.42-1.54C8.41,43.87,8.41,43.87,8.76,44.7Zm35-2.32c-.14-.16-.11-.44-.36-.44s-.25.44-.19.64.14.5.29.54c.49.12.38-.52.26-.73S43.9,42.65,43.74,42.38Zm43.09-7.75c-.28-.63-1.35-.55-.81.14.31.39,1,.56.81-.14C86.68,34.28,86.89,34.82,86.84,34.63ZM8.47,34.25c-.37-.62-1.14.21-.87.66s1-.22.87-.66C8.38,34.09,8.64,34.69,8.47,34.25Zm30.39,25a.55.55,0,0,0,1-.37c-.05-1-.84.07-1,.37C39,59.46,38.93,59.14,38.86,59.27ZM3.73,40c1-.52,1-.58.76-1.28ZM74.21,6.81c.47.46.78.92,1.53.7C75.35,7,75,6.59,74.21,6.81ZM43.89,47.06c.18-.23.35-.51.06-.76a.37.37,0,0,0-.54,0,.46.46,0,0,0,.48.74C44,46.91,43.57,47.19,43.89,47.06Zm13.89-15a1.65,1.65,0,0,0-.49,1.66C57.59,33.23,58.16,32.83,57.78,32.06ZM86,15.65c0,.19,0,1.26.48,1s-.25-.91-.48-1C85.93,16.11,86.2,15.74,86,15.65ZM4.94,32c.28-.6.77-.81.76-1.38C4.77,31,4.77,31,4.94,32ZM82.77,10.59c.49.79.49.79,1.05,1.12C83.61,11.17,83.55,10.64,82.77,10.59ZM72.93,5.7c.06.37.75,1.07,1.07.56s-.76-.67-1.07-.56C73,6.12,73.31,5.57,72.93,5.7Zm2.54,58.72c-.34-.52-.34-.52-1.14-.91A2.33,2.33,0,0,0,75.47,64.42ZM18.37,80.73c-.47.24.17.73.46.52s-.17-.56-.46-.52C18.23,80.8,18.6,80.69,18.37,80.73ZM76.8,5.33c-.11-.27-.8-.49-1-.16s.74.46,1,.16C76.67,5,76.62,5.58,76.8,5.33ZM49.17,29.58c-.22-.46-.61,0-.5.3s.6,0,.5-.3S49.22,29.75,49.17,29.58Zm33.61-20c-.42-.26-.62-.64-1.19-.39C81.89,9.58,82.13,9.88,82.78,9.62ZM60.7,46.74a1.62,1.62,0,0,0-.14-1.11A.73.73,0,0,0,60.7,46.74Zm26.53,27c0-.22-.12-1.11-.49-.92s.37.8.49.92C87.25,73.47,87,73.57,87.23,73.77ZM39.63,48.24c-.08.05-1,.7-.48.85s.44-.66.48-.85C39.26,48.47,39.54,48.67,39.63,48.24ZM22.83,8.17c.35,0,.74.11,1.16-.21A1.41,1.41,0,0,0,22.83,8.17ZM54,42.87c-.34-.32-.61-.44-1,0A1.64,1.64,0,0,0,54,42.87ZM3.85,33.24c.09-.14.68-1.05.13-1-.4,0-.4.85-.13,1C4,32.95,3.73,33.18,3.85,33.24ZM63.83,56c.15.39.16.69.55.79A1.26,1.26,0,0,0,63.83,56Zm-.15-22.38-.5,1.15C63.8,34.47,63.92,34.13,63.68,33.61ZM46.2,43c.2.34.53-.15.4-.38s-.44.16-.4.38S46.16,42.81,46.2,43ZM23.3,77c.41-.09.69-.18.69-.66C23.69,76.49,23.41,76.56,23.3,77Zm30-51.16c-.23-.28-.52.21-.39.43s.48-.19.39-.43S53.37,26.09,53.3,25.87ZM12,49.42c0-.38-.58-.21-.55.14s.53.24.55-.14C12,49.24,12,49.64,12,49.42ZM51.08,28.88c.16.37.49,0,.41-.25-.13-.48-.46-.12-.41.25C51.12,29,51.05,28.68,51.08,28.88Zm33.85-12.6c-.15-.28-.46,0-.43.19s.54.14.43-.19C84.84,16.12,85,16.42,84.92,16.27ZM44.11,34.86c-.23.41-.23.41-.14.82A.58.58,0,0,0,44.11,34.86Zm44.38,27c.2-.15.22-.51-.13-.39s-.19.43.13.39C88.6,61.79,88.37,61.89,88.49,61.88Zm-1.65,8.3c-.58-.64.11.72,0,0C86.79,70.12,86.86,70.3,86.84,70.17ZM48.12,28.24c-.15-.22-.19.2-.17.18s.27.11.17-.18C48.08,28.18,48.15,28.34,48.12,28.24Zm-3.8,15.54-.13-.14c-.21.45.16.41.13.14C44.27,43.74,44.33,43.9,44.32,43.79ZM85.48,61.06c-.21,0-.27,0-.06.16l.06-.16C85.43,61.06,85.46,61.12,85.48,61.06ZM18.63,83.58c-.15.19,0,.35.24.29s0-.33-.24-.29C18.59,83.62,18.78,83.55,18.63,83.58ZM84.69,18.42Z"/><path class="cls-2" d="M27.4,47.1a13.61,13.61,0,0,1-2.72,1c-1.1.28-1,.54-.5,1.49s.85,1.67,1.31,2.49a8.62,8.62,0,0,0,.69,1.14c.25.31.41.24.73.47s.51.87.72,1.27a4.34,4.34,0,0,0,.49.84c.21.25.6.3.78.52a5,5,0,0,1,.35,1.09,5.14,5.14,0,0,0,.44.84A8.84,8.84,0,0,0,31.33,60c.66.59.2,1.37-.49.74a14.83,14.83,0,0,1-1.65-2.22c-1.14-1.59-2.39-3.12-3.42-4.79s-1.65-3.26-2.48-4.9a5.73,5.73,0,0,0-.73-1.13c-.2-.24-.55-.44-.67-.74s.13-.68,0-1.06-.44-.62-.43-1c0-.61.36-.41.66-.34s.62,0,1,.1c1.18.37-.27.63-.49.92a.61.61,0,0,0,.19.83c.31.19.81-.09,1.1-.22a6.2,6.2,0,0,1,1-.41c.18,0,.34-.15.52-.2.35-.1.22-.27.51.05a29.76,29.76,0,0,1-2.74,1.71c.73.67,1.61,0,2.39-.24.33-.1,1.67-.6,1.74,0C26.39,47.6,27.37,46.83,27.4,47.1Z"/><path class="cls-2" d="M53.66,19.35A14.18,14.18,0,0,0,51,21c-.34.26-.58.65-1,.38-.19-.13-.15-.36-.43-.38s-.36.2-.5.27a60.23,60.23,0,0,1-5.54,2.51c-2,.75-4,1.45-6,2.07-1.08.33-2.18.62-3.27.92l-1.49.41c-.6.17-.9.39-1.16-.25a18.44,18.44,0,0,0,3.75-.88q1.81-.53,3.59-1.16c2.46-.88,4.94-1.78,7.34-2.83,2.2-1,4.2-2.51,6.5-3.22,2.13-.65,3.33-2.9,5.5-3.48-.15.08-.3.38-.42.52a2,2,0,0,1-.44.45c-.22.18-.47.28-.72.47s-.69.66-1,.95-1,.56-1,.87A4.35,4.35,0,0,0,53.66,19.35Z"/><path class="cls-2" d="M15.19,39.44c.42,1.14,1.1,2.15,1.59,3.26a36.66,36.66,0,0,1,1.3,3.48,34.81,34.81,0,0,1,1,3.58c.12.58.2,1.16.32,1.74.07.35.4,1,.18,1.39s-.67.16-.81-.17a5.53,5.53,0,0,1-.13-1.66,19.82,19.82,0,0,0-.78-3.78,28.83,28.83,0,0,0-2.75-7c-.64-1.06-1.27-2.18-2-3.18A20.79,20.79,0,0,1,10.91,34a3.23,3.23,0,0,1,.75.36c.14.14.23.4.37.57a5.48,5.48,0,0,1,.59.67,7.54,7.54,0,0,0,.42.69c.17.21.42.37.58.57a6.35,6.35,0,0,1,.41.87,8.29,8.29,0,0,0,1.14,1.71C15.63,40.62,14.51,38.68,15.19,39.44Z"/><path class="cls-2" d="M16.27,38.27c1.12,2.43,2.24,4.86,3.27,7.33s1.86,4.8,3,7.07c.16.32,1.64,2.57.8,2.52-.29,0-.72-.93-.89-1.2a8.34,8.34,0,0,1-.73-1.65c-.92-2.38-2-4.7-2.9-7.07q-.77-2-1.71-3.88-.47-1-1-1.88a1.27,1.27,0,0,1-.25-.88C16,38.32,15.93,38.35,16.27,38.27Z"/><path class="cls-2" d="M21.07,40.39A6.75,6.75,0,0,1,19.56,38a10.86,10.86,0,0,1-.43-1.49c-.06-.27-.17-.48,0-.67s.39-.16.56.07A5,5,0,0,1,20,37.33a10.23,10.23,0,0,0,.57,1.26,8.54,8.54,0,0,0,.55,1c.17.27.59.65-.07.76C20,39.32,21.13,40.38,21.07,40.39Z"/><path class="cls-2" d="M83,60.16c.2.8.77,1.08,1.2,1.69.16.23.27.61-.13.65s-.5-.31-.63-.47-.3-.37-.44-.55a3.58,3.58,0,0,1-.35-.71c-.17-.35-.43-.55-.59-.92-.06-.14-.25-.43-.25-.57s.17-.25.48-.4a4.87,4.87,0,0,0,.7,1.28C83.16,60.84,82.68,59.78,83,60.16Z"/><path class="cls-2" d="M78.08,50c0,.45-1,3.35-1.53,2.87-.29-.27.51-1.38.63-1.64.26-.54.26-1,.91-1.23C78,51.18,77.68,50.14,78.08,50Z"/><path class="cls-2" d="M54.05,13c.23.47-.23,1.1-.6.55-.14-.21-.15-.62.12-.73s.3.07.48.18C54.23,13.36,53.94,12.92,54.05,13Z"/><path class="cls-2" d="M16.42,35.15a15.92,15.92,0,0,1,1.41,2.76,7.73,7.73,0,0,0,1.22,2.44,1.18,1.18,0,0,1,.44.78c.15.59.33,1.18.52,1.76.36,1.11.78,2.21,1.2,3.3a50.66,50.66,0,0,0,2.69,6.11,25.37,25.37,0,0,0,1.52,2.6c.53.76,1.41,1.3,1.7,2.15a5.16,5.16,0,0,0,1.29,1.84A14.77,14.77,0,0,0,30,60.69c.24.17.86.23.69.68-.12.3-.49.26-.72.13a4.27,4.27,0,0,1-.92-1.06L27.9,59a44.38,44.38,0,0,1-3.73-5,39.31,39.31,0,0,1-3-6.22,15.57,15.57,0,0,0-1.28-3.21,9.43,9.43,0,0,1-1.16-2.8,24.82,24.82,0,0,0-1.24-3.39c-.25-.56-.52-1.11-.76-1.68s-.65-1.11-.29-1.61C17.25,36.34,16.11,35.57,16.42,35.15Z"/><path class="cls-2" d="M55.2,4.72a8.81,8.81,0,0,1-3.76.39l2-.33.93-.15c.33-.06.74-.3.82.1C54,5.09,55.19,4.64,55.2,4.72Z"/><path class="cls-2" d="M55.85,4.67a.08.08,0,0,1-.14,0c0-.08.12-.11.14,0S55.85,4.65,55.85,4.67Z"/><path class="cls-2" d="M90.91,44.15c-.55-.09-.17-.68,0,0Z"/><path class="cls-2" d="M85.71,21.33c.41-.17.61,0,.66.42A.53.53,0,0,1,85.71,21.33Z"/><path class="cls-2" d="M86.63,21.84c.16-.11.25,0,.31.11C86.77,22.08,86.69,22,86.63,21.84Z"/><path class="cls-2" d="M86.35,21.74c.19-.21.26-.07.31.11C86.51,21.93,86.42,21.87,86.35,21.74Z"/></g></g></svg>