<svg xmlns="http://www.w3.org/2000/svg" viewBox="0 0 389.8 211.49"><defs><style>.cls-1{fill:#fff;}.cls-2{fill:#653b1e;}</style></defs><title>Element 1</title><g id="Ebene_2" data-name="Ebene 2"><g id="Ebene_2-2" data-name="Ebene 2"><path class="cls-1" d="M37.86,52c12,5,41,38,43,64s4,67-14,80-16,14-25,7-35-53-36-62-3-53,0-59,14-22,14-22Z"/><path class="cls-1" d="M55.86,44l124-26s79-21,104-16,42,21,44,24,15,20,15,28-13,35-18,46-39,41-53,45-99,49-153,58-54,3-54,3,29-22,29-42-1-41-7-55-16-44.9-38-52.45-4-9.55-4-9.55Z"/><path class="cls-1" d="M350.86,22s-9-3-10,3,10,10,13,27-5,18-5,18l-2,15s19,11,16,3l-3-8,5-1s18-4,12-8-13-9-13-9,13,3,9-3-11-17-11-17,19-1,15-5-4-21-4-21l-20-6Z"/></g><g id="Calque_1" data-name="Calque 1"><path class="cls-2" d="M302.36,144.86,190.86,184c-.47-.38-9.12,5.85-9.47,6.2A2.44,2.44,0,0,1,180,190a2,2,0,0,0-2.09.17c-1,.68-8.19,2.08-8.76,1.72a5.42,5.42,0,0,0-2.32.34c-1.06.32-3.12.85-4.56,1.18-4.74,1.09-14.29,3.56-17,4.39a45.11,45.11,0,0,1-4.82,1.18,6.54,6.54,0,0,0-2.83,1c-.58.61-.42.64,2.1.4,1.56-.15,2.73-.1,2.73.11s-.41.46-.91.59-3,.8-5.55,1.51-5.19,1.35-5.86,1.42a17.8,17.8,0,0,0-4.44,1,66.25,66.25,0,0,1-10.7,2c-5.37.6-9.31,1.19-9.73,1.45a38.63,38.63,0,0,1-4.9.83,31.39,31.39,0,0,0-6.3,1.38c-2.38,1.05-3.06,1-2.49,0h0c.37-.69.29-.87-.49-1.16a2.27,2.27,0,0,0-1.53,0A27.83,27.83,0,0,1,84,210.7c-2.68.45-4.63-.31-4.42-1.75.1-.72.41-.9,1.65-.95,2.79-.11,3.54-.85,1.71-1.68-.56-.25-1-.74-1-1.08,0-1.14-1.16-.62-2.67,1.18-2.66,3.18-5,3.35-5,.38,0-1,.19-1.36.61-1.36a7.15,7.15,0,0,0,2.44-1.69c1.4-1.29,1.8-1.93,1.71-2.72-.21-1.81-1.43-1.52-3.7.88-3.3,3.48-5.27,4.59-8.81,4.92-2.54.24-3.1.18-3.57-.39a1,1,0,0,1-.13-1.34c.54-.85,3.56-2,5.28-2.07,1.35,0,2.09-.57,6.39-4.74a35.29,35.29,0,0,1,3.46-3c1.71-1.19,4.8-4.67,4.8-5.41a2.51,2.51,0,0,1,.85-1.29,22.17,22.17,0,0,0,3.43-6l1.37-3.43a25.24,25.24,0,0,0,1.24-4.24c.19-1.11.54-2.93.77-4,1-4.91,1-5.31-.24-5.92-1.63-.78-1.7-2.07-.17-3.16.68-.48,1.24-1.19,1.24-1.56a11.54,11.54,0,0,1,.62-2.43,11.43,11.43,0,0,0,.61-3c0-.7.1-2.73.23-4.51.29-4.14-.39-11.54-1.18-12.78-1.13-1.77-2.46-9-3.09-16.78a45.87,45.87,0,0,0-1-6.87c-1.62-5.69-2.73-8.88-3.38-9.82a17,17,0,0,1-1.42-2.83,24,24,0,0,0-1.45-3,9.59,9.59,0,0,1-1-2.83c-.29-1.68-2.84-6.78-5-9.93C73.82,83.54,67.24,77,66.61,77a10.81,10.81,0,0,1-2.26-2.32A21.37,21.37,0,0,0,61,71.33c-1.63-1.12-3.55-4.41-3.17-5.41s2.18-.79,2.74.28,3.12,3.56,7.24,7.17c5.32,4.66,8.56,7.92,10,10.08a47.46,47.46,0,0,1,5.4,11.12A29.68,29.68,0,0,0,85.58,100a17.1,17.1,0,0,1,1.57,3.06,18.36,18.36,0,0,0,1,2.82,57.12,57.12,0,0,1,3,13.49c.85,8.06,1.65,12.62,2.61,15.05,1.24,3.12,2.45,12.31,2.08,15.92-.14,1.44-.09,2.6.14,2.73a27.69,27.69,0,0,0,4.52.44,26.25,26.25,0,0,1,4.36.42c.12.12,0,.52-.22.9s-1.09.73-2.41.81a5.66,5.66,0,0,0-2.36.51,3.51,3.51,0,0,1-1.82.38c-2,0-2.51.46-2.58,2.43l-.07,1.74,1.82-.06c16.13-.51,19.39-.54,19.39-.15,0,1-1.83,1.69-4.21,1.69-3.43,0-17.42,1.71-17.9,2.19s-.81,3.48-.53,3.66a13.4,13.4,0,0,0,3.27-.6,65.73,65.73,0,0,1,6.84-1.24c4.9-.6,13.57-.7,14.11-.16.84.83-.27,1.36-3.4,1.63-5,.42-6.46.74-6.46,1.41s1.78,1,5.55,1.56c.17,0,.3.34.3.7,0,.57.35.61,2.52.36,1.39-.16,3.89-.36,5.55-.43l3.31-.16c.15,0,.33-.43.4-.92.09-.65.79-1.22,2.49-2,2.31-1.11,2.55-1.13,11.17-1.33,9-.2,15.37.22,16.41,1.08,1.37,1.14.23,1.34-7.56,1.4-10.48.08-18.8,1.22-20.61,2.83a12.75,12.75,0,0,1-4.44,1c-4.18.42-11.76,1.84-12.82,2.4a19.86,19.86,0,0,1-3.65.81c-1.64.25-4.36.84-6.06,1.31s-3.84,1-4.77,1.18c-2.52.5-4.55,1.46-4.84,2.27a5.49,5.49,0,0,1-.84,1.4,6,6,0,0,0-.91,2.12c-.32,1.42-.3,1.44.94,1.44,2.71,0,9.39-1.25,11.08-2.08a4.39,4.39,0,0,1,3.86-.4c1.51.34,3.53.35,7.37.06,2.91-.23,6.91-.44,8.89-.47a28.09,28.09,0,0,0,3.89-.22c.16-.09,0-.6-.34-1.13a1.73,1.73,0,0,1-.35-1.44c.57-.91,2.87-1.5,6-1.56a159,159,0,0,0,27.14-3.51c3.2-.71,3.32-.78,3.43-1.95.14-1.4,1-1.92,4.36-2.67a11.6,11.6,0,0,0,2.64-.82c.74-.59,6.78-2.91,9.48-3.64,1.44-.39,4.74-1.36,7.32-2.16a48.32,48.32,0,0,1,11.16-2.25c1.3,0,1.14,1.13-.2,1.44-.61.14-1.89.5-2.84.81a11.45,11.45,0,0,1-2.55.56,5.49,5.49,0,0,0-2,.61,20.15,20.15,0,0,1-3.64,1.18,15.07,15.07,0,0,0-3.35,1.14,39,39,0,0,1-4.72,1.89c-2.11.73-5.29,2-7.07,2.85s-3.62,1.64-4.09,1.79a1.65,1.65,0,0,0-1.05,1c-.12.46-.84.88-2,1.16s-2.86.74-4.2,1.11-3.7.92-5.25,1.22-3.55.76-4.45,1a104.29,104.29,0,0,1-13.5,2c-2.35.23-4.77.47-5.38.55s-1.47.16-1.92.19-.81.25-.81.5.49.36,1.42.18c1.1-.21,1.47-.12,1.67.39.4,1.06-.3,1.37-3.5,1.57a61.94,61.94,0,0,0-9.28,1.19,28,28,0,0,1-3.84.46c-1.78.13-4.5.39-6.06.58a14.1,14.1,0,0,1-3.1.18c-.43-.26-14.46,2.37-17,3.19-1.62.53-2,1.21-.83,1.44s1.37.66.77,2.37a4.33,4.33,0,0,0-.4,1.84,4,4,0,0,0,1.69-.15c7.27-1.62,9.22-2.16,9.5-2.63a1.83,1.83,0,0,1,2.86-.67,3.67,3.67,0,0,0,2.85.58c1.74-.14,2-.28,2.49-1.5a4.09,4.09,0,0,1,1.36-1.78c.82-.44,1-.31,2.21,1.39.52.75.7.76,3.32.25a10.91,10.91,0,0,0,3.46-1.14,2.29,2.29,0,0,1,2.07-.35,22.68,22.68,0,0,0,5.17-.33c2.08-.32,5.42-.69,7.42-.81s4-.27,4.44-.33c1.18-.16,1,1-.2,1.39-.56.17-1.78.5-2.73.73-2,.5-2.28,1.46-.53,2.12a2.39,2.39,0,0,1,1.39,1.24c.21.82,1,.83,5.6,0,1.25-.22,1.51-.15,1.51.4s.24.61,1.11.4a8.68,8.68,0,0,0,1.41-.44.49.49,0,0,0-.26-.93c-.9,0-3.14-2.79-2.88-3.59.14-.44-.16-1-.79-1.58a3.21,3.21,0,0,1-1-1.24c0-1.29,5.43-3.11,11.61-3.91,2.83-.37,5.26-.73,5.4-.81.3-.18,6.33-1.21,14.09-2.4.56-.09,1.83-.34,2.83-.57l10-2.21a29.5,29.5,0,0,1,3.84-.65A1.84,1.84,0,0,0,188,176a1.85,1.85,0,0,1,3.14.17c.92,1.41,1.57,1.52,3.63.63,1.82-.78,1.83-.79,1.18-1.79s-.49-3.46.28-3.46a3.07,3.07,0,0,1,2.38,1.85c.43,1.13,2,1.85,4,1.86s7.76-1.39,7.62-1.87a5.79,5.79,0,0,0-2-1.34c-2.24-1.08-3.47-2.67-2.85-3.66a2.05,2.05,0,0,1,3.06-.09c.95,1.35,4,3.66,4.86,3.66a2.65,2.65,0,0,1,1.52.61c.57.51,1,.54,2.73.17a6.1,6.1,0,0,0,2.53-1c.39-.47.16-.71-1.29-1.33a5.37,5.37,0,0,1-2.33-1.82c-.61-1.15-1.29-1.27-3.79-.69-1.91.44-4.16-.13-4.73-1.2-.23-.44-.37-.8-.31-.81l4.56-1.24c2.44-.67,5.26-1.38,6.26-1.58s4-.93,6.66-1.62,6.76-1.71,9.09-2.27,7.15-1.74,10.7-2.63,7.64-1.87,9.09-2.17a37,37,0,0,0,4.82-1.4c2.91-1.13,4.07-.85,4.07,1,0,1.55.2,1.73,3,2.72,2.43.85,2.24.84,3.19.13.73-.55.71-.63-.51-2-1.38-1.57-1.72-3.69-.66-4.1a2.57,2.57,0,0,1,3.16,1.49c.25.66.7,1.19,1,1.19a4.77,4.77,0,0,1,1.7.68c.95.56,1.25.58,1.78.15.7-.58.85-1.64.24-1.64s-1.63-2.24-1.63-3.55a2.37,2.37,0,0,1,2.49-2.44c.8.12.94.37,1,1.75a6.13,6.13,0,0,0,.47,2.42,10.4,10.4,0,0,1,.73,1.62c.26.8.27.8.93-.05a17.61,17.61,0,0,0,1.08-1.54c.32-.54,1.24-.72,4.65-.86,3.65-.16,4.32-.3,4.79-1a2,2,0,0,1,3.11-.11m-18.81,13,4.9-1.18M92.91,205.36c3-.49,3.62-1.28,1.35-1.71a6.71,6.71,0,0,1-2.32-1,12.28,12.28,0,0,0-2.06-1.19c-.61-.26-1.11-.66-1.11-.89,0-.53-2.2-.53-4.14,0-1.72.48-2.91,2-1.57,2a7.24,7.24,0,0,1,2.74,1.82c1.66,1.54,2.14,1.79,3.17,1.6.67-.12,2.44-.42,3.94-.66Zm22.42-1.85c.09-.27-.13-.5-.5-.5-.84,0-2.23.73-2.23,1.18s2.54-.12,2.73-.68Zm-11.73-1.15a9.07,9.07,0,0,0-2-2.64c-2.36-2.49-2.74-2.58-6.34-1.54-2.92.85-3.14,1.3-1.24,2.55a6.48,6.48,0,0,0,2.39,1.08,5.3,5.3,0,0,1,2.12.93c1.24.83,1.54.88,3.17.46a4.16,4.16,0,0,0,1.92-.83Zm8.07-1.55c4.2-1.06,8-2.27,8.4-2.7.14-.14-.56-1.1-1.56-2.13l-1.82-1.87-1.85.46c-2.26.57-2.61,1-1.25,1.64,1.19.54,1.27.85.42,1.7-.55.55-.77.54-2.12,0a9.53,9.53,0,0,1-2.15-1.19c-.85-.75-3.54-.72-5.41.07-1.67.7-1.69.61.9,3.25a3.28,3.28,0,0,1,.91,1.35c0,.64,1.18.52,5.53-.57Zm-28.45-4c.61-.45,1.11-1,1.11-1.34a.48.48,0,0,1,.4-.53.41.41,0,0,0,.4-.4c0-.83-.87-.35-2.56,1.41-2.34,2.44-2,2.82.64.86Zm45.54-.34c3.16-.95,3.16-1,1.5-1.67a3.12,3.12,0,0,1-2-1.91c-.42-1.19-.53-1.25-2.1-1.06-2.62.32-5.12.95-5.58,1.4-.66.66.16,1.67,2.34,2.92s2.83,1.21,5.82.31Zm24.12-4.18c1.42-.29,2.71-1.39,1.63-1.39a3.69,3.69,0,0,1-1.69-1.09c-.81-.81-1-1.34-.85-2.06.23-.93.17-1-1.29-.75-4.55.68-6.58,1.25-6.58,1.86,0,2.08,1.26,3.25,3.45,3.25.54,0,1,.2,1,.45,0,.44,1.32.36,4.33-.27Zm3.75-1.39a.39.39,0,0,0-.38-.4.87.87,0,0,0-.63.4c-.14.22,0,.4.38.4s.63-.18.63-.4Zm6.27-2a60.2,60.2,0,0,0,5.85-2,31.1,31.1,0,0,1,3.84-1.39c1.47-.23,8-1.49,10.1-1.93,3-.65,3.77-1.09,4.06-2.49a5.12,5.12,0,0,1,.89-2c.42-.48.46-.71.13-.71a28.6,28.6,0,0,0-5.09,1.2,43.37,43.37,0,0,1-6.3,2c-.31,0-2.93.53-5.82,1.19s-6.61,1.49-8.28,1.85c-5.41,1.17-6.06,1.4-6.06,2.16a1.7,1.7,0,0,0,1.64,1.68,1.79,1.79,0,0,1,1.18.6c.62.75.46.76,3.85-.18Zm49.67-6.5,6.58-6.09c4.08-2.17,4-2.24-.92-1.15-.89.2-3.5.72-5.81,1.16s-4.47.91-4.8,1-2.44.49-4.69.81a66.32,66.32,0,0,0-7.62,1.61c-1.95.57-3.67,1-3.84,1s0,.18.31.4c.61.4,2.18.24,4-.41h0a46.73,46.73,0,0,1,8.85-1.19,9.91,9.91,0,0,0,3.23-.6,13.75,13.75,0,0,1,4.19-.57m-112.23-4a46.76,46.76,0,0,1,5.49-1c1.55,0,1.71-.36.76-1.69-.8-1.12-.8-1.22-.14-2s.65-.77-1.47-.54a53.4,53.4,0,0,0-5.91,1.2,36.72,36.72,0,0,1-4.52,1c-1,0-1.09.18-1.45,2.55L92.3,176l1.56-.28c.86-.15,3.55-.71,6-1.24Zm127.07-1.37c0-.22-.08-.4-.18-.4s-.29.18-.43.4-.05.4.18.4a.42.42,0,0,0,.43-.4Zm1.34-3.09c.14-.14-.53-.76-1.49-1.37a5.32,5.32,0,0,1-2.19-2.37c-.49-1.4-.67-1.44-3.49-.69-3.15.83-2.93,1.59,1,3.45,2.44,1.16,5.51,1.64,6.17,1Zm9.56-1.34c.5-.31.47-.42-.2-.66a7.14,7.14,0,0,1-3.67-4.09l-.25-1.35-2.08.26a9.36,9.36,0,0,0-3,.83c-.86.54-.88.63-.3,1.76.7,1.36,1.37,1.78,4.57,2.83,2.58.85,4,1,4.91.42Zm6.83-1a28.72,28.72,0,0,0,4.24-1.58c3.33-1.62,9.19-4.15,11.16-4.81s4.44-2,4.44-2.37c0-.14-.42-.36-.94-.49a10.28,10.28,0,0,1-2.79-1.87l-1.85-1.63-2.05.44c-3.21.69-3.19,1.59.07,2.8,1.22.45,1.71.86,1.71,1.43,0,1.82-4.93.68-7.19-1.67-.81-.84-.86-.85-2.8-.16-3.35,1.18-3.36,1.59-.12,3.38.89.49,1.68,1.23,1.75,1.63.14.69-.05.72-2.21.46a9.4,9.4,0,0,1-3.43-1.06,4.71,4.71,0,0,0-1.39-.77,2.51,2.51,0,0,1-1-.64c-.64-.58-.91-.58-3,.08A5.32,5.32,0,0,0,237,161.9a5.66,5.66,0,0,0,2.39,3.73c.88.46,1.24.93,1.24,1.64,0,1.2.75,1.27,4,.41ZM49.79,206.41c-1.77-.58-3.59-1.21-4-1.39a13.66,13.66,0,0,0-2.12-.6A9.91,9.91,0,0,1,40,202a27,27,0,0,0-4.61-3.41c-1.86-1-2.76-1.88-4.78-4.72a42.41,42.41,0,0,1-2.94-4.54,15.7,15.7,0,0,0-1.76-2.71c-1.34-1.69-1.95-3-3.17-7a13.84,13.84,0,0,0-1.59-3.43,64.12,64.12,0,0,1-7.27-13.85,22.26,22.26,0,0,0-2.62-4.85,18.21,18.21,0,0,1-3.47-7.91c-.31-1.36-.87-3.56-1.24-4.9s-.85-3.51-1.06-4.85-.76-4-1.22-5.86c-1.08-4.47-1.12-5.34-.23-5.47,1.85-.29,3.19,2.54,3.95,8.3a60,60,0,0,0,1.42,7.07c.5,1.77,1,3.91,1.17,4.74a17.11,17.11,0,0,0,3,6.5c.85.91,4.1,7.85,4.1,8.76a4.85,4.85,0,0,0,.93,1.77,34.93,34.93,0,0,1,2.27,3.87,56.56,56.56,0,0,0,2.91,5,18,18,0,0,1,2.14,4.5,44.71,44.71,0,0,0,5.88,10.54,6.73,6.73,0,0,1,1.17,1.9A8.72,8.72,0,0,0,35.45,194c1.13.85,3.28,2.55,4.76,3.78,3.34,2.76,5,3.74,7.56,4.56a46.7,46.7,0,0,0,9.53,1.88c1.81,0,3.19,1.29,2.53,2.35s-6.12,1.11-10-.16Zm-8.32-20.74c-2.33-1.54-3.68-3.39-3.52-4.79.1-.91.35-1.11,1.44-1.22s1.31,0,1.32.61c0,1.18,3.44,4.57,4.63,4.57s1.34.73.54,1.54-2.52.54-4.4-.7Zm17.59-1.05c-3-2-3.74-3.67-2.16-4.78,1.1-.77,1.79-.48,3,1.26a6.59,6.59,0,0,0,1.9,1.88,1.59,1.59,0,0,1,.94,1.47c0,1.44-1.63,1.52-3.65.17Zm98.38-18.33c-.67-1.24-.51-1.58,1.09-2.36.84-.41,1.88-.94,2.32-1.18,1-.53,5.19-1.45,11.65-2.54,5-.85,7.21-1,8.51-.45.76.3.75.33-.1,1.18s-1.35.88-3.61.89c-2.48,0-5.32.63-6,1.33a3,3,0,0,1-1.47.28c-1.32,0-3.87.77-8.24,2.49-3.44,1.35-3.61,1.37-4.15.36ZM60.9,164a9.71,9.71,0,0,0-1.52-2.67c-1.26-1.49-.88-2.5,1-2.69,1-.11,1.35.1,2.1,1.37,1.29,2.19,1.49,3.66.63,4.62-1.05,1.16-1.69,1-2.22-.63Zm-14.6-.49c-1.05-1.24-2.36-3.76-2.36-4.55s1-2,1.62-2,1.62,1.26,1.62,2.09a6.92,6.92,0,0,0,.67,2.24c1,2.05-.23,3.8-1.54,2.24Zm159.21-1.29c-.32-.6-.23-2,.13-2,0,0,1.06-.38,2.28-.83a79,79,0,0,1,11.65-3.61,26.4,26.4,0,0,0,3.63-.87c3.11-1.21,13.85-2,14.42-1.11s-.5,1.23-2.9,1.23a10.34,10.34,0,0,0-4,.74,35.36,35.36,0,0,1-5.25,1.55,74.7,74.7,0,0,0-10.64,2.85c-8.16,3.25-8.66,3.36-9.34,2.1ZM25.79,158c-1.9-2.06-2-3.3-.45-4.09,1.26-.63,1.93-.12,2.27,1.73a3.37,3.37,0,0,0,.62,1.6c.59.36.43,2.6-.19,2.6A6.72,6.72,0,0,1,25.79,158Zm55.88-1.81a8.86,8.86,0,0,1-2.32-2c-2.38-2.78-2.4-5.63,0-5.63.76,0,1,.33,1.43,1.72a8.48,8.48,0,0,0,1,2.32c.82,1,1.4,2.85,1.08,3.42-.2.35-.6.41-1.15.21Zm79.42-1a2.2,2.2,0,0,1-.35-1.51c.13-.91.24-.93,4.57-.93,4,0,4.45.07,4.58.76.19,1-.67,1.54-1.86,1.25a6.62,6.62,0,0,0-2.74.4c-2.28.77-3.57.78-4.19,0Zm48.36-3.27c-.16-.16.07-.75.5-1.3a3.68,3.68,0,0,0,.79-1.5c0-1.13,3.81-2,11.48-2.59,4.61-.36,6.7-.14,6.7.7,0,.53-2,1.21-3.48,1.17s-6.77,1.34-10.26,2.62c-2.45.9-5.29,1.34-5.74.89Zm91.6-7.88c-3.48,0-4.24.16-5.81,1a8.08,8.08,0,0,1-2.51,1,1.65,1.65,0,0,1-1.47-2.12c.23-.93,1-1.3,10.51-5.37a32.7,32.7,0,0,0,4.2-2.08,57.17,57.17,0,0,1,5-3.22c1.2-.71,3.34-2.16,4.75-3.23s2.87-2.13,3.25-2.35,1.28-.88,2-1.46l1.35-1.06-1-1.36c-.53-.75-1-1.43-1-1.51s-4.46,2.06-9.22,4.71l-6.42,3.58c-4.17,2.31-4.37,2.43-4.74,3a2.74,2.74,0,0,0-.11,1.67c.43,2-1.52,3-3.29,1.71a3,3,0,0,0-1.31-.6,18.61,18.61,0,0,0-5.1,2.37c-.11.17.43.61,1.2,1,1.58.75,1.8,1.65.57,2.31a3.61,3.61,0,0,1-4-1l-.88-.94-3.11,1.18c-1.71.65-3.47,1.34-3.91,1.54-2.2,1-4.64,2-6.47,2.63a97.2,97.2,0,0,0-8.92,3.92,17.66,17.66,0,0,1-4.75,1.41c-2.14.22-2.29.18-2.29-.63h0c0-.6.25-.86.83-.86a11.45,11.45,0,0,0,3.37-1.53,68.28,68.28,0,0,1,7.35-3.5c2.65-1.08,5-2.15,5.33-2.37a52.27,52.27,0,0,1,5.71-2.13c2.85-.95,6.8-2.39,8.76-3.2a47.73,47.73,0,0,1,8-2.8,6.59,6.59,0,0,0,2.22-1c.81-.62.91-.87.51-1.28-1-1-.5-1.55,2.29-3s3.81-2.24,2.75-2.24a120.79,120.79,0,0,0-12,4.19c-2.62,1.08-4.09,1.31-4.64.76a3,3,0,0,0-1.54-.3c-.68,0-1.32-.23-1.41-.5s.21-.5.83-.5a14.29,14.29,0,0,0,3.86-1.42c3.11-1.54,6.46-2.71,14-4.9a104.55,104.55,0,0,1,10.5-2.62,30.65,30.65,0,0,0,4.15-1.24l2.12-.83-1-1c-1.12-1-1.21-2.46-.18-3,.33-.18,2.15-.94,4-1.68,5.43-2.14,11.66-7.41,14.19-12,1.16-2.09,1.74-2.41,2.34-1.28.34.64.26,1.13-.38,2.26s-.73,1.48-.21,1.68a1.6,1.6,0,0,0,2.08-1c.14-.39.66-1.63,1.16-2.75a38.62,38.62,0,0,0,2.61-7.87c.36-1.93-.32-3.39-1.4-3a1.28,1.28,0,0,1-1.14-.43c-1-1,.36-3.43,2.15-4l1.33-.44-.1-3.23a20,20,0,0,0-.26-3.39c-.09-.09-.34.3-.55.87A2.34,2.34,0,0,1,344.07,80c-.72.23-5.61,5-7.58,7.37a13.07,13.07,0,0,1-3.12,2.13,23.15,23.15,0,0,0-3.82,2.5c-2.79,2.45-4.94,3.1-10.57,3.18-6.59.09-6.36.12-6.89-.87-.36-.68-.33-1,.15-1.47s1.86-.63,6.61-.68c5.67-.07,6.11-.13,8.31-1.2,1.86-.91,2.32-1.33,2.32-2.1,0-1.07,1.29-2.58,2.2-2.58s3.55-2,6.75-5.28c3.36-3.47,4.36-5.07,4.39-7a27,27,0,0,1,.58-3.88,28.67,28.67,0,0,0-.27-10.7,43.12,43.12,0,0,1-.5-5.84c0-2.83.08-3.55.7-4.16,1.08-1.08,2.54-.78,2.43.51a30.76,30.76,0,0,0,.67,9.59,35,35,0,0,1,.83,5.35,3.82,3.82,0,0,0,.18,1.62A9.68,9.68,0,0,0,349,65.18c1.58-1.49,2.11-3,2.49-6.86.29-3-.17-5-1.4-6.14a6.68,6.68,0,0,1-1.24-2.78C347.29,42.52,345,38.69,342,37.82c-1.28-.37-2.86,0-2.82.72a23.74,23.74,0,0,0,2.12,6c1.25,2.41,1.45,5,.45,5.81a4.17,4.17,0,0,0-1,1.46c-.49,1.28-1.22,1.16-3-.5-1.24-1.17-1.42-1.53-1-2a1.61,1.61,0,0,1,.95-.6c1.42,0,1.52-.68.43-2.9-.84-1.71-1.4-2.33-2.44-2.71-1.59-.57-3.79-3.09-3.79-4.32a2,2,0,0,1,.61-1.37,1.62,1.62,0,0,0,.6-1c0-.42-3.91-4.3-6.82-6.77a3,3,0,0,1-1.25-2.1c0-2.47,1.93-1.86,6.23,2a23.69,23.69,0,0,0,3.82,3c.78,0,1.42-1.8,1.45-4.06,0-2,.2-2.45,1.58-4.14,1.63-2,2.34-2.22,6.15-2,2.24.15,3.23-.53,4.42-3a9.4,9.4,0,0,0,1.08-4.18,6.46,6.46,0,0,1,.24-2.26,15.71,15.71,0,0,1,5.3-2.57,2.28,2.28,0,0,1,1.39.75c.9,1,3.23,1.66,6.64,1.88a37,37,0,0,1,4.59.58,7.55,7.55,0,0,0,2.58.19c.94-.25,3.46.73,4.2,1.63.52.63.47,2.48-.23,8.14-.33,2.68.21,3,2.28,1.35,1.57-1.24,1.66-1.26,2.42-.57a2.36,2.36,0,0,1,.8,1.36,8.05,8.05,0,0,0,2,2.64,8,8,0,0,1,2,2.62,5.48,5.48,0,0,0,.91,2l1.31,2c.22.35,1.13,1.72,2,3.05,1.54,2.3,1.61,2.55,1.51,5.17a11.43,11.43,0,0,1-6.1,10.06,1.87,1.87,0,0,0-1.26,2c0,1.62-1.1,6-1.64,6.55a1.64,1.64,0,0,0-.38,1,5.16,5.16,0,0,1-.59,1.76,1.92,1.92,0,0,0,1.33,3c1.71.43,2.12,3,1.06,6.55-.82,2.75-2.68,4.76-6.19,6.69a11.09,11.09,0,0,0-3.05,2.13,2.93,2.93,0,0,0,.4,1.77,4,4,0,0,1,.36,2.58c-.43,2.29-3.1,6-5.58,7.66l-2.24,1.54-3.41-.21a15.93,15.93,0,0,1-4.56-.82c-.63-.34-2.42-1.19-4-1.91-4-1.83-3.94-1.8-4.42-2.55s.09-2,1.44-2.44c.79-.29,1.43-.07,3.27,1.11a13.11,13.11,0,0,0,2.7,1.46,8.77,8.77,0,0,1,2,.85c1.33.69,2.16.82,4.44.69,3.29-.19,4.44-.87,6-3.56,1-1.79,1-1.85.37-3.69-1.39-3.92-1.05-4.51,4-7.19,2.93-1.56,4.08-2.58,5.09-4.56,1.1-2.14,1-3.71-.28-4.55-.95-.62-1.11-.62-1.74-.05s-.81.52-1.18.15c-.69-.68-.61-1.22.56-3.84,2.66-6,3-8.11,1.59-10a5.53,5.53,0,0,1-1-1.76c0-.53-2.36-2.81-5.17-5-2.4-1.85-2.82-2.54-2.09-3.42.87-1,1.8-.66,4.41,1.83a13.32,13.32,0,0,0,3.61,2.67,4.39,4.39,0,0,1,2,1.31l.9,1.06,1.46-.78a9.54,9.54,0,0,0,4.57-5.21,8.22,8.22,0,0,0,.31-4.74c-.24-1.53-.7-2.27-2.5-4.09a17.35,17.35,0,0,1-3-4.05,6.76,6.76,0,0,0-4.11-3.63c-.66-.25-2.75,1-2.75,1.68,0,.17.55.23,1.22.13,1.65-.24,2.42.46,2,1.85-.16.6-.56,1.15-.9,1.21-1.1.21-2.77-.67-2.77-1.47,0-.59-.38-.82-1.71-1a4.1,4.1,0,0,0-2.12.11,5.46,5.46,0,0,1-4.31.39c-1.29-.68-1.57-1.21-1.11-2.08s2.12-1,3.82-.32c1.47.56,2.32-.15,2-1.66a3.79,3.79,0,0,1,.4-2.36,5.92,5.92,0,0,0,.58-2.55,23.2,23.2,0,0,1,.2-3.33,5.63,5.63,0,0,0-.08-2.55c-.64-.95-4.65-1.74-9.37-1.86-4.53-.11-6.64-.42-7.48-1.08s-1.51.31-1.84,2.11c-.18,1-.45,2.26-.6,2.87-.25,1-.18,1.11,1,1.11.79,0,1.26.2,1.26.54,0,.83-1.36,1.88-2.46,1.89a3.43,3.43,0,0,0-1.73.58c-.69.53-.63.59.81.87a12.54,12.54,0,0,0,2.33.25,3.33,3.33,0,0,1,1.52.35c.61.32.67.56.32,1.21s-.78.79-3.13.69-2.71-.2-2.83-1c-.08-.55-.31-.81-.58-.64a10.85,10.85,0,0,1-3.1.2c-4.19-.12-4.63.21-6.06,4.52-.68,2-1.23,3.8-1.23,3.93s2.61.85,5.73,1.36c2.32.38,5,3.55,6,7.23a34.7,34.7,0,0,0,3.58,8.9c1.34,2,1.49,6.33.39,10.71a27.54,27.54,0,0,0-.76,3.78,4,4,0,0,1-1.29,2A3.14,3.14,0,0,1,349,69.25c-1.36-.1-1.91,0-2.24.56s-.29.81.24,1.21a5.65,5.65,0,0,1,1.53,4.08,10.45,10.45,0,0,0,.24,2.18c.23.87.28.87,1.81.26a6.06,6.06,0,0,1,5.6.65,7.43,7.43,0,0,0,2.39,1,15.13,15.13,0,0,1,3.15,1.15c1.34.67,1.74,1.09,1.66,1.71-.17,1.2-1.4,1.22-5.23.06A35.24,35.24,0,0,0,353,80.91a5.17,5.17,0,0,1-2.5-.86c-1.2-1.08-1.74-.43-1.45,1.74.38,2.84-1,14.2-1.88,15.19a1.66,1.66,0,0,0-.33.93,13.1,13.1,0,0,1-1,2.79,8.15,8.15,0,0,0-.88,2.67c.12.35,9.08,2.83,14.06,3.89,1.85.39,2.39.74,2.39,1.52,0,.49-.3.58-1.31.4-3.36-.59-10.51-1.12-10.84-.79m-.43,7.8-21.26,4.55c2.17-2,2.45-2.27,7.35-7.45,3-3.14,4.5-5.51,3.92-6.1a3.08,3.08,0,0,0-1.48-.4c-.88-.06-1.2.11-1.32.72-.22,1.11-1.46,2.42-4.32,4.54-3.36,2.49-4.12,4-1.1,2.12,1.56-1,2.11-1,2.11-.24s-2.59,3-4.39,3.76a20,20,0,0,0-4.58,2.45c-.65.56-.65.65,0,1.54.38.52.92,1,1.2,1a9.13,9.13,0,0,0,2.6-1.9Zm7.19-1.72c0-.22-.08-.4-.18-.4s-.29.18-.43.4-.06.4.18.4a.42.42,0,0,0,.43-.4ZM346,74.77c0-1-.15-1.73-.32-1.62a4.62,4.62,0,0,0-.6,3.08c.53.85.92.23.92-1.46ZM35.29,147c-1-1.61-2.41-6.92-2-7.89a2.61,2.61,0,0,1,1.21-1c.54-.25,1-.7,1-1s.54-.79,1.2-1.06c1.14-.47,1.3-.4,3.62,1.67,2.66,2.37,3,3.38,1.39,4-.9.34-1.2.24-2-.62s-2.93-2-3.29-1.66-.13,4,.4,4.62a5.43,5.43,0,0,1,.84,3.9c-.4,1-1.3.68-2.33-.9Zm210.19-.5c-1.4-1.4-.85-2.16,1.91-2.57a14.72,14.72,0,0,0,3-.84c2.13-.94,20.08-5,22.79-5.2,2.29-.15,3.85.19,3.33.71a15.87,15.87,0,0,1-2.81.82l-4.42,1.06c-1,.24-2.25.53-2.79.63a7,7,0,0,0-1.66.55c-.61.33-4.54,1.62-10.29,3.39-1.11.34-3.09,1-4.41,1.45-3,1-3.67,1-4.68,0Zm35.67.4a2.36,2.36,0,0,1-1.5-2.56c.35-.91,3.29-1.29,4.13-.54a4,4,0,0,0,1.89.74c1.44.16,1.88,1.43.78,2.23-.82.6-3.94.67-5.29.12Zm-158.05-7.2c0-.24-.27-.34-.61-.21-.88.34-1.84-.14-1.59-.79a1.51,1.51,0,0,1,1.31-.59c.6,0,1.91-.12,2.91-.23l4.19-.48c2.77-.32,3,.35.57,1.52-1.79.86-6.77,1.44-6.77.79Zm-68.8-1.61c-.94-1-1.12-1.59-1.33-4.34-.27-3.61.21-5.42,1.4-5.42.71,0,.75.26.56,3.59s-.15,3.62.67,4.06c1.36.73,2.47.12,3.33-1.85s.79-3.73-.34-7.76c-.61-2.16-.61-2.16-2-1.9-1.19.23-1.37.15-1.37-.56a2.22,2.22,0,0,1,1-1.49c1-.64,1.09-.63,2.1.12,2,1.51,3.29,4.58,3.54,8.61s-1,6.32-4,7.6c-1.7.73-2.45.59-3.65-.66Zm194.27-2c-.57-.56-.23-2,.64-2.84,1-.94,5.48-1.78,10.45-2,3.88-.15,5.36.22,5.53,1.38.14,1,0,1-3,.89a12.84,12.84,0,0,0-3.43.32c-.74.23-2.7.72-4.37,1.1a15.91,15.91,0,0,0-3.41,1,2.53,2.53,0,0,1-2.38.08Zm55.69-1.73c-.85-.94-.56-2,.53-2s2.66,1.36,2.36,2.16-2,.84-2.89-.12Zm-103.62-3a11.3,11.3,0,0,1-2-1.59,2,2,0,0,0-1.28-.66c-1.19,0-1.39-.87-.4-1.68,1.37-1.1,2.24-.92,4,.87,1,1,1.82,1.53,2.23,1.37s.76.1,1,.84a2.33,2.33,0,0,1,.18,1.46c-.41.66-2.37.34-3.82-.61Zm-36.71-.79a1.27,1.27,0,0,1,.46-2c.28-.08,2.42-.37,4.76-.63s5.51-.72,7.07-1c5.08-1,11.07-2,18.38-3,4.8-.66,13.11-2.12,14.47-2.53,1.09-.33,1.48-.27,2.12.31s.74.77.12,1.73-.63,1,.61,2.15a4.39,4.39,0,0,0,2.23,1.14c1.36,0,3.88,1.13,3.88,1.74a1.2,1.2,0,0,1-1.77,1.08,16.44,16.44,0,0,0-3.15-.6c-2.19-.24-6-2.16-6-3a2,2,0,0,0-.59-.92c-.45-.45-1-.5-2.32-.23-2.84.59-8.42,1.57-11.23,2-1.44.21-3.44.55-4.44.77s-3.63.61-5.86.88a27.54,27.54,0,0,0-4.81.88c-.86.43-7.2,1.46-11,1.78-1.92.16-2.56.07-3-.43Zm61.15-2.65c-1.57-.71-6.26-5.22-6.26-6a1.48,1.48,0,0,1,1.48-1.68c1.77,0,3.55,1.28,3.18,2.3s4.13,4.52,5,4,1.52.37,1.17,1.32c-.43,1.13-2.25,1.18-4.61.13Zm53.6-2.13c-1-1-.5-1.78,1.74-2.66,5.45-2.12,6.61-2.51,9.08-3.08l3.84-.89c2.11-.49,2.73-.56,7.37-.83,4.44-.25,4.55-.24,4.55.6s-.5,1.13-4.32,1.41a10.91,10.91,0,0,0-3,.53,12.52,12.52,0,0,1-2.55.8c-2.78.63-7,1.88-11.3,3.36-4,1.37-4.68,1.47-5.39.76ZM16.15,49.64c.07.84.31,1.47.53,1.42a.66.66,0,0,0,.35-.72m-6.34,9.49c-.06,1.44,0,1.6.82,1.5,1.08-.15,2,1.16,1.24,1.88a1.63,1.63,0,0,1-.94.47,1.63,1.63,0,0,0-1,.61,1,1,0,0,0,1.13,1.62,1.26,1.26,0,0,1,1.12.21c.41.34.68.14,1.19-.84.6-1.17.61-1.41,0-2.87-.5-1.25-.58-2.44-.39-5.52M186.86,19c5,0,5-1,6.58-4.84.74-1.8,2.8,1.13,1.95,2-.27.27-2.54.44-6,.44a34.23,34.23,0,0,0-6,.31,19.7,19.7,0,0,1-3.84.7c-1.85.22-4.28.57-5.39.78-8.08,1.52-10.62,2.06-12.62,2.7a57.85,57.85,0,0,1-9,1.77,69.66,69.66,0,0,0-10.5,2.22,43.33,43.33,0,0,1-7,1.27,26.18,26.18,0,0,0-5,.83c-1,.34-2.61.77-3.5,1s-2.71.64-4,1-3.33.84-4.44,1.06-4.2.9-6.87,1.53-5.94,1.36-7.27,1.64C100.7,34,98,34.72,92.6,36.21c-2.44.68-5.85,1.44-7.57,1.69a9.6,9.6,0,0,0-3.13.75A46.29,46.29,0,0,1,75.34,41c-8.73,2.78-8.52,2.72-12.22,3.26-1.78.25-4.41.74-5.86,1.08s-3.08.68-3.64.76c-4.55.61-15.35,3.06-15.35,3.48s1.27,1,3.06,1.28c1.55.23,5.78,1.78,6.23,2.27a13.57,13.57,0,0,0,4.14,2.44c1.78,0,3.95,3.72,3.09,5.32a1.37,1.37,0,0,1-2.39-.06c-.15-.33-.46-1-.67-1.38a5.57,5.57,0,0,0-2.56-1.52,10.54,10.54,0,0,1-3-1.54,2.94,2.94,0,0,0-1.54-.81,5.87,5.87,0,0,1-2-.71c-1.74-.93-8.6-.94-11,0-.89.34-2.67.93-4,1.31-2.77.81-5.44,3-8.8,7.27a38,38,0,0,1-2.93,3.41,1.79,1.79,0,0,0-.67,1.08,4.42,4.42,0,0,1-1,1.72C13.13,71,8.65,79.81,8.94,80.11a2.88,2.88,0,0,1-.2,1.47A35.82,35.82,0,0,0,8,85.43a14.55,14.55,0,0,1-1,3.63c-.51.94-1,2.67-1.68,6.11-.11.55-.28,1.42-.38,1.92-.23,1.12-1.4,1.2-2.34.16-.61-.68-.62-1-.1-2.93.31-1.2.86-3,1.21-4a11.71,11.71,0,0,0,.65-3,27.79,27.79,0,0,1,.84-4.44c1.39-5.4,1.39-5.45.4-5.45C5.11,77.4,27.53,53.69,26.86,54M2.33,75.31c2.12-.64,6.59-2.87,7.16-3.56,1.42-1.75-.8-2.19-3.9-.78a4.86,4.86,0,0,1-2.39.58,1.77,1.77,0,0,0-1.44.51M0,70.39a40,40,0,0,1,3.91-1.5c2.34-.71,3.48-1.65,3.13-2.58-.23-.6-.57-.67-2.19-.43a11.16,11.16,0,0,0-2.68.7M141.35,20.82a24.1,24.1,0,0,1-3,1c-.61.13-1.11.44-1.11.69,0,.46,1.36.33,5.16-.48h0M158,18.68a33.72,33.72,0,0,0,3.76-.92c.91-.36.9-.38-.4-1s-1.51-.58-4,.22c-2.9.94-3.62,1.32-3.62,1.89s.91.48,4.24-.18Zm24.84-4.84c2.28-.4,2.61-.57,2.49-1.27a2.64,2.64,0,0,0-.49-1.18c-.37-.38-4.92,1.36-6.3,2.41-.69.52-.65.56.47.53a36.53,36.53,0,0,0,3.84-.49Zm5.55-8.43c.88-.71.12-1.09-1-.51M25,122.2c-1.28-1.77-2.57-5.56-2.37-7a1.23,1.23,0,0,1,.86-1c1.15-.22,2.18,1,2.48,3,.46,3.06,1,2.89,3.36-1.08.92-1.52.92-1.54.14-2.32-1-1-5.2-1.92-6.18-1.31-1.17.73-2.35.55-2.35-.34,0-1.28,1.42-1.72,5-1.57,2.85.12,3.6.31,5.3,1.37,2.39,1.47,2.79,2.76,1.26,4s-3.11,3.85-3.11,5.26a2.9,2.9,0,0,1-.74,2c-1.24,1.12-2.38.82-3.68-1Zm209.88.85a5.42,5.42,0,0,1-4.08-2.93c-.91-2.54,1.19-3.09,4-1.07,1.69,1.21,1.86,1.25,4.48,1,3.65-.39,4.2-.64,5-2.26.88-1.86,2.43-2.08,3.67-.49.84,1.06,1.07,1.13,3.8,1.08,3.39-.05,4.7-.62,6.79-2.94,1.1-1.23,1.79-1.66,2.68-1.66,1,0,1.23.18,1.46,1.39a3.68,3.68,0,0,0,1.32,2.16c2.25,1.64-.53,3-3.06,1.46-1-.6-1.18-.59-2.69.3-2.76,1.64-10.16,2.92-11.73,2-.64-.36-3.33.32-6,1.51a11.65,11.65,0,0,1-5.58.43Zm44.45-5.28c-.39-.23-.71-.57-.71-.75,0-.66,5.16-3.08,8.89-4.16,4.69-1.36,10.4-2.2,11-1.61s-1.26,1.46-4.32,2.12a29.51,29.51,0,0,0-4.17,1.26,9.42,9.42,0,0,1-2.62.74,4.71,4.71,0,0,0-1.88.58c-3.24,1.85-5.16,2.41-6.16,1.81Zm20.9-1.9a5,5,0,0,1-.95-1.26c-.46-.81-.46-1,0-1.31.75-.47,1-.45,2.38.26s1.53,1.7.15,2.22c-1.22.46-1.08.46-1.59.08ZM2.55,111.19c-.67-.49-.72-.93-.46-4.28A13.56,13.56,0,0,1,3,102.2c1.26-1.92,1.45-1.29,1.35,4.53a8.93,8.93,0,0,0,.38,2.72c.76,2-.49,3-2.18,1.74ZM201.13,108a2.23,2.23,0,0,1-.49-1.38c0-1,.45-1.18,6.06-1.77,9-1,10.05-1,10.34-.23.41,1.06-.3,1.47-2.91,1.68a28.25,28.25,0,0,0-4.4.76c-5.71,1.6-7.72,1.82-8.6.94ZM63,106.28c-1.72-.95-3.26-2.7-3.27-3.74,0-.77.69-.62,2.34.51.82.56,1.55.84,1.62.62.19-.55-4.19-6.4-5.92-7.92s-1.55-2.41.15-2.84a2.38,2.38,0,0,1,2.14.53c1.15.85,3.24,4.32,3.27,5.45a1.37,1.37,0,0,0,.55,1,7,7,0,0,1,1.4,1.77,12.15,12.15,0,0,0,1.69,2.18c1.57,1.42.68,3.48-1.47,3.43a8.53,8.53,0,0,1-2.51-1Zm252.88-.69a1.44,1.44,0,0,1,.34-2.35c1-.53,2-.27,3.2.89.89.83.9.89.19,1.41-.92.67-3.09.7-3.73.05ZM55.61,101.54c-.45-.94-1.17-2.35-1.6-3.13a6.21,6.21,0,0,1-.78-2.12c0-.7,1.34-2.32,1.92-2.32A4.72,4.72,0,0,1,56,96.08a24.64,24.64,0,0,0,1.54,4.24c1.09,2.24,1,2.93-.27,2.93-.54,0-1.06-.55-1.62-1.71ZM326.73,101c.11-1,.42-1.19,2.15-1.68,1.11-.31,2.79-.81,3.73-1.1,1.39-.44,1.79-.44,2.14,0,.9,1.09-2.88,3.21-6.61,3.7-1.49.2-1.54.16-1.41-.91ZM269,96c-2-1.5-3.68-4.55-2.93-5.45,1-1.18,3.22-.48,3.23,1a7.07,7.07,0,0,0,1.41,2.4c1.57,2,1.61,2.1.92,2.79s-.76.64-2.64-.74ZM42.45,95.07c-4-3.4-6.66-6.3-6.52-7.24.11-.77.41-1,1.65-1.07.83-.07,1.51.05,1.51.27a37.48,37.48,0,0,0,3.43,4.67C44.41,94.05,46,96.07,46,96.18c0,.69-2.19,0-3.51-1.11Zm167.18-3.55a1.29,1.29,0,0,1,0-2.44c.66-.35,1.57-.35,3.78,0,1.93.33,3.16.36,3.67.1a3.18,3.18,0,0,1,2.09,0c2,.53,1.16,1.74-1.4,2.14-3.18.49-7.12.59-8.1.2Zm72.18-.32c-2.72-1.2-5.14-4.44-4.68-6.27.41-1.64,1.77-1.42,2.53.42a13,13,0,0,0,2.65,3.4c2,1.83,2.24,2.82.8,2.76a4.31,4.31,0,0,1-1.31-.31Zm-48.45-2.49c-1.57-1.57-.85-2.31,2.75-2.82a33.12,33.12,0,0,0,5.24-1.24c11.83-4.19,17.46-5.78,17.46-4.93,0,.53-3.78,2.52-4.79,2.52a1.81,1.81,0,0,0-1.23.56,3.83,3.83,0,0,1-1.85.82,48.19,48.19,0,0,0-6.48,2.7,37.42,37.42,0,0,1-7.38,2.81c-3,.48-2.76.51-3.7-.43Zm68.06-5.57c-3.6-3.09-4.08-6.4-.81-5.58.76.19,1.31.91,2.22,2.93a22.31,22.31,0,0,1,1.21,3c0,.6-1.78.35-2.62-.37Zm-82.34-1.33c-1.94-1.52-1-2.8,2.13-2.8a19.25,19.25,0,0,0,4.64-1,27.65,27.65,0,0,1,3.47-1,38.28,38.28,0,0,0,7.27-3.23,31.2,31.2,0,0,1,6.79-2.82c1.12,0,.33,1.14-1.4,2-1,.51-3.2,1.82-4.84,2.9a38.77,38.77,0,0,1-8.64,4.35c-8.11,2.87-7.89,2.84-9.44,1.62ZM40.43,81c-1-.42-3-3.11-3-4.11,0-1.35.5-2,1.6-2s1.16.2,1.47,1.72.61,1.82,1.69,2.3c2.57,1.13.81,3.13-1.81,2Zm272.2-1.42a11.85,11.85,0,0,1-2.94-2.29c-1.3-1.36-1.62-2-1.52-3s.3-1.24,1.41-1.35,1.38.05,2.1,1.46c.85,1.66,3,3.71,3.84,3.71,1.23,0,2.83-2.57,3.27-5.25.34-2.08.81-2.83,1.8-2.83.67,0,1.63,1.52,1.63,2.57,0,.8,1.77,2.27,2.73,2.27,2.07,0,5.37-3.13,6.54-6.2.92-2.43,3.39-1.92,3.89.8a2.05,2.05,0,0,1-.57,2.28c-.69.69-.95.75-1.45.33s-1.1-.09-3.7,2.18a24.4,24.4,0,0,1-4.15,3.1,5,5,0,0,1-4.5-1.07c-.56-.68-1.62-.82-1.62-.22a9.9,9.9,0,0,1-1.11,2.22c-1,1.69-1.23,1.83-2.73,1.82a9.05,9.05,0,0,1-2.93-.58Zm-266.92-3c-3.77-3.58-4.47-4.61-3.62-5.32s2.58.37,5.29,3.49c1.31,1.51,2.57,2.88,2.8,3,.45.31-.15,1.59-.83,1.78a18.29,18.29,0,0,1-3.64-3ZM355.5,69.51c-.52-.79-.62-1.59-.45-3.48.27-3,1-3.93,2.53-3.23,1,.47,1.05.55.8,3.2-.14,1.5-.34,3.13-.44,3.63-.26,1.24-1.6,1.17-2.44-.12Zm7,.18c-1.12-.65-1-6.73.13-8.19,1.74-2.21,2.49-1,2.16,3.54-.13,1.76,0,3,.26,3.32,1.11,1.34-.83,2.35-2.56,1.34ZM84.71,68.51A3,3,0,0,0,83,68.4,1.59,1.59,0,0,1,81,67.67c-1.77-2.3-.23-3.38,2.79-2,2.42,1.13,2.91,1.54,2.65,2.21a1.2,1.2,0,0,1-1.78.6Zm283.82-1.85c-.86-1.18-.69-2.34.56-3.93,1-1.22,1.67-1.36,2.41-.46.42.5.42.81,0,1.61a1.93,1.93,0,0,0-.12,1.9c.58,1.28.23,1.92-1,1.91a2.34,2.34,0,0,1-1.82-1Zm-276.43,0c-.64-.26-.65-1.44,0-2.08s4.18-.61,5,.16.1,1.86-1.2,1.54c-.51-.13-1,0-1.19.21-.27.45-1.64.54-2.55.17Zm9.6-2.76c-.68-.81.53-2.76,1.54-2.47.38.1,1.27.31,2,.46,1.87.38,1.62,1.23-.58,2s-2.33.79-3,0ZM72.61,60.18c-2.22-.72-4.44-2-4.43-2.54s.12-.49.6.14.61.75,1.39,0c.56-.5,1-.61,1.32-.33a10.09,10.09,0,0,0,2.43.92c1.42.38,1.92.72,1.92,1.28s-.29.75-1.31.72a9.22,9.22,0,0,1-1.92-.23ZM71.4,58.65c0-.1-.18-.29-.4-.43s-.41-.06-.41.18a.42.42,0,0,0,.41.43c.22,0,.4-.08.4-.18Zm249,.36c-1.41-.69-2.72-2.64-2.38-3.54.5-1.31,1.93-1.12,3.41.44a13.58,13.58,0,0,0,2.15,1.91c1.05.59.45,1.82-.89,1.81a6.45,6.45,0,0,1-2.3-.62ZM82.31,56.79c-4.83-1.12-6-1.75-5.52-3,.33-.86,2.12-.79,4.11.17a9.09,9.09,0,0,0,2.06.79,3,3,0,0,1,1.78,2c0,.52-.35.53-2.42.05ZM89,53.67c-2.23-.36-4.25-1.42-4.48-2.33a2.25,2.25,0,0,1,0-1.38c.41-.66,2.05-.5,3.52.34a11,11,0,0,0,2.94,1A10.21,10.21,0,0,1,93.3,52c.82.44,1,1.54.21,1.61a27.8,27.8,0,0,1-4.55.06Zm241.66,0c-1.44-.22-4.78-3.36-4.78-4.49,0-.74.23-.88,1.44-.88A3.39,3.39,0,0,1,330,49.63a25.7,25.7,0,0,0,2.5,2.21c1.18.87,1.19.91.43,1.52a2.3,2.3,0,0,1-1,.55c-.12,0-.71-.13-1.31-.22ZM98.86,51.92c-3-.36-5.17-1.37-5.74-2.61-.39-.86-.34-1.14.4-1.88l.87-.87,1.74,1.25a15.9,15.9,0,0,0,4.05,1.92c1.71.5,2.31.86,2.31,1.4,0,.94-.87,1.13-3.64.79ZM364,51.37c-1.29-1.29-1.29-2.24,0-2.24a2.68,2.68,0,0,1,2.24,2.51c0,1-1.08.89-2.24-.27ZM107.07,48.11c-3-1.4-4-2.47-3.55-3.84s2-1,3.94.76a15.48,15.48,0,0,0,2.92,2.12,2.25,2.25,0,0,1,1.34,1.47c.19,1.29-1.08,1.15-4.64-.52ZM257.9,46c-1.38-.23-1.41-.92-.11-2.14l1-.94,9.2.23c5.06.13,10.56.08,12.22-.1,2.23-.25,3.28-.2,4,.18.94.49.95.54.21.93a12.44,12.44,0,0,1-3.24.62,30.15,30.15,0,0,0-4.12.66,51.66,51.66,0,0,1-8.65.36c-3.84,0-7.53,0-8.2.15a8,8,0,0,1-2.32,0Zm-144.57-.4c-.81-.21-1.37-1.67-.84-2.2a10,10,0,0,1,3.78-.06c3,.28,3.42.4,3.53,1.16s-.14.88-2,1.11a11.27,11.27,0,0,1-4.44,0ZM126.14,44c-1-1-.62-2.35.8-2.49,1.78-.17,5.66.91,5.66,1.58,0,1.32-5.3,2.07-6.46.91Zm231.06-4.28c-1.22-1.85.16-3.18,2.19-2.13a5.3,5.3,0,0,0,1.78.61c.76,0,1.62,1.46,1.05,1.81a10.32,10.32,0,0,1-2.38.48c-1.8.21-2,.14-2.64-.77ZM325.59,38c-1.92-2.12-2.12-2.22-4-2.23a10.89,10.89,0,0,1-3.78-.82,8.92,8.92,0,0,0-4.56-.7c-2.11.08-2.86,0-3.16-.5-1-1.65.07-2.22,3.17-1.63a5.15,5.15,0,0,0,3.1-.06c.84-.38,1.23-.3,2.52.54,1.7,1.11,5,2.16,5.87,1.84s3.12.81,3.12,1.64a2.47,2.47,0,0,0,.81,1.5c1,.92,1,1.67,0,2.21a4.54,4.54,0,0,1-.94.42A22.51,22.51,0,0,1,325.59,38ZM89.72,28a12.52,12.52,0,0,0,3.78-.5L97,26.71M70.79,33.6m2,2.51a42.67,42.67,0,0,1-5.66,1.74c-2.44.61-4.72,1.23-5.06,1.36A1.14,1.14,0,0,1,61,39h0a2.28,2.28,0,0,1-.49-1.41m22-4.21,20.38-6a7.36,7.36,0,0,0-2.28.46l-1.94.78a70.23,70.23,0,0,1-7.37,2,6.42,6.42,0,0,0-2.34.83m276,7.75c-1.32-.2-2.54-1.49-2.22-2.33.39-1,1.93-1.39,3.17-.77a6.45,6.45,0,0,0,2.42.56c1.88,0,2.65.55,2,1.37a7.25,7.25,0,0,1-3.87,1.39L365,39.15Zm-68-4.77c-1.41-1.41-1.13-2.43.64-2.35s3,1.53,2.39,2.64-1.84.89-3-.3Zm6.17-.8c-.9-.9-.84-1.27.24-1.57,2.32-.62,4.34-.16,4.34,1,0,.56-.3.77-1.11.77a9.23,9.23,0,0,0-2,.23,1.62,1.62,0,0,1-1.52-.44Zm44.85-.93c-.88-1-.86-1.42.11-2.29,1.35-1.22,5,.29,4.78,2-.1.71-.44.87-2.16,1s-2.2-.05-2.73-.64Zm-29.08-10.6c-1-.92-1.79-1.84-1.67-2s-1.09-1.76-2.72-3.44c-2.93-3-7.32-5.81-9.18-5.81a1.36,1.36,0,0,1-1-.4,3,3,0,0,0-1.84-.4c-2.39,0-2.09-1,.45-1.58,4.76-1,6.2-.48,12.38,4.67,2.71,2.26,4,3.65,4.63,5a12.52,12.52,0,0,0,2.25,3.16c1.6,1.53,1.56,2.27-.14,2.44-.93.09-1.63-.26-3.1-1.55Zm-5.33-1.63a6.19,6.19,0,0,0-3.25-.78,6.13,6.13,0,0,1-2.81-.56,3.3,3.3,0,0,0-2.23-.36c-2.35.31-6.05-2-6.05-3.77,0-.59,2.13-1.49,3.1-1.3.46.09.79.56.87,1.27.15,1.28,2.3,2.87,3.31,2.45a6.91,6.91,0,0,1,5.9.12c2.4,1,4.74,2.82,4.36,3.43s-1.91.33-3.19-.49Zm-44.25-3.61c-2.24-.62-2.8-1.16-2.65-2.53.19-1.75,1-1.81,3-.21,2.37,1.9,2.18,3.43-.34,2.74Zm16.66-1c-2.26-1.19-3-2-2.68-2.79s2-.85,2.71.13a3.36,3.36,0,0,0,1.85,1.06c1.56.31,1.84.7,1.27,1.76s-1,1-3.16-.16Zm6.14.4c-1.66-.72-2-1.77-1-2.8.8-.8.81-.8,2.43.33a14.61,14.61,0,0,1,2.08,1.67c1.09,1.32-1.14,1.83-3.5.81Zm-14.9-1.44a1.25,1.25,0,0,0-1-.4c-1.15,0-2.31-1.52-1.8-2.35.64-1,1.63-1,2.45-.07a7.38,7.38,0,0,0,1.84,1.45c1.5.79,1.46,1.77-.08,1.77a2.08,2.08,0,0,1-1.44-.4ZM197.72,13c-.61-.22-1.11-.55-1.11-.73s0-.44,0-.58c0-.52,4.72-2.17,6.28-2.17,2.16,0,8.53-1.35,12.52-2.64,2.63-.85,4.51-1.12,10.1-1.42C234.42,5,235.88,4.84,239,4.11a73.3,73.3,0,0,1,8.68-1c6.37-.42,12.11-1,12.66-1.39a45.61,45.61,0,0,1,5.55-.43C271.59,1,273.38.84,276.23.21a6.87,6.87,0,0,1,3.63.07,33,33,0,0,0,5.81.59c5,.12,10,.9,12.11,1.89,2.86,1.34,4.8,2.68,5.13,3.55.5,1.36-.69,1.46-3.24.28a32.92,32.92,0,0,0-12.18-2.92c-2.33-.13-4.79-.21-5.45-.16a50.22,50.22,0,0,1-5.35,0,13,13,0,0,0-3.43.36,52.71,52.71,0,0,1-7.58.63,50,50,0,0,0-8.68.86,44.81,44.81,0,0,1-8.48.81,48.46,48.46,0,0,0-12.11,1.41,59.47,59.47,0,0,1-10,1,51.09,51.09,0,0,0-12.24,1.83c-2.44.62-6,1.35-7.88,1.63s-4.34.72-5.45,1a5.46,5.46,0,0,1-3.13.07Z"/></g></g></svg>