<svg id="Calque_1" data-name="Calque 1" xmlns="http://www.w3.org/2000/svg" viewBox="0 0 121.3 48.22"><defs><style>.cls-1{fill:#f4f4f4;}.cls-2{fill:#62250e;}</style></defs><title>breast_v2</title><g id="Ebene_2" data-name="Ebene 2"><g id="Ebene_5" data-name="Ebene 5"><path class="cls-1" d="M71.86,41.9s15,3,26-1,28-13,19-18-49-20-58-20-45,28-48,29-11,7-3,10S71.86,41.9,71.86,41.9Z" transform="translate(0 -0.02)"/></g><g id="_1" data-name=" 1"><path class="cls-2" d="M4.12,32.34a56.73,56.73,0,0,1,8.25-5.85c1.42-.92,2.85-1.82,4.25-2.76,2.12-1.43,4.12-3,6.19-4.51,2.71-2,5.62-3.59,8.27-5.62a67.66,67.66,0,0,1,6.66-5,73.6,73.6,0,0,1,9.84-4.53c1.79-.72,3.84-.67,5.75-.89,2.09-.24,4.18-.51,6.27-.79C63.77,1.87,67.94,1.26,72.13.8c9.3-1,18.79-1.35,28,.87l-1.57.17c2.71-.3,5.45.77,7.81,2a41.76,41.76,0,0,1,7.2,4.94c4.22,3.51,8.33,8.2,7.72,14.09-.67,6.52-6.56,10.8-11.77,13.87a77,77,0,0,1-19,8.21c-13.79,3.72-28.16,3.58-42.32,2.93-7.85-.36-15.66-1-23.48-1.72-3.24-.3-6.52-.25-9.77-.51C11.12,45.36,7,45,3.61,43.25.75,41.82-1.23,38.76.88,35.78a23.89,23.89,0,0,1,3.23-3.44Zm95-3.12c-.18.13-.38.22-.42.47.26-.06.53-.18.4-.49.39.14,1-.58,1.31-.78A12,12,0,0,0,102,27.17,6.16,6.16,0,0,1,103.11,26a13.53,13.53,0,0,0,1.53-1.18,12.49,12.49,0,0,0,2.69-2.74c.71-1.14,1.36-2.36,2-3.55a27.37,27.37,0,0,0,1.67-3.8c.12-.35.27-1.59.62-1.8.69-.41.26.74.18,1-.22.58-.28,1.18-.54,1.75l-.82,1.84a22.52,22.52,0,0,1-2.11,3.93c.94-.16,1.65-1.23,2.25-1.94a10.53,10.53,0,0,0,1.44-3.7q.28-.95.51-1.89a8.63,8.63,0,0,1,.2-.88c.08-.22.29-.41.34-.63.12-.57-.32-.51-.7-.57s-.73-.4-1.15-.42c-1-.05-1.24,1.71-1.46,2.45a17.47,17.47,0,0,1-1.47,3.52A43.86,43.86,0,0,1,104,23.72c-.87,1.06-1.69,2.17-2.64,3.16A7.45,7.45,0,0,0,100,28.23c0,.1-.08.21-.12.31a1,1,0,0,0,0,.34H99.7a3.74,3.74,0,0,1-.53.35c-.25.11.15-.12-.09,0ZM13,35.14a11.07,11.07,0,0,0-1.45-2.63C10.46,34,11.74,34.62,13,35.14Zm93.82-3c.51.17.92-.7,1.19-1s.82-.91,1.21-1.37a12.09,12.09,0,0,0,1-1.52c.16-.26,1.15-1.53,1-1.66-.35-.25-2.17,2.45-2.41,2.81L107.78,31c-.18.26-.37.52-.56.77s-.55.49-.56.7c0,0,.35,0,.2-.29.21.08.07.16,0,0Zm-3.64.08a8.36,8.36,0,0,0,2.26-1.75,17.5,17.5,0,0,1,2.11-1.5c.68-.58,1.43-1.12,2.09-1.73a10.08,10.08,0,0,0,1.61-2.74,29.45,29.45,0,0,0,2.6-6.05c.54-1.9,1.06-4-.38-5.63a6.68,6.68,0,0,0-.81,2.5,7,7,0,0,0-.67,2.45c.43-.17.57-.52.85-.83a1.74,1.74,0,0,1,1.1-.57c-.92,1.32-2,2.46-3,3.73a40.24,40.24,0,0,0-2.6,4.44,47.5,47.5,0,0,1-3,4.41c-.51.67-1,1.33-1.59,2-.27.43-.81.9-.61,1.3Zm-10,1.4A53.26,53.26,0,0,0,98.34,29a54.33,54.33,0,0,0,4.87-5.08,63.65,63.65,0,0,0,4-5.53,16,16,0,0,0,1.54-3,6.61,6.61,0,0,0,.85-3.07c-.37,0-2.94-2.59-3.62-3.14a3.42,3.42,0,0,0-1.22-.26l-1.61-.31a13.19,13.19,0,0,0-2.86-.5c-.75.09-6.86-1.94-6.48-2.45a13.57,13.57,0,0,0-4.26-.35c-1.47,0-2.93.05-4.39.14C84,5.6,76,5.49,76,5.49a21,21,0,0,0-3.45.34L69,6.23a23.62,23.62,0,0,0-3.44.62,18.72,18.72,0,0,0-3.21,1.41,33.64,33.64,0,0,0-3,1.66c-.93.6-13.1,1.86-14.15,2.28s-2.26.71-3.38,1.08c-2.07.7-4.09,1.47-6.13,2.21a41.57,41.57,0,0,0-5.94,2.66,64.42,64.42,0,0,0-5.49,3.64c-1.8,1.26-3.75,2.4-5.63,3.6a23,23,0,0,0-4.43,3.92c-.66.72-1.86,1.62-1.72,2.7a6,6,0,0,0,.89,2.3c1.18,1.85,3.18,2.23,5.19,2.63,2.56.51,5.14.88,7.72,1.25,1.24.18,2.48.35,3.73.49.48,0,3,0,3,.63a105.72,105.72,0,0,1-15.86-2c.24.53.89.68,1.1,1.23a11,11,0,0,1-2.85-1.51c-1.14-.61-2.4-1.08-3.54-1.59.07.72.44.93,1,1.21s1.25.78,1.94,1.07a31.47,31.47,0,0,0,4.75,1.29,37,37,0,0,0,5,.82c1.77.19,3.5.21,5.28.31a5.06,5.06,0,0,1-2.24.4,24.69,24.69,0,0,1-3.33-.07c-2.78-.22-5.49-.94-8.25-1.34,1.06.4,2,1.06,3.06,1.43a4.57,4.57,0,0,0,1.55.28c.33,0,1.07-.29,1.38,0s-.18.38,0,.74,1.71.42,2,.42a15.78,15.78,0,0,0,4-.3l4.19-.7,2.22-.38c.23,0,1.47-.42,1.62-.15s-.94.62-1.26.72a15.18,15.18,0,0,1-2,.44,38.57,38.57,0,0,0-4,.74,2.28,2.28,0,0,0,1.48.14,12,12,0,0,0,2-.18c1.26-.19,2.53-.42,3.78-.65s2.47-.59,3.73-.8l1.81-.28c.46-.07,1.07-.29,1.51,0-1.52,1-3.72,1.07-5.48,1.38-1.92.34-3.76,1.11-5.72,1.19-.51,0-2,0-2.34.42-.64.85,1.4.33,1.6.29a13.12,13.12,0,0,1,2.42-.22c.92,0,1.54-.56,2.42-.66a43.72,43.72,0,0,0,5.89-1.13c1.93-.5,3.8-1.25,5.73-1.73.51-.12,1-.23,1.53-.33a4.9,4.9,0,0,1,1.26-.22c1.14.15-.74.85-1.07.95-.91.26-1.85.38-2.76.66l-3,.9a30.45,30.45,0,0,1-3.13.78,18.83,18.83,0,0,1-2.55.69,23.64,23.64,0,0,0-3.24.47c-.92.18-2.24,0-3,.59,1.4.17,2.8,0,4.2.19a14.17,14.17,0,0,0,4.39-.57,80,80,0,0,0,8.66-2.16c1.5-.51,3-1,4.52-1.47.71-.21,1.42-.41,2.14-.59a9.33,9.33,0,0,1,2.34-.46c.27,0,.51,0,.26.34s-.67.31-.91.4a18.47,18.47,0,0,1-2.05.6c-1.46.36-2.88.8-4.31,1.27-1.67.56-3.34,1.13-5,1.57a47.53,47.53,0,0,0-5,1.27,15.61,15.61,0,0,0,6.2-.35c2.18-.48,4.36-.94,6.53-1.43a53,53,0,0,0,5.66-1.63l3-1c1-.34,1.87-.92,2.86-.47a73.34,73.34,0,0,1-14,4.46c.48.43,1,.2,1.53.08.82-.18,1.64-.31,2.47-.44,1.55-.25,3.08-.51,4.6-.86a66.3,66.3,0,0,0,8.82-2.66,18.8,18.8,0,0,1,4-1.28c.29,0,.87.06.53.49-.11.14-.46.16-.61.21-.41.13-.81.29-1.22.44-3,1.08-6,2.25-9.06,3.06-3.41.9-6.92,1.3-10.34,2.18.76.08,1.51.09,2.27.1s1.42.21,2.11.19,1.19-.4,1.84-.43,1.4.06,2.1,0a21.16,21.16,0,0,0,4.17-.79c.16,0,.68-.21.78-.4s-.12-.38-.08-.6c.08-.48.79-.44,1.19-.51a44.21,44.21,0,0,0,8.51-2.58c1.31-.58,2.74-1.15,4.11-1.8s2.48-1.39,3.76-2a34.43,34.43,0,0,0,4-2.29c.73-.48,1.44-1,2.15-1.48.51-.37,1.14-1.14,1.79-.65A40.4,40.4,0,0,1,84.11,37c-2.23,1.33-4.44,2.69-6.79,3.8a76,76,0,0,1-15.47,5.25,23.88,23.88,0,0,0,4.63.22,6.54,6.54,0,0,0,4-1.12c-.53,0-1,.12-1.51.16s-.65-.31-.17-.55a9.09,9.09,0,0,1,1.78-.37c.69-.16,1.38-.33,2.06-.51A44.21,44.21,0,0,0,80.18,41a40.64,40.64,0,0,0,6.64-4c1.07-.78,2.16-1.5,3.29-2.21a17.84,17.84,0,0,0,1.62-1.11c.28-.22.8-.89,1.14-.43-1.22.33-.14,1.4.32.36,1.11-.76,0,.07,0,0ZM53.63,8.51a8.78,8.78,0,0,0-3.08,1c-.22.16-.36.43-.67.3a.4.4,0,0,1-.2-.52c.17-.41,1.14-.47,1.5-.59.57-.19,1.13-.43,1.72-.57a15.81,15.81,0,0,0,1.91-.4,3,3,0,0,0,1.25-.67c.25-.34,0-.77-.48-.69a15.63,15.63,0,0,0-1.5.52L52,7.52c-1.34.43-2.69.86-4,1.33-2.63.92-5.28,1.83-7.86,2.91-1.5.63-3,1.34-4.43,2.06-.71.35-1.42.71-2.12,1.09-.49.27-1.26.54-1.43,1.14a5.06,5.06,0,0,0,2.08-.54l3-1.2c1.83-.73,3.72-1.25,5.53-2s3.69-1.17,5.5-1.72,3.9-.71,5.43-2.09C52.47,8.81,52.82,9.24,53.63,8.51ZM92.74,38.67a3.23,3.23,0,0,0,1.7-.69c.79-.46,1.57-.95,2.35-1.43a18.42,18.42,0,0,0,3.69-2.88,59.7,59.7,0,0,0,6.14-7.51l1.29-1.94c.21-.33,1.22-1.51,1-1.94s-1,.57-1.19.77a15,15,0,0,0-1.6,1.69,71.34,71.34,0,0,1-6.64,7.58l-2.07,2a8.14,8.14,0,0,0-.89.87c-.29.4,0,.36,0,.76s-1.17.76-1.47.94a13.88,13.88,0,0,0-2.29,1.75C93.24,38.7,93.82,37.65,92.74,38.67ZM103.62,26.6c-5.25,4.69-11.19,8.52-16.61,13,1.67-.62,3.28-1.42,4.93-2.09a7.74,7.74,0,0,0,2.14-1c.74-.61,1.42-1.3,2.13-2,1.35-1.26,2.69-2.54,4-3.85.68-.69,1.32-1.41,2-2.13.37-.42,1.62-1.4,1.48-1.94C98.37,31.29,103.66,26.73,103.62,26.6ZM96.1,39.24a15.77,15.77,0,0,0,3.49-1.73,22.38,22.38,0,0,0,3.24-2.22,19,19,0,0,0,2.68-2.92,9.28,9.28,0,0,1,1.3-1.43,1.72,1.72,0,0,0,.83-1.31c-3.9,3.15-8.27,5.76-11.55,9.61C97.18,38.94,99.45,35.28,96.1,39.24ZM56.85,5.12C53.41,5.94,50,6.7,46.6,7.82c-1.64.54-3.29,1.09-4.89,1.73a16.67,16.67,0,0,0-4,2.47C44,9.4,50.44,7.34,56.85,5.12,54.69,5.63,50.42,7.35,56.85,5.12ZM91.5,38.51c-2.22,1-4.46,1.92-6.66,2.94-1,.44-1.88,1-2.86,1.35a12.18,12.18,0,0,0-2.91,1.45A2.5,2.5,0,0,0,80.59,44c.59-.17,1.18-.36,1.77-.56,1.17-.4,2.33-.84,3.47-1.32C88,41.23,90,40.36,91.5,38.51,90.12,39.11,90.63,39.59,91.5,38.51ZM68.17,5.77c1,.31,2.45-.18,3.49-.34l1.75-.26c.49-.08.54-.15.8-.54s.32-.34.8-.37l1.8-.11c1-.05,1.76-.1,2.29-1.09-3.76.38-7.64.65-10.93,2.7C68.58,5.89,71.57,3.65,68.17,5.77ZM17.8,40.85a7.57,7.57,0,0,0-1.91-1,19.58,19.58,0,0,1-2-1.24c-.36-.25-.84-.7-1.32-.68a2.15,2.15,0,0,0-1.25.81c-.27.74,2.06,1.79,2.67,2a7,7,0,0,0,3.83.14C17.51,40.57,15.14,41.44,17.8,40.85Zm68.71-2c-4,2-8,3.85-12,5.79.71.19,1.08-.18,1.76-.35a6.12,6.12,0,0,0,1.46-.36A9,9,0,0,1,79,43.17l1.57-.64A26.37,26.37,0,0,0,83.9,40.7a15.55,15.55,0,0,0,2.65-1.85c-4.16,2-.36.29,0,0ZM57.22,4a23.31,23.31,0,0,0-6.65,1.37c-1,.31-1.92.89-2.91,1.19A9.43,9.43,0,0,0,44.6,7.77c.42.22,1.14-.28,1.53-.44S47,7,47.5,6.81c1.16-.36,2.37-.58,3.54-.87s2.29-.6,3.43-.91c.78-.22,2.26-.32,2.74-1.08C57.08,4,56.88,4.48,57.22,4Zm30,39A12.61,12.61,0,0,0,92,41.11a11.76,11.76,0,0,0,3.86-3.18c-1.49.86-3,1.63-4.58,2.4a32.82,32.82,0,0,0-4,2.67c2.74-.34,1.09-.82,0,0Zm27.33-29.23a8,8,0,0,1,.2,2.8c-.2,1-.51,2-.81,3a22.87,22.87,0,0,1-1,2.81A10,10,0,0,0,111.8,25c.93,0,1.53-1.45,1.89-2.14a10,10,0,0,0,.91-2.93,19.72,19.72,0,0,0,.58-3.32c0-1,.14-2.12-.6-2.85.06.24.57.52,0,0Zm-13.4-6.24a19.35,19.35,0,0,0,3.68.81c.47.08,3.07,1,3.1-.11,0-.7-2.56-1.21-3.18-1.27a8.05,8.05,0,0,0-3.6.57C103,8.17,103.49,6.57,101.15,7.48ZM86.33,4.18a17.44,17.44,0,0,0,4.08.21,20.78,20.78,0,0,0,4.17-.18,24.38,24.38,0,0,0-4.48-.75c-1.4-.15-2.82-.64-3.76.72C87.41,4.44,86.84,3.43,86.33,4.18ZM16.83,43.09A7,7,0,0,0,11.73,42a5.48,5.48,0,0,0,1.13.64c.4.19.81.5,1.22.65a7.08,7.08,0,0,0,2.75-.16C15.22,42.07,16,43.17,16.83,43.09ZM10,37.54c-.34.12-.9-.42-.91.22,0,.4.63.81.9.53.1-.1,0-.28.14-.38s.34.2.56.3c.4.17.78-.11,1.1-.34.52-.37.49-.49,0-.87A6.91,6.91,0,0,0,10,35.93c-.41-.11-.71.14-.72.61s.65.4.68,1C9.72,37.63,10,37.29,10,37.54Zm67,8c-.62-1-1.55-.27-2.44-.35a4.37,4.37,0,0,0-1.53.05,5.8,5.8,0,0,0-1.46.42c-.38.24-.34.4.06.47A7.82,7.82,0,0,0,73.45,46a18,18,0,0,0,3.5-.46c-.33-.54-1,.3,0,0ZM95.78,3.45c-.06-.34-1.37-.49-1.63-.55-.67-.15-1.33-.27-2-.38-1.2-.2-2.37-.57-3.35.36l3.65.45c.51.06,3.06.66,3.28.12C95.76,3.29,95.72,3.6,95.78,3.45Zm19.56,16.24a8,8,0,0,0,1-3c.09-.72.29-1.87-.48-2.3a50.29,50.29,0,0,1-.5,5.33c.77-1.42.43-1.88,0,0ZM17.14,41.84c1.55,1,3.85,1.29,4.71.56C20.25,42.3,18.81,41.47,17.14,41.84Zm-4.54-.71c-.37-.31-2.89-2.29-3-.92s2.19,1,3,.92C11.86,40.5,11.86,41.16,12.6,41.13ZM29,44.19a5.47,5.47,0,0,0-4.22.2A9.13,9.13,0,0,0,29,44.19ZM11.34,31c-.38.33-2.56,1.79-1.75,2.51.57.51,1.63-2.17,1.75-2.51C10.82,31.47,11,31.91,11.34,31ZM25.48,43.25a3.66,3.66,0,0,0-3,.18A5.47,5.47,0,0,0,25.48,43.25ZM47,45.4a3,3,0,0,0,1.86.25c.45-.08.5-.31.66-.74L47,45.4C47.57,45.72,47.84,45.24,47,45.4ZM92.59,1.91c.69-.08,1.58.77,2.68.51C94.58,1.73,94.13,1.67,92.59,1.91Zm-84.4,35c.31-.25,1.17-1.46.65-1.8-.83-.54-.65,1.52-.65,1.8C8.62,36.58,8.19,36.47,8.19,36.93Zm85.3,4.75c.34,0,2.28-.54,2.09-.91-.28-.55-1.88.6-2.09.91C94.08,41.7,93.83,41.16,93.49,41.68Zm-13,3.15c1.56,0,1.56,0,2-.5C81.69,44.14,81.12,44.61,80.48,44.83ZM11.79,29.58l-.06-.11c-.21.14-1.93,1.07-1.51,1.42s1.35-1.09,1.57-1.32C11.77,29.55,11.38,30,11.79,29.58ZM85.23,43.11l-1.84.63C84.49,43.83,84.55,43.81,85.23,43.11ZM9.16,34.49c.27,0,.44-.35.2-.5a.27.27,0,0,0-.36.12.28.28,0,0,0,.12.37h0C9.31,34.49,9,34.44,9.16,34.49ZM78,1.53c0,.17.47.32.58.13.21-.35-.46-.24-.58-.13S78.16,1.36,78,1.53ZM92.31,34.22c.16-.28-.38-.21-.48,0-.23.39.33.4.48,0C92.39,34.07,92.22,34.43,92.31,34.22ZM86,25.27" transform="translate(0 -0.02)"/></g></g></svg>