<svg xmlns="http://www.w3.org/2000/svg" viewBox="0 0 96.54 50.49"><defs><style>.cls-1{fill:#f4f4f4;}.cls-2{fill:#62250e;}</style></defs><title>Element 5</title><g id="Ebene_2" data-name="Ebene 2"><g id="Ebene_5" data-name="Ebene 5"><path class="cls-1" d="M21.06,2.32c4.53-3.93,11,4,9,9s-10,17-14,17-17,5-13-2S6.06,15.32,21.06,2.32Z"/><path class="cls-1" d="M62.06,17.32c0,12,11,1,20,5s11,8,9,10-14,19-28,12-14-19-14-19S62.06,16.32,62.06,17.32Z"/></g><g id="_1" data-name="1"><path class="cls-2" d="M71.56,20.1a5.5,5.5,0,0,0-1.4,1.3c-.14.2-.61,1.31-.88.64-.09-.21.13-.45.21-.63s0-.63.1-.83.33-.2.58-.29a1.63,1.63,0,0,0,.75-.56c-.94-.24-1.47.27-2.07.85a13.12,13.12,0,0,0-1.57,1.3c-.18.24-1.16,1.89-1.29.92-.1-.72,1.59-1.48,1.38-2.06s-1.78.8-2,1a6.27,6.27,0,0,0-1.64,2.15c-.09.22-.3.75-.61.33-.19-.27.11-.79.24-1a9.87,9.87,0,0,1,.76-1.07c.29-.37.49-.57-.06-.75.1-.34.54-.15.72-.41-.32-.34-.66,0-1,0s-.12-.28-.37-.52c-.44-.41-2.24.64-2.69.82-.22.08-.83.38-.7-.15.06-.26.89-.7,1.1-.83.65-.39,1.72-.19,2.17-.83-.33-.27-.59.14-.93.06,0-.38,1.12-1,1.37-.66.11.16-.13.41,0,.55s.79-.2.93-.26a8.75,8.75,0,0,1,2.08-.55,2.78,2.78,0,0,1,1.05-.13c.23.08.46.31.7.41-.91.75-2.37.45-3.29,1.12-.34.25-.29.54.2.6a3.52,3.52,0,0,0,1.45-.48c.23-.1.45-.24.68-.34a1.41,1.41,0,0,1,.78-.12,1.91,1.91,0,0,0,1.2-.49c.29-.22.31-.59.56-.6s.47.27.66.32a2.91,2.91,0,0,0,1,0c-.11.42-.51.76-.16,1.19C70.82,20.6,71.19,19.64,71.56,20.1Z"/><path class="cls-2" d="M60.58,23.91a3.18,3.18,0,0,0-1.31,1.2c-.18.28-.6,1.63-1,1.51-.68-.23.38-1.14.39-1.43,0-.78-.61.25-.83.31a3.5,3.5,0,0,1,1.25-3.16,1.68,1.68,0,0,1,.74-.37c.21,0,.39.1.62,0,.48-.11.75-.58,1.24-.65.06.35-.53.78-.68,1.08-.28.55.19,1-.27,1.52C60.56,23.77,60.67,23.95,60.58,23.91Z"/><path class="cls-2" d="M57.85,23.62c-.21-.55-.67,0-1.05,0,0-.31.56-.62.72-.9s.39-.82.89-.8.1.36-.08.62-.06.9-.48,1.05C57.77,23.42,58.07,23.54,57.85,23.62Z"/><path class="cls-2" d="M55.5,24.12c.51,0-.24,1.39-.71,1.15s.35-1.12.71-1.15C55.61,24.13,55.25,24.14,55.5,24.12Z"/><path class="cls-2" d="M71.21,17.29c.13,0,1.14-.23.89.21s-.74,0-.89-.21C71.49,17.22,71.44,17.64,71.21,17.29Z"/><path class="cls-2" d="M61.41,19c-.18.48-.6.4-1,.41C60.61,18.88,61,18.86,61.41,19Z"/><path class="cls-2" d="M61.42,19.27c-.15-.2.19-.66.42-.43s-.2.51-.42.43S61.54,19.31,61.42,19.27Z"/><path class="cls-2" d="M69.62,18.62a.41.41,0,0,1-.5.13C69.24,18.53,69.42,18.54,69.62,18.62Z"/><path class="cls-2" d="M60.54,24.2a.31.31,0,0,1,0-.29c.24-.08.25.25,0,.29C60.5,24.1,60.68,24.18,60.54,24.2Z"/><path class="cls-2" d="M56.81,25.17a.27.27,0,0,1,.24-.22C57.06,25.12,57,25.17,56.81,25.17Z"/><path class="cls-2" d="M56.43,24.22a.21.21,0,0,1-.13.31A.22.22,0,0,1,56.43,24.22Z"/><path class="cls-2" d="M69.12,18.74c-.07.16-.19.17-.33.11A.23.23,0,0,1,69.12,18.74Z"/><path class="cls-2" d="M60.74,25.28c0,.14,0,.27-.12.33A.23.23,0,0,1,60.74,25.28Z"/><path class="cls-2" d="M57.2,26.81a.15.15,0,0,1,0,.23A.15.15,0,0,1,57.2,26.81Z"/><path class="cls-2" d="M57.7,25.9a.16.16,0,0,1-.1.23A.16.16,0,0,1,57.7,25.9Z"/><path class="cls-2" d="M60.22,24.8a.16.16,0,0,1,.15-.2A.16.16,0,0,1,60.22,24.8Z"/><path class="cls-2" d="M61.14,24.21a.13.13,0,0,1-.09.2A.14.14,0,0,1,61.14,24.21Z"/><path class="cls-2" d="M60.45,24.39a.13.13,0,0,1,.09-.19A.13.13,0,0,1,60.45,24.39Z"/><path class="cls-2" d="M61.92,23.14c0,.1,0,.16-.12.18A.14.14,0,0,1,61.92,23.14Z"/><path class="cls-2" d="M62.7,22.23c0,.11,0,.16-.15.15A.14.14,0,0,1,62.7,22.23Z"/><path class="cls-2" d="M60.61,25.63c0,.12,0,.18-.17.16A.15.15,0,0,1,60.61,25.63Z"/><path class="cls-2" d="M60.64,19.68a.14.14,0,0,1,.2-.1C60.82,19.7,60.75,19.74,60.64,19.68Z"/><path class="cls-2" d="M59.74,19.58a.17.17,0,0,1-.21.11A.15.15,0,0,1,59.74,19.58Z"/><path class="cls-2" d="M61.27,19.33a.1.1,0,0,1,.14-.05C61.4,19.4,61.35,19.41,61.27,19.33Z"/><path class="cls-2" d="M64.44,50.29a18.3,18.3,0,0,1-11-2c-3.62-2.16-5.75-5.94-6.76-9.94-2.27-8.94,3.78-18.9,12.48-21.59,7.8-2.41,16.74-.82,24.3,1.74a50,50,0,0,1,5.18,2.07c.84.39,1.66.83,2.48,1.25a13.54,13.54,0,0,1,3.09,2.3,5.69,5.69,0,0,1,2.13,3.41,11,11,0,0,1,0,4.48,8.37,8.37,0,0,1-1,1.61c-.38.59-.71,1.21-1.09,1.8A17.34,17.34,0,0,1,92,38.05,37.43,37.43,0,0,1,80.73,45.7a52.38,52.38,0,0,1-13.28,4.2c-1,.17-2,.3-3,.39ZM90.31,23.76c.09-.34-.52-.86-.77-1a4.36,4.36,0,0,1-.67-.4,5.05,5.05,0,0,0-.53-.51c-.5-.3-1,0-1.56-.09q-.35.14-.37-.21a3.19,3.19,0,0,0-.16-.35,1,1,0,0,0-.36-.39c-.42-.21-.9.1-1.34,0a1.82,1.82,0,0,0-.44-.21c-.23-.18-.19-.28-.35-.53s-.4-.28-.84-.32a6.65,6.65,0,0,1-2-.38c-.39-.19-.54-.66-1-.76-.63-.14-1.38.28-2,.13-.41-.1-.48-.45-1-.52a7.14,7.14,0,0,0-2.4.24,4,4,0,0,0-1.82.59c-.16.16-.15.33-.26.49q.11.2,0,.24a.37.37,0,0,0-.31,0c-.39.22-.86.47-.65-.32s1-.88,1.69-1.15a5.24,5.24,0,0,0-2.52.09c-.35.09-1.34.07-1.51.33-.27-.1-.54.2-.89,0s-.37-.31-.79-.29A8.28,8.28,0,0,0,65,19a3.75,3.75,0,0,1-.91.36c-.58.06-.2-.08-.36-.39-.25-.45-1.42,0-1.4.55.34.08.6-.33.93-.06-.46.64-1.53.44-2.17.83-.26.16-.88.48-1,.75-.31.59.35.34.62.23.44-.17,2.27-1.23,2.69-.82.22.21-.06.41.31.52s.72-.37,1.08,0c-.13.19-.35.12-.53.21s-.52.32-.8.46A4.66,4.66,0,0,0,62.1,23a7.16,7.16,0,0,0-1,1.32c-.16.31-.22.75-.38,1.07,0,0-.23.42-.23.44a.55.55,0,0,1-.31-.75c.06-.21.48-.64.41-.84.69-.33.3-.92.4-1.47s.87-.93.79-1.36c-.44.06-.66.43-1.06.58s-.75,0-1.15.17a3.79,3.79,0,0,0-1.69,2.37c-.07.35.1.71,0,1s-.22.33-.29.47a4.82,4.82,0,0,1-.17.49,3.88,3.88,0,0,0-.3.43,3.13,3.13,0,0,0,.1,1.58,2.61,2.61,0,0,0,.7,1c.35.38.77.65,1.1,1l.24.29c.14.15.27,0,.33.42.19,1.33-1.72-.83-2-.78-.8.16,1.13,2.45,1.35,2.82s.07.74.37,1.1.87.42,1,.77a4.66,4.66,0,0,1-1,.27c-.31.09-.45.12-.7-.08-.6-.47-.72-1.36-1.4-1.77-1-.58-.07.92.12,1.23a13.23,13.23,0,0,0,.8,1.2,9.08,9.08,0,0,1,.85,1c.3.55.25,1.13,1.09,1.1.47,0,.22-.17.45-.44s.48-.06.77.05a18.23,18.23,0,0,0,2.75.78,5.66,5.66,0,0,0,2.7.26A2.1,2.1,0,0,0,65.26,38c-.38-.05-1.28.09-1.49-.34s.34-.58.69-.55a7.31,7.31,0,0,0,.86.12c.24,0,.62-.16.83-.1.38.11.48.33.93.35a2.93,2.93,0,0,1,.58,0c.29.08.24.2.45.4a1.54,1.54,0,0,0,1.14.23H71.3a13.27,13.27,0,0,1-1.76.27c-.33,0-1.12-.13-1.4.12s.29.71.57.81a5.75,5.75,0,0,0,1.82,0c.29,0,3.07-.34,3.08-.13,0,.55-1.58.08-1.9.59-.17.27,0,.54-.26.75a3.33,3.33,0,0,1-1.36.36c-.42,0-.79,0-1.21.1-.67.09-1.31-.12-2-.09-.27,0-2.67-.44-2.2.24.19.28,1,.17,1.22.17a12.41,12.41,0,0,1,2,.09,14.93,14.93,0,0,0,6.75-.32c2.21-.67,4.48-1.09,6.68-1.8,1-.34,2.08-.67,3.14-1a3.33,3.33,0,0,0,1.18-.47c.6-.47.18-.66-.36-.52a20.55,20.55,0,0,0-3,.84c-.26.11-.74.31-.86-.13,0-.18.09-.29.18-.42.19-.29.15-.28.51-.3A5.63,5.63,0,0,0,83.89,37a1.16,1.16,0,0,0,.59-.53.91.91,0,0,1,.39-.33q.07-.26.38-.13a.39.39,0,0,1,.47.12c.12,0,.13-.22.17-.23.26-.06.5,0,.76,0a.87.87,0,0,0,.46-.17c.14-.12.17-.38.34-.45s.33.08.43,0,.07-.2.21-.35.41-.18.59-.3c.34-.23.64-.5,1-.73.19.44-.23.76-.32,1.15.57.28,1.29-.5,1.81-.69a14,14,0,0,0,1.74-1.14,3.72,3.72,0,0,0,1.58-1.07,3.51,3.51,0,0,0,.45-1.93c0-.41-.17-.43-.47-.8a.72.72,0,0,1-.19-.81c.17-.61.3-1-.26-1.4a5.08,5.08,0,0,1-.8-1c-.18-.2-.86-1-1.09-1s0-.12-.15-.16a.25.25,0,0,0-.18-.31c-.46-.18-.49.41-.84-.25A2.41,2.41,0,0,0,90.31,23.76Zm-28.9-4.48c.41.07.69-.37.2-.48a.22.22,0,0,0-.16.18.34.34,0,0,0-.24-.06c-.32.08-.39,0-.66.24s-.18.25-.56.38a4,4,0,0,0-.64.24,13.66,13.66,0,0,0-1.47.81c-.11.07-1.47.75-.71,1,.29.08,1-.48,1.3-.6a30.52,30.52,0,0,1,2.9-1.58Zm-4.6,5.89c.32,0,.24-.4.33-.62a3.44,3.44,0,0,1,.65-.85c.32-.35.24-.42.37-.84.08-.25.61-.56.54-.81s-.59,0-.75.06c-.32.21-.34.52-.55.81-.33.48-1.09,1-1.11,1.6a7.87,7.87,0,0,0-1.07,2c-.15.38-.69,1.75-.19,2.05s.55-1.06.67-1.33C56,26.51,56.47,25.85,56.81,25.17ZM84.6,39c-.32-.3-1.07.18-1.42.28s-.93.25-1.38.41a28.88,28.88,0,0,1-3.21,1c-1.07.25-2.16.47-3.23.72-.38.09-2.43.36-2.21,1s2,0,2.39-.13c1.06-.25,2.12-.54,3.17-.83s2.13-.71,3.17-1.11c.75-.29,2.27-.57,2.72-1.31C84.47,38.87,84.34,39.43,84.6,39ZM53.72,35.69a5.8,5.8,0,0,1-.38-2,7,7,0,0,1-.14-2.13,10.82,10.82,0,0,0-.1-2c0-.27.34-1.52-.29-1.17-.34.19-.41,1.42-.46,1.71a7.24,7.24,0,0,0-.07,2.08A8.72,8.72,0,0,0,52.78,34c.2.54.4,1.38.94,1.68C53.44,35.14,53.36,35.48,53.72,35.69Zm9.64,5.08c-.55-.69-1.85-.3-2.58-.84-.4-.3-.59-.76-1-1.06-.17-.12-.92-.67-1.13-.62-.42.11-.16.75,0,1a2.7,2.7,0,0,0,1.25,1,9.57,9.57,0,0,0,3.47.57C63.06,40.39,62.9,40.74,63.36,40.77Zm2-1c-.21-.59-1.69-.61-2.21-.71-.34-.07-1.87-.58-1.8.25,0,.49,1.09.31,1.44.34.9.08,1.67.53,2.57.12C65.28,39.54,64.83,40,65.38,39.8Zm-7.16.47a.41.41,0,0,0-.4.42c0,.31.3.46.52.63.37.29,1.1,1,1.62.87.19,0,.42-.14.39-.4s-.45-.34-.63-.45c-.56-.36-.82-.88-1.5-1.06C58,40.26,58.44,40.33,58.21,40.27ZM55.3,40a4.64,4.64,0,0,0-1.77-2.7A3.36,3.36,0,0,0,55.3,40Zm23.48,2.35c-.27-.45-1-.1-1.4,0s-1.68.21-1.85.55c-.27.55.84.35,1.14.28a20.78,20.78,0,0,0,2.12-.81C78.66,42.18,78.1,42.63,78.78,42.37ZM57.2,35.88a9.08,9.08,0,0,0-.74-1.36c-.16-.29-.8-1.65-1-1-.17.43.45,1.35.71,1.66s.95,1.25,1.08.71C57.19,35.83,57.16,36.06,57.2,35.88Zm-2.33-.71c.22,1.16.9,2,1.6,2C55.82,36.57,55.69,35.61,54.88,35.17Zm-1.16-7.59c.4,0,1.25-1,.8-1.3s-1.47,1.26-.8,1.3C54.17,27.57,53.56,27.57,53.72,27.58Zm1.78-3.46c-.33,0-1.19,1-.71,1.15s1.2-1.11.71-1.15C55.25,24.14,55.61,24.13,55.5,24.12ZM85.7,42a1.11,1.11,0,0,0-1.24.95A2.51,2.51,0,0,0,85.7,42ZM56.16,31.13c-.05-.21-.25-1.5-.7-1.14s.46,1,.7,1.14C56,30.64,55.59,30.88,56.16,31.13Zm15-13.84c.14.21.71.59.89.21s-.76-.24-.89-.21C71.44,17.64,71.49,17.22,71.21,17.29Zm8.1,24.55c-.37,0-.06.29-.06.31s.41-.27.06-.31C79.2,41.85,79.39,41.85,79.3,41.84Zm-8.39-1.69c.36,0-.06-.32-.06-.32s-.33.28.06.32C71,40.14,70.81,40.14,70.91,40.15Z"/><path class="cls-2" d="M66.35,37.2a22,22,0,0,0,3.39-.29c.58-.06,1.81,0,1.62-.88-.25-1.13-1.53-.46-2.28-.28-.28.07-2.24.74-2.25.09,0-.42,1.85-.5,2.15-.58.66-.18,2-.92,2.72-.6.36.17.25.38.74.42a4,4,0,0,0,1.42-.31c1.08-.35,2.15-.82,3.25-1.11.29-.08,1.18-.43,1.45-.33.47.17,0,.34-.24.47a27.18,27.18,0,0,1-3.4,1.13c-.5.16-1,.3-1.49.42-.21,0-.94.11-1,.37-.18.62,1.94.17,2.31.1a40.64,40.64,0,0,0,6.16-2.12c.93-.35,1.81-.81,2.73-1.16.21-.08,1.19-.41.77.12-.25.32-1.18.54-1.56.72a47.26,47.26,0,0,1-6.55,2.47c-2.39.7-4.83,1.13-7.24,1.75.34.5,2.07.18,2.62.17a23.81,23.81,0,0,0,3-.23c.93-.14,1.86-.3,2.78-.47.74-.13,2.06-.67,2.77-.31-.3.65-1.23.29-1.61.87a8.27,8.27,0,0,0,1.73-.06c.41-.07,1-.41,1.42-.25,0,.25-.32.38-.31.63s.42.36.68.29.6-.3.9-.4a11.27,11.27,0,0,1,1.41-.33c.3-.06,1.63-.63,1.5,0s-1.74.85-2.18,1c-3.35,1-6.69,2-10.06,2.85a13.87,13.87,0,0,1-5.31.11,22.29,22.29,0,0,0-2.76-.17c-.22,0-.76.06-.92-.17-.29-.42.44-.43.68-.43a6.19,6.19,0,0,1,1,.2c.37.06.73-.05,1.1,0a7.19,7.19,0,0,0,1.28.12c.42,0,.81-.1,1.23-.12s1.44-.15,1.67-.62c.08-.17,0-.4.13-.57s.56-.19.81-.2.9.1,1-.13c.26-.49-.77-.2-.89-.19a26.86,26.86,0,0,1-3.13.17,1.65,1.65,0,0,1-1.21-.25c-.3-.23-.51-.43-.1-.63a4.84,4.84,0,0,1,1.42-.09,13.84,13.84,0,0,0,1.61-.25H69.54c-.42,0-1,.09-1.36-.17s-.26-.45-.86-.46c-.33,0-.78.07-1-.28C67.71,37.27,66.55,37.6,66.35,37.2Z"/><path class="cls-2" d="M59.48,30.87c.44.08.37.44.36.76,0,.52.11.65.6.88-.21.34-.33.66.13.85s.67-.1.59-.52c.46-.11.48.66.7.91a3.51,3.51,0,0,0,1.05.73,2.51,2.51,0,0,0,1.69.18,5.23,5.23,0,0,1,1.73-.24c.57.2.11.52-.27.62a5.52,5.52,0,0,0-1.41.3c-.62.38-.22.59.21.83a3.46,3.46,0,0,1,1.27,1,5.08,5.08,0,0,1-1.69,0c-.35,0-.94,0-.69.55s1.11.28,1.49.34a2.11,2.11,0,0,1,1.43.76,5.71,5.71,0,0,1-2.7-.26,16.53,16.53,0,0,1-2.61-.73c-.24-.09-.65-.36-.89-.18s0,.46-.39.53c-.85.15-.89-.61-1.17-1.11a7.16,7.16,0,0,0-.76-.88,11.94,11.94,0,0,1-.81-1.19c-.16-.27-1.15-1.75-.28-1.43s.9,1.39,1.49,1.85a.6.6,0,0,0,.61.11,5.32,5.32,0,0,0,1.12-.3c-.13-.55-1.06-.56-1.17-1.26a1.74,1.74,0,0,0-.39-1c-.34-.49-.68-1-1-1.48-.15-.23-.53-.67-.28-.93s.73.33.92.51.64.65.94.65c.51,0,.26-.47.18-.81C59.94,31,59.5,31,59.48,30.87Z"/><path class="cls-2" d="M53.72,35.69c-.51-.29-.7-1-.89-1.55a8.85,8.85,0,0,1-.54-2A7.29,7.29,0,0,1,52.36,30c.05-.33.13-1.53.46-1.71.64-.36.28.91.29,1.17a11.67,11.67,0,0,1,.1,2,6.26,6.26,0,0,0,.12,2,6.72,6.72,0,0,0,.39,2.15C53.36,35.48,53.44,35.14,53.72,35.69Z"/><path class="cls-2" d="M63.36,40.77A10,10,0,0,1,60,40.25a2.84,2.84,0,0,1-1.38-1c-.16-.27-.41-.87,0-1,.22-.07.94.48,1.13.62.37.28.55.7.91,1,.75.62,2.1.19,2.67.9C62.9,40.74,63.06,40.39,63.36,40.77Z"/><path class="cls-2" d="M56.78,25.19a20,20,0,0,1-1.06,2c-.14.31-.25,1.68-.71,1.27s.08-1.59.23-2a7.87,7.87,0,0,1,1.07-2c.07.33,0,.7.48.67C56.6,25.75,56.26,25.23,56.78,25.19Z"/><path class="cls-2" d="M65.38,39.8c-.87.4-1.56,0-2.43-.11-.36,0-1.54.16-1.58-.35-.06-.79,1.32-.34,1.65-.28.56.11,2.14.13,2.36.74C64.83,40,65.28,39.54,65.38,39.8Z"/><path class="cls-2" d="M58.21,40.27c.68.18.94.7,1.5,1.06.18.12.6.2.63.45s-.2.37-.39.4c-.52.1-1.25-.58-1.62-.87-.21-.17-.53-.32-.52-.63a.41.41,0,0,1,.4-.42C58.44,40.33,58,40.26,58.21,40.27Z"/><path class="cls-2" d="M55.3,40a3.36,3.36,0,0,1-1.77-2.7A4.64,4.64,0,0,1,55.3,40Z"/><path class="cls-2" d="M57.2,35.88c-.13.54-.94-.55-1.08-.71s-.88-1.23-.71-1.66c.25-.64.89.72,1,1a9.08,9.08,0,0,1,.74,1.36C57.16,36.06,57.19,35.83,57.2,35.88Z"/><path class="cls-2" d="M54.88,35.17c.81.44.94,1.4,1.6,2C55.77,37.18,55.09,36.33,54.88,35.17Z"/><path class="cls-2" d="M53.72,27.58c-.68,0,.34-1.66.8-1.3s-.38,1.3-.8,1.3C53.56,27.57,54.17,27.57,53.72,27.58Z"/><path class="cls-2" d="M57.22,28.49a2,2,0,0,1,1.51,1.7c-.44-.23-1.55-1.18-1.51-1.7C58.12,28.77,57.21,28.57,57.22,28.49Z"/><path class="cls-2" d="M56.16,31.13c-.25-.11-1.13-.8-.7-1.14s.64.94.7,1.14C55.59,30.88,56,30.64,56.16,31.13Z"/><path class="cls-2" d="M70.91,40.15c-.39,0-.05-.29-.06-.32s.42.28.06.32C70.81,40.14,71,40.14,70.91,40.15Z"/><path class="cls-2" d="M59,30.54c.28-.12.37,0,.39.28C59.18,30.86,59,30.79,59,30.54Z"/><path class="cls-2" d="M57.15,27.2a.61.61,0,0,1,0,.69A.52.52,0,0,1,57.15,27.2Z"/><path class="cls-2" d="M61.16,32.83c.06.31.15.52-.28.59a.71.71,0,0,1-.58-.22.46.46,0,0,1,0-.53c.23-.24.52,0,.82.17C61.19,33,60.92,32.72,61.16,32.83Z"/><path class="cls-2" d="M.82,25.28c.31-1.07.67-2.12,1-3.17.14-.4.32-.8.45-1.17a3.16,3.16,0,0,1,.28-.8c.1-.06.42,0,.58-.07a1.15,1.15,0,0,0,.4-.44c.32-.51.12-.72.16-1.24a5,5,0,0,1,.62-1.44q.34-.71.71-1.4A34.55,34.55,0,0,1,12.64,6,22.62,22.62,0,0,1,23.49.29,18.37,18.37,0,0,1,34.18,1.56a13,13,0,0,1,7.15,8A15.72,15.72,0,0,1,40,20.78c-3.14,6.46-9.6,11.1-16.1,13.76A31.78,31.78,0,0,1,12.26,37c-1.79,0-3.94,0-5.53-.81a4.45,4.45,0,0,0-1.31-.3,4.36,4.36,0,0,1-1.22-.45c-.12-.06-.27,0-.34-.18-.17-.32.17-.62.39-.61s.31.21.57.12.21-.32.12-.55c.28-.08.66-.14.93-.2s.49.09.73,0,.33-.28.56-.38a3,3,0,0,1,.47-.1,4.81,4.81,0,0,0,.59-.2c.11,0,.38,0,.55-.06s.33-.17.5-.25a6,6,0,0,1,1.29-.51A12.79,12.79,0,0,0,12,32.15c.11,0,.06-.21.15-.25s.21.07.3,0,.25-.27.28-.28.2,0,.28,0,.14-.18.22-.23.18.09.24,0,.07-.56.28-.76.24-.12.43-.2c.51-.23.28-.33.84-.27a1.76,1.76,0,0,0,1.15-.12c.34-.18.7-.66,1-.16-.49.5-1.27.65-1.82,1.08-.32.25-.44.6-.7.84a5.1,5.1,0,0,1-.85.38c-.83.37-1.71.65-2.56,1-.29.11-.59.26-.82.32a3.93,3.93,0,0,0-1.27.4c.39-.06.76.09,1.15,0a7.54,7.54,0,0,1,1.25-.12c-.12.37-.06.34-.42.51a7.91,7.91,0,0,1-.86.28c-.21.07-.87.25-.76.57s.87-.06,1-.12c.35-.14.34,0,.63.06a1.26,1.26,0,0,0,.61-.15,2.7,2.7,0,0,1,1.4-.22,1.39,1.39,0,0,0,1.29-.31c.22-.25.28-.79-.07-1s-.69.22-.95.11c-.45-.19.06-.44.27-.54.46-.21.95-.37,1.41-.58s.92-.43,1.39-.63a.22.22,0,0,0,.26,0l.08-.14.44-.09c.14-.08.14-.27.3-.32s.44.14.57.15c.54.06.73-.21,1.18-.4s.68-.11.37.26-.59.14-.61.59A9.41,9.41,0,0,0,21,31.06c.54-.34,1.08-.71,1.63-1a1.34,1.34,0,0,1,.58-.22c.32,0,.52.2.81,0s.26-.38.42-.53.54-.26.73-.5.39-1,.24-1.24c-.31-.39-.9.49-1.16.69-.45.34-1,.59-1.41.95a3.32,3.32,0,0,1-1.47.9A1.19,1.19,0,0,1,21.79,29c.23-.23.67-.38.57-.78-.32,0-.5.38-.83.29a1.24,1.24,0,0,1,.73-1c.53-.18.89.23,1.36.16s.73-.72,1-1A14.32,14.32,0,0,1,26,25.25c0,.33.06,1.06.53.57s-.12-.58-.47-.62c.14-.16.48-.71.68-.77s.33.15.53.35c.45.43.79.34,1.21-.12s.66-1,1.06-1.5c.15-.18.37-.57.64-.6s.35.26.63.11c.68-.36-.09-.74-.13-1s.59-.66.44-1.16-.35-.26-.3-.69a2.68,2.68,0,0,1,.45-.9c.17-.29.34-.57.5-.87a2.48,2.48,0,0,1,.25-.5c.74.57-.63,1.87.09,2.35a5.5,5.5,0,0,0,.74-1.61,1.75,1.75,0,0,0,0-.41,1.11,1.11,0,0,1,.29-.37c.05-.14,0-.34,0-.49a4.26,4.26,0,0,0,.39-1.3,2.67,2.67,0,0,0,0-.63c-.21-.39-.26.13-.39.15-.47-.58.1-1.71.19-2.35.14-.88.14-1.86.2-2.76a11.63,11.63,0,0,0-.2-2.81c-.05-.28-.08-.71-.31-.91s-.44-.05-.67-.39c-.41-.61-.39-1.26-1-1.8-.37-.34-1.15-.92-1.7-.79s-.22.15-.19.46c0,.06.14.11.14.19s-.24.22-.26.36c-.11.61.87.91-.08,1.3-.1-.91-.76-1.1-1.44-1.51a7.18,7.18,0,0,1-.79-.6c-.23-.19-.41-.15-.67-.32s-.27-.34-.71-.33S25,3,24.66,3a5,5,0,0,1-.85.06c-.32,0-.12,0-.41-.15-.44-.28-.48-.41-1-.29-.82.18-1.61.15-2.44.26a1.4,1.4,0,0,0-.81.38c-.37.27-.87.43-1.28.66a10.91,10.91,0,0,1-2.74,1.5c-.16,0-.39,0-.52.09s-.15.48-.3.67-.53.23-.68.36a4.43,4.43,0,0,0-.35.44c-.2.22-.39.24-.62.4,0,0-.22.28-.29.35a.29.29,0,0,0-.31.09.37.37,0,0,1-.18.29,9.63,9.63,0,0,1-.85.76c-.12.1-.25.37-.39.49s0,.15-.1.23-.31,0-.43.12,0,.26-.08.35-.11.12-.22.25a11,11,0,0,0-.7,1,14.51,14.51,0,0,0-1.52,2.21c-.27.67,0,1.46-.55,2-.27.29-.68.39-1,.69a2.61,2.61,0,0,0-.51,1.11C5,19.22,3.12,20.55,3,22.59c0,.58-.16.44-.53.83s-.21.63-.34,1a8.69,8.69,0,0,1-.48.91c-.06.11.05.24-.09.29s-.61-.22-.71-.34C1.22,23.92,1,25.5.82,25.28Zm27.08,2.4c-.66-.26-1.8,1-2.28,1.35-.23.17-2.21,1.53-1.59,1.81.3.13.7-.35.88-.5.44-.36.9-.71,1.37-1,.64-.45,1.35-.83,1.62-1.63C27.58,27.56,27.59,28.62,27.9,27.69Zm6.57-16.87A7.15,7.15,0,0,0,33.86,14c0,.23,0,.54.35.53s.32-.66.32-.92a7.9,7.9,0,0,0-.07-2.78C34.16,11.53,34.59,11.2,34.47,10.82Zm.31,7.71A5,5,0,0,0,35.51,17a3.21,3.21,0,0,0,.34-1.54c-.28-.92-.66.64-.69.92-.09.73-.68,1.37-.37,2.12C35.28,17.91,34.56,18,34.78,18.53ZM35,8.89c0-.32,0-1.19-.38-1.31s-.46.76-.44,1,.1,1,.44,1,.37-.51.37-.77S35,9,35,8.89Zm.93,3.83c0-.19.06-1.14-.24-1.13s-.4,1.14-.42,1.36-.13,1.12.4.94c.34-.11.24-.89.26-1.16S35.92,13,35.93,12.72ZM8.68,34.42c-.36-.24-2.58-.47-2,.5.18.32,2,0,2-.5C8.19,34.09,8.65,34.71,8.68,34.42Zm23.65-10c-.1-.62-.84.33-.93.45s-1,1-.93,1.23c.16.43.74-.36.9-.52s.94-.73,1-1.16C32.31,24.26,32.32,24.53,32.33,24.4Zm1.29-6.23c-.5-.1-1.38,2.09-1.13,2.27.54.4,1.11-1.91,1.13-2.27C33.39,18.12,33.58,19,33.62,18.17Zm-1.22,3.24c0-1.09-1.06.5-1.06,1,0,1,1-.62,1.06-1C32.41,21.24,32.29,21.89,32.41,21.41Zm-14.28,11c.05.23.43.11.44-.09s-.42-.13-.44.09S18.14,32.22,18.13,32.37Z"/><path class="cls-2" d="M5.87,34.06c-.59.59-1.44,0-1.86-.44a2.13,2.13,0,0,0-.92-.5A4.54,4.54,0,0,1,2.44,33l-.26,0v-.59A14.82,14.82,0,0,0,7,32.65c.2,0,1.64-.1,1.45-.53-.12-.26-1.76.13-2.05.11a9.61,9.61,0,0,1-4.09-1.11C1.9,30.91,1,30,1.1,31a1.87,1.87,0,0,0,1,1.37c-.47.15-.74-.18-1.14.2a3.93,3.93,0,0,1-.69-1.84A10,10,0,0,1,0,28.32a6.84,6.84,0,0,1,.46-2.39c.05-.13.17-.63.36-.65s.58.3.71.34A4.39,4.39,0,0,0,.92,29c.17.48.74.74,1.1,1.07a4.92,4.92,0,0,0,1.27,1,9,9,0,0,0,7.13,0A31.1,31.1,0,0,0,17,27.27c.5-.34,1-.71,1.46-1.07.16-.12.4-.38.63-.34s.24.36.46.4c.73.14,1.52-1.29,2.07-1.62.17.32.13.29,0,.59a.32.32,0,0,0,0,.31,1.51,1.51,0,0,0-.49.16,7.52,7.52,0,0,0-1.37,1.19c-.48.41-1,.79-1.5,1.17s-1.23.73-1.37,1.22c.77.06,1.8-.87,2.41-1.25a9.28,9.28,0,0,0,2.31-1.74c.14.36-.28.54-.35.85.24,0,.47-.16.7-.06-.1.41-1.46,1-1.82,1.2l-1.91,1.16c-.21.12-.68.48-.93.45a.47.47,0,0,0-.36-.23.51.51,0,0,0-.36.15,2,2,0,0,1-1.84.25c0-.32.77-.61,1-.77.47-.31.93-.64,1.39-1s1.93-1,1.88-1.66a5.11,5.11,0,0,0-1.94,1c-.67.43-1.34.88-2,1.32-1.37.92-2.74,1.84-4.17,2.67a9.9,9.9,0,0,1-4.16,1.6c-.31,0-1.29-.2-1.53.06-.43.45.45.62.71.72C5.6,34.33,5.55,33.94,5.87,34.06Z"/><path class="cls-2" d="M4,17.42c.05.37-.25.62-.28,1s.13.55,0,.89a1.07,1.07,0,0,1-1.16.87A8,8,0,0,1,4,17.42C4,17.68,3.44,18.27,4,17.42Z"/><path class="cls-2" d="M1,32.54a.71.71,0,0,1,.84-.15c.41.13.36-.15.36.45a4,4,0,0,1,0,.74c0,.11-.29.06-.35.26L1,32.54C1.13,32.39,1.27,33,1,32.54Z"/><path class="cls-2" d="M4,34.64a1.16,1.16,0,0,0-.18.66,3.59,3.59,0,0,1-1-.47c-.41-.31-.42-.48-.37-1A6.42,6.42,0,0,1,4,34.64C3.91,34.85,3.59,34.28,4,34.64Z"/><path class="cls-2" d="M2.53,33.85l0,.55c-.19-.05-.39-.34-.54-.48.33-.07.23-.67.59-.08C2.51,34,2.46,33.73,2.53,33.85Z"/><path class="cls-2" d="M4.58,16.46c0,.25,0,.46-.28.52A.48.48,0,0,1,4.58,16.46Z"/><path class="cls-2" d="M2.2,33.6c0,.07-.19.48-.33.32s.26-.3.33-.32C2.16,33.75,2,33.63,2.2,33.6Z"/><path class="cls-2" d="M4,35.44a.24.24,0,0,1,.28.18A.2.2,0,0,1,4,35.44Z"/><path class="cls-2" d="M4.42,35.66a.23.23,0,0,1,.34.1A.28.28,0,0,1,4.42,35.66Z"/><path class="cls-2" d="M2.39,20.72a.14.14,0,0,1-.08.22A.16.16,0,0,1,2.39,20.72Z"/><path class="cls-2" d="M4.76,16.2a.16.16,0,0,1-.14.19C4.61,16.28,4.65,16.21,4.76,16.2Z"/><path class="cls-2" d="M4.88,16a.15.15,0,0,1-.12.2A.15.15,0,0,1,4.88,16Z"/><path class="cls-2" d="M5.24,15.45a.14.14,0,0,1-.12.17A.14.14,0,0,1,5.24,15.45Z"/><path class="cls-2" d="M2.54,20.26a.15.15,0,0,1-.08.22A.15.15,0,0,1,2.54,20.26Z"/><path class="cls-2" d="M2.27,21a.17.17,0,0,1-.1.23A.17.17,0,0,1,2.27,21Z"/><path class="cls-2" d="M2.07,34a.13.13,0,0,1,.14.15C2.11,34.2,2.06,34.15,2.07,34Z"/><path class="cls-2" d="M29,8.61c0-.63.08-1.27.16-1.9,0-.24,0-.83.15-1s.37-.09.45-.3c.13-.36-.43-.58-.39-.92,0-.18.3-.3.29-.44s-.25-.21-.27-.33c-.11-.92,1.86.31,2.1.55a2.83,2.83,0,0,1,.67,1.12,2.39,2.39,0,0,0,.26.69c.19.23.33.12.56.27.69.46.61,2.39.61,3.13s-.11,1.24-.16,1.87a13.35,13.35,0,0,1-.15,2A5.87,5.87,0,0,0,33.07,15l.13.22a3.25,3.25,0,0,0-.19.54,7.42,7.42,0,0,0-.15.84,12,12,0,0,0,0,1.53,4.23,4.23,0,0,1-.76,1.75c-.38-.26-.09-.86,0-1.2a2.68,2.68,0,0,0,.13-.59c0-.27-.19-.35-.21-.56s.34-.51.3-.78c-.07-.47-.33-.13-.47.05A7.24,7.24,0,0,0,31.25,18a14.06,14.06,0,0,1-.81,1.38,22.62,22.62,0,0,0-1.57,2.94,8.38,8.38,0,0,0,.88-.93,5.26,5.26,0,0,1,.69-1.13c.26-.23.17-.26.42-.07a.76.76,0,0,1,.23.33c.09.34-.18.53-.32.81-.21.47,0,.28.19.66a.59.59,0,0,1-.28.72c-.4.15-.47-.3-.88.07a5.52,5.52,0,0,0-.86,1c-.29.44-.69,1.42-1.38,1.22-.3-.09-.49-.71-.77-.68s-.63.65-.8.82A18.46,18.46,0,0,0,24.3,27c-.29.4-.45.64-1,.58-.19,0-.34-.15-.54-.17s-.43.06-.64.05c0-.26.39-.41.49-.64a.57.57,0,0,1-.44.08,3,3,0,0,1,1.55-1.08c.31-.08.38,0,.71-.17a4.79,4.79,0,0,0,.77-.6c.52-.52.93-1.15,1.42-1.7s1.18-1.2.24-1.53a7.65,7.65,0,0,1,.89-1.12c.2.71.69.46,1-.07a13.25,13.25,0,0,1,1-1.75,3.9,3.9,0,0,1-.92.06A4.54,4.54,0,0,1,30,16.67c0,.16-.17.89.12.87s.52-1,.61-1.2c.21-.48.39-1,.64-1.47a1.07,1.07,0,0,1,.26-.38c.15-.11.41-.07.54-.18s.21-.35.06-.6c-.3-.51-.27-.5-.2-1.15A5.5,5.5,0,0,0,31.91,11c-.1-.61-.23-.61-.59-.15-.47-.57.54-.72.6-1.22.33.15.16.66.54.76a4.71,4.71,0,0,0-.28-3.75c-.45.4-.08,1.2-.57,1.6a3.28,3.28,0,0,1-.09-1.12,3.54,3.54,0,0,0,.1-.72,1.3,1.3,0,0,0-.66-1c-.19.37,0,.82.13,1.18s.25.93-.27.67-.4-1.1-1-1.38a3.72,3.72,0,0,0-.21,2.42c-.26,0-.43.16-.61.32C29.09,7.63,29.21,8.45,29,8.61ZM27.92,21.48c-.41,0-.29.78,0,.85.52.11.42-.74,0-.85C27.71,21.49,28.17,21.54,27.92,21.48Z"/><path class="cls-2" d="M23.53,3.09a19.82,19.82,0,0,1-2.09.36A4.86,4.86,0,0,0,20,4.06C18.91,4.68,17.8,5.28,16.73,6a10.54,10.54,0,0,0-2.88,2.19,17.33,17.33,0,0,1-2.31,2.42c-.89.81-1.69,1.71-2.55,2.56-.32.32-.76.64-.85,1.11-.06.3,0,.41-.16.69a6.79,6.79,0,0,1-.63.68,31.05,31.05,0,0,0-2,3,9.71,9.71,0,0,0-.91,1.37c-.18.44-.05.46.41.67A29.42,29.42,0,0,1,3,23c-.18-1.24.65-2.43,1.3-3.41.3-.45.64-.88.9-1.36s.32-1.12.61-1.63.74-.61,1.12-1a1.86,1.86,0,0,0,.47-1.4c.12-1.17,1.15-2.08,1.76-3a3,3,0,0,1,.49-.76c.24-.18.26,0,.49-.07.47-.07.77-.64,1.15-.9,1-.69,1.81-1.52,2.81-2.15s1.8-1.39,2.79-2c.54-.33,1.09-.65,1.6-1a8.28,8.28,0,0,0,1.37-1l-.73,0c.33-.62,1.63-.42,2.19-.45.8,0,1.7-.63,2.21.28C22.85,3.31,23.32,2.72,23.53,3.09Z"/><path class="cls-2" d="M21.74,27.88c.08.25-.22.38-.2.62.33.09.51-.32.83-.29.11.51-.81.86-.94,1.36,0,.18,0,.35,0,.52,0,0-.29.06-.23.14s0,.06.14,0,.24-.2.3-.24c.61-.36,1.13-.8,1.72-1.19.31-.21.64-.38.94-.61s.63-.78.85-.82c.58-.11.26,1.14.07,1.37s-.63.38-.88.66-.29.41-.74.41a3.53,3.53,0,0,0-1.94.81,14.5,14.5,0,0,1-2.45,1.2c0-.38,1.19-.83.52-1-.25-.05-.59.34-.8.42a1.64,1.64,0,0,1-1.24-.06c.13-.22.39-.29.59-.42a.53.53,0,0,0,.22-.29.77.77,0,0,1,.35.06c.44,0,.75.1,1-.34s0-.88.19-1.17.68-.46.85-.6a9.29,9.29,0,0,1,.82-.63C21.81,28.13,21.15,28.25,21.74,27.88Zm-.65,1q.18,0,.08-.17s-.23.11-.08.17S21,28.82,21.09,28.84Z"/><path class="cls-2" d="M11.61,33.79a5.46,5.46,0,0,1,1.07-.43,1.17,1.17,0,0,1,.51-.07c.16.05.12.2.26.25.45.15,1.19-.49,1.27.34s-.9.91-1.46.84a2.41,2.41,0,0,0-1.16.12c-.34.12-.75.45-1.07.11.38-.1.74-.27,1.12-.39.21-.06.84,0,.93-.28.25-.67-1.38-.05-1.6-.08l.13-.42C12.16,33.53,11.57,33.93,11.61,33.79Z"/><path class="cls-2" d="M27.9,27.69c-.26.79-1,1.18-1.62,1.63-.33.23-1.88,1.76-2.25,1.54-.6-.37,1.33-1.62,1.59-1.81.48-.36,1.62-1.61,2.28-1.35C27.59,28.62,27.58,27.56,27.9,27.69Z"/><path class="cls-2" d="M16.52,30.39c.43.34.83-.23,1.24-.31.22,0,.37-.13.44.13s-.36.35-.57.44a11,11,0,0,1-2.92,1.16c.23-.78,1.15-1.12,1.81-1.42C16.76,30.58,16.2,30.54,16.52,30.39Z"/><path class="cls-2" d="M8.68,34.42c-.05.51-1.85.8-2,.5-.56-1,1.66-.74,2-.5C8.65,34.71,8.19,34.09,8.68,34.42Z"/><path class="cls-2" d="M2.95,23.07a2.93,2.93,0,0,1-.84,1.46A1.34,1.34,0,0,1,2.95,23.07Z"/><path class="cls-2" d="M10.61,33.49c.31.69-1.15.36-1.39.39a2.15,2.15,0,0,1,1.39-.39C10.65,33.59,10.09,33.42,10.61,33.49Z"/><path class="cls-2" d="M26,25.19c.33,0,1,.3.42.68s-.66-.42-.42-.68C26.62,25.27,26,25.21,26,25.19Z"/><path class="cls-2" d="M15.33,5.42a1.26,1.26,0,0,1-.9.65C14.48,5.44,14.48,5.44,15.33,5.42Z"/><path class="cls-2" d="M13.26,31.38c0-.53,0-.71.54-.83,0,.25-.24,1-.54.83C13.24,30.68,13.42,31.46,13.26,31.38Z"/><path class="cls-2" d="M9.64,35l1,.06a.64.64,0,0,1-.68.24c-.12,0-.58-.1-.29-.3C10,35,9.54,35,9.64,35Z"/><path class="cls-2" d="M26.43,3.26A1.35,1.35,0,0,1,25.51,3C26,2.82,26.13,2.87,26.43,3.26Z"/><path class="cls-2" d="M2.08,24.62a1,1,0,0,1-.47.95A1,1,0,0,1,2.08,24.62Z"/><path class="cls-2" d="M18.13,32.37c0-.22.44-.38.44-.09s-.38.32-.44.09S18.15,32.46,18.13,32.37Z"/><path class="cls-2" d="M10.5,9.59a1.42,1.42,0,0,1-.51.56C10,9.77,10.07,9.54,10.5,9.59Z"/><path class="cls-2" d="M6,34a1.86,1.86,0,0,1,1-.27C6.7,34.16,6.34,34.11,6,34Z"/><path class="cls-2" d="M13.83,6.52a.51.51,0,0,1-.48.44C13.37,6.65,13.51,6.48,13.83,6.52Z"/><path class="cls-2" d="M10.92,9.08c0,.24-.06.41-.33.45C10.58,9.29,10.62,9.09,10.92,9.08Z"/><path class="cls-2" d="M13,7.23a.42.42,0,0,1-.44.33C12.59,7.28,12.77,7.21,13,7.23Z"/><path class="cls-2" d="M12.2,31.9a.66.66,0,0,1,.54-.27C12.66,31.93,12.46,32,12.2,31.9Z"/><path class="cls-2" d="M11.63,32.19a.51.51,0,0,1,.5-.26C12.06,32.21,11.88,32.27,11.63,32.19Z"/><path class="cls-2" d="M12.33,7.74A.32.32,0,0,1,12,8,.28.28,0,0,1,12.33,7.74Z"/><path class="cls-2" d="M8.22,33.38a.4.4,0,0,1,.55-.06A.41.41,0,0,1,8.22,33.38Z"/><path class="cls-2" d="M12.81,31.6a.38.38,0,0,1,.43-.21C13.2,31.67,13,31.64,12.81,31.6Z"/><path class="cls-2" d="M7.63,33.58a.38.38,0,0,1,.49-.18C8,33.63,7.84,33.63,7.63,33.58Z"/><path class="cls-2" d="M11.18,32.36a.35.35,0,0,1,.44-.16C11.53,32.41,11.37,32.42,11.18,32.36Z"/><path class="cls-2" d="M17.23,31.58a.25.25,0,0,1,.33-.19C17.53,31.6,17.4,31.63,17.23,31.58Z"/><path class="cls-2" d="M16.6,31.81a.29.29,0,0,1,.35-.12C16.88,31.89,16.76,31.91,16.6,31.81Z"/><path class="cls-2" d="M10.83,32.51a.25.25,0,0,1,.34-.15A.26.26,0,0,1,10.83,32.51Z"/><path class="cls-2" d="M13.49,33.17c0-.18.16-.19.31-.15A.25.25,0,0,1,13.49,33.17Z"/><path class="cls-2" d="M10.9,33.32c0,.16-.13.23-.29.17C10.64,33.31,10.75,33.28,10.9,33.32Z"/><path class="cls-2" d="M4.46,34.73a.23.23,0,0,1,.36.07A.26.26,0,0,1,4.46,34.73Z"/><path class="cls-2" d="M11.33,8.6a.22.22,0,0,1-.23.21C11.09,8.65,11.18,8.59,11.33,8.6Z"/><path class="cls-2" d="M13.88,30.52a.32.32,0,0,1,.36-.15A.25.25,0,0,1,13.88,30.52Z"/><path class="cls-2" d="M14.47,30.2c0-.11.1-.13.2-.13A.16.16,0,0,1,14.47,30.2Z"/><path class="cls-2" d="M11.09,8.83A.12.12,0,0,1,11,9C11,8.89,11,8.83,11.09,8.83Z"/><path class="cls-2" d="M11.49,8.44c0,.1,0,.15-.15.15A.14.14,0,0,1,11.49,8.44Z"/><path class="cls-2" d="M13.36,7a.14.14,0,0,1-.17.14A.15.15,0,0,1,13.36,7Z"/><path class="cls-2" d="M14.28,6.18a.15.15,0,0,1-.18.15A.16.16,0,0,1,14.28,6.18Z"/><path class="cls-2" d="M14.62,31.87c-.05.11-.13.15-.24.07A.16.16,0,0,1,14.62,31.87Z"/><path class="cls-2" d="M27.21,3.69a.12.12,0,0,1-.16-.13A.14.14,0,0,1,27.21,3.69Z"/><path class="cls-2" d="M27,3.56a.14.14,0,0,1-.17-.13A.13.13,0,0,1,27,3.56Z"/><path class="cls-2" d="M26.88,3.43a.15.15,0,0,1-.2-.08A.13.13,0,0,1,26.88,3.43Z"/><path class="cls-2" d="M22.21,26.95c-.11.15-.84.21-1,.18.06-.26.31-.42.38-.68s0-.24,0-.38.24-.19.34-.29.14-.24.21-.29.32-.12.36-.19c.34-.54-.39-.29-.61-.35-.71-.2.14-.84.45-1.06.08-.06.25-.2.35-.26a1,1,0,0,1,.49-.15,1.65,1.65,0,0,0,1-.55c1.21-1.19,1.82-2.73,2.76-4a5.07,5.07,0,0,0,.57-1.12c.09-.23.3-1,.62-.93-.06.49-.3.9.32,1.1a40.18,40.18,0,0,1-4.05,5.55c-.18.22-1.59,1.4-1.2,1.73s1.81-1.36,2.05-1.58,1.39-1.8,1.77-1.72c1.09.25-.57,1.73-.8,2-.53.63-1.1,1.63-1.92,1.93-.18.07-.36,0-.51,0a3.58,3.58,0,0,0-.56.3,2,2,0,0,0-1,.78C22.13,27.05,22.54,26.32,22.21,26.95Z"/><path class="cls-2" d="M28.12,16.84l-.19,0a21.65,21.65,0,0,0,.93-2.65,5.42,5.42,0,0,0,.41-2.66c-.61.13-.93,1.65-1.17,2.15a29.7,29.7,0,0,1-1.45,2.64,21.33,21.33,0,0,1-1.57,2.36c-.27.33-.59.61-.86.95a7.15,7.15,0,0,1-.79,1.1.69.69,0,0,0-.38-.37,37.09,37.09,0,0,0,3.61-4.9c.49-.85.91-1.74,1.34-2.63s.35-1.72.86-2.39c0,.28.18.65.53.59s.24-.44.44-.43A10.52,10.52,0,0,1,29.67,13c-.13.64-.5,1.27-.22,1.92a8.38,8.38,0,0,0,.86-1.78c.14-.38.31-1.55.65-1.54s0,1.21-.06,1.55c-.12.69-.33,1.35-.48,2,0,.2,0,.71-.15.85s-.5,0-.71.11-.41.63-.54,1-.46,1.07-.9.65C27.84,17.5,28.21,16.94,28.12,16.84Z"/><path class="cls-2" d="M23.93,17.26c.06.51-.46.9-.75,1.26s-.72.89-1.07,1.33a29.82,29.82,0,0,1-2.45,2.8c-.56.54-5.21,4.81-5.7,4-.2-.34.6-.46.81-.58.51-.3,1-.65,1.47-1a22.88,22.88,0,0,0,2.83-2.37c.9-.89,1.76-1.83,2.57-2.81a11.35,11.35,0,0,1,2.28-2.64C24,17.59,23.34,17.63,23.93,17.26Z"/><path class="cls-2" d="M22.34,22a5.21,5.21,0,0,1-1.43,1.53c-.66.57-1.3,1.17-2,1.73a15.55,15.55,0,0,1-2.07,1.47c-.36.21-1.74,1.27-2.17,1s1.2-1,1.32-1.05a14.7,14.7,0,0,0,2.07-1.39c.71-.55,1.4-1.12,2.07-1.72s1.61-1.11,1.71-1.9l.46.32C22,22.76,22.19,21.92,22.34,22Z"/><path class="cls-2" d="M26.62,19.31a13,13,0,0,1-1.54,2.58c-.44.57-1.26,1.81-2.12,1.53a11.87,11.87,0,0,1,1.78-2.68c.52-.7.73-1.83,1.88-1.43C26,20.74,25.87,19,26.62,19.31Z"/><path class="cls-2" d="M27,13a12,12,0,0,1,.81-2.75c.15-.56.25-1.13.38-1.69,0-.19.05-1.19.35-1,.5.27-.18,2.33-.29,2.73A6.87,6.87,0,0,1,27,13C27,12.59,27.5,12.39,27,13Z"/><path class="cls-2" d="M22.34,22c-.68-.47-.71-.54-.11-1,.31-.23.68-.9,1.05-.57s-.64,1.29-.94,1.55C22.19,21.92,22.39,22,22.34,22Z"/><path class="cls-2" d="M19.19,20.05c-.07.15-1,1.4-1.1.75-.05-.35.84-.7,1.1-.75C19,20.51,18.68,20.14,19.19,20.05Z"/><path class="cls-2" d="M26.3,14.13c0-.21.13-.85.38-.91.43-.09-.35.87-.38.91C26.22,13.74,26.47,13.9,26.3,14.13Z"/><path class="cls-2" d="M22.94,21.44a.3.3,0,0,1,.29-.34A.32.32,0,0,1,22.94,21.44Z"/><path class="cls-2" d="M27.64,17.41a.26.26,0,0,1-.15.35A.26.26,0,0,1,27.64,17.41Z"/><path class="cls-2" d="M22.49,21.9a.2.2,0,0,1,.22-.22A.21.21,0,0,1,22.49,21.9Z"/><path class="cls-2" d="M22.63,23.7c0,.16-.14.2-.28.18A.22.22,0,0,1,22.63,23.7Z"/><path class="cls-2" d="M26.93,18.88a.22.22,0,0,1-.17.27A.2.2,0,0,1,26.93,18.88Z"/><path class="cls-2" d="M27.19,18.49a.14.14,0,0,1-.11.19A.14.14,0,0,1,27.19,18.49Z"/><path class="cls-2" d="M27.36,18.06a.11.11,0,0,1-.08.17C27.23,18.14,27.27,18.08,27.36,18.06Z"/><path class="cls-2" d="M27.47,17.84a.16.16,0,0,1-.11.22A.16.16,0,0,1,27.47,17.84Z"/><path class="cls-2" d="M22.75,21.64c0-.08,0-.12.11-.11S22.85,21.66,22.75,21.64Z"/><path class="cls-2" d="M22.18,24a.19.19,0,0,1-.21.14A.16.16,0,0,1,22.18,24Z"/><path class="cls-2" d="M21.85,24.27a.17.17,0,0,1-.16.18A.17.17,0,0,1,21.85,24.27Z"/><path class="cls-2" d="M18.21,30.41a.57.57,0,0,0-.07-.37.11.11,0,0,1,.14,0,1.46,1.46,0,0,1,.75-.42c.31-.12,1-.41,1.06-.2a1.31,1.31,0,0,1-.45,1.15,1.57,1.57,0,0,1-1.43-.14C18.22,30.28,18.3,30.46,18.21,30.41Z"/><path class="cls-2" d="M21.4,30.1c0,.41-.46.07,0,0Z"/><path class="cls-2" d="M21.09,28.84c-.14-.06,0-.15.08-.17s0,.16-.08.17S21.13,28.82,21.09,28.84Z"/><path class="cls-2" d="M19.85,29.27c-.06.19-.18.22-.35.15A.29.29,0,0,1,19.85,29.27Z"/><path class="cls-2" d="M18.33,29.91c0,.1-.08.15-.18.12S18.25,29.91,18.33,29.91Z"/><path class="cls-2" d="M23.87,24.12c.08.22.39.37.22.57s-.43,0-.5,0c.35.15-.22.83-.44.44s.48-1,.72-1C23.93,24.28,23.47,24.25,23.87,24.12Z"/><path class="cls-2" d="M21.55,25.52l.6,0c-.07.33-.48.37-.6.66-.22-.2,0-.4,0-.62C21.75,25.51,21.53,25.72,21.55,25.52Z"/><path class="cls-2" d="M22.28,25.36c.15-1,.52,0,0,0C22.3,25.21,22.49,25.38,22.28,25.36Z"/><path class="cls-2" d="M26.72,22a.15.15,0,0,1,.18-.14A.15.15,0,0,1,26.72,22Z"/><path class="cls-2" d="M24.11,23.82c0,.09,0,.14-.12.15S24,23.83,24.11,23.82Z"/></g></g></svg>