<svg xmlns="http://www.w3.org/2000/svg" viewBox="0 0 128.98 81.75"><defs><style>.cls-1{fill:#f4f4f4;}.cls-2{fill:#62250e;}</style></defs><title>Element 7</title><g id="Ebene_2" data-name="Ebene 2"><g id="Ebene_5" data-name="Ebene 5"><path class="cls-1" d="M20.05,36.71c7-11,11-23,21-23h23s2-11,22-7,21,12,28,15,21,11,12,17-25,17-34,23-27,19-39,17-21-8-28-11-14,0-19-3,4-6,9-6,22-4,22-4l-11-12-22,8Z"/></g><g id="_1" data-name="1"><path class="cls-2" d="M12.09,66c-1.48.53-3.24,1.35-4.85,1.11S4.7,65.49,4,64.28a13.33,13.33,0,0,1-1.36-4.1c-.18-.86-.37-1.71-.51-2.57A10.58,10.58,0,0,1,2,56.38c0-.5.17-.62.38-1,.36-.72-.52-1.18-.9-1.68A9,9,0,0,1,.34,51.62a4.08,4.08,0,0,1,.33-3.87A2.78,2.78,0,0,1,2,46.65c.8-.32,1.56-.74,2.37-1a20.43,20.43,0,0,0,3.69-1.34,25.06,25.06,0,0,0,6.32-5.62c1.87-2.15,3.72-4.37,5.42-6.65,2.08-2.77,3.87-5.75,6-8.48a42.55,42.55,0,0,1,3.22-3.37c1-1.06,2.07-2.1,3.14-3.11,4.21-3.95,9.27-7.73,15.22-8.22A44.5,44.5,0,0,1,52.27,9a5.77,5.77,0,0,1,2.26.4c.53.23,1,.52,1.55.78,1.25.61,2.12.76,3-.48a18.08,18.08,0,0,1,3.48-3.52A27.74,27.74,0,0,1,71.16,1a23.4,23.4,0,0,1,9.27-.9C86,.6,91.52,2.55,96.69,4.67c4.52,1.85,9.56,4.38,12,8.84.28.5.46,1,.69,1.55a2.71,2.71,0,0,0,1.36,1.2c1.29.76,2.58,1.53,3.9,2.25a24,24,0,0,0,4.21,1.87,5.73,5.73,0,0,1,.88.24c.22.11.44.47.66.63s.41.21.61.38a3.82,3.82,0,0,1,.51.52,6.33,6.33,0,0,1,.9,1.2,13.06,13.06,0,0,0,1.32,1.89,21.34,21.34,0,0,1,2.59,3.59,16.1,16.1,0,0,1,1.95,6.13c.17,3.57-2,7-4.08,9.72A31.22,31.22,0,0,1,117.69,51a72.54,72.54,0,0,1-7.78,4.47c-9.8,5.17-19.69,10.16-29.51,15.3-.89.47-1.79.93-2.68,1.42a5.49,5.49,0,0,0-.59.39,20.89,20.89,0,0,1-4.2,2.14,21.2,21.2,0,0,0-3.85,2.44,17.78,17.78,0,0,1-4.46,1.93,45.9,45.9,0,0,1-10.48,2.48,28.69,28.69,0,0,1-10.72-.86,50.29,50.29,0,0,1-9.78-4.24c-2.12-1.12-4.82-1.93-6.46-3.75-.95-1.05-1.73-2.26-2.69-3.31a19.92,19.92,0,0,0-3.39-3,7.77,7.77,0,0,0-3.92-1.56A13.67,13.67,0,0,0,12.09,66Zm90.16-11.77s.6-.22.68-.24a1.67,1.67,0,0,0,.86-.56c-.22-.17-.68.16-.81,0s.37-.43.47-.49a25,25,0,0,1,2.38-1.24,17.13,17.13,0,0,0,2.08-1.54c.36-.23.82-.45,1.14-.68s.34-.44.52-.59a3.56,3.56,0,0,1,.48-.34c.12-.07.14-.15.31-.22s.38,0,.55-.11c.41-.21.41-.48.53-.86s.22-.41.6-.54c.17-.06.5-.19.65-.26a9.84,9.84,0,0,0,1-.62c.34-.2,1.35-1,1.14-1.54,0,0,.16.18.23.08a.21.21,0,0,0,.22-.16q.09-.13-.07-.23c0-.21-.2-.22,0-.46s.55-.18.67-.25c.3-.16,2.06-1.51,1.48-1.84-.3-.17-1,.34-1.29.47-.51.24-1,.43-1.54.7a6.48,6.48,0,0,0-1.27.9c-.16.14-.31.37-.48.35.24-.24.28-.53-.06-.58s-.46.28-.73-.07c1.2-.37,2.36-.92,3.52-1.38.75-.3,2.11-.8,2.48-1.59a1.5,1.5,0,0,0,0-1c-.1-.33-.44-.47-.44-.8,0-.17.2-.21.12-.43s-.24-.19-.32-.27-.19-.26-.31-.34-.38,0-.62-.06-.17-.33-.4-.48-.92.25-1.18.21-.53-.32-.83-.37a5.72,5.72,0,0,0-1.08,0,3,3,0,0,0-.59.07c-.18,0-.45.06-.59.11s-.11.16-.27.16-.06,0-.23-.1a2.16,2.16,0,0,0-.62-.16,12.2,12.2,0,0,0-3.4.76c-1.39.36-2.75.81-4.11,1.26a5.35,5.35,0,0,1-.85.36c-.26,0-.33-.28-.62-.38s-1.08.31-1.43.57c.16.2.36.16.58.24-.19,0-.34.2-.53.27s-.65.16-1,.28a12.77,12.77,0,0,1-1.94.51,8.86,8.86,0,0,0-2,1c-.62.33-1.23.71-1.87,1s-1,.23-1.5.51c-.69.37-1.42.66-2.13,1-1.38.66-2.72,1.46-4,2.22-.65.37-1.28.77-1.9,1.19-.26.18-.46.4-.79.31s-.34-.41-.63-.29c-.57.25,0,3.35,1.21,2.1a26.19,26.19,0,0,1,7.38-5.37,8.11,8.11,0,0,1-1.89,1.36c-.69.48-1.39.95-2.07,1.44A19.88,19.88,0,0,0,85.07,49c-.3.29-1.85,1.49-.84,1.6,1.75.19,2.92-1.32,4.12-2.31.7-.59,1.41-1.17,2.14-1.73s1.43-.91,2-1.38c.21.42-.68.83-.91,1-.6.43-1.17.89-1.72,1.37s-1,.94-1.55,1.36c-.31.24-1,.65-.29.69a1.92,1.92,0,0,0,.81-.19c.08,0,.16-.13.24-.16s.14,0,.17,0a4.41,4.41,0,0,0,.86-.76c.2-.19.51-.39.73-.6s.61-.59.9-.84a21.15,21.15,0,0,1,1.85-1.55,23.87,23.87,0,0,1,2-1.35c.39-.22,1.11-.4.49.2-.3.29-.69.48-1,.75s-1,.78-1,1.1c-.07.67.81,0,1-.16a37.3,37.3,0,0,1,3.16-2.23l4.4-3c.38.54-1,1.09-1.31,1.3-.67.44-1.33.9-2,1.36s-1.27.9-1.89,1.37c-.15.11-.77.44-.8.63-.05.35.36.21.54.12a14.59,14.59,0,0,0,3.38-1.57,8.54,8.54,0,0,1,2-1.2,1.28,1.28,0,0,1,.77-.15c.24,0,.52.15.55-.18.29.27,1.26-.3,1.56-.44.53-.25.91-.65,1.39-.93.19-.11.43-.08.68-.19s.47-.24.7-.36.84-.46.94-.18-2.47,1.6-2.87,1.82c-1.16.64-2.35,1.19-3.52,1.81s-2.32,1.11-3.42,1.76a17.92,17.92,0,0,0-1.49,1.07c-.34.25-.64.34-.35.7.13.16.33.24.45.41s0,.28.18.39,1.19-.4,1.48-.5l2.09-.76a3.66,3.66,0,0,1,1.88-.48c-.06.38-1.6.73-2,.88-.75.28-1.53.48-2.28.78s-1.31.6-2,.87-1.43.44-2.1.76-1.43.59-2.14.91a5.15,5.15,0,0,0-1,.54c-.23.18-.39.44-.62.61-.5.36-1.35.65-1.65,1.23-.14.27.23.7.22.72-.12.28,2,.18,1.93.14a3,3,0,0,1,.65-.2,2.15,2.15,0,0,1,1-.31c.27,0,1.19.26.91.66s-1.31.41-1.66.53a4.58,4.58,0,0,1-1.67.39,8.18,8.18,0,0,0-1.82.27c-.55.15-1.08.41-1.64.51a4.8,4.8,0,0,0-1.68.5c-.5.28-2,1.19-.75,1.51,1,.24,2.34-.4,3.27-.64.59-.15,1.17-.3,1.75-.48a3.74,3.74,0,0,1,1-.34c.16,0,.18-.09.26.12s-.07.21-.25.3a20.89,20.89,0,0,1-3.63,1.11,17,17,0,0,0-2.07.51c-.53.24-.93.71-1.51.86a3.9,3.9,0,0,0-1.63.57,2.27,2.27,0,0,0-1,1.23c.26.13.47-.12.72-.06s.34.31.57.37c.54.15,1.26-.34,1.74-.55a28.55,28.55,0,0,1,4-1.49c.09.37-.43.44-.74.58l-1.06.47c-.67.28-1.35.55-2,.82-1.32.53-2.63,1.11-4,1.52-.34.1-1.39.24-1.33.83s1.12.49,1.49.4c.68-.17,1.36-.38,2-.59s1.41-.7,2.06-.53a5.4,5.4,0,0,1-2.25,1l-2.7.94a6.8,6.8,0,0,0-2.29,1.06c-.25.21-1.43,1.16-.92,1.41.24.12.93-.31,1.15-.4l1.3-.56q1.31-.56,2.62-1.16L84.34,64a16.9,16.9,0,0,1,2.25-1.06c.19.63-.83.56-1.2.75s-1,.71-1.5,1l-3.53,1.61a34.59,34.59,0,0,0-3.4,1.67c-.38.23-.78.21-1.07.56a6.1,6.1,0,0,0-.9,1.62,20.66,20.66,0,0,0,2.4-1.23A4.81,4.81,0,0,1,79,68.26a11.85,11.85,0,0,0,3.06-1.75,20.28,20.28,0,0,1,1.81-1.16c1.23-.61,2.47-1.55,3.65-2.27.81-.49,1.78-.94,2.63-1.45.26-.16.91-.75,1.18-.73.91,0-.39.72-.56.81-4.28,2.32-8.17,5.41-12.62,7.42a15.67,15.67,0,0,0-2.79,1.42c-.35.25-2.38,1.95-1.52,2.38.56.28,1.77-.94,2.19-1.21,1.08-.7,2.21-1.34,3.32-2,2.47-1.43,4.93-2.91,7.43-4.29.54-.3,1.12-.46,1.33-1.09s.06-.68.59-1l.54-.35c.41-.25.32-.08.71,0s.78-.57,1.25-.41a.36.36,0,0,0,0,.48c.54-.61,1.46-.7,1.92-1.4-.4-.19-.56.18-.89.29-.11-.36.27-.45.47-.59s.54-.54.79-.64c.59-.23.76.57,1.26-.16a3.71,3.71,0,0,1,.61-.28c.37,0,.25.45.6.36.19-.05.3-.41.41-.54a3.28,3.28,0,0,1,.54-.42c.46-.33.91-.67,1.36-1,.23-.18,1.83-1.16,1.58-1.46s-2.21,1.15-2.48,1.26c.09-.43.07-.61.43-.84A11.76,11.76,0,0,1,99,57c.29-.14.59-.21.85-.34s.31-.23.74-.21c.71,0,1.16-.49,1.69-.94.26-.22,1.35-.86,1.23-1.28-1.11.28-1.74,1.38-2.77,1.8.09-.37.52-.46.38-.91a16.21,16.21,0,0,1-1.66,1c-.1.06-.29.18-.36.2-.35.14-.47,0-.82,0s-.76.63-1.11.42c-.56-.34-.11-1,.28-1.2a.59.59,0,0,1,.74.07c.08.08.18.36.24.36.26,0,.51-.51.69-.56s.52.16.8.08a5,5,0,0,0,.82-.45A5.59,5.59,0,0,0,102.25,54.18ZM80.33,47.35a4.59,4.59,0,0,0,1.14-.28c.68-.16,1.3-.56,2-.67a16.57,16.57,0,0,0,4.18-1.72,10,10,0,0,0,1.07-.46,3.36,3.36,0,0,0,.59-.39c.16-.17.24-.4.41-.53a8.07,8.07,0,0,1,1.23-.61c.14-.07.81-.29.71-.54s-.51,0-.67.08a7.53,7.53,0,0,0-.88.44c-.18.09-.62.14-.73.35a4.62,4.62,0,0,0-1.4.53c-1.17.49-2.32,1-3.53,1.43s-2.58.95-3.85,1.47a11.48,11.48,0,0,1-1.34.48c-.61.17-1.15.58-1.75.73-.37.1-.85,0-1.16.35s.2.41.6.35A11.51,11.51,0,0,0,78.36,48C79,47.79,79.73,47.52,80.33,47.35Zm25.09-32.16a1.68,1.68,0,0,0,.85-.29,5,5,0,0,0,1.32-.58,1.82,1.82,0,0,0,.55-1.35c0-.63-.43-.91-.86-1.28a6.42,6.42,0,0,1-.67-.86,2.62,2.62,0,0,0-1-.69,26.17,26.17,0,0,0-3.29-1.09c-.69-.18-1.4-.3-2.11-.41s-1-.51-1.58-.59A11.46,11.46,0,0,1,97,8a4.91,4.91,0,0,0-.88-.26c-.41,0-.77.14-1.17.14-.66,0-1.28-.34-1.94-.4-.83-.06-1.61.07-2.44-.07a7.38,7.38,0,0,0-2-.11,2.56,2.56,0,0,0-.68.2c-.4.14,0,.1-.39.08-.19,0-.31-.06-.48-.08a12.66,12.66,0,0,0-2.51-.07,7,7,0,0,0-1.71.16c-.26.09-.36.32-.61.41s-.57,0-.82,0c-.42,0-.85-.14-1.27-.13-.57,0-1.14.18-1.74.23s-1.48.24-2.23.33a1.45,1.45,0,0,0-.69.17c-.24.16-.27.31-.59.39s-1,.17-.34.45a8,8,0,0,0,2.22.15c.3,0,.59-.06.85,0,.5.05,1,.17,1.53.21s1,.19,1.48.28c.23,0,.67.17.27.28a3.94,3.94,0,0,1-1.18-.09l-4.84-.44a19.53,19.53,0,0,0-5.09-.17c-.84.15-1.67.39-2.49.62-.29.08-2.09.39-2.1.72s1.55,0,1.78-.08a2.25,2.25,0,0,1,1-.12,6.51,6.51,0,0,0,1.24-.14c.65-.1,4.45-.65,4.55.26-.56,0-1.17-.1-1.77-.1-.8,0-1.59.12-2.39.15a4.15,4.15,0,0,0-2.44.45c.41.38,1.57.13,2.07.1a6.05,6.05,0,0,1,1.05.06c.38,0,.4,0,.49.34-1.87,0-4-.24-5.95-.13a14.74,14.74,0,0,0-1.76.19c-.43.08-.93,0-1.35.15-.71.19-1.44.51-2.08.76s-1.17.29-1.75.5a7.61,7.61,0,0,0-1.26.63,4.35,4.35,0,0,1-1.36.49c-.25.06-.84.25-.63.59s1.11-.17,1.37-.19c.56,0,1.07,0,1.64-.12.23,0,1.18-.22,1.22.16a20.55,20.55,0,0,1-3.09.36,21.55,21.55,0,0,0-3.18.65c-.61.18-2.1.55-2.41,1.18-.14.28-.1.18.2.25a3.48,3.48,0,0,0,1-.05,47.84,47.84,0,0,1,4.86-.63c1,0,2-.06,3-.14a8.39,8.39,0,0,0,3.09-1.2s.31-.15.39-.21a2.27,2.27,0,0,1,.78-.48,2.65,2.65,0,0,1,1.69-.06c-.2.45-1,.52-1.41.7s-.65.27-.92.41-.83.18-1,.59a3.11,3.11,0,0,0,1.63,0c.34-.05.58.11.92.13s.61-.24.82-.1-.15.41-.4.46c-.47.1-1-.1-1.42,0s-1,.54-1.49.73-1,.34-1.42.54-1.08.75-1.43.4c1-.83,2.3-.91,3.36-1.59-.58-.4-2,0-2.64.23a2.56,2.56,0,0,0-1,.66c-.11.14-.15.32-.26.45s0,.27-.19.22a1.88,1.88,0,0,0-.4,0,4.43,4.43,0,0,0-2.19,1.11,5.33,5.33,0,0,1-1.09.71,11.18,11.18,0,0,0-1.14.67c-.22.13-.46.25-.55,0s.45-.27.08-.53-.85.07-1.09.1a2.76,2.76,0,0,0-.78.17,5.93,5.93,0,0,0-1.33.68c-.46.33-1.6.83-1.74,1.41a1.21,1.21,0,0,0-.58.23.69.69,0,0,0-.19.56c-.78-.06-1.51.77-2.07,1.24-.11.09-.57.41-.41.64s.71-.07.86-.08A22.3,22.3,0,0,0,48,24.9c.19,0,.63-.33.76.06s-.07.15-.19.21a13.84,13.84,0,0,1-2.31.4c-.75.18-1.33.31-2,.45a3.12,3.12,0,0,0-1.48,1c-.24.23-.52.45-.74.63s-.34.42-.56.56c.06-.65.78-1,.83-1.62a3.28,3.28,0,0,0-2.1.94c-.46.5-1.25,1.1-1.36,1.81.38,0,2.07-.82,2,0a3.34,3.34,0,0,0-1,.19c-.39.11-.66.32-1,.46-1,.38-2.13.78-3.18,1.2s-2.12.87-3.17,1.38c-.51.25-1,.47-1.55.73-.36.18-1.17.52-1.37.87-.11.19,0,.31,0,.5s-.21.53-.27.81a1,1,0,0,0,.13.89,2.11,2.11,0,0,1,.35.48c.08.2,0,.53.1.7.2.36.85.64,1.22.83s1.34.66,1.67.26c.2-.24.23-.54.45-.78.36-.41,1-.79,1.33-1.14.21.07.58-.35.72-.45a5.15,5.15,0,0,1,.82-.48c.65-.29,1.76-1,2.45-.76s-.15.49-.45.6l-.83.3a10.18,10.18,0,0,0-3.2,2c-.22.19-.85.56-.83.91s.88.43,1.12.7c.5.58-.59.29-.78.38s-.63,1.1-.68,1.45a3.7,3.7,0,0,0,.2,2.36c.28.6.83,1.56,1.66,1.6s1.39.12,2.09.1c.92,0,1.83-.21,2.74-.31,1.72-.18,3.61-.11,5.14-1-.27-.46-1.46-.06-1.89,0a22.94,22.94,0,0,0-2.43.35c-.19,0-1.36.55-1.19-.15.09-.37.39-.2.58-.21a2.49,2.49,0,0,0,.65-.13,10.74,10.74,0,0,1,1.46-.11c.72-.09,1.39-.27,2.09-.4a13.06,13.06,0,0,1,2.05-.11c.74,0,1.49-.13,2.23-.15.29,0,.63,0,.91,0,.05,0,.21-.13.3-.13a5,5,0,0,0,1,0,3.16,3.16,0,0,1,.39-.12c.44,0,1,.15,1.41.17.15,0,.35,0,.51,0s.57,0,.81,0,.58.09.74.1a7,7,0,0,0,.71-.06c.6,0,2,.28,2.48-.33a8.67,8.67,0,0,0-3-.68A5.77,5.77,0,0,0,53,42c-.43.07-.6.36-1,.34-1,0-2,.06-3,.07a8.61,8.61,0,0,0-1.17.13c-.18,0-.78-.07-.92.1a7.55,7.55,0,0,0-1.22.07c-.57,0-1.2.12-1.73.14-1.34,0-2.6.11-3.94.18a19.73,19.73,0,0,0-2.18.21c-.24,0-1.37.29-1-.33.14-.28,1.34-.15,1.62-.18.7-.06,1.39-.15,2.09-.18,1.36-.06,2.71,0,4.07-.14.71-.07,1.42-.16,2.13-.21a10.83,10.83,0,0,0,1.84-.48c.62-.14,1.26,0,1.9-.14a6.85,6.85,0,0,1,2-.14c.66,0,1.31,0,2,0s.9-.22.23-.56c.55-.34,1.46.05,2.06.07a9.26,9.26,0,0,0,2.11-.21c.92-.18,1.73-.37,2.56-.53,1.54-.3,3.07-.59,4.6-.94l2.14-.48c.56-.12,1.64-.6,2.18-.26-.38.43-1.19.49-1.7.62s-1.24.38-1.87.49c-.44.08-.48,0-.72.43-.1.16,0,.42-.33.48s-.51-.13-.75-.1c-.59.06-1.18.29-1.77.39s-1.35.15-2,.26c-.25,0-1.21,0-1.33.28-.24.46.82.52,1.07.58a4.78,4.78,0,0,0,1.58.3c.57,0,1.15-.17,1.72-.26A23.1,23.1,0,0,1,67,41.69a28.43,28.43,0,0,0,3.46-.38c.48-.07,3.07-.78,3.26-.17a.41.41,0,0,0-.24.21h-.59c-.09,0-.16.06-.2.06a4,4,0,0,0-1.14.2c-.64.16-1.28.15-1.94.25-1,.16-2.09.21-3.06.36-.46.07-1,.21-1.43.26a2.94,2.94,0,0,0-1.62.34,4.12,4.12,0,0,1,1.32.36,1.89,1.89,0,0,0,1.33,0c.58-.14,1.25-.18,1.85-.3l1.11-.22c.38-.07.83,0,1.24-.14a8.49,8.49,0,0,1,1-.29,9.36,9.36,0,0,0,1.25-.06c.58-.12,1.16-.23,1.74-.31.78-.11,1.63-.17,2.32-.25.51-.06,1.08-.21,1.6-.29s.81-.07,1.27-.12c.7-.07,1.37-.27,2.06-.37s1.17-.15,1.75-.27a2.74,2.74,0,0,1,1.58-.17c-.5.12-.93.39-1.44.49l-1.84.36c-1.1.21-2.22.38-3.31.56-2,.34-4.29.5-6.41.84-1.14.18-2.27.42-3.41.6-.19,0-1.45.05-1.39.38s1.21.15,1.36.12c1.15-.19,2.3-.3,3.46-.42.62-.06,1.25-.14,1.86-.26a6,6,0,0,1,1.54-.26,3.93,3.93,0,0,1-2.15.64q-1.23.21-2.47.35a7.78,7.78,0,0,0-2.41.32c-.18.1-.38,0-.28.32s.74.26.88.27a12.2,12.2,0,0,0,2.33-.29c.77-.09,1.54-.22,2.31-.33,1.32-.19,2.69-.38,3.85-.65a54,54,0,0,0,5.45-1.36c1.57-.53,3.18-.89,4.77-1.37.8-.24,1.59-.5,2.39-.76.52-.17,1.49-.28,1.56-1a1,1,0,0,0,.93-.11c.34-.16.85-.17,1.14-.33s.39-.44,0-.55l-.25.07a.66.66,0,0,1-.47-.13c-.27,0-.39-.09-.64.13a10.2,10.2,0,0,0,2.46-.57c.26-.09.36,0,.59-.05a5.69,5.69,0,0,0,.67-.24c.32-.11.74-.11,1.09-.19l.13-.15.24,0,.45-.11c.48-.15,1-.36,1.42-.54a42.89,42.89,0,0,0,5-2.2,41.92,41.92,0,0,0,3.8-2c.61-.42,1.05-1,1.65-1.42a19.49,19.49,0,0,0,2.12-1.77,17.21,17.21,0,0,0,3.22-3.59c.34-.55,1-1.54.81-2.22s-1.19-1.3-1.69-1.78a20.47,20.47,0,0,0-3.58-2.82,15.45,15.45,0,0,0-4.6-1.89c-.33-.07-2.22-.49-2-.94.07-.14.28-.1.38-.12a4.42,4.42,0,0,0,.79-.22S105.31,15.23,105.41,15.19Zm-.92,20a14.17,14.17,0,0,0-1.52.56c-.34.12-.65.33-1,.45s-1,.22-1.46.38c-.15.05-1.86.6-.91.86.52.14,1.72-.53,2.19-.73a22.12,22.12,0,0,1,2.66-.85,31.33,31.33,0,0,0,4.93-1.73,16.24,16.24,0,0,0,2.09-1,12.49,12.49,0,0,1,1.47-.74c.64-.32,1.16-.69,1.77-1s1.43-.65,2.09-1.05a2.37,2.37,0,0,0,1-1.47c.07-.23.28-.59,0-.66s-.75.51-1,.66c-1.45,1.1-2.91,2.2-4.42,3.21a4.19,4.19,0,0,1-.87.55c-.48,0,0-.17-.26-.42s-1,.37-1.1.45c-1,.53-2,1-3,1.4l-1.45.63C105.49,34.77,104.56,35,104.49,35.22ZM38.71,12.72c-.58,0-.93.43-1.4.69a12.7,12.7,0,0,0-1.86,1.39c-1.37,1.1-2.59,2.57-3.82,3.73-.86.81-1.65,1.69-2.48,2.54a8.35,8.35,0,0,0-.93.93c-.3.43,0,.53,0,1S27.9,24.1,28,24.57c0,.3.49.65,0,.74s-.57-.56-.56-.85c0-.53.37-1,.08-1.51-.22.3-.52.33-.63.71s-.11.93-.24,1.37-.47,2.66.63,2.15c.45-.21.17-.72.38-1s.57-.26.79-.53c.4-.48.93-1.67,1.59-1.54-.14.17-1.49,1.61-1.18,1.8a4.73,4.73,0,0,0,1-.38A3,3,0,0,0,31,24.76a14,14,0,0,0,.83-1.3A17.52,17.52,0,0,1,33,22.1l1.23-1.43a5.64,5.64,0,0,0,1.06-1.27c.19-.52-.31-.2-.71-.37a1,1,0,0,1-.65-.94c.13-1,1.63-.91,2.23-.53s.48.51,1,0,.83-.73,1.25-1.1,1.92-1.42,1.08-2c-.36-.25-.81-.06-.39-.69a1.29,1.29,0,0,1,.55-.51c.27-.1.48.06.76-.16C40.17,13,38.82,12.4,38.71,12.72ZM48.11,74c.09,0,.68-.39.82-.44a3.25,3.25,0,0,0,1.28-1,8.57,8.57,0,0,0,1.13-2,11.33,11.33,0,0,1,1.39-2.17c.14.93-.76,2-1.19,2.72-.13.23-.24.5-.37.73s-.24.26-.33.42c-.2.34-.17.64-.51.92s-.71.45-1,.73c-.13.12-.26.34-.43.4s-.47,0-.68,0-1.85.55-1.35.94a3.79,3.79,0,0,0,1.3.06,2.64,2.64,0,0,0,1.43-.61,5.35,5.35,0,0,0,2-1.9c.07-.16,0-.4.09-.53s.19-.18.36-.31a2.61,2.61,0,0,0,.74-1c.35-.67.65-2,1.45-2.31a10.82,10.82,0,0,1-1.9,4c.45.24,1.33-.74,1.69-1a4.79,4.79,0,0,0,1.57-1.48,15.2,15.2,0,0,0,1.15-2.26c0-.09.29-1,.6-.74s-.25,1-.3,1.1a25.35,25.35,0,0,1-1.17,2.47c-.22.4-.44.8-.69,1.19-.14.22-.49.59-.44.85s.43.38.18.66-.57-.08-.81,0c-.61.15-.7.91-1.41,1A8.63,8.63,0,0,0,54.49,72c-.82.48-1.6,1-2.37,1.58A15.62,15.62,0,0,0,50,75.09a2.94,2.94,0,0,0,1.73,0c.6-.12,1.25-.15,1.83-.32a4.32,4.32,0,0,0,2.24-1.94,25.25,25.25,0,0,0,1.94-3.17c.3-.6.5-1.24.78-1.85a11.35,11.35,0,0,0,.59-1.37c.49.29-.66,2.49-.83,2.9s-.48,1.08-.77,1.6a3.86,3.86,0,0,0-.73,1.52,4,4,0,0,0,1.39-.82c.44-.39,1-.68,1.36-1.1a10.06,10.06,0,0,0,1.68-3.08c.27-.62.38-1.37.69-2,.08-.15.11-.44.31-.22s-.1.49-.14.65a13.68,13.68,0,0,1-.61,2,7,7,0,0,1-.59,1.54,25.72,25.72,0,0,0-1.58,2.68c-.05.09-.34.18-.2.35s.35-.16.44-.24c.39-.34.74-.7,1.11-1.06a7,7,0,0,0,1.09-1.05,8.14,8.14,0,0,0,.75-1.89c.21-.63.38-1.23.64-1.84s.16-1.17.53-1.66c.54.32-.48,2.82-.63,3.3-.41,1.27-1,2.49-1.46,3.72a6.59,6.59,0,0,0,2.67-2.83c.12-.28.69-1.68.34-1.75-.17,0-.35.34-.54.12s.38-.83.43-.94a4.49,4.49,0,0,0,.18-1.93,8.64,8.64,0,0,1,.17-1,8.2,8.2,0,0,0,0-1.4,44.14,44.14,0,0,0-.17-5.12,7.58,7.58,0,0,0-2.15-4,15.86,15.86,0,0,0-3.29-2.5,13.67,13.67,0,0,0-2.54-1.25c-.21-.07-1-.43-1.19-.36s-.14.2,0,.39a7.13,7.13,0,0,0,.44.84c.18.16.35.06.59.18a6.29,6.29,0,0,1,.64.6c.63.51,1.39.47,2.08.8s.91,1.25,1.44,1.71a11.06,11.06,0,0,1,1.57,2,3.64,3.64,0,0,1,.94,2.32.27.27,0,0,0-.24-.09,2.28,2.28,0,0,0-.16-.39c-.13-.23-.38-.4-.49-.63a4.89,4.89,0,0,1-.15-.73,2.29,2.29,0,0,0-.45-.67,15.22,15.22,0,0,0-2.58-2.56c-2.22-1.77-4.7-3.48-7.61-3.59,0,.45.49.61.8.82A14.65,14.65,0,0,1,53.7,50.9c.83.72,1.72,1.45,2.51,2.21a2.55,2.55,0,0,1,.43.51c.11.18.14.51.25.65s.62.08.75.32-.13.29-.13.42a1.22,1.22,0,0,0,.13.46c.19.38.5.57.52,1-.58-.34-.81-1.44-1.48-1.55a8.24,8.24,0,0,0,.85,1.81c.22.44.53.52.44,1-.51,0-1.25-1.91-1.53-2.36-.57-.94-1.23-1.85-1.87-2.75a18.43,18.43,0,0,0-2.07-2.23,6,6,0,0,0-2.23-1.46,14.44,14.44,0,0,0-3.43-.27,27.23,27.23,0,0,0-3.67.14c-.45.06-2.88.25-2,1a2.42,2.42,0,0,0,2.32.16c-.06-.25-1-.22-.44-.53s1.4.19,1.79.3a7,7,0,0,0,1.9.43c.55,0,1-.07,1.43.4-.37-.33-1.38,0-.54.51a14.46,14.46,0,0,1,1.82,1.35,9.4,9.4,0,0,1,1.65,1.44,4.81,4.81,0,0,1,.54,1.72c-.65-.8-1.38-1.52-2.09-2.26-.27-.29-.63-.47-.9-.74s-.36-.63-.68-.88a6.2,6.2,0,0,0-5-1.13,8.82,8.82,0,0,0,1.63,1.19c.31.18.79.61,1.15.58s.27-.19.65,0a3.36,3.36,0,0,1,.5.29,6.75,6.75,0,0,1,1.14,1c.35.34.74.51,1.1.81a6,6,0,0,1,1,1.41,13.74,13.74,0,0,1,1.64,3.31c-.58-.35-.94-1.46-1.26-2-.22-.4-.42-.83-.67-1.21s-.25-.24-.59-.39C48,55,47.69,53.3,46.37,53c.14.38.54.63.82.9.11.11.39.3.44.45.12.35,0,.25-.23.19s-.44-.38-.57-.53A5.47,5.47,0,0,0,46,53.4c-.19-.14-.44-.35-.65-.53a5.31,5.31,0,0,0-.87-.56c-.52-.34-1.12-1-1.81-.77.3-1.32-3.59-1.22-4.23-.88.61.5,1.34.34,2.06.4a6.1,6.1,0,0,1,1.76.31c-.49.2-1-.07-1.51.22a2.91,2.91,0,0,0,1,.54,1.12,1.12,0,0,0,1,.4q0-.24.2-.16a1.29,1.29,0,0,1,.34.07,3.34,3.34,0,0,1,.62.29,11.94,11.94,0,0,1,1.57,1.1c.4.31.91.66,1.27,1s.41.53.65.76a1.88,1.88,0,0,1,.72,1.08c-.35-.08-.54-.43-.79-.68s-.77-.71-1.17-1c-.24-.2-1.44-1.48-1.62-1,.46-.37-1.05-1-1.35-1a11.83,11.83,0,0,0,1.2,1.18c.58.62-.19.33-.49.07A15.75,15.75,0,0,0,42.38,53c-.41-.26-1.09-.79-1.61-.66.11.36.61.52.92.72s.87.6,1.29.92.71.59,1.07.89.77.44.89.85-.06.44-.39.14-.69-.64-1.05-.95A22.08,22.08,0,0,0,40.85,53c-.43-.27-.44-.36-.62-.8a1,1,0,0,0-.66-.58,6.69,6.69,0,0,0-3.23-.1c-.22,0-.93-.05-.7.35.08.14.92.37,1.11.47a28.9,28.9,0,0,1,2.74,1.42c.49.31,1.77.9,1.9,1.52.19.86-1.29-.48-1.48-.6-.61-.39-1.37-.67-2-1.1a5.07,5.07,0,0,0-2.45-1.08,13.34,13.34,0,0,0-2.3.12,16.92,16.92,0,0,0-1.7.19c-.52.13-.52.29-.08.53.85.45,1.9.42,2.78.84a3.62,3.62,0,0,1,1,.86c.14.14.51.33.33.56s-.3,0-.39-.09a8.67,8.67,0,0,1-.94-.65c-.15-.1-.34-.41-.57-.22s.13.29.07.46c-.17.49-.4.19-.65,0s-.33-.23-.51-.33-.44,0-.54-.09c-.53-.26,0-.59-.42-.82s-.47.22-.46.53a5.59,5.59,0,0,1,0,.82,5,5,0,0,0,0,.89,4.61,4.61,0,0,1-.3,1.88c-.54-.59.39-2-.54-2.3-.2-.07-.5,0-.72-.09A5.59,5.59,0,0,0,29,55.4c-.29,0-.39-.06-.56.18a1.59,1.59,0,0,0-.11.85c0,.57,0,1.14-.07,1.71,0,.18-.06,1.11-.37.65,0-.07.12-.6.13-.73a7.72,7.72,0,0,0,0-.83c0-.56.29-2.17-.89-1.56-.44.23-.24.53-.19.93a5.57,5.57,0,0,1,0,.84,3.27,3.27,0,0,1,0,.69c-.33.58-.38-.52-.39-.65,0-.3,0-1.1-.14-1.34a.57.57,0,0,0-.83.05c-.21.4.34.5.58.66-.64.22-1,1.42-.85,2s1.38.68,1.85,1.18A8.88,8.88,0,0,0,25,59.53a15.07,15.07,0,0,0-2.62-.5A8.35,8.35,0,0,0,20,59c-.71.15-1.41.33-2.11.51a7.45,7.45,0,0,0,1.62.2c.57.06,1,.39,1.53.48.36.06.7-.18,1-.06s.29.29.52.33.44-.14.7-.15a12.13,12.13,0,0,1,1.69.43c.58.09,1.16.15,1.73.26,1.25.25,2.48.63,3.74.83-.82.38-2.09,0-2.92-.21a5.47,5.47,0,0,0-1.41-.3c-.56.07-.18.17-.18.42s-.12.22-.5.08-.85-.38-1.31-.52-2-.93-2,0a.8.8,0,0,0,.65.66c.38,0,.28-.25.52-.4.41-.24.32.09.43.41s.27.37.54.5a12.61,12.61,0,0,0,2.66,1.07c.29.07,1,.23.7-.29-.17-.31-.88-.4-1.15-.58a21,21,0,0,1,2.42.58,3.37,3.37,0,0,0,1.18,0c.4-.09.73-.35,1.12-.45,0,.42-.66.62-1,.72s-1.45-.07-1.82.25.47.55.8.57a2.72,2.72,0,0,0,1.06-.19c.19-.07.47-.31.67-.26.68.17-.26.59-.44.65a6.94,6.94,0,0,1-1.52.12A9.94,9.94,0,0,1,25,64c-.54-.18-.88-.15-.29.28s1.17.67,1.73,1c.82.53,1.82,1.79,2.94,1.51.51-.13.18-.3.42-.66s.94-.46,1.26-.6.7-.49.61,0-1.23.58-1.46,1c.36.2.43.1.77.09.18,0,.61,0,.68.22-1.25.32-2.56.15-3.83.37.31.49.55,1.08,1.14,1.29a6,6,0,0,0,2.23.18c.87-.07,1.75,0,2.55-.08a3,3,0,0,0,1.51-.81c.14-.11.6-.65.8-.57.35.15-.21.54-.24.57a7.29,7.29,0,0,1-1.09,1.05A8.37,8.37,0,0,0,33,70.23a4,4,0,0,0,2.6-.45,9.31,9.31,0,0,0,.93-1,5.23,5.23,0,0,1,.59-.64c.27-.19.18-.22.52-.06a3.72,3.72,0,0,1-.57.72,6.76,6.76,0,0,0-.57.66c-.12.25.13.32.08.51s-.48.31-.7.38a4.32,4.32,0,0,0-1.25.77c-.53.42-.6.69.18.67.55,0,1.44,0,1.85-.35.13-.12.21-.33.33-.47s.52-.45.76-.71c.44-.5.89-1,1.3-1.52a4.9,4.9,0,0,1,.61-.7,2,2,0,0,1,.39-.27.24.24,0,0,0,.31,0,21.29,21.29,0,0,1-2,2.36c-.19.21-.37.43-.54.66s-.4.38-.41.43c-.08.43.64.2.89.16a4.24,4.24,0,0,0,1.2-.22,3.3,3.3,0,0,0,1-1c.39-.47.79-.93,1.18-1.39s.52-.74.95-.86a9.7,9.7,0,0,1-1.89,2.62,4.72,4.72,0,0,1-.46.49c-.12.11-.37.26-.38.44,0,.56.53.15.82.24a2.62,2.62,0,0,1-1.24.61c-.48.14-.89.41-1.37.53a14.3,14.3,0,0,1-1.42.22,6.33,6.33,0,0,0-.91,0c-.43.13-.39.22-.05.47s.53.17.86.24c.54.12,1.06.33,1.64.45a4.34,4.34,0,0,0,2-.3A12.69,12.69,0,0,0,43.15,73a4.68,4.68,0,0,0,1.93-1.78c.61-1,1.41-1.78,2.1-2.68.23.62-1,1.84-1.32,2.28-.2.26-.71.72-.78,1s.21.43-.19.78A8.81,8.81,0,0,1,41.76,74c-.34.1-1.8.49-.81.86a3.76,3.76,0,0,0,2.5-.39,5.18,5.18,0,0,0,2.29-1.66,17,17,0,0,0,1.8-2.43c.23-.37,1.31-2.62,1.77-2.35a29.46,29.46,0,0,1-3.09,5,4.93,4.93,0,0,0,1.32-.49,4.4,4.4,0,0,0,1-1.22,16.65,16.65,0,0,1,2-2.65c0,.69-.54,1.32-.91,1.86s-.95,1.35-1.46,2a17.36,17.36,0,0,1-1.35,1.54c-.32.31-.82.53-.72-.11.26.11.52-.22.21-.33-.14,0-.19.18-.28.21s-.49.1-.72.19-1.94.85-1.8,1.1c.31.55,2,0,2.44-.14s.75-.47,1.15-.65S47.87,74.18,48.11,74Zm66.25-46c.33,0,.85-.48,1.15-.68a4.22,4.22,0,0,0,1.13-1.09,2.53,2.53,0,0,0,.34-.52,6.35,6.35,0,0,0,.47-.83c.1-.4-.3-.52-.28-.87l.64.43c.4-.43,0-1.32-.27-1.74a4.88,4.88,0,0,0-1.15-1.53c-.81-.45-.12.68,0,.92a3.81,3.81,0,0,0,.61,1.65c-.68-.29-.65,0-.89.59a7.75,7.75,0,0,1-1.24,2.11c-.5.61-1.09,1.12-1.61,1.71a6.73,6.73,0,0,1-.69.67.88.88,0,0,0-.4.75,5.63,5.63,0,0,1,1.23-.9C113.6,28.51,114.29,28.25,114.36,28ZM95.82,40.23a1.16,1.16,0,0,0,.6-.17c.14-.1.21-.39.35-.35l-.06-.05c-.16-.1-.85.34-.89.59a1.7,1.7,0,0,0-.58.08,1.12,1.12,0,0,0-.71.48,4.9,4.9,0,0,0,1.29-.58C96.2,40.2,95.76,40.28,95.82,40.23Zm26.45-15.5q.09,0,.09.08c-.22-.18.11-.42,0-.67s-.39-.31-.59-.39c.2.3.2.72.47,1C122.31,24.76,122,24.47,122.27,24.73Zm-12.93,7.89c.22,0,.19-.16.33-.22s.43-.09.64-.18c.54-.24,1.07-.47,1.6-.73a22,22,0,0,0,3.16-1.9,19.05,19.05,0,0,0,2.88-2.22c.45-.47.59-2.23-.32-1.34a17.07,17.07,0,0,1-2.41,2.23c-.94.63-1.93,1.16-2.92,1.69a12.61,12.61,0,0,0-2.56,1.88c-.59.53-1.64.79-2,1.6l1.61-.82C109.5,32.62,108.81,32.89,109.34,32.62Zm-9.58,5.44a4.52,4.52,0,0,0,2.17-.78,3.62,3.62,0,0,0-1.81.43c-.24.14-.32.39-.57.47a.79.79,0,0,0-.48-.09,1.89,1.89,0,0,0-.46.13c-.34.1-.45.1-.56.4s0,.62.38.52.4-.43.56-.58a3.37,3.37,0,0,1,.78-.5C100.49,38,99.69,38.1,99.76,38.06ZM50.29,79.18c.89,0,1.69,0,2.23-.78C51.91,78.5,50.58,78.54,50.29,79.18ZM96.43,39.09c-.78-.3-2,.41-2.72.74a14.86,14.86,0,0,1-1.87.71c-1.93.64-3.79,1.43-5.74,2-.94.27-1.85.63-2.79.92-.45.14-.91.28-1.36.43-.3.1-.93.16-1.14.36-.4.38.18.71-.58.84a7.15,7.15,0,0,1-2.56.39l.17-1a11.12,11.12,0,0,0-1.77.31c-.32.07-1.22.06-1.41.37.53.35.82.09,1.39,0,.77-.17.38.44.88.56-.31.44-1.16.42-1.63.51a13.44,13.44,0,0,0-2.25.37c-.53.2-.16.59.3.67a6.59,6.59,0,0,0,2.15-.41c.69-.17,1.31-.48,2-.67.36-.1.74-.17,1.1-.26a5.39,5.39,0,0,1,1.15-.35c.72.2-.89.6-1,.64-.82.19-1.61.52-2.42.74-.55.15-1.67.2-2.08.62-.19.19-.23.33,0,.54a.52.52,0,0,0,.19.13c.33.07.14,0,.29-.18s-.1-.17,0-.29a5.59,5.59,0,0,1,.56.14,2.44,2.44,0,0,0,1,0,13.61,13.61,0,0,0,2.32-1.09c2.82-1.29,5.83-2.16,8.68-3.44,1.65-.74,3.3-1.41,5-2,.79-.29,1.45-.77,2.21-1.09.6-.26,1.67-.49,2-1.15.39.29.43-.37,0,0C96.14,39,96.52,39,96.43,39.09ZM76.79,50.23c0-.31.59-.46.12-.72-.19-.11-.7,0-.88.1s-.59.16-.51.47c0,.13,1.07.07,1.3.14-.12.3-.83.25-.43.67s1,0,1.35-.09.73-.24.34-.56-.92.22-1.28,0C76.77,50,77,50.39,76.79,50.23Zm-65.5,5.85a1.84,1.84,0,0,0,1.61.17c.29-.05,1.11-.18.53-.6-.29-.21-1.13,0-1.46.07s-.74.48-1,.26-.23-.6-.57-.79-.83-.18-.82.23a3.76,3.76,0,0,0,1.13,1.11c.46.06.32-.48.6-.46C11.41,56.17,11,56.06,11.28,56.08Zm108.52-31a.13.13,0,0,0-.09-.21l.1-.27a1.5,1.5,0,0,0-.17-.73,6.51,6.51,0,0,0-1-1.32c-.4-.45-1.37-1.85-2.07-1.64a15.45,15.45,0,0,1,2.4,2.76,3.75,3.75,0,0,1,.8,1.36,4.14,4.14,0,0,1-.41,1.42,11.74,11.74,0,0,0-.64,1.26c-.11.36-.21.84.28.44a4.2,4.2,0,0,0,.77-1.28,1.93,1.93,0,0,0,0-1.8C119.82,25,120.13,25.67,119.8,25.07Zm-75.67-8.5c-.42.44-1.36.9-1.28,1.6a6.51,6.51,0,0,0,1.2-1c.26-.37,0-.51.11-.87s.68-.57.92-.8a1.77,1.77,0,0,0,.55-1.18A6.69,6.69,0,0,0,44,15.52a1.63,1.63,0,0,0-.42.74c0,.58.31,0,.55.31C43.86,16.85,44,16.35,44.13,16.57ZM16.9,45.11c0-.68.94-.65,1.32-1,.15-.13.36-.37.06-.52s-.52.2-.64.28a3,3,0,0,0-.68.65c-.26.38-.05.22-.06.57s0,.23-.25.4-.75.39-1.1.61-.63.41-1,.59c-.15.08-.57.21-.66.37-.36.67.59.39.86.23a12.21,12.21,0,0,0,1.66-1.25c.16-.13.63-.36.66-.56s-.28-.22-.23-.39S16.84,45.31,16.9,45.11Zm15.82-20.2a11.48,11.48,0,0,0-2,1.41A5.19,5.19,0,0,0,29.43,28c.55.31,1.78-.94,2.1-1.35s.42-.71.71-1A1.53,1.53,0,0,0,32.71,24.91ZM43.58,76c.2-.7-2.72-.69-3-.14s.78.44,1.06.38c.6-.14,1.39-.54,2-.24-.34.29-.86.17-1.2.42s-.07.44.35.48a12.92,12.92,0,0,0,3.41-.19,2.12,2.12,0,0,0,1.19-.55c.17-.23.23-.24-.09-.38a2.44,2.44,0,0,0-.71,0,8,8,0,0,0-1.66,0c-.34.06-1,.47-1.33.23C43.61,75.83,43.75,76.1,43.58,76Zm16.11,1.12a17.64,17.64,0,0,0-5.62,2.53c1.4.48,2.76-.45,3.93-1.14a10.67,10.67,0,0,0,1.47-.87,6.22,6.22,0,0,0,.56-.46c.05-.3-.25-.19-.34-.05C57.67,77.59,59.77,77,59.69,77.09ZM70.38,5.43s-.18.42-.2.44c.71,0,.82-.75,1.3-1.08-.15-.2-.81.06-.38-.39.25-.26.84-.2,1.15-.33a3.57,3.57,0,0,0,1-.69c.21-.19.76-.75.16-.7a7.51,7.51,0,0,0-1.51.7,3.57,3.57,0,0,0-1.33.78c-.31.35-.35.78-.75,1.06s-.83.23-1,.73C69.44,5.92,69.85,5.5,70.38,5.43Zm9.88-2.86c-.57-.33-.92-.47-1.31.13.47.21.95-.38,1.33-.13-.23.65-1.72.55-2.24.91a5.4,5.4,0,0,0-.87.77c-.12.52.51.16.72.29a18.24,18.24,0,0,1-2.82,1c-.74.29-2,.42-2.44,1.18a15.11,15.11,0,0,0,4-.61A18.38,18.38,0,0,1,80.75,5c-.43.15-3.2.81-3.18,1.21s2.93-.49,3.26-.52c.07.24-.84.75.16.58a7,7,0,0,0,1-.41c.4-.13.8-.23,1.21-.33a16.72,16.72,0,0,0,4.28-1.31,7.1,7.1,0,0,1-.77-.51,3.82,3.82,0,0,0-.83-.27c-.16,0-.44-.2-.62-.12s-.21.39-.39.53c-.34.25-1.55,0-1.65.56s1.17,0,1.46.12c0,.41-1,.53-1.38.62-.64.18-1.48.8-2.16.51.2-.16,1.27-.41,1.21-.72S81,5,80.77,5c.69-.32.07-1.36-.59-.93-.27.18-.48.66-.87.64-.19,0-.38-.2-.58-.23a5.11,5.11,0,0,1-.65,0C78,4,82.32,3.22,82.89,3.1a2.71,2.71,0,0,0-1.4-.5c-.32,0-1,.28-1.22,0C79.48,2.11,80.49,2.87,80.27,2.57ZM45.84,11c-.3.52,0,1.26.73,1,.35-.1.76-.62,1.05-.83s.83-.35.88-.62a1.84,1.84,0,0,1-1.08.17c-.32-.07-.51-.35-.8-.43s-.48.08-.66.07a3.48,3.48,0,0,1-.56-.13,2.24,2.24,0,0,0-1.3.1c-.27.08-1.73.29-.92.57a14.12,14.12,0,0,0,1.41.18A1.53,1.53,0,0,0,45.84,11Zm1.23,10.34c-.87-.14-1.85,1.1-2.41,1.63-.23.22-.61.47-.32.76s.39.08.55,0,.47-.13.7-.17A6,6,0,0,0,48,22c.28-.23.9-.5,1-.72.31-.47-.32-.15-.33-.64a5.48,5.48,0,0,0,2.8-.94c.21-.13.69-.38.33-.67-.15-.12-.34,0-.48,0s-.22,0-.42-.25a13.54,13.54,0,0,1,1.76-.16,4.7,4.7,0,0,0,1.06-.31c.25-.06.36.06.56.06a.2.2,0,0,0,.26.07l.17-.15,1.07-.08a3.41,3.41,0,0,0,1-.13,9.93,9.93,0,0,0,1-.59c.24-.14.87-.28.54-.61a5.8,5.8,0,0,1-.63,0,6.61,6.61,0,0,0-.89,0,56.4,56.4,0,0,0-7,.84,8.76,8.76,0,0,0-2.46.82c-.23.12-1,.27-.87.66s.95-.15,1-.24,0,.07-.08,0c.21.19.63-.12.82.35a19.91,19.91,0,0,0-3.35.73,8.62,8.62,0,0,0-2.64,1.71c.94-.18,1.85-.42,2.8-.53a5.29,5.29,0,0,0,1.16-.19c.36-.12.69-.5,1-.57,0,.25.2.42.2.66a.67.67,0,0,0-.48.11C46.64,21.28,47.13,21.26,47.07,21.35ZM73.18,62.72a3.38,3.38,0,0,0,.14-1.07,7.89,7.89,0,0,1-.08-1.32c.14-.44.35-.07.39.23a9.92,9.92,0,0,1-.08,1.51c0,.93-.11,1.87-.25,2.79a11.64,11.64,0,0,0-.48,2.89,8.51,8.51,0,0,0,1.31-2.48,2.31,2.31,0,0,0,.1-1.43,6.71,6.71,0,0,1,.1-1.25c.13-1.79-.66-3.5-1.3-5.14a8.33,8.33,0,0,0-1.44-2.15c-.58-.75-1.09-1.55-1.72-2.27-.3-.34-.56-.8-1-.86s-.41.11-.62-.22,0-.36-.29-.55a5.44,5.44,0,0,0-1.12-.72,1.79,1.79,0,0,0-.23.84c.08.31.6.62.81.83A13.85,13.85,0,0,1,69,54.11c.23.34.24.42.59.62a2.34,2.34,0,0,1,.71.6A4,4,0,0,1,71,57.24a9,9,0,0,1,.26,2.34c0,.93.07,1.91,0,2.8,0,.3.17,1.78-.42,1.7s.49-1.16-.11-1.39a9.66,9.66,0,0,0-.56,2.15,7.2,7.2,0,0,0-.3,2.12,6.74,6.74,0,0,0,1.11-1.41,8.44,8.44,0,0,0,.52-1.93c.11-.62.18-1.22.33-1.83,0-.18,0-.49.1-.64-.08.1.43-.13.37-.11a1.17,1.17,0,0,1,.16-.35q.41,0,.27.42a5.22,5.22,0,0,1,0,.89,10.16,10.16,0,0,1-.18,2.1c-.15.67-.14,1.37-.3,2a3.38,3.38,0,0,0-.29,1.69,5.21,5.21,0,0,0,.75-2.53c.08-.46.14-.92.24-1.37a6.89,6.89,0,0,0,.32-1.21S73.17,63,73.18,62.72Zm-3.71-7.8c0-.29-.73-.82-1-1.09-.52-.51-1-1-1.53-1.54a12.74,12.74,0,0,0-3.15-2.46A18.43,18.43,0,0,0,61.9,49c-.32-.13-.65-.27-1-.37s-.56-.15-.3.19,1.11.62,1.5.9c.67.48,1.32,1,2,1.5s1,.87,1.54,1.28.71.13,1,.4a5.76,5.76,0,0,1,1,1.72c.33.66.63,1.34.94,2a8,8,0,0,0,.88,1.73c.17.19.34.15.5.32s.15.5.17.69a15.36,15.36,0,0,1,.1,1.91c0,.47-.1,1,.24,1.37s.17.32.37,0A2.73,2.73,0,0,0,71,61.48c0-.85-.07-1.72-.13-2.57a6.13,6.13,0,0,0-1.35-4C69.48,54.74,70.47,55.94,69.47,54.92ZM62.42,72.65c-.13-.56.6-.86.54-1.42-.35,0-.69.51-.94.71-.52.42-.94.92-1.43,1.36-.23.2-.92.6-.32.73s1.52-.69,1.93-.89c2.4-1.19,3.31-3.62,3.92-6.08a6.17,6.17,0,0,0,.26-.94c0-.29-.1-.56-.1-.86,0-.78.2-1.6.23-2.39.07-1.49.16-3,.17-4.5,0-.3,0-.6,0-.91a3.82,3.82,0,0,1-.09-1c.05-.17.25-.22.27-.39s-.23-.48-.32-.63A21.72,21.72,0,0,0,64,52.21c-.34-.37-.38-.85-.74-1.19a8.73,8.73,0,0,0-1.12-.72,10.12,10.12,0,0,0-3-1.62c-.55-.16-1.09-.36-1.64-.52A14,14,0,0,0,55.93,48a34.87,34.87,0,0,0-4.49-.28,29.91,29.91,0,0,0-4.48.07c-.2,0-1.51,0-1.57.33s1.38.27,1.63.28c1.45.06,2.9.09,4.35.19.72,0,1.43.11,2.14.21.54.08,1.08.36,1.49,0,.21-.18.15-.3.48-.31a2.75,2.75,0,0,1,.78.19,11,11,0,0,1,1.78.73,34.14,34.14,0,0,1,3.76,2.11,12.54,12.54,0,0,1,1.44,1.38,3.3,3.3,0,0,1,1.09,1.3,13.66,13.66,0,0,0,.86,1.71c.27.53.73,1.11.64,1.7-.11-.1-.47-.86-.67-.82s-.07.74-.06.89a15.42,15.42,0,0,0,.15,2.69c.07.28.27.47.34.75a4.6,4.6,0,0,1,0,1.19,11.36,11.36,0,0,1-.12,1.41,1.83,1.83,0,0,0-.07.91c.13.32.35.3.28.73s-.21.68-.3,1a6.62,6.62,0,0,0-.4,1.46c0,.3.17.47.14.74s-.5.77-.65,1a11.79,11.79,0,0,0-.68,1,9,9,0,0,1-.66,1.11,5.24,5.24,0,0,0-.74,1C62.28,72.07,62.7,72,62.42,72.65ZM8.79,56.37c.41-.22.86.74,1.08.21s-1.22-1.23-1.5-1.43c-.46-.32-1.29-1.15-1.89-1.1s-1.42.92-1.92,1.3C5,54.3,6.77,54,6.67,52.86a2.78,2.78,0,0,0,1.46,0c.27,0,.89-.17.38-.45a3.36,3.36,0,0,0-1.34,0,3,3,0,0,0-1.45.65c-1.4,1-2.7,1.7-2.75,3.63a9.89,9.89,0,0,0,1.26,5.56c.43.7,1,1.75,1.77,2.1a9.44,9.44,0,0,0,3.43.37A4.76,4.76,0,0,0,12,64.24c.62-.37,1.8-1.18,2-1.89.37-1.15-1.26.43-1.51,0-.37-.66,1.75-1,1.89-1.27.22-.44-.85-1.17-1.26-1.17s-.65.44-.94.43c-.53,0-.18-.55.11-.7a3.63,3.63,0,0,1,1.35-.22c.24,0,.79.36.84-.06,0,.06-.45-.89-.45-.9-.23-.4-.57-.34-1-.31a8.9,8.9,0,0,0-1.71.23c-.21.06-1.13.57-.92,0,.12-.33.56-.3.83-.39.51-.16.39-.21.24-.65s-.13-.44-.54-.23c-.1.05,0,.29-.18.31s-.21-.26-.33-.32c-.68-.28-.4.35-.36.75a1.63,1.63,0,0,1-.48,1.34c.53-1.13-.25-2-.87-2.84C9.06,56.23,9.4,57.24,8.79,56.37ZM29.92,51.2a3.51,3.51,0,0,1-.84-.58c-.19-.25-.06-.45-.16-.73-.16-.44-.83-.83-1.21-1.07a11.35,11.35,0,0,1-1.16-1c-.46-.38-1.22,0-1.75.18a6.42,6.42,0,0,0-1.56.5,11.71,11.71,0,0,1-1.82.93c-1.3.55-2.45,1.42-3.77,1.91a6.51,6.51,0,0,0-1.88,1c-.64.52-.21.65.45.81a12.75,12.75,0,0,0,4.56-.13c1.49-.21,3-.27,4.48-.54a25.23,25.23,0,0,0,4.65-1.33C29.65,51,29.17,51.48,29.92,51.2Zm-23.45-3c-.31.51-1.14.52-1.65.68a5.79,5.79,0,0,0-1.6.61,2.1,2.1,0,0,0-.82,1.18c-.05.32.22,1,.61,1s1.12-.57,1.65-.61l1.89-.16a10.83,10.83,0,0,1,2.1,0,8.47,8.47,0,0,0,2.25.22c.6-.11.34-.57.25-1.07a4,4,0,0,0-.54-1.62c-.76-1.12-2-1.22-3.22-1.12-.72.06-1.46,0-2.18.06a.86.86,0,0,0-.46.12c-.21.15-.14.44-.39.55S3.89,48,3.63,48s-.33.21-.47.32c-.36.29-1.12.67-.92,1.23a8.14,8.14,0,0,1,4.23-1.37C6.27,48.52,5,48.28,6.47,48.18ZM64.82,71.94a4.7,4.7,0,0,0,1-.52c.22-.17.37-.55.59-.65s.29.1.54-.12a10.7,10.7,0,0,0,.87-1,7,7,0,0,0,1.32-2.25c.25-.68.85-1.84.55-2.56-.59.14-.68.7-.87,1.18a4.39,4.39,0,0,1,.18-1.9A20.2,20.2,0,0,0,69,62a13.27,13.27,0,0,0-.14-4.08,13.37,13.37,0,0,0-1.55-3.26,6.79,6.79,0,0,0-1.19-1.18c-.37-.35-.47-.91-1.06-1a2.46,2.46,0,0,0,.66,1.19,3.81,3.81,0,0,1,.7,1c.42.86,1,1.62,1.46,2.48a4.82,4.82,0,0,1,.68,2.55,29.39,29.39,0,0,0-.22,3.49,6.55,6.55,0,0,1,0,1.63A12.5,12.5,0,0,0,68,66.29a3.14,3.14,0,0,1-.36,1.42c-.21.42-.3.87-.48,1.3a4.43,4.43,0,0,1-.48,1.1c-.3.18-.26-.32-.61-.16-.18.09-.45.58-.58.74a3.59,3.59,0,0,0-.69,1.25C65.2,71.76,65.07,71,64.82,71.94ZM39.48,27.47c-.69-.22-1.9.57-2.53.83-.91.38-1.82.77-2.7,1.22-1.6.81-3.05,1.57-3.88,3.24.53.38,1.7-.54,2.16-.76,1-.45,2-.82,3.07-1.23l1.47-.59a3.08,3.08,0,0,0,1.13-.54c.3-.33.42-.85.71-1.21s.55-.54.55-1C39.17,27.37,39.48,27.76,39.48,27.47Zm2.73-2.75c-.34-.4-2.19.3-2.68.42a13.56,13.56,0,0,0-2.6.81,12.52,12.52,0,0,0-2.22,1.8c-.24.2-2,1.53-1.43,1.73.28.1,1-.33,1.22-.45.44-.19.87-.41,1.3-.61.81-.38,1.63-.73,2.46-1.05a8.45,8.45,0,0,0,2.3-.95,14.28,14.28,0,0,0,1.65-1.71C42.08,24.56,41.33,25.66,42.21,24.71ZM97.13,37.79c-1.29.35-2.6.65-3.86,1.11S91,40.06,89.8,40.48s-2.6.74-3.9,1.11-2.66.92-4,1.33c-.44.13-3.29.71-3.09,1.28s2.59-.45,3-.57c1.12-.35,2.27-.84,3.4-1.09a31.41,31.41,0,0,0,4-1.31c1.4-.51,2.81-1,4.18-1.59l2.21-.92c.39-.16,1.6-.39,1.59-.93C96.73,37.89,97.14,38.13,97.13,37.79Zm-81.4,3.6c1.13,0,1.64-.87,2.42-1.52s1.81-1.6,2.74-2.36c.35-.29,1-.56,1.2-1s0-.67.39-.93.68-.27,1-.67a6.05,6.05,0,0,0,.62-1.35c-.45.19-.94.25-1.38.45a2.74,2.74,0,0,0-1.08,1l-1,1.32a7.6,7.6,0,0,0-.83,1.36c-.38.8-1.36,1-2,1.53s-2,1.31-2,2.1C16.46,41.36,15.74,41,15.72,41.39ZM38.14,24.87A3.24,3.24,0,0,0,40,24.66c.78-.2,1.57-.35,2.35-.55a3,3,0,0,0,1.51-.87c.21-.23.4-.47.63-.69s.65-.42.65-.54c0-.64-3,.34-3.53.48a7.93,7.93,0,0,0-3.47,2.37C38.57,25,38.73,24.21,38.14,24.87ZM57.05,79.54A2.24,2.24,0,0,0,59.12,79a13.16,13.16,0,0,1,2.17-1.1,11.19,11.19,0,0,0,2.08-1.58c.51-.46,1.69-1.21,1.82-1.87A30.45,30.45,0,0,0,60.93,77c-.64.45-1.3.88-2,1.3a9.68,9.68,0,0,0-1.92,1.23C57.94,79.77,57.58,79,57.05,79.54ZM59,71.62c-.35-.17-1.42.89-1.73,1.1a13.56,13.56,0,0,0-1.48,1.18,14.56,14.56,0,0,1-1.68,1.19c-.36.25-1,.62-.4.84a3,3,0,0,0,1.75-.38,8.6,8.6,0,0,0,1.53-.95,8.06,8.06,0,0,0,.68-.51,2.06,2.06,0,0,0,.49-.83c.18-.39,1.05-1.19.84-1.64C58.78,71.53,59.06,71.84,59,71.62ZM72.55,5c.83-.28,1.68-.52,2.5-.83.25-.09.55-.18.69-.44s-.06-.53,0-.8c.25-1,1,.15,1.42.21s1.1-.69,1.25-1.06a18.46,18.46,0,0,0-2-.3c-.62,0-1.17.51-1.66.87-.73.54-2.19,1.33-2.26,2.35C73.43,4.67,72.57,4.55,72.55,5ZM61.2,74.32c-.69-.22-1.63.35-2.26.6-.4.15-1.95.92-1.86,1.34s.44,0,.08.4-1,.34-1.26.46c-.48.2-2.12.76-2.23,1.34a6.16,6.16,0,0,0,2.54-.64c.45-.2.81-.5,1.24-.73.19-.1.89-.19.85-.5s-.37-.09-.46-.31.9-.49,1.09-.56a4.77,4.77,0,0,0,2.26-1.41C60.88,74.21,60.3,75.46,61.2,74.32Zm5.7-9c.49.06.77-1.12.86-1.46A11.07,11.07,0,0,0,68,61.37c0-.82.06-1.64.06-2.46a3.15,3.15,0,0,0-.74-2c-.41.35-.22,1.48-.23,2,0,.77-.05,1.54-.12,2.31a7.15,7.15,0,0,0,0,2.1,3.19,3.19,0,0,1,.07,1c0,.28-.21.7-.1,1C67.19,65.31,66.84,65.1,66.91,65.28ZM120,30.46c.12-.2.4-.73.08-.91s-.63.43-.8.65-.53.63-.77,1-.38.82-.65,1.17a5.45,5.45,0,0,1-2.14,1.48c-.37.16-2,.8-1.06,1.06.58.15.95.35,1.53.05a3.71,3.71,0,0,0,1.43-1.18c.13-.22.13-.47.25-.7a3.07,3.07,0,0,1,.77-.73C119.06,32,120,31,120,30.46,120.14,30.25,120,30.94,120,30.46ZM41.52,13c-.61.3-1-.45-.88.46,0,.22.08.76-.24.8-.11,0-.37-.55-.46-.07,0,.11.2.41.33.42s.48-.32.62-.39c.62-.31,1-.91,1.55-1.25s1.19-.47.67-1.16a1.53,1.53,0,0,0-1.57-.37c-.3,0-1.94.28-1.8.8.09.32,1.49.52,1.78.77C41.24,13.18,41.16,12.74,41.52,13Zm-2.77,3.6A31.05,31.05,0,0,0,33.08,23a3.35,3.35,0,0,0,1.57-1.21,13.08,13.08,0,0,1,1.72-1.62,9,9,0,0,0,1.48-1.63c.31-.44,1.16-1.31.9-1.9C36.61,18.6,38.87,16.92,38.74,16.64ZM44.52,78.5c.47.2.48.17.84,0a.72.72,0,0,1,.25-.27,1,1,0,0,1,.28.2c.21-.05.34-.25.56-.31.55-.14,1,.29,1.58.11a7.85,7.85,0,0,0,1.48-.71c.5-.32.68-.71-.09-.7s-1.4.12-2.08.19c-1.14.13-2.43.28-2.82,1.53C45.14,78.76,44.6,78.26,44.52,78.5ZM115,31.93c-.59-.14-1.64.7-2.13,1-.77.4-1.54.79-2.32,1.15s-1.67.75-2.52,1.07c-.31.12-2.24.63-2,1s1.75-.41,2.07-.51c.84-.27,1.67-.54,2.48-.88a18.69,18.69,0,0,0,2.28-1.18,6.52,6.52,0,0,0,2.14-1.6C114.58,31.83,114.61,32.39,115,31.93ZM29.51,55.27c.21.06.75.32,1,.14s.19-1,.17-1.23,0-1-.25-1.13-1.11.14-1.41.2c-.61.13-1,.14-.9.82a2.29,2.29,0,0,0,.15.55c.2.25,0,.07.35.19a9.35,9.35,0,0,1,.92.46C29.71,55.33,29.17,55.13,29.51,55.27Zm50.34-6c.69-.48,1.56-.56,2.13-1.23a11.52,11.52,0,0,0-3.1.9c-.24.08-1.18.18-1,.6.07.15.35.09.47.2s.13.37.35.52a2.57,2.57,0,0,0,2.12-.19c.27-.14.59-.4.37-.74s-.92.08-1.37,0C80.48,48.84,80.21,49.39,79.84,49.28ZM17.13,38.89c.35.14.94-.43,1.24-.66a5.22,5.22,0,0,0,1.25-1.3c.32-.47,2.08-2.33,1.78-2.82s-.89.35-1.07.6c-.36.5-.8.94-1.11,1.47a5.85,5.85,0,0,1-1.07,1.24,11.72,11.72,0,0,0-1,1.45C17.25,38.94,17.59,38.25,17.13,38.89ZM70.91,6.57c.46.55,2.19-.55,2.68-.74s2.75-.47,2.82-1.33c.06-.69-.67-.31-1-.18l-1.78.62c-.92.33-2.34.57-2.69,1.63C71.11,6.81,71.09,6,70.91,6.57ZM25.28,25.84a2.26,2.26,0,0,0-.65.92c-.18.46,0,.49.17.92s.28,1.56,1.09,1.47c.35,0,.44-.45.59-.71s.46-.5.16-.85a4.06,4.06,0,0,1-.7-.8,3.12,3.12,0,0,0-.65-.94C24.94,26.1,25.61,26.12,25.28,25.84Zm4.76.35a4,4,0,0,0-1.29.42c-.31.12-.73.14-.91.46-.09.16,0,.35-.11.5s-.29.21-.37.29a1.57,1.57,0,0,0-.5,1.16,3,3,0,0,0,1.82-.76A22.33,22.33,0,0,0,30,26.18C29.37,26.21,29.57,26.79,30,26.18ZM54.26,76.51c.16-.53-2.22.11-2.51.21-.47.17-.92.37-1.37.58-.23.11-1.18.37-1.27.62-.18.51.71.21.9.17.57-.11,1.15-.19,1.71-.34a7.8,7.8,0,0,0,1.3-.49c.31-.15,1.08-.42,1.23-.75C54.29,76.41,54.21,76.62,54.26,76.51ZM91.91,5.33a2.81,2.81,0,0,0-1.71.08l-1.91.37c-.28.05-3,.49-2.26,1,.29.17,1.25-.14,1.56-.21.56-.12,1.11-.21,1.67-.29S90.4,5.91,91,5.76c.34-.09.72-.1.93-.44C91.55,5.15,91.68,5.7,91.91,5.33ZM59.84,44.72c1.23.9,3.91,1.08,4.62.39C63,44.2,61.4,44.5,59.84,44.72ZM33.6,69c-.93,0-1.86.17-2.8.15-.66,0-1.85-.16-.81.64.73.55,1.16.91,2,.44.55-.31,1.37-.58,1.6-1.22C32.32,69,33.4,69.5,33.6,69ZM84.42,2.58a11.47,11.47,0,0,0-1.18-.72,3.44,3.44,0,0,0-1.53-.42,7.7,7.7,0,0,0-3.52,0,15.22,15.22,0,0,0,3.12.69,11.76,11.76,0,0,0,3.11.5C84.06,2.26,83.94,2.63,84.42,2.58ZM41.5,26.15c.59.4,1.63-.23,2.12-.56.3-.21,1.72-1.15,1.68-1.52-.08-.62-1.75.14-2,.34a8.4,8.4,0,0,0-1.75,1.75C41.7,26.28,42.45,25,41.5,26.15ZM25.28,30.84c.53-.92-.9-.36-1.3-.32s-.59,0-.9.25a2.75,2.75,0,0,0-.66.9c-.19.67.65.42,1.09.29.64-.19,1.5-.42,1.76-1.11C25.38,30.67,25.15,31.19,25.28,30.84Zm40,44.61A7.07,7.07,0,0,0,69,72.32,7.64,7.64,0,0,0,65.26,75.45ZM55.61,19c.33-.62-1.56-.25-1.82-.17-.42.13-1.79.6-1.93,1.08s.29.32.57.28a2.29,2.29,0,0,1,.64-.07c.17,0,.32.14.49.12A4.37,4.37,0,0,0,55.61,19C55.71,18.79,55.53,19.06,55.61,19ZM52.94,75.46c-.12-.32-1,0-1.34,0-.52.06-1,.1-1.56.15-.28,0-2.32.23-1.93.82.27.41,1.9,0,2.31-.07,1-.14,1.86-.08,2.52-.9C52.92,75.4,52.63,75.85,52.94,75.46Zm15-10.6c-.19.13-.2.34-.35.48s-.35.23-.51.37a2.2,2.2,0,0,0-.59,1.19,6.43,6.43,0,0,0-.5,2.56,8,8,0,0,0,1.94-4.6C67.64,65,67.74,66.64,67.91,64.86ZM21,58.18c0,.49,2,.46,2.5.54s.88.36,1.14.11a.66.66,0,0,0-.11-1,.79.79,0,0,0-.9.2c-.4.31-.19.32-.51,0s-.22-.32-.64-.28a8,8,0,0,0-1.48.44C21,58.24,21.46,58,21,58.18Zm-3.73,2.63c.42.19,1,0,1.4,0a14.56,14.56,0,0,1,1.59.09,1.17,1.17,0,0,1,.57.15c.15.11.18.31.32.4.32.22.62,0,.6-.41,0-.73-1.64-.68-2.19-.72s-2.29-.37-2.29.51C17.49,60.91,17.27,60.44,17.27,60.81ZM68,71.15a6.51,6.51,0,0,0,1.71-1.86,3.53,3.53,0,0,0,.63-2.24A12.13,12.13,0,0,0,68,71.15C68.77,70.74,68.65,69.71,68,71.15ZM57.32,75c1,.21,4.34-3.06,3.61-3.54-.41-.27-.56.48-.67.66a5.34,5.34,0,0,1-1,.91c-.4.36-.75.77-1.16,1.12-.26.22-.8.43-.74.85C57.64,75.06,57.28,74.69,57.32,75Zm-.24-32.7a16.81,16.81,0,0,0,2.45.38c.2,0,1.06,0,1.1-.26s-.71-.35-.83-.38a8.58,8.58,0,0,0-2.56-.33c-.78,0-.84.32-.15.6C58.09,42.44,56.87,42.2,57.08,42.29ZM15.53,45a14.85,14.85,0,0,0-2.16,1c-.27.14-2,.76-1.34,1.1.79.43,3.21-1.39,3.5-2.08C14.27,45.42,15.3,45.55,15.53,45Zm-2-3.1c.55.2,1.68-.93,2.07-1.28s1.57-1.13,1.24-1.49-1.41.79-1.66,1-.62.63-1,.92-.71.42-.68.81C13.72,42,13.54,41.67,13.56,41.91Zm7.73-3.83c-.51-.15-1.4.91-1.74,1.2s-.57.58-.9.82-.72.31-.81.63c-.14.48.31.52.63.34a5.4,5.4,0,0,0,.9-.78,13.51,13.51,0,0,0,1.93-2.2C21,38,20.53,39.18,21.29,38.08ZM60,43.37a7.68,7.68,0,0,0-2.77,0c-.58.07-1,.4-.19.64a1.58,1.58,0,0,0,.86,0,5.68,5.68,0,0,1,1.31,0c.23,0,.92.13,1.11-.09s-.06-.45-.32-.53Zm-4.64,1.51c.56.49,1.29.27,2,.46.36.1,1.81.65,2,.22s-1.07-.41-1.32-.47a8.39,8.39,0,0,0-2.73-.21C55.66,45.09,56.16,44.82,55.41,44.88ZM72.22,62.05c-.46.06-.55,2.08-.66,2.5s-.82,2.38-.47,2.58c.64.35.86-1.83.89-2.1.12-.83.58-2.2.23-3C72,62.08,72.31,62.25,72.22,62.05ZM112.39,19c-.05.69,1.22,1.4,1.68,1.81a14.84,14.84,0,0,1,1.19,1.05c.18.2.32.66.62.35s-.81-1.65-1.12-1.88c-.73-.55-1.61-.84-2.38-1.33C112.36,19.36,113.37,19.6,112.39,19ZM59.49,76.41c.56.33,1.67-.42,2.19-.68.68-.34,1.47-.75,1.72-1.52a12.58,12.58,0,0,0-3.91,2.2C59.71,76.54,60.62,75.34,59.49,76.41ZM64,46.07a2.59,2.59,0,0,0,1.65.76c.34.06,1.62.21,1.82-.16s-1-.7-1.21-.74a9.73,9.73,0,0,0-2.26.13C64.29,46.48,64.65,46,64,46.07ZM42.14,17.68c-1.29,0-2.21.86-2.65,2.4A10,10,0,0,0,42.14,17.68ZM12,45.66c.79.2,1.48-.62,2.08-1,.32-.22,2-1.15,1.66-1.58A18.16,18.16,0,0,0,12,45.66C12.27,45.74,13.17,44.73,12,45.66Zm7.29-4.24A14.38,14.38,0,0,0,15.92,44,6.46,6.46,0,0,0,19.24,41.42Zm51.7,4.19a1.5,1.5,0,0,0,1.68.64c.45-.05,1.5-.1,1.64-.54.22-.7-.61-.45-1-.4l-2.36.31C71.22,46.1,72,45.48,70.94,45.62ZM26.77,55.39c.52-.14,1.13-.12,1.13-.77a1.69,1.69,0,0,0-.25-.82c-.22-.21-.22-.1-.48-.07-.93.11-1,1-.4,1.67C27,55.33,26.56,55.18,26.77,55.39ZM64,43.51a3.6,3.6,0,0,0-1.75-.65c-.2,0-1.44-.12-1.47.22s1.09.6,1.35.64A4.33,4.33,0,0,0,64,43.51C63,42.79,62.89,43.88,64,43.51Zm57.84-14.08c-.2.25-2.18,2.5-1.27,2.74.35.09.89-.69,1-.94a2.66,2.66,0,0,0,.25-1.8C121.46,30,122.12,30.55,121.88,29.43ZM70.58,46.28A2.64,2.64,0,0,0,68,45.81c-.58.39.25.56.62.65a2.43,2.43,0,0,0,2-.18C70,45.72,69.66,46.85,70.58,46.28ZM30,52.43c.47.36,1.63,0,2.19-.08.36,0,2,.1,2-.37a4.45,4.45,0,0,0-2,0,7.35,7.35,0,0,0-2.23.5C30.09,52.51,31,52,30,52.43ZM87.63,5.14c-1.13-.13-3.27.1-4.11,1,.73.33,1.45-.14,2.15-.33a4.48,4.48,0,0,0,2-.65C86.38,5,87.13,5.59,87.63,5.14ZM44.44,13.57c.32-.22,1-.53,1.19-.92a.73.73,0,0,0-.68-.91c-1,.08-.71,1.29-.51,1.83C44.78,13.34,44.06,12.52,44.44,13.57ZM42.55,14c-.11.27-.65,1.13-.13,1.22.13,0,.56-.44.67-.53s.43-.29.54-.6.21-1.1-.24-1.12-.75.65-.84,1S42.62,13.68,42.55,14Zm78.13,15a1.94,1.94,0,0,0,.62-2.82,4.33,4.33,0,0,0-.62,2.82C121.54,28.65,120.49,27.93,120.68,29ZM93.56,6.93a10.7,10.7,0,0,0,3.24-.22c-.15-.65-1.17-.31-1.63-.28s-1.33-.1-1.6.5C94.69,6.86,93.7,6.62,93.56,6.93ZM42,14.12c-.49.24-.95.43-1.18.95a14,14,0,0,0-.56,2A4.89,4.89,0,0,0,42,14.12C41.44,14.38,41.61,15.19,42,14.12Zm-17.43,20a5.66,5.66,0,0,0,2.24-2.46,3,3,0,0,0-1.42,1.1c-.27.33-1.1.9-.82,1.36C25.44,33.45,24.38,33.86,24.53,34.11Zm44,13c-.27-.09-1.36-.2-1.56.11s.9.69,1.16.77.94.29,1.07-.09-.44-.62-.67-.79C68,46.94,68.56,47.17,68.51,47.13ZM28,29.3c-.18.07-2.87,1-2,1.55.25.14.89-.24,1.1-.38A2.26,2.26,0,0,0,28,29.3C27.33,29.56,27.64,30.29,28,29.3Zm91.18,7.36c-.21.61-.06.86.54.53s1.09-.68,1.18-1.26c.17-1.1-1.58.26-1.72.73C119.11,36.79,119.36,36,119.16,36.66ZM34.34,70.76c-.43,0-3-.26-2.32.64s1.79-.13,2.32-.64C33.51,70.7,34.08,71,34.34,70.76Zm30.08,3.52c.71-.11,2.41-.79,2.38-1.73-.84.28-2.27.69-2.38,1.73C65.53,74.11,64.48,73.76,64.42,74.28Zm0-29.72a4.9,4.9,0,0,0,1.43.56c.35,0,1.44.19,1.6-.3.21-.66-2.67-.49-3-.26C64.91,44.79,64.94,44.23,64.42,44.56ZM119.86,32.9c.06-.6,0-.94-.54-.48-.32.28-1.24,1.11-1.32,1.54-.12.62.35.47.7.18s1-.73,1.16-1.25C119.87,32.78,119.75,33.22,119.86,32.9ZM68,75a16.65,16.65,0,0,0-3,2.15A5.72,5.72,0,0,0,68,75ZM10.26,44.57a4.56,4.56,0,0,0,2.63-1.67c-.61-.46-2.24,1.22-2.63,1.67C11.31,44.31,10.89,43.85,10.26,44.57Zm61.07,23a3,3,0,0,0-1,1.32c-.14.28-.76,1.25-.08,1.06.9-.24.93-1.69,1.07-2.38C70.6,68.1,71.14,68.58,71.33,67.62Zm-51-34.44c.64,0,.91-.56,1.22-1.06.17-.27,1-1.27.94-1.55-.17-.66-.84.61-1,.8a13.84,13.84,0,0,1-1.2,1.81C20.63,33.18,21.07,32.35,20.36,33.19ZM62.43,73.86c.76.07,2.95-.57,2.78-1.62a10.43,10.43,0,0,0-2.78,1.62C63,73.91,63.32,73.16,62.43,73.86ZM27.54,31.62c.56-.18.73-.58,1.07-1s.69-.5.67-1a2.81,2.81,0,0,0-1.74,2C28,31.47,27.64,30.85,27.54,31.62ZM46.93,14.37a2.12,2.12,0,0,0,1.22-.62c.18-.21.66-1.09.54-1.33s-.91.35-1.07.5a2.3,2.3,0,0,0-.69,1.44C47.76,14.2,47,13.34,46.93,14.37ZM25.37,34c-.79.61-1.71,1-1.86,2.15A3.37,3.37,0,0,0,25.37,34Zm96.2-1c0-.25.37-1.11-.1-1.09s-1,1-1.18,1.23-.37.68.1.66a2.1,2.1,0,0,0,1.18-.81C121.63,32.71,121.29,33.44,121.57,33ZM19.43,34.91a13.77,13.77,0,0,0-2.58,2.81A7.47,7.47,0,0,0,19.43,34.91ZM91.66,48c.51.26.73.37,1.08-.06s.84-.7,1.24-1.12c.13-.14.39-.29.22-.51s-.6.09-.78.22c-.62.45-1.17,1-1.76,1.47C92.35,48.35,92.33,47.45,91.66,48ZM8.05,46.1c.28,0,2.61.36,2.1-.56-.28-.51-2,0-2.1.56C8.55,46.14,8.1,45.77,8.05,46.1ZM1.48,48.69c-1.1.41-1,1.95-.43,2.77a13.93,13.93,0,0,1,.43-2.77C1,48.86,1.25,49.66,1.48,48.69ZM115.08,33.5a4.06,4.06,0,0,0,2.27-1.45,1.54,1.54,0,0,0,.58-1.06,31,31,0,0,1-2.85,2.52C115.79,33.43,116,32.72,115.08,33.5Zm-101.93,10A3.93,3.93,0,0,0,15.6,42,3.6,3.6,0,0,0,13.15,43.51Zm106-7.8c.37-1.22-1.72-.17-1.62.35.16.79,1.45.08,1.62-.35C119.18,35.53,118.93,36.21,119.13,35.71ZM70,47c.26.51,1.58,1,2,.41.58-.89-1.6-.53-2-.41C70.23,47.48,70.47,46.77,70,47ZM15.88,57.11c.1.86,1.7.47,2.16.06a2.15,2.15,0,0,0-2.16-.06C15.93,57.54,16.6,56.87,15.88,57.11Zm7.65-19c-1.08.67-1.52,1.31-1.45,2.09A6.16,6.16,0,0,0,23.53,38.13ZM69.46,63.92a7.62,7.62,0,0,0,.23-4.07A23.06,23.06,0,0,0,69.46,63.92Zm-5.71-17a2.32,2.32,0,0,0-2.64-.54C62,46.53,62.77,47.13,63.75,46.9Zm7.68,2.19c-.28,0-.21-.45-.42-.54s-.24.15-.43.13-.76-.6-1.1-.27.7.93.93.94c.5,0,.51-.82,1-.27C71.28,49.09,71.13,48.77,71.43,49.09ZM19.54,42.6c.39-.07,1.67-.81,1.4-1.36-.37-.75-1.32,1.11-1.4,1.36C20.3,42.47,19.76,41.95,19.54,42.6ZM70.4,45.22c1.12-.19,2.3.06,3.49-.52A7,7,0,0,0,70.4,45.22ZM12,57.65c.39.08,2.19.31,2.19-.3,0-.82-1.92.05-2.19.3C12.73,57.79,12.61,57.1,12,57.65Zm13.17-28c-.1-.21-.55-.87-.81-.85s-.6.58-.65.77c-.22.79,1.21.4,1.46.08C25,29.35,25,29.85,25.18,29.66Zm98.72-1.22a2.53,2.53,0,0,1,.48,1.34c0,.28.09.94.48.46.26-.32-.08-1.21-.19-1.52s-.31-.58-.77-.28C124.29,28.91,124.28,28.18,123.89,28.44ZM11.81,54.4a1.23,1.23,0,0,0-.88-.65c-.13,0-.9-.19-1-.06s.39.64.56.72a1.74,1.74,0,0,0,1.3,0C11.41,53.62,11.06,54.65,11.81,54.4Zm11-21.75c-.58-.25-1.2-.25-1.4.55-.11.44.22.53.59.38a1.61,1.61,0,0,0,.8-.93C22,32.33,22.6,33.1,22.78,32.65ZM9.52,54.58c-.32-.19-.63-.4-1-.56s-1.28-.63-1.15-.15c.06.22.85.56,1,.69.44.31.64.44,1.09,0C9.14,54.35,9.24,54.85,9.52,54.58ZM72.08,71.77a4.08,4.08,0,0,0,1.5-2.29A18.12,18.12,0,0,0,72.08,71.77Zm-15.4,4.07c-.42-.06-2.18.46-2.08,1.06s1.93-.94,2.08-1.06C55.86,75.73,56.11,76.28,56.68,75.84ZM38.14,75c.38.4,1.39,1.15,1.95.53s-1.61-.61-1.95-.53C38.84,75.73,38.88,74.81,38.14,75ZM21.09,56.31c.22,0,1.89-.05,1.2-.63-.4-.34-2,.25-1.2.63C21.4,56.25,20.93,56.23,21.09,56.31Zm2.08-23.06c.3,0,2-.61,1.37-1.07-.18-.15-.69.08-.85.18a1.09,1.09,0,0,0-.52.89C23.82,33.28,23.23,32.5,23.17,33.25ZM12.72,64.49c.21,0,2.37-.48,1.72-1-.17-.13-.85.11-1,.21a2.2,2.2,0,0,0-.7.8C13.29,64.48,13.22,63.68,12.72,64.49ZM89.79,6.64a4.82,4.82,0,0,0,2.57-.38A4.65,4.65,0,0,0,89.79,6.64ZM23.13,55.54c.13.26.19.47.48.54a2.06,2.06,0,0,0,1-.15.4.4,0,0,0-.16-.67,1.59,1.59,0,0,0-1.28.28C23.42,56.14,23.48,55.21,23.13,55.54ZM78.55,51.4c-.43-.1-1.73.25-.88.78.59.36,1.78-.16.88-.78C78.29,51.34,78.73,51.53,78.55,51.4Zm44.63-14.68a1.55,1.55,0,0,0-.91.69c-.1.17-.35.82,0,.93s.55-.33.66-.47a1.22,1.22,0,0,0,.29-1.15C122.49,36.94,123.37,37.46,123.18,36.72Zm-1.67,1.35c-.37,0-1.44.69-.93,1.14s1.1-.67.93-1.14C121.15,38.08,121.65,38.45,121.51,38.07ZM64.8,47.43c.27.26,1.45,1,1.84.83.56-.29-1.63-1.33-1.84-.83C65.1,47.72,64.86,47.28,64.8,47.43ZM72,50.23c-.7-.37-.8.44-.24.72.19.1.59.14.7-.1s-.28-.48-.46-.62S72.09,50.28,72,50.23ZM44.2,14.65c1-.4,1.52-.83,1.68-1.55C45.21,13.57,44.51,13.82,44.2,14.65ZM68.78,7c.26.1,2.08.23,1.51-.49-.24-.31-1.3.24-1.51.49C69.26,7.14,69.15,6.53,68.78,7Zm51,15.54a1.45,1.45,0,0,0-1.24-1.3C118.59,22,119.32,22.1,119.74,22.5ZM22.84,30a5.8,5.8,0,0,0,.78-1.13c.2-.29.51-.47.36-.88a3.13,3.13,0,0,0-1.13,2C23.21,29.67,22.9,29.33,22.84,30ZM126.68,33c-.39-.11-.68,1.55,0,1.37.47-.13.3-1.14,0-1.37C126.56,32.92,126.72,33,126.68,33ZM73,52.52c.21.23,1.49.59,1.51.15,0-.71-1.25-.42-1.51-.15C73.36,52.91,73.32,52.18,73,52.52Zm47.24-14.46c0-.24.31-.56-.07-.65-.2-.05-.55.31-.66.47s-.23.47.09.64.49-.19.64-.46S120.17,38.16,120.23,38.05ZM13.37,48.8a2.92,2.92,0,0,0,.21-.77c0-.4,0-.48-.42-.46-1,.07-.1.87.21,1.22C13.58,48.56,13.08,48.47,13.37,48.8Zm32.73-33a1.56,1.56,0,0,0,1.32-1.09A1.65,1.65,0,0,0,46.09,15.76Zm78.33,20.48c.27-.14.94-.81.5-1.15s-.53,1-.5,1.15C124.88,36,124.36,35.83,124.42,36.24Zm-1.34-4.19a1.39,1.39,0,0,0,0-1.68C123,30.89,122.61,31.41,123.08,32.05ZM121,36.89c0,.27-.4.67.09.74.34,0,.64-.48.74-.75s.21-.73-.21-.74-.53.55-.62.75S121.06,36.8,121,36.89Zm1.48-1.26s-.26.54,0,.66.64-.37.72-.56c.38-.89-.48-.8-.76-.1Zm.92-9.19c-.12.29-.08,1.41.45,1.3s-.2-1.15-.45-1.3C123.25,26.86,123.78,26.67,123.42,26.45ZM83,3.9c.45.19,1.66-.34.94-.65-.36-.15-1.73.25-.94.65C83.41,4.06,82.93,3.85,83,3.9ZM12.92,55a2.39,2.39,0,0,0-1.8.06C11.78,55.59,12.35,55,12.92,55ZM121.11,34.43c-.31,0-2,.43-1.51.94s1.34-.63,1.51-.94C120.54,34.43,120.81,35,121.11,34.43ZM14.34,62.74c.33-.08,1.38-.42.94-1s-.87.73-.94,1C14.78,62.64,14.44,62.41,14.34,62.74Zm3.16-20.91c-.3-.1-1.22,0-1.22.42,0,.89,1.1-.22,1.22-.42C17.1,41.71,17.3,42.15,17.49,41.83ZM32.26,27.51c-.83.51-.83.51-1,1.08A1.93,1.93,0,0,0,32.26,27.51ZM78.71,52.7a2,2,0,0,0,1.62-.39A2,2,0,0,0,78.71,52.7ZM66.28,72.2c.8-.21,1-.41,1-1.19A3.46,3.46,0,0,0,66.28,72.2ZM70.5,51.66c.17-.84-.61-.76-.85-1.14C69.68,50.89,69.68,50.89,70.5,51.66Zm53.79-14.48c-.26.67.49.45.62,0,.22-.76-.42-.38-.62,0C124.23,37.32,124.4,37,124.29,37.17ZM63.58,49c.09.21.86.88,1,.55s-.85-.54-1-.55C63.62,49.08,63.71,49,63.58,49ZM26.15,55.39c0-.74-1-.56-1,0s.82.31,1,0S26.1,55.52,26.15,55.39Zm-9.38,5.32c.1-.5-.69-.55-.93-.25-.43.53.81.74.93.25C16.8,60.57,16.73,60.88,16.77,60.72ZM49,11.22c-.48.16-1.06.23-1,1C48.44,12,48.88,11.78,49,11.22ZM20.7,40.07c.45-.4.87-.63.95-1.15C21.28,39.2,20.83,39.4,20.7,40.07Zm4.12,16.27c-.2-.07-1.2,0-1.13.35s.64.21.8.18.68-.4.33-.52ZM70.26,70.6c-1,.37-1.12.5-1.18,1A2.93,2.93,0,0,0,70.26,70.6Zm48.4-46.07a2.52,2.52,0,0,0,.31,1.65C119.3,25.45,118.85,25,118.66,24.53Zm-44.85,26c0-.33-1.1-.87-1-.32,0,.29.94.78,1,.32C73.81,50.51,73.79,50.68,73.81,50.56Zm2.7,2c.58,0,.56-.66.07-.8-.21-.06-.42-.05-.5.19s.26.46.43.6S76.3,52.41,76.51,52.58Zm-4.23-4c.63.44.62-.34,0-.52s-.58.4,0,.52C72.35,48.63,72,48.53,72.28,48.58Zm49.1-12.82c.28-.11,1.08-.67.71-1.08s-.7.87-.71,1.08C121.82,35.58,121.4,35.33,121.38,35.75Zm-96,0c.56-.32.61-.79.81-1.16A1.21,1.21,0,0,0,25.42,35.74Zm-8.9,20.09a.89.89,0,0,0,1.13.15A1.76,1.76,0,0,0,16.52,55.83Zm9.38,7.86c-.82-.43-.82-.43-1.29-.44C25,63.65,25,63.65,25.9,63.69ZM66.05,48.87c.42.54.42.54,1.06.61A1.37,1.37,0,0,0,66.05,48.87ZM69.54,74c.75-.42.75-.42.82-1.07A2.46,2.46,0,0,0,69.54,74Zm3.24-4.57a1.24,1.24,0,0,0-.83,1A1.9,1.9,0,0,0,72.78,69.4ZM31.07,42.07c.16-.06.93-.39.6-.69s-.58.55-.6.69C31.44,41.92,31.13,41.62,31.07,42.07ZM92.27,5.35c.22,0,.95-.08.86-.42-.17-.72-.78.29-.86.42C92.58,5.34,92.42,5.11,92.27,5.35ZM2.21,51.77c0,.08.4,1.16.65.77s-.46-.7-.65-.77C2.38,52.08,2.59,51.91,2.21,51.77ZM30.26,40.2c.73-.09.73-.09,1-.52A3.53,3.53,0,0,0,30.26,40.2Zm40.39,31A1.43,1.43,0,0,0,70,72,.84.84,0,0,0,70.65,71.17Zm-23.32-59c-.19,0-1.27.62-.71.88.38.17.66-.63.71-.88C47,12.26,47.25,12.54,47.33,12.18ZM125,27.93a1.86,1.86,0,0,0,.28,1.25C125.69,28.61,125.29,28.36,125,27.93Zm-50.37,22c-.36,0-.8.17-.29.49s.76-.21.29-.49C74.46,49.86,74.82,50,74.65,49.88Zm48.13-15.42c.29,0,.75-.43.48-.72s-.62.46-.48.72C123.09,34.46,122.64,34.2,122.78,34.46Zm-1.3-9.88c.15-.19-.2-1.11-.5-1s.17,1.08.5,1C121.58,24.45,121.33,24.62,121.48,24.58ZM80.92,51.1c.12-.48-.46-.63-.73-.27s.51.57.73.27C81,50.93,80.72,51.37,80.92,51.1ZM15.43,60.79c0-.37-.4-.42-.53-.05s.41.38.53.05C15.43,60.66,15.34,61,15.43,60.79ZM52,79.49c.57.17.94.17,1.27-.2C52.81,79.07,52.48,79.26,52,79.49ZM74.08,66.8c.36-.37.73-.73.53-1.34A3,3,0,0,0,74.08,66.8ZM2,52.69l.57,1.24C2.65,53.32,2.68,52.91,2,52.69Zm80.2-1.82c0-.34-.6-.73-.68-.21s.44.51.68.21C82.26,50.65,82.09,51.06,82.24,50.88ZM15.62,61.93c-.07.47.24.73.51.21s-.34-.74-.51-.21C15.6,62.1,15.69,61.72,15.62,61.93ZM35.14,18.43c.34,0,.85-.5.33-.63-.35-.09-.65.41-.33.63C35.4,18.45,35,18.31,35.14,18.43Zm38.5,29.9c-.05-.26-.48-.72-.78-.52-.5.32.55.6.78.52C73.57,48,73.34,48.43,73.64,48.33ZM15.22,57.86c.27-.06.61-.38.18-.55s-.54.37-.18.55C15.34,57.83,15,57.76,15.22,57.86ZM124.71,33.67c-.27-.13-.46.45-.26.59s.44-.4.26-.59S124.87,33.84,124.71,33.67ZM18.55,57.76c.18,0,.94.22.88-.15s-.75.06-.88.15C18.72,57.81,18.7,57.66,18.55,57.76ZM126.07,30c.13-.36-.27-.6-.45-.22s.23.57.45.22C126.12,29.84,126,30.14,126.07,30Zm-102,33.08c.09-.26-.4-.54-.56-.31s.35.54.56.31C24.15,62.92,24,63.2,24.09,63.08Zm57.77-14a1.14,1.14,0,0,0,.7,1.19C82.5,49.8,82.18,49.55,81.86,49.11ZM31.66,43c0-.19-.16-.48-.33-.23s.22.49.33.23S31.62,43.08,31.66,43Zm.66-18.81c.16-.11.81-.51.29-.6-.31,0-.48.38-.29.6C32.39,24.12,32.1,23.92,32.31,24.17Zm88.84,5.24c.55-.42.6-.51.61-1.11A2.15,2.15,0,0,0,121.16,29.42ZM75.61,52.6c.15-.24-.33-.76-.57-.52s.33.61.57.52C75.67,52.5,75.5,52.63,75.61,52.6Zm-32.87-36a.8.8,0,0,0-.62.46C42.5,17.07,42.69,17,42.74,16.56ZM16.44,38.16a.77.77,0,0,0-.48.62A1,1,0,0,0,16.44,38.16Zm109.36-6.72a.35.35,0,0,0,0-.56c-.2-.09-.15.47,0,.56C126,31.28,125.77,31.42,125.81,31.44ZM26.67,66.11a.73.73,0,0,0,.85.44A1.51,1.51,0,0,0,26.67,66.11ZM23.42,55c-.32-.62-.78.54,0,0C23.31,54.74,23.38,55,23.42,55ZM10.37,52.06c.18,0,.41-.3,0-.33s-.33.24,0,.33C10.42,52.05,10.22,52,10.37,52.06ZM75.63,51a.21.21,0,0,0-.4-.1c-.06.24.32.29.4.1S75.59,51.1,75.63,51ZM4.92,46.7c-.21.1-.47,0-.46.39C4.65,47,4.88,47.06,4.92,46.7ZM53,78c-.09.3.33.31.39.06s-.29-.28-.39-.06S53.08,77.87,53,78ZM44,11.93c.22.12.37-.25.18-.38s-.49.22-.18.38Zm78.29,19.77a.73.73,0,0,0,0,.81C122.39,32.19,122.47,32,122.26,31.71Zm-5.38-.2c0-.32-.18,0-.26,0s.05.41.26,0C116.88,31.45,116.82,31.61,116.87,31.51ZM14.28,55.81c-.29-.13-.14.17-.05.27s.28-.13.05-.27C14.21,55.78,14.37,55.87,14.28,55.81Zm10.47,1.63c.18-.17-.27-.34-.4-.21s.24.32.4.21S24.61,57.53,24.75,57.44ZM22.43,37.21c-.15-.62-.35.63,0,0C22.41,37.16,22.37,37.3,22.43,37.21Zm81.81-2.39c.06-.16-.16-.34-.23-.15s.11.36.23.15S104.2,34.89,104.24,34.82ZM39.72,50.24c.21-.22,0-.39-.08-.28a.26.26,0,0,0,.08.28ZM37,51c.22-.25-.36-.34-.44-.13s.31.26.44.13S36.87,51.1,37,51Zm-7.83-1.83q0-.09-.07-.09a.09.09,0,0,0,0,.12s.08,0,.11,0S29.13,49.2,29.14,49.18ZM45.39,21.89c.15-.35-.35-.05-.31,0s.2.39.31,0C45.43,21.79,45.36,22,45.39,21.89Zm-5,52.76h.12c0-.08-.17-.12-.12,0S40.42,74.63,40.43,74.65Z"/><path class="cls-2" d="M95.46,36.75c-.2,0-.29-.12-.15-.32s1.12-.37,1.47-.48a32.57,32.57,0,0,0,3.82-1.67c1.22-.59,2.46-1.14,3.66-1.76.6-.31,1.2-.65,1.79-1,.34-.19,1.06-.44,1.11-.91-.43-.12-.76.14-1.11.35q-.77.46-1.58.85c-1,.48-2,.93-3,1.4-2.06,1-4.22,1.77-6.33,2.55s-4.22,1.39-6.34,2a31.67,31.67,0,0,1-3.32.83c-.54.1-2.45.74-2.72,0a15.57,15.57,0,0,1,2.21-.3c.73-.15,1.45-.33,2.17-.52,1.52-.4,3.05-.81,4.55-1.29a83.77,83.77,0,0,0,8.58-3.14,65.86,65.86,0,0,0,8.09-4.08,5.26,5.26,0,0,1,1.64-.94c.36-.06.41,0,.71-.19a5.84,5.84,0,0,0,.7-.74,20.72,20.72,0,0,0,2.47-3.31c.35.46-.73,1.85-1,2.22a13.21,13.21,0,0,1-1.8,2,26.24,26.24,0,0,1-4.91,3.41c-1.85,1.07-3.75,2-5.69,2.91-.81.37-1.7.64-2.48,1S96.25,36.28,95.46,36.75Z"/><path class="cls-2" d="M112.35,21.2c1,.44.29,1.92-.11,2.54a10.89,10.89,0,0,1-2.57,2.48,39.63,39.63,0,0,1-6.28,3.85,84.84,84.84,0,0,1-15.14,5.67,43.54,43.54,0,0,1-7.84,1.42c-.17,0-1.15.3-.75-.17.2-.24,1.39-.13,1.69-.16a28,28,0,0,0,4-.68,84.83,84.83,0,0,0,15-5,53.77,53.77,0,0,0,7.49-4.07c1.9-1.28,5-3.16,4.56-5.86C112.86,21.43,112.5,22.17,112.35,21.2Z"/><path class="cls-2" d="M43.89,37.27a36.46,36.46,0,0,0,6.68,1.26,45.19,45.19,0,0,0,7.26.21c2.45-.13,4.84-.39,7.27-.69,1.15-.14,2.34-.11,3.47-.37.59-.13,1.16-.29,1.76-.41s1.26-.41,1.71-.23c0,.52-2.51.65-3,.73-1.29.23-2.57.46-3.87.64-2.57.35-5.17.58-7.76.67a46.19,46.19,0,0,1-7.68-.3c-1.21-.16-2.39-.42-3.59-.64a10.77,10.77,0,0,1-3.4-1c.39-.2.74.24,1.12.11C45.17,37.67,43.5,37.39,43.89,37.27Z"/><path class="cls-2" d="M54.68,40.94c-.25.28-.81.09-1.1.05a3.89,3.89,0,0,1-1.29-.14c.31.1.47-.24.2-.41a1.53,1.53,0,0,0-.62,0c-.75,0-1.51,0-2.26-.08-1.47-.07-2.94-.17-4.4-.33a11.32,11.32,0,0,1-3.66-.81c-.35-.17-1-.72-.24-.54s1.32.41,2,.55a45.87,45.87,0,0,0,8.15.75c1.49,0,3,0,4.46,0,.68,0,1.35,0,2,.05a4.72,4.72,0,0,0,.69-.07c.17,0,.27.07.41.05-.66.49-1.81.3-2.58.32a10.44,10.44,0,0,0-2.91.19c.35.2.81.14,1.13.4C54.52,41.13,54.35,40.68,54.68,40.94Z"/><path class="cls-2" d="M97.45,29.74c-1.06.88-2.58,1.19-3.84,1.71-1.46.61-2.93,1.15-4.43,1.66s-2.71.91-4.1,1.25a21.28,21.28,0,0,0-2.18.6c-.29.1-1,.54-1.21.19-.36-.53.64-.49.87-.53a22.36,22.36,0,0,0,2.24-.6c1.39-.39,2.78-.78,4.16-1.21s2.92-1,4.36-1.61,2.74-1,4.13-1.47C96.88,30.22,96.58,30.05,97.45,29.74Z"/><path class="cls-2" d="M65.68,40.62c.29.24.88,0,1.21,0a7.71,7.71,0,0,0,1.36-.37c1-.32,1.93-.56,2.89-.86s1.87-.61,2.79-1q.72-.28,1.44-.59c.32-.14,1-.6,1.33-.34-.12.6-1.86,1-2.34,1.21q-1.51.61-3.05,1.11A43.18,43.18,0,0,1,66,41.22q-1.06.2-2.18.38c-.36.06-2,.59-2.31.13s1.41-.4,1.68-.44c.48-.06,2.27-.1,2.46-.67C65.89,40.8,65.57,41,65.68,40.62Z"/><path class="cls-2" d="M79.65,33.62a32.88,32.88,0,0,0,6.43-1.52c1-.31,2-.77,3.06-1.09a6.39,6.39,0,0,1,2.79-.67c-.26.4-1,.49-1.41.64l-1.5.52c-1.15.4-2.3.79-3.45,1.17s-2.17.69-3.28.95c-.57.13-2.44.9-2.64,0C81.8,33.43,79.74,34.07,79.65,33.62Z"/><path class="cls-2" d="M31.73,35a3.48,3.48,0,0,0-1.26,1c-.19.21-.85.88-.76.13,0-.16.22-.27.32-.4a3.62,3.62,0,0,1,.33-.4c.19-.17.72-.37.8-.66a8.83,8.83,0,0,0,1-.58,2.46,2.46,0,0,1,.57-.36c.21-.06.4.06.58,0s.26-.25.42-.42a2.51,2.51,0,0,1,.64-.44c.6-.33,1.2-.65,1.82-.93a11.5,11.5,0,0,1,1.25-.55c.48-.15,1-.28,1.5-.45a15.19,15.19,0,0,0,1.61-.41,2.43,2.43,0,0,1,1.73-.28.12.12,0,0,0,0,.2c-.78.2-1.56.37-2.33.59a11.18,11.18,0,0,0-1.07.37c-.21.09-.63.13-.75.27-.34-.11-1.14.4-1.47.57-.62.32-1.27.58-1.9.89s-1.13.68-1.68,1a4,4,0,0,0-1.36.89C31.08,35.28,32,34.73,31.73,35Z"/><path class="cls-2" d="M86.86,30q-2.4,1.15-4.87,2.12c-.26.1-4.49,1.43-4.23.52.07-.26.67-.1.82-.09a3.94,3.94,0,0,0,1.26-.12,20.87,20.87,0,0,0,2.45-.89c.84-.33,1.68-.67,2.5-1,.6-.27,1.42-.9,2.09-.5C86.25,30.25,86.39,29.68,86.86,30Z"/><path class="cls-2" d="M107.09,22.36a7.51,7.51,0,0,1-2.19,2.22c-.16.11-.41.32-.57.31s-.07-.28-.18-.28c-.39,0-.63.33-.15.53-.43.32-.92.85-1.42.92-.12-.55.72-.54.86-1-.41-.15-.79.54-1.18.25,0-.26,1.19-.89,1.38-1,.5-.34,1-.65,1.52-1a9.6,9.6,0,0,0,.81-.79,2.72,2.72,0,0,1,.29-.21c.38-.25.48-.19.83,0C106.41,23.46,107,22.27,107.09,22.36Z"/><path class="cls-2" d="M75.46,32.16c-.43-.48.81-.41,1.07-.44.66-.08,1.31-.26,2-.38a8.89,8.89,0,0,0,1.83-.51c.31-.12,1.1-.55,1.42-.37.51.28-.17.44-.4.51q-1,.3-1.93.57a12.37,12.37,0,0,1-2,.37,10.34,10.34,0,0,1-1.95.24C75.41,32.11,75.52,32.17,75.46,32.16Z"/><path class="cls-2" d="M101.48,24.8c.86-.75,1.8-1.34,2.62-2.14a8.55,8.55,0,0,0,1.16-1.29c.14-.2.44-1,.72-.42s-1.51,1.91-1.86,2.24a13,13,0,0,1-1.28,1c-.22.16-1.41,1.18-1.37.59C102.13,24.24,101.48,24.86,101.48,24.8Z"/><path class="cls-2" d="M85.7,8.81l-.21-.35a2.17,2.17,0,0,1,1.19.21c.18.05.37.14.56.19a.92.92,0,0,0,.36.05.28.28,0,0,1,.31.16c.34.07.74-.06,1.06.08s.54.52,1,.6q-.12,0,0,.17c-1.3-.71-2.85-.66-4.26-1.1C85.62,8.7,85.8,8.85,85.7,8.81Z"/><path class="cls-2" d="M41.15,36.09a2.57,2.57,0,0,1-.07-2.79c.18.47-.08,1.06,0,1.55a2.11,2.11,0,0,0,.11.61c.12.34.39.36,0,.62C40.52,35.18,41.23,36,41.15,36.09Z"/><path class="cls-2" d="M77.4,10.81c.27-.66,1.2,0,1.65,0s.56-.19.88-.07c.49.18.05.09.23.32a17.28,17.28,0,0,0-2.76-.27C77.48,10.62,78.33,10.81,77.4,10.81Z"/><path class="cls-2" d="M101.56,23.28c-.1.21-.92,1.05-1.16.65s.84-1,1.16-.65C101.51,23.4,101.56,23.28,101.56,23.28Z"/><path class="cls-2" d="M83.36,11.21c.15-.52.29-.34.76-.26.24,0,.9-.06.89.4l-1.66-.13C83.4,11.1,83.92,11.25,83.36,11.21Z"/><path class="cls-2" d="M81.35,9c-.17,0-.54.1-.77.08L79.66,9c.31-.39,1.25-.19,1.69,0C81.29,9,80.87,8.8,81.35,9Z"/><path class="cls-2" d="M101.73,21.86c-.12-.07.07-.52.25-.22s0,.34-.25.22Z"/><path class="cls-2" d="M82,10.73l.12.32c-.22,0-.82.22-.9-.14s.58-.16.78-.18C82.07,10.83,81.91,10.74,82,10.73Z"/><path class="cls-2" d="M49.19,50.3c-.54-.51-1.33-.6-1.91-1.05.46-.07,1.18-.3,1.61,0,.23.15.38.55.63.75.56.42,1.25.69,1.79,1.12a26,26,0,0,1,2.17,1.78c.52.51,1.56,1.52,1.4,2.31a9.7,9.7,0,0,0-2.54-2.56c-.08.7,1.09,1.39,1.5,1.88s1.17,1.31,1.22,2c-.26.11-.67-.35-.45.39.16.52.6.7.47,1.33a7.66,7.66,0,0,1-1.37-2.38,14.87,14.87,0,0,0-1.57-2.46c-.22-.27-.51-.48-.73-.75a6.49,6.49,0,0,1-.47-1,2.34,2.34,0,0,0-.9-.79c-.23-.14-.57-.47-.86-.48C48.64,49.79,49.37,50.3,49.19,50.3Zm5.34,5.88c0-.77-.74-.07,0,0C54.54,56,54.46,56.17,54.53,56.18Z"/><path class="cls-2" d="M58.35,57.58c0-.16-.15-.28-.17-.41a2.48,2.48,0,0,1,.09-.59c.27.68.86,1.06,1.15,1.73a6.48,6.48,0,0,1,.37,2.28c0,1,0,1.95,0,2.92,0,.41.18,2.22-.3,2.43s-.15-1.12-.14-1.37c0-.82,0-1.69,0-2.53s-.15-1.72-.17-2.58a2.26,2.26,0,0,0-.84-1.88C58.4,57.41,58.92,58,58.35,57.58Z"/><path class="cls-2" d="M41.42,73c-.34,0-.5.44-.86.34.22-.49.89-.79,1.29-1.15a14.17,14.17,0,0,0,1.31-1.34c.58-.67,1.36-2.35,2.36-2.36A19.7,19.7,0,0,1,41.42,73C41.08,73,43.06,71.77,41.42,73Z"/><path class="cls-2" d="M55.52,64.6c1.47.56.45,1.91-.81,1.49A1.06,1.06,0,0,1,54,65c0-.78,1-.79,1.55-.44S55.16,64.36,55.52,64.6Zm-.17.39c-.66-.29-1.05.4-.44.75s1.08-.37.44-.75C55,64.85,55.54,65.1,55.35,65Z"/><path class="cls-2" d="M34.35,57.56c.1-.85,2.46-.28,2.16.66a1.47,1.47,0,0,1-1.52.69c-.49-.27-.18-1.13-.63-1.35C34.4,57.11,34.44,57.61,34.35,57.56Zm1.45.53c.11-.36-.39-.42-.53-.13s.35.41.53.13S35.7,58.26,35.8,58.09Z"/><path class="cls-2" d="M36.93,65.2c-.29-.27-.15-.67-.29-.9s-.34,0-.73-.22c-.66-.33.34-.53.6-.52.5,0,1.64.45,1.71,1.06,0,.33-.2.49-.46.57s-.66-.07-.82,0C36.72,65,37,65.15,36.93,65.2Zm.4-.67c.11-.3-.27-.17-.24-.14s0,.21.24.14C37.37,64.44,37.3,64.55,37.33,64.53Z"/><path class="cls-2" d="M46.2,65.56c1.2.63-.19,1.72-.89,1.18a2.11,2.11,0,0,1-.59-1.09c.12-.57,1.14-.17,1.48-.09S46,65.51,46.2,65.56Zm-.27.67a.2.2,0,1,0-.37-.14c-.12.27.23.32.37.14S45.86,66.32,45.92,66.23Z"/><path class="cls-2" d="M31.71,68c-1-.14.63-.78.93-1s1.83-1.51,1.82-.86c0,.33-1.22,1-1.47,1.13C32.56,67.51,32.15,67.72,31.71,68Z"/><path class="cls-2" d="M31.5,62.48a1.09,1.09,0,0,1,.58-1.11,1.19,1.19,0,0,1,.62-.08c.48,0,.48.27.62.7,0,0-.63-.23-.68-.23-.51,0-.62.69-1.14.73C31.45,61.52,31.75,62.46,31.5,62.48Z"/><path class="cls-2" d="M47.84,59.9a.54.54,0,0,1,.67-.83c.79.53-.42.66-.67.83C47.78,59.83,48.07,59.75,47.84,59.9Z"/><path class="cls-2" d="M57,60.74c-.2.27-1.45.69-1.11,0,.16-.31,1.44-.79,1.11,0C56.9,60.9,57.09,60.6,57,60.74Z"/><path class="cls-2" d="M36.59,55c-.31-.2-.63-.35-1-.53s-.73-.5,0-.49c.33,0,1.52.63,1,1C36.25,54.73,37,54.69,36.59,55Z"/><path class="cls-2" d="M58,57.74l.08.38C57.89,58,57.85,57.85,58,57.74Z"/><path class="cls-2" d="M31.19,62.78l.17-.05Z"/><path class="cls-2" d="M114.65,38.64c.07.43-1.54.72-1.95.68a3,3,0,0,1,1.15-.49c.27-.08.59-.11.8-.19C114.66,38.7,114.57,38.67,114.65,38.64Z"/><path class="cls-2" d="M112.8,40.69c.36.22-.28.73-.49.54s.31-.47.49-.54C113,40.83,112.64,40.75,112.8,40.69Z"/><path class="cls-2" d="M96,59.08c.36.23-.15.6-.34.31a.86.86,0,0,0,.34-.31C96.15,59.15,96,59.13,96,59.08Z"/><path class="cls-2" d="M6.43,59.66C6.18,60.06,5,61.79,4.65,61c-.16-.37.07-.89.13-1.25a4.07,4.07,0,0,0-.14-1.57c-.08-.36-.2-.7.16-.95s.6,0,.92.27a1.81,1.81,0,0,1,.71,2.15C6.1,60.21,6.61,59.19,6.43,59.66Zm-1.22.61c.87-.87,1.26-2.12-.15-2.65,0,.89.07,1.76.15,2.65C6.39,59.09,5.15,59.68,5.21,60.27Z"/><path class="cls-2" d="M7.42,57.83a2.85,2.85,0,0,1-.2,2.55c-.2.39-.86,1.9-1.39,1.21-.37-.48.8-1,1-1.41.44-.75.08-1.64.54-2.35C7.78,58.5,7.21,58.16,7.42,57.83Z"/><path class="cls-2" d="M8.68,60.3c-.24.42-.92,1.6-1.44,1.71-1,.21.37-1,.51-1.12a2.24,2.24,0,0,0,.57-.72c.11-.23,0-.79.16-.94.54-.63.28.85.2,1.07C8.36,60.85,8.82,59.91,8.68,60.3Z"/><path class="cls-2" d="M7.18,63c.41-.38.58-.71,1.09-.94.23-.1.28-.05.42-.3s0-.44.25-.6C9.37,62.52,8.27,63,7.18,63,7.64,62.62,7.88,63,7.18,63Z"/><path class="cls-2" d="M10.82,61.16c-.18.3-.41,0-.28-.24s.34,0,.28.24S10.85,61,10.82,61.16Z"/><path class="cls-2" d="M31.38,22.36c-.47,0-1.45-1.05-.83-1.23.22-.06.27.25.38.39.24.31.62.4.45.84C31.15,22.38,31.43,22.22,31.38,22.36Z"/><path class="cls-2" d="M29.5,22.27c.13.08.38.12.42.3s-.25.4-.47.36c-.5-.08-.55-.77.06-.66C29.69,22.38,29.34,22.24,29.5,22.27Z"/><path class="cls-2" d="M63.24,64.83c-.16.28-.34,1.68-.59,1.79-.64.25-.05-1.25,0-1.49.13-.71.34-1.39.45-2.1.06-.36,0-1.11.37-1.26.43.82-.08,2.21-.21,3.07C62.92,65.39,63.33,64.23,63.24,64.83Z"/><path class="cls-2" d="M65.81,57.58Z"/><path class="cls-2" d="M7.42,49.61c0,.25-2,.55-2.34.68s-2,1.12-1.83.43,4.24-1.79,4.17-1.1C7.39,49.74,7.43,49.49,7.42,49.61Z"/><path class="cls-2" d="M91.24,62.57c.2-.5.51-.34,0,0Z"/><path class="cls-2" d="M61.77,65.09a13.8,13.8,0,0,1-.84,1.72c-.11.2-.26.76-.45.89s-.31,0-.45.05-.37.75-.5,1-.55.76-.44.11A13.81,13.81,0,0,1,59.79,67c.2-.6.39-1.2.62-1.79a5.05,5.05,0,0,0,.16-.75,2.75,2.75,0,0,1,.21-.54,9.66,9.66,0,0,0,.37-1.63c.14-.41.42-.39.58-.73a4.92,4.92,0,0,0,0-1.94,7.83,7.83,0,0,0-1.18-3.3,25.05,25.05,0,0,0-1.66-2.15c-.18-.22-.24-.4-.4-.62s-.25-.39-.44-.38c-.41,0,.21.76.58.73-.61.23.42,1.57.59,1.84s.4.93.64,1.36.61.94.45,1.56c-.69-1.39-1.33-2.81-2-4.21a15.2,15.2,0,0,1-.91-1.85,1.35,1.35,0,0,0-.53-.79c-.25-.18-.55-.25-.65-.59.49-.31,2.47,2,3,2.27A3.21,3.21,0,0,1,60.41,55c0,.1.12.16.17.28s.09.26.16.38c.2.39.45.73.64,1.13a12.83,12.83,0,0,1,.72,2.16A11,11,0,0,1,62.36,60c.06.4-.07.49-.19.86A8.86,8.86,0,0,0,62.06,63a17.57,17.57,0,0,0-.29,2.06C61.46,66,61.76,65,61.77,65.09Zm-.14-2.75c-.59,1.8-.72,2.66-.52,3.12A5,5,0,0,0,61.63,62.34Zm-.54,3.49v-.14c-.13,0-.12,0-.11.17l.11,0S61,65.84,61.08,65.83Z"/><path class="cls-2" d="M103.79,42.41l-.3-.11a1.05,1.05,0,0,1,.61-.4C104.12,42.12,103.82,42.28,103.79,42.41Z"/><path class="cls-2" d="M103.48,42.28c0,.43-.5,0,0,0Z"/><path class="cls-2" d="M76.91,45.69c.17-.41.48-.28.78-.21C77.5,45.78,77.25,45.91,76.91,45.69Z"/><path class="cls-2" d="M77.88,4.55c0-.11.1-.18.23-.1C78.06,4.57,78,4.57,77.88,4.55Z"/><path class="cls-2" d="M117.18,24q-.27,0-.25-.29l.25.29C117.12,24,117.1,23.91,117.18,24Z"/><path class="cls-2" d="M94.75,60.55s-.32-.48-.07-.38C94.75,60.2,94.75,60.56,94.75,60.55Z"/><path class="cls-2" d="M84.69,4.57a2.87,2.87,0,0,1,1.73-.36A2.76,2.76,0,0,1,84.69,4.57Z"/><path class="cls-2" d="M80.8,5.73a.36.36,0,0,1,.38,0C81.06,5.85,80.94,5.91,80.8,5.73Z"/><path class="cls-2" d="M45.84,11c.11-.35.41-.28.7-.23A.65.65,0,0,1,45.84,11Z"/><path class="cls-2" d="M79.06,49.67c-.09.11-.56.24-.53,0s.47-.17.53,0C79,49.81,79,49.6,79.06,49.67Z"/><path class="cls-2" d="M70.38,5.43l.1-.05C70.48,5.51,70.39,5.43,70.38,5.43Z"/><path class="cls-2" d="M94.36,53.73c.29-.07.26.2,0,.28l0-.28C94.46,53.7,94.37,53.82,94.36,53.73Z"/></g></g></svg>