<svg xmlns="http://www.w3.org/2000/svg" viewBox="0 0 115.75 49.85"><defs><style>.cls-1{fill:#f4f4f4;}.cls-2{fill:#62250e;}</style></defs><title>Element 2</title><g id="Ebene_2" data-name="Ebene 2"><g id="Ebene_5" data-name="Ebene 5"><path class="cls-1" d="M30.65,1.64C21.66,2-.2,5.89,2.61,25.79S17.53,48.21,25.44,45.89,57.8,29.56,67.8,29.16s22.74-1.32,22.74-1.32.88-8.64-1.12-8.56-6.28-6.75-23.35-8.06S30.65,1.64,30.65,1.64Z"/></g><g id="_1" data-name="1"><path class="cls-2" d="M83.51,30.77a16.75,16.75,0,0,0-4.6-.43,23.31,23.31,0,0,0-4.31.82c-2.9.76-5.84,1.25-8.76,2a54,54,0,0,0-8.61,3.23l-8.79,3.8L39.54,44a18.18,18.18,0,0,0-3.38,2,13.65,13.65,0,0,1-3.79,1.73c-1.82.59-3.72,1-5.58,1.46-.85.21-1.7.41-2.56.53a5.49,5.49,0,0,1-1.61-.06,12.56,12.56,0,0,0-1.95.16,17,17,0,0,1-2.35-.06,22.77,22.77,0,0,1-4.38-.88,26.41,26.41,0,0,1-7.77-3.6C2.64,42.76.94,38.91.32,34.71a38.63,38.63,0,0,1,.58-13A35.42,35.42,0,0,1,5,10.08a20.19,20.19,0,0,1,9.4-8.14A28.54,28.54,0,0,1,27,.05C32.61.34,38,2,43.5,3.22a18.49,18.49,0,0,0,1.84.61c.23,0,.44-.08.66,0s.42.32.71.43a4.83,4.83,0,0,0,.72.24c.28.05.53-.1.78-.05.54.1.29.77.68,1a6.8,6.8,0,0,0,1.85.27A20.74,20.74,0,0,1,53,6.33c1.41.44,2.78,1,4.16,1.53,5.79,2.27,12,3.46,18.13,4.52,5.2.9,10.76,2.49,16,1.35a9.91,9.91,0,0,0,3.55-1.45A36,36,0,0,1,98.07,10a13.54,13.54,0,0,1,1.5-.75,4.45,4.45,0,0,1,2,.17c.61.12,1.3.56,1.92.43a3.43,3.43,0,0,1,.75-.2c.41,0,.75,0,1.16-.08,1.08-.1,2.06.81,3,1.2a20.34,20.34,0,0,1,2.8,1.21A4.36,4.36,0,0,1,113.2,14a9.21,9.21,0,0,1,.38,1.66c.14.69.39,1.35.53,2,.26,1.35.35,2.73.57,4.09a12,12,0,0,0,.42,1.71,8.86,8.86,0,0,1,.09,2.11c.06.66.38,1.25.45,1.91a6.52,6.52,0,0,1,0,1.93,7.39,7.39,0,0,1-1.68,3.1,5.2,5.2,0,0,1-2.93,1.46,9.68,9.68,0,0,0-2.77,1.7,6.88,6.88,0,0,1-2.43.77,12,12,0,0,0-2.67.86c-1,.51-1.2,1.64-2.52,1.54a8,8,0,0,1-3.61-1.65c-1.31-.89-2.54-1.91-3.76-2.93a11.37,11.37,0,0,0-2.49-1.94A18.61,18.61,0,0,0,88,31.84c-1.49-.34-3-.76-4.45-1.07ZM21.41,27.39c.1.45,1.1.53,1.5.67a8.16,8.16,0,0,0,1.6.49,4.32,4.32,0,0,0,1.15.16c.34-.21-.22-1.54-.38-1.81s-.06-.18-.35-.31a9.66,9.66,0,0,0-1-.28c-.76-.26-1.56-.48-2.31-.73a3.88,3.88,0,0,1-1.51-.81.5.5,0,0,1-.07-.52c.14-.43.4-.47.81-.34s.41.34.76.68a1.81,1.81,0,0,0,.69.37,14.13,14.13,0,0,0,1.86.66,3.45,3.45,0,0,1,.52.08c.17.07.23.2.39.26a6.34,6.34,0,0,0,.83.14c.57.14,1.17.39,1.75.51,1.25.27,2.61.75,3.9.92.13,0,.19.15.35.16s.29-.06.41-.06.62.19.91.22a7.37,7.37,0,0,1,.84.07,5,5,0,0,0,1,.21c.53,0,.26-.12.51-.44s.65-.17,1-.19,1.88-.68,1.71.19c0,.22-.32.39-.19.63s.72.27.9.31c.63.14,2-.19,2.31.56-.93,0-2.29-.58-2.88.36a4.43,4.43,0,0,1-.38.61c-.07.09-.41,0-.24.32s.58.09.8.08.57.13.86.13c.48,0,1-.12,1.43-.15a2.71,2.71,0,0,1,.88.07c.44.15.12.12.36.44s.44.11.74,0,.86,0,1-.2c.23.17.5-.12.74-.19.4-.12.81-.11,1.21-.26s.69-.27,1-.36.54,0,.76-.12A8,8,0,0,0,49.11,29c.33-.19,1.13-.2,1.33-.5a2.19,2.19,0,0,0,1.07-.48c-1-.15-2.07.18-3.09,0-.32,0-.6-.14-1-.18a7.8,7.8,0,0,1-.8-.11,6,6,0,0,0-.86-.28c-.11,0-1.73.29-1.34-.32.09-.15,1.1-.18,1.32-.18s1.14.35,1.43.1-.09-.65,0-1,.14-.29.37-.53.24-.4.35-.48c.26-.19.86,0,1.17.05.52.13.92.38.92.95a.82.82,0,0,1-.75.89c-.26.06-.93.07-.43.36A1.49,1.49,0,0,0,50,27.24a3.49,3.49,0,0,1,.66-.39,2.75,2.75,0,0,1,.9-.1c.46,0,.86-.29,1.28-.34A6.63,6.63,0,0,0,54,26.29c.46-.13,1.09-.29,1.54-.39,1.48-.34,3.29-.44,4.93-1,.41-.13.48-.2.59-.58s.1-1,.54-1.09c.19-.06.41.1.58.16a3.39,3.39,0,0,0,.6,0c.51.08.73.6.91,1,.32.73,1.47.13,2.1.12a9,9,0,0,1,1.26.13,4.73,4.73,0,0,0,1.16.2,3.65,3.65,0,0,0,1.35-.37c.2-.14.58-.68.51-.86s-.34-.12-.35-.41a.39.39,0,0,1,.18-.38c.35-.24,1.4,0,1.84,0a10.16,10.16,0,0,1,2.13,0c.23,0,.87,0,1,.17s-.25.36-.45.41a13.1,13.1,0,0,1-1.72,0c-.39,0-1.54,0-1.71.39a26.71,26.71,0,0,0,3.46,0c1.18,0,2.3,0,3.49,0l3.83-.06a7,7,0,0,0,2.76-.19c.24-.12.84-.58.76-.9s-.79-.33-1.05-.34a4.1,4.1,0,0,0-1.19.28c-.56.14-.6-.3-1.15-.36-.18,0-.36.08-.54.07s-.57-.17-.86-.2c-.48,0-1,0-1.45,0a21.9,21.9,0,0,0-3.59.07c-.69.12-1.22-.08-2,0a3.46,3.46,0,0,1-1.56.1c-.57-.2-.15-.37.27-.43a22.62,22.62,0,0,1,3.21-.16c1.28,0,2.56-.12,3.84-.12a35.16,35.16,0,0,0,3.86,0c.57-.06,1.15-.24,1.72-.25.39,0,1,.44,1.32.32a1.71,1.71,0,0,0,.52-.78c-.05-.37-.81-.24-.47-.77.18-.29.59-.17.44-.6s-1.19-.74-1.6-.87c-.89-.31-2-.09-2.83-.57-.19-.11-.31-.31-.52-.37a3.1,3.1,0,0,0-.9,0c-.22,0-.49-.14-.53.21s.52.3.69.37.92.29.55.54-1.13-.13-1.48-.17a11.89,11.89,0,0,0-4,0c.25.19,1.33.42,1.43.72s-.76.35-1,.34c-.73,0-1.84-.24-1.82-1.25,0-.58.52-.64,1-.57a11,11,0,0,0,2.08.06c.36,0,.73,0,1.09,0a2.92,2.92,0,0,0,.77.09c.58-.14.22-.52-.22-.57-.24,0-.46.06-.7,0a3.37,3.37,0,0,1-.76-.24,13,13,0,0,0-2.09-.34c-1.34-.18-2.59-.7-3.94-.77A4.24,4.24,0,0,1,70.25,16a4.92,4.92,0,0,1-.66-.44,2.63,2.63,0,0,0-.9-.31c-1.36-.3-2.71-.55-4.07-.9a6.91,6.91,0,0,1-1.91-.65c-.31-.19-.62-.28-.5-.66a.69.69,0,0,1,.48-.42c.68-.06.39.73.63,1a3.72,3.72,0,0,0,1,.31c.38.12.76.23,1.15.31,2.6.54,5.2.8,7.83,1.12a31.47,31.47,0,0,0,4.33.35,7.22,7.22,0,0,0,1.74-.13c.23-.06,1.48-.1,1.2-.54-.12-.19-1.14-.11-1.39-.15a19,19,0,0,0-2.31-.2A7.92,7.92,0,0,1,75,14.58a11.61,11.61,0,0,0-1.93-.33c-1.66-.2-3.33-.48-5-.81-.83-.17-1.66-.35-2.48-.54a20.55,20.55,0,0,1-2.25-.49c-1.47-.52-3-.87-4.46-1.36-.56-.18-3.85-.9-3.41-1.72a6.14,6.14,0,0,1,1.11.34,3.28,3.28,0,0,0,1.08.43c.57,0,.22-.83-.1-1.09a6.61,6.61,0,0,0-2.17-.67c-.7-.19-1.69-.45-2.27.12-.23-.07-.58.05-.81-.11s-.27-.51-.63-.69a5.5,5.5,0,0,0-2.62-.41,3.71,3.71,0,0,0-1,.47,3.64,3.64,0,0,0-.82.4c-.31.24-.48.53-.91.52s-.56-.46-1-.56a4.13,4.13,0,0,0-1.49.25,6.51,6.51,0,0,0-.95.1c-.19.06-.36.32-.54.36s-.64-.09-.77-.09a2.47,2.47,0,0,0-.92.07,7.27,7.27,0,0,1-1,.12,22.3,22.3,0,0,1-2.28.32c-.15,0-.31,0-.44,0h-.56a4.68,4.68,0,0,0-.93.27,7.09,7.09,0,0,0-1.13.15c-.14.05-.29.2-.45.2s-.33-.3-.54-.33a4.5,4.5,0,0,0-.65.52c-.16.25-.14.4-.36.63a10.25,10.25,0,0,0-1,1.48,5.4,5.4,0,0,0-.42.76c-.13.3-.08.76-.51.8s-.59-.55-.51-.87.69-.93,1-1.31a19.51,19.51,0,0,0,1.7-2.42c.22-.44-.14-.53-.1-.92s.54-.44.54-.69c0-.77-1.82.64-2,.6-.56-.14-.07-.71.16-.89A3.25,3.25,0,0,1,32.5,6.6l2.14-.46a10.07,10.07,0,0,0,2.82-1.25c-1.39-.12-2.56-.31-3.76.46-.16.11-.4.4-.56.47a5,5,0,0,0-.77.26,12.12,12.12,0,0,0-2,1.34,26.76,26.76,0,0,0-1.88,2,22.47,22.47,0,0,0-1.69,1.93,4,4,0,0,1-.57.77,1.94,1.94,0,0,0-.55.72c-.06.15-.05.29-.12.44s-.28.31-.32.47.11.41,0,.61c-.27-.28-.68.05-.77-.37s.32-1,.56-1.33.21-.44.34-.63a5.69,5.69,0,0,1,.54-.49c.37-.41.69-.89,1-1.29.41.23.85-.83,1-1.12.38-.6,1-1,1.33-1.55a4.34,4.34,0,0,1,1.24-1.39c.33-.22,1.28-.8.53-1.07-.49-.18-1,.2-1.35.42-.57.32-1.16.61-1.72,1a3.75,3.75,0,0,0-.81.63c-.17.19-.28.55-.49.7s-.5.14-.72.27a2.88,2.88,0,0,0-.68.61c-.91,1-1.87,2-2.8,3-.38.41-.69.93-1,1.3a2.5,2.5,0,0,0-.58,1.17c0,.24.22.43-.07.62s-.52-.06-.7-.22-.24-.2-.2-.46a5.14,5.14,0,0,1,.82-1.35,20.65,20.65,0,0,1,2.72-3,8.44,8.44,0,0,0,1-1.07A3.61,3.61,0,0,1,24.95,8a8.6,8.6,0,0,0,.74-.84c.27-.32,1.4-1.2.38-1-.38.07-1.88.31-2,.7-.45-.18-1.12.62-1.4.87a8.35,8.35,0,0,0-.7.89,3.19,3.19,0,0,0-.62.78c-.32.08-.28.4-.44.64s-.61.68-.87,1c-.59.74-1.17,1.52-1.69,2.31a7.43,7.43,0,0,0-.85,2.21c-.18.6-.85.46-.8-.17a4.92,4.92,0,0,1,1.11-2.28c.58-.84,1.14-1.69,1.71-2.54.28-.41.56-.81.87-1.19s.57-.54.59-.88c0-1.16-1.24.77-1.38,1C19,10.22,18.53,11,18,11.78a19,19,0,0,0-1.5,2.29c-.16.35-.2.75-.39,1.09-.06.11-.22.23-.29.36a3.66,3.66,0,0,0-.16.61c-.06.25,0,.7-.25.86s-.35,0-.6.32a5,5,0,0,0-.66,2.14c-.07.35-.31.68-.35,1,0,.16.07.31.06.46s-.18.39-.15.52.38.35.45.61c.13.46-.31.47-.47.72s0,1.1,0,1.5.1,1,.13,1.46c0,.26-.11.57,0,.82a2.76,2.76,0,0,0,1.17.69c.59,0,.17-.33.1-.65s-.07-.71-.19-1.07-.3-.59-.43-.92a.9.9,0,0,1,.26-.85c.26-.19.86,0,.93-.35l.13-.08c.31-.07.45.19.54.36s.06.28.11.4a5,5,0,0,1,.37.63c.17.51.17.73-.24,1s-.56.26-.56.66.37,2.16,1.21,1.86c.43-.16.38-.66.93-.57s1,.6,1.37.9a11.25,11.25,0,0,0,3.23,1.31,19,19,0,0,0,3.81,1,8.64,8.64,0,0,1,1.28.29c.51.14,1,.11,1.5.25a14.68,14.68,0,0,0,1.81.2l1.75.21c.44.06.81-.13,1.22-.07a8,8,0,0,0,.91.16c.22,0,.45-.1.67-.1.65,0,1.3,0,2,0s1.64.12,2-.29c-1.29-.09-2.61-.28-3.86-.37a15.57,15.57,0,0,1-1.61-.08,10.11,10.11,0,0,0-1.46-.17,7.09,7.09,0,0,0-1.75-.3c-.58-.07-1.16-.22-1.74-.28A27.14,27.14,0,0,1,26,29.68c-1-.24-2-.36-2.91-.59a14.5,14.5,0,0,1-1.54-.5,2.54,2.54,0,0,1-1.09-.68.9.9,0,0,1,.41-.69c.08-.06.16-.19.27-.18S21.22,27.26,21.41,27.39Zm77.81,7.49c.07-.15-.08-.4-.15-.53a15.74,15.74,0,0,1-.69-1.56c-.23-.61-.4-1.23-.6-1.84s-.31-.59-.87-.29c-.34.18-1,.5-.88,1s.57,0,.89,0c.1,0,.26-.12.34,0s-.19.27-.26.44-.06.34-.19.54-.34.11-.38.42A2.36,2.36,0,0,0,97,34.25c.35.16.55-.49,1-.51s.23.35.16.76-.22,1,0,1.31a3.38,3.38,0,0,0,.62.42.64.64,0,0,0,.51,0c.34-.19,0-.1.05-.21a.38.38,0,0,1,.26-.36l.15-.07c.09-.17.17-.17.07-.38s-.38-.13-.5-.22S99.32,34.91,99.23,34.87Zm-44.06-3.1a1.61,1.61,0,0,0-.48.25c-.06,0-.25.05-.34.1s-.34.34-.42.41a8.31,8.31,0,0,0-.78.7l-.11.19a.48.48,0,0,0-.27.07c-.08.08-.25.15-.18.31s2.38-.72,2.73-.88a9.4,9.4,0,0,1,1.57-.53A11.56,11.56,0,0,0,58.7,32a10.5,10.5,0,0,0,.93-.58c.28-.15.47-.33.74-.47A11.48,11.48,0,0,0,63,29.59a2.74,2.74,0,0,0-1.47.4,5.92,5.92,0,0,1-.74.2c-.2.06-.31.21-.49.29-.39.18,0,.15-.53.08a1.64,1.64,0,0,0-.71,0c-.33.08-.81.45-1.11.37a6.75,6.75,0,0,1-1.46.45C56.23,31.47,55.3,31.53,55.17,31.77ZM96,21.53c.19,0,.79-.59.89-.74s.33-.41.09-.66-.38,0-.66.07-.76.1-.83.53c0,.27.17,1,.5.8C96.17,21.54,95.83,21.68,96,21.53ZM9.81,29.93A3,3,0,0,0,10,31.1a1,1,0,0,0,.41.54c.19.13.79.42,1,.24s-.05-.66-.1-.9,0-.44-.21-.78a2.86,2.86,0,0,0-.62-.83c-.24-.17-.72-.49-.89-.14A1.33,1.33,0,0,0,9.81,29.93ZM59.88,28.1A7.67,7.67,0,0,0,61,27.9a6.1,6.1,0,0,0,1.26-.58A4.05,4.05,0,0,1,63.52,27a8.7,8.7,0,0,0,1.84-.45c1.3-.36,2.62-.33,3.94-.56s2.74-.5,4.12-.68c.36,0,1.85,0,2-.27.39-.49-.82-.39-1-.37-.64.08-1.29,0-1.93.12s-1.46.26-2.19.36-1.47.18-2.2.27a8.15,8.15,0,0,1-1.8-.08,5.75,5.75,0,0,0-1.86.26,6.35,6.35,0,0,1-.82.25c-.19,0-.5-.05-.63.11-.35.21-.82-.06-1.12.28a6.32,6.32,0,0,0-1.25.36,11.13,11.13,0,0,1-1.17.17c-.35.08-.72.22-1,.3s-.71.14-1.07.23a12.53,12.53,0,0,0-1.29.39c-.42.15-.54.17-.28.54.1.14.29.26.4.42s.11.31.26.39.47,0,.67-.16A6.36,6.36,0,0,0,59,28.37C59.21,28.28,59.72,28.27,59.88,28.1Zm-8.8,4.4c.23.09.49-.09.7-.15.45-.13.79-.32,1.26-.49.26-.09.49-.24.75-.35a2.84,2.84,0,0,1,.71-.19c.3-.06.84-.2,1-.45.6.1,1.1-.32,1.68-.45s2.11-.24,2.22-.66A10.64,10.64,0,0,0,61,29.32,7.54,7.54,0,0,0,62,29.1c.22-.08.42-.29.63-.36a4.57,4.57,0,0,0,.78-.17c.11-.06.14-.2.27-.25a3,3,0,0,1,.59-.08,21.77,21.77,0,0,0,2.48-.5,34.76,34.76,0,0,1,4.8-.83c.8-.1,1.61-.25,2.42-.3a11.23,11.23,0,0,0,2.19-.09c.35-.09,1.34-.36,1.5-.73.28-.66-1.11-.24-1.32-.21-1.65.24-3.31.35-5,.63-.78.14-1.57.27-2.36.35s-1.37.25-2.08.36A8.23,8.23,0,0,0,66,27a5.16,5.16,0,0,0-.7.43,1.87,1.87,0,0,1-.91.28c-.34,0-.58-.23-.92-.14s-.52.32-.82.41-.55.15-.84.26a4.17,4.17,0,0,1-.72.32c-.11,0-.24-.11-.34-.08s-.21.11-.33.15l-1.83.51a4.75,4.75,0,0,0-.55.28c-.28.12-.8.12-1,.35s-.7,0-1,.2a2.63,2.63,0,0,0-1.15.39,7.32,7.32,0,0,0-2,.62l-1.48.47c-.61.2-1.14.56-1.73.8-.3.12-.63.15-.92.26s-.39.29-.68.32a3.18,3.18,0,0,0-.7,0,.63.63,0,0,0-.25.3.43.43,0,0,1-.53.07c-.51,0-1,0-1,.67s.58.33,1,.18,1.3,0,1.56-.28c-.05,0,.75-.11.84-.15s.18-.21.35-.34.15.13.4-.2c.35.11.44-.12.71-.25A2.49,2.49,0,0,0,51.08,32.5ZM16.71,12.35c.31-.08.15-.26.29-.44s.42-.21.59-.39.11-.51.2-.8a2.5,2.5,0,0,1,.5-.73c.42-.56.75-1.13,1.22-1.64A12.43,12.43,0,0,0,21,6.29a9.61,9.61,0,0,0-2.91,2c-.66.62-1.06,1.46-1.61,2.08a25.61,25.61,0,0,0-2.15,2.86A8.45,8.45,0,0,0,12.9,15.8c-.31,1.21-.81,2.42-1,3.68a2.3,2.3,0,0,1-.2.75c0,.06-.18.07-.21.15s.11.19.1.34-.19.41-.27.64a2.84,2.84,0,0,0-.08.78,2.87,2.87,0,0,0,0,.57c0,.24.14.55.13.72s-.16.07-.17.15,0,.22,0,.35a2.1,2.1,0,0,0,0,.74c.13.31.69.52,1,.71s.88.81.86,0c0-1-.09-2-.16-3.12a14.88,14.88,0,0,1,0-4.49c.5,0,.26.26.41.56s.3.27.47,0a9.37,9.37,0,0,0,.47-1.39c.16-.47.38-.92.53-1.39a6.37,6.37,0,0,1,1-2.17c.18-.23.23-.5.4-.72a2.12,2.12,0,0,1,.21-.27C16.37,12.27,16.51,12.59,16.71,12.35ZM92.92,27.11c.3.11.41-.11.64-.24a6.37,6.37,0,0,1,.75-.33c.24-.09.28.07.45-.23a.92.92,0,0,0,0-.78c-.36-.47-1.1.26-1.47.46s-.8.58-.57,1C92.68,27.11,92.86,27.38,92.92,27.11Zm5.7,4.28a1.78,1.78,0,0,0,.1.74c-.05-.17.29.58.21.45.08.14.19.2.26.34.18.34.13.59.38.9s.59.67.89,1a4.6,4.6,0,0,0,2,.92,2,2,0,0,0,2.16-.17c.31-.25.37-.31.15-.56a4,4,0,0,0-1-.59,6.41,6.41,0,0,1-2.2-1.42c-.5-.55-1.25-1-1.55-1.62a5.85,5.85,0,0,1-.48-1.27c-.06-.3,0-.57-.26-.78A22.49,22.49,0,0,1,99.6,27a3.64,3.64,0,0,1,.21-.84c.16-.35.4-.52.47-.9.13-.75-.42-1.64-.53-2.4A18.62,18.62,0,0,1,99.7,20a11.87,11.87,0,0,1,.08-2.58c.07-.29.22-.42.21-.74,0-.52-.13-.61.17-1.12a13.28,13.28,0,0,1,3.12-3.87c.2-.15,1.41-.7,1.35-1-.12-.58-1.87.48-2.12.53s-.61,0-.92.12-.53.59-.82.82-.34.18-.55.41,0,.19-.14.28-.33.11-.43.21a5.77,5.77,0,0,0-1.92,4.4c0,.8,0,1.67.08,2.47s.55,1.64.63,2.52a10.28,10.28,0,0,0,0,1.25c.09.41.38.42.58.73s0,.64-.07,1,0,.87,0,1.3a9,9,0,0,1-.69,2.69,1.62,1.62,0,0,0-.08,1.09A7.45,7.45,0,0,0,98.62,31.39Zm4.78-16.73c.43.19,1-.32.52-.37C103.67,14.26,103.48,14.57,103.41,14.66ZM93,28c-.33.09-.52.75-.17.94s.67-.4.83-.41c.75,0,.08.74-.14.88s-.53.31-.6.64,0,1.08.34,1.17.77-.61.87.07c.07.51-.69.47-.59,1.05a4.2,4.2,0,0,0,.74,1.34c.2.23.88.85,1.22.82.57-.06,0-1.41-.23-1.69s-.76-.48-.63-1.1a4.31,4.31,0,0,0,.23-.82,3,3,0,0,0-.23-1,2.32,2.32,0,0,1-.24-.79c0-.38,0-.1.23-.4a1.62,1.62,0,0,0,.31-1.18c0-.63-.3-.6-.75-.21S93.36,27.73,93,28Zm-20.71.52a1.52,1.52,0,0,0,.78-.44c.29,0,1.38-.28,1.45-.64s-1.32-.09-1.6-.06l-1.7.16c-.12,0-.56,0-.65.06s-.16.37.1.44c-.15.38-.37.66.11.81A2.29,2.29,0,0,0,72.25,28.57Zm-19.31,8.2a9.52,9.52,0,0,0-2.29.72c-.24.1-.9.24-1.07.47s-.08.52.19.56,1.34-.61,1.71-.77a5.64,5.64,0,0,0,.8-.38c.2-.13.59-.63.78-.59q0-.07-.12,0C51.81,36.93,53,36.77,52.95,36.77ZM15.27,5.12c-.8-.32-1.55.67-2.19,1a1.88,1.88,0,0,0-.83.75c-.17.34-.17.65.26.48a5.21,5.21,0,0,0,.87-.65c.26-.2.43-.48.68-.68s.65-.22.87-.45S15.13,5.18,15.27,5.12Zm87.6,16.15c-.13,0-.34-.06-.41-.15s-.06-1,0-1.28a10.5,10.5,0,0,1,.67-2.31,3.44,3.44,0,0,0-1.47,2.08,6.68,6.68,0,0,0-.56,3.54c.12.45.18.94.32,1.4a3.33,3.33,0,0,0,.71,1.36,4.32,4.32,0,0,1,.6,1.47,3.08,3.08,0,0,0,.89,1.09c.44.4.48.07,1,0s.66.37,1.13.51c.68.2.41-.26.09-.53a2.55,2.55,0,0,1-.8-1.32c-.16-.43-.56-.61-.48-1.13a8.14,8.14,0,0,1,.68-1.61,2,2,0,0,0,.21-.72c0-.34-.27-.48-.34-.75s-.16-.25.15-.41.62-.1.91-.25.75-.35.52-.7-.41-.13-.43-.49.13-.4.38-.4.43.21.65.23a5.92,5.92,0,0,0,.79-.1c.29,0,.58.12.87.12a5,5,0,0,1,.9-.06c.57.1.83.27,1.35-.1a2.76,2.76,0,0,1,.71-.46,2.84,2.84,0,0,0,.68-.19c.42-.27.28-.55.4-1,.06-.23.28-.44.35-.69a3,3,0,0,0,.07-1.05c0-.31,0-1.07-.4-1-.25,0-.28.47-.6.22s0-.36,0-.57a1.79,1.79,0,0,0-.25-.53c-.14-.13-.33-.1-.45-.2s-.13-.22-.24-.29-.19,0-.25,0l-.32-.17a5.15,5.15,0,0,0-1.29-.68,4.51,4.51,0,0,0-1.82.12,4.63,4.63,0,0,0-.8.21,3.1,3.1,0,0,1-.43.17c-.1,0-.25,0-.36,0-.29,0-1.45.45-1.13.83.16.2.71,0,.91-.11s.24-.13.37-.16c.31-.09.31,0,.59,0s1.53,0,1,.47c-.17.15-.51,0-.71.09a3.2,3.2,0,0,0-.81.31c-.53.26-1.15.15-1.62.52-.25.2-.81.86-.59,1.18s1,.24.4.81c-.42.41-1.21.42-1.58,1S103,20.68,102.87,21.26Zm9.94,3.2c-.24-.07-.75.46-1,0-.11-.24.21-.7.42-.83.63-.4,1.4.83,1.27-.46,0-.37-.19-1-.59-1.13s-.74.3-1,.57c-.64.61-1.43,1.35-1.36,2.32-.46-.09-.6-.85-1.11-.68s-.89,1.31-1.19,1.73-.72.47-.75-.1c0-.41.8-1,.12-1.34-.44-.19-.82.56-1,.88a1.25,1.25,0,0,0-.24.77c0,.19.22.38.16.58-.12.4-.61.19-.74.54s.56.94.78,1.13a12.31,12.31,0,0,0,1.35,1.15,2.85,2.85,0,0,0,1.54.12,7.64,7.64,0,0,0,1.59-.54c.49-.13.76-.16,1.05-.66s.3-.78.77-1.11a1.71,1.71,0,0,0,.78-1.28,2.75,2.75,0,0,0,0-1.45c-.17-.49-.36-.41-.84-.17C112.78,24.45,113.48,24.13,112.81,24.46Zm-96-16.27c.19,0,.42-.43.55-.55s.38-.37.59-.55a8.05,8.05,0,0,1,1.88-1.42,3,3,0,0,0-1.68.82c-.48.41-1,.69-1.51,1.09a20.35,20.35,0,0,0-2.93,3.07c-.48.59-.94,1.19-1.39,1.79a5,5,0,0,0-1.09,1.67,4.93,4.93,0,0,1-.37,1.61c-.24.43-.79,1.1-.55,1.63.62-.33.67.12.6.62a10.15,10.15,0,0,0-.07,1.84,2.58,2.58,0,0,0,.5-1.23c.14-.57,0-1.09.08-1.63a7.51,7.51,0,0,1,.72-1.57A11,11,0,0,1,13,13.91c.69-1,1.39-2,2.1-3a11.5,11.5,0,0,1,1-1.17,4.85,4.85,0,0,0,.69-1.55C16.93,8.16,16.66,8.59,16.81,8.19Zm81,20c.19-.33,0-.91,0-1.28A6.48,6.48,0,0,0,98,25.49a13.29,13.29,0,0,0-.3-1.36c-.08-.43,0-.87-.11-1.31-.11-.74-.27-1.36-1.07-.86a1.93,1.93,0,0,0-1,1.34,8.43,8.43,0,0,1,0,1.34A5.61,5.61,0,0,0,95.31,26c0,.95.24,1.88.34,2.82.07.64-.16,2,.85,1.34a3.88,3.88,0,0,0,1.35-2C97.94,28,97.52,29,97.84,28.15Zm-74,5a5.53,5.53,0,0,0,1.85.13c.62,0,1.24,0,1.87,0a8,8,0,0,0,2,0c.44-.12.29-.3-.09-.45a14.06,14.06,0,0,0-2-.44c-.59-.13-1.18-.24-1.77-.38-1.32-.32-2.61-.74-3.89-1.17s-2.51-.82-3.75-1.28c-.39-.15-1.16-.62-1.16,0a2.87,2.87,0,0,0,.55,1.1,1.91,1.91,0,0,0,1,.72c.57.2,1.11.49,1.68.66a28.2,28.2,0,0,0,3.69,1C24.39,33.34,22.66,33,23.89,33.16Zm5-5.46a5.12,5.12,0,0,0-1.43-.44c-.39,0-.43.23-.64.57-.53.9-.45,1.16.55,1.34,2.22.41,4.43.85,6.68,1.11.39,0,2.5.42,2.32-.22,0-.14-.25-.11-.33-.2a1.09,1.09,0,0,1-.2-.41c-.14-.32-.12-.54-.48-.67a8.13,8.13,0,0,0-1.3-.14l-1.66-.27c-1.18-.2-2.35-.44-3.52-.67C28.89,27.68,29.91,27.9,28.89,27.7Zm-6.28,9.52c.53.39,1.51.16,2.11.09s1.47-.23,2.2-.35,1.46-.27,2.18-.43c.19,0,1.75-.23,1.4-.59,0,0-.63.09-.72.09a6.9,6.9,0,0,0-1,.08c-.69.07-1.39.06-2.08.08-1.49.06-3,.07-4.45,0-.36,0-.73,0-1.1,0s-.43-.14-.74-.22c-.5-.12-1.09.08-1.64,0a5.73,5.73,0,0,0-2-.22c-.58.2,0,.8.32,1.13a2.33,2.33,0,0,0,1.43.95,9.58,9.58,0,0,0,1.74-.06,1.16,1.16,0,0,0,1-.45c.18-.23.08-.46.46-.45a4,4,0,0,1,.85.34C23,37.52,22.34,37.12,22.61,37.22Zm8.12-2.9c2.24.13,4.56.74,6.8.4.54-.08,1.08-.09,1.61-.2s1-.39,1.57-.55c.29-.09,1.14-.05,1.34-.26s0-.71-.31-.85c-.73-.38-2.1.1-2.86.19a5.51,5.51,0,0,0-1.44.17c-.4.16-.59.4-1,.43s-1-.11-1.47-.1a15.94,15.94,0,0,0-1.77.2c-.6.08-1.2.16-1.8.2-.17,0-1.32.08-.63.38C30.76,34.33,30.63,34.28,30.73,34.32Zm-5.58,5.22a39.46,39.46,0,0,0,6.74-1.44c.51-.16.53-.33.55-.88s0-.64-.63-.54c-.27,0-1.13,0-1.2.35-.1.49.61.07.75.34.22.42-.37.5-.63.41s-.18-.28-.54-.24-.37.21-.58.24-.41-.09-.61-.11a3.23,3.23,0,0,0-.79.11c-.53.09-1.06.17-1.59.22s-1.09.11-1.64.18c-.24,0-1.3,0-1.46.2-.47.65,1.32,1,1.63,1.17C25.75,39.47,24.55,39.26,25.15,39.54Zm19.63-6.88a2.9,2.9,0,0,0,1.45-.2c.51-.15,1-.43,1.47-.59a20.65,20.65,0,0,1,3-1c.14,0,.33,0,.46,0s.2-.32.31-.38a9,9,0,0,1,1.34-.25c.23-.07,1.09-.24.84-.65-.09-.14-.35-.13-.49-.19a1.93,1.93,0,0,1-.52-.34c-.45-.37-.44-.25-.86.17a2.37,2.37,0,0,1-1.07.71c-.44.13-.86.15-1.3.28s-1.14.24-1.7.4-1,.19-1.52.33c-.19,0-1,.26-1.08.42-.14.33.48.48.14.83-.06.06-1.07.21-.48.49C44.95,32.73,44.73,32.64,44.79,32.67ZM43,35.88c-4.28,1.31-8.65,2.29-13,3.51a4,4,0,0,0,3.16.12c1.14-.28,2.27-.59,3.4-.93,2.12-.63,4.76-1.11,6.39-2.71C38.73,37.18,42.34,36.53,43,35.88Zm-9.79,5.24a7.19,7.19,0,0,0,1.56-.37,9.67,9.67,0,0,0,1.81-.5c1.14-.49,2.34-.86,3.51-1.31s2.3-1.1,3.49-1.53c.59-.21,1.24-.23,1.81-.45.29-.11,1-.44.57-.64-.27-.12-1.4.34-1.71.44-.66.2-1.31.44-2,.65-1.19.38-2.36.82-3.55,1.23s-2.51.7-3.76,1.05a8.22,8.22,0,0,0-2.08.59c-.25.18-.28,0-.25.33s.4.47.57.53S32.92,41,33.22,41.12Zm10.24-6.26c.37-.92-1.31-.54-1.6-.46-.88.25-1.76.51-2.65.72s-1.87.45-2.81.63c-.41.08-1.36,0-1.46.53a.73.73,0,0,0,.82.85c.86-.14,1.79-.41,2.64-.62S40.13,36,41,35.75c.66-.22,2.06-.29,2.48-.89C43.51,34.73,43.27,35.13,43.46,34.86ZM7.18,20.38q-.34,1.49-.7,3a27.68,27.68,0,0,0-.4,3,2.29,2.29,0,0,0,.07,1.1,7.36,7.36,0,0,1,0,1.45,1.24,1.24,0,0,0,.42,1c.21.19.74.59,1,.21.12-.21-.06-.74-.09-1-.08-.48-.2-.94-.32-1.41A12.76,12.76,0,0,1,6.88,25,2.06,2.06,0,0,1,7,24c.14-.27.43-.39.54-.67a3.89,3.89,0,0,0-.38-2.93C6.92,21.5,7.77,21.38,7.18,20.38ZM39.61,6.51c.07-.72-2.63-.09-3.08.09a5,5,0,0,0-1.54,1c-.2.18-1,.82-.91,1.11s1.44.06,1.74,0,.71-.15,1.07-.21a5.34,5.34,0,0,0,1-.07c.42-.17.21-.62.52-.94s1-.44,1.24-1C39.64,6.15,39.44,6.92,39.61,6.51ZM30.42,42.76c.81-.09,1.26.63,2,.58a8.21,8.21,0,0,0,2.23-.69c.81-.31,1.57-.72,2.37-1.06.42-.18,1.63-.36,1.1-1-.21-.26-.12-.14-.41-.08a9.89,9.89,0,0,0-1.16.42,20.08,20.08,0,0,0-2.16.67c-.27.14-.45.42-.75.48a6.3,6.3,0,0,1-.93-.07,6.23,6.23,0,0,0-2.27.77C30.94,42.7,31.37,42.33,30.42,42.76ZM60,10.87c1.56.49,3.18,1,4.78,1.32l1.3.29a4,4,0,0,0,1.16.27c.34-.07.25-.19,0-.36a5.88,5.88,0,0,0-1.28-.44c-1.63-.56-3.24-1.16-4.88-1.7-.57-.19-1.81-.83-2.33-.23s.85.63,1.25.85C60.74,11.11,59.62,10.66,60,10.87Zm40,0a1.59,1.59,0,0,0-1.51.61c-.48.45-1,.88-1.45,1.36s-1.95,2.23-1.53,3.1c.19.4.81.1,1.09-.17s.42-1,.64-1.53a9.09,9.09,0,0,1,2.76-3.37C99.54,10.76,99.05,11.5,99.95,10.85ZM20.78,40.36c.53,0,2.51.14,2.5-.65,0-.55-.88-1.18-1.36-1.27s-2.82-.13-2.86.31c0,.17.48.56.6.68a6,6,0,0,0,1.12.94C21.55,40.34,20.35,40.08,20.78,40.36Zm24-34.15c.14-.4-.87-.33-1-.28s-.33.22-.53.26-.49-.07-.73,0a7.6,7.6,0,0,0-1.84.78c-.42.2-1.26.54-1.47,1s.65.28,1.06.24a4,4,0,0,0,1.67-.31c.17-.12.24-.33.42-.44s.53-.09.78-.21.61-.41.93-.57.66-.2.74-.41ZM15.47,30.79c-.3-.06-.55-.28-.7.11,0,.13.2.63.27.74.31.42,1,.5,1.48.65.63.22,1.27.41,1.91.6a10.59,10.59,0,0,0,2,.59c.61.06.72-.37.16-.66s-1-.32-1.53-.54a19.49,19.49,0,0,1-3.55-1.49C15.22,30.73,16.57,31.59,15.47,30.79ZM48,37.64a16.43,16.43,0,0,0,3.26-1.17c.47-.21.62-.63.92-1,.17-.21.79-.6.48-.8a5,5,0,0,0-1.57.39,6.93,6.93,0,0,0-1.3.79c-.41.3-.82.59-1.24.87-.14.09-1.11.81-.55.94C48.19,37.61,47.78,37.58,48,37.64ZM17,40.58c.42.09,2.26.31,2.37-.27.07-.4-1.13-1.37-1.42-1.52s-2.39-.49-2.57,0,1.27,1.55,1.61,1.83C17.7,40.74,16.42,40.12,17,40.58ZM47.4,35.86a7.94,7.94,0,0,0,3.13-1.29c.2-.14,2.32-1.46,1.65-1.68-.26-.09-1.15.4-1.43.51a13.66,13.66,0,0,0-1.55.74,15.66,15.66,0,0,1-1.62.76c-.57.22-.9.49-.17,1C47.48,35.85,47.17,35.71,47.4,35.86Zm-37.19-18c-.5,0-1.1,2.67-1.22,3.13,0,.17-.27.65-.2.83s.2.14.27.25c.2.34.06.72.34,1.11s.48.76.75.35S10,22.11,10,21.68a9.59,9.59,0,0,1,0-2c0-.36.52-1.62.21-1.83C10,17.86,10.33,17.95,10.21,17.87Zm2.1-6.71c-.37-.37-2.55,3-2.83,3.42-.78,1.2-1.77,2.52-1.73,4a86.85,86.85,0,0,1,4.56-7.45S10.63,13.51,12.31,11.16Zm69.83,13a7.43,7.43,0,0,0-1.85,0c-.69.1-.49.2-.45.72s0,.35-.36.52-.91.31-.52.65a2.86,2.86,0,0,0,1,0,2.65,2.65,0,0,0,1.19-.48c.22-.14,1.94-1.23,1-1.44C81.42,24.12,82.41,24.26,82.14,24.2Zm-66.39,13c0,.06.64.27.75.12s-.38-.74-.51-.91a2.77,2.77,0,0,0-2.44-1.16c-.83,0-.49.65-.11,1.08a4.28,4.28,0,0,0,2.3.87ZM47.26,4.84a29.5,29.5,0,0,0-4.57-1.22c-.71-.13-1.41-.25-2.12-.42-.11,0-1.83-.53-1.47.12.14.25,1.45.36,1.75.45.64.2,1.27.39,1.92.54.82.18,1.64.32,2.47.47.61.11,1.43.42,2,.07C46.8,4.68,46.86,5.08,47.26,4.84Zm18,24.87a7.71,7.71,0,0,0,1.61-.25,5.22,5.22,0,0,0,1.23-.34,3.85,3.85,0,0,0,1.33-.76c.41-.49-.07-.45-.48-.39a8.37,8.37,0,0,0-2.72.66,2.13,2.13,0,0,1-.58.31c-.14,0-.44-.11-.59,0-.35.25-.11.63.2.78S65,29.59,65.23,29.71Zm29.58-7.77c-.12-.41-.13-2.64-.71-2.5-.32.08-.23.68-.34.94s-.43.49-.55.76-.29,1.57.24,1.62a1.92,1.92,0,0,0,1.36-.83C94.62,21.24,94.69,22.3,94.82,21.94ZM25.65,42a3.74,3.74,0,0,0-1.95.29c-.48.36.18.6.48.81a3.21,3.21,0,0,0,1.22.68,2.25,2.25,0,0,0,.75-.08,5.21,5.21,0,0,0,.75-.06c.11,0,.36-.11.33-.28s-.67.05-.77.07c-.33.07-1.26.14-1-.53.12-.33.63-.09.79-.32s-.37-.49-.58-.58C25.06,42,25.86,42.11,25.65,42ZM14,40.7c.48.1,2,.34,1.41-.46-.28-.37-1.34-1.82-1.87-1.62-.22.08-.22.29-.3.48s-.29.35-.34.47c-.16.39.72,1,1.11,1.13S13.42,40.54,14,40.7Zm49.33-9.29a18.7,18.7,0,0,0-2.74.46c-.34.11-1.71.69-.85,1.15.53.28,1.73-.51,2.23-.71a10.84,10.84,0,0,0,1.2-.38c.18-.1.53-.42.16-.52C63,31.47,63.54,31.48,63.31,31.41ZM30.57,3.86c0-.25-2.23,0-2.55.11a5,5,0,0,0-1.32.57c-.2.11-1.06.53-1.12.77s.95-.06,1.11-.1a9,9,0,0,0,1.65-.45c.4-.18.72-.58,1.14-.71s.8.24,1.08-.2C30.55,3.65,30.46,4,30.57,3.86Zm-3,38.51a3.71,3.71,0,0,0,1.51-.2c.53-.09,1.06-.19,1.58-.32a4.86,4.86,0,0,0,1.51-.39c.45-.39,0-.32-.4-.26a7.4,7.4,0,0,1-1.31,0,7.54,7.54,0,0,0-1.65.28c-.48.1-2.32.26-1.26.9C27.81,42.42,27.46,42.27,27.62,42.37Zm-8.64-8a6.16,6.16,0,0,0,1.65.28c.4-.07.42-.23.07-.43a4.23,4.23,0,0,0-.88-.17c-.28-.07-.54-.19-.81-.28-.57-.19-1.15-.33-1.72-.5a9,9,0,0,0-1.47-.57c-.38.13,0,.5.24.7a6.31,6.31,0,0,0,2.92,1C19.53,34.49,18.35,34.31,19,34.39Zm4.71,9.34A4.83,4.83,0,0,0,22,42.58a2.89,2.89,0,0,0-1,0c-.25,0-.76-.1-1,.06-.68.47.72.76,1,.81.49.1,1,.13,1.49.23s.84.31,1.23,0C22.94,43.13,23.46,43.89,23.68,43.74Zm-8-13.52c.84.3.9.07.56-.7a2,2,0,0,0-1.4-1.22c-.64-.14-.76.2-.54.8a2.12,2.12,0,0,0,1.37,1.12ZM6.7,31c.29.89.68,1.8.89,2.71.07.32,0,.78.3,1s.52.2.56-.17a4.41,4.41,0,0,0-.3-1.26C8,32.8,8,32.33,7.9,31.88,7.75,31.23,7.34,31,6.7,31,7,31.83,7.59,31.06,6.7,31ZM41.39,41.89c-1.83.62-3.76,1-5.35,2.22A33.26,33.26,0,0,0,41.39,41.89ZM59.56,26a43.12,43.12,0,0,0-6.23,1.18c.43.7,2.34,0,2.93-.14a13.53,13.53,0,0,0,3.3-1C57.45,26.12,59.05,26.24,59.56,26Zm-46.8,2.89c.23.1.47.34.67.09s0-.57-.08-.74A2.18,2.18,0,0,0,12,27.06c-.58-.12-.6.38-.46.85s.69.76,1.19.93ZM77.1,16.89c.84.17,1.7.15,2.55.27.32,0,.93.23,1.22,0s.13-.42-.18-.54c-.69-.27-1.66,0-2.4-.14-.38-.08-2.21,0-1.18.44C77.9,17.05,76.91,16.81,77.1,16.89ZM22.39,41.75a9.4,9.4,0,0,0,2.13-.25c.69-.23.34-.73-.29-.76a8.33,8.33,0,0,0-2.05.25c-.79.19-.18.5.21.77C23.06,41.68,22.11,41.56,22.39,41.75ZM93.09,24c0,.19-.18.53,0,.68s.59-.15.85-.22c.49-.14,1,.17,1-.52.07-1.17-1.65-.63-1.9.06C93.07,24.17,93.22,23.58,93.09,24ZM10.33,27.79c.62.34.43-.62.32-.93a1.55,1.55,0,0,0-1.18-1c-.66-.11-.63.56-.39,1a2.13,2.13,0,0,0,1.25.88C10.69,28,9.58,27.51,10.33,27.79Zm36.78,9.28A6,6,0,0,0,44.59,39a4,4,0,0,1,1-.23,4.66,4.66,0,0,0,.91-.46c.21-.11.53-.18.62-.38a3.19,3.19,0,0,0,0-.87C46,37.38,47.21,37.35,47.11,37.07ZM28.2,2.81a3.5,3.5,0,0,0-2,0c-.22.07-1.32.44-1.22.69.18.5,3-.22,3.21-.69C27.16,2.52,28,3.17,28.2,2.81Zm13,37.05a3.13,3.13,0,0,1,1-.27c.25,0,.67.07.88-.06a5.54,5.54,0,0,0,.78-.9c0-.7-1,.05-1.23.17-.47.29-1.22.53-1.47,1.06C41.8,39.58,41.38,39.48,41.2,39.87ZM12.06,9.16c-1.26.76-1.81,2.18-2.76,3.25.27-.15.45-.44.72-.58s.56-.11.85-.37c.62-.55.7-1.63,1.18-2.29C10.76,9.93,11.51,9.89,12.06,9.16ZM67,30.61A17.51,17.51,0,0,0,69.41,30c.21-.05.73-.05.88-.21s.14-.4-.16-.46-.68.24-.95.26a2.33,2.33,0,0,0-.94.16c-.28.13-1.2.5-1.22.87C68.1,30.49,67,30.21,67,30.61Zm-57-5.13c.31.28.33-.18.27-.37s-.48-.57-.68-.77-.95-1.07-1.15-.92.06.93.17,1.13c.32.61.77.71,1.39.93C10.14,25.56,9.77,25.38,10.06,25.49ZM111.45,14.4c.23.1.6.27.61-.16,0-.26-.47-.59-.65-.72a4.47,4.47,0,0,0-1.64-.87c-.24,0-.44.12-.44.4s.33.39.56.49c.54.25,1,.65,1.56.86C111.73,14.52,110.92,14.2,111.45,14.4ZM13.29,32.67c0-.1,1.46.86,1.18-.09-.15-.51-1-.73-1.38-.95s-.87-.77-.88,0,.57.89,1.08,1.07C13.29,32.69,13.16,32.63,13.29,32.67Zm7.32,8.66a3.64,3.64,0,0,0-2,.07c-.4.13-.61.27-.1.54a3.73,3.73,0,0,0,1.68,0c.17,0,.65.05.77-.13s0-.45-.3-.53C19.93,41.11,20.81,41.39,20.62,41.33Zm.22-36.94c.32,0,3.45-.82,3-1.48-.28-.45-2.76,1.23-3,1.48C21.62,4.36,21.64,3.68,20.84,4.39ZM22.18,6.1c-.08.2-.14.48.19.47s.57-.52.73-.65S24.61,5,24.6,4.72c0-.56-1-.06-1.18.12A12.36,12.36,0,0,0,22.18,6.1C22.11,6.28,22.34,5.93,22.18,6.1ZM12.83,29.68c-.42-.15-1.06-.48-.76.25a2.28,2.28,0,0,0,1.2,1c.52.26.85.36.61-.37a1.31,1.31,0,0,0-1-.89C12.7,29.64,13.53,29.83,12.83,29.68Zm34.55-23a2.68,2.68,0,0,0-1.65.14c-.5.12-1,.44-.2.64a2.34,2.34,0,0,0,1.75-.26c.29-.16.67-.43.11-.53C46.79,6.39,47.58,6.69,47.38,6.66ZM11.32,33.88c.32.19.88.07.85-.39s-.68-.76-1-.87c-1.13-.36-.55,1,.16,1.26C11.6,34,10.71,33.67,11.32,33.88ZM8.83,31c.75.12.1-1.22,0-1.61S8.46,27.6,8.1,28c-.13.14.26,1.47.3,1.7.06.38-.06,1.18.43,1.32C8.91,31,8.41,30.9,8.83,31Zm4.39,3.42c.29.06,1.26.45,1.3-.05s-.58-.67-.88-.8-.69-.47-1-.15.17.89.54,1S13,34.36,13.22,34.43Zm35.55,3.74a11.46,11.46,0,0,0-1.8.71,4.73,4.73,0,0,1-.78.44c-.18.05-.56-.06-.63.16-.2.61,3.83-1,3.21-1.31C48.73,38.19,48.92,38.25,48.77,38.18ZM6.5,20c.11-.19.34-.43.08-.6s-.26.33-.29.43a17.08,17.08,0,0,0-.6,1.83c-.07.35,0,.87.31.38a6.13,6.13,0,0,0,.51-2C6.59,19.83,6.38,20.57,6.5,20Zm2.66-2.41c-.3.72-.72,1.35-1.09,2-.21.39-.11.88.35.48A2.44,2.44,0,0,0,9,19c0-.23,0-.47.06-.72s.2-.43.09-.71C8.82,18.37,9.35,18,9.16,17.56Zm-1.33-4.2a4,4,0,0,0-1.4,2.73A28.41,28.41,0,0,1,7.83,13.36ZM4,20.59a1.56,1.56,0,0,0,.71-.95c.08-.22.39-.88.31-1.08-.25-.61-.58.36-.66.56-.17.41-.56,1-.36,1.47C4.73,20.19,3.82,20.24,4,20.59Zm72.87,4.24a4.83,4.83,0,0,0,1.69-.07c.41-.13.65-.36.15-.52a3.74,3.74,0,0,0-1.57,0c-.29.05-.89.4-.27.58C77.47,24.86,76.68,24.78,76.85,24.83ZM9.57,34.11c-.77,0-.13,1.44.53,1.45,1,0-.08-1.3-.53-1.45C9.51,34.11,10.06,34.27,9.57,34.11Zm25-30.29A5.3,5.3,0,0,0,33,3.57c-.2,0-1,.31-.81.61S33,4,33.15,4a5.15,5.15,0,0,0,1.38-.21C34.16,3.78,34.07,3.94,34.53,3.82ZM10.2,36.46c-.19,0-.22-.14-.36.06s0,.35,0,.46a.82.82,0,0,0,.84.61c.38,0,.65-.16.42-.58s-.65-.4-.94-.54C10.1,36.48,10.67,36.69,10.2,36.46ZM18.08,35a12.83,12.83,0,0,0-1.52-.42c-.28-.06-1-.46-1.06,0-.07.7,2.22.55,2.58.43C17.81,34.91,17.34,35.26,18.08,35Zm78.4-17.65a.44.44,0,0,0,0-.58c-.2-.16-.24,0-.43,0-.39.11-.48.23-.53.61-.12.94.77.59,1-.06C96.61,17.16,96.45,17.45,96.48,17.36ZM2.77,39.42c-.46-.3-.12.43,0,.54a6.13,6.13,0,0,0,.61,1c.34.13.31-.09.24-.32a4,4,0,0,0-.81-1.21C2.65,39.34,2.84,39.49,2.77,39.42Zm51.61-10c.51.1,1.53-.42.65-.68a1.09,1.09,0,0,0-.68,0,.37.37,0,0,0,0,.67C54.81,29.48,54.18,29.33,54.37,29.39ZM52.45,6.87a5.18,5.18,0,0,0-2.62-.51A4.89,4.89,0,0,0,52.45,6.87ZM20,3.54c-.41-.16-1.94.57-2,1s.43,0,.63-.1L20,3.54C19.58,3.37,19.37,4,20,3.54Zm87.42,9.85c-.27,0-2.78.35-2.5.75s2.13-.64,2.5-.75C106.64,13.45,106.72,13.61,107.44,13.39Zm-79,30.83c-.19-.36-.64-.06-.94,0s-.71-.11-.85.21c-.2.48,1.55.1,1.79-.17C28.37,44,28.41,44.29,28.47,44.22ZM14.13,8.79c-.32.21-1.81,1.22-1.51,1.72.18.3,1.43-1.49,1.51-1.72C13.49,9.21,13.85,9.52,14.13,8.79ZM41.5,5.12c-1-.4-1.86-.32-2.19.21A21.48,21.48,0,0,0,41.5,5.12ZM29.36,40.35c-.25-.07-1.8-.19-1.71.2.13.6,1.48-.11,1.71-.2C28.76,40.17,28.79,40.57,29.36,40.35ZM81.63,16.88c.19.19,1.4.77,1.66.46.39-.48-1.45-.44-1.66-.46C82.08,17.32,82.17,16.92,81.63,16.88ZM9.23,32.77c.26-.07.29.29.4-.15a.64.64,0,0,0-.53-.7c-.65-.1-.43.77.13.85C9.33,32.74,8.72,32.69,9.23,32.77ZM87,17.65c-.24-.06-.7-.25-.84.06s.1.3.32.36a5.55,5.55,0,0,0,.85.1c.35-.22-.11-.45-.33-.53S87.14,17.7,87,17.65Zm-13.85,13c.21,0,2-.33,1.26-.65-.25-.11-1.6.33-1.26.65C73.62,30.6,73.13,30.67,73.15,30.7Zm33.32-6.3c0-.18.22-.64-.2-.55-.23,0-.43.7-.49.87s-.23.59.15.49c.2-.06.49-.66.55-.8S106.4,24.61,106.48,24.4Zm-69-21.89a4.68,4.68,0,0,0-1.33-.24c-.32.06-.41.25-.09.44a6.22,6.22,0,0,0,1.2.05c.19,0,.6,0,.22-.24S37.5,2.54,37.46,2.52ZM17.17,42c-.16-.31-.92-.85-1.26-.43s1,.49,1.26.43C16.9,41.49,16.71,42.15,17.17,42ZM96.32,18.61c-.35,0-1,.58-.44.77.41.13,1-.55.44-.77C96,18.63,96.51,18.68,96.32,18.61Zm-40.47,15c-.22,0-1.66.3-1.35.62s1.21-.35,1.35-.62C55.29,33.5,55.57,34.12,55.84,33.6ZM27.08,40.53c-.2-.17-1.24-.16-1.27.17,0,.56,1.09-.07,1.27-.17C26.72,40.22,26.78,40.7,27.08,40.53ZM11.42,34.8c-.41.07,0,1.17.32,1.26.68.17-.2-1.05-.32-1.26C11.36,34.8,11.61,35.13,11.42,34.8ZM5.26,23.38s-.17.55-.09.66c.23.31.4,0,.5-.17a1.69,1.69,0,0,0,.1-.86c-.27-.38-.45.18-.51.37ZM34.11,37.07c.19-.59-.6-.46-.77,0-.23.61.49.33.77,0C34.18,36.85,33.92,37.29,34.11,37.07Zm2.84-7.59c.42,0,1-.21.45-.48s-1.08.12-.45.48C37.21,29.49,36.79,29.39,36.95,29.48ZM11.3,38.37c-.19,0-.4-.12-.53.09s.16.46.3.55c.54.36.59-.41.23-.63C11.12,38.41,11.56,38.53,11.3,38.37Zm22.06-2.78c0-.32-1-.4-1.11-.13-.21.49,1,.39,1.11.13C33.37,35.57,33.29,35.74,33.37,35.59Zm-7.93-1.31C25.26,34.16,24,33.6,24,34s1.26.29,1.47.24C25,34,24.9,34.41,25.43,34.28ZM88,19.05c-.66-.26-.41.54,0,.71.64.28.45-.58,0-.71C87.82,19,88.29,19.12,88,19.05Zm.2,2.31c.17-.49-.38-.52-.49,0s.22.39.49,0C88.29,21.2,88.11,21.54,88.24,21.36ZM12.58,37.26c-.18,0-.26-.22-.39,0s.15.32.3.37c.56.18.51-.19.08-.4C12.45,37.28,12.75,37.34,12.58,37.26Zm35.66-11c.37,0,1-.12.4-.4-.4-.18-1,.14-.4.4C48.45,26.24,48.06,26.17,48.24,26.24ZM9,36.82c.1-.19-.14-.87-.39-.85-.59,0,.25,1.19.39.85C9.08,36.69,9,36.95,9,36.82Zm91.91-.39c0-.39-.73-.82-.65-.2,0,.28.52.57.65.2C100.91,36.22,100.85,36.64,100.93,36.43ZM48.54,6.29c.3,0,1-.05.46-.36-.35-.19-1.12,0-.46.36C48.75,6.3,48.38,6.2,48.54,6.29Zm59.22,16.44c.26.09,1.06-.19.68-.54s-.57.37-.68.54C108.16,22.86,107.95,22.46,107.76,22.73ZM44.17,34.08c.25.06.63-.3.24-.37-.19,0-.53.26-.24.37S44,34,44.17,34.08ZM85,16.36c-.3-.07-.57.12-.19.29s.53-.1.19-.29C84.87,16.33,85.1,16.41,85,16.36ZM5.09,18a.19.19,0,0,1,.06-.28Z"/><path class="cls-2" d="M60.57,16.92c-.23.68-2.16,1.14-1.94.16.12-.52.67-.1.93-.41.42-.49-.35-.76-.67-.75s-1.34.45-1.26-.22c.06-.52,1-.7,1.38-.68a1.52,1.52,0,0,1,1.56,1.91Z"/><path class="cls-2" d="M17.54,16.91a11.5,11.5,0,0,1,1.39-3.4c.13-.22.2-.58.51-.56s.28.11.3.29c0,.41-.54,1.26-.68,1.67-.32.94-.57,1.87-.89,2.86-.2.61.07,1.17,0,1.77s-.49.39-1,.29c.11-.38,0-.93.14-1.38a12.1,12.1,0,0,1,.2-1.56C17.73,16.09,17.52,17,17.54,16.91Z"/><path class="cls-2" d="M51.05,18c-.25.83-.84.62-1.26.09-.19-.24-.3-.4-.61-.45s-.58.14-.64-.26c-.1-.64,1.11-.95,1.52-1,.93-.09,1,.82,1,1.6C50.94,18.36,51.07,17.59,51.05,18Z"/><path class="cls-2" d="M64.73,19.81c-.49-.28-1.21.3-1.42-.51s.72-.92,1.25-.68,1.11.6,1.2,1.17c.13.79-.69.18-1,0S64.85,19.87,64.73,19.81Z"/><path class="cls-2" d="M28.13,25.59c-.67-.66-1.69-.64-2.46-1.12-.26-.16-.72-.62-.33-.95s.75.22,1,.35c.76.37,1.43.83,2.21,1.13.24.09.63.22.5.54s-.7.11-.93,0C27.5,25,28.29,25.63,28.13,25.59Z"/><path class="cls-2" d="M21.23,16.5c-.07-.61.05-2,.62-2.38a.79.79,0,0,1,.67,0c.27.23,0,.45-.16.66a2.52,2.52,0,0,0-.28,1.11c0,.35.29,1,.15,1.24-.33.69-.91-.29-1-.58C21.13,15.63,21.26,16.61,21.23,16.5Z"/><path class="cls-2" d="M33.56,21.33c-1.2-.47-.08-2.73.57-2a4,4,0,0,1,.24,1.76c-.09.49-.36.42-.81.27C33.29,21.22,34.24,21.57,33.56,21.33Z"/><path class="cls-2" d="M37.15,9.67c.42.11.55.23.29.66s-.44.5-.6.8-.46,1.54-1,1.19c-.28-.17-.21-.54-.12-.83a2.6,2.6,0,0,1,.21-.56c.1-.13.23-.13.36-.26A7.5,7.5,0,0,0,37.15,9.67Z"/><path class="cls-2" d="M19.33,23.75a3.08,3.08,0,0,1,.49,1.67c0,.12-.08.23-.05.36s.19.19.22.29c.09.3.1.63-.36.58-.29,0-.86-.94-.9-1.21a3.28,3.28,0,0,1,.6-1.69C19.71,24.11,19.31,23.78,19.33,23.75Z"/><path class="cls-2" d="M41.7,9.84c.3.14.78.35.35.73-.13.11-.3.07-.45.1a4,4,0,0,1-.84.17c-1-.1,0-1.68.95-1C41.95,10,41.45,9.67,41.7,9.84Z"/><path class="cls-2" d="M46.26,12.6c.22-.73,1.13-.28.95.32s-1.12.14-.95-.32C46.34,12.3,46.12,13,46.26,12.6Z"/><path class="cls-2" d="M26.62,15.79c-.76-.46-.07-.91.52-.63.17.08.39.38.23.58s-.59.06-.75,0S26.72,15.8,26.62,15.79Z"/><path class="cls-2" d="M49.67,9.41c.76.37.36,1.1-.39.87-.3-.09-.44-.21-.36-.56s.37-.39.75-.31S49.35,9.34,49.67,9.41Z"/><path class="cls-2" d="M23.41,23.46c-.19.08-.31.32-.53.34a.49.49,0,0,1-.5-.57.43.43,0,0,1,.48-.41c.34,0,.44.37.55.64C23.15,23.57,23.3,23.19,23.41,23.46Z"/><path class="cls-2" d="M57.28,11.67c0,.29.4.52.06.76a.5.5,0,0,1-.62-.08c-.39-.41.07-.93.57-.68C57.3,11.84,57,11.55,57.28,11.67Z"/><path class="cls-2" d="M108.81,17.77c.21.18.72.47.76.75a.4.4,0,0,1-.43.49c-.48-.07-1.21-1.53-.34-1.23C109,18,108.61,17.71,108.81,17.77Z"/><path class="cls-2" d="M111.12,17.07c-.62.25-.83-.55-1.21-.85-.19-.15-1.31-.61-.9-1,.25-.22,1.18.39,1.35.56s.82.79.75,1.28C110.73,17.23,111.19,16.58,111.12,17.07Z"/><path class="cls-2" d="M104,27.67a10.47,10.47,0,0,1-1.43-2.44,3,3,0,0,1-.42-1.13c0-.44,0-.52.32-.26a5.1,5.1,0,0,1,.64,1.19,11,11,0,0,1,.58,1.21,6.6,6.6,0,0,0,.56,1.09c.22.37.17.42-.25.33C103.73,27.37,104.22,27.71,104,27.67Z"/><path class="cls-2" d="M105.28,20.51c-.15.16-.05.4-.33.36s-.25-.48-.21-.64c.16-.7.71-.33.55.28C105.17,20.64,105.34,20.28,105.28,20.51Z"/><path class="cls-2" d="M104.11,21.95c-.58-.12-.68-1,0-.79.47.16.61.89,0,.79S104.17,22,104.11,21.95Z"/><path class="cls-2" d="M109.24,28.39c-.06.27.24.33-.06.54s-.37,0-.47-.15,0-.63.21-.65.23.18.32.25S109.23,28.38,109.24,28.39Z"/><path class="cls-2" d="M109,26.73c.24.23.59.8-.06.62-.43-.12-.5-.71.06-.62C109.16,26.87,108.86,26.7,109,26.73Z"/><path class="cls-2" d="M42.92,14.38c-.6,0-1,.58-1.59.56-.4,0-.92-.27-.91-.75,0-.64.48-.05.89,0s1.11-.1,1-.52-1.17,0-1.4-.13c-.54-.21-.2-.7.25-.85a2,2,0,0,1,1.71.4c.55.39.42.81,0,1.3C42.43,14.39,43.34,13.86,42.92,14.38Z"/></g></g></svg>