<svg id="Layer_1" data-name="Layer 1" xmlns="http://www.w3.org/2000/svg" viewBox="0 0 206.59 121.14"><defs><style>.cls-1{fill:#fff;stroke:#231f20;stroke-miterlimit:10;}.cls-2{fill:#231f20;}</style></defs><title>Delicatessen</title><g id="Ebene_2" data-name="Ebene 2"><path class="cls-1" d="M170.26,240l7.34-3.24,21.53-25.08,22.14-11.25s26.6-6.21,43.22-4.55c16.34,1.63,51.2,12,63.73,40.85,2.53,5.83-18.52,6.54-18.52,6.54l-31.05.54L198,242.19,170.26,240h0" transform="translate(-154.24 -182.91)"/></g><path class="cls-2" d="M154.27,236.77H356.93S257.27,261.1,154.27,236.77Z" transform="translate(-154.24 -182.91)"/><path class="cls-2" d="M164.29,238.86l-.74-.16Z" transform="translate(-154.24 -182.91)"/><path class="cls-2" d="M154.27,236.77l9.28,1.93Z" transform="translate(-154.24 -182.91)"/><path class="cls-2" d="M164.74,239l-3.22-.68Z" transform="translate(-154.24 -182.91)"/><polygon class="cls-2" points="9.33 55.8 9.51 55.84 11.23 56.2 9.33 55.8"/><path class="cls-2" d="M331,241.3c-.33,0-.54,0-.39,0Z" transform="translate(-154.24 -182.91)"/><path class="cls-2" d="M338.58,240.25l1.54-.25C339.67,240.09,339.28,240.14,338.58,240.25Z" transform="translate(-154.24 -182.91)"/><path class="cls-2" d="M324.17,242.29l1.33-.19Z" transform="translate(-154.24 -182.91)"/><path class="cls-2" d="M239.77,247.24l-3.35-.15C238.87,247.14,239.07,247.19,239.77,247.24Z" transform="translate(-154.24 -182.91)"/><path class="cls-2" d="M340.52,236.33l-.33,0C339.83,236.35,339.65,236.34,340.52,236.33Z" transform="translate(-154.24 -182.91)"/><path class="cls-2" d="M340.47,240.46s0,0,.17-.07l.39-.07Z" transform="translate(-154.24 -182.91)"/><path class="cls-2" d="M318.85,243.09h-.07l-1.1.11C318.27,243.14,318.64,243.1,318.85,243.09Z" transform="translate(-154.24 -182.91)"/><path class="cls-2" d="M329.77,236.3l-1.34-.07C329.46,236.24,330,236.27,329.77,236.3Z" transform="translate(-154.24 -182.91)"/><path class="cls-2" d="M340.31,240h0l-.2,0Z" transform="translate(-154.24 -182.91)"/><path class="cls-2" d="M329.57,242.19l1.73-.24C330.58,242.08,330,242.14,329.57,242.19Z" transform="translate(-154.24 -182.91)"/><path class="cls-2" d="M239.77,247.24l1.07,0Z" transform="translate(-154.24 -182.91)"/><path class="cls-2" d="M173,240.65c1,.22,1.3.22,1.49.27C173.89,240.83,173.37,240.75,173,240.65Z" transform="translate(-154.24 -182.91)"/><path class="cls-2" d="M156.88,236.77h0Z" transform="translate(-154.24 -182.91)"/><path class="cls-2" d="M197.79,236.82h0Z" transform="translate(-154.24 -182.91)"/><path class="cls-2" d="M235,236.57h-9.3l.06,0h-10.1l.5,0H214.4l-12.58,0h-1.08l-16.53.05c-2.1,0,1.17,0,1.22,0H181c.63,0,3.89,0,1.43,0h-6.17c-3.11,0,3.77,0-1.23,0l-10.09,0h38.37l-2.62,0,6.08,0h-2c4.48,0,9.06-.05,11.95,0h-.33l13.82.05-1.25,0c2.47,0,2.51.08,6.49.06l-.81,0c1.33,0,2.35,0,2.17,0l.38,0h4.22c2.46,0,5.25,0,6.6-.05,2,0,7.67.09,9.36.07,2.43-.06-2.23-.07-1.36-.12,1.93,0,3,.06,5.86,0,.09.06-5.6.1-.17.14l.74,0h-2.11c-1.59,0,.91,0,1.26,0l5.82,0c.47.06-3,0-3.36.06,4.59,0,10.06-.09,14.36,0l-.41,0c5.48.07,3.11-.12,7.51,0,2.28,0-.87-.07,2.59-.08,1,0,.42,0,.25,0,4.26,0,1.84-.07,5.8,0l-.88-.08c4.7.05,9.65.2,13.68.17-.26-.07-2.76-.06-3.77-.11,5.51.12,13.14,0,18.22.09-1.5.05,2.42.14-.81.18-.86-.09-2.36,0-4.1,0,2.84.2,11.7-.09,12.58.09l.74-.08c.77,0,2.75.07,1.39.09l5.57,0c-2-.06-6.11-.18-7.39-.11-1.6-.07,2.28-.05.86-.13,3.75.12,2.29-.05,6.16,0-1.74.11,3.86.15,3.69.2,1.26,0,4.08,0,5.17.06,2.23,0,7.36-.07,10.95,0-1.36,0-3.51-.08-3.36-.15a37.46,37.46,0,0,0,4,0c-6.25-.14-2,.18-7.67.09-1.4-.09-2.95-.11-5.87-.14a4.17,4.17,0,0,0,1.28-.14c3.18.17,8,.06,12.33.09v0c-.54.12-1.07.24-1.59.34-1.94.35-.51,0-4.88.83,1.25-.26,2.49-.54,3.73-.84-4.09.94-1,.16-4.38.83l1.36-.21c-2.07.43-2.85.58-4,.77l1.78-.27a31.32,31.32,0,0,1-3.24.6c-.29.08-.38.11-.38.13-.23,0-.76.11-2.08.36.78-.14,1.33-.24,1.35-.22-5,.9-1.15.32-4.28.88.5-.07-.38.13-1.49.32,0-.16-6.16.83-7.82,1h0l-4.24.55c.85-.11-.06.06-1.3.25l.2,0c-1.34.21,1.63-.07-2.41.46l-2.13.26c.37,0,0,0-.18.06-.73.1-1.47.18-2.2.25-3.33.53-6.34.68-10.28,1.21,1.14-.15,2.87-.34,2.14-.21s-1.92.23-2.52.28h.21l-7.55.63c.61,0,4.83-.4,3-.17-1.11.17-3.28.31-4.64.43.17,0,2.66-.32.14-.1-.31,0-2.7.31-1.57.23-2.58.24-6.34.46-8.66.55-.74.06.41,0,.8,0l.19,0c1.55-.09.24.07,3.3-.17.27.1-4.4.33-7.08.52l4.28-.2c-3.61.31-7.84.63-12.08.83l-12,.38A32.6,32.6,0,0,0,270,247l-4.16.13c-1,0-1.92.09-4.14.08h.37c-2.29.06-5.43,0-6.94.08,1,0,3.27-.06,3.32,0l-5.59,0c1.76,0,5.59,0,7.73,0,1.54,0-3.09,0-2.36-.06,2.61,0,4.21,0,5.49,0l3.49,0c1.57,0-2.27.15-3.24.18-3.34-.06-8.19-.08-13.38,0l-2.86.08c-2.55-.07-1.46-.2-6.09-.3l1.38.08-2.17,0,5.93.29c-2.63,0-7.57-.28-11.44-.41l2,.1c-2.89-.09-5.85-.15-8.64-.32l-7.64-.57c-1.89-.09,3.7.27,2.78.27-2.34-.18-5-.32-5.62-.41,1,.14-5.38-.35-.91,0-2.11-.14-4.28-.27-6.46-.45l-6.61-.74-6.63-.75-3.27-.37c-1.09-.11-2.16-.25-3.22-.43.42.07.42.09.06,0,1.42.26,3.21.41,4.82.6l3.86.47c-1.89-.19-4.46-.53-5-.57l1.8.21,1.1.14c-2.46-.25-3.84-.42-5.57-.65.31,0,.62.08.94.11l-8.67-1.39c-2.07-.3,0,0,.05,0l-7.07-1.11,3.45.53-6.38-1,.82.14c-1.92-.25-4.35-.84-5.32-1l-.55-.1c1.14.22,4.53,1,5.12,1-.34,0-3.77-.74-5.27-1l3.93.83c1,.2,1.85.31,2.63.44l5.83.93-1-.16,10.25,1.63c-.87-.13-1.06-.15-.65-.08.85.13,1.7.28,2.56.39l2.58.28,5.22.58c3.53.38,7.18.82,11.1,1.2l2.37.22.15,0c3.84.25.82.11,3.31.28l-1-.08c4.48.35,2.5.13,5,.32-1.2-.13-4.83-.35-3.71-.33,4.46.34,11.38.82,12,.93l13.26.41,3.32.12c1.09,0,2.15,0,3.19,0h5.77c1,0-.59,0-.24,0,1.38,0,3.7,0,5.67,0l2.55,0c.66,0,1.07,0,1.08,0,1.33-.07,1.89-.14,2.25-.18l6.14-.16-1.65,0h.18l2.33-.06h-.09c5.6-.1,12-.63,17.12-.87-2.92.14.73-.14-.65-.08,2.59,0,8.74-.56,13.74-1,0,0,.36-.09-.23-.05l2.9-.22h-.39c5.18-.56,10.83-1.13,14.23-1.59a11.81,11.81,0,0,1-2.34.2c3.71-.43,7.19-1,11.51-1.53l-.39,0,3.65-.52.15-.09,7.66-1.21c1-.28,6.34-1,9.32-1.72,1.16-.22-2.51.42.71-.22.49.07,4.18-.87,4.46-.78l1.91-.47,3.79-.95-3.9.08-.91,0-.64-.08c-2.44.15-3.72-.07-7.36,0,.2,0,.59,0,.4,0-1.17,0-3.88,0-1.79-.07-1.94,0-8.54,0-5.57.05-.22,0,2.5,0,3.67,0-.15.06-3.06,0-3.78.11l-.76,0-.41,0c-3.65-.08-7.34,0-10-.11-.15,0-.78,0-2,0l-.07-.08h-3.88l1.84.12c-4.25,0-7.26-.1-10.76-.11-.86.13-6.83,0-9.82.08l2.74,0-12.19,0,11.32-.14c-6.73.07-11.69,0-17.83.05.42,0,2,0,.48.07-1.23,0-5.81,0-4.93,0-1.91,0-2.21.09-3.38.11l-6.47-.06h.2c-10.83.17-20.47,0-31.37.1l.24,0-2.78,0c2.17,0-.9,0-1.05,0H233A11.07,11.07,0,0,0,235,236.57Zm92.53-.23h1.67A13.22,13.22,0,0,1,327.53,236.34Zm-94.55,11,2.71.09c-.56,0-2.51-.09-1.72,0C233.58,247.34,232.61,247.31,233,247.31Zm92.62-10.43,1.2.05.91-.06Zm-21.59,0,2.32,0h.2l-2.36,0Zm-26.2-.37h0c-1.83,0-2.51.05-4,0C275.55,236.43,276.76,236.49,277.81,236.51Zm45.94,0c-.05-.06-2.75-.07-3.57-.1-1.15,0,.44.06.85.09h-1.75C319.76,236.55,321.38,236.4,323.75,236.46Zm15.71,4.09.57-.1-2.13.31Zm-10,1.54c-1.19.1-4.24.54-6.35.82a23.45,23.45,0,0,0,4.1-.45C330.15,242.1,328.32,242.21,329.49,242.09Zm-32.75-5.52c1.57,0,3.8.13,6.84.07l-2.34,0h.56l-.61,0C301.88,236.68,298.11,236.57,296.74,236.57Zm11.45,8.22c-2.14.17-6,.47-5.65.39a39.23,39.23,0,0,0,3.93-.23Zm-.63,0c1.15-.13.72-.15,2.86-.36-.35.09.49.11,3.55-.29-2.37.2-2.58.18-5.69.5Zm4-.27,1.26-.16a33.88,33.88,0,0,1,3.88-.5l-3.88.5Zm-26.09,2.27,1.27-.05c-1.25.07-1.4.07-1.27.05l-1.06,0C287.15,246.58,285.71,246.7,285.44,246.75Zm23.57-2c-1.22.15-2.45.24-3.67.36C306.51,245,308.79,244.75,309,244.76Zm-22.76,1.86,5-.34C290.91,246.35,287.24,246.58,286.25,246.62Zm-79.9-1.27,1.13.09-2.31-.26Zm24,1.75,1.35.05h.57Zm27,.42c-.12,0-.06,0,.14,0h.89c-.35,0-.68,0-.89,0-1,0-2.49,0-3.18,0,.42,0,2,0,2.56,0-2.3.07-7.46-.09-6,.08-1,0-4.29-.05-3.14-.08,2.62,0,7.6-.05,9.6-.09l.79,0Zm33.76-1.44,1.55-.09c.81,0,1.43-.05,1.19,0-2,.11-.71,0-1.19,0Zm-.24-.08c1.55-.08,3.11-.12,4.66-.26l-1.57.09,3.1-.24C296.67,245.58,293.56,245.81,290.89,246Zm7.28-.55h.64l-1,0,.34,0H298l5.2-.46ZM351,238.08c1.88-.58-4.56.81-5.57.87-.21.09-2.14.57,2.88-.39-4.32.9-2.74.39-5.3,1l5-.88c-.81.17-1.63.32-2.45.47C347,239.06,349.31,238.39,351,238.08ZM336,236.78h0Zm-80.7,0c.26,0-3.92.07-5,0C252.42,236.82,254.75,236.82,255.27,236.8Zm-34.77,0,3.7,0c-.65,0-3.29,0-5,0A10.76,10.76,0,0,1,220.5,236.78Zm-24,0h-1.17l1.27,0Zm4.07,0h0Zm-23.86,0h0Zm1.5,0h5c-1.29,0-.32,0-.45,0h-4.58Zm13.6,0h-1.72l2.72,0H188c-2.45,0-.14,0,2.1,0h1.72Zm-15.39,0h0Zm67.7,0c-.76,0,1.05,0,2.76,0l-.87,0c-.07,0-3.53,0-3.92,0A11.1,11.1,0,0,1,244.16,236.74Zm86.58,0c-1,0-5.37,0-6-.07C323.24,236.82,328.45,236.8,330.74,236.78Zm.5-.12h1.12c1.36,0,1.22.1,3.56.06l-2.13,0c.12-.05-.22,0-1.43,0Zm-46,0-1.64-.06h-2.51Zm-27-.06c.22,0-2.65,0-3.26,0,.21,0,2.14,0,3.67,0h0c-.58,0-.19,0-.2,0l.75,0h-1Zm-47.37.07h0Zm61.62-.14c-2.88,0,1.44.06-.45.09h1.52c-2.44.05-1.79,0-3.52,0h1.16c.89,0-1.8,0-2-.05C270.51,236.52,273.65,236.54,272.5,236.55Zm-64.36.14h0Zm43.66-.2h0Z" transform="translate(-154.24 -182.91)"/><path class="cls-2" d="M204.85,236.82h0Z" transform="translate(-154.24 -182.91)"/><path class="cls-2" d="M339.43,237.07a3.79,3.79,0,0,1,.64,0A5.71,5.71,0,0,1,339.43,237.07Z" transform="translate(-154.24 -182.91)"/><path class="cls-2" d="M345,237.1h0Z" transform="translate(-154.24 -182.91)"/><path class="cls-2" d="M174.64,240.92c-1.18-.2,1.15.18,2.09.32Z" transform="translate(-154.24 -182.91)"/><path class="cls-2" d="M182.15,242.12l-2.36-.38Z" transform="translate(-154.24 -182.91)"/><path class="cls-2" d="M176,241.16l3.76.58Z" transform="translate(-154.24 -182.91)"/><path class="cls-2" d="M202.42,244.82l-3.46-.39c5,.52-1-.15-1.42-.21C200.63,244.57,200.66,244.6,202.42,244.82Z" transform="translate(-154.24 -182.91)"/><path class="cls-2" d="M209,245.55l-1.38-.14Z" transform="translate(-154.24 -182.91)"/><path class="cls-2" d="M210.86,245.73,214,246l-2.69-.18-2.29-.28A9.84,9.84,0,0,0,210.86,245.73Z" transform="translate(-154.24 -182.91)"/><path class="cls-2" d="M264.17,247.19c-.39,0-1.35,0-1.38,0,1,0,1.93-.05,2.9-.09C266.85,247.07,264.75,247.16,264.17,247.19Z" transform="translate(-154.24 -182.91)"/><path class="cls-2" d="M274.85,246.9c2.32-.08,1.11-.1,2.29-.13l-.13.09Z" transform="translate(-154.24 -182.91)"/><path class="cls-2" d="M273.58,247.37h-.67l.77,0Z" transform="translate(-154.24 -182.91)"/><path class="cls-2" d="M286,246.2l-1.6,0C286.33,246.11,286.35,246.18,286,246.2Z" transform="translate(-154.24 -182.91)"/><path class="cls-2" d="M294.79,245.53c-.45,0-.9.06-1.36.08,1.42-.09,2.83-.24,4.24-.35Z" transform="translate(-154.24 -182.91)"/><path class="cls-2" d="M305.39,244.58l.38-.06c1-.08,1.93-.15,2.9-.27C307.58,244.39,306.48,244.47,305.39,244.58Z" transform="translate(-154.24 -182.91)"/><path class="cls-2" d="M293.26,236.93c-.47-.07,4.19,0,5.53-.06C297.9,237,295.07,236.84,293.26,236.93Z" transform="translate(-154.24 -182.91)"/><path class="cls-2" d="M208.88,236.81l4.45,0Z" transform="translate(-154.24 -182.91)"/><path class="cls-2" d="M255.77,253.5a35.4,35.4,0,0,0,14-.31c8-1.7,24.25-14.52,31.5-3.55l-3.75.93s-1.75-5.72-8.5,0a10.72,10.72,0,0,1,1.75,1.68c.09.1,3.17-.82,3.25-.7s-27.88,13.52-16.75,22.36c0,0,18.25-4,10.5,2.16s-28.25,10.82-27,15.46S268,303.74,268,303.74l-13.5-11.91s-5.5-2.78,5-8.65l-3-5.87,8.75,7.41s11.75-4.17,14.5-6.33c0,0-8.75-5.72-8.25-11S285,254,281.27,253.19s-13.5,6.65-36.25-.3l3.5-.16s-15-3.09-28-2.32-8.5,4.33-2,4,24,1.7,29.75,7.57c0,0-14.75-9.73-44.75-4.48l-.75-2.32s-7.12,0-5.52,3c.07.13,3.16-.19,3.27-.05l-5.75,1.08s-3.25-3.55,5.25-6.18,20-5.41,39-3.09,25.25,1.6,30.75,1.29C269.77,251.24,265.1,252.89,255.77,253.5Z" transform="translate(-154.24 -182.91)"/><path class="cls-2" d="M269.05,251.46l-1,.26A5.87,5.87,0,1,1,269.05,251.46Z" transform="translate(-154.24 -182.91)"/><path class="cls-2" d="M255.77,253.5a74.09,74.09,0,0,0,12.31-1.78,58.36,58.36,0,0,1-6.87,1.26C258.63,253.32,256.29,253.46,255.77,253.5Z" transform="translate(-154.24 -182.91)"/><path class="cls-2" d="M269.66,251.3a40.33,40.33,0,0,1-4.21,1A40.11,40.11,0,0,0,269.66,251.3Z" transform="translate(-154.24 -182.91)"/><path class="cls-2" d="M268.13,251.72l.23-.07c.47-.12.94-.25,1.41-.41h0l-.83.05.83-.05h.08l-.07,0C269.23,251.43,268.68,251.57,268.13,251.72Z" transform="translate(-154.24 -182.91)"/><path class="cls-2" d="M248.18,252.35c-.43-.11-.7-.17-.49-.16Z" transform="translate(-154.24 -182.91)"/><path class="cls-2" d="M251,254.29l2,.45Z" transform="translate(-154.24 -182.91)"/><path class="cls-2" d="M239.17,251l1.75.22Z" transform="translate(-154.24 -182.91)"/><path class="cls-2" d="M203.8,257.37l-.3,0,.12.08-.72-2.33,0-.1h-.1c-.73,0-1.23,0-1.68.08.68-.07,1.22-.1,1.68-.11h.11l0,.11c.44,1.37.56,1.81.71,2.34l-.13-.08Z" transform="translate(-154.24 -182.91)"/><path class="cls-2" d="M272.26,264.42c-.08.13-.14.27-.21.4C271.8,265.24,271.66,265.44,272.26,264.42Z" transform="translate(-154.24 -182.91)"/><path class="cls-2" d="M253.23,255.31s.06,0,.24,0l.51.09Z" transform="translate(-154.24 -182.91)"/><path class="cls-2" d="M232.11,250.34H232l-1.44-.11C231.34,250.26,231.84,250.3,232.11,250.34Z" transform="translate(-154.24 -182.91)"/><path class="cls-2" d="M276.92,276.84l1.35,1.15C277.18,277.15,276.73,276.7,276.92,276.84Z" transform="translate(-154.24 -182.91)"/><path class="cls-2" d="M253.24,254.78h0l-.26,0Z" transform="translate(-154.24 -182.91)"/><path class="cls-2" d="M246,252.63l2.25.43Z" transform="translate(-154.24 -182.91)"/><path class="cls-2" d="M203.8,257.37l1.39-.19Z" transform="translate(-154.24 -182.91)"/><path class="cls-2" d="M258.87,251.58c-1.4,0-1.73-.05-2-.07Z" transform="translate(-154.24 -182.91)"/><path class="cls-2" d="M259.16,254l-.56,0Z" transform="translate(-154.24 -182.91)"/><path class="cls-2" d="M294.05,247.91c-.25,0-.52.06-.72.08A3.59,3.59,0,0,1,294.05,247.91Z" transform="translate(-154.24 -182.91)"/><path class="cls-2" d="M282.35,272.67c-1.73.26-3.47.57-5.15.92l.27.06a6,6,0,0,1-2.43-3.88,3,3,0,0,0,.2.94,4.82,4.82,0,0,1-.09-2.84l0,0c.6-2.39,2.52-4.61,4.24-6.27a35.76,35.76,0,0,1,4.16-3.4l-.5.31c1.44-1.06,2.93-2.05,4.45-3-.87.54-1.73,1.1-2.59,1.66a80.12,80.12,0,0,1,9.25-5.44l.22-.11-.13-.24c-.06-.1-.3-.12-.27-.11h-.09l-.14,0-.27,0-.51.13-.95.24-.87.21-.2,0h-.08s0,0,0,0a.18.18,0,0,1-.07.17h0l.16-.13h0l-.26-.3a10.79,10.79,0,0,0-1.53-1.4l0,.36h0l0-.36.43.36-.44-.35v.34a18.79,18.79,0,0,1,1.81-1.32l-.67.41a6.73,6.73,0,0,1,4.38-1.58,3.5,3.5,0,0,1,2.69,2.37l.05.15.14,0,3.75-.95.2-.05-.11-.17a10.62,10.62,0,0,0-2.82-2.87,9.44,9.44,0,0,0-4.84-1.54c-1.4,0-1,0-.27,0,.37,0,.83,0,1.2.11l.65.11a13.55,13.55,0,0,0-3.22-.18,18.87,18.87,0,0,0-2.63.36,19.69,19.69,0,0,1,2.43-.34c.77,0,1-.06-.6.07-1.15.16-.76.11-.59.09s.12-.07-1.87.37c-.52.11-1,.24-1.56.38-2.16.71-.45.1-3.8,1.37-3.8,1.53,4.63-1.91-1.48.58-1.51.65-3.09,1.4-5,2.3-1,.45-2,.93-3.2,1.44a23.68,23.68,0,0,1-4.08,1.39c-2.71.53-2,.34-1.55.3.23,0,.39-.06,0,0s-1.26.23-3.16.4a41.34,41.34,0,0,0,4.83-.71,32.19,32.19,0,0,1-3.72.61,38.05,38.05,0,0,1-4.88.24c1.79,0,2.29,0,2.14,0s-.94,0-1.76,0c-1.63,0-3.32-.09,0,0-.83,0-1.66,0-2.48-.1l.22,0a27.54,27.54,0,0,1-3.27-.4A30.18,30.18,0,0,0,260,254c1.18.06,1.83,0,.7,0a30.38,30.38,0,0,1-4.75-.5c1.26.24-.46-.08-.18,0a36.74,36.74,0,0,0,14-.22c-.55.11-2.55.44-1.8.31a21.48,21.48,0,0,0,3.31-.73,31.39,31.39,0,0,0,3-1.14c-.48.2-1,.4-1.45.58.27-.1.73-.27,0,0-.57.23-1,.37-1.27.46a3.76,3.76,0,0,1-.42.13,56.84,56.84,0,0,0,5.43-2.19c4.15-1.89.85-.41,1.76-.83A68.14,68.14,0,0,1,288,246.1c-.58.16-1.17.31-1.74.5a24.56,24.56,0,0,1,4.69-1.12,13.49,13.49,0,0,1,3.73,0,4.92,4.92,0,0,0-.77-.11,9.16,9.16,0,0,1,4.52,1.51,9.85,9.85,0,0,1,2.71,2.79l.06-.14-2,.47.5-.11-2.22.55.13.07a4.2,4.2,0,0,0-1.45-2,3.46,3.46,0,0,0-2.12-.63l-.31.05a3.84,3.84,0,0,0-.87.19,10.46,10.46,0,0,0-3.93,2.33l-.11.09.12.09a13.52,13.52,0,0,1,1.12,1,13.92,13.92,0,0,0-1.11-1l-.09-.08.09-.06c.33-.22.56-.44,1.51-1.09-.62.41-1.07.82-1.48,1.13l0,0,0,0a11.09,11.09,0,0,1,1.17,1l.41.45c.08.08.06.15.23.23a1.28,1.28,0,0,0,.3,0c.38-.07.76-.16,1.23-.27l.76-.19.45-.1.23-.05.13,0s.09,0,0,0l0-.16-.28.14c-1,.54-.53.28.29-.12l0,.12-2.14.52,1.11-.28,1-.25,0-.09a85.75,85.75,0,0,0-11.46,7c.66-.51,1.34-1,2-1.49-1.93,1.31-2.9,2.12-2.68,2,.59-.47.8-.61,1-.76a31.57,31.57,0,0,0-6.53,6.21,9.62,9.62,0,0,0-1.78,3.87,5.42,5.42,0,0,0,1.39,4.59,6,6,0,0,1-.58-.81c-.16-.29-.29-.53-.29-.55a8.54,8.54,0,0,0,2.07,2.5l.05.05.08,0c1.07-.19,2.33-.44,5.15-.87l-1,.12a21.86,21.86,0,0,1,2.8-.33,10.84,10.84,0,0,1,1.84-.18,12.41,12.41,0,0,1,1.9,0,3.9,3.9,0,0,1,1.05.24c.32.14.59.4.51.74a4.46,4.46,0,0,1-1.47,1.83,20.88,20.88,0,0,1-1.92,1.44c-1.29.85-2.5,1.51-3.3,2-2.29,1.2-9.15,4-11.23,4.87-3,1.32,2.68-1,1.6-.51-2.34,1-3.63,1.4-7,3-.11-.08,6.77-3.22.25-.32l-.89.48c.67-.34,1.58-.79,2.52-1.2,1.91-.81-1.11.54-1.52.77a31.43,31.43,0,0,0-3.38,1.82,10.85,10.85,0,0,0-1.54,1.18,3.21,3.21,0,0,0-1,1.69c0,.16-.06-.06.07-.43a3.48,3.48,0,0,1,.86-1.27,13.82,13.82,0,0,1,2.16-1.59,11.33,11.33,0,0,0-1.92,1.38,3.17,3.17,0,0,0-1.25,2.18,9,9,0,0,0,.79,2.4c.34.75.72,1.49,1.12,2.21a76.09,76.09,0,0,0,5.2,7.75l-.3-.44.59.78.21-.21c-4.42-3.95-2.72-2.2-6.71-5.88-2.27-2,.76.78-2.66-2.23-1-.84-.37-.37-.2-.23-3.28-2.92-2.57-2.22-4-3.48h0a2.65,2.65,0,0,1-1.33-1.74,2.27,2.27,0,0,0,.38,1,2.45,2.45,0,0,1-.23-2.6,7.38,7.38,0,0,1,1.71-2.14,26.5,26.5,0,0,1,4.51-3l.12-.07-.06-.11c-1-2.07-2-4.06-3-5.89l-.27.21.26.21a3,3,0,0,0-.24-.23l.23-.18c.28.66,1.51,3.08,2,4.13l-2-4.11-.16.12,8.74,7.43.05,0,.06,0c2.7-1,5.23-1.94,7.37-2.79-1.83.81,3-1.07-1,.6-1.05.32-2.9,1.11-5,1.89,1.38-.43,3.89-1.37,6.47-2.45a38.55,38.55,0,0,0,6.83-3.45l.35-.25-.37-.25a13.4,13.4,0,0,1-1.62-1.25l-.8-.55c-.79-.64-2.59-2.46-1.29-1.26a19.71,19.71,0,0,1-2.45-2.64,10.31,10.31,0,0,1-1.71-3.09,11.85,11.85,0,0,0,2.56,4.32,21.46,21.46,0,0,0,3.28,3.06c.8.67.19.23-.42-.26s-1.22-1-.56-.37a39.44,39.44,0,0,1-2.79-2.81c-.27-.29-.5-.6-.89-1.07a10,10,0,0,1-1.28-2.37c.22.52.23.49.13.15-.05-.18-.15-.42-.23-.72s-.13-.64-.15-1a4.85,4.85,0,0,1,.8-2.9,16.11,16.11,0,0,1,2-2.76c.86-1,1.77-1.87,2.29-2.36,1-1.07,2.81-2.67,4.55-4.74a6.34,6.34,0,0,0,.6-.87,2,2,0,0,0,.21-.54.91.91,0,0,0-.09-.71,1.36,1.36,0,0,0-1.12-.5l-.55,0-.53.06a36.35,36.35,0,0,0-3.77.87c.87-.21,2-.51,2.89-.67a4.32,4.32,0,0,1,1.49-.12,16.43,16.43,0,0,0-3.33.63c-.95.26-1.66.47-1.86.56,2-.48,3.15-.8,3.89-.94s1-.18,1.34-.23H281a1.31,1.31,0,0,1,.79.22.73.73,0,0,1,.32.66,1.94,1.94,0,0,1-.29.8,10.18,10.18,0,0,1-1.44,1.77c-1.31,1.3-2.87,2.61-5.5,5.4a9.63,9.63,0,0,0,1.06-1.33l2.88-2.75c.52-.51,1.06-1,1.59-1.62a7.51,7.51,0,0,0,1.41-1.91.89.89,0,0,0,.06-.6.62.62,0,0,0-.44-.39,1.84,1.84,0,0,0-.61-.09,2.15,2.15,0,0,0-.62,0,14.37,14.37,0,0,0-2.42.47c-1.59.41-3.15.85-4.65,1.14a14,14,0,0,1-2,.28c-.56,0-1.52.24-4.43.46l1.25-.11,1.24-.17c.83-.1,1.65-.26,2.47-.42-1.35.27-2.12.36-2.56.41a5.55,5.55,0,0,1-.68.07c-.21,0-.29,0-2.55.15l1.79-.07a37.38,37.38,0,0,1-5.32.15c.78.06,1.57,0,2.35.08-.75,0-1.82.08-2.7,0a14.16,14.16,0,0,1-1.6-.11c-.4,0-.52,0-.52,0l-2.75-.29c1,.11,1.75.18,1.78.21-3.34-.32-3.71-.47-3.79-.42s.16.08-1.9-.25c.65.13-.53,0-2-.36a12.17,12.17,0,0,0-2-.55l-4.19-1.23-.06.48,3.5-.1,2.35-.06-2.3-.53-.4-.09h0c-1.84-.37-3.69-.69-5.55-1,1.13.18-.1,0-1.74-.18l.28,0c-1.78-.2,2.09.42-3.23-.29-.93-.13-1.87-.23-2.81-.34.49.06,0,0-.24,0-1-.1-1.94-.21-2.91-.28a92.4,92.4,0,0,0-13.62,0,12.74,12.74,0,0,1,2.83-.16c-1,.05-2.55.16-3.35.23h.28a19.23,19.23,0,0,0-4.93,1,2.63,2.63,0,0,0-1.13.78.85.85,0,0,0-.09.82,1.44,1.44,0,0,0,.48.57,6.41,6.41,0,0,0,2.42.92,11.64,11.64,0,0,1-1.28-.37,2.55,2.55,0,0,1-1.63-1.21.93.93,0,0,1,.3-.93,2.46,2.46,0,0,1,.43-.3c.09,0,.11,0,0,0a2,2,0,0,0-.49.4.85.85,0,0,0-.24.69,1.1,1.1,0,0,0,.45.66,4.57,4.57,0,0,0,1.51.71,12.88,12.88,0,0,0,3.17.5c-.23.07-3.57-.26-.2.08.44,0,3.59-.12,2.1-.1a65.78,65.78,0,0,1,11.31,1c1,.14-.53-.11-1-.19l-.25,0a36.79,36.79,0,0,0-4.3-.54,19.11,19.11,0,0,1,3.2.28c1.92.23,4.3.66,6,1-1.83-.4-3.68-.75-5.54-1a58.55,58.55,0,0,1,10.06,2c3.44,1,7.06,2.4,9.68,4.92l.08-.1a38.91,38.91,0,0,0-9.74-3.89c2.7.66,4.85,1.54,4.57,1.35a44.61,44.61,0,0,0-5.23-1.64c-.61-.18-1.24-.3-2.06-.48s-1.85-.4-3.3-.61l.49.08a67.36,67.36,0,0,0-9.1-.89c1.32.11,4.3.21,4.36.35-1.22-.16-2.45-.18-3.68-.26s-2.45-.09-3.68-.1a86.83,86.83,0,0,1,10.15.69c1,.17,0,0-1.14-.15a11.76,11.76,0,0,1-1.94-.27c1.71.19,3.09.32,4.24.54s2.09.34,2.91.54,1.52.35,2.23.54l2.21.65c2,.63-2.89-.78-4.16-.95A66.84,66.84,0,0,0,218,256l-3.75.25c-1.68.12-2.16.13-3,.17a41.81,41.81,0,0,0-5,.59l1.81-.23-2.83.45,4-.53,3.8-.32c-1.13.15-2.59.28-4.22.46l-5.22.73h0l-.73-2.32v0h0a17,17,0,0,0-3.08.29,16.91,16.91,0,0,1,2.56-.26,16.76,16.76,0,0,0-2.54.3,4.67,4.67,0,0,0-2.33,1,1.3,1.3,0,0,0-.33,1.19l.12.3c0,.09.05.25.2.23s.42,0,.63,0c.84,0,1.72-.13,2.49-.07l0-.05-5.76,1,.07,0a2.4,2.4,0,0,1-.37-2.53,4.6,4.6,0,0,1,1.74-1.81c1.05-.64-.07-.13-1.07.81a3.17,3.17,0,0,0-.88,1.61c-.08.47,0,.7-.06.4a2.9,2.9,0,0,1,.94-2,5.37,5.37,0,0,1,.87-.72,5.8,5.8,0,0,1,.91-.55,12.74,12.74,0,0,1,2.64-1.08c-1.33.28,6.79-2,1.11-.43a79.27,79.27,0,0,1,16.89-3.39,97.33,97.33,0,0,1,17.34.12c-.55-.06-.55-.07-.08,0-3.79-.38-9.38-.49-11.48-.46,2.48-.07,5.9.06,6.62.11-.64,0-1.59-.07-2.39-.09s-1.44,0-1.47-.06c3.26,0,5.09.16,7.38.35l-1.24-.09c3.56.28,4.54.43,5.57.56l5.89.68c2.75.26,0,0-.07-.06,1.79.23,7.53.73,9.38.84-1.53-.09-3.05-.22-4.58-.35,3.21.3,6.24.48,8.47.57l-1.09,0c2.54.14,5.83.15,7.13.12l.72,0c-1.52.09-6.08,0-6.85,0,.44,0,5,.14,7.06,0-4.45.11-6.7-.05-8.78-.14s-4-.26-7.74-.6l1.28.13c-4.69-.37-9.46-1.07-13.56-1.46,1.15.09,1.4.12.86,0a104,104,0,0,0-13.72-.46,77.83,77.83,0,0,0-14.55,1.83c-1,.2-2,.43-3,.68l-.19.09c-4.87,1.37-1.07.22-4.21,1.15l1.23-.36c-1.41.4-2.31.72-2.92.93l-1.12.49c-.22.1-.36.21-.64.36a7.65,7.65,0,0,0-1.34.89,12.72,12.72,0,0,1,3.19-1.7c1.15-.39,1.94-.64,1.25-.38a14.44,14.44,0,0,0-4.24,2,4,4,0,0,0-1.47,2,2.61,2.61,0,0,0,.55,2.31l0,.05h.07c2.62-.48,4.82-.88,5.76-1l.34-.05-.23-.24a.38.38,0,0,0-.15-.09H200c-.81,0-1.64.1-2.45.12h-.16a.12.12,0,0,1,0,.11l-.05.05h0l.16-.08h0v0l-.1-.26a1.08,1.08,0,0,1-.09-.53,1.25,1.25,0,0,1,.6-.86,6.11,6.11,0,0,1,2.35-.79,18.32,18.32,0,0,1,2.58-.22l-.2-.14c.24.77.49,1.54.74,2.32l.06.18.18,0a95.82,95.82,0,0,1,20.79-1.37c1.25.05-.77-.06-.31-.05l3.42.24c1.29.15,2.7.26,4,.45s2.45.35,3.29.54l1,.22.38.1c1.71.33,2.42.54,2.88.62a46.54,46.54,0,0,1,7.49,2.84c-.64-.32-1.29-.63-2-.91l.22.09a26.55,26.55,0,0,1,2.73,1.34l-.11-.06c.25.14.52.29.77.45l2.28,1.45-1.94-1.87c-2.67-2.56-6.37-3.95-9.92-5a73.69,73.69,0,0,0-10.35-2.16c3.82.57-1,0,.83.23a60.7,60.7,0,0,0-7.84-.8c-.83,0-1.68,0-2.55,0a18,18,0,0,1-2.54-.07,9.83,9.83,0,0,1-2.44-.54,2.78,2.78,0,0,1-1-.55c-.19-.24-.19-.29,0-.54,0,0,.24-.29-.19.1a3.19,3.19,0,0,1,1.49-.77,14.09,14.09,0,0,1,1.82-.41l-.5.07a50.72,50.72,0,0,1,10.17-.68c3.27,0,6.24.28,8.49.44a21.8,21.8,0,0,1-3.06-.32A133.74,133.74,0,0,1,246,252.63l-.5-.11c.91.15,1.92.34,2.91.55l.05-.68-1.87.06-.21.07-1.42.06-2,.07,1.9.53,4.15,1.16c1.46.31,3,.69,4.4,1,.69,0,2.76.49,5.21.71,1.22.17,2.54.17,3.8.25s2.46,0,3.47-.07c1.55-.07-3.36.13,1-.14a9.72,9.72,0,0,0,1.16,0l1.93-.24c1.36-.21,2.68-.46,2.86-.43,1.24-.28,2.46-.6,3.67-.94l.83-.14a17.53,17.53,0,0,1,2.08-.55,8,8,0,0,1,.95-.12,3.89,3.89,0,0,1,.86.07c.13,0,.21.09.19.11s0,0,0,.14a3.51,3.51,0,0,1-.53.88,29.68,29.68,0,0,1-2,2.21c.19-.17.55-.53.39-.35-1.09,1.07-3.64,3.57-1.7,1.6a58.45,58.45,0,0,0-4.21,4.45,18.53,18.53,0,0,0-1.26,1.76c-.15.29-.06.1.53-.71a11,11,0,0,1,1.07-1.4c.69-.81,1.59-1.74,2.13-2.28,0,.09-.75.82-1.48,1.66a17.4,17.4,0,0,0-1.71,2.23c-.07.1-.38.51-.58.84a4.83,4.83,0,0,0-.23.52,5.63,5.63,0,0,0-.65,1.79,5.55,5.55,0,0,0,.07,1.91,9.27,9.27,0,0,0,1.49,3.28,25.88,25.88,0,0,0,4.19,4.52c.18.11.82.66,2.18,1.63v.11l.37.25,0-.86a24.22,24.22,0,0,1-4,2.14c.73-.29,1.46-.58,2.17-.91A65.31,65.31,0,0,1,271.1,282c-2,.77-4,1.46-6,2.19l.52.09-.36-.31c-.85-.56-5.24-4.43-8.42-7.08l-1.91-1.58,1.16,2.18.9,1.67-.85-1.7-1-1.93L256.8,277l1.27,1.09L256.79,277l-1.62-1.38,1,1.89c1.32,2.56,2.18,4.22,3,5.86l.16-.53c-.91.56-1.84,1.08-2.84,1.81a11.27,11.27,0,0,0-3.23,3.15,11,11,0,0,1,3.08-3.1c.94-.69,1.83-1.22,3-1.9l-.18.59c-.67-1.26-1.58-3-3.07-5.84l-1.21-2.3,2,1.67.44.36-.44-.37-2-1.68,1.19,2.33c1.08,2.08,2.07,4,3,5.86l.2-.68a23.43,23.43,0,0,0-5.09,3.66,5.26,5.26,0,0,0-1.6,2.88,2.76,2.76,0,0,0,.38,1.79,3.6,3.6,0,0,0,1.32,1.25l-.11-.07,3,2.61c-.39-.38-1.9-1.74-.39-.45,1.14,1.09,5.72,5,4.78,4.3,1.9,1.64,2.27,1.87,3.44,2.88l2.74,2.47.6-.57c-.95-1.25-1.86-2.54-2.74-3.84l.13.22a51.47,51.47,0,0,1-2.82-4.43,24.34,24.34,0,0,1-1.15-2.28c-.15-.39-.34-.77-.45-1.17-.06-.19-.13-.4-.18-.58a1.29,1.29,0,0,1,0-.48,3.31,3.31,0,0,1,1.33-1.78,15.23,15.23,0,0,1,2.06-1.35c1.45-.8,3-1.5,4.49-2.16,3.06-1.33,6.19-2.55,9.32-3.92a47.28,47.28,0,0,0,9.3-5l-.25.15a15.88,15.88,0,0,0,1.44-1.16A4.15,4.15,0,0,0,290,274.1a2.47,2.47,0,0,1-.61,1,3.66,3.66,0,0,0,.36-.53,2.12,2.12,0,0,0,.27-.64,2.06,2.06,0,0,0,0-.43,1.06,1.06,0,0,0-.18-.4,1.52,1.52,0,0,0-.76-.51,7.24,7.24,0,0,0-2.4-.31c-.79,0-1.57.05-2.34.12-1.54.14-3.07.37-4.59.63A11.52,11.52,0,0,0,282.35,272.67Zm-3,5.95c-.61-.43-1.2-.87-1.77-1.33-.35-.28-.71-.56-1.08-.9.35.32.72.6,1.08.9C278.45,278,279.16,278.44,279.33,278.62ZM197.27,257a2.06,2.06,0,0,1,1.24-1,8,8,0,0,1,1.68-.43,8.55,8.55,0,0,0-1.7.44c-.53.23-.83.42-.39.2a1.89,1.89,0,0,0-.72.58C197.24,257.06,197.22,257.24,197.27,257Zm80.47,22.7c.48-.22.94-.46,1.4-.72.24-.17.47-.35.7-.53l.14-.1-.15-.09-.3-.19.29.2.13.08-.12.09A14.87,14.87,0,0,1,277.74,279.73Zm-19.53.64-1.36-2.73-.12-.22,1.37,2.76Zm9.5,22.48.36.47-.36-.47c-1.39-1.92-2-2.65-3-4.3Zm7.74-22.51a3.76,3.76,0,0,0-.56.22l-1.24.51c-.94.38-2,.8-2.51,1-1.4.57.54-.15,1.05-.32-.7.29-1.17.47-2.13.84C270.65,282.45,272.63,281.54,275.45,280.34ZM251.93,255l.76.16-2.77-.66Zm-6-2.45c-1.53-.35-5.53-.94-8.31-1.26-.73,0,2.09.35,5.35.84C246.8,252.74,244.46,252.22,246,252.51Zm8.3,34.22a22.34,22.34,0,0,1,5.18-3.66l0,.16-1.22-2.34,1.18,2.36.06-.22-.36.22.36-.22-.07.23-.15-.28.13.29.08-.26-.41.21c.4-.15-.48.34-1.63,1.06A17,17,0,0,0,254.28,286.73ZM218,250.83a17.24,17.24,0,0,0-4.79,1,1.88,1.88,0,0,0-.8.59.52.52,0,0,0,.08.64c.28.32.51.41.39.37.06,0-.15-.11-.37-.38a.51.51,0,0,1-.13-.49,1,1,0,0,1,.48-.5,9.73,9.73,0,0,1,2.9-.9C216.45,251,217,250.93,218,250.83Zm-.82,0a25.29,25.29,0,0,1,3.76-.36c-.24,0-.08.07.64.07l4,0c-1.56,0-2.41-.08-3.38-.05a39.41,39.41,0,0,0-4.11.2Zm5.2-.2c.55,0,1.11,0,1.66,0a34.43,34.43,0,0,1,5.12.06c-1.7-.07-3.41-.09-5.12-.06ZM235.15,256l-1.64-.39c1.62.35,1.81.41,1.64.39.46.1.91.21,1.36.35C232.93,255.49,234.78,255.9,235.15,256ZM219,250.79a27.42,27.42,0,0,0-4.73.74A24.32,24.32,0,0,1,219,250.79Zm15.05,5c-1-.21-2.81-.54-4.29-.75s-2.62-.35-2.24-.31c.23,0,1.55.15,3,.39S233.44,255.65,234.08,255.79Zm-19.4-6.11-1.47.23c1-.13,2-.29,3-.38C215.72,249.57,215.2,249.62,214.68,249.68Zm-15.27,8.41c-.59,0-1.18.08-1.77.09h-.35c0-.09-.1-.22-.15-.33l.12.29c0,.08.16.05.26.06l.63,0Zm27.46-1.85c-.16,0-.08,0,.18,0,.51.05.94.12,1.15.15l-1.15-.15c-1.31-.08-3.27-.2-4.17-.21l3.35.22c-3-.26-9.79-.26-7.84-.13-1.27,0-5.63.2-4.13.1,1.72-.05,4.21-.27,6.61-.21s4.68.14,6,.19a6.49,6.49,0,0,1,1,.07C227.72,256.31,227.33,256.25,226.87,256.24Zm.81-1.28-2-.24a7.93,7.93,0,0,1-1.55-.2c2.59.24.92.13,1.55.2S227,254.86,227.68,255Zm.29.13c-2-.28-4.06-.5-6.1-.61.69.05,1.37.09,2,.16-1.35-.12-2.71-.18-4.07-.2C220.39,254.48,224.48,254.64,228,255.09Zm-9.56-.58c-.28,0-.56,0-.85,0,.43,0,.87,0,1.3,0h-.26a16.53,16.53,0,0,1-3.44-.21,9.55,9.55,0,0,1-1.67-.44,4.73,4.73,0,0,1-.78-.39,1.3,1.3,0,0,1-.57-.67c.22.58.81.81,1.31,1a9,9,0,0,0,1.62.44A15.55,15.55,0,0,0,218.41,254.51Zm49,1.21c1.28-.2-.24-.1-2.24,0-1,0-2.13.05-3.08,0s-1.74-.1-2.07-.14c-.15,0-.87,0-.72.05a4.71,4.71,0,0,0,1.06.11l1.36.07a19.74,19.74,0,0,0,2.1,0,28.52,28.52,0,0,1-3.06-.06,12.39,12.39,0,0,1-1.35-.1c-.62-.08-.93-.12-2.66-.21a63.4,63.4,0,0,0,6.6.45c-1.1,0-2.19-.06-3.28-.09A41.39,41.39,0,0,0,267.45,255.72Zm4.65,14.64a13.4,13.4,0,0,0,2.27,3.37,13.08,13.08,0,0,1-2.36-3.58Zm2,12.63c-.28.1,4.8-2.11,6-2.63C277.56,281.54,274.73,282.69,274.08,283Zm4.65-21.18a18.42,18.42,0,0,0-3,3.77,12,12,0,0,1,1.61-2.3A27.17,27.17,0,0,1,280,260.6C280.6,260.09,279.24,261.26,278.73,261.81Zm16.8-13.52a3.16,3.16,0,0,1,1.22.92,3.21,3.21,0,0,0-1.28-1Zm-5,1a8.65,8.65,0,0,1,2-1c.77-.29,1.38-.28.89-.22A7.91,7.91,0,0,0,290.57,249.28ZM284,247.37c.56-.22,1.14-.41,1.71-.61-.63.22-1.26.45-1.88.7Zm1.86-.7,1-.31a28.39,28.39,0,0,1,4.46-1,20.81,20.81,0,0,0-2.51.44,18.91,18.91,0,0,1,3.5-.53c-1.71.16-.45.06-.65.1a22.57,22.57,0,0,0-3.93.74l-.87.22-.71.23Zm14.64,3.12-1.34.34-.27.06,1.61-.4.75-.19,0,.06c-.27-.34-.54-.79-.9-1.18-.1-.1,0,0,.17.22l.7,1,.05-.11-2,.46,2-.47-.05.12a10.26,10.26,0,0,0-1.83-2.11,8,8,0,0,1,.89.9,9.51,9.51,0,0,0-2.07-1.78,11.44,11.44,0,0,0-1.15-.61,2.25,2.25,0,0,1,.38.17,8.88,8.88,0,0,1,2.91,2.23,6,6,0,0,1,.55.68l.36.49,0,0Zm-16.83-2.33a3.73,3.73,0,0,0-.52.2l-1.41.58C279.9,249.06,282,248.11,283.68,247.46Zm3.43,29.16c.8-.62-1.07.78-3.07,1.85l1-.65a6.38,6.38,0,0,0,.66-.37c.38-.23.87-.55,1.36-.9a10.72,10.72,0,0,0,2-1.79c.28-.29.14-.09-.23.33A16.29,16.29,0,0,1,287.11,276.62Zm-10.77-.93a31.29,31.29,0,0,0,3.43,2.7h0a15.18,15.18,0,0,1-3.12,1.68c-.53.3-.3.21.35-.09a16,16,0,0,0,2.78-1.57l0,0,0,0A34.1,34.1,0,0,1,276.34,275.69Zm-.57-.37c-.43-.4-.75-.75-1-1.05a13.28,13.28,0,0,1-1.17-1.44c-.16-.23-.36-.48-.59-.86l-.42-.64-.48-.9a12.11,12.11,0,0,0,1.47,2.38c-.14-.1.11.29,1.19,1.46C275,274.55,275.29,274.89,275.77,275.32ZM261.38,298l1.54,1.45,2.47,2.17Zm9-13.21c-.26.07,3.22-1.4,4-1.68-.24.05-2.58,1-4.44,1.82l-1.21.52,1.21-.52c.7-.29.23-.06.23-.05l-.91.41,2.57-1.08ZM288.8,254.6c1.92-1.17,2.17-1.28,3.51-2C291.88,252.84,290.11,253.81,288.8,254.6Zm-25.07,42.53c-2-3.24.87,1.61-.42-.51.33.57.69,1.13,1.05,1.68A21,21,0,0,1,263,296l-.88-1.7c.24.44.46.89.72,1.33s0,0-.33-.68a17.26,17.26,0,0,1-.78-1.67C262.4,294.94,264.53,298.42,263.73,297.13Zm28.17-44.28c1-.58,1.71-.92,2.19-1.15l.19-.09-.12-.16a.36.36,0,0,0-.2-.09h-.07l-.11,0-.19,0-.33.07-.57.13-1.55.37,1.75-.44.58-.14.26,0,.14,0H294s.19,0,.23.1l.12.21-.2.09C293.59,252,293.05,252.23,291.9,252.85Zm-13.8,28.91-.22.11-2.83,1.18.21-.1Z" transform="translate(-154.24 -182.91)"/><path class="cls-2" d="M291.9,252.14l-.63.15-.28.06-.14,0a.24.24,0,0,1-.16,0l-.05-.05a6.38,6.38,0,0,0-.57-.64l.34.36.16.18.08.1s0,0,.06.06a.22.22,0,0,0,.14,0C291.22,252.32,291.54,252.22,291.9,252.14Z" transform="translate(-154.24 -182.91)"/><path class="cls-2" d="M272.18,266.11a5.08,5.08,0,0,1,.34-.75Z" transform="translate(-154.24 -182.91)"/><path class="cls-2" d="M276.64,260.43l.2-.19.16-.16Z" transform="translate(-154.24 -182.91)"/><path class="cls-2" d="M256.65,251.53c1.57.08-1.53-.05-2.78-.13Z" transform="translate(-154.24 -182.91)"/><path class="cls-2" d="M246.68,250.79c.75.08,1.83.19,3.13.3C249,251,248.1,250.94,246.68,250.79Z" transform="translate(-154.24 -182.91)"/><path class="cls-2" d="M254.81,251.42c-1.95-.09-3.63-.22-5-.33C251.08,251.19,252.17,251.27,254.81,251.42Z" transform="translate(-154.24 -182.91)"/><path class="cls-2" d="M219.88,249.28c.78-.06,1.92-.07,2.87-.12s1.7,0,1.7,0c-6.56.18,1.34,0,1.88,0C222.25,249.18,222.21,249.2,219.88,249.28Z" transform="translate(-154.24 -182.91)"/><path class="cls-2" d="M211.24,250.28l1.8-.3Z" transform="translate(-154.24 -182.91)"/><path class="cls-2" d="M208.83,250.76c-2.23.47-3,.66-4,.89,2.66-.71,4.4-1,6.43-1.37A22.29,22.29,0,0,0,208.83,250.76Z" transform="translate(-154.24 -182.91)"/><path class="cls-2" d="M235.77,257.24l-1.78-.39c1.25.25,2.5.5,3.74.81C239.22,258.05,236.53,257.36,235.77,257.24Z" transform="translate(-154.24 -182.91)"/><path class="cls-2" d="M247.67,261.68l-.7-.61-.49-.32-.45-.28c-.16-.07-.14-.1-.81-.47h.2A14.26,14.26,0,0,1,247.67,261.68Z" transform="translate(-154.24 -182.91)"/><path class="cls-2" d="M247.24,261.73l-.78-.41c.3.14.59.3.89.46Z" transform="translate(-154.24 -182.91)"/><path class="cls-2" d="M234.3,256.28c.67.19,1.35.35,2,.56C233.84,256.23,233.82,256.18,234.3,256.28Z" transform="translate(-154.24 -182.91)"/><path class="cls-2" d="M222.82,254.81c.6,0,1.19.1,1.78.15a51.61,51.61,0,0,0-5.55-.23C220.3,254.69,221.56,254.74,222.82,254.81Z" transform="translate(-154.24 -182.91)"/><path class="cls-2" d="M214.29,251l.49-.14a27.9,27.9,0,0,1,3.82-.55A27.62,27.62,0,0,0,214.29,251Z" transform="translate(-154.24 -182.91)"/><path class="cls-2" d="M253.79,291c.08.12-.13-.05-.36-.48a2.23,2.23,0,0,1,0-1.95,10,10,0,0,1,3-3.28,18,18,0,0,0-2.28,2.18,3.84,3.84,0,0,0-.88,1.81A2.05,2.05,0,0,0,253.79,291Z" transform="translate(-154.24 -182.91)"/><path class="cls-2" d="M291.22,252.9q-2.57,1.41-5,3c1.9-1.22,2.19-1.36,2.46-1.53S289.21,254,291.22,252.9Z" transform="translate(-154.24 -182.91)"/><path class="cls-2" d="M177.6,236.77s12.67-25.33,43.67-36.33c0,0-29.34,14.66-38,37.33Z" transform="translate(-154.24 -182.91)"/><path class="cls-2" d="M180.53,237.29l-.22,0Z" transform="translate(-154.24 -182.91)"/><path class="cls-2" d="M177.6,236.77l2.71.48Z" transform="translate(-154.24 -182.91)"/><path class="cls-2" d="M180.65,237.33l-.94-.18Z" transform="translate(-154.24 -182.91)"/><polygon class="cls-2" points="26.07 54.34 26.13 54.35 26.62 54.44 26.07 54.34"/><path class="cls-2" d="M213.8,204.41c-.09,0-.15.06-.12,0Z" transform="translate(-154.24 -182.91)"/><path class="cls-2" d="M215.78,203.39l.4-.23C216.06,203.24,216,203.29,215.78,203.39Z" transform="translate(-154.24 -182.91)"/><path class="cls-2" d="M212.13,205.53l.32-.22Z" transform="translate(-154.24 -182.91)"/><path class="cls-2" d="M193.5,221.52l-.7.69A4.1,4.1,0,0,1,193.5,221.52Z" transform="translate(-154.24 -182.91)"/><path class="cls-2" d="M217.43,201.49l-.08.06C217.25,201.58,217.19,201.58,217.43,201.49Z" transform="translate(-154.24 -182.91)"/><path class="cls-2" d="M216.51,203.57s0,0,0-.07l.1-.05Z" transform="translate(-154.24 -182.91)"/><path class="cls-2" d="M210.86,206.45v0l-.27.17A1.69,1.69,0,0,1,210.86,206.45Z" transform="translate(-154.24 -182.91)"/><path class="cls-2" d="M214.54,202.67l-.38.11C214.43,202.66,214.57,202.63,214.54,202.67Z" transform="translate(-154.24 -182.91)"/><path class="cls-2" d="M216.23,203.13h0l0,0Z" transform="translate(-154.24 -182.91)"/><path class="cls-2" d="M213.78,205.22l.44-.26A3.47,3.47,0,0,1,213.78,205.22Z" transform="translate(-154.24 -182.91)"/><path class="cls-2" d="M193.5,221.52l.23-.21A1.82,1.82,0,0,1,193.5,221.52Z" transform="translate(-154.24 -182.91)"/><path class="cls-2" d="M183.06,237.72l.21,0h0l.1-.2-.09.21h0Z" transform="translate(-154.24 -182.91)"/><path class="cls-2" d="M178,236.11l-.06.11Z" transform="translate(-154.24 -182.91)"/><path class="cls-2" d="M184.78,226.46l.11-.12Z" transform="translate(-154.24 -182.91)"/><path class="cls-2" d="M191.88,218.16c-.54.56-1.17,1.06-1.65,1.54l.18-.15-.48.49,0,0c-.78.81-1.71,1.85-2,2.11l.12-.06c-.28.28-.56.56-.82.86l.47-.49c-.87,1-2.22,2.55-2.4,2.77l.09-.09-.4.48.13-.12c-1.23,1.6-1.59,2-2.91,3.84-.35.5.2-.27.22-.27-.19.28-.66.91-.76,1,.12-.13.67-.9.26-.3-.31.4.23-.27-.31.45l-.23.27c-.27.42,0,.1-.48.75s.59-.93-.22.28c-.41.6-.81,1.3-1.56,2.5-.63,1,.33-.55-.53.9.19-.31.37-.62.57-.92l-.43.72-.56.92c.8-1.36-.68,1.2,0-.07l-.27.48c0-.06,0-.08,0,0l-.35.63c.21-.39.74-1.32.5-.89l-.52.92c.14-.25-.05.09,0,0,.5-.91,1.05-1.78,1.61-2.65-.07.1-.31.47-.23.33.45-.67.35-.51.8-1.21l-.19.28h0a3.51,3.51,0,0,1-.22.33l.71-1.08c.58-.82.11-.18.23-.36l1.34-1.88a3.92,3.92,0,0,0-.25.32c.43-.64.87-1.17,1.14-1.52l-.12.12a16,16,0,0,1,1.48-1.89l-.08.08c.27-.35.68-.87,1-1.18a.81.81,0,0,1,.15-.22c.17-.16.43-.54.86-1-.29.31-.24.18-.53.52a15.93,15.93,0,0,1,1.18-1.29c.32-.39-.32.32-.41.4.89-.94,1.65-2.09,2.3-2.59l-.36.42a3.37,3.37,0,0,0,.52-.52,1.1,1.1,0,0,1-.21.2c1.05-1.15,1.73-1.71,2.83-2.81-.1.06-.26.21-.28.2.51-.51.59-.39,1.41-1.22l-.19.14a2,2,0,0,1,.48-.41c-.06-.1,1.79-1.68,2.34-2.29a26.37,26.37,0,0,0,2.11-1.68c.5-.51-.53.35-.37.13.43-.36.68-.52,1.34-1,.05,0-1.23,1.1.05.19l.15-.16c-.13.1-.3.24-.49.37-.39.24.19-.2.26-.27l1.37-1c.14,0-.68.58-.75.65,1.07-.79,2.26-1.88,3.32-2.54l-.12.05c1.36-.82.69-.63,1.81-1.22.55-.38-.25.06.59-.5.24-.15.11,0,.08,0,1-.65.41-.36,1.4-.93l-.25.06c1.18-.67,2.52-1.2,3.51-1.82a9.88,9.88,0,0,0-1,.43c.72-.33,1.55-.8,2.36-1.27s1.66-.83,2.34-1.13c-.37.25.68-.17-.14.28a5,5,0,0,0-1.09.48c.83-.17,3-1.56,3.32-1.51l.16-.16c.21-.09.74-.28.4-.09a16.09,16.09,0,0,1,1.46-.68,7.38,7.38,0,0,0-2,.77c-.45.13.57-.34.17-.24,1-.36.57-.35,1.62-.74-.43.28,1.1-.28,1.07-.21a11.31,11.31,0,0,1,1.41-.49l2.39-1-.22-.53-.53.26.55-.22.19.45c-.23.06-.4.1-.39.05l.36-.12-.13-.32a1.84,1.84,0,0,0-.67.42,7.81,7.81,0,0,0,.71-.33l.06.14c-.6.24-.06.24-1.3.65a9.47,9.47,0,0,0-1.63.49c.34-.19.17-.15.3-.26a18.61,18.61,0,0,0,2.61-.95h0c-.38.2-.77.4-1.14.57a4.21,4.21,0,0,0-1.35.52l.95-.59c-1.05.64-.28.09-1.18.57l.38-.14a8.2,8.2,0,0,1-1,.54l.5-.18a3.94,3.94,0,0,1-.84.46c-.07.06-.08.09-.08.11a4,4,0,0,0-.54.29c.21-.11.34-.2.36-.17-1.29.73-.25.25-1,.72.13,0-.07.11-.35.29a13.24,13.24,0,0,0-2.08,1h0l-1.07.63c.21-.12,0,.06-.29.27l.05,0c-.32.23.48-.13-.53.49l-.55.3c.1,0,0,0,0,.06l-.55.34c-.73.67-1.57,1-2.47,1.71.26-.2.69-.48.53-.32a5.93,5.93,0,0,1-.61.41l.06,0-1.82,1.25c.17-.07,1.16-.81.75-.44a9.08,9.08,0,0,1-1.09.81c0-.06.58-.52,0-.1-.06.07-.59.52-.32.34-.63.41-1.48,1.11-2.05,1.47-.16.15.11-.05.2-.11l0-.05c.37-.27.11,0,.78-.56.14,0-1,.83-1.57,1.34l1-.72c-1.57,1.41-3.8,3.15-5.35,4.54.43-.44.84-.74.72-.76a22.8,22.8,0,0,0-1.78,1.62l.08-.07c-.45.49-1.16,1.07-1.43,1.43.24-.17.66-.69.73-.64l-1.17,1.13c.4-.32,1.17-1.13,1.62-1.55s-.65.61-.54.42a15.76,15.76,0,0,1,2-1.7c.38-.26-.44.5-.63.7a28.32,28.32,0,0,0-2.85,2.64l-.51.66a7.23,7.23,0,0,0-1.32,1.19l.31-.26-.41.48,1.24-1.2c-.44.63-1.54,1.57-2.29,2.41a4,4,0,0,1,.41-.4c-1.05,1.22-2.27,2.66-3.07,3.61-.32.44.69-.83.57-.59s-.45.54-.63.78a3.8,3.8,0,0,1-.38.51c.22-.21-.89,1.29-.1.25-.7,1-1.42,2.06-2.17,3.13l-1.94,3.31c.07-.1.08-.1,0,0,.42-.73,1-1.8,1.3-2.18-.25.49-.68,1.11-.74,1.26.15-.24.43-.72.45-.72-.33.63-.57,1-.82,1.4l.12-.24a10.79,10.79,0,0,0-1.19,2.24c-.23.57,0,0,.05,0-.17.35-.67,1.52-.86,1.89l.41-.93-.78,1.71a1.38,1.38,0,0,0,.11-.22l-.19.43h0l-1.09-.2H182l1.25.21h0l.11-.23a1.79,1.79,0,0,1-.1.24h0l-1.29-.24,1.29.25h0v0c.34-.73.51-1.05,1-2.13l-.12.26a27.47,27.47,0,0,1,1.3-2.71c-.12.22-.14.28-.08.17a56,56,0,0,1,3.27-5.32l.44-.54v-.06c.63-.92.18-.16.59-.75-.15.22-.13.18-.17.22.79-1,.36-.63.83-1.18-.27.22-.83,1.13-.7.82a23,23,0,0,1,2.27-2.66c.38-.47.77-1,1.19-1.46l1.34-1.42c.9-.93,1.75-1.84,2.5-2.52.19-.2-.13.11-.07,0,.63-.5,1.9-1.89,2-1.85a2.79,2.79,0,0,0,.41-.52c.41-.31.88-.7,1.38-1.12l-.37.3,0,0,.53-.43,0,0c.62-.53,1.27-1.11,1.93-1.65s1.34-1,1.94-1.46c-.7.49.1-.2-.23,0a14.42,14.42,0,0,0,1.42-1c.59-.41,1.24-.9,1.82-1.33,0,0,.06-.1-.09,0l.7-.46-.11,0c1.2-.92,2.65-1.7,3.43-2.33-.52.34-.53.32-.61.32.88-.63,1.75-1.16,2.82-1.82-.06,0-.1.05-.11,0a10.54,10.54,0,0,1,.92-.54v-.08c.56-.31,1.25-.78,1.93-1.14.22-.22,1.64-.88,2.39-1.35.3-.15-.68.29.14-.16.2.06,1.08-.6,1.22-.49l.7-.44.2,0a2.51,2.51,0,0,1,.29-.2l-.36-.83c-.46.22-.88.24-1.68.6.06,0,.17,0,.12,0-.32.11-1.06.39-.51.13-.52.2-2.32.88-1.49.64a5.76,5.76,0,0,1,1-.39c0,.08-.82.37-1,.52l-.22.05-.1.08c-1,.32-2,.77-2.71,1a3.06,3.06,0,0,1-.53.29l0-.07-1,.5.53-.13c-1.1.56-1.95.82-2.87,1.25-.19.2-1.75.93-2.46,1.46l.7-.36c-1.48.82-1.67,1-3.06,1.77,1.14-.7,1.15-.68,2.8-1.75-1.67,1-3,1.58-4.45,2.68.12,0,.51-.28.16,0-.33.13-1.41.94-1.23.73-.45.33-.49.44-.77.64-.53.33-1.09.62-1.59,1l.06,0c-1.22,1-2.42,1.91-3.62,2.78s-2.31,1.88-3.49,3l.07,0c-.22.16-.41.34-.62.51.47-.41-.17.22-.18.27l-1.52,1.37C191.39,218.55,191.52,218.51,191.88,218.16ZM214,203l.43-.21.28-.13-.28.13C214.18,202.91,214,203,214,203Zm-21.55,20.19.5-.6c-.1.12-.47.55-.31.39C192.54,223.06,192.36,223.28,192.42,223.19Zm21.25-19.44.33-.11.22-.17Zm-5.55,2.89.6-.3,0,0-.6.31Zm-6.62,3.66.12-.06-.12.06c-.46.26-.56.48-1,.66A3.3,3.3,0,0,1,201.5,210.3ZM213,203.58a8.62,8.62,0,0,0-1,.36c-.3.15.13,0,.25,0l-.46.21C212,204.17,212.38,203.82,213,203.58Zm3.2.07.14-.1-.56.29Zm-2.51,1.49a17.24,17.24,0,0,0-1.59,1c-.1.14.46-.14,1.07-.54S213.4,205.29,213.71,205.14Zm-7.56,2.25a12.87,12.87,0,0,0,1.76-.92l-.61.31.14-.09-.17.05C207.5,206.75,206.5,207.19,206.15,207.39Zm2.4,1.21a12,12,0,0,1-1.4.87c0,.09.77-.41,1-.58Zm-.21,0a2.93,2.93,0,0,1,.67-.51c-.06.1.21.06.92-.48a11.9,11.9,0,0,0-1.46.8Zm1-.52.3-.22a2.93,2.93,0,0,1,.91-.67l-.91.67A2.13,2.13,0,0,1,209.39,208.11Zm-6,4.58.31-.21c-.28.22-.33.24-.31.21l-.25.17C203.71,212.33,203.4,212.62,203.35,212.69Zm5.43-4.18-.87.63A7.35,7.35,0,0,1,208.78,208.51Zm-5.29,4,1.13-.92A9.56,9.56,0,0,1,203.49,212.48Zm-15.77,16.84.15-.29-.38.55Zm4.12-5.63.25-.3.09-.14Zm5.29-5.77s0,0,.06,0l.2-.16a1.15,1.15,0,0,1-.2.16c-.22.2-.53.5-.66.65.11-.06.43-.38.56-.48-.44.49-1.63,1.42-1.2,1.24-.2.19-.89.87-.69.6.51-.57,1.53-1.58,1.93-2l.15-.17Zm7.33-6.5.36-.27c.2-.13.35-.23.32-.16-.47.34-.19.09-.32.16Zm-.11,0,1.11-.78-.38.25c.24-.18.48-.36.74-.52A6.36,6.36,0,0,0,204.35,211.39Zm1.69-1.28.19-.07-.26.13.07-.06,0,0,1.24-.88Zm13-8.43c.4-.45-1.24.54-1.53.61,0,.09-.47.47.81-.28-1.08.7-.76.3-1.34.82.53-.32,1.19-.65,1.29-.7l-.62.37C218.05,202.4,218.57,201.88,219,201.68Zm-2.67.71c-.28.12-.57.21-.84.33.29-.13.59-.23.88-.35Zm-19.89,12.2a6.13,6.13,0,0,1-1.09.95C195.85,215.14,196.36,214.71,196.47,214.59Zm-7.39,6.85.76-.76a12.39,12.39,0,0,1-1,1.06C188.69,221.84,189,221.57,189.08,221.44Zm-4.59,5.21-.22.26.26-.25Zm.79-.85c-.11.14-.57.7-.46.52Zm-4.22,5.46.24-.32-.25.37Zm.23-.37.14-.18.6-.81s-.2.26-.34.44l.46-.63c-.2.32,0,.1-.05.14a4.76,4.76,0,0,1-.67.86A1.16,1.16,0,0,1,181.29,230.89Zm2.35-3.17.19-.24,0,0a2.3,2.3,0,0,1-.23.28l-.3.4c-.06.1.4-.44.52-.57-.21.26-.42.46-.67.82l.18-.22-.37.49c-.44.55-.05,0,.34-.52l.11-.16ZM181,231.3s0,0-.08.1l-.2.27C180.47,232,180.76,231.63,181,231.3Zm13-14.71c-.16.16.27-.14.64-.47l-.16.22a7,7,0,0,0-.88.71C193.4,217.13,193.69,216.87,194,216.59ZM215,203a12.59,12.59,0,0,1-1.6.7C213,204,214.38,203.31,215,203Zm.09-.17.29-.14a7.29,7.29,0,0,0,1-.34c-.17,0-.42.17-.58.21,0-.06-.08,0-.4.13Zm-11.66,6.46-.43.2-.61.41ZM197,213.81a5.78,5.78,0,0,1-.71.63,6.36,6.36,0,0,0,.83-.65l.23-.18-.23.18c-.13.1-.06,0-.07,0l.16-.15-.48.39Zm-9.94,9.51a8.73,8.73,0,0,1-.58.68C186.55,223.91,186.84,223.57,187.07,223.32Zm13.21-12.07c-.66.53.36-.18-.06.17l.35-.27c-.54.48-.45.26-.84.58l.26-.21c.19-.2-.43.28-.5.29C199.79,211.56,200.54,211,200.28,211.25ZM186.54,223.9a11.67,11.67,0,0,1-.8.89A11.9,11.9,0,0,1,186.54,223.9Zm8.94-9.05,0,0,.53-.43,0,0Z" transform="translate(-154.24 -182.91)"/><path class="cls-2" d="M186.09,224.88l-.3.34Z" transform="translate(-154.24 -182.91)"/><path class="cls-2" d="M217.4,202.29a.47.47,0,0,1,.16-.09Z" transform="translate(-154.24 -182.91)"/><polygon class="cls-2" points="64.67 18.82 64.73 18.79 64.78 18.78 64.67 18.82"/><path class="cls-2" d="M183.35,237.5c-.16.31.13-.31.24-.56C183.48,237.19,183.45,237.3,183.35,237.5Z" transform="translate(-154.24 -182.91)"/><path class="cls-2" d="M184.27,235.5l-.29.62Z" transform="translate(-154.24 -182.91)"/><path class="cls-2" d="M183.53,237.14l.45-1Z" transform="translate(-154.24 -182.91)"/><path class="cls-2" d="M187,230.24c-.19.29-.51.88-.51.88.7-1.27-.18.23-.25.33C186.72,230.67,186.75,230.68,187,230.24Z" transform="translate(-154.24 -182.91)"/><path class="cls-2" d="M188.08,228.64l-.22.33Z" transform="translate(-154.24 -182.91)"/><path class="cls-2" d="M188.37,228.18a8.12,8.12,0,0,1,.57-.72c-.33.51-.59.81-.86,1.18C188.29,228.34,188.49,228.06,188.37,228.18Z" transform="translate(-154.24 -182.91)"/><path class="cls-2" d="M198.36,216.35c-.08.08-.28.28-.3.26l.6-.59C198.91,215.8,198.48,216.23,198.36,216.35Z" transform="translate(-154.24 -182.91)"/><path class="cls-2" d="M200.75,214.36c.51-.45.2-.26.47-.48l0,.09Z" transform="translate(-154.24 -182.91)"/><polygon class="cls-2" points="46.5 32 46.35 32.13 46.52 31.98 46.5 32"/><path class="cls-2" d="M203.16,212.19l-.42.22C203.2,212.07,203.25,212.13,203.16,212.19Z" transform="translate(-154.24 -182.91)"/><path class="cls-2" d="M205.12,210.52l-.33.23c.33-.26.66-.51,1-.74C205.57,210.18,205.34,210.34,205.12,210.52Z" transform="translate(-154.24 -182.91)"/><polygon class="cls-2" points="53.38 25.78 53.46 25.7 54.15 25.21 53.38 25.78"/><path class="cls-2" d="M205.46,208.27c-.17,0,1-.68,1.34-.88C206.63,207.62,205.84,207.86,205.46,208.27Z" transform="translate(-154.24 -182.91)"/><path class="cls-2" d="M186.84,224l.86-1C187.06,223.79,187.52,223.24,186.84,224Z" transform="translate(-154.24 -182.91)"/><path class="cls-2" d="M242.93,196.1s.17-8.5,7.17-12c8.14-4.07,15.17,4.34,15.83,7.34l-8-.34s-7.5-10.16-11.66,3c0,0,57.66-5.33,89.66,43l-13.33.67S303.93,192.1,242.93,196.1Z" transform="translate(-154.24 -182.91)"/><path class="cls-2" d="M249.77,195.88h0Z" transform="translate(-154.24 -182.91)"/><path class="cls-2" d="M242.93,196.1c1.77-.06,4.57-.23,6.33-.22C247.69,195.87,243.47,196.1,242.93,196.1Z" transform="translate(-154.24 -182.91)"/><path class="cls-2" d="M250.09,195.91c-.73,0-1.46,0-2.2,0C249.17,195.86,248.94,195.91,250.09,195.91Z" transform="translate(-154.24 -182.91)"/><polygon class="cls-2" points="95.05 12.97 95.17 12.97 96.34 12.98 95.05 12.97"/><path class="cls-2" d="M329.8,229.35c.13.18.2.31.11.24Z" transform="translate(-154.24 -182.91)"/><path class="cls-2" d="M326.59,225.39a9,9,0,0,0-.7-.78A7.53,7.53,0,0,1,326.59,225.39Z" transform="translate(-154.24 -182.91)"/><path class="cls-2" d="M332.67,233l-.56-.7Z" transform="translate(-154.24 -182.91)"/><path class="cls-2" d="M298,209.38l-1.87-1.26A17.82,17.82,0,0,1,298,209.38Z" transform="translate(-154.24 -182.91)"/><path class="cls-2" d="M309,209.88l-.2-.09C308.65,209.64,308.56,209.56,309,209.88Z" transform="translate(-154.24 -182.91)"/><path class="cls-2" d="M326.15,224.13s0,0-.12,0l-.18-.2Z" transform="translate(-154.24 -182.91)"/><path class="cls-2" d="M334.78,235.86l0,0,.41.61C335,236.19,334.85,236,334.78,235.86Z" transform="translate(-154.24 -182.91)"/><path class="cls-2" d="M302.86,206.2c-.27-.16-.53-.33-.75-.48C302.71,206.06,303,206.24,302.86,206.2Z" transform="translate(-154.24 -182.91)"/><path class="cls-2" d="M325.8,224.52h0l.09.1Z" transform="translate(-154.24 -182.91)"/><path class="cls-2" d="M331,229.75c-.23-.32-.46-.61-.71-.93C330.56,229.2,330.81,229.53,331,229.75Z" transform="translate(-154.24 -182.91)"/><path class="cls-2" d="M298,209.38l.57.43C298.32,209.61,298.15,209.49,298,209.38Z" transform="translate(-154.24 -182.91)"/><path class="cls-2" d="M255.69,196l1,.07Z" transform="translate(-154.24 -182.91)"/><path class="cls-2" d="M243.13,194.37l0,.28Z" transform="translate(-154.24 -182.91)"/><path class="cls-2" d="M263,187.18l.24.27A1.25,1.25,0,0,1,263,187.18Z" transform="translate(-154.24 -182.91)"/><path class="cls-2" d="M248.51,190a5.5,5.5,0,0,1,1.78-1.78,3.35,3.35,0,0,1,2.19-.46,2.61,2.61,0,0,0-.48,0,3.85,3.85,0,0,1,1.41.25v0a10.37,10.37,0,0,1,4.3,3.38l.08.1h.13l1,.06-.3-.06,2.73.14-1.56-.09,6.1.24h.32l-.08-.29a7.84,7.84,0,0,0-1-2.16l.14.25c-.26-.44-.52-.75-.82-1.19l.22.34a15.23,15.23,0,0,0-3.89-3.7l-1-.63-1.19-.56c-.43-.16-.9-.34-1.42-.49a10.86,10.86,0,0,0-1.77-.3c-1.43-.07.8,0,.8.11a14.5,14.5,0,0,0-1.64-.15l-1.35.1,1.25-.08c.2,0,.33,0,.31,0a3.21,3.21,0,0,0-.62,0c-1.18.1.8-.08-1.26.15l-.8.17a3.22,3.22,0,0,0-.75.23l-1.18.5c-.91.51-.37.17.06,0l.34-.15a5.11,5.11,0,0,0-1.12.56,7.23,7.23,0,0,0-1.1.73l-.57.44-.56.54a12.67,12.67,0,0,0-2.39,3.18c-.62,1.26-.44.94-.34.72s.09-.18,0,0a13.72,13.72,0,0,0-.63,1.5,17.11,17.11,0,0,1,1-2.27,14.81,14.81,0,0,0-.8,1.74,16.87,16.87,0,0,0-.75,2.37c.46-1.76.27-1,0-.19s-.36,1.65,0,0c-.09.41-.19.82-.26,1.23,0-.15,0-.19,0-.11a15.69,15.69,0,0,0-.21,1.66,15.06,15.06,0,0,1,.35-2.32,15.1,15.1,0,0,0-.35,2.4c0-.64,0,.24,0,.1a16.67,16.67,0,0,1,2-6.79c-.16.24-.59,1.17-.43.82a12.11,12.11,0,0,1,1.77-2.81,5.7,5.7,0,0,0-.48.62h0c-.37.5-.51.74-.51.74a12.71,12.71,0,0,1,.86-1.24,13.33,13.33,0,0,1,1-1.06c.84-.8.95-.84.86-.79s-.34.28-.15.1l.91-.66c.35-.26.79-.47,1.22-.73a10.54,10.54,0,0,1,2.55-.91c-.3.06-.6.12-.9.2a9.75,9.75,0,0,1,4.29-.36l-.39,0a10.33,10.33,0,0,1,1.59.29c.47.12.88.29,1.28.42a10.85,10.85,0,0,1,2.21,1.23l-.21-.15a16.28,16.28,0,0,1,1.42,1,13.35,13.35,0,0,1,1.25,1.19,5,5,0,0,1,.43.42,17.3,17.3,0,0,1,1.78,2.48,11.22,11.22,0,0,0-.87-1.46,9.21,9.21,0,0,1,1,1.61,6.19,6.19,0,0,1,.44,1.23l.1-.12-.79,0c-.85,0,.11,0,.79.06l-.08.09-.15-.49.16.49.07-.08c-2.82-.13-5.71-.13-7.47-.3l1.28,0c-1.18-.07-1.82-.1-1.68-.08a4.91,4.91,0,0,1,.64,0l-.77,0,.05,0a13.31,13.31,0,0,0-3-2.85,6.17,6.17,0,0,0-1.85-.86,4,4,0,0,0-2.35.06l.51-.11a1.48,1.48,0,0,1,.32,0,4.59,4.59,0,0,0-1.72.58,5.34,5.34,0,0,0-1.82,1.82c.11-.14.21-.28.33-.41-.54.73-.88,1.31-.82,1.2s-.23.45-.52,1.11a24.39,24.39,0,0,0-.94,2.48l-.07.21.22,0c1.42-.12,2.89-.16,3.69-.24l6.21.19c1.65,0-1.45-.15-.84-.18,1.29.06,2,.14,3.89.27,0,.06-3.8-.13-.2.16h.51c-.37,0-.89,0-1.41-.1-1-.1.63,0,.87,0,1.29.09,2.58.23,3.86.37.28.1-2-.15-2.27-.16,3.06.26,6.75.64,9.55,1.18l-.26-.07c3.57.7,2.12.22,4.94.93,1.5.3-.52-.22,1.74.3.63.15.25.09.14.07,2.75.71,1.24.18,3.75,1l-.52-.24c1.5.44,3,.91,4.49,1.43s2.87,1,4.15,1.44c-.13-.12-1.71-.67-2.32-.94,3.44,1.25,8.23,3.07,11.26,4.56-.93-.38,1.38.83-.59-.06-.47-.31-1.43-.66-2.48-1.14,1.65.88,7.14,3.2,7.52,3.7l.47.17c.45.26,1.58.94.77.52,1.11.56,2.18,1.2,3.24,1.83-.55-.36-1.38-.94-2.2-1.43a22.71,22.71,0,0,0-2-1.1c-.9-.58,1.36.68.58.16,2.13,1.3,1.39.66,3.59,2-1.06-.51,2.12,1.45,2,1.44.71.45,2.24,1.54,2.83,2s1.61,1.14,2.7,1.92l1.65,1.21,1.5,1.24c-.68-.61-1.76-1.55-1.65-1.52a20.7,20.7,0,0,0,2.11,1.66c-3.13-2.76-1.13-.73-4.09-3.08a26.13,26.13,0,0,0-3.12-2.36,2.46,2.46,0,0,0,.79.37c1.87,1.48,5,3.64,7.35,5.74,1,.88.17.3,2.34,2.33-.65-.56-1.27-1.14-1.93-1.67a26.7,26.7,0,0,1,2.15,2.05l-.63-.66c1.05.94,1.43,1.31,2,1.87l-.82-.88a12.35,12.35,0,0,1,1.58,1.53c.15.12.21.15.22.14s.34.39,1,1a5.94,5.94,0,0,1-.61-.67c2.37,2.45.63.49,2.11,2-.23-.24.24.15.74.71-.15.07,2.64,3.2,3.26,4.13v0l1.72,2.28c-.35-.46.07,0,.6.65l-.09-.11c.57.71-.51-1,1.08,1.24l.79,1.2c-.14-.21,0,0,.1.07l.82,1.24c.35.43.67.86,1,1.3l.14-.27c-1.64.08-3.28.06-5.28.21.77,0,1.93-.1,1.44,0s-1.29.06-1.7.06h.14l-5.06.17c.41,0,3.24-.11,2,0-.75.11-2.2.11-3.11.15.12,0,1.79-.16.1-.09-.21,0-1.82.15-1.06.14l-.78,0,.19.12c-.61-1.52-1.58-3.34-2.21-4.54-.26-.42.12.25.24.49l.07.1c.48.93,0,.17,1,2,0,.2-1.41-2.62-2.4-4.13.49.83.95,1.67,1.39,2.52-1.24-2.08-2.75-4.49-4.41-6.79a70.25,70.25,0,0,0-5-6.29c1,1,1.7,2,1.67,1.76-1-1.15-1.39-1.64-1.83-2.11s-.85-1-1.91-2l.17.18-1.8-1.77c-.61-.58-1.19-1.11-1.58-1.42.46.48,1.64,1.45,1.6,1.54-.93-.84-1.81-1.73-2.78-2.52.44.39,1.14,1,1.85,1.68s1.45,1.33,1.94,1.85c.74.72-1.46-1.47-1.08-1.15a39.7,39.7,0,0,1,4.08,4.41c.66.82-1.07-1.08-1.52-1.55a52.5,52.5,0,0,0-6.46-6.17c-.5-.41-1-.77-1.53-1.15a23.39,23.39,0,0,0-3.19-2.55l.73.57c-.57-.4-.93-.64-1.2-.82,1.07.8,2.23,1.64,3.14,2.43-1.42-1-4.05-3-6.24-4.42.1.08.86.57,1.08.74-1.61-1.07-3.34-2-4.95-3s-3.2-1.73-4.58-2.32c-1.16-.48,2.27,1,1.67.85-1.41-.69-3-1.36-3.42-1.58.62.29-3.35-1.33-.58-.18a86,86,0,0,0-16.85-5c.28,0,.28.06,0,0,1,.14,2.11.45,3.17.67s2,.45,2.52.63c-1.22-.32-2.92-.7-3.27-.77l1.18.27a6.43,6.43,0,0,1,.72.18c-1.62-.33-2.52-.57-3.66-.82l.62.13c-1.77-.39-2.28-.43-2.79-.55s-1.07-.21-3-.47c-1.4-.13,0,0,0,.05l-4.76-.52c.78.05,1.55.16,2.33.24-.82-.09-1.61-.2-2.34-.25l-2-.12.55,0-3.62-.21h-.37c.78,0,3.09.16,3.48.18-.22,0-2.56-.18-3.58-.17,2.26.06,3.4.19,4.45.25s2,.16,3.93.38l-.65-.09c1.19.14,2.4.23,3.56.43l3.3.57c-.58-.09-.71-.1-.43-.05a85.33,85.33,0,0,1,13.92,3.69l1.45.62h.11c2.4.92.5.25,2,.86l-.6-.25c2.73,1.21,1.54.63,3.06,1.32-.71-.37-2.93-1.34-2.23-1.09a59.82,59.82,0,0,1,7.16,3.66A71.91,71.91,0,0,1,306,216.16c.48.42-.28-.28-.1-.13.65.66,1.81,1.68,2.73,2.62.46.46.9.87,1.2,1.19a4.46,4.46,0,0,1,.47.54c.62.64.91.88,1.09,1.05.75.91,1.68,2,2.59,3.15l-.67-.87.09.09,1,1.23-.05,0a61.74,61.74,0,0,1,6.26,9.51c-.9-1.73.32.38-.1-.44.38.82,1.12,2.23,1.8,3.85l.1.23h.26l4.91-.23s.24-.06-.15-.07l1.95,0-.27,0c2.34-.13,4.82-.19,6.89-.27l.72,0-.41-.59c-.57-.83-1.09-1.58-1.54-2.19.8,1.17.79,1.2.83,1.34L333.41,233c-.73-1-1.57-2.06-2.45-3.22a.74.74,0,0,1,.14.22c-.49-.59-1-1.36-1.52-1.95l-.12,0c-1-1.12-2.23-2.59-3.43-3.9-.55-.43-2.92-3.17-4.51-4.49-.57-.54,1.21,1.21-.41-.27-.13-.33-2.11-1.93-2.16-2.14L317.43,216l-.28-.33c-1.34-.95-1.93-1.58-3.91-3,.1.09.3.25.2.18-.61-.5-2.11-1.53-.93-.76-1.07-.73-4.73-3.22-3.13-2.05-.09-.11,1.4.93,2,1.38-.12,0-1.73-1.11-2.17-1.32l-.41-.3-.25-.12c-2-1.33-4.19-2.57-5.73-3.47a12.31,12.31,0,0,1-1.21-.62v-.09c-.75-.42-1.55-.77-2.32-1.16l1,.64c-1.29-.6-2.36-1.18-3.39-1.68s-2-1-3.08-1.44c-.61-.1-4.22-1.75-6.19-2.25l1.71.63c-3.67-1.31-4.29-1.41-7.77-2.47,1.5.37,2.23.64,3.14.89s2,.59,4.14,1.29a98.58,98.58,0,0,0-11.45-3.37c.26.09,1.27.35.28.15-.39-.12-1.33-.35-2.11-.53s-1.38-.29-1.08-.26c-1.26-.23-1.49-.22-2.26-.35-1.41-.27-2.81-.58-4.23-.8l.13,0c-7.26-.9-13.59-1.6-20.95-1.19l.15,0-1.18,0,.42.53.23-.62c-.48,1.32.15-.6.18-.71a11.6,11.6,0,0,1,2.3-3.87C249.42,189,249.14,189.05,248.51,190Zm53,15.55,1,.54.62.34-.62-.34A5,5,0,0,1,301.52,205.52ZM294,207.2c.53.3,1,.61,1.54.94-.31-.21-1.41-.89-1-.59C294.37,207.41,293.81,207.09,294,207.2Zm6-1.79.7.38.57.24C300.92,205.8,300.49,205.61,300.06,205.41Zm-13.31-5.54,1.45.54.13,0-1.47-.55ZM270,195.25l.3.06-.3-.06c-1.19-.25-1.68-.21-2.64-.45A17,17,0,0,1,270,195.25Zm29.2,9.24c0-.05-1.62-.87-2.1-1.12-.71-.29.24.16.47.32l-1.06-.49C296.73,203.42,297.8,203.74,299.19,204.49Zm27.37,20.19-.28-.28c.34.34.63.73.94,1.1Zm4.35,5.16c.42.69,1.76,2.26,2.56,3.45a8.9,8.9,0,0,0-1.58-2.27C330.72,229.44,331.36,230.49,330.91,229.84Zm-48.62-31.71c1,.31,2.36.85,4.32,1.42-.48-.19-1-.34-1.47-.51l.36.11-.36-.16A22.28,22.28,0,0,1,282.29,198.13Zm48.13,39.46c-1.43,0-4,.1-3.79,0a17.15,17.15,0,0,0,2.64,0Zm-.42-.09a18.64,18.64,0,0,1,1.92-.12c-.24.06.33.15,2.38,0-1.59,0-1.73,0-3.82,0Zm2.66.06.85-.05a14.91,14.91,0,0,1,2.43-.18h.41l-.22-.37-.09-.14.1.14.26.35-.46,0-2.43.16C333.28,237.53,333,237.55,332.66,237.56Zm-13.83-6.19.42.74c-.43-.71-.47-.8-.42-.74l-.35-.61C319.49,232.32,319,231.52,318.83,231.37ZM331,237.62l-2.46.12C329.29,237.69,330.82,237.59,331,237.62Zm-11.78-5.82c.56.86,1.88,3.21,1.68,2.89S319.53,232.36,319.19,231.8Zm-41.37-31.88.72.2-1.47-.49Zm14.77,6.29.77.46.35.17Zm14.53,10.62c-.07,0-.05,0,0,.09s.35.34.42.42a5.47,5.47,0,0,1-.42-.42c-.48-.46-1.22-1.13-1.56-1.43.18.21.94.9,1.22,1.19-1.13-1-3.67-3.37-3-2.6-.46-.46-2.2-1.84-1.57-1.4,1.4,1.06,3.9,3.25,4.89,4.15.06,0,.17.14.4.34ZM321,234.52c.3.56.41.81.47.92.24.49.39.88.3.74-.57-1.18-.17-.44-.3-.74S321.19,234.82,321,234.52Zm0-.18c.48.92.93,1.87,1.34,2.82l-.41-1c.25.51.47,1,.69,1.55l0,0H323l-.38,0,.06,0A22.51,22.51,0,0,0,321,234.34Zm2.69,3.3.43,0-.66,0h.13l3.49-.15Zm-3-18.3c-1.11-.73,2.21,2.16,2.59,2.74.07,0,.36.26.33.18a11.74,11.74,0,0,0-1.62-1.64,13,13,0,0,1,1.6,1.57,7.49,7.49,0,0,0,1,.93c-1-1-2.16-2.24-2.36-2.39.42.37.82.74,1.21,1.15A33.17,33.17,0,0,0,320.71,219.34Zm-14.52-10.68c-.6-.36-1.17-.74-1.78-1.07.64.35,1.25.75,1.88,1.12ZM254.85,194c.15,0-2.67,0-3.34,0Zm1.74-4.45a10.52,10.52,0,0,0-1.94-1.51,5.83,5.83,0,0,1,1.19.79,14.92,14.92,0,0,1,1.4,1.33C257.49,190.52,256.89,189.83,256.59,189.59Zm6-3L262,186l.58.58Zm1.71,2c-.12-.16-.45-.55-.7-.87s-.48-.52-.3-.35C263.66,187.75,264,188.18,264.29,188.59ZM250.45,184l.87-.32-.95.38Zm.93-.39a1.71,1.71,0,0,1,.5-.15l1-.23a10.07,10.07,0,0,1,1.27-.14,8.58,8.58,0,0,0-1.28.13,11,11,0,0,1,1.78-.16c-.87.05-.23,0-.33.05-.58,0-1,.06-1.33.12l-.67.15-.45.08A3.82,3.82,0,0,0,251.38,183.61Zm8.68,1.08.61.36.11.08c-.28-.16-.51-.31-.72-.44a8.52,8.52,0,0,0-1-.54c-.12,0,.18.11.55.31s.79.5,1,.61l-.95-.6c-.34-.17-.71-.37-1.18-.58l.58.29a8.53,8.53,0,0,0-1.29-.53c-1.53-.49,0-.14,1.33.5l.41.19A3.61,3.61,0,0,1,260.06,184.69Zm-9.78-.65c-.13.05.09-.06-.26.1l-.67.39C248.46,185.06,249.47,184.44,250.28,184ZM247.46,194a9.64,9.64,0,0,0,1.83,0l-.62.08a7.81,7.81,0,0,0-1,0c-.52,0-1.11,0-1.42.08h0v0l.06-.18c.09-.18.06-.07,0,.2l0,0Zm55.7,12.94c-.28-.17-1.08-.59-1.84-1s-1.53-.77-1.69-.91c-.48-.17.07.12.91.54S302.48,206.57,303.16,206.92Zm.36.06.65.36c.79.45.65.49,2,1.26-.37-.24-.83-.52-1.21-.75.1,0-.09-.13-.81-.51Zm-28.74-10.61-1-.28c-.55-.11-1.09-.24-1.64-.33C273,196,273.89,196.17,274.78,196.37ZM257,193.89c.13,0-1.79-.06-2.19-.08.12.05,1.41.09,2.44.15l.67,0-.67,0c-.39,0-.12,0-.12-.05h.51l-1.41-.09Zm5.27-2.44c1.15,0,1.28,0,2.06.07C264,191.52,263,191.49,262.22,191.45Zm4.25,3.29c-1.93-.23.91.2-.35,0l1,.15c-1.63-.2-1.16-.22-2.31-.35l.77.08c.62,0-1.17-.17-1.31-.23A20.11,20.11,0,0,1,266.47,194.74Zm-2.43-3.2c1.22,0,1.52.06,1.88.09l.28,0-.08-.26a5.69,5.69,0,0,0-.28-.83,5.13,5.13,0,0,1,.3.83l.11.28-.33,0Zm-11.31,2h.13l1.56.06h-.12Z" transform="translate(-154.24 -182.91)"/><path class="cls-2" d="M265.67,191a9.24,9.24,0,0,0-.42-.93A6.09,6.09,0,0,1,265.67,191Z" transform="translate(-154.24 -182.91)"/><path class="cls-2" d="M308,210.08a3.8,3.8,0,0,1,.38.21Z" transform="translate(-154.24 -182.91)"/><path class="cls-2" d="M311.09,212.18l.12.08.09.07Z" transform="translate(-154.24 -182.91)"/><path class="cls-2" d="M256.83,196.05c-.8-.06.77,0,1.41.08Z" transform="translate(-154.24 -182.91)"/><path class="cls-2" d="M261.88,196.52l-1.58-.19Z" transform="translate(-154.24 -182.91)"/><path class="cls-2" d="M257.76,196.12c1,0,1.84.13,2.54.21C259.65,196.27,259.1,196.19,257.76,196.12Z" transform="translate(-154.24 -182.91)"/><path class="cls-2" d="M275.3,199.09c-.76-.23-2.24-.62-2.24-.62,3.22.87-.64-.25-.93-.26A30.68,30.68,0,0,1,275.3,199.09Z" transform="translate(-154.24 -182.91)"/><path class="cls-2" d="M279.53,200.39l-.88-.29Z" transform="translate(-154.24 -182.91)"/><path class="cls-2" d="M280.72,200.76c1.1.39,1.46.59,1.94.79-1.3-.51-2.13-.83-3.13-1.16C280.31,200.65,281.07,200.9,280.72,200.76Z" transform="translate(-154.24 -182.91)"/><path class="cls-2" d="M310.54,219.85c-.18-.2-.62-.67-.62-.69.46.46.89,1,1.33,1.42S310.81,220.13,310.54,219.85Z" transform="translate(-154.24 -182.91)"/><path class="cls-2" d="M315.13,225.35c.93,1.24.49.56,1,1.2l-.13,0Z" transform="translate(-154.24 -182.91)"/><path class="cls-2" d="M314.26,224.94l-.28-.36.32.41Z" transform="translate(-154.24 -182.91)"/><path class="cls-2" d="M319.47,231.43l-.49-1C319.66,231.6,319.6,231.65,319.47,231.43Z" transform="translate(-154.24 -182.91)"/><path class="cls-2" d="M322.41,236.59l-.38-.83c.3.62.6,1.24.87,1.89l-.32-.2.79,0-.79,0,.31.19C322.74,237.29,322.57,236.94,322.41,236.59Z" transform="translate(-154.24 -182.91)"/><polygon class="cls-2" points="174.31 54.29 174.56 54.25 176.51 54.18 174.31 54.29"/><path class="cls-2" d="M279.84,197.87a33.32,33.32,0,0,1,3.59.94C282.82,198.7,281.06,198.09,279.84,197.87Z" transform="translate(-154.24 -182.91)"/><path class="cls-2" d="M263.73,191.24l-3-.14C263.06,191.18,261.4,191.13,263.73,191.24Z" transform="translate(-154.24 -182.91)"/><path class="cls-2" d="M197.27,237.44s23.66-45,80.33-27.34c0,0-51.33-14-72.33,27.67Z" transform="translate(-154.24 -182.91)"/><path class="cls-2" d="M201.89,237.63l-.34,0Z" transform="translate(-154.24 -182.91)"/><path class="cls-2" d="M197.27,237.44l4.28.17Z" transform="translate(-154.24 -182.91)"/><path class="cls-2" d="M202.1,237.66l-1.49-.07Z" transform="translate(-154.24 -182.91)"/><polygon class="cls-2" points="47.32 54.71 47.4 54.71 48.19 54.75 47.32 54.71"/><path class="cls-2" d="M266.33,207.93c-.15,0-.25-.06-.17-.07Z" transform="translate(-154.24 -182.91)"/><path class="cls-2" d="M269.75,208.5l.7.11Z" transform="translate(-154.24 -182.91)"/><path class="cls-2" d="M263.19,207.71l.61,0Z" transform="translate(-154.24 -182.91)"/><path class="cls-2" d="M226.11,215.38a14.19,14.19,0,0,0-1.34.72A5.48,5.48,0,0,1,226.11,215.38Z" transform="translate(-154.24 -182.91)"/><path class="cls-2" d="M270.12,207.67H270C269.81,207.62,269.73,207.58,270.12,207.67Z" transform="translate(-154.24 -182.91)"/><path class="cls-2" d="M270.49,209.14s0,0,.09,0l.17,0Z" transform="translate(-154.24 -182.91)"/><path class="cls-2" d="M260.75,207.66h0l-.5,0A2.92,2.92,0,0,1,260.75,207.66Z" transform="translate(-154.24 -182.91)"/><path class="cls-2" d="M265.35,206.68c-.21-.05-.41-.11-.59-.17C265.22,206.6,265.43,206.67,265.35,206.68Z" transform="translate(-154.24 -182.91)"/><path class="cls-2" d="M270.53,208.62h0Z" transform="translate(-154.24 -182.91)"/><path class="cls-2" d="M265.56,208.53l.79.09A7.68,7.68,0,0,1,265.56,208.53Z" transform="translate(-154.24 -182.91)"/><path class="cls-2" d="M226.11,215.38l.43-.22Z" transform="translate(-154.24 -182.91)"/><path class="cls-2" d="M205.56,237.21c.23-.42.29-.52.34-.6Z" transform="translate(-154.24 -182.91)"/><path class="cls-2" d="M197.86,236.42l-.1.16Z" transform="translate(-154.24 -182.91)"/><path class="cls-2" d="M209.75,222.42l.19-.15C209.83,222.37,209.76,222.43,209.75,222.42Z" transform="translate(-154.24 -182.91)"/><path class="cls-2" d="M223.47,212.42c-1.05.61-2.2,1.1-3.09,1.67l.32-.16-.92.53,0,0c-1.54.85-3.29,2.16-3.86,2.47l.2-.08-1.53,1.07.88-.61c-1.7,1.22-4.18,3.21-4.5,3.52l.16-.11-.74.64.23-.17a67.52,67.52,0,0,0-5.36,5.27c-.64.71.36-.39.38-.39l-1.36,1.49c.2-.2,1.19-1.29.45-.45-.54.59.37-.39-.56.66l-.38.4-.88,1.07c-.9,1.09,1.06-1.36-.37.4-.7.89-1.46,1.9-2.74,3.69-1.06,1.58.58-.81-.9,1.36l.95-1.39-.73,1.08c-.2.29-.59.88-.92,1.4,1.32-2.08-1.15,1.83.08-.11l-.45.73,0-.07-.58,1c.34-.61,1.24-2,.83-1.36-.3.46-.58.93-.85,1.41.22-.38-.08.14,0,.06a41.92,41.92,0,0,1,2.65-4c-.12.15-.52.72-.37.5.74-1.05.62-.84,1.34-1.82l-.33.42c.06-.07.16-.21,0,0s-.37.5-.37.5c.24-.36,1-1.33,1.22-1.6,1-1.24.18-.27.39-.54.52-.63,1.66-2,2.32-2.74l-.42.46c.76-.92,1.51-1.69,2-2.19l-.19.19a35,35,0,0,1,2.64-2.66L208,224c.49-.47,1.23-1.19,1.73-1.61a2.53,2.53,0,0,1,.29-.28c.3-.22.83-.7,1.58-1.36-.51.43-.37.25-.91.71a20.46,20.46,0,0,1,2.13-1.7c.6-.51-.57.41-.72.52a47.49,47.49,0,0,1,4.31-3.26c-.24.16-.46.35-.69.53.65-.47,1-.68.94-.64a2.91,2.91,0,0,1-.37.22c1-.68,1.79-1.19,2.6-1.68s1.66-.92,2.71-1.53c-.18.05-.48.24-.5.22,1-.57,1-.41,2.6-1.3l-.33.15a5.79,5.79,0,0,1,.87-.43c0-.11,3.47-1.62,4.61-2.16.43-.12,1.23-.44,2-.69s1.59-.5,2-.64c1-.41-1,.23-.58,0,.83-.26,1.27-.39,2.53-.73,0,.05-2.44.81-.08.21l.33-.12c-.25.06-.58.17-.92.25-.7.14.39-.15.54-.21l2.55-.65a11.59,11.59,0,0,1-1.47.46l1.56-.43c.54-.14,1.09-.25,1.64-.38a27.82,27.82,0,0,1,3.14-.58h-.18c2.45-.27,1.4-.36,3.36-.47,1-.1-.38-.06,1.18-.18.44,0,.18,0,.11,0,1.91-.12.84-.15,2.61-.2l-.39-.06c1.06,0,2.15,0,3.19.06l1.54,0c.49,0,1,.06,1.43.07-.11-.07-1.24-.13-1.69-.19,1.24.11,2.72.19,4.18.25s2.88.28,4,.42c-.68,0,1.06.26-.4.16a10.62,10.62,0,0,0-1.83-.24,25.36,25.36,0,0,0,3.14.38,13.5,13.5,0,0,1,2.47.44l.34,0c.35.07,1.21.27.61.19.83.12,1.66.23,2.48.42a18.51,18.51,0,0,0-3.26-.7c-.7-.2,1,.12.41-.07,1.64.41,1,.07,2.75.47-.79-.07,1.66.53,1.58.56.56.1,1.79.43,2.25.57,1,.25,3.22.83,4.78,1.3a6.52,6.52,0,0,1-1.42-.56,7.41,7.41,0,0,0,1.76.46c-2.67-.91-.92-.07-3.36-.86a13,13,0,0,0-2.53-.79c.6.08.35,0,.61,0,1.45.54,3.8,1.1,5.76,1.71l0,0-.29-.09a9.17,9.17,0,0,0-2.14-.68c.57.1,1.14.2,1.71.32-1.88-.37-.43-.17-2-.51l.6.19c-.95-.18-1.29-.27-1.81-.4l.79.24a9.41,9.41,0,0,1-1.47-.3c-.14,0-.18,0-.19,0a5.76,5.76,0,0,0-.94-.18,3.41,3.41,0,0,1,.61.13,17.4,17.4,0,0,0-2-.21c.22,0-.19,0-.7,0a23.37,23.37,0,0,0-3.51-.66h0c-.65-.08-1.29-.17-1.93-.23.39,0,0,.06-.61,0h.1c-.62,0,.72.21-1.12,0l-1-.08c.17,0,0,0-.09,0l-1-.08c-1.53.11-2.89-.14-4.69,0,.52,0,1.31,0,1,0a11,11,0,0,1-1.15,0h.1c-1.15,0-2.29,0-3.44.07.28,0,2.2-.07,1.35,0-.5.1-1.49.07-2.11.13.08,0,1.21-.17.06-.1-.14,0-1.22.17-.71.15l-2,.14c-.7.08-1.39.15-1.91.18-.33.06.19,0,.36,0l.09,0a7.68,7.68,0,0,0,1.49-.14c.13.11-2,.27-3.19.49.65-.1,1.3-.13,1.94-.2a93.53,93.53,0,0,0-10.69,2.27c.9-.31,1.68-.47,1.55-.53a34.82,34.82,0,0,0-3.61,1.08l.17-.05a30.09,30.09,0,0,0-2.94,1.14,10.48,10.48,0,0,1,1.42-.51l-2.37.92c.77-.23,2.36-.94,3.28-1.25l-.38.12c-.38.13-.79.28-.65.19a26.15,26.15,0,0,1,3.9-1.17c.7-.14-1,.36-1.38.52a32.27,32.27,0,0,0-5.67,2.08l-1.15.6a11,11,0,0,0-2.53,1.12l.57-.26-.85.49c.82-.38,1.66-.86,2.43-1.15-.53.28-1.27.69-2.1,1.11a24,24,0,0,0-2.46,1.34c.08,0,.6-.36.77-.44a58,58,0,0,0-6.09,4.15c-.32.29,0,0,.37-.28s.82-.59.66-.45c-.87.62-1.72,1.47-2,1.61.4-.25-1.86,1.58-.27.31a54.83,54.83,0,0,0-8,8.77c.13-.15.14-.14.05,0,.8-1,1.92-2.6,2.45-3.1-.56.64-1.27,1.58-1.42,1.77.27-.34.8-1,.83-1-.66.91-1.07,1.38-1.55,2l.25-.35a25.76,25.76,0,0,0-2.29,3.24c-.5.81,0,0,.05,0l-.87,1.36-.8,1.41.76-1.38-1.41,2.55.18-.32-.82,1.48h0l-.76,0h-.25l1,0h0l.65-1.18c0,.09-.33.63-.64,1.19h0l-1.09,0,1.09,0h0l2.27-4c-.08.12-.17.24-.24.37.87-1.37,1.77-2.76,2.59-3.91-.23.32-.27.4-.15.25a52,52,0,0,1,6.35-7.37l.8-.71,0-.08c1.29-1.15.32-.2,1.17-.93a2.07,2.07,0,0,1-.35.27c1.58-1.27.84-.76,1.71-1.47-.44.31-1.68,1.39-1.33,1a36.42,36.42,0,0,1,4.37-3.22,48.89,48.89,0,0,1,5.13-3.05c.88-.5,1.8-.87,2.65-1.26l1.23-.55,1.16-.44c.39-.18-.25.08-.11,0,.6-.18,1.55-.61,2.39-.89a14,14,0,0,1,1.55-.5c.57-.21.79-.34.94-.4.78-.18,1.7-.41,2.68-.67l-.72.18.08,0,1-.25h0a57.25,57.25,0,0,1,7.6-1.29c-1.31.12.31-.13-.31-.09,1.17,0,3.94-.34,6.19-.43,0,0,.16-.06-.1-.07h1.31l-.18,0c2.35-.08,4.9.06,6.44.09-.95-.05-1-.08-1-.13,1.68.06,3.26.14,5.21.35l-.17,0c.51,0,1.13.12,1.65.19l.08-.06c1,.14,2.29.26,3.46.49.47,0,2.84.51,4.19.75.52.12-1.1-.3.34,0,.18.18,1.87.41,1.94.6l.43.09.26-.89-.84-.19-.25-.16c-1.11-.15-1.61-.52-3.21-.92.08,0,.25.09.17.08-.51-.16-1.69-.5-.76-.29-.85-.22-3.77-.89-2.48-.52A15.77,15.77,0,0,1,272,208c-.08.05-1.36-.26-1.7-.26l-.33-.1h-.19c-.8-.21-1.61-.4-2.36-.57s-1.47-.26-2.06-.41a5.26,5.26,0,0,1-.92-.12v-.08l-1.73-.29.79.26c-1.9-.29-3.25-.49-4.82-.69-.41,0-3.08-.22-4.46-.17l1.24.09c-2.64-.18-3.06,0-5.53,0l2.22-.08c.64,0,1.41-.07,2.93,0-1.53-.07-2.85,0-4.14,0-.65,0-1.29,0-1.94,0l-2,.18c.19,0,.9,0,.21.07s-2.63.21-2.22.1c-.86.15-1,.24-1.53.33-1,.12-1.94.18-2.9.35h.09A65.12,65.12,0,0,0,227,210.66h.1l-1.15.48c.9-.38-.37.22-.42.28l-1.46.64-1.42.72C222.6,212.83,222.79,212.8,223.47,212.42Zm40.87-5.86.74.13a4.63,4.63,0,0,1,.47.08l-.47-.08A3.19,3.19,0,0,1,264.34,206.56Zm-40.71,10.65,1-.65c-.22.14-1,.59-.65.42C223.87,217.07,223.49,217.31,223.63,217.21ZM263.35,207l.53.13.42,0Zm-9.71-.82,1,.08h.09l-1.06-.08Zm-11.76.38.2,0-.2,0c-.83.07-1.13.24-1.8.29A6.5,6.5,0,0,1,241.88,206.51Zm20.74-.12c0-.06-1.23-.2-1.58-.27-.53-.05.18.08.36.13l-.79-.09C260.8,206.29,261.57,206.21,262.62,206.39Zm7.43,2.6.26,0-.95-.18Zm-4.5-.57c-.53-.13-1.92-.19-2.88-.28-.25,0,.72.18,1.85.25C265.83,208.54,265,208.34,265.55,208.42Zm-15.15-2.59c.71,0,1.7.11,3.08,0h-.79l-.27-.05C252.71,205.91,251,205.83,250.4,205.83Zm5.48,2.26c-1-.05-2.72,0-2.56,0a7.75,7.75,0,0,0,1.78,0Zm-.29-.1a8.69,8.69,0,0,1,1.3-.06c-.16.07.22.14,1.61.13a20.15,20.15,0,0,0-2.58-.15Zm1.8.15H258a6.69,6.69,0,0,1,1.76,0l-1.76,0Zm-11.75,1,.57-.07c-.55.09-.62.09-.57.07l-.47.05C246.4,208.91,245.76,209.05,245.64,209.1Zm10.61-1c-.56,0-1.11,0-1.66,0A12.71,12.71,0,0,1,256.25,208.14ZM246,209c.68-.13,2.49-.35,2.24-.32S246.44,208.89,246,209Zm-31.66,15.85.32-.39c-.26.24-.47.52-.71.77Zm8.22-7.08.52-.33.2-.15Zm10.81-5.61c-.05,0,0,0,.07,0a2.89,2.89,0,0,1,.38-.12l-.38.12c-.42.15-1.05.41-1.33.53.18,0,.83-.3,1.09-.38-.47.22-1.27.49-1.86.71s-1,.42-.61.37c-.41.16-1.79.75-1.33.5l2.06-1,1.91-.79a1.36,1.36,0,0,1,.32-.15Zm14.79-3.68.7-.07c.36,0,.64,0,.54,0-.89.08-.32,0-.54,0Zm-.12-.08c.7-.06,1.41-.13,2.11-.16l-.71,0,1.4-.08A13.58,13.58,0,0,0,248,208.36Zm3.29-.31.3,0h-.36c.78-.07,1.57-.1,2.36-.13C252.86,208,252.1,208,251.33,208.05Zm24,1.56c.91,0-2-.54-2.47-.7-.11.05-1,0,1.27.4a12.84,12.84,0,0,0-2.41-.38c.95.13,2.07.39,2.23.42l-1.11-.19C273.48,209.39,274.59,209.41,275.36,209.61Zm-7.37-2c-.45-.11-.91-.2-1.37-.28.49.08,1,.17,1.45.29Zm-36,1.63c.11,0-1.69.63-2.12.77C230.73,209.67,231.75,209.4,232,209.28Zm-14.12,6.79c.47-.3.93-.6,1.42-.87-.25.2-1.26.79-1.9,1.23C217.12,216.55,217.65,216.23,217.85,216.07Zm-8.55,6.62-.39.36.43-.35Zm1.41-1.12c-.2.17-1.07.91-.83.67Zm-7.58,7.6.43-.45-.46.52Zm.43-.52a3.5,3.5,0,0,1,.25-.26l1-1.18c-.07.06-.36.38-.59.65.17-.2.45-.53.81-.91-.38.45-.08.13-.11.2-1.07,1.18-1,1.13-1.15,1.24Zm4.2-4.49.34-.33.07-.06-.41.39-.54.56c-.11.14.66-.63.89-.81-.39.35-.71.66-1.19,1.16l.32-.31-.67.68c-.79.75-.06,0,.65-.72l.2-.23ZM203,229.24c-.07.08,0-.06-.13.14l-.34.41C202.13,230.33,202.64,229.72,203,229.24ZM227.26,211c-.32.15.44-.12,1.16-.41l-.36.21a7.27,7.27,0,0,0-.78.27l-.85.39C226.16,211.47,226.72,211.24,227.26,211Zm38.41-3.72c-.43-.1-2.41-.37-2.67-.52C262.31,206.72,264.64,207.08,265.67,207.23Zm.25-.08.5.09c.6.13.52.16,1.57.35-.26-.08-.69-.15-.94-.2.06,0-.09-.06-.63-.15Zm-20.72-.88c-.25,0-.49,0-.73,0l-1.12.16C244,206.39,244.58,206.31,245.2,206.27Zm-12,2.34a14,14,0,0,1-1.4.48,13.12,13.12,0,0,0,1.58-.48l.44-.13-.44.13c-.25.08-.08,0-.09,0l.33-.12-.92.29Zm-19,9.75-1.1.86A12.76,12.76,0,0,1,214.23,218.36ZM239.51,207c-1.29.28.63-.06-.21.14L240,207c-1.08.27-.79.1-1.55.27l.51-.11c.4-.13-.8.13-.9.11A8.85,8.85,0,0,1,239.51,207ZM213.24,219.1c-1,.84-.85.65-1.46,1.14C212.57,219.57,212.48,219.7,213.24,219.1Zm17.22-9.78.08,0,1-.32-.08,0Z" transform="translate(-154.24 -182.91)"/><path class="cls-2" d="M212.17,220.34l-.55.44C211.79,220.63,212,220.49,212.17,220.34Z" transform="translate(-154.24 -182.91)"/><path class="cls-2" d="M269.44,208.27a1.12,1.12,0,0,1,.3,0A1.53,1.53,0,0,1,269.44,208.27Z" transform="translate(-154.24 -182.91)"/><path class="cls-2" d="M271.9,208.86l.09,0,.08,0Z" transform="translate(-154.24 -182.91)"/><path class="cls-2" d="M205.91,236.53c-.28.47.25-.46.45-.84C206.16,236.07,206.09,236.22,205.91,236.53Z" transform="translate(-154.24 -182.91)"/><path class="cls-2" d="M207.62,233.55a6.79,6.79,0,0,0-.56.92A7.56,7.56,0,0,1,207.62,233.55Z" transform="translate(-154.24 -182.91)"/><path class="cls-2" d="M206.23,236l.83-1.51Z" transform="translate(-154.24 -182.91)"/><path class="cls-2" d="M213.08,226.09c-.37.4-1.05,1.18-1.05,1.18,1.49-1.7-.35.3-.44.48A19.67,19.67,0,0,1,213.08,226.09Z" transform="translate(-154.24 -182.91)"/><path class="cls-2" d="M215.12,223.9l-.45.45Z" transform="translate(-154.24 -182.91)"/><path class="cls-2" d="M215.7,223.29c.57-.54.78-.72,1.05-.95-.66.68-1.12,1.07-1.63,1.56C215.52,223.51,215.91,223.13,215.7,223.29Z" transform="translate(-154.24 -182.91)"/><path class="cls-2" d="M236.18,210.84a4.72,4.72,0,0,1-.6.17l1.25-.42C237.34,210.43,236.43,210.75,236.18,210.84Z" transform="translate(-154.24 -182.91)"/><path class="cls-2" d="M240.88,209.62c1-.22.48-.16,1-.27l0,.1Z" transform="translate(-154.24 -182.91)"/><polygon class="cls-2" points="86.17 27.25 85.87 27.32 86.21 27.23 86.17 27.25"/><path class="cls-2" d="M245.82,208.55l-.73,0C246,208.45,246,208.53,245.82,208.55Z" transform="translate(-154.24 -182.91)"/><polygon class="cls-2" points="95.55 25.04 94.93 25.07 96.86 24.92 95.55 25.04"/><path class="cls-2" d="M254.61,207.65l.17,0h1.32C255.61,207.62,255.11,207.61,254.61,207.65Z" transform="translate(-154.24 -182.91)"/><path class="cls-2" d="M248.78,206.27a17.49,17.49,0,0,1,2.5-.13C250.86,206.27,249.6,206.11,248.78,206.27Z" transform="translate(-154.24 -182.91)"/><path class="cls-2" d="M213.59,219.19c.52-.42,1.08-.79,1.62-1.18Z" transform="translate(-154.24 -182.91)"/></svg>