<?xml version="1.0" encoding="utf-8"?>
<!-- Generator: Adobe Illustrator 17.0.0, SVG Export Plug-In . SVG Version: 6.00 Build 0)  -->
<!DOCTYPE svg PUBLIC "-//W3C//DTD SVG 1.1//EN" "http://www.w3.org/Graphics/SVG/1.1/DTD/svg11.dtd">
<svg version="1.1" id="Слой_1" xmlns="http://www.w3.org/2000/svg" xmlns:xlink="http://www.w3.org/1999/xlink" x="0px" y="0px"
	 width="75px" height="75px" viewBox="0 0 100 100" enable-background="new 0 0 100 100" xml:space="preserve">
<g id="Ebene_2_3_">
	<path fill="#FFFFFF" stroke="#231F20" stroke-width="0.471" stroke-miterlimit="10" d="M9.126,49.635l3.457-1.526l10.14-11.812
		l10.427-5.298c0,0,12.528-2.925,20.355-2.143c7.696,0.768,24.114,5.652,30.015,19.239c1.192,2.746-8.722,3.08-8.722,3.08
		l-14.624,0.254l-37.984-0.763L9.126,49.635L9.126,49.635"/>
</g>
<path fill="#5E2A2B" d="M1.596,48.113h95.447C97.042,48.113,50.105,59.572,1.596,48.113z"/>
<path fill="#231F20" d="M6.315,49.098l-0.349-0.075L6.315,49.098z"/>
<path fill="#231F20" d="M1.596,48.113l4.371,0.909L1.596,48.113z"/>
<path fill="#231F20" d="M6.527,49.164l-1.517-0.32L6.527,49.164z"/>
<polygon fill="#231F20" points="5.976,49.027 6.06,49.046 6.87,49.216 "/>
<path fill="#5E2A2B" d="M84.83,50.247c-0.155,0-0.254,0-0.184,0H84.83z"/>
<path fill="#5E2A2B" d="M88.4,49.752l0.725-0.118C88.913,49.677,88.73,49.701,88.4,49.752z"/>
<path fill="#5E2A2B" d="M81.613,50.713l0.626-0.089L81.613,50.713z"/>
<path fill="#5E2A2B" d="M41.863,53.044l-1.578-0.071C41.44,52.997,41.534,53.021,41.863,53.044z"/>
<path fill="#5E2A2B" d="M89.314,47.906h-0.155C88.989,47.916,88.904,47.911,89.314,47.906z"/>
<path fill="#5E2A2B" d="M89.29,49.851c0,0,0,0,0.08-0.033l0.184-0.033L89.29,49.851z"/>
<path fill="#5E2A2B" d="M79.108,51.09h-0.033l-0.518,0.052C78.835,51.114,79.009,51.095,79.108,51.09z"/>
<path fill="#5E2A2B" d="M84.251,47.892l-0.631-0.033C84.105,47.864,84.359,47.878,84.251,47.892z"/>
<path fill="#5E2A2B" d="M89.215,49.635L89.215,49.635H89.12H89.215z"/>
<path fill="#5E2A2B" d="M84.156,50.666l0.815-0.113C84.632,50.614,84.359,50.643,84.156,50.666z"/>
<path fill="#5E2A2B" d="M41.863,53.044h0.504H41.863z"/>
<path fill="#5E2A2B" d="M10.417,49.941c0.471,0.104,0.612,0.104,0.702,0.127C10.836,50.026,10.591,49.988,10.417,49.941z"/>
<path fill="#231F20" d="M2.825,48.113"/>
<path fill="#5E2A2B" d="M22.092,48.137"/>
<path fill="#5E2A2B" d="M39.617,48.019h-4.38h0.028h-4.757h0.235h-0.829H23.99h-0.509l-7.785,0.024c-0.989,0,0.551,0,0.575,0h-2.086
	c0.297,0,1.832,0,0.673,0h-2.906c-1.465,0,1.776,0-0.579,0H6.621h18.071h-1.234h2.863h-0.942c2.11,0,4.267-0.024,5.628,0h-0.155
	l6.509,0.024h-0.589c1.163,0,1.182,0.038,3.057,0.028h-0.381c0.626,0,1.107,0,1.022,0h0.179h1.987c1.159,0,2.473,0,3.108-0.024
	c0.942,0,3.612,0.042,4.408,0.033c1.144-0.028-1.05-0.033-0.641-0.057c0.909,0,1.413,0.028,2.76,0
	c0.042,0.028-2.637,0.047-0.08,0.066h0.349h-0.994c-0.749,0,0.429,0,0.593,0h2.741c0.221,0.028-1.413,0-1.582,0.028
	c2.162,0,4.738-0.042,6.763,0h-0.193c2.581,0.033,1.465-0.057,3.537,0c1.074,0-0.41-0.033,1.22-0.038c0.471,0,0.198,0,0.118,0
	c2.006,0,0.867-0.033,2.732,0l-0.414-0.038c2.214,0.024,4.545,0.094,6.443,0.08c-0.122-0.033-1.3-0.028-1.776-0.052
	c2.595,0.057,6.189,0,8.581,0.042c-0.706,0.024,1.14,0.066-0.381,0.085c-0.405-0.042-1.111,0-1.931,0
	c1.338,0.094,5.51-0.042,5.925,0.042l0.349-0.038c0.363,0,1.295,0.033,0.655,0.042h2.623c-0.942-0.028-2.878-0.085-3.48-0.052
	c-0.754-0.033,1.074-0.024,0.405-0.061c1.766,0.057,1.079-0.024,2.901,0c-0.819,0.052,1.818,0.071,1.738,0.094
	c0.593,0,1.922,0,2.435,0.028c1.05,0,3.466-0.033,5.157,0c-0.641,0-1.653-0.038-1.582-0.071c0.628,0.034,1.256,0.034,1.884,0
	c-2.944-0.066-0.942,0.085-3.612,0.042c-0.659-0.042-1.389-0.052-2.765-0.066c0.203,0.009,0.407-0.013,0.603-0.066
	c1.498,0.08,3.768,0.028,5.807,0.042l0,0c-0.254,0.057-0.504,0.113-0.749,0.16c-0.914,0.165-0.24,0-2.298,0.391
	c0.589-0.122,1.173-0.254,1.757-0.396c-1.926,0.443-0.471,0.075-2.063,0.391l0.641-0.099c-0.975,0.203-1.342,0.273-1.884,0.363
	l0.838-0.127c-0.503,0.121-1.013,0.215-1.526,0.283c-0.137,0.038-0.179,0.052-0.179,0.061c-0.108,0-0.358,0.052-0.98,0.17
	c0.367-0.066,0.626-0.113,0.636-0.104c-2.355,0.424-0.542,0.151-2.016,0.414c0.235-0.033-0.179,0.061-0.702,0.151
	c0-0.075-2.901,0.391-3.683,0.471l0,0l-1.997,0.259c0.4-0.052-0.028,0.028-0.612,0.118h0.094c-0.631,0.099,0.768-0.033-1.135,0.217
	l-1.003,0.122c0.174,0,0,0-0.085,0.028c-0.344,0.047-0.692,0.085-1.036,0.118c-1.568,0.25-2.986,0.32-4.842,0.57
	c0.537-0.071,1.352-0.16,1.008-0.099c-0.344,0.061-0.904,0.108-1.187,0.132h0.099l-3.556,0.297c0.287,0,2.275-0.188,1.413-0.08
	c-0.523,0.08-1.545,0.146-2.185,0.203c0.08,0,1.253-0.151,0.066-0.047c-0.146,0-1.272,0.146-0.739,0.108
	c-1.215,0.113-2.986,0.217-4.079,0.259c-0.349,0.028,0.193,0,0.377,0h0.089c0.73-0.042,0.113,0.033,1.554-0.08
	c0.127,0.047-2.072,0.155-3.334,0.245l2.016-0.094c-1.7,0.146-3.692,0.297-5.689,0.391l-5.652,0.179
	c0.565-0.036,1.128-0.104,1.686-0.203l-1.959,0.061c-0.471,0-0.904,0.042-1.95,0.038h0.174c-1.079,0.028-2.557,0-3.269,0.038
	c0.471,0,1.54-0.028,1.564,0h-2.633c0.829,0,2.633,0,3.641,0c0.725,0-1.455,0-1.111-0.028c1.229,0,1.983,0,2.586,0h1.644
	c0.739,0-1.069,0.071-1.526,0.085c-1.573-0.028-3.857-0.038-6.302,0l-1.347,0.038c-1.201-0.033-0.688-0.094-2.868-0.141l0.65,0.038
	h-1.022l2.793,0.137c-1.239,0-3.565-0.132-5.388-0.193l0.942,0.047c-1.361-0.042-2.755-0.071-4.069-0.151l-3.598-0.268
	c-0.89-0.042,1.743,0.127,1.309,0.127c-1.102-0.085-2.355-0.151-2.647-0.193c0.471,0.066-2.534-0.165-0.429,0
	c-0.994-0.066-2.016-0.127-3.042-0.212l-3.113-0.349l-3.123-0.353l-1.54-0.174c-0.513-0.052-1.017-0.118-1.517-0.203
	c0.198,0.033,0.198,0.042,0.028,0c0.669,0.122,1.512,0.193,2.27,0.283l1.818,0.221c-0.89-0.089-2.101-0.25-2.355-0.268l0.848,0.099
	l0.518,0.066c-1.159-0.118-1.809-0.198-2.623-0.306c0.146,0,0.292,0.038,0.443,0.052l-4.083-0.655c-0.975-0.141,0,0,0.024,0
	l-3.33-0.523l1.625,0.25l-3.005-0.471l0.386,0.066c-0.904-0.118-2.049-0.396-2.506-0.471L8.75,49.569
	c0.537,0.104,2.133,0.471,2.411,0.471c-0.16,0-1.776-0.349-2.482-0.471l1.851,0.391c0.471,0.094,0.871,0.146,1.239,0.207
	l2.746,0.438l-0.471-0.075l4.827,0.768c-0.41-0.061-0.499-0.071-0.306-0.038c0.4,0.061,0.801,0.132,1.206,0.184l1.215,0.132
	l2.458,0.273c1.663,0.179,3.382,0.386,5.228,0.565l1.116,0.104h0.071c1.809,0.118,0.386,0.052,1.559,0.132l-0.471-0.038
	c2.11,0.165,1.177,0.061,2.355,0.151c-0.565-0.061-2.275-0.165-1.747-0.155c2.101,0.16,5.36,0.386,5.652,0.438l6.245,0.193
	l1.564,0.057c0.513,0,1.013,0,1.502,0h2.717c0.471,0-0.278,0-0.113,0c0.65,0,1.743,0,2.67,0h1.201c0.311,0,0.504,0,0.509,0
	c0.626-0.033,0.89-0.066,1.06-0.085l2.892-0.075h-0.777h0.085l1.097-0.028h-0.042c2.637-0.047,5.652-0.297,8.063-0.41
	c-1.375,0.066,0.344-0.066-0.306-0.038c1.22,0,4.116-0.264,6.471-0.471c0,0,0.17-0.042-0.108-0.024l1.366-0.104h-0.184
	c2.44-0.264,5.101-0.532,6.702-0.749c-0.363,0.068-0.732,0.099-1.102,0.094c1.747-0.203,3.386-0.471,5.421-0.721h-0.184l1.719-0.245
	l0.071-0.042l3.608-0.57c0.471-0.132,2.986-0.471,4.389-0.81c0.546-0.104-1.182,0.198,0.334-0.104
	c0.231,0.033,1.969-0.41,2.101-0.367l0.9-0.221l1.785-0.447l-1.837,0.038h-0.429l-0.301-0.038c-1.149,0.071-1.752-0.033-3.466,0
	c0.094,0,0.278,0,0.188,0c-0.551,0-1.827,0-0.843-0.033c-0.914,0-4.022,0-2.623,0.024c-0.104,0,1.177,0,1.728,0
	c-0.071,0.028-1.441,0-1.78,0.052h-0.358h-0.193c-1.719-0.038-3.457,0-4.71-0.052c-0.071,0-0.367,0-0.942,0l-0.033-0.038h-1.827
	l0.867,0.057c-2.002,0-3.419-0.047-5.068-0.052c-0.405,0.061-3.217,0-4.625,0.038h1.29h-5.741l5.331-0.066
	c-3.17,0.033-5.506,0-8.397,0.024c0.198,0,0.942,0,0.226,0.033c-0.579,0-2.736,0-2.322,0c-0.9,0-1.041,0.042-1.592,0.052
	l-3.047-0.028h0.094c-5.101,0.08-9.641,0-14.774,0.047h0.113H42.48c1.022,0-0.424,0-0.495,0h-3.311
	C38.986,47.991,39.301,48.02,39.617,48.019z M83.196,47.911h0.787C83.72,47.927,83.458,47.927,83.196,47.911L83.196,47.911z
	 M38.666,53.092l1.276,0.042c-0.264,0-1.182-0.042-0.81,0c-0.184-0.042-0.641-0.057-0.457-0.057L38.666,53.092z M82.287,48.179
	l0.565,0.024l0.429-0.028L82.287,48.179z M72.119,48.179h1.093h0.094h-1.111H72.119z M59.779,48.005L59.779,48.005
	c-0.862,0-1.182,0.024-1.884,0c0.819-0.052,1.389-0.024,1.884-0.014V48.005z M81.415,48.005c-0.024-0.028-1.295-0.033-1.681-0.047
	c-0.542,0,0.207,0.028,0.4,0.042H79.31c0.226,0.009,0.989-0.061,2.105-0.033V48.005z M88.814,49.931l0.268-0.047L88.08,50.03
	L88.814,49.931z M84.105,50.657c-0.56,0.047-1.997,0.254-2.991,0.386c0.649-0.014,1.295-0.085,1.931-0.212
	c1.385-0.207,0.523-0.155,1.074-0.212L84.105,50.657z M68.68,48.057c0.739,0,1.79,0.061,3.221,0.033H70.8h0.264h-0.287
	c0.339-0.019-1.436-0.071-2.082-0.071L68.68,48.057z M74.073,51.928c-1.008,0.08-2.826,0.221-2.661,0.184
	c0.618-0.005,1.236-0.041,1.851-0.108L74.073,51.928z M73.776,51.928c0.542-0.061,0.339-0.071,1.347-0.17
	c-0.165,0.042,0.231,0.052,1.672-0.137c-1.116,0.094-1.215,0.085-2.68,0.235L73.776,51.928z M75.66,51.801l0.593-0.075
	c0.604-0.114,1.214-0.192,1.827-0.235l-1.827,0.235L75.66,51.801z M63.373,52.87l0.598-0.024
	C63.382,52.88,63.311,52.88,63.373,52.87h-0.499c1.305-0.137,0.626-0.08,0.499-0.057V52.87z M74.473,51.928
	c-0.575,0.071-1.154,0.113-1.728,0.17c0.551-0.108,1.625-0.226,1.724-0.221L74.473,51.928z M63.754,52.804l2.355-0.16
	c-0.16-0.019-1.889,0.089-2.355,0.108V52.804z M26.124,52.206l0.532,0.042l-1.088-0.122L26.124,52.206z M37.427,53.03l0.636,0.024
	h0.268L37.427,53.03z M50.143,53.228c-0.057,0-0.028,0,0.066,0h0.419c-0.165,0-0.32,0-0.419,0c-0.471,0-1.173,0-1.498,0
	c0.198,0,0.942,0,1.206,0c-1.083,0.033-3.513-0.042-2.826,0.038c-0.471,0-2.02-0.024-1.479-0.038c1.234,0,3.579-0.024,4.521-0.042
	h0.372L50.143,53.228z M66.043,52.55l0.73-0.042c0.381,0,0.673-0.024,0.56,0c-0.942,0.052-0.334,0-0.56,0L66.043,52.55z
	 M65.93,52.512c0.73-0.038,1.465-0.057,2.195-0.122l-0.739,0.042l1.46-0.113c-0.184-0.057-1.648,0.052-2.906,0.141L65.93,52.512z
	 M69.359,52.253h0.301h-0.471h0.16h-0.061l2.449-0.217L69.359,52.253z M94.249,48.73c0.885-0.273-2.148,0.381-2.623,0.41
	c-0.099,0.042-1.008,0.268,1.356-0.184c-2.035,0.424-1.29,0.184-2.496,0.471l2.355-0.414c-0.381,0.08-0.768,0.151-1.154,0.221
	C92.365,49.192,93.453,48.876,94.249,48.73z M87.185,48.118 M49.178,48.118c0.122,0-1.846,0.033-2.355,0
	c0.998,0.019,2.096,0.019,2.341,0.009L49.178,48.118z M32.802,48.118h1.743c-0.306,0-1.549,0-2.355,0
	c0.199-0.012,0.399-0.012,0.598,0H32.802z M21.499,48.118h-0.551h0.598H21.499z M23.416,48.118 M12.178,48.118 M12.885,48.118h2.355
	c-0.608,0-0.151,0-0.212,0h-2.157H12.885z M19.29,48.118h-0.81h1.281h-2.279c-1.154,0-0.066,0,0.989,0h0.81H19.29z M12.042,48.118
	 M43.926,48.118c-0.358,0,0.495,0,1.3,0h-0.41c-0.033,0-1.663,0-1.846,0c0.319-0.036,0.641-0.042,0.961-0.019L43.926,48.118z
	 M84.703,48.118c-0.471,0-2.529,0-2.826-0.033c-0.702,0.052,1.752,0.042,2.831,0.033H84.703z M84.938,48.062h0.527
	c0.641,0,0.575,0.047,1.677,0.028h-1.003c0.057-0.024-0.104,0-0.673,0L84.938,48.062z M63.274,48.062l-0.772-0.028h-1.182
	L63.274,48.062z M50.558,48.033c0.104,0-1.248,0-1.535,0c0.099,0,1.008,0,1.728,0l0,0c-0.273,0-0.089,0-0.094,0h0.353h-0.471H50.558
	z M28.248,48.066 M57.269,48c-1.356,0,0.678,0.028-0.212,0.042h0.716c-1.149,0.024-0.843,0-1.658,0h0.546
	c0.419,0-0.848,0-0.942-0.024c0.622-0.024,2.101-0.014,1.559-0.009L57.269,48z M26.957,48.066 M47.52,47.972"/>
<path fill="#5E2A2B" d="M25.417,48.137"/>
<path fill="#5E2A2B" d="M88.8,48.255c0.1-0.009,0.201-0.009,0.301,0C89.001,48.26,88.901,48.26,88.8,48.255z"/>
<path fill="#5E2A2B" d="M91.424,48.269"/>
<path fill="#5E2A2B" d="M11.189,50.068c-0.556-0.094,0.542,0.085,0.984,0.151L11.189,50.068z"/>
<path fill="#5E2A2B" d="M14.726,50.633l-1.111-0.179L14.726,50.633z"/>
<path fill="#5E2A2B" d="M11.83,50.181l1.771,0.273L11.83,50.181z"/>
<path fill="#5E2A2B" d="M24.273,51.905l-1.63-0.184c2.355,0.245-0.471-0.071-0.669-0.099C23.43,51.787,23.444,51.801,24.273,51.905z
	"/>
<path fill="#5E2A2B" d="M27.372,52.249l-0.65-0.066L27.372,52.249z"/>
<path fill="#5E2A2B" d="M28.248,52.333l1.479,0.127l-1.267-0.085l-1.079-0.132C27.667,52.301,27.957,52.331,28.248,52.333z"/>
<path fill="#5E2A2B" d="M53.355,53.021c-0.184,0-0.636,0-0.65,0c0.471,0,0.909-0.024,1.366-0.042
	C54.617,52.964,53.628,53.007,53.355,53.021z"/>
<path fill="#5E2A2B" d="M58.385,52.884c1.093-0.038,0.523-0.047,1.079-0.061l-0.061,0.042L58.385,52.884z"/>
<path fill="#5E2A2B" d="M57.787,53.106h-0.316h0.363H57.787z"/>
<path fill="#5E2A2B" d="M63.636,52.555h-0.754C63.792,52.512,63.801,52.545,63.636,52.555z"/>
<path fill="#5E2A2B" d="M67.776,52.239c-0.212,0-0.424,0.028-0.641,0.038c0.669-0.042,1.333-0.113,1.997-0.165L67.776,52.239z"/>
<path fill="#5E2A2B" d="M72.768,51.792l0.179-0.028c0.471-0.038,0.909-0.071,1.366-0.127C73.8,51.702,73.282,51.74,72.768,51.792z"
	/>
<path fill="#5E2A2B" d="M67.056,48.189c-0.221-0.033,1.973,0,2.604-0.028C69.241,48.222,67.908,48.146,67.056,48.189z"/>
<path fill="#5E2A2B" d="M27.315,48.132h2.096H27.315z"/>
<path fill="#5E2A2B" d="M49.399,55.993c2.186,0.391,4.427,0.341,6.594-0.146c3.768-0.801,11.421-6.838,14.836-1.672l-1.766,0.438
	c0,0-0.824-2.694-4.003,0c0.304,0.232,0.58,0.497,0.824,0.791c0.042,0.047,1.493-0.386,1.531-0.33
	c0.038,0.057-13.131,6.368-7.889,10.531c0,0,8.595-1.884,4.945,1.017c-3.65,2.901-13.305,5.096-12.716,7.281
	c0.589,2.185,3.405,5.751,3.405,5.751l-6.358-5.609c0,0-2.59-1.309,2.355-4.074l-1.413-2.765l4.121,3.49
	c0,0,5.534-1.964,6.829-2.981c0,0-4.121-2.694-3.886-5.181c0.235-2.487,6.358-6.306,4.601-6.688
	c-1.757-0.381-6.358,3.132-17.073-0.141l1.648-0.075c0,0-7.065-1.455-13.187-1.093s-4.003,2.039-0.942,1.884
	c3.061-0.155,11.303,0.801,14.011,3.565c0,0-6.947-4.583-21.076-2.11l-0.353-1.093c0,0-3.353,0-2.6,1.413
	c0.033,0.061,1.488-0.089,1.54-0.024l-2.708,0.509c0,0-1.531-1.672,2.473-2.911c4.003-1.239,9.419-2.548,18.368-1.455
	c8.948,1.093,11.892,0.754,14.482,0.608C55.993,54.928,53.793,55.705,49.399,55.993z"/>
<path fill="#5E2A2B" d="M55.653,55.032l-0.471,0.122c-1.506,0.253-2.931-0.763-3.184-2.269c-0.253-1.506,0.763-2.931,2.269-3.184
	c1.506-0.253,2.931,0.763,3.184,2.269C57.673,53.292,56.915,54.582,55.653,55.032z"/>
<path fill="#5E2A2B" d="M49.399,55.993c1.953-0.116,3.892-0.397,5.798-0.838c-1.066,0.262-2.146,0.46-3.236,0.593
	C50.746,55.908,49.644,55.974,49.399,55.993z"/>
<path fill="#5E2A2B" d="M55.941,54.957c-0.652,0.192-1.314,0.35-1.983,0.471C54.627,55.306,55.289,55.149,55.941,54.957z"/>
<path fill="#5E2A2B" d="M55.22,55.154l0.108-0.033c0.221-0.057,0.443-0.118,0.664-0.193l0,0l-0.391,0.024l0.391-0.024h0.038h-0.033
	C55.738,55.018,55.479,55.084,55.22,55.154z"/>
<path fill="#5E2A2B" d="M45.824,55.451c-0.203-0.052-0.33-0.08-0.231-0.075L45.824,55.451z"/>
<path fill="#5E2A2B" d="M47.152,56.365l0.942,0.212L47.152,56.365z"/>
<path fill="#5E2A2B" d="M41.581,54.815l0.824,0.104L41.581,54.815z"/>
<path fill="#5E2A2B" d="M24.923,57.815h-0.141l0.057,0.038l-0.339-1.097v-0.047h-0.047c-0.344,0-0.579,0-0.791,0.038
	c0.32-0.033,0.575-0.047,0.791-0.052h0.052v0.052c0.207,0.645,0.264,0.852,0.334,1.102l-0.061-0.038L24.923,57.815z"/>
<path fill="#5E2A2B" d="M57.165,61.136c-0.038,0.061-0.066,0.127-0.099,0.188C56.949,61.522,56.883,61.616,57.165,61.136z"/>
<path fill="#5E2A2B" d="M48.203,56.845c0,0,0.028,0,0.113,0l0.24,0.042L48.203,56.845z"/>
<path fill="#5E2A2B" d="M38.256,54.504h-0.052l-0.678-0.052C37.893,54.467,38.129,54.486,38.256,54.504z"/>
<path fill="#5E2A2B" d="M59.36,66.985l0.636,0.542C59.482,67.131,59.27,66.919,59.36,66.985z"/>
<path fill="#5E2A2B" d="M48.207,56.596L48.207,56.596h-0.122H48.207z"/>
<path fill="#5E2A2B" d="M44.798,55.583l1.06,0.203L44.798,55.583z"/>
<path fill="#5E2A2B" d="M24.923,57.815l0.655-0.089L24.923,57.815z"/>
<path fill="#5E2A2B" d="M50.859,55.088c-0.659,0-0.815-0.024-0.942-0.033L50.859,55.088z"/>
<path fill="#5E2A2B" d="M50.996,56.228h-0.264H50.996z"/>
<path fill="#5E2A2B" d="M67.428,53.36c-0.118,0-0.245,0.028-0.339,0.038C67.2,53.374,67.314,53.361,67.428,53.36z"/>
<path fill="#5E2A2B" d="M61.917,65.021c-0.815,0.122-1.634,0.268-2.425,0.433l0.127,0.028c-0.608-0.434-1.019-1.091-1.144-1.827
	c0.007,0.152,0.039,0.301,0.094,0.443c-0.148-0.431-0.163-0.898-0.042-1.338l0,0c0.283-1.126,1.187-2.171,1.997-2.953
	c0.612-0.582,1.267-1.117,1.959-1.601l-0.235,0.146c0.678-0.499,1.38-0.965,2.096-1.413c-0.41,0.254-0.815,0.518-1.22,0.782
	c1.393-0.95,2.849-1.806,4.356-2.562l0.104-0.052l-0.061-0.113c-0.028-0.047-0.141-0.057-0.127-0.052h-0.042h-0.066h-0.127
	l-0.24,0.061l-0.447,0.113l-0.41,0.099h-0.094H65.93l0,0c0.005,0.031-0.008,0.061-0.033,0.08l0,0l0.075-0.061l0,0l-0.122-0.141
	c-0.218-0.242-0.46-0.463-0.721-0.659v0.17l0,0v-0.17l0.203,0.17l-0.207-0.165v0.16c0.272-0.224,0.556-0.432,0.852-0.622
	l-0.316,0.193c0.577-0.486,1.309-0.749,2.063-0.744c0.595,0.111,1.082,0.54,1.267,1.116l0.024,0.071h0.066l1.766-0.447l0.094-0.024
	l-0.052-0.08c-0.353-0.531-0.803-0.99-1.328-1.352c-0.679-0.445-1.468-0.696-2.279-0.725c-0.659,0-0.471,0-0.127,0
	c0.174,0,0.391,0,0.565,0.052l0.306,0.052c-0.5-0.089-1.009-0.117-1.517-0.085c-0.416,0.027-0.83,0.084-1.239,0.17
	c0.378-0.077,0.76-0.131,1.144-0.16c0.363,0,0.471-0.028-0.283,0.033c-0.542,0.075-0.358,0.052-0.278,0.042s0.057-0.033-0.881,0.174
	c-0.245,0.052-0.471,0.113-0.735,0.179c-1.017,0.334-0.212,0.047-1.79,0.645c-1.79,0.721,2.181-0.9-0.697,0.273
	c-0.711,0.306-1.455,0.659-2.355,1.083c-0.471,0.212-0.942,0.438-1.507,0.678c-0.619,0.276-1.262,0.495-1.922,0.655
	c-1.276,0.25-0.942,0.16-0.73,0.141c0.108,0,0.184-0.028,0,0c-0.184,0.028-0.593,0.108-1.488,0.188
	c0.764-0.067,1.524-0.178,2.275-0.334c-0.578,0.13-1.163,0.226-1.752,0.287c-0.763,0.087-1.531,0.125-2.298,0.113
	c0.843,0,1.079,0,1.008,0c-0.071,0-0.443,0-0.829,0c-0.768,0-1.564-0.042,0,0c-0.391,0-0.782,0-1.168-0.047h0.104
	c-0.517-0.032-1.031-0.095-1.54-0.188c0.607,0.138,1.222,0.235,1.841,0.292c0.556,0.028,0.862,0,0.33,0
	c-0.751-0.02-1.499-0.098-2.237-0.235c0.593,0.113-0.217-0.038-0.085,0c2.184,0.388,4.423,0.353,6.594-0.104
	c-0.259,0.052-1.201,0.207-0.848,0.146c0.528-0.073,1.049-0.188,1.559-0.344c0.48-0.155,0.951-0.334,1.413-0.537
	c-0.226,0.094-0.471,0.188-0.683,0.273c0.127-0.047,0.344-0.127,0,0c-0.268,0.108-0.471,0.174-0.598,0.217
	c-0.065,0.024-0.131,0.045-0.198,0.061c0.87-0.3,1.723-0.644,2.557-1.031c1.955-0.89,0.4-0.193,0.829-0.391
	c1.471-0.707,2.993-1.3,4.554-1.776c-0.273,0.075-0.551,0.146-0.819,0.235c0.717-0.248,1.457-0.425,2.209-0.527
	c0.583-0.081,1.174-0.081,1.757,0c-0.119-0.027-0.241-0.044-0.363-0.052c0.76,0.045,1.494,0.29,2.129,0.711
	c0.509,0.349,0.942,0.796,1.276,1.314l0.028-0.066l-0.942,0.221l0.235-0.052l-1.046,0.259l0.061,0.033
	c-0.128-0.375-0.366-0.704-0.683-0.942c-0.291-0.205-0.642-0.31-0.998-0.297l-0.146,0.024c-0.14,0.014-0.277,0.044-0.41,0.089
	c-0.69,0.225-1.322,0.6-1.851,1.097l-0.052,0.042l0.057,0.042c0.184,0.147,0.361,0.304,0.527,0.471
	c-0.166-0.166-0.34-0.323-0.523-0.471l-0.042-0.038l0.042-0.028c0.155-0.104,0.264-0.207,0.711-0.513
	c-0.292,0.193-0.504,0.386-0.697,0.532l0,0l0,0c0.194,0.144,0.379,0.301,0.551,0.471l0.193,0.212
	c0.038,0.038,0.028,0.071,0.108,0.108c0.047,0.006,0.094,0.006,0.141,0c0.179-0.033,0.358-0.075,0.579-0.127l0.358-0.089
	l0.212-0.047l0.108-0.024h0.061c0,0,0.042,0,0,0v-0.075l-0.132,0.066c-0.471,0.254-0.25,0.132,0.137-0.057v0.057l-1.008,0.245
	l0.523-0.132l0.471-0.118v-0.042c-1.883,0.956-3.687,2.058-5.397,3.297c0.311-0.24,0.631-0.471,0.942-0.702
	c-0.909,0.617-1.366,0.998-1.262,0.942c0.278-0.221,0.377-0.287,0.471-0.358c-1.16,0.823-2.195,1.808-3.075,2.925
	c-0.412,0.537-0.699,1.16-0.838,1.823c-0.13,0.783,0.112,1.582,0.655,2.162c-0.101-0.119-0.193-0.247-0.273-0.381
	c-0.075-0.137-0.137-0.25-0.137-0.259c0.247,0.451,0.578,0.851,0.975,1.177l0.024,0.024h0.038c0.504-0.089,1.097-0.207,2.425-0.41
	l-0.471,0.057c0.436-0.08,0.876-0.132,1.319-0.155c0.286-0.053,0.576-0.081,0.867-0.085c0.298-0.023,0.597-0.023,0.895,0
	c0.169,0.015,0.336,0.053,0.495,0.113c0.151,0.066,0.278,0.188,0.24,0.349c-0.15,0.344-0.389,0.642-0.692,0.862
	c-0.288,0.243-0.59,0.47-0.904,0.678c-0.608,0.4-1.177,0.711-1.554,0.942c-1.079,0.565-4.309,1.884-5.289,2.294
	c-1.413,0.622,1.262-0.471,0.754-0.24c-1.102,0.471-1.71,0.659-3.297,1.413c-0.052-0.038,3.188-1.517,0.118-0.151l-0.419,0.226
	c0.316-0.16,0.744-0.372,1.187-0.565c0.9-0.381-0.523,0.254-0.716,0.363c-0.548,0.253-1.079,0.539-1.592,0.857
	c-0.258,0.163-0.501,0.349-0.725,0.556c-0.236,0.21-0.401,0.488-0.471,0.796c0,0.075-0.028-0.028,0.033-0.203
	c0.089-0.227,0.227-0.431,0.405-0.598c0.314-0.282,0.655-0.533,1.017-0.749c-0.323,0.185-0.626,0.402-0.904,0.65
	c-0.329,0.247-0.542,0.618-0.589,1.027c0.07,0.392,0.196,0.773,0.372,1.13c0.16,0.353,0.339,0.702,0.527,1.041
	c0.741,1.266,1.559,2.485,2.449,3.65l-0.141-0.207l0.278,0.367l0.099-0.099c-2.082-1.86-1.281-1.036-3.16-2.769
	c-1.069-0.942,0.358,0.367-1.253-1.05c-0.471-0.396-0.174-0.174-0.094-0.108c-1.545-1.375-1.21-1.046-1.884-1.639l0,0
	c-0.317-0.17-0.546-0.469-0.626-0.819c0.021,0.169,0.083,0.33,0.179,0.471c-0.269-0.353-0.311-0.829-0.108-1.225
	c0.203-0.383,0.476-0.725,0.805-1.008c0.658-0.542,1.37-1.016,2.124-1.413l0.057-0.033l-0.028-0.052
	c-0.471-0.975-0.942-1.912-1.413-2.774l-0.127,0.099l0.122,0.099c-0.036-0.038-0.073-0.074-0.113-0.108l0.108-0.085
	c0.132,0.311,0.711,1.451,0.942,1.945l-0.942-1.936l-0.075,0.057l4.116,3.499h0.024h0.028c1.272-0.471,2.463-0.914,3.471-1.314
	c-0.862,0.381,1.413-0.504-0.471,0.283c-0.495,0.151-1.366,0.523-2.355,0.89c0.65-0.203,1.832-0.645,3.047-1.154
	c1.123-0.434,2.201-0.978,3.217-1.625l0.165-0.118l-0.174-0.118c-0.269-0.176-0.524-0.373-0.763-0.589l-0.377-0.259
	c-0.372-0.301-1.22-1.159-0.608-0.593c-0.422-0.378-0.808-0.795-1.154-1.243c-0.35-0.435-0.623-0.927-0.805-1.455
	c0.252,0.757,0.663,1.45,1.206,2.035c0.463,0.533,0.981,1.016,1.545,1.441c0.377,0.316,0.089,0.108-0.198-0.122
	c-0.287-0.231-0.575-0.471-0.264-0.174c-0.46-0.419-0.898-0.861-1.314-1.323c-0.127-0.137-0.235-0.283-0.419-0.504
	c-0.25-0.343-0.453-0.719-0.603-1.116c0.104,0.245,0.108,0.231,0.061,0.071c-0.024-0.085-0.071-0.198-0.108-0.339
	s-0.061-0.301-0.071-0.471c-0.022-0.484,0.11-0.962,0.377-1.366c0.267-0.465,0.583-0.901,0.942-1.3
	c0.405-0.471,0.834-0.881,1.079-1.111c0.471-0.504,1.323-1.257,2.143-2.232c0.105-0.128,0.2-0.266,0.283-0.41
	c0.045-0.08,0.078-0.165,0.099-0.254c0.032-0.113,0.017-0.233-0.042-0.334c-0.128-0.158-0.324-0.245-0.527-0.235H60.98l-0.25,0.028
	c-0.599,0.105-1.191,0.242-1.776,0.41c0.41-0.099,0.942-0.24,1.361-0.316c0.229-0.059,0.466-0.079,0.702-0.057
	c-0.532,0.045-1.057,0.144-1.568,0.297c-0.447,0.122-0.782,0.221-0.876,0.264c0.942-0.226,1.484-0.377,1.832-0.443
	c0.349-0.066,0.471-0.085,0.631-0.108h0.245c0.132-0.006,0.262,0.03,0.372,0.104c0.102,0.069,0.16,0.188,0.151,0.311
	c-0.017,0.134-0.064,0.263-0.137,0.377c-0.194,0.302-0.422,0.582-0.678,0.834c-0.617,0.612-1.352,1.229-2.59,2.543
	c0.185-0.194,0.352-0.403,0.499-0.626l1.356-1.295c0.245-0.24,0.499-0.471,0.749-0.763c0.268-0.263,0.492-0.566,0.664-0.9
	c0.042-0.088,0.052-0.188,0.028-0.283c-0.034-0.092-0.112-0.161-0.207-0.184c-0.093-0.03-0.19-0.045-0.287-0.042
	c-0.097-0.014-0.195-0.014-0.292,0c-0.386,0.041-0.767,0.115-1.14,0.221c-0.749,0.193-1.484,0.4-2.19,0.537
	c-0.31,0.067-0.625,0.111-0.942,0.132c-0.264,0-0.716,0.113-2.086,0.217l0.589-0.052l0.584-0.08
	c0.391-0.047,0.777-0.122,1.163-0.198c-0.636,0.127-0.998,0.17-1.206,0.193c-0.106,0.018-0.213,0.029-0.32,0.033
	c-0.099,0-0.137,0-1.201,0.071l0.843-0.033c-0.832,0.083-1.67,0.107-2.506,0.071c0.367,0.028,0.739,0,1.107,0.038
	c-0.353,0-0.857,0.038-1.272,0c-0.252-0.003-0.504-0.02-0.754-0.052c-0.188,0-0.245,0-0.245,0l-1.295-0.137
	c0.471,0.052,0.824,0.085,0.838,0.099c-1.573-0.151-1.747-0.221-1.785-0.198c-0.038,0.024,0.075,0.038-0.895-0.118
	c0.306,0.061-0.25,0-0.942-0.17c-0.306-0.113-0.621-0.2-0.942-0.259l-1.973-0.579l-0.028,0.226l1.648-0.047l1.107-0.028l-1.083-0.25
	l-0.188-0.042l0,0c-0.867-0.174-1.738-0.325-2.614-0.471c0.532,0.085-0.047,0-0.819-0.085h0.132
	c-0.838-0.094,0.984,0.198-1.521-0.137c-0.438-0.061-0.881-0.108-1.323-0.16c0.231,0.028,0,0-0.113,0
	c-0.471-0.047-0.914-0.099-1.371-0.132c-2.135-0.158-4.279-0.158-6.415,0c0.44-0.075,0.887-0.1,1.333-0.075
	c-0.471,0.024-1.201,0.075-1.578,0.108h0.132c-0.791,0.055-1.572,0.213-2.322,0.471c-0.207,0.073-0.39,0.2-0.532,0.367
	c-0.08,0.113-0.096,0.259-0.042,0.386c0.05,0.108,0.128,0.2,0.226,0.268c0.346,0.22,0.734,0.368,1.14,0.433
	c-0.204-0.047-0.405-0.105-0.603-0.174c-0.324-0.076-0.602-0.282-0.768-0.57c-0.04-0.161,0.015-0.33,0.141-0.438
	c0.062-0.054,0.13-0.102,0.203-0.141c0.042,0,0.052,0,0,0c-0.086,0.05-0.164,0.114-0.231,0.188
	c-0.085,0.086-0.126,0.205-0.113,0.325c0.029,0.127,0.105,0.237,0.212,0.311c0.215,0.154,0.456,0.268,0.711,0.334
	c0.486,0.14,0.987,0.22,1.493,0.235c-0.108,0.033-1.681-0.122-0.094,0.038c0.207,0,1.691-0.057,0.989-0.047
	c1.786,0.003,3.568,0.161,5.327,0.471c0.471,0.066-0.25-0.052-0.471-0.089h-0.118c-0.669-0.125-1.346-0.209-2.025-0.254
	c0.505,0.002,1.009,0.046,1.507,0.132c0.904,0.108,2.025,0.311,2.826,0.471c-0.862-0.188-1.733-0.353-2.609-0.471
	c1.604,0.175,3.189,0.49,4.738,0.942c1.62,0.471,3.325,1.13,4.559,2.317l0.038-0.047c-1.439-0.815-2.982-1.431-4.587-1.832
	c1.272,0.311,2.284,0.725,2.152,0.636c-0.804-0.308-1.627-0.566-2.463-0.772c-0.287-0.085-0.584-0.141-0.97-0.226
	s-0.871-0.188-1.554-0.287l0.231,0.038c-1.417-0.237-2.849-0.377-4.286-0.419c0.622,0.052,2.025,0.099,2.053,0.165
	c-0.575-0.075-1.154-0.085-1.733-0.122c-0.579-0.038-1.154-0.042-1.733-0.047c1.598,0.015,3.195,0.123,4.78,0.325
	c0.471,0.08,0,0-0.537-0.071c-0.308-0.017-0.613-0.059-0.914-0.127c0.805,0.089,1.455,0.151,1.997,0.254
	c0.542,0.104,0.984,0.16,1.371,0.254s0.716,0.165,1.05,0.254l1.041,0.306c0.942,0.297-1.361-0.367-1.959-0.447
	c-2.675-0.576-5.414-0.801-8.148-0.669l-1.766,0.118c-0.791,0.057-1.017,0.061-1.413,0.08c-0.79,0.045-1.576,0.138-2.355,0.278
	l0.852-0.108l-1.333,0.212l1.884-0.25l1.79-0.151c-0.532,0.071-1.22,0.132-1.987,0.217l-2.458,0.344l0,0l-0.344-1.093l0,0l0,0
	c-0.487,0.001-0.972,0.047-1.451,0.137c0.398-0.071,0.801-0.112,1.206-0.122c-0.402,0.017-0.802,0.064-1.196,0.141
	c-0.402,0.053-0.782,0.216-1.097,0.471c-0.143,0.149-0.201,0.359-0.155,0.56l0.057,0.141c0,0.042,0.024,0.118,0.094,0.108
	s0.198,0,0.297,0c0.396,0,0.81-0.061,1.173-0.033v-0.024l-2.713,0.471h0.033c-0.282-0.331-0.35-0.794-0.174-1.192
	c0.189-0.355,0.473-0.65,0.819-0.852c0.495-0.301-0.033-0.061-0.504,0.381c-0.21,0.206-0.354,0.47-0.414,0.758
	c-0.038,0.221,0,0.33-0.028,0.188c0.017-0.36,0.177-0.699,0.443-0.942c0.124-0.127,0.262-0.241,0.41-0.339
	c0.135-0.099,0.278-0.186,0.429-0.259c0.394-0.216,0.811-0.386,1.243-0.509c-0.626,0.132,3.198-0.942,0.523-0.203
	c2.586-0.82,5.253-1.355,7.955-1.597c2.718-0.224,5.452-0.205,8.167,0.057c-0.259-0.028-0.259-0.033-0.038,0
	c-1.785-0.179-4.418-0.231-5.407-0.217c1.168-0.033,2.779,0.028,3.118,0.052c-0.301,0-0.749-0.033-1.126-0.042
	c-0.377-0.009-0.678,0-0.692-0.028c1.535,0,2.397,0.075,3.476,0.165l-0.584-0.042c1.677,0.132,2.138,0.203,2.623,0.264l2.774,0.32
	c1.295,0.122,0,0-0.033-0.028c0.843,0.108,3.546,0.344,4.418,0.396c-0.721-0.042-1.436-0.104-2.157-0.165
	c1.512,0.141,2.939,0.226,3.989,0.268h-0.513c1.196,0.066,2.746,0.071,3.358,0.057h0.339c-0.716,0.042-2.863,0-3.226,0
	c0.207,0,2.355,0.066,3.325,0c-2.096,0.052-3.156-0.024-4.135-0.066s-1.884-0.122-3.645-0.283l0.603,0.061
	c-2.209-0.174-4.455-0.504-6.386-0.688c0.542,0.042,0.659,0.057,0.405,0c-2.147-0.214-4.305-0.287-6.462-0.217
	c-2.306,0.071-4.601,0.36-6.853,0.862c-0.471,0.094-0.942,0.203-1.413,0.32l-0.089,0.042c-2.294,0.645-0.504,0.104-1.983,0.542
	l0.579-0.17c-0.664,0.188-1.088,0.339-1.375,0.438l-0.527,0.231c-0.104,0.047-0.17,0.099-0.301,0.17
	c-0.225,0.117-0.436,0.258-0.631,0.419c0.46-0.337,0.966-0.607,1.502-0.801c0.542-0.184,0.914-0.301,0.589-0.179
	c-0.713,0.203-1.387,0.521-1.997,0.942c-0.325,0.233-0.567,0.562-0.692,0.942c-0.093,0.383,0.003,0.788,0.259,1.088v0.024h0.033
	c1.234-0.226,2.27-0.414,2.713-0.471l0.16-0.024l-0.108-0.113c-0.02-0.019-0.044-0.034-0.071-0.042h-0.278
	c-0.381,0-0.772,0.047-1.154,0.057h-0.075c0.008,0.016,0.008,0.036,0,0.052l-0.024,0.024l0,0l0.075-0.038l0,0l0,0l-0.047-0.122
	c-0.035-0.078-0.05-0.164-0.042-0.25c0.03-0.17,0.134-0.318,0.283-0.405c0.34-0.198,0.716-0.325,1.107-0.372
	c0.402-0.063,0.808-0.098,1.215-0.104l-0.094-0.066c0.113,0.363,0.231,0.725,0.349,1.093l0.028,0.085h0.085
	c3.231-0.57,6.514-0.787,9.791-0.645c0.589,0.024-0.363-0.028-0.146-0.024l1.611,0.113c0.608,0.071,1.272,0.122,1.884,0.212
	s1.154,0.165,1.549,0.254l0.471,0.104l0.179,0.047c0.805,0.155,1.14,0.254,1.356,0.292c1.212,0.344,2.392,0.791,3.528,1.338
	c-0.301-0.151-0.608-0.297-0.942-0.429l0.104,0.042c0.44,0.186,0.87,0.396,1.286,0.631l-0.052-0.028
	c0.118,0.066,0.245,0.137,0.363,0.212l1.074,0.683l-0.914-0.881c-1.257-1.206-3-1.86-4.672-2.355
	c-1.598-0.455-3.227-0.795-4.875-1.017c1.799,0.268-0.471,0,0.391,0.108c-1.221-0.205-2.455-0.331-3.692-0.377
	c-0.391,0-0.791,0-1.201,0c-0.399,0.017-0.799,0.006-1.196-0.033c-0.392-0.036-0.778-0.121-1.149-0.254
	c-0.173-0.053-0.334-0.141-0.471-0.259c-0.089-0.113-0.089-0.137,0-0.254c0,0,0.113-0.137-0.089,0.047
	c0.197-0.181,0.44-0.307,0.702-0.363c0.281-0.083,0.567-0.148,0.857-0.193l-0.235,0.033c1.582-0.267,3.186-0.375,4.79-0.32
	c1.54,0,2.939,0.132,3.999,0.207c-0.483-0.016-0.965-0.067-1.441-0.151c2.379,0.099,4.75,0.334,7.102,0.702l-0.235-0.052
	c0.429,0.071,0.904,0.16,1.371,0.259l0.024-0.32l-0.881,0.028l-0.099,0.033l-0.669,0.028l-0.942,0.033l0.895,0.25l1.955,0.546
	c0.688,0.146,1.413,0.325,2.072,0.471c0.325,0,1.3,0.231,2.454,0.334c0.575,0.08,1.196,0.08,1.79,0.118
	c0.593,0.038,1.159,0,1.634-0.033c0.73-0.033-1.582,0.061,0.471-0.066c0.182,0.011,0.364,0.011,0.546,0l0.909-0.113
	c0.641-0.099,1.262-0.217,1.347-0.203c0.584-0.132,1.159-0.283,1.728-0.443l0.391-0.066c0.321-0.106,0.648-0.193,0.98-0.259
	c0.148-0.028,0.297-0.047,0.447-0.057c0.136-0.004,0.272,0.007,0.405,0.033c0.061,0,0.099,0.042,0.089,0.052s0,0,0,0.066
	c-0.062,0.15-0.147,0.289-0.25,0.414c-0.296,0.363-0.611,0.71-0.942,1.041c0.089-0.08,0.259-0.25,0.184-0.165
	c-0.513,0.504-1.714,1.681-0.801,0.754c-0.697,0.663-1.359,1.363-1.983,2.096c-0.214,0.265-0.412,0.541-0.593,0.829
	c-0.071,0.137-0.028,0.047,0.25-0.334c0.15-0.233,0.319-0.453,0.504-0.659c0.325-0.381,0.749-0.819,1.003-1.074
	c0,0.042-0.353,0.386-0.697,0.782c-0.296,0.328-0.566,0.679-0.805,1.05c-0.033,0.047-0.179,0.24-0.273,0.396
	c-0.041,0.079-0.077,0.161-0.108,0.245c-0.149,0.262-0.253,0.547-0.306,0.843c-0.041,0.3-0.03,0.604,0.033,0.9
	c0.131,0.556,0.369,1.081,0.702,1.545c0.571,0.786,1.233,1.5,1.973,2.129c0.085,0.052,0.386,0.311,1.027,0.768v0.052l0.174,0.118
	v-0.405c-0.595,0.394-1.226,0.732-1.884,1.008c0.344-0.137,0.688-0.273,1.022-0.429c-1.006,0.486-2.037,0.917-3.09,1.29
	c-0.942,0.363-1.884,0.688-2.826,1.031l0.245,0.042l-0.17-0.146c-0.4-0.264-2.468-2.086-3.966-3.334l-0.9-0.744l0.546,1.027
	l0.424,0.787l-0.4-0.801l-0.471-0.909l0.782,0.692l0.598,0.513l-0.603-0.513l-0.763-0.65l0.471,0.89
	c0.622,1.206,1.027,1.987,1.413,2.76l0.075-0.25c-0.429,0.264-0.867,0.509-1.338,0.852c-0.602,0.387-1.119,0.892-1.521,1.484
	c0.381-0.579,0.874-1.075,1.451-1.46c0.443-0.325,0.862-0.575,1.413-0.895l-0.085,0.278c-0.316-0.593-0.744-1.413-1.446-2.75
	l-0.57-1.083l0.942,0.787l0.207,0.17l-0.207-0.174l-0.942-0.791l0.56,1.097c0.509,0.98,0.975,1.884,1.413,2.76l0.094-0.32
	c-0.873,0.465-1.679,1.044-2.397,1.724c-0.39,0.36-0.654,0.835-0.754,1.356c-0.038,0.293,0.025,0.591,0.179,0.843
	c0.153,0.246,0.368,0.449,0.622,0.589l-0.052-0.033l1.413,1.229c-0.184-0.179-0.895-0.819-0.184-0.212
	c0.537,0.513,2.694,2.355,2.251,2.025c0.895,0.772,1.069,0.881,1.62,1.356l1.29,1.163l0.283-0.268
	c-0.447-0.589-0.876-1.196-1.29-1.809l0.061,0.104c-0.478-0.672-0.921-1.369-1.328-2.086c-0.199-0.348-0.38-0.707-0.542-1.074
	c-0.071-0.184-0.16-0.363-0.212-0.551c-0.028-0.089-0.061-0.188-0.085-0.273c-0.014-0.075-0.014-0.151,0-0.226
	c0.106-0.343,0.327-0.639,0.626-0.838c0.306-0.238,0.63-0.45,0.97-0.636c0.683-0.377,1.413-0.706,2.115-1.017
	c1.441-0.626,2.915-1.201,4.389-1.846c1.543-0.619,3.013-1.409,4.38-2.355l-0.118,0.071c0.236-0.169,0.463-0.351,0.678-0.546
	c0.244-0.204,0.435-0.464,0.556-0.758c-0.057,0.178-0.155,0.339-0.287,0.471c0.064-0.078,0.12-0.162,0.17-0.25
	c0.059-0.093,0.102-0.195,0.127-0.301c0.007-0.067,0.007-0.135,0-0.203c-0.015-0.068-0.044-0.132-0.085-0.188
	c-0.092-0.115-0.217-0.199-0.358-0.24c-0.366-0.112-0.748-0.161-1.13-0.146c-0.372,0-0.739,0.024-1.102,0.057
	c-0.725,0.066-1.446,0.174-2.162,0.297C61.106,65.181,61.517,65.124,61.917,65.021z M60.504,67.824
	c-0.287-0.203-0.565-0.41-0.834-0.626c-0.165-0.132-0.334-0.264-0.509-0.424c0.165,0.151,0.339,0.283,0.509,0.424
	c0.41,0.334,0.744,0.542,0.824,0.626L60.504,67.824z M21.847,57.641c0.124-0.229,0.334-0.399,0.584-0.471
	c0.256-0.096,0.521-0.164,0.791-0.203c-0.273,0.041-0.542,0.111-0.801,0.207c-0.25,0.108-0.391,0.198-0.184,0.094
	c-0.134,0.062-0.25,0.155-0.339,0.273C21.833,57.669,21.824,57.754,21.847,57.641z M59.746,68.332
	c0.226-0.104,0.443-0.217,0.659-0.339c0.113-0.08,0.221-0.165,0.33-0.25l0.066-0.047l-0.071-0.042l-0.141-0.089l0.137,0.094
	l0.061,0.038l-0.057,0.042c-0.311,0.229-0.64,0.433-0.984,0.608V68.332z M50.548,68.634l-0.641-1.286l-0.057-0.104l0.645,1.3
	L50.548,68.634z M55.022,79.221l0.17,0.221L55.022,79.221c-0.655-0.904-0.942-1.248-1.413-2.025L55.022,79.221z M58.668,68.619
	c-0.091,0.027-0.179,0.062-0.264,0.104l-0.584,0.24c-0.443,0.179-0.942,0.377-1.182,0.471c-0.659,0.268,0.254-0.071,0.495-0.151
	c-0.33,0.137-0.551,0.221-1.003,0.396c0.278-0.052,1.21-0.48,2.539-1.046L58.668,68.619z M47.59,56.699l0.358,0.075l-1.305-0.311
	L47.59,56.699z M44.765,55.545c-0.721-0.165-2.604-0.443-3.914-0.593c-0.344,0,0.984,0.165,2.52,0.396
	c1.804,0.287,0.702,0.042,1.427,0.179L44.765,55.545z M48.674,71.662c0.727-0.688,1.549-1.268,2.44-1.724v0.075l-0.575-1.102
	l0.556,1.111l0.028-0.104l-0.17,0.104l0.17-0.104l-0.033,0.108l-0.071-0.132l0.061,0.137l0.038-0.122l-0.193,0.099
	c0.188-0.071-0.226,0.16-0.768,0.499c-0.529,0.321-1.019,0.702-1.46,1.135L48.674,71.662z M31.61,54.735
	c-0.771,0.049-1.53,0.208-2.256,0.471c-0.148,0.057-0.278,0.153-0.377,0.278c-0.059,0.097-0.043,0.222,0.038,0.301
	c0.132,0.151,0.24,0.193,0.184,0.174c0.028,0-0.071-0.052-0.174-0.179c-0.06-0.061-0.083-0.148-0.061-0.231
	c0.045-0.103,0.125-0.186,0.226-0.235c0.43-0.212,0.891-0.355,1.366-0.424C30.88,54.815,31.139,54.782,31.61,54.735z M31.224,54.735
	c0.585-0.101,1.177-0.157,1.771-0.17c-0.113,0-0.038,0.033,0.301,0.033h1.884c-0.735,0-1.135-0.038-1.592-0.024
	c-0.646-0.002-1.293,0.029-1.936,0.094L31.224,54.735z M33.673,54.641c0.259,0,0.523,0,0.782,0c0.803-0.05,1.609-0.041,2.411,0.028
	c-0.801-0.033-1.606-0.042-2.411-0.028H33.673z M39.688,57.17l-0.772-0.184C39.678,57.151,39.768,57.18,39.688,57.17
	c0.217,0.047,0.429,0.099,0.641,0.165C38.642,56.93,39.513,57.123,39.688,57.17z M32.081,54.716
	c-0.751,0.051-1.497,0.168-2.228,0.349C30.583,54.876,31.329,54.759,32.081,54.716z M39.169,57.071
	c-0.471-0.099-1.323-0.254-2.02-0.353s-1.234-0.165-1.055-0.146c0.108,0,0.73,0.071,1.413,0.184c0.683,0.113,1.375,0.25,1.677,0.316
	H39.169z M30.033,54.194l-0.692,0.108c0.471-0.061,0.942-0.137,1.413-0.179c-0.217,0.019-0.462,0.042-0.706,0.071H30.033z
	 M22.841,58.155c-0.278,0-0.556,0.038-0.834,0.042h-0.165c0-0.042-0.047-0.104-0.071-0.155l0.057,0.137
	c0,0.038,0.075,0.024,0.122,0.028h0.297L22.841,58.155z M35.774,57.283c-0.075,0-0.038,0,0.085,0
	c0.24,0.024,0.443,0.057,0.542,0.071l-0.542-0.071c-0.617-0.038-1.54-0.094-1.964-0.099l1.578,0.104
	c-1.413-0.122-4.611-0.122-3.692-0.061c-0.598,0-2.652,0.094-1.945,0.047c0.81-0.024,1.983-0.127,3.113-0.099
	c1.13,0.028,2.204,0.066,2.826,0.089c0.158-0.001,0.315,0.01,0.471,0.033c-0.057,0.019-0.24-0.009-0.457-0.014H35.774z
	 M36.155,56.68l-0.942-0.113c-0.246-0.007-0.49-0.039-0.73-0.094c1.22,0.113,0.433,0.061,0.73,0.094
	c0.297,0.033,0.636,0.066,0.956,0.132L36.155,56.68z M36.292,56.742c-0.942-0.132-1.912-0.235-2.873-0.287
	c0.325,0.024,0.645,0.042,0.942,0.075c-0.636-0.057-1.276-0.085-1.917-0.094c0.292,0.019,2.218,0.094,3.876,0.306H36.292z
	 M31.789,56.468c-0.132,0-0.264,0-0.4,0c0.203,0,0.41,0,0.612,0h-0.122c-0.542,0.024-1.085-0.01-1.62-0.099
	c-0.268-0.045-0.531-0.115-0.787-0.207c-0.128-0.05-0.251-0.111-0.367-0.184c-0.123-0.071-0.218-0.182-0.268-0.316
	c0.104,0.273,0.381,0.381,0.617,0.471c0.247,0.093,0.503,0.162,0.763,0.207c0.523,0.1,1.055,0.143,1.587,0.127H31.789z
	 M54.867,57.038c0.603-0.094-0.113-0.047-1.055,0c-0.471,0-1.003,0.024-1.451,0c-0.447-0.024-0.819-0.047-0.975-0.066
	c-0.071,0-0.41,0-0.339,0.024c0.164,0.036,0.331,0.053,0.499,0.052l0.641,0.033c0.329,0.018,0.66,0.018,0.989,0
	c-0.481,0.016-0.962,0.007-1.441-0.028c-0.213-0.004-0.425-0.02-0.636-0.047c-0.292-0.038-0.438-0.057-1.253-0.099
	c1.032,0.125,2.069,0.195,3.108,0.212c-0.518,0-1.031-0.028-1.545-0.042c1.162,0.092,2.33,0.079,3.49-0.038H54.867z M57.057,63.933
	c0.274,0.58,0.634,1.116,1.069,1.587c-0.461-0.497-0.836-1.067-1.111-1.686L57.057,63.933z M57.999,69.882
	c-0.132,0.047,2.261-0.994,2.826-1.239c-1.163,0.556-2.496,1.097-2.802,1.243L57.999,69.882z M60.189,59.907
	c-0.547,0.527-1.022,1.124-1.413,1.776c0.209-0.39,0.464-0.753,0.758-1.083c0.395-0.45,0.822-0.872,1.276-1.262
	c0.283-0.24-0.358,0.311-0.598,0.57L60.189,59.907z M68.101,53.539c0.224,0.095,0.421,0.244,0.575,0.433
	c-0.157-0.206-0.365-0.368-0.603-0.471L68.101,53.539z M65.746,54.01c0.292-0.197,0.609-0.355,0.942-0.471
	c0.363-0.137,0.65-0.132,0.419-0.104c-0.472,0.103-0.92,0.296-1.319,0.57L65.746,54.01z M62.694,53.106
	c0.264-0.104,0.537-0.193,0.805-0.287c-0.297,0.104-0.593,0.212-0.885,0.33L62.694,53.106z M63.57,52.776l0.471-0.146
	c0.686-0.213,1.389-0.371,2.101-0.471c-0.398,0.045-0.793,0.114-1.182,0.207c0.54-0.135,1.092-0.218,1.648-0.25
	c-0.805,0.075-0.212,0.028-0.306,0.047c-0.626,0.061-1.245,0.178-1.851,0.349l-0.41,0.104l-0.334,0.108L63.57,52.776z
	 M70.465,54.245l-0.631,0.16l-0.127,0.028L70.465,54.245l0.353-0.089v0.028c-0.127-0.16-0.254-0.372-0.424-0.556
	c-0.047-0.047,0,0,0.08,0.104l0.33,0.471l0.024-0.052l-0.942,0.217l0.942-0.221l-0.024,0.057c-0.241-0.369-0.531-0.703-0.862-0.994
	c0.151,0.13,0.291,0.272,0.419,0.424c-0.283-0.325-0.611-0.607-0.975-0.838c-0.175-0.106-0.356-0.202-0.542-0.287
	c0.062,0.021,0.122,0.048,0.179,0.08c0.525,0.251,0.992,0.609,1.371,1.05c0.094,0.1,0.181,0.207,0.259,0.32l0.17,0.231l0,0
	L70.465,54.245z M62.539,53.148c-0.084,0.025-0.166,0.057-0.245,0.094l-0.664,0.273c-0.867,0.386,0.122-0.061,0.914-0.367
	L62.539,53.148z M64.154,66.882c0.377-0.292-0.504,0.367-1.446,0.871l0.471-0.306c0.107-0.052,0.211-0.11,0.311-0.174
	c0.179-0.108,0.41-0.259,0.641-0.424c0.348-0.24,0.665-0.524,0.942-0.843c0.132-0.137,0.066-0.042-0.108,0.155
	c-0.251,0.259-0.52,0.5-0.805,0.721H64.154z M59.082,66.444c0.508,0.461,1.048,0.886,1.615,1.272l0,0
	c-0.457,0.32-0.95,0.586-1.469,0.791c-0.25,0.141-0.141,0.099,0.165-0.042c0.46-0.202,0.899-0.45,1.309-0.739l0,0l0,0
	c-0.565-0.392-1.105-0.82-1.615-1.281H59.082z M58.814,66.269c-0.203-0.188-0.353-0.353-0.471-0.495
	c-0.199-0.213-0.383-0.44-0.551-0.678c-0.075-0.108-0.17-0.226-0.278-0.405l-0.198-0.301l-0.226-0.424
	c0.187,0.399,0.419,0.775,0.692,1.121c-0.066-0.047,0.052,0.137,0.56,0.688c0.113,0.132,0.25,0.292,0.476,0.495H58.814z
	 M52.041,76.951l0.725,0.683l1.163,1.022L52.041,76.951z M56.28,70.729c-0.122,0.033,1.517-0.659,1.884-0.791
	c-0.113,0.024-1.215,0.471-2.091,0.857l-0.57,0.245l0.57-0.245c0.33-0.137,0.108-0.028,0.108-0.024l-0.429,0.193l1.21-0.509
	L56.28,70.729z M64.955,56.511c0.904-0.551,1.022-0.603,1.653-0.942C66.406,55.682,65.572,56.139,64.955,56.511z M53.148,76.541
	c-0.942-1.526,0.41,0.758-0.198-0.24c0.155,0.268,0.325,0.532,0.495,0.791c-0.236-0.347-0.45-0.709-0.64-1.083l-0.414-0.801
	c0.113,0.207,0.217,0.419,0.339,0.626c0.122,0.207,0,0-0.155-0.32c-0.136-0.255-0.259-0.518-0.367-0.787
	C52.521,75.51,53.525,77.149,53.148,76.541L53.148,76.541z M66.415,55.687c0.471-0.273,0.805-0.433,1.031-0.542l0.089-0.042
	l-0.057-0.075c-0.026-0.024-0.059-0.038-0.094-0.042h-0.033H67.3h-0.089l-0.155,0.033l-0.268,0.061l-0.73,0.174l0.824-0.207
	l0.273-0.066h0.122h0.066h0.061c0,0,0.089,0,0.108,0.047l0.057,0.099l-0.094,0.042C67.211,55.286,66.957,55.395,66.415,55.687z
	 M59.916,69.302l-0.104,0.052l-1.333,0.556l0.099-0.047L59.916,69.302z"/>
<path fill="#5E2A2B" d="M66.415,55.352l-0.297,0.071l-0.132,0.028h-0.066c-0.024,0.009-0.051,0.009-0.075,0l-0.024-0.024
	c-0.083-0.106-0.172-0.207-0.268-0.301l0.16,0.17l0.075,0.085l0.038,0.047c0,0,0,0,0.028,0.028c0.021,0.007,0.045,0.007,0.066,0
	C66.095,55.437,66.246,55.39,66.415,55.352z"/>
<path fill="#5E2A2B" d="M57.128,61.932c0.044-0.122,0.097-0.24,0.16-0.353L57.128,61.932z"/>
<path fill="#5E2A2B" d="M59.228,59.257l0.094-0.089l0.075-0.075L59.228,59.257z"/>
<path fill="#5E2A2B" d="M49.813,55.065c0.739,0.038-0.721-0.024-1.309-0.061L49.813,55.065z"/>
<path fill="#5E2A2B" d="M45.118,54.716c0.353,0.038,0.862,0.089,1.474,0.141C46.21,54.815,45.787,54.787,45.118,54.716z"/>
<path fill="#5E2A2B" d="M48.947,55.013c-0.918-0.042-1.71-0.104-2.355-0.155C47.19,54.905,47.703,54.942,48.947,55.013z"/>
<path fill="#5E2A2B" d="M32.496,54.005c0.367-0.028,0.904-0.033,1.352-0.057c0.447-0.024,0.801,0,0.801,0
	c-3.09,0.085,0.631,0,0.885,0C33.612,53.958,33.593,53.968,32.496,54.005z"/>
<path fill="#5E2A2B" d="M28.427,54.476l0.848-0.141L28.427,54.476z"/>
<path fill="#5E2A2B" d="M27.292,54.702c-1.05,0.221-1.413,0.311-1.884,0.419c1.253-0.334,2.072-0.471,3.028-0.645
	C28.051,54.53,27.669,54.606,27.292,54.702z"/>
<path fill="#5E2A2B" d="M39.98,57.754l-0.838-0.184c0.589,0.118,1.177,0.235,1.761,0.381C41.604,58.136,40.337,57.811,39.98,57.754z
	"/>
<path fill="#5E2A2B" d="M45.584,59.845l-0.33-0.287l-0.231-0.151l-0.212-0.132c-0.075-0.033-0.066-0.047-0.381-0.221h0.094
	C44.903,59.282,45.258,59.547,45.584,59.845z"/>
<path fill="#5E2A2B" d="M45.382,59.869l-0.367-0.193c0.141,0.066,0.278,0.141,0.419,0.217L45.382,59.869z"/>
<path fill="#5E2A2B" d="M39.287,57.302c0.316,0.089,0.636,0.165,0.942,0.264C39.071,57.279,39.061,57.255,39.287,57.302z"/>
<path fill="#5E2A2B" d="M33.88,56.61c0.283,0,0.56,0.047,0.838,0.071c-0.869-0.083-1.741-0.119-2.614-0.108
	C32.694,56.553,33.287,56.577,33.88,56.61z"/>
<path fill="#5E2A2B" d="M29.863,54.815l0.231-0.066c0.593-0.128,1.194-0.214,1.799-0.259C31.209,54.545,30.53,54.654,29.863,54.815z
	"/>
<path fill="#5E2A2B" d="M48.466,73.654c0.038,0.057-0.061-0.024-0.17-0.226c-0.141-0.29-0.141-0.628,0-0.918
	c0.349-0.614,0.832-1.142,1.413-1.545c-0.387,0.31-0.747,0.654-1.074,1.027c-0.211,0.242-0.355,0.537-0.414,0.852
	C48.174,73.137,48.264,73.436,48.466,73.654z"/>
<path fill="#5E2A2B" d="M66.095,55.71c-0.807,0.443-1.592,0.914-2.355,1.413c0.895-0.575,1.031-0.641,1.159-0.721
	S65.148,56.228,66.095,55.71z"/>
<path fill="#5E2A2B" d="M12.583,48.113c0,0,5.967-11.93,20.567-17.11c0,0-13.818,6.904-17.897,17.581L12.583,48.113z"/>
<path fill="#5E2A2B" d="M13.963,48.358H13.86H13.963z"/>
<path fill="#5E2A2B" d="M12.583,48.113l1.276,0.226L12.583,48.113z"/>
<path fill="#5E2A2B" d="M14.02,48.377l-0.443-0.085L14.02,48.377z"/>
<polygon fill="#5E2A2B" points="13.86,48.34 13.888,48.344 14.119,48.387 "/>
<path fill="#5E2A2B" d="M29.632,32.873c-0.042,0-0.071,0.028-0.057,0H29.632z"/>
<path fill="#5E2A2B" d="M30.565,32.392l0.188-0.108C30.697,32.322,30.668,32.345,30.565,32.392z"/>
<path fill="#5E2A2B" d="M28.846,33.4l0.151-0.104L28.846,33.4z"/>
<path fill="#5E2A2B" d="M20.072,40.931l-0.33,0.325C19.838,41.135,19.949,41.026,20.072,40.931z"/>
<path fill="#5E2A2B" d="M31.342,31.498l-0.038,0.028C31.257,31.54,31.229,31.54,31.342,31.498z"/>
<path fill="#5E2A2B" d="M30.909,32.477c0,0,0,0,0-0.033l0.047-0.024L30.909,32.477z"/>
<path fill="#5E2A2B" d="M28.248,33.834L28.248,33.834l-0.127,0.08C28.16,33.883,28.203,33.856,28.248,33.834z"/>
<path fill="#5E2A2B" d="M29.981,32.053l-0.179,0.052C29.929,32.049,29.995,32.035,29.981,32.053z"/>
<path fill="#5E2A2B" d="M30.777,32.27L30.777,32.27L30.777,32.27z"/>
<path fill="#5E2A2B" d="M29.623,33.254l0.207-0.122C29.764,33.178,29.695,33.219,29.623,33.254z"/>
<path fill="#5E2A2B" d="M20.072,40.931l0.108-0.099C20.147,40.868,20.111,40.901,20.072,40.931z"/>
<path fill="#5E2A2B" d="M15.155,48.561h0.099l0,0l0.047-0.094l-0.042,0.099l0,0L15.155,48.561z"/>
<path fill="#5E2A2B" d="M12.772,47.803l-0.028,0.052L12.772,47.803z"/>
<path fill="#5E2A2B" d="M15.965,43.258l0.052-0.057L15.965,43.258z"/>
<path fill="#5E2A2B" d="M19.309,39.349c-0.254,0.264-0.551,0.499-0.777,0.725l0.085-0.071l-0.226,0.231l0,0
	c-0.367,0.381-0.805,0.871-0.942,0.994l0.057-0.028c-0.132,0.132-0.264,0.264-0.386,0.405l0.221-0.231
	c-0.41,0.471-1.046,1.201-1.13,1.305l0.042-0.042l-0.188,0.226l0.061-0.057c-0.579,0.754-0.749,0.942-1.371,1.809
	c-0.165,0.235,0.094-0.127,0.104-0.127c-0.089,0.132-0.311,0.429-0.358,0.471c0.057-0.061,0.316-0.424,0.122-0.141
	c-0.146,0.188,0.108-0.127-0.146,0.212l-0.108,0.127c-0.127,0.198,0,0.047-0.226,0.353c-0.226,0.306,0.278-0.438-0.104,0.132
	c-0.193,0.283-0.381,0.612-0.735,1.177c-0.297,0.471,0.155-0.259-0.25,0.424c0.089-0.146,0.174-0.292,0.268-0.433l-0.203,0.339
	l-0.264,0.433c0.377-0.641-0.32,0.565,0-0.033l-0.127,0.226c0-0.028,0-0.038,0,0l-0.165,0.297c0.099-0.184,0.349-0.622,0.235-0.419
	l-0.245,0.433c0.066-0.118-0.024,0.042,0,0c0.235-0.429,0.495-0.838,0.758-1.248c-0.033,0.047-0.146,0.221-0.108,0.155
	c0.212-0.316,0.165-0.24,0.377-0.57l-0.089,0.132l0,0c-0.032,0.054-0.066,0.106-0.104,0.155l0.334-0.509
	c0.273-0.386,0.052-0.085,0.108-0.17l0.631-0.885c-0.042,0.048-0.081,0.098-0.118,0.151c0.203-0.301,0.41-0.551,0.537-0.716
	l-0.057,0.057c0.21-0.314,0.443-0.611,0.697-0.89l-0.038,0.038c0.127-0.165,0.32-0.41,0.471-0.556
	c0.018-0.038,0.042-0.073,0.071-0.104c0.08-0.075,0.203-0.254,0.405-0.471c-0.137,0.146-0.113,0.085-0.25,0.245
	c0.174-0.213,0.36-0.415,0.556-0.608c0.151-0.184-0.151,0.151-0.193,0.188c0.419-0.443,0.777-0.984,1.083-1.22l-0.17,0.198
	c0.09-0.072,0.172-0.155,0.245-0.245c-0.029,0.036-0.062,0.067-0.099,0.094c0.495-0.542,0.815-0.805,1.333-1.323
	c-0.047,0.028-0.122,0.099-0.132,0.094c0.24-0.24,0.278-0.184,0.664-0.575l-0.089,0.066c0.065-0.076,0.141-0.141,0.226-0.193
	c-0.028-0.047,0.843-0.791,1.102-1.079c0.345-0.247,0.676-0.511,0.994-0.791c0.235-0.24-0.25,0.165-0.174,0.061
	c0.203-0.17,0.32-0.245,0.631-0.471c0.024,0-0.579,0.518,0.024,0.089l0.071-0.075c-0.061,0.047-0.141,0.113-0.231,0.174
	c-0.184,0.113,0.089-0.094,0.122-0.127l0.645-0.471c0.066,0-0.32,0.273-0.353,0.306C22.94,36.622,23.5,36.108,24,35.798
	l-0.057,0.024c0.641-0.386,0.325-0.297,0.852-0.575c0.259-0.179-0.118,0.028,0.278-0.235c0.113-0.071,0.052,0,0.038,0
	c0.471-0.306,0.193-0.17,0.659-0.438l-0.118,0.028c0.556-0.316,1.187-0.565,1.653-0.857c-0.161,0.059-0.318,0.126-0.471,0.203
	c0.339-0.155,0.73-0.377,1.111-0.598c0.381-0.221,0.782-0.391,1.102-0.532c-0.174,0.118,0.32-0.08-0.066,0.132
	c-0.18,0.055-0.352,0.131-0.513,0.226c0.391-0.08,1.413-0.735,1.564-0.711l0.075-0.075c0.099-0.042,0.349-0.132,0.188-0.042
	c0.224-0.118,0.453-0.225,0.688-0.32c-0.33,0.074-0.647,0.197-0.942,0.363c-0.212,0.061,0.268-0.16,0.08-0.113
	c0.471-0.17,0.268-0.165,0.763-0.349c-0.203,0.132,0.518-0.132,0.504-0.099c0.216-0.091,0.438-0.169,0.664-0.231l1.126-0.471
	l-0.104-0.25l-0.25,0.122l0.259-0.104l0.089,0.212c-0.108,0.028-0.188,0.047-0.184,0.024l0.17-0.057l-0.061-0.151
	c-0.118,0.042-0.226,0.11-0.316,0.198c0.114-0.046,0.226-0.098,0.334-0.155l0.028,0.066c-0.283,0.113-0.028,0.113-0.612,0.306
	c-0.262,0.054-0.519,0.131-0.768,0.231c0.16-0.089,0.08-0.071,0.141-0.122c0.42-0.118,0.831-0.268,1.229-0.447l0,0
	c-0.179,0.094-0.363,0.188-0.537,0.268c-0.224,0.044-0.44,0.127-0.636,0.245l0.447-0.278c-0.495,0.301-0.132,0.042-0.556,0.268
	l0.179-0.066c-0.151,0.096-0.308,0.181-0.471,0.254l0.235-0.085c-0.123,0.088-0.255,0.161-0.396,0.217
	c-0.033,0.028-0.038,0.042-0.038,0.052c-0.088,0.039-0.173,0.085-0.254,0.137c0.099-0.052,0.16-0.094,0.17-0.08
	c-0.608,0.344-0.118,0.118-0.471,0.339c0.061,0-0.033,0.052-0.165,0.137c-0.34,0.128-0.667,0.286-0.98,0.471l0,0l-0.504,0.297
	c0.099-0.057,0,0.028-0.137,0.127h0.024c-0.151,0.108,0.226-0.061-0.25,0.231l-0.259,0.141c0.047,0,0,0,0,0.028l-0.259,0.16
	c-0.344,0.316-0.739,0.471-1.163,0.805c0.122-0.094,0.325-0.226,0.25-0.151c-0.092,0.07-0.188,0.135-0.287,0.193h0.028l-0.857,0.589
	c0.08-0.033,0.546-0.381,0.353-0.207c-0.161,0.14-0.333,0.267-0.513,0.381c0-0.028,0.273-0.245,0-0.047
	c-0.028,0.033-0.278,0.245-0.151,0.16c-0.297,0.193-0.697,0.523-0.965,0.692c-0.075,0.071,0.052-0.024,0.094-0.052v-0.024
	c0.174-0.127,0.052,0,0.367-0.264c0.066,0-0.471,0.391-0.739,0.631l0.471-0.339c-0.739,0.664-1.79,1.484-2.52,2.138
	c0.203-0.207,0.396-0.349,0.339-0.358c-0.293,0.239-0.573,0.494-0.838,0.763l0.038-0.033c-0.212,0.231-0.546,0.504-0.673,0.673
	c0.113-0.08,0.311-0.325,0.344-0.301l-0.551,0.532c0.188-0.151,0.551-0.532,0.763-0.73c0.212-0.198-0.306,0.287-0.254,0.198
	c0.291-0.293,0.606-0.56,0.942-0.801c0.179-0.122-0.207,0.235-0.297,0.33c-0.475,0.383-0.924,0.799-1.342,1.243l-0.24,0.311
	c-0.229,0.161-0.438,0.349-0.622,0.56l0.146-0.122l-0.193,0.226l0.584-0.565c-0.207,0.297-0.725,0.739-1.079,1.135
	c0.06-0.067,0.124-0.13,0.193-0.188c-0.495,0.575-1.069,1.253-1.446,1.7c-0.151,0.207,0.325-0.391,0.268-0.278
	c-0.057,0.113-0.212,0.254-0.297,0.367c-0.053,0.085-0.113,0.165-0.179,0.24c0.104-0.099-0.419,0.608-0.047,0.118
	c-0.33,0.471-0.669,0.97-1.022,1.474l-0.914,1.559c0.033-0.047,0.038-0.047,0,0c0.198-0.344,0.471-0.848,0.612-1.027
	c-0.118,0.231-0.32,0.523-0.349,0.593c0.071-0.113,0.203-0.339,0.212-0.339c-0.155,0.297-0.268,0.471-0.386,0.659l0.057-0.113
	c-0.228,0.328-0.416,0.683-0.56,1.055c-0.108,0.268,0,0,0.024,0c-0.08,0.165-0.316,0.716-0.405,0.89l0.193-0.438l-0.367,0.805
	c0.02-0.033,0.038-0.068,0.052-0.104l-0.089,0.203l0,0l-0.513-0.094h-0.094l0.589,0.099l0,0l0.052-0.108
	c-0.013,0.039-0.029,0.077-0.047,0.113l0,0l-0.608-0.113l0.608,0.118l0,0l0,0c0.16-0.344,0.24-0.495,0.471-1.003l-0.057,0.122
	c0.181-0.436,0.385-0.862,0.612-1.276c-0.057,0.104-0.066,0.132-0.038,0.08c0.466-0.863,0.981-1.7,1.54-2.506l0.207-0.254v-0.028
	c0.297-0.433,0.085-0.075,0.278-0.353c-0.071,0.104-0.061,0.085-0.08,0.104c0.372-0.471,0.17-0.297,0.391-0.556
	c-0.127,0.104-0.391,0.532-0.33,0.386c0.324-0.444,0.681-0.863,1.069-1.253c0.179-0.221,0.363-0.471,0.56-0.688l0.631-0.669
	c0.424-0.438,0.824-0.867,1.177-1.187c0.089-0.094-0.061,0.052-0.033,0c0.297-0.235,0.895-0.89,0.942-0.871
	c0.074-0.074,0.139-0.156,0.193-0.245c0.193-0.146,0.414-0.33,0.65-0.527l-0.174,0.141l0,0l0.25-0.203l0,0
	c0.292-0.25,0.598-0.523,0.909-0.777c0.311-0.254,0.631-0.471,0.914-0.688c-0.33,0.231,0.047-0.094-0.108,0
	c0.232-0.143,0.456-0.301,0.669-0.471c0.278-0.193,0.584-0.424,0.857-0.626c0,0,0.028-0.047-0.042,0l0.33-0.217h-0.052
	c0.565-0.433,1.248-0.801,1.615-1.097c-0.245,0.16-0.25,0.151-0.287,0.151c0.414-0.297,0.824-0.546,1.328-0.857
	c-0.028,0-0.047,0.024-0.052,0c0.14-0.092,0.285-0.177,0.433-0.254v-0.038c0.264-0.146,0.589-0.367,0.909-0.537
	c0.104-0.104,0.772-0.414,1.126-0.636c0.141-0.071-0.32,0.137,0.066-0.075c0.094,0.028,0.509-0.283,0.575-0.231l0.33-0.207h0.094
	c0.043-0.035,0.089-0.066,0.137-0.094l-0.17-0.391c-0.217,0.104-0.414,0.113-0.791,0.283c0.028,0,0.08,0,0.057,0
	c-0.151,0.052-0.499,0.184-0.24,0.061c-0.245,0.094-1.093,0.414-0.702,0.301c0.151-0.076,0.309-0.137,0.471-0.184
	c0,0.038-0.386,0.174-0.471,0.245l-0.104,0.024l-0.047,0.038c-0.471,0.151-0.942,0.363-1.276,0.471
	c-0.078,0.054-0.162,0.099-0.25,0.137v-0.033l-0.471,0.235l0.25-0.061c-0.518,0.264-0.918,0.386-1.352,0.589
	c-0.089,0.094-0.824,0.438-1.159,0.688l0.33-0.17c-0.697,0.386-0.787,0.471-1.441,0.834c0.537-0.33,0.542-0.32,1.319-0.824
	c-0.787,0.471-1.413,0.744-2.096,1.262c0.057,0,0.24-0.132,0.075,0c-0.155,0.061-0.664,0.443-0.579,0.344
	c-0.212,0.155-0.231,0.207-0.363,0.301c-0.25,0.155-0.513,0.292-0.749,0.471h0.028c-0.575,0.471-1.14,0.9-1.705,1.309
	c-0.565,0.41-1.088,0.885-1.644,1.413h0.033c-0.104,0.075-0.193,0.16-0.292,0.24c0.221-0.193-0.08,0.104-0.085,0.127l-0.716,0.645
	C19.078,39.532,19.139,39.514,19.309,39.349z M29.727,32.209l0.203-0.099l0.132-0.061l-0.132,0.061
	C29.811,32.166,29.727,32.209,29.727,32.209z M19.577,41.718l0.235-0.283c-0.047,0.057-0.221,0.259-0.146,0.184
	c-0.047,0.038-0.132,0.141-0.104,0.099H19.577z M29.585,32.562l0.155-0.052l0.104-0.08L29.585,32.562z M26.971,33.923l0.283-0.141
	l0,0l-0.283,0.146V33.923z M23.854,35.647l0.057-0.028L23.854,35.647c-0.217,0.122-0.264,0.226-0.471,0.311
	c0.132-0.13,0.287-0.235,0.457-0.311H23.854z M29.256,32.482c-0.16,0.047-0.318,0.103-0.471,0.17c-0.141,0.071,0.061,0,0.118,0
	l-0.217,0.099C28.785,32.76,28.964,32.595,29.256,32.482z M30.763,32.515l0.066-0.047l-0.264,0.137L30.763,32.515z M29.581,33.217
	c-0.258,0.143-0.508,0.3-0.749,0.471c-0.047,0.066,0.217-0.066,0.504-0.254c0.287-0.188,0.108-0.146,0.254-0.217L29.581,33.217z
	 M26.02,34.276c0.287-0.123,0.564-0.268,0.829-0.433l-0.287,0.146l0.066-0.042l-0.08,0.024c0.118,0.005-0.353,0.212-0.518,0.306
	L26.02,34.276z M27.15,34.846c-0.21,0.152-0.43,0.288-0.659,0.41c0,0.042,0.363-0.193,0.471-0.273L27.15,34.846z M27.051,34.846
	c0.093-0.095,0.199-0.176,0.316-0.24c-0.028,0.047,0.099,0.028,0.433-0.226c-0.238,0.109-0.467,0.235-0.688,0.377L27.051,34.846z
	 M27.522,34.601l0.141-0.104c0.121-0.132,0.267-0.239,0.429-0.316l-0.429,0.316c-0.033,0.042-0.069,0.081-0.108,0.118L27.522,34.601
	z M24.697,36.758l0.146-0.099C24.711,36.763,24.687,36.772,24.697,36.758l-0.118,0.08c0.301-0.235,0.155-0.099,0.132-0.066
	L24.697,36.758z M27.254,34.79l-0.41,0.297c0.134-0.104,0.276-0.199,0.424-0.283L27.254,34.79z M24.763,36.674l0.532-0.433
	c-0.162,0.157-0.335,0.302-0.518,0.433L24.763,36.674z M17.335,44.605l0.071-0.137l-0.179,0.259L17.335,44.605z M19.276,41.953
	l0.118-0.141l0.042-0.066L19.276,41.953z M21.767,39.236c0,0,0,0,0.028,0l0.094-0.075c-0.028,0.029-0.06,0.054-0.094,0.075
	c-0.104,0.094-0.25,0.235-0.311,0.306c0.052-0.028,0.203-0.179,0.264-0.226c-0.207,0.231-0.768,0.669-0.565,0.584
	c-0.094,0.089-0.419,0.41-0.325,0.283c0.24-0.268,0.721-0.744,0.909-0.942l0.071-0.08L21.767,39.236z M25.219,36.174l0.17-0.127
	c0.094-0.061,0.165-0.108,0.151-0.075c-0.221,0.16-0.089,0.042-0.151,0.075L25.219,36.174z M25.168,36.174l0.523-0.367l-0.179,0.118
	c0.113-0.085,0.226-0.17,0.349-0.245c-0.247,0.128-0.476,0.29-0.678,0.48L25.168,36.174z M25.963,35.572l0.089-0.033L25.931,35.6
	L25.963,35.572L25.963,35.572l0.584-0.414L25.963,35.572z M32.086,31.601c0.188-0.212-0.584,0.254-0.721,0.287
	c0,0.042-0.221,0.221,0.381-0.132c-0.509,0.33-0.358,0.141-0.631,0.386c0.25-0.151,0.56-0.306,0.608-0.33l-0.292,0.174
	c0.203-0.061,0.447-0.306,0.65-0.4L32.086,31.601z M30.829,31.936c-0.132,0.057-0.268,0.099-0.396,0.155
	c0.137-0.061,0.278-0.108,0.414-0.165L30.829,31.936z M21.461,37.681c-0.153,0.169-0.325,0.319-0.513,0.447
	c0.231-0.203,0.471-0.405,0.523-0.462L21.461,37.681z M17.981,40.908l0.358-0.358c-0.147,0.176-0.304,0.342-0.471,0.499
	c-0.061,0.033,0.085-0.094,0.122-0.155L17.981,40.908z M15.819,43.361l-0.104,0.122l0.122-0.118L15.819,43.361z M16.191,42.961
	c-0.052,0.066-0.268,0.33-0.217,0.245L16.191,42.961z M14.203,45.533l0.113-0.151l-0.118,0.174L14.203,45.533z M14.312,45.358
	l0.066-0.085l0.283-0.381c0,0-0.094,0.122-0.16,0.207l0.217-0.297c-0.094,0.151,0,0.047-0.024,0.066
	c-0.089,0.147-0.195,0.283-0.316,0.405c-0.017,0.025-0.036,0.049-0.057,0.071L14.312,45.358z M15.418,43.865l0.089-0.113l0,0
	c-0.033,0.047-0.069,0.091-0.108,0.132l-0.141,0.188c-0.028,0.047,0.188-0.207,0.245-0.268c-0.099,0.122-0.198,0.217-0.316,0.386
	l0.085-0.104l-0.174,0.231c-0.207,0.259-0.024,0,0.16-0.245l0.052-0.075L15.418,43.865z M14.185,45.537c0,0,0,0-0.038,0.047
	l-0.094,0.127C13.935,45.867,14.071,45.693,14.185,45.537z M20.307,38.609c-0.075,0.075,0.127-0.066,0.301-0.221l-0.075,0.104
	c-0.147,0.1-0.286,0.212-0.414,0.334C20.025,38.864,20.161,38.741,20.307,38.609z M30.198,32.209
	c-0.243,0.127-0.495,0.237-0.754,0.33C29.256,32.68,29.906,32.355,30.198,32.209z M30.24,32.129l0.137-0.066
	c0.161-0.042,0.318-0.095,0.471-0.16c-0.08,0-0.198,0.08-0.273,0.099c0-0.028-0.038,0-0.188,0.061L30.24,32.129z M24.748,35.171
	l-0.203,0.094l-0.287,0.193L24.748,35.171z M21.72,37.3c-0.103,0.108-0.215,0.207-0.334,0.297c0.139-0.091,0.269-0.193,0.391-0.306
	l0.108-0.085l-0.108,0.085c-0.061,0.047-0.028,0-0.033,0l0.075-0.071l-0.226,0.184L21.72,37.3z M17.039,41.779
	c-0.086,0.111-0.177,0.218-0.273,0.32c0.033-0.042,0.17-0.203,0.278-0.32L17.039,41.779z M23.26,36.094
	c-0.311,0.25,0.17-0.085-0.028,0.08l0.165-0.127c-0.254,0.226-0.212,0.122-0.396,0.273l0.122-0.099
	c0.089-0.094-0.203,0.132-0.235,0.137c0.146-0.118,0.499-0.381,0.377-0.264H23.26z M16.794,42.052
	c-0.118,0.146-0.244,0.286-0.377,0.419C16.535,42.325,16.661,42.185,16.794,42.052z M21.004,37.79L21.004,37.79l0.25-0.203l0,0
	L21.004,37.79z"/>
<path fill="#5E2A2B" d="M16.582,42.514l-0.141,0.16L16.582,42.514z"/>
<path fill="#5E2A2B" d="M31.328,31.874c0.022-0.019,0.048-0.033,0.075-0.042L31.328,31.874z"/>
<polygon fill="#5E2A2B" points="32.039,31.611 32.067,31.597 32.091,31.592 "/>
<path fill="#5E2A2B" d="M15.291,48.457c-0.075,0.146,0.061-0.146,0.113-0.264C15.353,48.311,15.338,48.363,15.291,48.457z"/>
<path fill="#5E2A2B" d="M15.725,47.515l-0.137,0.292L15.725,47.515z"/>
<path fill="#5E2A2B" d="M15.376,48.288l0.212-0.471L15.376,48.288z"/>
<path fill="#5E2A2B" d="M17.01,45.038c-0.089,0.137-0.24,0.414-0.24,0.414c0.33-0.598-0.085,0.108-0.118,0.155
	C16.878,45.241,16.893,45.245,17.01,45.038z"/>
<path fill="#5E2A2B" d="M17.519,44.284l-0.104,0.155L17.519,44.284z"/>
<path fill="#5E2A2B" d="M17.656,44.068c0.083-0.118,0.173-0.231,0.268-0.339c-0.155,0.24-0.278,0.381-0.405,0.556
	C17.618,44.143,17.712,44.011,17.656,44.068z"/>
<path fill="#5E2A2B" d="M22.361,38.496c-0.038,0.038-0.132,0.132-0.141,0.122l0.283-0.278C22.62,38.237,22.417,38.44,22.361,38.496z
	"/>
<path fill="#5E2A2B" d="M23.486,37.559c0.24-0.212,0.094-0.122,0.221-0.226v0.042L23.486,37.559z"/>
<polygon fill="#5E2A2B" points="23.481,37.818 23.411,37.879 23.491,37.809 "/>
<path fill="#5E2A2B" d="M24.621,36.537l-0.198,0.104C24.64,36.48,24.664,36.509,24.621,36.537z"/>
<path fill="#5E2A2B" d="M25.544,35.75l-0.155,0.108c0.155-0.122,0.311-0.24,0.471-0.349C25.756,35.59,25.648,35.666,25.544,35.75z"
	/>
<polygon fill="#5E2A2B" points="26.722,34.889 26.759,34.851 27.084,34.62 "/>
<path fill="#5E2A2B" d="M25.704,34.691c-0.08,0,0.471-0.32,0.631-0.414C26.255,34.385,25.883,34.498,25.704,34.691z"/>
<path fill="#5E2A2B" d="M16.935,42.099l0.405-0.471C17.039,42,17.255,41.741,16.935,42.099z"/>
<path fill="#5E2A2B" d="M43.352,28.959c0,0,0.08-4.003,3.377-5.652c3.834-1.917,7.145,2.044,7.455,3.457l-3.768-0.16
	c0,0-3.532-4.785-5.492,1.413c0,0,27.156-2.51,42.227,20.252l-6.278,0.316C80.874,48.584,72.081,27.075,43.352,28.959z"/>
<path fill="#5E2A2B" d="M46.573,28.855"/>
<path fill="#5E2A2B" d="M43.352,28.959c0.834-0.028,2.152-0.108,2.981-0.104C45.593,28.851,43.606,28.959,43.352,28.959z"/>
<path fill="#5E2A2B" d="M46.724,28.87c-0.344,0-0.688,0-1.036,0C46.291,28.846,46.182,28.87,46.724,28.87z"/>
<polygon fill="#5E2A2B" points="46.347,28.855 46.404,28.855 46.955,28.86 "/>
<path fill="#5E2A2B" d="M84.265,44.619c0.061,0.085,0.094,0.146,0.052,0.113L84.265,44.619z"/>
<path fill="#5E2A2B" d="M82.753,42.754c-0.103-0.129-0.213-0.251-0.33-0.367C82.542,42.501,82.652,42.624,82.753,42.754z"/>
<path fill="#5E2A2B" d="M85.617,46.338l-0.264-0.33L85.617,46.338z"/>
<path fill="#5E2A2B" d="M69.288,35.214l-0.881-0.593C68.713,34.799,69.007,34.997,69.288,35.214z"/>
<path fill="#5E2A2B" d="M74.469,35.449l-0.094-0.042C74.304,35.336,74.261,35.298,74.469,35.449z"/>
<path fill="#5E2A2B" d="M82.546,42.16c0,0,0,0-0.057,0l-0.085-0.094L82.546,42.16z"/>
<path fill="#5E2A2B" d="M86.61,47.685L86.61,47.685l0.193,0.287C86.714,47.84,86.643,47.751,86.61,47.685z"/>
<path fill="#5E2A2B" d="M71.577,33.716c-0.127-0.075-0.25-0.155-0.353-0.226C71.506,33.65,71.643,33.735,71.577,33.716z"/>
<path fill="#5E2A2B" d="M82.381,42.344L82.381,42.344l0.042,0.047L82.381,42.344z"/>
<path fill="#5E2A2B" d="M84.83,44.807c-0.108-0.151-0.217-0.287-0.334-0.438C84.623,44.548,84.74,44.704,84.83,44.807z"/>
<path fill="#5E2A2B" d="M69.288,35.214l0.268,0.203C69.439,35.322,69.359,35.265,69.288,35.214z"/>
<path fill="#5E2A2B" d="M49.361,28.912l0.471,0.033L49.361,28.912z"/>
<path fill="#5E2A2B" d="M43.446,28.144v0.132V28.144z"/>
<path fill="#5E2A2B" d="M52.804,24.758l0.113,0.127C52.873,24.849,52.835,24.806,52.804,24.758z"/>
<path fill="#5E2A2B" d="M45.98,26.086c0.211-0.34,0.498-0.627,0.838-0.838c0.309-0.188,0.673-0.265,1.031-0.217
	c-0.075-0.007-0.151-0.007-0.226,0c0.227-0.003,0.452,0.037,0.664,0.118l0,0c0.805,0.34,1.505,0.89,2.025,1.592l0.038,0.047h0.061
	l0.471,0.028l-0.141-0.028l1.286,0.066l-0.735-0.042l2.873,0.113h0.151l-0.038-0.137c-0.104-0.361-0.263-0.704-0.471-1.017
	l0.066,0.118c-0.122-0.207-0.245-0.353-0.386-0.56l0.104,0.16c-0.503-0.685-1.123-1.275-1.832-1.743l-0.471-0.297l-0.56-0.264
	c-0.203-0.075-0.424-0.16-0.669-0.231c-0.274-0.07-0.552-0.117-0.834-0.141c-0.673-0.033,0.377,0,0.377,0.052
	c-0.256-0.038-0.514-0.062-0.772-0.071l-0.636,0.047l0.589-0.038c0.094,0,0.155,0,0.146,0c-0.097-0.009-0.195-0.009-0.292,0
	c-0.556,0.047,0.377-0.038-0.593,0.071l-0.377,0.08c-0.122,0.022-0.24,0.058-0.353,0.108l-0.556,0.235
	c-0.429,0.24-0.174,0.08,0.028,0l0.16-0.071c-0.186,0.066-0.363,0.155-0.527,0.264c-0.183,0.099-0.356,0.214-0.518,0.344
	l-0.268,0.207l-0.264,0.254c-0.452,0.437-0.832,0.942-1.126,1.498c-0.292,0.593-0.207,0.443-0.16,0.339c0.047-0.104,0.042-0.085,0,0
	c-0.113,0.229-0.212,0.465-0.297,0.706c0.131-0.367,0.288-0.725,0.471-1.069c-0.143,0.265-0.269,0.538-0.377,0.819
	c-0.145,0.363-0.263,0.736-0.353,1.116c0.217-0.829,0.127-0.471,0-0.089c-0.127,0.381-0.17,0.777,0,0
	c-0.042,0.193-0.089,0.386-0.122,0.579c0-0.071,0-0.089,0-0.052c-0.047,0.259-0.08,0.52-0.099,0.782
	c0.026-0.368,0.082-0.733,0.165-1.093c-0.085,0.372-0.14,0.75-0.165,1.13c0-0.301,0,0.113,0,0.047
	c0.081-1.121,0.403-2.212,0.942-3.198c-0.075,0.113-0.278,0.551-0.203,0.386c0.216-0.477,0.496-0.923,0.834-1.323
	c-0.082,0.092-0.157,0.19-0.226,0.292l0,0c-0.174,0.235-0.24,0.349-0.24,0.349c0.123-0.203,0.259-0.398,0.405-0.584
	c0.148-0.175,0.305-0.342,0.471-0.499c0.396-0.377,0.447-0.396,0.405-0.372c-0.042,0.024-0.16,0.132-0.071,0.047l0.429-0.311
	c0.165-0.122,0.372-0.221,0.575-0.344c0.38-0.194,0.784-0.338,1.201-0.429c-0.141,0.028-0.283,0.057-0.424,0.094
	c0.652-0.206,1.343-0.264,2.02-0.17h-0.184c0.253,0.026,0.503,0.072,0.749,0.137c0.221,0.057,0.414,0.137,0.603,0.198
	c0.368,0.152,0.718,0.346,1.041,0.579l-0.099-0.071c0.231,0.145,0.454,0.302,0.669,0.471c0.208,0.174,0.405,0.361,0.589,0.56
	c0.071,0.062,0.139,0.128,0.203,0.198c0.313,0.364,0.594,0.755,0.838,1.168c-0.119-0.239-0.256-0.469-0.41-0.688
	c0.183,0.236,0.34,0.49,0.471,0.758c0.089,0.185,0.159,0.379,0.207,0.579l0.047-0.057h-0.372c-0.4,0,0.052,0,0.372,0.028
	l-0.038,0.042l-0.071-0.231l0.075,0.231l0.033-0.038c-1.328-0.061-2.689-0.061-3.518-0.141h0.603
	c-0.556-0.033-0.857-0.047-0.791-0.038c0.1-0.007,0.201-0.007,0.301,0h-0.363h0.024c-0.398-0.518-0.875-0.971-1.413-1.342
	c-0.266-0.182-0.56-0.319-0.871-0.405c-0.363-0.102-0.749-0.092-1.107,0.028l0.24-0.052c0.05-0.005,0.101-0.005,0.151,0
	c-0.286,0.036-0.561,0.129-0.81,0.273c-0.351,0.212-0.646,0.506-0.857,0.857c0.052-0.066,0.099-0.132,0.155-0.193
	c-0.254,0.344-0.414,0.617-0.386,0.565c0.028-0.052-0.108,0.212-0.245,0.523c-0.169,0.381-0.316,0.771-0.443,1.168l-0.033,0.099
	h0.104c0.669-0.057,1.361-0.075,1.738-0.113l2.925,0.089c0.777,0-0.683-0.071-0.396-0.085c0.608,0.028,0.942,0.066,1.832,0.127
	c0,0.028-1.79-0.061-0.094,0.075h0.24c-0.174,0-0.419,0-0.664-0.047c-0.471-0.047,0.297,0,0.41,0
	c0.608,0.042,1.215,0.108,1.818,0.174c0.132,0.047-0.942-0.071-1.069-0.075c1.441,0.122,3.179,0.301,4.498,0.556l-0.122-0.033
	c1.681,0.33,0.998,0.104,2.327,0.438c0.706,0.141-0.245-0.104,0.819,0.141c0.297,0.071,0.118,0.042,0.066,0.033
	c1.295,0.334,0.584,0.085,1.766,0.471l-0.245-0.113c0.706,0.207,1.413,0.429,2.115,0.673s1.352,0.471,1.955,0.678
	c-0.061-0.057-0.805-0.316-1.093-0.443c1.62,0.589,3.876,1.446,5.303,2.148c-0.438-0.179,0.65,0.391-0.278-0.028
	c-0.221-0.146-0.673-0.311-1.168-0.537c0.777,0.414,3.363,1.507,3.542,1.743l0.221,0.08c0.212,0.122,0.744,0.443,0.363,0.245
	c0.523,0.264,1.027,0.565,1.526,0.862c-0.259-0.17-0.65-0.443-1.036-0.673c-0.305-0.188-0.619-0.361-0.942-0.518
	c-0.424-0.273,0.641,0.32,0.273,0.075c1.003,0.612,0.655,0.311,1.691,0.942c-0.499-0.24,0.998,0.683,0.942,0.678
	c0.334,0.212,1.055,0.725,1.333,0.942s0.758,0.537,1.272,0.904l0.777,0.57l0.706,0.584c-0.32-0.287-0.829-0.73-0.777-0.716
	c0.314,0.282,0.646,0.543,0.994,0.782c-1.474-1.3-0.532-0.344-1.926-1.451c-0.461-0.407-0.953-0.778-1.469-1.111
	c0.113,0.08,0.239,0.139,0.372,0.174c0.881,0.697,2.355,1.714,3.462,2.703c0.471,0.414,0.08,0.141,1.102,1.097
	c-0.306-0.264-0.598-0.537-0.909-0.787c0.355,0.303,0.693,0.625,1.013,0.965L79.8,40.069c0.495,0.443,0.673,0.617,0.942,0.881
	l-0.386-0.414c0.269,0.218,0.518,0.459,0.744,0.721c0.071,0.057,0.099,0.071,0.104,0.066s0.16,0.184,0.471,0.471
	c-0.104-0.098-0.2-0.203-0.287-0.316c1.116,1.154,0.297,0.231,0.994,0.942c-0.108-0.113,0.113,0.071,0.349,0.334
	c-0.071,0.033,1.243,1.507,1.535,1.945l0,0l0.81,1.074c-0.165-0.217,0.033,0,0.283,0.306l-0.042-0.052
	c0.268,0.334-0.24-0.471,0.509,0.584l0.372,0.565c-0.066-0.099,0,0,0.047,0.033l0.386,0.584c0.165,0.203,0.316,0.405,0.471,0.612
	l0.066-0.127c-0.772,0.038-1.545,0.028-2.487,0.099c0.363,0,0.909-0.047,0.678,0c-0.231,0.047-0.608,0.028-0.801,0.028h0.066
	l-2.383,0.08c0.193,0,1.526-0.052,0.942,0c-0.353,0.052-1.036,0.052-1.465,0.071c0.057,0,0.843-0.075,0.047-0.042
	c-0.099,0-0.857,0.071-0.499,0.066h-0.367l0.089,0.057c-0.287-0.716-0.744-1.573-1.041-2.138c-0.122-0.198,0.057,0.118,0.113,0.231
	l0.033,0.047c0.226,0.438,0,0.08,0.471,0.942c0,0.094-0.664-1.234-1.13-1.945c0.231,0.391,0.447,0.787,0.655,1.187
	c-0.584-0.98-1.295-2.115-2.077-3.198c-0.728-1.032-1.514-2.021-2.355-2.962c0.471,0.471,0.801,0.942,0.787,0.829
	c-0.471-0.542-0.655-0.772-0.862-0.994c-0.207-0.221-0.4-0.471-0.9-0.942l0.08,0.085l-0.848-0.834
	c-0.287-0.273-0.56-0.523-0.744-0.669c0.217,0.226,0.772,0.683,0.754,0.725c-0.438-0.396-0.852-0.815-1.309-1.187
	c0.207,0.184,0.537,0.471,0.871,0.791c0.334,0.32,0.683,0.626,0.914,0.871c0.349,0.339-0.688-0.692-0.509-0.542
	c0.692,0.643,1.334,1.337,1.922,2.077c0.311,0.386-0.504-0.509-0.716-0.73c-0.93-1.053-1.948-2.025-3.042-2.906
	c-0.235-0.193-0.471-0.363-0.721-0.542c-0.465-0.443-0.968-0.845-1.502-1.201l0.344,0.268c-0.268-0.188-0.438-0.301-0.565-0.386
	c0.504,0.377,1.05,0.772,1.479,1.144c-0.669-0.471-1.907-1.413-2.939-2.082c0.047,0.038,0.405,0.268,0.509,0.349
	c-0.758-0.504-1.573-0.942-2.331-1.413s-1.507-0.815-2.157-1.093c-0.546-0.226,1.069,0.471,0.787,0.4
	c-0.664-0.325-1.413-0.641-1.611-0.744c0.292,0.137-1.578-0.626-0.273-0.085c-2.558-1.054-5.217-1.843-7.936-2.355
	c0.132,0,0.132,0.028,0,0c0.471,0.066,0.994,0.212,1.493,0.316c0.499,0.104,0.942,0.212,1.187,0.297
	c-0.575-0.151-1.375-0.33-1.54-0.363l0.556,0.127c0.115,0.022,0.228,0.05,0.339,0.085c-0.763-0.155-1.187-0.268-1.724-0.386
	l0.292,0.061c-0.834-0.184-1.074-0.203-1.314-0.259c-0.24-0.057-0.504-0.099-1.413-0.221c-0.659-0.061,0,0,0,0.024l-2.242-0.245
	c0.367,0.024,0.73,0.075,1.097,0.113c-0.386-0.042-0.758-0.094-1.102-0.118l-0.942-0.057h0.259l-1.705-0.099h-0.174
	c0.367,0,1.455,0.075,1.639,0.085c-0.104,0-1.206-0.085-1.686-0.08c1.064,0.028,1.601,0.089,2.096,0.118
	c0.495,0.028,0.942,0.075,1.851,0.179l-0.306-0.042c0.56,0.066,1.13,0.108,1.677,0.203l1.554,0.268
	c-0.273-0.042-0.334-0.047-0.203-0.024c2.23,0.394,4.423,0.975,6.556,1.738l0.683,0.292h0.052c1.13,0.433,0.235,0.118,0.942,0.405
	l-0.283-0.118c1.286,0.57,0.725,0.297,1.441,0.622c-0.334-0.174-1.38-0.631-1.05-0.513c1.161,0.498,2.288,1.074,3.372,1.724
	c2.348,1.283,4.536,2.841,6.518,4.639c0.226,0.198-0.132-0.132-0.047-0.061c0.306,0.311,0.852,0.791,1.286,1.234
	c0.217,0.217,0.424,0.41,0.565,0.56c0.08,0.079,0.155,0.164,0.221,0.254c0.292,0.301,0.429,0.414,0.513,0.495
	c0.353,0.429,0.791,0.942,1.22,1.484l-0.316-0.41l0.042,0.042l0.471,0.579h-0.024c1.119,1.399,2.106,2.898,2.948,4.479
	c-0.424-0.815,0.151,0.179-0.047-0.207c0.179,0.386,0.527,1.05,0.848,1.813l0.047,0.108h0.122l2.312-0.108
	c0,0,0.113-0.028-0.071-0.033h0.918H83.94c1.102-0.061,2.27-0.089,3.245-0.127h0.339l-0.193-0.278
	c-0.268-0.391-0.513-0.744-0.725-1.031c0.377,0.551,0.372,0.565,0.391,0.631l-1.031-1.493c-0.344-0.471-0.739-0.97-1.154-1.517
	c0.028,0.03,0.05,0.065,0.066,0.104c-0.231-0.278-0.471-0.641-0.716-0.918h-0.057c-0.471-0.527-1.05-1.22-1.615-1.837
	c-0.259-0.203-1.375-1.493-2.124-2.115c-0.268-0.254,0.57,0.57-0.193-0.127c-0.061-0.155-0.994-0.909-1.017-1.008l-0.716-0.589
	l-0.132-0.155c-0.631-0.447-0.909-0.744-1.841-1.413c0.047,0.042,0.141,0.118,0.094,0.085c-0.287-0.235-0.994-0.721-0.438-0.358
	c-0.504-0.344-2.228-1.517-1.474-0.965c-0.042-0.052,0.659,0.438,0.942,0.65c-0.057,0-0.815-0.523-1.022-0.622l-0.193-0.141
	l-0.118-0.057c-0.942-0.626-1.973-1.21-2.699-1.634c-0.195-0.087-0.385-0.184-0.57-0.292v-0.042
	c-0.353-0.198-0.73-0.363-1.093-0.546l0.471,0.301c-0.608-0.283-1.111-0.556-1.597-0.791c-0.485-0.235-0.942-0.471-1.451-0.678
	c-0.287-0.047-1.987-0.824-2.915-1.06l0.805,0.297c-1.728-0.617-2.02-0.664-3.659-1.163c0.706,0.174,1.05,0.301,1.479,0.419
	c0.429,0.118,0.942,0.278,1.95,0.608c-1.764-0.637-3.565-1.168-5.393-1.587c0.122,0.042,0.598,0.165,0.132,0.071
	c-0.184-0.057-0.626-0.165-0.994-0.25c-0.367-0.085-0.65-0.137-0.509-0.122c-0.593-0.108-0.702-0.104-1.064-0.165
	c-0.664-0.127-1.323-0.273-1.992-0.377h0.061c-3.419-0.424-6.4-0.754-9.867-0.56h0.071h-0.556l0.198,0.25l0.108-0.292
	c-0.226,0.622,0.071-0.283,0.085-0.334c0.239-0.672,0.607-1.292,1.083-1.823C46.408,25.615,46.276,25.639,45.98,26.086z
	 M70.941,33.41l0.471,0.254l0.292,0.16l-0.292-0.16c-0.165-0.071-0.322-0.161-0.466-0.268L70.941,33.41z M67.404,34.187
	c0.25,0.141,0.471,0.287,0.725,0.443c-0.146-0.099-0.664-0.419-0.471-0.278C67.578,34.286,67.315,34.135,67.404,34.187z
	 M70.23,33.344l0.33,0.179l0.268,0.113c-0.165-0.108-0.367-0.198-0.57-0.292H70.23z M63.961,30.735l0.683,0.254h0.061l-0.692-0.259
	L63.961,30.735z M56.101,28.559l0.141,0.028L56.101,28.559c-0.56-0.118-0.791-0.099-1.243-0.212
	C55.277,28.385,55.693,28.456,56.101,28.559z M69.853,32.911c0-0.024-0.763-0.41-0.989-0.527c-0.334-0.137,0.113,0.075,0.221,0.151
	l-0.499-0.231c0.104,0.104,0.608,0.254,1.262,0.608H69.853z M82.744,42.419l-0.132-0.132c0.16,0.16,0.297,0.344,0.443,0.518
	L82.744,42.419z M84.792,44.85c0.198,0.325,0.829,1.064,1.206,1.625c-0.191-0.393-0.442-0.754-0.744-1.069
	c-0.556-0.744-0.254-0.25-0.466-0.556L84.792,44.85z M61.894,29.915c0.471,0.146,1.111,0.4,2.035,0.669
	c-0.226-0.089-0.471-0.16-0.692-0.24l0.17,0.052l-0.17-0.075c-0.458-0.105-0.908-0.24-1.347-0.405H61.894z M84.562,48.5
	c-0.673,0-1.884,0.047-1.785,0c0.414,0.032,0.83,0.032,1.243,0H84.562z M84.364,48.457c0.3-0.034,0.602-0.053,0.904-0.057
	c-0.113,0.028,0.155,0.071,1.121,0c-0.749,0-0.815,0-1.799,0L84.364,48.457z M85.617,48.485l0.4-0.024
	c0.379-0.059,0.761-0.088,1.144-0.085h0.193l-0.104-0.174l-0.042-0.066l0.047,0.066l0.122,0.165h-0.217l-1.144,0.075
	c-0.113,0.028-0.245,0.038-0.405,0.042H85.617z M79.103,45.57l0.198,0.349C79.098,45.584,79.079,45.542,79.103,45.57l-0.165-0.287
	c0.471,0.735,0.24,0.358,0.16,0.287H79.103z M84.83,48.514l-1.159,0.057C84.025,48.547,84.745,48.5,84.83,48.514z M79.282,45.773
	c0.264,0.405,0.885,1.512,0.791,1.361c-0.094-0.151-0.645-1.097-0.805-1.361L79.282,45.773z M59.798,30.758l0.339,0.094
	l-0.692-0.231L59.798,30.758z M66.754,33.721l0.363,0.217l0.165,0.08L66.754,33.721z M73.597,38.722c-0.033,0-0.024,0,0,0.042
	c0.024,0.042,0.165,0.16,0.198,0.198c-0.069-0.062-0.136-0.128-0.198-0.198c-0.226-0.217-0.575-0.532-0.735-0.673
	c0.085,0.099,0.443,0.424,0.575,0.56c-0.532-0.471-1.728-1.587-1.413-1.225c-0.217-0.217-1.036-0.867-0.739-0.659
	c0.659,0.499,1.837,1.531,2.303,1.955c0.028,0,0.08,0.066,0.188,0.16L73.597,38.722z M80.12,47.054
	c0.141,0.264,0.193,0.381,0.221,0.433c0.113,0.231,0.184,0.414,0.141,0.349c-0.268-0.556-0.08-0.207-0.141-0.349
	C80.28,47.346,80.21,47.195,80.12,47.054z M80.12,46.969c0.226,0.433,0.438,0.881,0.631,1.328l-0.193-0.471
	c0.118,0.24,0.221,0.471,0.325,0.73l0,0h0.179h-0.179h0.028C80.693,48.006,80.428,47.475,80.12,46.969L80.12,46.969z M81.387,48.523
	h0.203h-0.311h0.061l1.644-0.071L81.387,48.523z M79.974,39.904c-0.523-0.344,1.041,1.017,1.22,1.29c0.033,0,0.17,0.122,0.155,0.085
	c-0.228-0.282-0.484-0.541-0.763-0.772c0.272,0.224,0.524,0.472,0.754,0.739c0.143,0.16,0.301,0.307,0.471,0.438
	c-0.471-0.471-1.017-1.055-1.111-1.126c0.198,0.174,0.386,0.349,0.57,0.542c-0.406-0.423-0.835-0.822-1.286-1.196L79.974,39.904z
	 M73.136,34.874c-0.283-0.17-0.551-0.349-0.838-0.504c0.301,0.165,0.589,0.353,0.885,0.527L73.136,34.874z M48.966,27.97
	c0.071,0-1.257,0-1.573,0H48.966z M49.785,25.874c-0.276-0.272-0.582-0.511-0.914-0.711c0.201,0.101,0.39,0.226,0.56,0.372
	c0.233,0.194,0.453,0.404,0.659,0.626c0.118,0.17-0.165-0.155-0.306-0.268V25.874z M52.611,24.461l-0.278-0.259l0.273,0.273
	L52.611,24.461z M53.416,25.403c-0.057-0.075-0.212-0.259-0.33-0.41c-0.118-0.151-0.226-0.245-0.141-0.165
	c0.17,0.198,0.33,0.4,0.466,0.593L53.416,25.403z M46.893,23.26l0.41-0.151l-0.447,0.179L46.893,23.26z M47.331,23.077
	c0.074-0.035,0.154-0.059,0.235-0.071l0.471-0.108c0.198-0.035,0.398-0.057,0.598-0.066c-0.202,0.005-0.404,0.026-0.603,0.061
	c0.277-0.048,0.557-0.073,0.838-0.075c-0.41,0.024-0.108,0-0.155,0.024c-0.273,0-0.471,0.028-0.626,0.057l-0.316,0.071l-0.212,0.038
	C47.484,23.024,47.407,23.048,47.331,23.077L47.331,23.077z M51.419,23.585l0.287,0.17l0.052,0.038
	C51.627,23.717,51.518,23.647,51.419,23.585c-0.151-0.095-0.309-0.18-0.471-0.254c-0.057,0,0.085,0.052,0.259,0.146
	c0.174,0.094,0.372,0.235,0.471,0.287l-0.447-0.283c-0.16-0.08-0.334-0.174-0.556-0.273l0.273,0.137
	c-0.195-0.1-0.399-0.183-0.608-0.25c-0.721-0.231,0-0.066,0.626,0.235l0.193,0.089C51.251,23.468,51.338,23.523,51.419,23.585z
	 M46.813,23.279c-0.061,0.024,0.042-0.028-0.122,0.047l-0.316,0.184c-0.419,0.25,0.057-0.042,0.438-0.25V23.279z M45.485,27.97
	c0.287,0.027,0.575,0.027,0.862,0l-0.292,0.038c-0.157-0.01-0.314-0.01-0.471,0c-0.245,0-0.523,0-0.669,0.038l0,0l0,0l0.028-0.085
	c0.042-0.085,0.028-0.033,0,0.094l0,0L45.485,27.97z M71.718,34.064c-0.132-0.08-0.509-0.278-0.867-0.471s-0.721-0.363-0.796-0.429
	c-0.226-0.08,0.033,0.057,0.429,0.254c0.396,0.198,0.914,0.471,1.234,0.636V34.064z M71.888,34.093l0.306,0.17
	c0.372,0.212,0.306,0.231,0.942,0.593c-0.174-0.113-0.391-0.245-0.57-0.353c0.047,0-0.042-0.061-0.381-0.24L71.888,34.093z
	 M58.352,29.096l-0.471-0.132c-0.259-0.052-0.513-0.113-0.772-0.155c0.405,0.104,0.824,0.184,1.243,0.278V29.096z M49.978,27.918
	c0.061,0-0.843-0.028-1.031-0.038c0.057,0.024,0.664,0.042,1.149,0.071h0.316h-0.316c-0.184,0-0.057,0-0.057-0.024h0.24
	l-0.664-0.042L49.978,27.918z M52.46,26.769c0.542,0,0.603,0,0.97,0.033c-0.155,0-0.626-0.014-0.994-0.033H52.46z M54.462,28.319
	c-0.909-0.108,0.429,0.094-0.165,0l0.471,0.071c-0.768-0.094-0.546-0.104-1.088-0.165l0.363,0.038c0.292,0-0.551-0.08-0.617-0.108
	c0.34,0.037,0.678,0.092,1.013,0.165L54.462,28.319z M53.317,26.811c0.575,0,0.716,0.028,0.885,0.042h0.132l-0.038-0.122
	c-0.034-0.133-0.078-0.264-0.132-0.391c0.058,0.126,0.106,0.257,0.141,0.391l0.052,0.132h-0.155L53.317,26.811z M47.991,27.753
	h0.061l0.735,0.028H48.73L47.991,27.753z"/>
<path fill="#5E2A2B" d="M54.062,26.557c-0.058-0.15-0.124-0.296-0.198-0.438C53.942,26.259,54.008,26.406,54.062,26.557z"/>
<path fill="#5E2A2B" d="M73.998,35.543c0.061,0.03,0.121,0.063,0.179,0.099L73.998,35.543z"/>
<path fill="#5E2A2B" d="M75.453,36.532l0.057,0.038l0.042,0.033L75.453,36.532z"/>
<path fill="#5E2A2B" d="M49.898,28.936c-0.377-0.028,0.363,0,0.664,0.038L49.898,28.936z"/>
<path fill="#5E2A2B" d="M52.277,29.157l-0.744-0.089L52.277,29.157z"/>
<path fill="#5E2A2B" d="M50.336,28.969c0.471,0,0.867,0.061,1.196,0.099C51.226,29.039,50.967,29.001,50.336,28.969z"/>
<path fill="#5E2A2B" d="M58.597,30.367c-0.358-0.108-1.055-0.292-1.055-0.292c1.517,0.41-0.301-0.118-0.438-0.122
	C57.609,30.064,58.107,30.203,58.597,30.367z"/>
<path fill="#5E2A2B" d="M60.589,30.98l-0.414-0.137L60.589,30.98z"/>
<path fill="#5E2A2B" d="M61.15,31.154c0.518,0.184,0.688,0.278,0.914,0.372c-0.612-0.24-1.003-0.391-1.474-0.546
	C60.957,31.102,61.314,31.22,61.15,31.154z"/>
<path fill="#5E2A2B" d="M75.194,40.145c-0.085-0.094-0.292-0.316-0.292-0.325c0.217,0.217,0.419,0.471,0.626,0.669
	C75.736,40.686,75.321,40.277,75.194,40.145z"/>
<path fill="#5E2A2B" d="M77.356,42.735c0.438,0.584,0.231,0.264,0.471,0.565h-0.061L77.356,42.735z"/>
<path fill="#5E2A2B" d="M76.946,42.542l-0.132-0.17l0.151,0.193L76.946,42.542z"/>
<path fill="#5E2A2B" d="M79.4,45.598l-0.231-0.471C79.489,45.679,79.461,45.702,79.4,45.598z"/>
<path fill="#5E2A2B" d="M80.784,48.029l-0.179-0.391c0.141,0.292,0.283,0.584,0.41,0.89l-0.151-0.094h0.372h-0.372l0.146,0.089
	C80.94,48.358,80.86,48.193,80.784,48.029z"/>
<polygon fill="#5E2A2B" points="83.676,48.316 83.794,48.297 84.712,48.264 "/>
<path fill="#5E2A2B" d="M60.735,29.793c0.571,0.116,1.136,0.264,1.691,0.443C62.139,30.184,61.31,29.896,60.735,29.793z"/>
<path fill="#5E2A2B" d="M53.148,26.67l-1.413-0.066C52.832,26.642,52.05,26.618,53.148,26.67z"/>
<path fill="#5E2A2B" d="M21.847,48.429c0,0,11.143-21.194,37.833-12.876c0,0-24.175-6.594-34.065,13.032L21.847,48.429z"/>
<path fill="#5E2A2B" d="M24.023,48.518h-0.16H24.023z"/>
<path fill="#5E2A2B" d="M21.847,48.429l2.016,0.08L21.847,48.429z"/>
<path fill="#5E2A2B" d="M24.122,48.533L23.42,48.5L24.122,48.533z"/>
<polygon fill="#5E2A2B" points="23.868,48.514 23.905,48.514 24.277,48.533 "/>
<path fill="#5E2A2B" d="M54.372,34.531c-0.071,0-0.118-0.028-0.08-0.033L54.372,34.531z"/>
<path fill="#5E2A2B" d="M55.983,34.799l0.33,0.052L55.983,34.799z"/>
<path fill="#5E2A2B" d="M52.894,34.427h0.287H52.894z"/>
<path fill="#5E2A2B" d="M35.43,38.039c-0.216,0.102-0.427,0.215-0.631,0.339C34.992,38.237,35.205,38.123,35.43,38.039z"/>
<path fill="#5E2A2B" d="M56.157,34.408h-0.057C56.011,34.385,55.974,34.366,56.157,34.408z"/>
<path fill="#5E2A2B" d="M56.332,35.101c0,0,0,0,0.042,0h0.08H56.332z"/>
<path fill="#5E2A2B" d="M51.744,34.404L51.744,34.404h-0.235C51.587,34.397,51.666,34.397,51.744,34.404z"/>
<path fill="#5E2A2B" d="M53.911,33.942c-0.099-0.024-0.193-0.052-0.278-0.08C53.85,33.904,53.948,33.937,53.911,33.942z"/>
<path fill="#5E2A2B" d="M56.35,34.856"/>
<path fill="#5E2A2B" d="M54.01,34.813l0.372,0.042C54.257,34.848,54.133,34.834,54.01,34.813z"/>
<path fill="#5E2A2B" d="M35.43,38.039l0.203-0.104L35.43,38.039z"/>
<path fill="#5E2A2B" d="M25.752,48.321c0.108-0.198,0.137-0.245,0.16-0.283L25.752,48.321z"/>
<path fill="#5E2A2B" d="M22.125,47.949l-0.047,0.075L22.125,47.949z"/>
<path fill="#5E2A2B" d="M27.725,41.355l0.089-0.071C27.763,41.331,27.73,41.36,27.725,41.355z"/>
<path fill="#5E2A2B" d="M34.187,36.645c-0.495,0.287-1.036,0.518-1.455,0.787l0.151-0.075l-0.433,0.25l0,0
	c-0.725,0.4-1.549,1.017-1.818,1.163l0.094-0.038l-0.721,0.504l0.414-0.287c-0.801,0.575-1.969,1.512-2.119,1.658l0.075-0.052
	l-0.349,0.301l0.108-0.08c-0.887,0.78-1.73,1.608-2.524,2.482c-0.301,0.334,0.17-0.184,0.179-0.184l-0.641,0.702
	c0.094-0.094,0.56-0.608,0.212-0.212c-0.254,0.278,0.174-0.184-0.264,0.311l-0.179,0.188l-0.414,0.504
	c-0.424,0.513,0.499-0.641-0.174,0.188c-0.33,0.419-0.688,0.895-1.29,1.738c-0.499,0.744,0.273-0.381-0.424,0.641l0.447-0.655
	l-0.344,0.509c-0.094,0.137-0.278,0.414-0.433,0.659c0.622-0.98-0.542,0.862,0.038-0.052l-0.212,0.344v-0.033l-0.273,0.471
	c0.16-0.287,0.584-0.942,0.391-0.641c-0.141,0.217-0.273,0.438-0.4,0.664c0.104-0.179-0.038,0.066,0,0.028
	c0.38-0.651,0.796-1.28,1.248-1.884c-0.057,0.071-0.245,0.339-0.174,0.235c0.349-0.495,0.292-0.396,0.631-0.857l-0.155,0.198
	c0.028-0.033,0.075-0.099,0,0s-0.174,0.235-0.174,0.235c0.113-0.17,0.471-0.626,0.575-0.754c0.471-0.584,0.085-0.127,0.184-0.254
	c0.245-0.297,0.782-0.942,1.093-1.29l-0.198,0.217c0.358-0.433,0.711-0.796,0.942-1.031l-0.089,0.089
	c0.392-0.439,0.807-0.858,1.243-1.253l-0.052,0.019c0.231-0.221,0.579-0.56,0.815-0.758c0.042-0.048,0.088-0.092,0.137-0.132
	c0.141-0.104,0.391-0.33,0.744-0.641c-0.24,0.203-0.174,0.118-0.429,0.334c0.316-0.289,0.651-0.556,1.003-0.801
	c0.283-0.24-0.268,0.193-0.339,0.245c0.647-0.55,1.325-1.063,2.03-1.535c-0.113,0.075-0.217,0.165-0.325,0.25
	c0.306-0.221,0.471-0.32,0.443-0.301c-0.055,0.039-0.114,0.073-0.174,0.104c0.471-0.32,0.843-0.56,1.225-0.791
	s0.782-0.433,1.276-0.721c-0.085,0.024-0.226,0.113-0.235,0.104c0.471-0.268,0.471-0.193,1.225-0.612l-0.155,0.071
	c0.131-0.079,0.268-0.147,0.41-0.203c0-0.052,1.634-0.763,2.171-1.017c0.203-0.057,0.579-0.207,0.942-0.325
	c0.363-0.118,0.749-0.235,0.942-0.301c0.471-0.193-0.471,0.108-0.273,0c0.391-0.122,0.598-0.184,1.192-0.344
	c0,0.024-1.149,0.381-0.038,0.099l0.155-0.057c-0.118,0.028-0.273,0.08-0.433,0.118c-0.33,0.066,0.184-0.071,0.254-0.099
	l1.201-0.306c-0.226,0.087-0.457,0.16-0.692,0.217l0.735-0.203c0.254-0.066,0.513-0.118,0.772-0.179
	c0.487-0.119,0.981-0.21,1.479-0.273h-0.085c1.154-0.127,0.659-0.17,1.582-0.221c0.471-0.047-0.179-0.028,0.556-0.085
	c0.207,0,0.085,0,0.052,0c0.9-0.057,0.396-0.071,1.229-0.094l-0.184-0.028c0.499,0,1.013,0,1.502,0.028h0.725
	c0.231,0,0.471,0.028,0.673,0.033c-0.052-0.033-0.584-0.061-0.796-0.089c0.584,0.052,1.281,0.089,1.969,0.118
	c0.688,0.028,1.356,0.132,1.884,0.198c-0.32,0,0.499,0.122-0.188,0.075c-0.283-0.063-0.572-0.1-0.862-0.113
	c0.489,0.09,0.983,0.15,1.479,0.179c0.393,0.033,0.783,0.102,1.163,0.207h0.16c0.165,0.033,0.57,0.127,0.287,0.089
	c0.391,0.057,0.782,0.108,1.168,0.198c-0.501-0.156-1.015-0.266-1.535-0.33c-0.33-0.094,0.471,0.057,0.193-0.033
	c0.772,0.193,0.471,0.033,1.295,0.221c-0.372-0.033,0.782,0.25,0.744,0.264c0.264,0.047,0.843,0.203,1.06,0.268
	c0.471,0.118,1.517,0.391,2.251,0.612c-0.232-0.061-0.457-0.15-0.669-0.264c0.266,0.106,0.545,0.179,0.829,0.217
	c-1.257-0.429-0.433-0.033-1.582-0.405c-0.383-0.164-0.783-0.289-1.192-0.372c0.283,0.038,0.165,0,0.287,0
	c0.683,0.254,1.79,0.518,2.713,0.805l0,0l-0.137-0.042c-0.322-0.148-0.66-0.255-1.008-0.32c0.268,0.047,0.537,0.094,0.805,0.151
	c-0.885-0.174-0.203-0.08-0.942-0.24l0.283,0.089c-0.447-0.085-0.608-0.127-0.852-0.188l0.372,0.113
	c-0.234-0.029-0.466-0.076-0.692-0.141c-0.066,0-0.085,0-0.089,0c-0.145-0.04-0.293-0.069-0.443-0.085
	c0.097,0.012,0.194,0.032,0.287,0.061c-0.312-0.051-0.626-0.084-0.942-0.099c0.104,0-0.089,0-0.33,0
	c-0.542-0.146-1.095-0.25-1.653-0.311l0,0c-0.306-0.038-0.608-0.08-0.909-0.108c0.184,0,0,0.028-0.287,0h0.047
	c-0.292,0,0.339,0.099-0.527,0l-0.471-0.038c0.08,0,0,0-0.042,0l-0.471-0.038c-0.721,0.052-1.361-0.066-2.209,0
	c0.245,0,0.617,0,0.471,0c-0.18,0.009-0.361,0.009-0.542,0h0.047c-0.542,0-1.079,0-1.62,0.033c0.132,0,1.036-0.033,0.636,0
	c-0.235,0.047-0.702,0.033-0.994,0.061c0.038,0,0.57-0.08,0.028-0.047c-0.066,0-0.575,0.08-0.334,0.071l-0.942,0.066
	c-0.33,0.038-0.655,0.071-0.9,0.085c-0.155,0.028,0.089,0,0.17,0h0.042c0.236,0.001,0.471-0.021,0.702-0.066
	c0.061,0.052-0.942,0.127-1.502,0.231c0.306-0.047,0.612-0.061,0.914-0.094c-1.698,0.258-3.379,0.615-5.035,1.069
	c0.424-0.146,0.791-0.221,0.73-0.25c-0.575,0.139-1.143,0.309-1.7,0.509l0.08-0.024c-0.471,0.155-0.933,0.334-1.385,0.537
	c0.217-0.096,0.44-0.176,0.669-0.24l-1.116,0.433c0.363-0.108,1.111-0.443,1.545-0.589l-0.179,0.057
	c-0.179,0.061-0.372,0.132-0.306,0.089c0.597-0.231,1.211-0.415,1.837-0.551c0.33-0.066-0.471,0.17-0.65,0.245
	c-0.919,0.242-1.813,0.57-2.67,0.98l-0.542,0.283c-0.418,0.125-0.818,0.302-1.192,0.527l0.268-0.122l-0.4,0.231
	c0.386-0.179,0.782-0.405,1.144-0.542c-0.25,0.132-0.598,0.325-0.989,0.523c-0.398,0.188-0.785,0.398-1.159,0.631
	c0.038,0,0.283-0.17,0.363-0.207c-0.997,0.59-1.955,1.243-2.868,1.955c-0.151,0.137,0,0,0.174-0.132
	c0.174-0.132,0.386-0.278,0.311-0.212c-0.41,0.292-0.81,0.692-0.942,0.758c0.188-0.118-0.876,0.744-0.127,0.146
	c-1.402,1.236-2.665,2.621-3.768,4.13c0.061-0.071,0.066-0.066,0.024,0c0.377-0.471,0.904-1.225,1.154-1.46
	c-0.264,0.301-0.598,0.744-0.669,0.834c0.127-0.16,0.377-0.471,0.391-0.471c-0.311,0.429-0.504,0.65-0.73,0.942l0.118-0.165
	c-0.398,0.48-0.759,0.99-1.079,1.526c-0.235,0.381,0,0,0.024,0l-0.41,0.641l-0.377,0.664l0.358-0.65l-0.664,1.201l0.085-0.151
	l-0.386,0.697l0,0h-0.358h-0.118h0.471l0,0l0.306-0.556c0,0.042-0.155,0.297-0.301,0.56l0,0H25.05h0.513l0,0l1.069-1.884
	c-0.038,0.057-0.08,0.113-0.113,0.174c0.41-0.645,0.834-1.3,1.22-1.841c-0.108,0.151-0.127,0.188-0.071,0.118
	c0.886-1.248,1.888-2.41,2.991-3.471l0.377-0.334v-0.038c0.608-0.542,0.151-0.094,0.551-0.438c-0.05,0.048-0.106,0.091-0.165,0.127
	c0.744-0.598,0.396-0.358,0.805-0.692c-0.207,0.146-0.791,0.655-0.626,0.471c0.647-0.556,1.335-1.063,2.058-1.517
	c0.775-0.528,1.582-1.007,2.416-1.436c0.414-0.235,0.848-0.41,1.248-0.593l0.579-0.259l0.546-0.207c0.184-0.085-0.118,0.038-0.052,0
	c0.283-0.085,0.73-0.287,1.126-0.419c0.239-0.093,0.482-0.171,0.73-0.235c0.268-0.099,0.372-0.16,0.443-0.188
	c0.367-0.085,0.801-0.193,1.262-0.316l-0.339,0.085h0.038l0.471-0.118l0,0c1.178-0.283,2.374-0.486,3.579-0.608
	c-0.617,0.057,0.146-0.061-0.146-0.042c0.551,0,1.856-0.16,2.915-0.203c0,0,0.075-0.028-0.047-0.033h0.617h-0.085
	c1.107-0.038,2.308,0.028,3.033,0.042c-0.447-0.024-0.471-0.038-0.471-0.061c0.791,0.028,1.535,0.066,2.454,0.165h-0.08
	c0.24,0,0.532,0.057,0.777,0.089l0.038-0.028c0.471,0.066,1.079,0.122,1.63,0.231c0.221,0,1.338,0.24,1.973,0.353
	c0.245,0.057-0.518-0.141,0.16,0c0.085,0.085,0.881,0.193,0.914,0.283l0.203,0.042l0.122-0.419l-0.396-0.089L59.2,35.143
	c-0.523-0.071-0.758-0.245-1.512-0.433c0.038,0,0.118,0.042,0.08,0.038c-0.24-0.075-0.796-0.235-0.358-0.137
	c-0.4-0.104-1.776-0.419-1.168-0.245c0.27,0.051,0.538,0.117,0.801,0.198c-0.038,0.024-0.641-0.122-0.801-0.122l-0.155-0.047h-0.089
	c-0.377-0.099-0.758-0.188-1.111-0.268c-0.353-0.08-0.692-0.122-0.97-0.193c-0.146-0.006-0.291-0.025-0.433-0.057v-0.038
	l-0.815-0.137l0.372,0.122c-0.895-0.137-1.531-0.231-2.27-0.325c-0.193,0-1.451-0.104-2.101-0.08l0.584,0.042
	c-1.243-0.085-1.441,0-2.604,0l1.046-0.038c0.301,0,0.664-0.033,1.38,0c-0.721-0.033-1.342,0-1.95,0c-0.306,0-0.608,0-0.914,0
	l-0.942,0.085c0.089,0,0.424,0,0.099,0.033s-1.239,0.099-1.046,0.047c-0.405,0.071-0.471,0.113-0.721,0.155
	c-0.471,0.057-0.914,0.085-1.366,0.165h0.042c-2.206,0.399-4.362,1.039-6.429,1.907h0.047l-0.542,0.226
	c0.424-0.179-0.174,0.104-0.198,0.132l-0.688,0.301L33.8,36.815C33.777,36.838,33.866,36.824,34.187,36.645z M53.435,33.885
	l0.349,0.061c0.074,0.009,0.148,0.021,0.221,0.038l-0.221-0.038C53.665,33.94,53.548,33.92,53.435,33.885z M34.262,38.901
	l0.471-0.306c-0.104,0.066-0.471,0.278-0.306,0.198C34.375,38.835,34.196,38.948,34.262,38.901L34.262,38.901z M52.969,34.093
	l0.25,0.061h0.198L52.969,34.093z M48.396,33.706l0.471,0.038h0.042l-0.499-0.038H48.396z M42.857,33.885h0.094H42.857
	c-0.391,0.033-0.532,0.113-0.848,0.137c0.274-0.093,0.559-0.147,0.848-0.16V33.885z M52.625,33.829c0-0.028-0.579-0.094-0.744-0.127
	c-0.25-0.024,0.085,0.038,0.17,0.061l-0.372-0.042c0.089,0.038,0.452,0,0.947,0.085V33.829z M56.124,35.053h0.122l-0.447-0.085
	L56.124,35.053z M54.005,34.785c-0.25-0.061-0.904-0.089-1.356-0.132c-0.118,0,0.339,0.085,0.871,0.118
	c0.617,0.047,0.226-0.047,0.485-0.009V34.785z M46.87,33.565c0.334,0,0.801,0.052,1.451,0h-0.372l-0.127-0.024
	c0.137,0.038-0.669,0-0.951,0V33.565z M49.451,34.63c-0.471-0.024-1.281,0-1.206,0c0.279,0.032,0.56,0.032,0.838,0H49.451z
	 M49.314,34.582c0.203-0.025,0.408-0.034,0.612-0.028c-0.075,0.033,0.104,0.066,0.758,0.061c-0.403-0.05-0.809-0.073-1.215-0.071
	L49.314,34.582z M50.162,34.653h0.287c0.275-0.037,0.554-0.037,0.829,0h-0.829H50.162z M44.628,35.124l0.268-0.033
	C44.637,35.133,44.604,35.133,44.628,35.124l-0.221,0.024c0.579-0.155,0.278-0.089,0.221-0.066L44.628,35.124z M49.625,34.653
	c-0.264,0-0.523,0-0.782,0c0.26-0.025,0.521-0.033,0.782-0.024L49.625,34.653z M44.798,35.035c0.32-0.061,1.173-0.165,1.055-0.151
	C45.735,34.898,45.005,34.983,44.798,35.035z M29.887,42.499l0.151-0.184c-0.122,0.113-0.221,0.245-0.334,0.363L29.887,42.499z
	 M33.758,39.165l0.245-0.155l0.094-0.071L33.758,39.165z M38.849,36.523c-0.024,0,0,0,0.033,0C38.94,36.5,39,36.481,39.061,36.466
	l-0.179,0.057c-0.198,0.071-0.495,0.193-0.626,0.25c0.085,0,0.391-0.141,0.513-0.179c-0.221,0.104-0.598,0.231-0.876,0.334
	s-0.471,0.198-0.287,0.174c-0.193,0.075-0.843,0.353-0.626,0.235l0.97-0.471l0.9-0.372c0.047-0.03,0.098-0.054,0.151-0.071
	L38.849,36.523z M45.815,34.79l0.33-0.033c0.17,0,0.301,0,0.254,0c-0.419,0.038-0.151,0-0.254,0L45.815,34.79z M45.758,34.752
	c0.33-0.028,0.664-0.061,0.994-0.075h-0.334l0.659-0.038c-0.448-0.016-0.896,0.016-1.338,0.094L45.758,34.752z M47.308,34.606h0.141
	h-0.17c0.367-0.033,0.739-0.047,1.111-0.061c-0.363,0.019-0.721,0.019-1.083,0.042L47.308,34.606z M58.611,35.341
	c0.429,0-0.942-0.254-1.163-0.33c-0.052,0.024-0.471,0,0.598,0.188c-0.372-0.096-0.752-0.155-1.135-0.179
	c0.447,0.061,0.975,0.184,1.05,0.198l-0.523-0.089c0.301,0.089,0.824,0.099,1.187,0.193L58.611,35.341z M55.14,34.399
	c-0.212-0.052-0.429-0.094-0.645-0.132c0.231,0.038,0.471,0.08,0.683,0.137L55.14,34.399z M38.185,35.166
	c0.052,0-0.796,0.297-0.998,0.363c0.419-0.179,0.9-0.306,1.017-0.363L38.185,35.166z M31.535,38.364
	c0.221-0.141,0.438-0.283,0.669-0.41c-0.118,0.094-0.593,0.372-0.895,0.579c-0.113,0.057,0.137-0.094,0.231-0.17H31.535z
	 M27.508,41.482l-0.184,0.17l0.203-0.165L27.508,41.482z M28.172,40.955c-0.094,0.08-0.504,0.429-0.391,0.316L28.172,40.955z
	 M24.602,44.534l0.203-0.212l-0.217,0.245L24.602,44.534z M24.805,44.289c0.037-0.043,0.076-0.084,0.118-0.122l0.471-0.556
	c-0.033,0.028-0.17,0.179-0.278,0.306c0.08-0.094,0.212-0.25,0.381-0.429c-0.179,0.212-0.038,0.061-0.052,0.094
	c-0.504,0.556-0.471,0.532-0.542,0.584L24.805,44.289z M26.783,42.175l0.16-0.155l0.033-0.028L26.783,42.175l-0.254,0.264
	c-0.052,0.066,0.311-0.297,0.419-0.381c-0.184,0.165-0.334,0.311-0.56,0.546l0.151-0.146l-0.316,0.32
	c-0.372,0.353-0.028,0,0.306-0.339l0.094-0.108L26.783,42.175z M24.546,44.567c-0.033,0.038,0-0.028-0.061,0.066l-0.16,0.193
	C24.136,45.08,24.376,44.793,24.546,44.567z M35.972,35.977c-0.151,0.071,0.207-0.057,0.546-0.193l-0.17,0.099
	c-0.125,0.035-0.247,0.078-0.367,0.127l-0.4,0.184C35.454,36.198,35.717,36.09,35.972,35.977z M54.062,34.225
	c-0.203-0.047-1.135-0.174-1.257-0.245c-0.325-0.019,0.772,0.151,1.258,0.221L54.062,34.225z M54.179,34.187l0.235,0.042
	c0.283,0.061,0.245,0.075,0.739,0.165c-0.122-0.038-0.325-0.071-0.443-0.094c0.028,0-0.042-0.028-0.297-0.071L54.179,34.187z
	 M44.421,33.772c-0.118,0-0.231,0-0.344,0l-0.527,0.075c0.306-0.042,0.579-0.08,0.871-0.099L44.421,33.772z M38.769,34.874
	c-0.216,0.087-0.436,0.162-0.659,0.226c0.253-0.06,0.501-0.135,0.744-0.226l0.207-0.061l-0.207,0.061c-0.118,0.038-0.038,0-0.042,0
	l0.155-0.057l-0.433,0.137L38.769,34.874z M29.821,39.466l-0.518,0.405c0.169-0.153,0.347-0.296,0.532-0.429L29.821,39.466z
	 M41.741,34.093c-0.608,0.132,0.297-0.028-0.099,0.066l0.33-0.066c-0.509,0.127-0.372,0.047-0.73,0.127l0.24-0.052
	c0.188-0.061-0.377,0.061-0.424,0.052C41.282,34.159,41.51,34.116,41.741,34.093z M29.369,39.791
	c-0.471,0.396-0.4,0.306-0.688,0.537C29.053,40.013,29.011,40.074,29.369,39.791z M37.479,35.185h0.038l0.471-0.151H37.95
	L37.479,35.185z"/>
<path fill="#5E2A2B" d="M28.865,40.375l-0.259,0.207C28.686,40.512,28.785,40.446,28.865,40.375z"/>
<path fill="#5E2A2B" d="M55.837,34.691c0.047-0.006,0.094-0.006,0.141,0C55.931,34.695,55.884,34.695,55.837,34.691z"/>
<path fill="#5E2A2B" d="M56.996,34.969h0.042h0.038H56.996z"/>
<path fill="#5E2A2B" d="M25.916,48c-0.132,0.221,0.118-0.217,0.212-0.396C26.034,47.784,26.001,47.854,25.916,48z"/>
<path fill="#5E2A2B" d="M26.722,46.597c-0.099,0.137-0.187,0.282-0.264,0.433C26.535,46.88,26.624,46.735,26.722,46.597z"/>
<path fill="#5E2A2B" d="M26.067,47.751l0.391-0.711L26.067,47.751z"/>
<path fill="#5E2A2B" d="M29.293,43.083c-0.174,0.188-0.495,0.556-0.495,0.556c0.702-0.801-0.165,0.141-0.207,0.226
	C28.81,43.592,29.045,43.331,29.293,43.083z"/>
<path fill="#5E2A2B" d="M30.254,42.052l-0.212,0.212L30.254,42.052z"/>
<path fill="#5E2A2B" d="M30.527,41.765c0.268-0.254,0.367-0.339,0.495-0.447c-0.311,0.32-0.527,0.504-0.768,0.735
	C30.442,41.868,30.626,41.689,30.527,41.765z"/>
<path fill="#5E2A2B" d="M40.173,35.901c-0.092,0.033-0.187,0.06-0.283,0.08l0.589-0.198C40.719,35.708,40.29,35.859,40.173,35.901z"
	/>
<path fill="#5E2A2B" d="M42.386,35.327c0.471-0.104,0.226-0.075,0.471-0.127v0.047L42.386,35.327z"/>
<polygon fill="#5E2A2B" points="42.165,35.581 42.024,35.614 42.184,35.572 "/>
<path fill="#5E2A2B" d="M44.713,34.823h-0.344C44.798,34.776,44.798,34.813,44.713,34.823z"/>
<polygon fill="#5E2A2B" points="46.583,34.54 46.291,34.554 47.2,34.484 "/>
<path fill="#5E2A2B" d="M48.853,34.399h0.08h0.622C49.324,34.385,49.088,34.38,48.853,34.399z"/>
<path fill="#5E2A2B" d="M46.107,33.749c0.391-0.049,0.784-0.069,1.177-0.061C47.086,33.749,46.493,33.674,46.107,33.749z"/>
<path fill="#5E2A2B" d="M29.533,39.834c0.245-0.198,0.509-0.372,0.763-0.556L29.533,39.834z"/>
</svg>
