<?xml version="1.0" encoding="utf-8"?>
<!-- Generator: Adobe Illustrator 17.0.0, SVG Export Plug-In . SVG Version: 6.00 Build 0)  -->
<!DOCTYPE svg PUBLIC "-//W3C//DTD SVG 1.1//EN" "http://www.w3.org/Graphics/SVG/1.1/DTD/svg11.dtd">
<svg version="1.1" id="Слой_1" xmlns="http://www.w3.org/2000/svg" xmlns:xlink="http://www.w3.org/1999/xlink" x="0px" y="0px"
	 width="100px" height="100px" viewBox="0 0 100 100" enable-background="new 0 0 100 100" xml:space="preserve">
<path fill="#231F20" d="M2.825,48.113"/>
<path id="_Tracé__3_" fill="#FFFFFF" d="M64.874,23.422c2.98,0.244,19.442-3.061,12.859-5.901
	c-2.857-1.234-6.542,0.601-8.817-2.213c-2.457-3.044-0.882-5.952-6.194-5.096c-0.268,4.15-0.713,9.12-0.426,13.219"/>
<path id="_Tracé_2_3_" fill="#5D3739" d="M56.492,22.703c0.606,2.747,1.55,7.017,2.951,9.428c1.073,1.878,3.946,1.955,5.984,2.682
	c-0.732-1.609-1.58-3.6-2.197-5.303c-0.966-2.639-0.365-3.83,1.478-5.308c2.457-1.974,2.61-6.29,6.274-7.052
	c-1.285-0.732-2.264-0.896-3.192-2.202c-0.885-1.25-1.341-2.307-2.58-3.28c-1.993-1.566-6.202-1.051-8.186,0.917
	c-2.242,2.234-1.124,7.39-0.52,10.115"/>
<path id="_Tracé_3_3_" fill="#FFFFFF" d="M23.167,35.774c-2.146,0.046-3.841-3.12-5.695-2.951c-2.497,0.212-2.449,6.687-2.39,8.393
	c0.115,3.195,1.127,6.899,2.951,9.546c1.282,1.878,3.238,2.857,4.606,4.56c-1.263,1.215-3.219,0.574-4.769,1.135
	c0.051,1.207,8.916,3.109,10.306,3.514c3.299,0.974,6.373,2.594,9.627,3.578c3.176,0.966,8.42,0.606,11.507-0.536
	c6.183-2.267,12.111-9.064,15.761-14.332c1.77-2.554,3.734-5.451,2.57-8.672c-0.864-2.414-4.251-5.467-7.02-5.539
	c-3.672-0.094-7.374,2.055-10.998,2.588c-2.873,0.426-5.603-0.19-8.484-0.182c-3.946,0-7.913-0.426-11.861-0.595
	c-2.328-0.097-5.126-0.783-7.393-0.51"/>
<path id="_Tracé_4_3_" fill="#5D3739" d="M61.575,74.671c1.701-0.566,3.004-2.492,4.589-2.905c1.395-0.359,2.484,0.907,2.58,2.682
	c0.325,6.065-6.934,0.196-9.01-0.515"/>
<path id="_Tracé_5_3_" fill="#6D983E" d="M79.166,79.754c-1.191-2.897-3.256-5.558-4.705-8.404
	c2.728,2.621,4.89,7.315,7.843,10.249c0.126-6.542-0.931-13.119-1.097-19.721c3.632,6.566,3.38,14.485,5.233,21.083
	c0.475-5.92,1.073-11.242,3.007-17.003c0.759,6.269-0.62,12.671,0.628,19.007c0.942-2.264,3.385-4.34,6.169-5.351
	c-2.642,2.527-2.358,6.293-2.596,9.498c-3.487-0.805-7.339-2.326-10.855-3.519"/>
<path id="_Tracé_6_3_" fill="#5D3739" d="M64.646,77.471c0.295-0.15-0.156,0.105,0.231-0.397
	C64.74,77.844,64.74,77.412,64.646,77.471"/>
<path id="_Tracé_7_3_" fill="#5D3739" d="M3.07,53.909c1.073,0,1.591,1.258,2.615,1.379c0.113,0.021-0.19,0.284,0.08,0.317
	c1.073-0.046,2.208,0.77,3.136,1.58l-0.097,0.062c0.174,0.172,0.523-0.054,0.735,0.024l-0.072,0.166
	c0.113-0.172,0.429,0,0.558-0.113l0.113,0.338l0.182-0.18c0.48-0.429,0.842,0.22,1.384,0.067l-0.059,0.129
	c0.837-0.177,1.754,0.215,2.639,0.113l-0.048,0.298c0.07-0.225,0.346-0.268,0.582-0.298c0.083,0.239,0.413-0.19,0.673-0.048
	l-0.027,0.048c0.217-0.231,0.295,0.161,0.469-0.121l0.121,0.188c0.105-0.322,0.282,0.188,0.456,0.027V57.82
	c0.158-0.072,0.236,0.099,0.384,0.051v0.04c0.343-0.07,0.536,0.129,0.536-0.129c0.118,0.212-0.327,0.075-0.139,0.384
	c1.13-0.17,2.268-0.281,3.409-0.333l0.268,0.217c0.107-0.056,0.418-0.075,0.504-0.209c-0.038,0,0.091,0.123,0.153,0.131
	c0.225,0.086,0.182-0.29,0.424-0.196L22,58.029c0.164-0.204,0.429-0.188,0.63-0.327l-0.048,0.169
	c0.188-0.284,0.453-0.072,0.628-0.268l-0.035,0.166c0.464,0.126-0.148-0.437,0.486-0.198c-0.086-0.032-0.268-0.021-0.164,0.067
	c0.381,0.027,0.617,0.459,0.858,0.617l-0.054,0.024c0.223,0.22,0.365,0.518,0.671,0.711c0.021,0.134-0.311,0.198-0.062,0.418
	c0.22-0.201,0.445,0.351,0.579-0.021c0.137,0.249,0.335,0.663,0.523,0.738c-0.161-0.019-0.177,0.357-0.346,0.193l-0.021,0.268
	c-0.105,0.064-0.086-0.169-0.164-0.021c0.086,0.086,0.386,0.268,0.421,0.384c0.268,0.04,0.622-0.021,0.95,0.118
	c-0.215,0-0.153,0.292-0.282,0.268l0.783-0.153c0.102,0.054-0.131,0.196,0.054,0.225l0.217-0.086
	c0.013,0.051,0.418,0.198,0.287,0.461c-0.032,0.123-0.193-0.054-0.15,0.105l0.421,0.153l-0.021,0.035
	c0.089,0.118,0.408,0.129,0.37-0.091c-0.072-0.064-0.067,0.166-0.137,0.013c0.195-0.057,0.405-0.012,0.561,0.118l-0.18,0.131
	c0.308-0.021,0.617,0.028,0.904,0.142c0.067-0.123-0.204,0.164-0.209,0.072c0.215,0.448,0.805,0.164,1.017,0.483
	c-0.062,0,0.048-0.198,0.035-0.161c0.177,0.064,0.094,0.268,0.241,0.217c-0.032,0.115,0.166,0,0.298,0
	c0.094-0.056,0.016,0.067-0.099,0.051c0.215-0.051,0.939-0.043,1.288,0.233c0.1-0.117,0.246-0.184,0.4-0.182l-0.08,0.169
	c0.056,0.134,0.306,0.07,0.284,0.231c0.249-0.169-0.789-0.021-0.488-0.118c0.035,0.166,0.432-0.185,0.322,0.043
	c0.182,0.046,0.4-0.113,0.536,0.107c-0.043-0.043-0.196,0.209-0.043,0.239c0.268,0.043,0.086-0.067,0.314-0.07l0.142-0.038
	c0.038-0.174,0.228,0.094,0.164-0.137c0,0.156,0.378,0.019,0.319,0.298l-0.07,0.228c0.121,0,0.223-0.228,0.325-0.325l0.029,0.107
	c0.054-0.357,0.268,0.043,0.426-0.223c0.236,0.137,0.604,0.056,0.722,0.268c0.198-0.105,0.381-0.233,0.601-0.153l-0.118,0.121
	c0.134,0.11,0.172,0,0.3-0.043c-0.03,0.054,0.268,0.217,0.426,0.346c0.201-0.107,0.134-0.298,0.156-0.418
	c0.172,0.357,0.536-0.217,0.767,0.099c-0.067,0.051-0.284,0.177-0.121,0.268c0.174,0.351,0.359-0.268,0.644-0.097l-0.075-0.295
	c0.131,0.182,0.426-0.172,0.397,0.126c0.094-0.105,0.335,0.099,0.303-0.19c0.472,0.233,1.145-0.15,1.443,0.354
	c0.064-0.051,0.236,0,0.198-0.15c-0.115-0.161-0.156,0.118-0.198,0l0.078-0.123c0.148,0.059,0.268,0.078,0.129,0.317
	c0.333,0.172,0.327-0.496,0.746-0.392l0.139,0.142l0.223-0.212c0.268,0.043,0.158,0.268,0.169,0.467
	c0.145-0.035,0.319-0.03,0.384-0.182l0.177,0.252c-0.131-0.182,0.118-0.126,0.182-0.177l-0.064,0.051
	c0.032,0.086,0.193,0.03,0.268,0l-0.282-0.185l0.268-0.182c-0.027,0.201,0.239,0.131,0.354,0.15
	c0.115,0.019,0.139-0.185,0.174-0.177c0,0.099,0.22,0,0.121,0.15c-0.043,0.038-0.107-0.094-0.177,0
	c0.089,0.072,0.086,0.252,0.268,0.115c0.182-0.137-0.048-0.386,0.212-0.268l-0.123,0.207l0.244,0.089v-0.18l0.032,0.086
	c0.059-0.193,0.354-0.072,0.402-0.29l0.376,0.131l-0.021,0.016c0.154,0.081,0.344,0.036,0.445-0.105v0.04l0.349-0.131
	c0.201,0.126,0.099,0.676,0.3,0.437c0.196-0.016,0.292-0.349,0.207-0.459c0.359,0.102,0.746-0.212,1.086,0.046l0.115-0.169
	c0.523,0.04,1.073-0.268,1.507,0.038c-0.142,0.086,0,0.174,0.016,0.268c0.113-0.169,0.161,0.153,0.185-0.129
	c-0.027-0.161-0.019-0.236-0.172-0.29c0.3-0.115,0.759-0.158,0.944-0.019c-0.091-0.072-0.032-0.126,0.03-0.177
	c0,0.268,0.233,0.268,0.394,0.172v-0.158l0.129,0.15c0.056-0.062,0.027-0.341,0.201-0.215l0.07,0.158
	c0.145-0.153,0.33-0.402,0.536-0.298l0.188,0.204c0.075-0.035,0.169-0.185,0.021-0.236l0.225,0.054
	c2.771,1.878,0.751,0.622,1.36,1.073l-0.145,0.268c0.593,0.429,0.767,1.132,0.966,1.741l-0.118,0.021
	c-0.048,0.193,0.225,0,0.185,0.153c-0.123-0.016-0.19,0.207-0.365,0.123c-0.038,0.268,0.295,0.231,0.394,0.359
	c0.153-0.035-0.131-0.086,0.059-0.126c0.059,0,0,0.357,0.241,0.3l-0.343,0.115l0.166,0.094c-0.18,0.268-0.62-0.201-0.861,0.099
	l0.094,0.118c-0.174,0.217-0.408-0.249-0.341,0.115c0.172,0.105,0.536,0.094,0.569-0.067c0.19,0.268,0.579-0.083,0.689,0.228
	c-0.089,0.142-0.131-0.228-0.284-0.094c-0.113,0.217,0.22,0.249,0.217,0.405c0.016-0.18,0.284-0.156,0.362-0.086
	c-0.032,0.204-0.244,0-0.172,0.223c0.139-0.013,0.327,0.113,0.327-0.08c0.311-0.067,0.027,0.236,0.292,0.225
	c-0.156,0.166-0.536,0.032-0.536,0.303c0.169-0.134,0.384,0.121,0.593-0.142c-0.035,0.129-0.156,0.215-0.29,0.207
	c-0.035,0.19,0.461,0.083,0.158,0.349l0.215-0.08l-0.078,0.268c0.08,0.105,0.507,0.164,0.231,0.335
	c0.054,0.013,0.233,0.268,0.338,0.038c0-0.223-0.268-0.072-0.08-0.325c-0.121,0.241,0.188,0.185,0.322,0.22l-0.091,0.086
	l0.268,0.099l-0.131,0.131l0.193-0.062c0.231,0.134-0.228,0.244-0.029,0.402l-0.233-0.056c0.048,0-0.038,0.185,0.089,0.244
	l0.512-0.185c0.145,0.062-0.115,0.169,0.113,0.166h-0.268c-0.059,0-0.145,0.268-0.027,0.416c0.126,0.056,0.437,0.038,0.392-0.164
	c0.061,0.064,0.059,0.166-0.005,0.228c-0.021,0.02-0.047,0.034-0.076,0.041c0.177,0.126,0.123-0.139,0.322-0.067l-0.054,0.641
	l-0.338,0.04l0.078,0.105c-0.268,0.021-0.075,0.188-0.319,0.268l0.268,0.156c0.121-0.469,0.574-0.134,0.783-0.443
	c0.284,0.204-0.486,0.781,0.142,0.673c0.029-0.115,0.33-0.172,0.121-0.268c0.107,0.193,0.338-0.142,0.394,0.164
	c-0.22-0.046-0.123,0.416-0.443,0.354c0.097-0.07-0.035-0.185-0.086-0.193c-0.038,0.169-0.268,0.239-0.118,0.416
	c0.099,0.097,0.268,0.198,0.37,0.046c0.102-0.153-0.185-0.107,0.029-0.201c0.268,0.102,0.091,0.357,0.426,0.153
	c-0.156-0.075-0.048-0.255,0.048-0.354l0.22,0.043l-0.126,0.083c0.188,0.268,0.239-0.134,0.451,0.07l-0.059,0.284
	c-0.204,0.137-0.268-0.333-0.491-0.021c0.15,0.129,0.33,0.021,0.413,0.209l-0.153-0.03c0.043,0.051-0.215,0.48,0.198,0.418
	c0.19,0,0.115-0.08,0.209-0.185c0.284,0.153,0.44,0.094,0.62,0.193c-0.196,0.198,0.268,0.233-0.07,0.327
	c0-0.193-0.365-0.448-0.622-0.306c-0.107,0.319-0.177-0.185-0.44,0.03c0.212,0.158,0,0.402-0.097,0.59l0.223,0.032l0.182-0.357
	c0.188,0.205,0.471,0.294,0.743,0.236c0.021,0.137-0.118,0.282-0.22,0.223l0.84,0.654c0-0.405,0.335,0.158,0.354-0.156
	c-0.105-0.174-0.105-0.453,0.051-0.523c0.072,0.083-0.078,0.118-0.078,0.204c0.201-0.072,0.027,0.37,0.268,0.215
	c-0.303-0.099-0.252,0.3-0.424,0.483c0.268,0.016-0.099,0.153,0.091,0.29l0.805,0.118c0.196,0.333,0.754,0.303,1.017,0.4
	c0.094,0.172-0.102,0.4,0.035,0.507c0.182,0.072-0.029-0.341,0.193-0.113l-0.043,0.046c0.099-0.035,0.432,0.392,0.633,0.013
	l-0.174,0.268l0.166-0.04L62.449,76.5c0.118,0.247,0.381,0.051,0.574,0.086l-0.075-0.207c0.359-0.067,0.536,0.153,0.864,0.158
	l-0.046,0.172l0.209-0.064c-0.08,0.158,0.078,0.311,0.204,0.188l-0.587,0.322c-0.118-0.134,0.198-0.182,0.148-0.373
	c-0.051-0.19-0.346-0.177-0.435-0.021l0.228-0.038c-0.019,0.249-0.19,0.201-0.314,0.349l0.164,0.021l-0.475,0.051
	c0.161-0.067-0.035-0.172,0.038-0.228c-0.072,0.215-0.282,0.236-0.512,0.123c-0.115-0.268-0.507,0.016-0.764-0.164l0.566-0.298
	c-0.131-0.174-0.188-0.07-0.317-0.244c-0.131,0.123-0.268,0.343-0.536,0.349l0.048-0.161c-0.231,0-0.322,0.223-0.569,0.075
	c-0.405-0.268-0.901-0.384-1.175-0.649l0.062-0.15c-0.327,0.19-0.604-0.284-0.907-0.311c-0.287-0.408-0.909-0.472-0.939-0.84
	c-0.711-0.408-1.457-0.679-2.001-1.341l0.268-0.062c-0.217,0,0.035-0.172-0.083-0.268c-0.027,0.268-0.3,0.016-0.477,0.038
	c-0.105-0.426-0.553-0.66-0.896-0.805l0.115-0.121c-0.451-0.064-0.502-0.561-0.73-0.92c0.024-0.08,0.097-0.231,0-0.317
	c-0.357-0.019-0.418-0.126-0.767-0.295l-0.421-0.805c-0.829-0.681-1.009-1.69-1.561-2.508l0.156-0.134
	c-0.724-0.751-0.676-2.017-1.035-2.798l0.335,0.016l-0.016-0.193c0.451,0.29-1.073-0.783,0.992,0.633l-0.072,0.054
	c-0.096,0.067-0.13,0.194-0.08,0.3c-0.268-0.059-0.633,0.268-0.84,0.021c-0.268-0.021-0.311,0.201-0.518,0.268
	c-0.391-0.071-0.793-0.047-1.172,0.07h0.115c0.048-0.078,0.04-0.217-0.08-0.225c-0.166,0.105-0.657-0.032-0.448,0.341
	c-0.536-0.172-1.161,0.268-1.676,0c0.051,0.105-0.072,0.131-0.121,0.207c-0.437,0.032-0.917-0.161-1.258,0.043
	c-0.075-0.054,0.102-0.188-0.078-0.19c-0.102,0.046,0,0.137-0.123,0.207c-0.703,0.225-1.448-0.145-2.095-0.072
	c-1.145,0.268-2.347,0.166-3.449,0.225v-0.078c-0.37,0.306-0.869-0.303-1.167,0.153c-0.086-0.075-0.333-0.035-0.268-0.182
	c-0.298,0.209-0.823-0.19-1.258,0.072l0.113-0.043c-0.435-0.177-0.818,0.054-1.274-0.113l0.145-0.134
	c-0.172-0.156-0.426,0.325-0.515-0.056c-0.102,0-0.075,0.19-0.016,0.182c-1.014-0.145-2.181-0.027-3.262-0.306
	c-0.719-0.432,0.097-0.636-0.571-0.536c-0.03-0.078-0.07,0.134-0.056,0.054c-0.268,0.04-0.241-0.507-0.456-0.357
	c0,0.241-0.145,0.094-0.19,0.228c-0.421-0.268-0.44-0.494-0.864-0.432l0.072-0.105c-0.536,0.169-0.998-0.03-1.478,0.075
	c-2.283-1.29-4.388-2.661-5.724-4.608c2.698-1.363-3.474,0.536-4.665-0.099c-0.536-0.325-0.536-0.29-1.153-0.198l0.021-0.113
	c-0.03,0.268-0.426,0-0.486,0.252l-2.58-0.121c0.145-0.024,0.239-0.233,0.067-0.228l-0.193,0.158l-0.019-0.072
	c-0.121,0.032-0.268,0.156-0.153,0.244c-2.269-0.22-4.442-0.963-6.489-1.878c-0.448-0.322-1.186-0.536-1.741-0.727
	c-1.497-0.901-2.347-2.328-3.938-3.071c0.384-0.224,0.848-0.262,1.263-0.105"/>
<path id="_Tracé_8_3_" fill="#5D3739" d="M64.319,77.425c-0.038-0.139-0.207-0.249-0.032-0.394L64.319,77.425z"/>
<polygon id="_Tracé_9_3_" fill="#5D3739" points="60.167,74.563 60.137,74.451 60.293,74.499 "/>
<path id="_Tracé_10_3_" fill="#5D3739" d="M59.241,73.783c0.08-0.086,0.338-0.013,0.461,0.062L59.241,73.783z"/>
<path id="_Tracé_11_3_" fill="#5D3739" d="M58.64,72.745c0-0.131,0.046-0.161,0.142-0.083L58.64,72.745z"/>
<path id="_Tracé_12_3_" fill="#5D3739" d="M58.412,72.908l-0.062-0.209C58.289,72.777,58.563,72.774,58.412,72.908"/>
<path id="_Tracé_13_3_" fill="#5D3739" d="M56.926,71.049c-0.043-0.038-0.193-0.07-0.131-0.198
	C56.768,70.961,57.079,70.966,56.926,71.049"/>
<polygon id="_Tracé_14_3_" fill="#5D3739" points="56.092,70.288 56.03,70.223 56.186,70.172 "/>
<polygon id="_Tracé_15_3_" fill="#5D3739" points="37.925,63.794 38.051,63.737 38.032,63.85 "/>
<path id="_Tracé_16_3_" fill="#5D3739" d="M29.164,61.972c-0.134,0,0-0.142-0.016-0.166C29.242,61.854,29.038,61.908,29.164,61.972
	"/>
<polygon id="_Tracé_17_3_" fill="#5D3739" points="25.127,59.151 25.159,59.175 24.964,59.322 "/>
<path id="_Tracé_18_3_" fill="#5D3739" d="M23.767,92.465c0.247-0.882,1.389-0.869,1.845-1.609
	c0.064-0.072,0.153,0.303,0.284,0.121c0.413-0.789,1.553-1.261,2.527-1.312l-0.013,0.105c0.196,0,0.268-0.349,0.459-0.367
	l0.054,0.164c-0.032-0.185,0.268-0.185,0.3-0.341l0.268,0.233v-0.233c0.089-0.574,0.692-0.201,0.976-0.577l0.024,0.139
	c0.507-0.507,1.298-0.716,1.961-1.073l0.064,0.298c-0.024-0.231,0.174-0.362,0.349-0.469c0.142,0.201,0.268-0.317,0.52-0.268v0.056
	c0.113-0.295,0.268,0.054,0.341-0.268l0.145,0.164c0-0.335,0.268,0.131,0.378-0.054l-0.016-0.064
	c0.115-0.102,0.217,0.054,0.327-0.019l0.019,0.035c0.268-0.126,0.467,0.029,0.41-0.22c0.137,0.185-0.268,0.134-0.043,0.402
	c0.877-0.397,1.853-0.486,2.79-0.63l0.233,0.201l0.413-0.244l0.129,0.121c0.188,0.078,0.145-0.3,0.351-0.217l-0.038,0.268
	c0.131-0.223,0.346-0.223,0.523-0.314l-0.048,0.158c0.18-0.255,0.389,0,0.536-0.177l-0.043,0.156
	c0.317,0.134,0.04-0.319,0.311-0.249l-0.03,0.172c0.198-0.308,0.59-0.268,0.805-0.397v0.059c0.249-0.07,0.536-0.024,0.805-0.185
	c0.113,0.048,0,0.367,0.268,0.268c-0.048-0.298,0.437-0.204,0.236-0.51c0.236,0,0.614,0.056,0.751-0.07
	c-0.089,0.129,0.161,0.346-0.021,0.402l0.166,0.156c0,0.123-0.148-0.019-0.086,0.126c0.091-0.027,0.359-0.193,0.451-0.158
	c0.153-0.212,0.268-0.579,0.536-0.671c-0.118,0.145,0.126,0.317,0.046,0.381l0.306-0.63c0.091-0.035,0.059,0.228,0.185,0.129
	l0.059-0.209c0.043,0.029,0.381-0.142,0.475,0.142c0.062,0.11-0.145,0.089-0.021,0.174l0.341-0.172v0.04
	c0.129,0.024,0.322-0.18,0.164-0.322c-0.08,0,0.062,0.169-0.072,0.107c0.073-0.169,0.234-0.284,0.418-0.298l-0.035,0.223
	c0.174-0.232,0.404-0.416,0.668-0.536c-0.027-0.137-0.046,0.268-0.099,0.204c0.373,0.131,0.63-0.392,0.974-0.161
	c-0.043,0.032-0.07-0.19-0.056-0.156c0.164,0,0.201,0.19,0.287,0.097c0.043,0.115,0.129-0.056,0.228-0.107
	c0.032-0.097,0.038,0.051-0.051,0.078c0.304-0.238,0.69-0.345,1.073-0.295c0.017-0.138,0.1-0.259,0.223-0.325l0.016,0.185
	c0.099,0.097,0.268-0.064,0.314,0.08c0.115-0.244-0.609,0.308-0.421,0.099c0.099,0.137,0.252-0.338,0.268-0.089
	c0.164-0.035,0.268-0.292,0.456-0.158c-0.051-0.019-0.064,0.282,0.059,0.233c0.217-0.094,0.04-0.105,0.207-0.217l0.097-0.102
	c-0.038-0.177,0.209-0.035,0.07-0.207c0.072,0.137,0.306-0.18,0.359,0.118l0.032,0.233c0.089-0.043,0.094-0.282,0.142-0.405
	l0.059,0.094c-0.078-0.349,0.241-0.038,0.284-0.333c0.239,0.062,0.523-0.137,0.676,0.054c0.129-0.15,0.233-0.317,0.435-0.292
	l-0.062,0.148c0.145,0.07,0.145-0.032,0.231-0.113c0,0.056,0.284,0.139,0.445,0.225c0.129-0.15,0.019-0.319,0-0.437
	c0.239,0.303,0.37-0.341,0.644-0.086c-0.043,0.064-0.18,0.231-0.024,0.268c0.244,0.3,0.215-0.327,0.491-0.228l-0.142-0.268
	c0.153,0.148,0.287-0.268,0.357,0.038c0.046-0.118,0.295,0.019,0.188-0.249c0.448,0.129,0.869-0.394,1.255,0.027
	c0.043-0.059,0.19-0.051,0.118-0.18c-0.139-0.129-0.089,0.145-0.158,0.046l0.027-0.134c0.139,0.027,0.236,0.021,0.198,0.282
	c0.317,0.094,0.11-0.536,0.491-0.536l0.156,0.107l0.126-0.249c0.236,0,0.209,0.225,0.268,0.416l0.268-0.252l0.217,0.201
	c-0.161-0.145,0.062-0.139,0.102-0.204l-0.04,0.064c0.046,0.072,0.161-0.016,0.225-0.059l-0.29-0.137l0.182-0.231
	c0.03,0.196,0.236,0.08,0.335,0.078c0.099-0.003,0.072-0.207,0.105-0.207c0.032,0.097,0.18-0.035,0.137,0.129
	c-0.029,0.04-0.113-0.078-0.148,0.03c0.091,0.054,0.134,0.231,0.244,0.062c0.086-0.123-0.137-0.367,0.107-0.303l-0.054,0.22
	l0.22,0.046l-0.038-0.177l0.043,0.078c0-0.201,0.287-0.139,0.268-0.354l0.338,0.051l-0.013,0.027
	c0.139,0.064,0.268-0.046,0.343-0.188v0.04l0.268-0.201c0.19,0.091,0.209,0.646,0.333,0.381c0.161-0.054,0.182-0.394,0.086-0.488
	c0.325,0.04,0.593-0.338,0.923-0.139l0.067-0.185c0.448-0.035,0.864-0.494,1.282-0.172c-0.115,0.083,0.024,0.177,0.046,0.268
	c0.08-0.166,0.161,0.153,0.15-0.121l-0.182-0.295c0.268-0.107,0.673-0.142,0.848,0c-0.089-0.07-0.04-0.123,0.013-0.172
	c0.021,0.268,0.22,0.268,0.359,0.174V80.11l0.121,0.156c0.054-0.056,0.024-0.333,0.196-0.196l0.059,0.161
	c0.142-0.137,0.346-0.373,0.536-0.252l0.156,0.217c0.072-0.03,0.185-0.177,0.051-0.233c0.306,0.118,0.491,0.121,0.593,0.311
	c0.469-0.523,1.215-0.595,1.797-0.606l-0.016,0.123c0.153,0.102,0.086-0.223,0.193-0.131c-0.054,0.107,0.105,0.268,0,0.386
	c0.209,0.145,0.268-0.18,0.432-0.217c0.03-0.156-0.121,0.086-0.086-0.107c0.03-0.054,0.3,0.15,0.346-0.078l-0.032,0.354l0.137-0.099
	c0.148,0.29-0.392,0.453-0.236,0.805l0.123-0.027c0.105,0.255-0.333,0.244-0.032,0.357c0.137-0.102,0.268-0.429,0.15-0.536
	c0.268-0.038,0.158-0.536,0.459-0.496c0.075,0.142-0.244,0-0.196,0.207c0.129,0.201,0.287-0.078,0.413,0
	c-0.137-0.099,0-0.327,0.091-0.362c0.145,0.131-0.115,0.215,0.097,0.268c0.048-0.129,0.255-0.215,0.091-0.325
	c0.099-0.3,0.22,0.105,0.359-0.121c0.054,0.223-0.268,0.475-0.035,0.609c-0.021-0.212,0.317-0.255,0.217-0.574
	c0.082,0.104,0.082,0.25,0,0.354c0.121,0.142,0.359-0.349,0.365,0.07l0.07-0.209l0.145,0.252c0.118,0.016,0.41-0.249,0.362,0.067
	c0.043-0.027,0.308,0.013,0.233-0.215c-0.15-0.153-0.212,0.142-0.268-0.169c0.091,0.255,0.247,0,0.351-0.078v0.123
	c0.064-0.043,0.196,0,0.247-0.131v0.19l0.083-0.182c0.249-0.072,0,0.333,0.249,0.303l-0.193,0.126
	c0.04-0.027,0.094,0.158,0.209,0.107l0.233-0.491c0.139-0.064,0.03,0.196,0.18,0.035l-0.193,0.188
	c-0.032,0.051,0.072,0.292,0.239,0.308c0.121-0.048,0.33-0.268,0.169-0.386c0.082,0.009,0.142,0.083,0.133,0.165
	c-0.003,0.027-0.013,0.052-0.029,0.073c0.198-0.021,0-0.188,0.185-0.268l0.322,0.51l-0.212,0.268l0.11,0.027
	c-0.18,0.198,0.048,0.185-0.072,0.41l0.268-0.062c-0.158-0.426,0.341-0.483,0.33-0.848c0.327-0.043,0.054,0.893,0.464,0.4
	c-0.038-0.099,0.158-0.343-0.051-0.268c0.182,0.08,0.188-0.322,0.394-0.139c-0.196,0.113,0.115,0.389-0.164,0.555
	c0.038-0.115-0.115-0.11-0.161-0.086c0.059,0.148-0.075,0.351,0.121,0.386c0.123,0,0.292,0,0.303-0.177
	c0.011-0.177-0.193,0-0.078-0.201c0.247-0.027,0.233,0.287,0.394-0.051c-0.156,0-0.158-0.217-0.134-0.354l0.193-0.054l-0.059,0.131
	c0.268,0.148,0.129-0.231,0.394-0.142l0.08,0.287c-0.102,0.217-0.378-0.177-0.394,0.207c0.174,0.048,0.268-0.131,0.413,0
	l-0.134,0.048c0.062,0.024,0.04,0.536,0.341,0.284c0.148-0.086,0.056-0.126,0.083-0.268c0.295,0,0.405-0.115,0.59-0.102
	c-0.086,0.268,0.322,0.083,0.064,0.322c-0.129-0.172-0.373-0.207-0.545-0.078c-0.029,0.022-0.056,0.048-0.078,0.078
	c0.046,0.341-0.215-0.086-0.335,0.233c0.231,0.048,0.164,0.357,0.164,0.574l0.177-0.078v-0.402c0.233,0.094,0.499,0.044,0.681-0.129
	c0.064,0.113,0,0.303-0.102,0.303l0.907,0.19c-0.123-0.351,0.335-0.016,0.268-0.303c-0.137-0.097-0.233-0.349-0.118-0.477
	c0.094,0.04-0.03,0.139,0,0.217c0.156-0.156,0.134,0.308,0.306,0.059c-0.292,0.054-0.126,0.376-0.225,0.614
	c0.225-0.107-0.04,0.174,0.153,0.209l0.708-0.193c0.231,0.268,0.695,0.121,0.936,0.153c0.107,0.145-0.027,0.416,0.102,0.486
	c0.166,0.021-0.067-0.325,0.153-0.156l-0.032,0.051c0.086-0.051,0.416,0.268,0.536-0.123L79.2,82.543l0.139-0.059l-0.062,0.255
	c0.115,0.236,0.319,0.019,0.48,0.035l-0.075-0.193c0.3-0.099,0.459,0.113,0.735,0.094l-0.032,0.177l0.174-0.08
	c-0.059,0.164,0.07,0.3,0.177,0.172l-0.483,0.365c-0.099-0.126,0.158-0.196,0.11-0.381c-0.048-0.185-0.298-0.156-0.362,0
	l0.188-0.056c0,0.252-0.148,0.217-0.241,0.373h0.131l-0.384,0.086c0.126-0.078-0.038-0.164,0.016-0.228
	c-0.043,0.215-0.212,0.255-0.402,0.164c-0.11-0.268-0.413,0.094-0.638,0l0.437-0.424l-0.295-0.161c-0.094,0.153-0.19,0.4-0.4,0.464
	l0.021-0.164c-0.19,0.051-0.231,0.292-0.448,0.209l-1.049-0.268l0.021-0.161c-0.223,0.319-0.566,0.04-0.805,0.153
	c-0.338-0.225-0.823,0-0.966-0.303c-0.64,0.041-1.282-0.012-1.907-0.156l0.148-0.217c-0.148,0.15-0.056-0.15-0.172-0.137
	c0.097,0.215-0.209,0.215-0.319,0.346c-0.268-0.239-0.679-0.11-0.968,0v-0.164c-0.317,0.241-0.59-0.038-0.915-0.126l-0.172-0.22
	c-0.215,0.244-0.306,0.217-0.587,0.359l-0.681-0.241c-0.754,0.3-1.47,0-2.232,0.137l-0.043-0.196c-0.73,0.37-1.593,0.139-2.194,0.37
	l0.04-0.33c-0.134-0.064-0.294-0.008-0.358,0.126c-0.034,0.07-0.035,0.152-0.004,0.223c-0.204-0.086-0.456,0.19-0.606-0.067
	c-0.204-0.043-0.223,0.166-0.378,0.225c-0.28-0.069-0.573-0.055-0.845,0.04L63.09,82.6l-0.086-0.228
	c-0.126,0.099-0.536-0.054-0.319,0.322c-0.432-0.158-0.866,0.421-1.304,0.217l-0.064,0.225c-0.335,0.094-0.743-0.016-0.971,0.233
	c-0.067-0.035,0.04-0.198-0.099-0.172l-0.054,0.225c-0.502,0.343-1.167,0.107-1.658,0.292c-0.842,0.453-1.776,0.593-2.682,0.882
	L55.84,84.52c-0.204,0.373-0.786-0.099-0.891,0.402c-0.091-0.056-0.268,0.04-0.268-0.118c-0.18,0.268-0.724,0-0.99,0.343
	l0.075-0.062c-0.392-0.07-0.63,0.244-1.038,0.193l0.078-0.164c-0.182-0.107-0.241,0.413-0.426,0.07
	c-0.078,0.027,0,0.201,0.043,0.174c-0.834,0.083-1.625,0.553-2.436,0.869c-0.66-0.099-0.19-0.606-0.606-0.249
	c-0.054-0.062,0,0.148-0.019,0.072c-0.164,0.134-0.392-0.362-0.469-0.148c0.107,0.217-0.056,0.145-0.027,0.268
	c-0.416-0.078-0.536-0.268-0.791-0.046v-0.123c-0.268,0.397-0.708,0.282-0.923,0.724c-1.891,0.402-3.731,0.955-5.582,1.301
	c-1.8,0.188-3.514,0.622-5.365,0.681c-0.488-0.255-0.518-0.241-0.96-0.046v-0.115c0.027,0.268-0.325,0.075-0.317,0.33
	c-0.711,0-1.247,0.29-1.878,0.515c0.094-0.062,0.089-0.29-0.027-0.231l-0.08,0.204l-0.04-0.062c-0.07,0.067-0.126,0.223-0.019,0.268
	c-1.462,0.821-3.278,0.644-4.716,1.505c-0.384,0.107-0.805,0.499-1.145,0.773c-1.245,0.367-2.414,0.759-3.374,1.65
	c0,0-0.268-0.636,0.113-1.057"/>
<polygon id="_Tracé_19_3_" fill="#5D3739" points="77.012,81.516 76.958,81.43 77.097,81.403 "/>
<path id="_Tracé_20_3_" fill="#5D3739" d="M75.979,81.242c0.04-0.113,0.268-0.166,0.413-0.153L75.979,81.242z"/>
<path id="_Tracé_21_3_" fill="#5D3739" d="M75.083,80.599c-0.064-0.113-0.035-0.164,0.083-0.139L75.083,80.599z"/>
<path id="_Tracé_22_3_" fill="#5D3739" d="M74.97,80.848l-0.142-0.158C74.828,80.789,75.032,80.66,74.97,80.848"/>
<path id="_Tracé_23_3_" fill="#5D3739" d="M72.897,80.124c-0.051,0-0.18,0.078-0.209-0.059
	C72.728,80.161,72.956,79.963,72.897,80.124"/>
<polygon id="_Tracé_24_3_" fill="#5D3739" points="71.872,80.137 71.786,80.132 71.864,79.987 "/>
<path id="_Tracé_25_3_" fill="#5D3739" d="M75.947,74.663c0.652-0.054,0.131,0.268,0.563,0.268c0.032,0-0.317,0.102-0.223,0.107
	c0.512-0.038,0.33,0.217,0.072,0.52l-0.089,0.03c-0.048,0.056,0.268-0.04,0.228,0l-0.161,0.07c0.174-0.075,0.107,0.019,0.241-0.032
	l-0.268,0.158l0.201-0.075c0.488-0.18,0.03,0.129,0.3,0.07L76.69,75.84c0.327-0.048,0.341,0.097,0.494,0.148l-0.268,0.156
	c0.198-0.113,0.268-0.113,0.314-0.11c-0.19,0.142,0.209-0.064,0.115,0.038l-0.043,0.027c0.215-0.11-0.102,0.115,0.156-0.03
	l-0.145,0.118c0.268-0.174-0.126,0.129,0.024,0.056l0.056-0.035v0.064l-0.032,0.021c0.097,0-0.043,0.121,0.164-0.03
	c-0.158,0.131-0.094,0.016-0.327,0.209c0.192-0.008,0.371,0.097,0.459,0.268l-0.164,0.166l0.188-0.051l-0.099,0.102
	c-0.059,0.083,0.244-0.15,0.174-0.054l-0.207,0.142c0.174-0.099,0.174-0.051,0.249-0.07l-0.129,0.086c0.201-0.11,0,0.08,0.137,0.013
	l-0.126,0.08c-0.11,0.153,0.268-0.174,0.196-0.08l-0.134,0.097c0.241-0.134,0.212-0.027,0.308-0.056l-0.046,0.038l0.137,0.067
	c-0.043,0.054-0.29,0.217-0.22,0.22c0.236-0.185,0.15-0.016,0.402-0.247c-0.016,0.062-0.067,0.182,0.03,0.137
	c-0.099,0.059-0.268,0.239-0.314,0.231l-0.131,0.134l-0.091,0.056h0.11c0.159-0.11,0.331-0.2,0.512-0.268l-0.3,0.239l0.488-0.303
	c0.021,0-0.18,0.148-0.105,0.121l0.161-0.11c-0.027,0.029,0.102,0-0.126,0.193l-0.131,0.099l0.123-0.021l-0.035,0.03
	c-0.016,0.04,0.134-0.035,0.252-0.156c0-0.016-0.137,0.118-0.083,0.048l0.225-0.078l-0.172,0.121l0.394-0.156
	c0.113-0.083-0.209,0.15-0.156,0.094c-0.115,0.172,0.292-0.078,0.099,0.142l0.123-0.107c0,0.032-0.153,0.161-0.083,0.126
	c-0.094,0.078,0.043,0,0.083-0.013c0.04-0.013-0.043,0.04-0.062,0.038c0.097-0.046,0.3-0.083,0.204,0.078l0.249-0.139l-0.145,0.113
	c-0.08,0.078,0.04,0.024-0.08,0.123c0.193-0.118-0.215,0.035-0.059-0.043c-0.11,0.105,0.268-0.142,0.064,0
	c0.021,0.019,0.198-0.094,0.08,0.035c0.019-0.024-0.209,0.148-0.182,0.156l0.139-0.059l0.07-0.035c0.139-0.113,0,0.043,0.153-0.097
	c-0.113,0.099,0.107,0-0.126,0.174l-0.185,0.142l0.295-0.19l-0.078,0.072c0.268-0.228,0,0.048,0.231-0.107
	c-0.072,0.105,0.046,0.072-0.11,0.233c0.099-0.048,0.212-0.105,0.174-0.03l-0.102,0.067c-0.072,0.08,0,0.027,0.059,0l-0.225,0.268
	l0.338-0.244c-0.268,0.244,0.225-0.072,0,0.156l-0.217,0.145c-0.268,0.239,0.236-0.113,0.126,0.024l0.223-0.188
	c-0.129,0.126,0.174-0.054-0.064,0.129c0.091-0.054-0.048,0.102,0.177-0.075c-0.153,0.201,0.217,0.056-0.169,0.397l0.137-0.059
	c0.115-0.113-0.107,0.048-0.024-0.024l0.11-0.064c-0.038,0.056-0.046,0.086-0.249,0.207c-0.115,0.148,0.421-0.244,0.365-0.126
	l-0.102,0.105l0.185-0.091c-0.016,0.062-0.207,0.172-0.373,0.29l0.18-0.051l-0.196,0.166c0.142-0.121,0.11-0.054,0.156-0.075
	l-0.046,0.021l0.016,0.038l0.15-0.156l0.166-0.064c-0.161,0.11-0.094,0.113-0.105,0.139l0.158-0.075c-0.08,0.056,0,0.04-0.121,0.105
	v-0.027c-0.056,0.051-0.204,0.153-0.083,0.102c0.121-0.051,0.322-0.225,0.241-0.118l-0.177,0.091L80.3,79.316l0.15-0.099
	l-0.067,0.051c0.161-0.097,0.078,0.013,0.268-0.097l-0.089,0.123H80.55c-0.078,0.078,0,0.059,0.11,0l-0.032,0.021l0.131-0.021
	c-0.099,0.097-0.569,0.376-0.359,0.268c0.144-0.047,0.279-0.118,0.4-0.209c-0.075,0.11,0.207,0,0,0.198l0.145-0.07
	c-0.016,0.105,0.282,0.03,0,0.268l-0.239,0.142c0.148-0.067-0.131,0.105,0.107-0.03l0.249-0.174c0.105,0,0.142,0.059,0.027,0.156
	l0.156-0.08c-0.225,0.126-0.236,0.174-0.145,0.153l0.139-0.078l-0.131,0.097c0.051-0.016,0.298-0.156,0.18-0.059l-0.142,0.091
	c0.126-0.038,0.343-0.113,0.244-0.024l-0.193,0.131l0.215-0.099l-0.268,0.252c0.477-0.156,0.569-0.054,0.598,0.051l-0.11,0.048
	c-0.083,0.072,0.196-0.08,0.134-0.027l-0.346,0.172c-0.091,0.089,0.201-0.038,0.268-0.032c0.145-0.064-0.097,0.016,0.089-0.062
	c0.051-0.021-0.099,0.115,0.121,0.021l-0.33,0.15l0.107-0.021l-0.759,0.311h0.04c-0.215,0.123-0.268,0.059-0.325,0.145l0.51-0.207
	c0.072,0.021,0.512-0.209,0.51-0.139c-0.118,0.072-0.04-0.035-0.212,0.054c-0.172,0.089,0.107,0.013,0.054,0.067l0.341-0.129
	l-0.223,0.115l0.308-0.11c0.292-0.102-0.062,0.078,0.164,0.016c-0.193,0.058-0.381,0.134-0.561,0.225
	c0.189-0.047,0.374-0.108,0.555-0.18l-0.325,0.139c-0.118,0.067,0.373-0.07-0.016,0.086l0.204-0.064l-0.215,0.113
	c0,0.027,0.29-0.013-0.013,0.091c0.032,0,0.032,0.056,0.236-0.038c0.121-0.078-0.164,0.016,0.115-0.105
	c-0.223,0.105,0.043,0.043,0.129,0.038l-0.121,0.043h0.161l-0.177,0.062l0.185-0.046c0.105,0.03-0.314,0.115-0.249,0.148h-0.148
	c0.032,0-0.139,0.07-0.072,0.078l0.499-0.113c0.078,0-0.185,0.064-0.013,0.046l-0.215,0.067c-0.051,0-0.268,0.105-0.252,0.139
	l0.389-0.083l-0.209,0.086l0.29-0.04l-0.413,0.198l-0.292,0.032v0.024c-0.225,0.027-0.161,0.059-0.405,0.099l0.118,0.021
	l0.872-0.158c0.107,0.051-0.84,0.223-0.268,0.18c0.091-0.032,0.362-0.048,0.252-0.075c-0.03,0.054,0.354-0.04,0.223,0.043
	L81.781,81.8c0.115-0.016,0.08-0.046,0.046-0.046c-0.131,0.04-0.351,0.067-0.343,0.107c0.008,0.04,0.051,0.048,0.233,0
	s-0.035-0.032,0.174-0.054c0.083,0.038-0.225,0.102,0.137,0.064c-0.035-0.032,0.169-0.078,0.308-0.099l0.091,0.024l-0.134,0.019
	c-0.086,0.08,0.244-0.021,0.22,0.051l-0.268,0.07c-0.231,0.021,0.086-0.107-0.268-0.038c0,0.04,0.18,0.024,0.091,0.078l-0.078-0.016
	c0,0.016-0.502,0.099-0.204,0.107l0.268-0.024l0.233,0.105c-0.268,0.016-0.016,0.078-0.306,0.056
	c0.161-0.035,0.129-0.131-0.134-0.118c-0.317,0.064,0.035-0.054-0.295-0.021c0,0.048-0.317,0.086-0.52,0.118L81.14,82.2l0.397-0.056
	c-0.046,0.056,0.07,0.091,0.268,0.105c-0.102,0.028-0.209,0.035-0.314,0.021v0.182c0.314-0.056,0.083,0.056,0.343,0.021l0.445-0.067
	l-0.212,0.019c0.18,0.016-0.268,0.051,0,0.07c-0.214-0.03-0.43-0.03-0.644,0c0.148,0.035-0.185,0-0.174,0.043l0.327,0.123
	c-0.231,0.051,0.016,0.134,0.03,0.185c-0.118,0.021-0.405,0-0.453,0.019c0,0.03,0.303,0,0.182,0.03h-0.056
	c0.067,0.016-0.182,0.064,0.231,0.11l-0.314-0.035l0.08,0.027l-0.268-0.024c-0.207,0.013,0.043,0.056,0.056,0.089h0.182
	c0.148,0.067-0.027,0.078,0.048,0.134l-0.182-0.021l0.113,0.043c-0.174-0.03-0.268-0.019-0.137,0.013l-0.443-0.121l0.389,0.054
	c0.15,0,0.094-0.04-0.078-0.067l0.086,0.04c-0.136-0.015-0.27-0.041-0.402-0.075l0.019,0.024l-0.161-0.07l0.225,0.016
	c-0.217-0.021-0.29-0.051-0.239-0.078c0.252,0-0.177-0.07-0.11-0.099l0.502,0.086l0.094-0.043l-0.536-0.072h0.166
	c-0.089-0.032-0.33-0.038-0.292-0.07l0.07-0.15h0.158c-0.351-0.013-0.145-0.075-0.306-0.099c0.148-0.064-0.177-0.099,0.097-0.153
	c-0.142-0.086-0.268-0.139-0.241-0.244l0.239-0.03c-0.174,0,0.134-0.038,0.097-0.048l-0.394,0.043
	c0.174-0.08-0.032-0.091-0.196-0.086l0.156-0.04c-0.3,0.04-0.048-0.07,0-0.129l0.19-0.091c-0.131,0.03-0.265,0.048-0.4,0.054
	l0.142-0.156c-0.357,0.038-0.15-0.148-0.362-0.15l0.174-0.091c-0.416,0.086-0.182-0.196-0.416-0.18l0.292-0.148
	c0.072-0.075-0.118-0.016-0.314,0.099c0.067-0.07-0.188,0.016,0.038-0.131c0.032-0.056-0.15,0.04-0.209,0.043
	c0.075-0.113,0.035-0.115-0.054-0.137v0.024l0.198-0.121c-0.094,0.027,0.03-0.115-0.298,0.099c0.158-0.164-0.241-0.021-0.016-0.228
	l-0.177,0.091c-0.038-0.043,0.115-0.204-0.064-0.145l0.161-0.107l-0.182,0.091c-0.215,0.04,0.07-0.268-0.019-0.3
	c-0.252,0-0.247-0.18-0.351-0.268l0.062-0.046c-0.268,0.142,0.182-0.282-0.193-0.035l0.129-0.139
	c-0.19,0.099,0.099-0.212-0.142-0.089l0.038-0.016c0.107-0.15-0.107-0.043-0.016-0.19l0.121-0.07c0.102-0.115-0.29,0.166,0-0.086
	l-0.142,0.113c0.035-0.196-0.268-0.164-0.413-0.22c0.107-0.231,0.488-0.41,0.217-0.3l-0.059,0.04
	c-0.097,0.043,0.3-0.308,0.131-0.196c-0.169,0.113-0.11,0.07-0.22,0.153c0.075-0.142,0.228-0.282,0.059-0.212l0.099-0.075
	c-0.306,0.174-0.207,0-0.553,0.215l-0.888-0.536c-0.142-0.295-0.483-0.432-0.52-0.805c0.212-0.268,0.204-0.268,0.048-0.268
	l0.097-0.059c-0.22,0.148-0.059-0.048-0.268,0.089l-0.236-0.37c0.038,0,0.228-0.099,0.198-0.113l-0.156,0.059l0.059-0.04
	l-0.228,0.113c-0.389-0.236-0.099-0.826-0.322-1.121c0.07-0.121-0.083-0.196-0.18-0.268c0.207-0.384,0.381-0.657,0.021-0.845
	c0.288-0.059,0.583-0.085,0.877-0.078"/>
<path id="_Tracé_26_3_" fill="#5D3739" d="M82.272,82.047h0.148H82.272z"/>
<path id="_Tracé_27_3_" fill="#5D3739" d="M82.006,82.06l0.123-0.054C82.03,82.007,82.199,82.042,82.006,82.06"/>
<path id="_Tracé_28_3_" fill="#5D3739" d="M82.25,81.511c0,0-0.11,0,0.013-0.054C82.175,81.489,82.417,81.481,82.25,81.511"/>
<polygon id="_Tracé_29_3_" fill="#5D3739" points="82.033,81.325 82.022,81.309 82.172,81.277 "/>
<polygon id="_Tracé_30_3_" fill="#5D3739" points="79.962,78.488 80.021,78.469 79.925,78.533 "/>
<path id="_Tracé_31_3_" fill="#5D3739" d="M79.115,77.423c-0.067,0.032,0.08-0.08,0.094-0.094L79.115,77.423z"/>
<polygon id="_Tracé_32_3_" fill="#5D3739" points="78.197,77.23 78.203,77.23 78.012,77.377 "/>
<path id="_Tracé_33_3_" fill="#5D3739" d="M81.69,65.178c-0.056-0.046-0.196,0.067-0.097-0.019
	C81.69,65.146,81.762,65.146,81.69,65.178"/>
<path id="_Tracé_34_3_" fill="#5D3739" d="M82.529,80.215c-0.62-0.15,0-0.416-0.402-0.595c-0.027-0.019,0.333,0,0.252-0.059
	c-0.48-0.169-0.204-0.485,0.156-0.73h0.097c0.067-0.048-0.247-0.086-0.207-0.134h0.174c-0.19,0-0.089-0.078-0.231-0.094l0.308-0.054
	l-0.22-0.016c-0.515-0.056,0.029-0.185-0.236-0.268h0.137c-0.314-0.15-0.268-0.357-0.381-0.536h0.3c-0.228,0-0.29-0.056-0.335-0.105
	c0.233-0.03-0.217-0.072-0.086-0.137h0.051c-0.247-0.032,0.142-0.067-0.156-0.089l0.185-0.038c-0.33,0,0.169-0.067,0-0.097h-0.07
	c-0.08-0.032,0.089-0.054,0.03-0.083h0.035c-0.086-0.067,0.097-0.121-0.164-0.107c0.207-0.032,0.099,0.067,0.394,0.013
	c-0.268-0.225-0.225-0.472-0.233-0.711l0.231-0.059l-0.182-0.105l0.142-0.035c0.094-0.046-0.284-0.032-0.174-0.086h0.249
	c-0.198-0.038-0.172-0.091-0.236-0.137l0.15,0.013c-0.228-0.043,0.046-0.097-0.099-0.139h0.15c0.177-0.083-0.314,0-0.209-0.078
	h0.169c-0.268-0.048-0.188-0.153-0.268-0.209h0.062c-0.035-0.059,0.046-0.131-0.075-0.198c0.067-0.03,0.365,0,0.311-0.072
	c-0.298,0.013-0.129-0.113-0.467-0.056c0.048-0.062,0.161-0.156,0.054-0.196c0.115,0.021,0.365-0.04,0.397,0l0.174-0.043
	c0.123,0-0.038,0.038,0.11,0.021l-0.078-0.115c-0.185-0.038-0.536-0.067-0.569-0.137l0.384-0.013l-0.579-0.078
	c-0.013-0.024,0.236-0.016,0.156-0.046l-0.19-0.019c0.035-0.013-0.078-0.099,0.217-0.121h0.166l-0.113-0.086h0.04
	c0.043-0.032-0.129-0.083-0.29-0.046c0,0.024,0.177-0.013,0.094,0.021c-0.169,0-0.223-0.067-0.225-0.113h0.209
	c-0.148-0.029-0.289-0.09-0.41-0.18c-0.139,0,0.268,0.019,0.188,0.027c0.188-0.091-0.268-0.164,0-0.247
	c-0.053,0.006-0.107,0.006-0.161,0c0.013-0.04,0.22-0.046,0.142-0.072c0.123,0-0.038-0.03-0.072-0.059c-0.089,0,0.056,0,0.07,0.016
	c-0.099-0.035-0.29-0.185-0.118-0.282c-0.078,0-0.292-0.043-0.284-0.064h0.185c0.113-0.024-0.019-0.072,0.139-0.08
	c-0.225-0.035,0.198,0.164,0.024,0.11c0.153-0.024-0.298-0.075-0.046-0.072c0-0.038-0.223-0.067-0.048-0.115
	c-0.027,0.013,0.268,0.021,0.247,0l-0.153-0.059l-0.078-0.024c-0.182,0,0.027-0.056-0.18-0.027c0.15-0.013-0.091-0.083,0.207-0.089
	h0.215C81.389,73,81.27,72.983,81.15,72.978l0.107-0.013c-0.362,0.013,0.03-0.062-0.249-0.083c0.123-0.054,0-0.131,0.225-0.166
	c-0.118-0.038-0.247-0.067-0.174-0.118l0.121,0.019c0.107-0.032,0-0.035-0.051-0.059l0.33-0.102l-0.424-0.016
	c0.351-0.054-0.236-0.102,0.078-0.161l0.268,0.013c0.349-0.054-0.268-0.062-0.102-0.131l-0.295,0.032
	c0.18-0.038-0.177-0.08,0.121-0.089c-0.105-0.013,0.091-0.078-0.193-0.051c0.231-0.113-0.164-0.231,0.333-0.319
	c-0.048-0.013,0-0.048-0.148-0.038c-0.148,0.011,0.115,0.03,0,0.046h-0.126c0.064-0.038,0.078-0.062,0.322-0.046
	c0.172-0.08-0.494-0.04-0.389-0.134l0.139-0.038l-0.204-0.03c0.038-0.062,0.268-0.051,0.461-0.064
	c-0.035-0.027-0.03-0.064-0.182-0.064l0.252-0.059c-0.182,0.04-0.126-0.016-0.18-0.027h0.054c0.086,0,0.032-0.046,0-0.056
	l-0.201,0.072l-0.174-0.048c0.19,0,0.129-0.059,0.15-0.083s-0.177-0.019-0.172-0.03c0.099,0,0-0.043,0.156-0.032
	c0.032,0-0.099,0.03,0,0.038c0.099,0.008,0.249-0.035,0.115-0.059s-0.384,0.032-0.268-0.027l0.196,0.013l0.097-0.056h-0.18h0.086
	c-0.185,0-0.064-0.072-0.268-0.067l0.131-0.089h0.019c0.099-0.038,0.03-0.067-0.091-0.083h0.035l-0.126-0.064
	c0.129-0.054,0.676-0.07,0.445-0.097c-0.146-0.034-0.299-0.034-0.445,0c0.113-0.08-0.188-0.142,0.086-0.231l-0.164-0.016
	c0.062-0.113-0.236-0.201,0.11-0.319l0.268-0.027c-0.161,0,0.161-0.048-0.113-0.029l-0.3,0.059c-0.094-0.056-0.105-0.15,0.048-0.201
	h-0.177c0.268-0.019,0.29-0.07,0.198-0.097h-0.161l0.161-0.038c-0.054,0-0.327,0.021-0.185-0.032l0.18,0.027
	c-0.131-0.027-0.357-0.054-0.225-0.11l0.225-0.056h-0.231l0.338-0.172c-0.491-0.064-0.536-0.231-0.51-0.367l0.118-0.013
	c0.105-0.048-0.204,0-0.126-0.03l0.378-0.043c0.121-0.067-0.207-0.046-0.268-0.07c-0.156,0.013,0.102,0.013-0.094,0.03
	c-0.056,0,0.113-0.086-0.123-0.064l0.357-0.04l-0.113-0.016L81.25,68.7l-0.04-0.021c0.244-0.062,0.282,0.046,0.357-0.04
	c-0.186-0.02-0.373-0.008-0.555,0.035c-0.072-0.059-0.558,0.04-0.536-0.035c0.134-0.038,0.04,0.054,0.231,0.013
	c0.19-0.04-0.113-0.056-0.048-0.094l-0.373,0.035l0.241-0.062l-0.327,0.027c-0.308,0.019,0.078-0.067-0.161-0.064
	c0.215-0.046,0.499,0,0.601-0.08c-0.196-0.002-0.393,0.01-0.587,0.035l0.346-0.054c0.126-0.046-0.384-0.024,0.024-0.089
	l-0.212,0.013l0.228-0.07c0-0.03-0.292-0.054,0.03-0.091c-0.038,0-0.03-0.072-0.247-0.016c-0.131,0.056,0.164,0.024-0.131,0.086
	c0.241-0.062-0.032-0.051-0.118-0.064l0.118-0.021l-0.156-0.029l0.182-0.032h-0.188c-0.099-0.043,0.327-0.056,0.268-0.105
	l0.148,0.019c-0.03,0,0.145-0.046,0.083-0.062l-0.512,0.032c-0.078-0.019,0.188-0.04,0.013-0.046h0.209
	c0.054,0,0.268-0.072,0.268-0.113l-0.402,0.038l0.223-0.07h-0.292l0.432-0.164h0.29v-0.024c0.228,0,0.174-0.046,0.41-0.062
	l-0.113-0.043c-0.376,0.113-0.536,0.016-0.882,0.083c-0.105-0.062,0.853-0.177,0.295-0.174c-0.091,0.027-0.362,0.035-0.268,0.064
	c0.038-0.051-0.349,0.024-0.209-0.056l0.563-0.072c-0.115,0.016-0.086,0.048-0.048,0.051c0.131-0.038,0.351-0.051,0.349-0.099
	s-0.048-0.064-0.233-0.027s0.03,0.04-0.177,0.054c-0.075-0.048,0.228-0.105-0.129-0.075c0.03,0.032-0.177,0.075-0.311,0.097
	l-0.091-0.032l0.137-0.013c0.089-0.08-0.247,0.019-0.217-0.054l0.268-0.07c0.231-0.021-0.089,0.11,0.268,0.038
	c0.013-0.043-0.177-0.024-0.086-0.086l0.078,0.021c0-0.016,0.502-0.11,0.207-0.129l-0.268,0.035l-0.22-0.105
	c0.268-0.032,0.021-0.08,0.3-0.078c-0.153,0.048-0.131,0.145,0.131,0.134c0.319-0.083-0.04,0.056,0.287,0.021
	c0-0.056,0.314-0.105,0.52-0.148l-0.113-0.021l-0.384,0.078c0.048-0.072-0.07-0.115-0.268-0.121c0.1-0.038,0.208-0.051,0.314-0.038
	v-0.236c-0.314,0.102-0.08-0.064-0.343,0l-0.437,0.126l0.209-0.046c-0.177,0,0.268-0.094,0-0.078c0.11,0.051,0.389-0.056,0.638-0.08
	C80.689,66.42,81.006,66.42,81,66.369l-0.311-0.113c0.225-0.113-0.016-0.18-0.032-0.239c0.123-0.051,0.402-0.083,0.448-0.126
	c0-0.04-0.295,0.086-0.177,0h0.056c-0.067,0,0.177-0.148-0.22-0.091l0.3-0.04l-0.078-0.016l0.252-0.04
	c0.212-0.078-0.04-0.072-0.054-0.115l-0.177,0.059c-0.142-0.043,0.029-0.123-0.043-0.182l0.177-0.03l-0.113-0.019
	c0.172-0.021,0.284-0.083,0.137-0.075l0.44,0.027l-0.386,0.056c-0.15,0.046-0.094,0.097,0.075,0.078l-0.089-0.032
	c0.133-0.026,0.27-0.034,0.405-0.024l-0.016-0.032l0.153,0.064l-0.223,0.046c0.217-0.035,0.287,0,0.233,0.056
	c-0.247,0.083,0.169,0.067,0.107,0.142h-0.491l-0.097,0.099l0.518-0.013l-0.158,0.032c0.086,0.03,0.325-0.013,0.284,0.051
	l-0.072,0.29l-0.161,0.032c0.351-0.019,0.145,0.115,0.3,0.142c-0.148,0.121,0.174,0.18-0.099,0.268
	c0.142,0.148,0.268,0.268,0.236,0.459h-0.236c0.174,0-0.134,0.043-0.097,0.067h0.397c-0.177,0.102,0.03,0.174,0.201,0.22
	l-0.158,0.027c0.306,0.024,0.051,0.142,0,0.236c-0.072,0.021-0.22,0.056-0.198,0.078c0.144,0.003,0.287,0.032,0.421,0.086
	l-0.15,0.209c0.389,0.139,0.172,0.362,0.413,0.536l-0.188,0.038c0.429,0.142,0.08,0.421,0.306,0.563l-0.33,0.021
	c-0.094,0.062,0.099,0.105,0.33,0.067c-0.097,0.062,0.172,0.115-0.097,0.174c-0.051,0.059,0.158,0.048,0.207,0.086
	c-0.115,0.118-0.078,0.158,0,0.249l0.019-0.027l-0.228,0.035c0.089,0.03-0.078,0.142,0.308,0.07
	c-0.215,0.129,0.207,0.233-0.086,0.367h0.201c0,0.091-0.193,0.207,0,0.268l-0.188,0.03l0.198,0.013
	c0.215,0.134-0.174,0.322-0.107,0.453c0.233,0.228,0.15,0.494,0.209,0.727h-0.08c0.306,0.064-0.29,0.201,0.169,0.241
	c-0.072,0.021-0.03,0.07-0.18,0.067c0.217,0.051-0.185,0.182,0.094,0.268l-0.043-0.021c-0.164,0.097,0.08,0.169-0.067,0.268
	l-0.139-0.024c-0.148,0.04,0.338,0.072-0.038,0.11h0.18c-0.126,0.215,0.11,0.424,0.209,0.636c-0.223,0.158-0.636,0.035-0.351,0.142
	c-0.075,0.016,0.142,0,0.064,0c0.107,0.04-0.424,0.089-0.22,0.113c0.233-0.021,0.129,0.019,0.268,0.013
	c-0.145,0.099-0.351,0.126-0.177,0.196h-0.118c0.346,0.07,0.164,0.182,0.566,0.239l0.381,1.389
	c-0.064,0.467,0.123,0.912-0.072,1.389c-0.317,0.123-0.308,0.131-0.177,0.249H83.43c0.268,0,0.027,0.083,0.268,0.083l0.04,0.51
	c-0.032-0.024-0.249-0.032-0.231,0l0.172,0.027h-0.072l0.252,0.019c0.239,0.435-0.268,0.899-0.198,1.341
	c-0.105,0.11,0,0.268,0.056,0.365c-0.343,0.351-0.62,0.665-0.362,0.998c0,0-0.684-0.013-0.845-0.15"/>
<path id="_Tracé_35_3_" fill="#5D3739" d="M81.722,65.24l-0.37,0.094L81.722,65.24z"/>
<path id="_Tracé_36_3_" fill="#5D3739" d="M80.491,66.516l-0.075,0.03c0,0-0.121,0-0.054-0.024L80.491,66.516z"/>
<path id="_Tracé_37_3_" fill="#5D3739" d="M80.432,66.79l-0.231-0.054L80.432,66.79z"/>
<path id="_Tracé_38_3_" fill="#5D3739" d="M79.986,67.109l-0.153,0.013L79.986,67.109z"/>
<path id="_Tracé_39_1_" fill="#5D3739" d="M80.249,67.085l-0.126,0.059C80.222,67.131,80.053,67.109,80.249,67.085"/>
<path id="_Tracé_40_1_" fill="#5D3739" d="M79.965,67.659c0,0.013,0.11,0.027-0.019,0.056
	C80.035,67.688,79.791,67.675,79.965,67.659"/>
<polygon id="_Tracé_41_1_" fill="#5D3739" points="80.163,67.874 80.171,67.895 80.024,67.906 "/>
<polygon id="_Tracé_42_1_" fill="#5D3739" points="81.078,72.275 81.019,72.251 81.132,72.248 "/>
<path id="_Tracé_43_1_" fill="#5D3739" d="M81.18,74.268c0.075,0.024-0.11,0.024-0.123,0.027L81.18,74.268z"/>
<polygon id="_Tracé_44_1_" fill="#5D3739" points="81.8,75.32 81.794,75.312 82.036,75.306 "/>
<path id="_Tracé_45_1_" fill="#5D3739" d="M91.625,60.352c0-0.099-0.153-0.131-0.027-0.11L91.625,60.352z"/>
<path id="_Tracé_46_1_" fill="#5D3739" d="M87.376,81.435c-0.612-0.212,0-0.612-0.378-0.877c-0.027-0.035,0.333,0,0.249-0.08
	c-0.469-0.268-0.185-0.73,0.182-1.073l0.097,0.021c0.067-0.064-0.244-0.142-0.201-0.212h0.177c-0.19-0.019-0.089-0.123-0.228-0.156
	l0.306-0.054l-0.212-0.046c-0.518-0.121,0.032-0.268-0.231-0.418l0.139,0.013c-0.317-0.268-0.252-0.558-0.365-0.834l0.3,0.024
	c-0.139,0.003-0.267-0.075-0.33-0.198c0.231,0-0.204-0.139-0.067-0.215h0.054c-0.236-0.086,0.15-0.08-0.134-0.158l0.185-0.024
	c-0.322-0.056,0.18-0.075,0.021-0.139h-0.07c-0.072-0.056,0.094-0.07,0.048-0.118h0.035c-0.072-0.113,0.118-0.158-0.139-0.182
	c0.209-0.013,0.083,0.115,0.389,0.083c-0.228-0.37-0.131-0.73-0.091-1.073l0.239-0.051l-0.156-0.182l0.142-0.024
	c0.105-0.054-0.268-0.102-0.148-0.164l0.239,0.059c-0.19-0.08-0.148-0.158-0.204-0.236l0.148,0.043
	c-0.217-0.102,0.062-0.137-0.075-0.22l0.145,0.043c0.193-0.089-0.3-0.067-0.188-0.15l0.164,0.04
	c-0.268-0.118-0.15-0.252-0.231-0.349h0.056c-0.019-0.099,0.075-0.19-0.032-0.311c0.075-0.032,0.362,0.054,0.319-0.054
	c-0.298-0.03-0.102-0.182-0.443-0.164c0.059-0.08,0.188-0.204,0.094-0.268c0.107,0.054,0.365,0,0.384,0.075l0.182-0.032
	c0.121,0.021-0.048,0.054,0.107,0.054l-0.062-0.182c-0.169-0.086-0.504-0.193-0.536-0.306l0.373,0.051l-0.536-0.217
	c0-0.04,0.233,0.021,0.169-0.04l-0.185-0.062c0.032,0-0.054-0.158,0.244-0.137l0.158,0.04l-0.089-0.148h0.046
	c0.046-0.04-0.102-0.145-0.268-0.121c0,0.03,0.177,0.013,0.083,0.043c-0.161-0.051-0.196-0.134-0.19-0.198l0.207,0.054
	c-0.146-0.078-0.269-0.193-0.354-0.335c-0.137-0.019,0.247,0.072,0.174,0.078c0.209-0.102-0.228-0.303,0.067-0.367
	c0.021,0.019-0.198-0.021-0.158-0.019c0.027-0.056,0.228-0.024,0.158-0.075c0.121,0.013-0.027-0.059-0.056-0.107
	c-0.08-0.03,0.062,0,0.067,0.038c-0.091-0.07-0.236-0.327-0.038-0.429c-0.078-0.013-0.268-0.131-0.268-0.158l0.182,0.04
	c0.113-0.013,0-0.105,0.158-0.086c-0.212-0.099,0.145,0.268,0,0.164c0.156,0-0.268-0.169-0.024-0.11c0-0.064-0.196-0.153,0-0.185
	c-0.032,0.013,0.244,0.089,0.236,0.035l-0.131-0.113l-0.064-0.059c-0.177-0.027,0.035-0.075-0.166-0.075
	c0.15,0.013-0.072-0.137,0.223-0.083l0.225,0.048c0-0.043-0.231-0.099-0.327-0.145h0.11c-0.354-0.062,0.043-0.086-0.223-0.172
	c0.137-0.062,0.046-0.198,0.268-0.204c-0.099-0.075-0.22-0.153-0.129-0.212l0.113,0.059c0.113-0.027,0.021-0.054-0.03-0.102
	l0.354-0.08l-0.408-0.115c0.359,0-0.193-0.209,0.134-0.225l0.252,0.083c0.357,0-0.239-0.156-0.056-0.215l-0.295-0.03
	c0.188,0-0.142-0.158,0.15-0.097c-0.097-0.048,0.11-0.089-0.172-0.131c0.268-0.105-0.08-0.381,0.435-0.381
	c-0.04-0.027,0.016-0.07-0.129-0.086c-0.145-0.016,0.102,0.064,0,0.062l-0.115-0.046c0.07-0.038,0.097-0.07,0.322,0.016
	c0.196-0.067-0.459-0.193-0.327-0.298l0.15-0.021l-0.185-0.107c0.056-0.07,0.268,0,0.467,0.04c-0.027-0.051,0-0.099-0.15-0.15h0.252
	c-0.185,0-0.107-0.059-0.153-0.089l0.046,0.03l0.019-0.083l-0.22,0.048l-0.156-0.121c0.193,0.046,0.15-0.048,0.177-0.078
	s-0.169-0.083-0.156-0.091h0.158c0.035,0.021-0.097,0,0,0.051c0.078,0,0.249,0.03,0.131-0.056c-0.118-0.086-0.384-0.062-0.249-0.118
	l0.19,0.078l0.113-0.056l-0.177-0.035h0.086c-0.18-0.059-0.038-0.123-0.244-0.18l0.161-0.086l0,0
	c0.113-0.021,0.054-0.094-0.059-0.156h0.038l-0.099-0.131c0.145-0.035,0.671,0.11,0.461,0c0-0.064-0.308-0.164-0.421-0.161
	c0.134-0.086-0.129-0.268,0.158-0.317l-0.15-0.07c0.099-0.148-0.15-0.384,0.22-0.443l0.268,0.064
	c-0.15-0.075,0.172-0.013-0.094-0.083l-0.306-0.021c-0.07-0.113-0.043-0.268,0.11-0.282l-0.166-0.051c0.252,0.062,0.3,0,0.22-0.075
	l-0.15-0.043h0.164c-0.048-0.032-0.319-0.094-0.164-0.118l0.166,0.024c-0.115-0.08-0.303-0.212-0.164-0.244h0.223l-0.217-0.075
	l0.394-0.123c-0.424-0.29-0.378-0.558-0.292-0.759l0.113,0.035c0.118-0.03-0.193-0.083-0.107-0.102l0.373,0.099
	c0.142-0.048-0.174-0.156-0.209-0.223c-0.15-0.046,0.08,0.07-0.107,0c-0.048-0.027,0.145-0.08-0.078-0.156l0.349,0.099l-0.099-0.078
	l0.778,0.29l-0.024-0.054c0.247,0.019,0.236,0.19,0.349,0.099l-0.536-0.193c-0.035-0.115-0.536-0.19-0.472-0.298
	c0.139,0,0,0.097,0.196,0.126c0.196,0.03-0.064-0.131,0.013-0.156c-0.129,0.001-0.254-0.045-0.351-0.129l0.252,0.027l-0.311-0.115
	c-0.287-0.115,0.105-0.059-0.11-0.174c0.217,0.038,0.456,0.225,0.585,0.169c-0.198-0.046-0.233-0.19-0.536-0.233l0.341,0.091
	c0.139,0-0.325-0.228,0.075-0.123l-0.201-0.083h0.247c0.019-0.043-0.231-0.228,0.075-0.123c-0.027-0.027,0.016-0.121-0.204-0.148
	c-0.153,0.016,0.129,0.118-0.169,0.062c0.252,0.03,0-0.102-0.067-0.161l0.118,0.03l-0.121-0.134l0.182,0.054l-0.174-0.083
	c-0.059-0.118,0.322,0.086,0.3-0.016l0.115,0.11l0.107-0.054l-0.467-0.225c-0.056-0.072,0.19,0.043,0.038-0.062l0.177,0.129
	l0.295-0.013c-0.038-0.059-0.252-0.204-0.362-0.169l0.231,0.021l-0.268-0.15h0.464l0.252,0.164v-0.04
	c0.204,0.131,0.174,0.029,0.394,0.142l-0.072-0.126c-0.392-0.051-0.469-0.268-0.805-0.378c-0.048-0.156,0.837,0.236,0.37-0.086
	c-0.097-0.013-0.322-0.169-0.268-0.059c0.07-0.056-0.306-0.182-0.129-0.215c0.102,0.118,0.362,0.067,0.518,0.236l-0.08,0.046
	c0.142,0.019,0.33,0.134,0.365,0.064c0-0.056,0-0.121-0.166-0.18c-0.166-0.059,0,0.075-0.19-0.032c-0.027-0.115,0.268,0-0.046-0.188
	c0,0.07-0.207,0-0.33-0.054l-0.046-0.105l0.118,0.067c0.139-0.07-0.212-0.129-0.131-0.223l0.268,0.056
	c0.198,0.121-0.166,0.115,0.185,0.244c0.046-0.056-0.115-0.161,0-0.185l0.046,0.08c0.027-0.021,0.488,0.161,0.268-0.056L88.9,61.433
	l-0.091-0.303c0.241,0.134,0.08-0.107,0.298,0.089c-0.161-0.035-0.22,0.129,0,0.268c0.311,0.094-0.083,0.062,0.209,0.223
	c0.043-0.083,0.335,0.056,0.536,0.129l-0.07-0.105l-0.37-0.142c0.094-0.07,0.029-0.204-0.121-0.341c0.105,0,0.268,0.107,0.268,0.15
	l0.174-0.314c-0.314-0.083,0-0.153-0.268-0.236l-0.429-0.137l0.19,0.086c-0.131-0.126,0.284,0.064,0.059-0.113
	c0.043,0.15,0.341,0.209,0.536,0.349c-0.094-0.142,0.156,0.086,0.185,0.019l-0.15-0.389c0.268,0.03,0.19-0.239,0.268-0.33
	c0.134,0.032,0.343,0.228,0.416,0.215s-0.268-0.148-0.11-0.148l0.043,0.04c-0.029-0.064,0.268-0.016-0.035-0.3l0.217,0.22
	l-0.027-0.086l0.19,0.172c0.201,0.097,0.051-0.115,0.086-0.172l-0.164-0.091c-0.032-0.185,0.148-0.123,0.172-0.249l0.123,0.131
	l-0.035-0.126c0.107,0.139,0.217,0.177,0.142,0.046l0.201,0.44l-0.268-0.3c-0.121-0.091-0.153,0.024-0.038,0.153l-0.016-0.11
	c0.177,0.166,0.139,0.201,0.241,0.341l0.019-0.048l0.032,0.198l-0.172-0.148c0.161,0.153,0.177,0.236,0.091,0.247
	c-0.223-0.121,0.048,0.207-0.051,0.217l-0.308-0.402l-0.158,0.027l0.349,0.397l-0.137-0.091c0.032,0.097,0.231,0.231,0.148,0.268
	l-0.282,0.244l-0.145-0.078c0.284,0.223,0.035,0.241,0.139,0.384c-0.196,0.048,0.024,0.325-0.255,0.268
	c0.054,0.235,0.014,0.482-0.11,0.689l-0.204-0.123c0.145,0.102-0.139-0.029-0.129,0.027c0.198,0.021,0.209,0.145,0.333,0.223
	c-0.223,0.024-0.064,0.241,0.062,0.384l-0.161-0.051c0.268,0.198-0.024,0.217-0.113,0.317H90c0.233,0.148,0.204,0.177,0.333,0.319
	l-0.239,0.193c0.268,0.359-0.043,0.536,0.115,0.872l-0.19-0.03c0.33,0.365-0.11,0.593,0.04,0.866l-0.314-0.099
	c-0.113,0.051,0.043,0.182,0.268,0.215c-0.118,0.048,0.11,0.212-0.164,0.196c-0.07,0.059,0.139,0.121,0.172,0.193
	c-0.15,0.121-0.129,0.182-0.094,0.333l0.027-0.03l-0.233-0.03c0.08,0.075-0.115,0.174,0.268,0.204
	c-0.247,0.105,0.121,0.384-0.204,0.472l0.19,0.078c-0.016,0.134-0.255,0.228-0.094,0.367l-0.193-0.019l0.188,0.078
	c0.158,0.255-0.268,0.392-0.268,0.595c0.15,0.384,0,0.719-0.035,1.057l-0.075-0.019c0.268,0.161-0.351,0.201,0.08,0.37l-0.198,0.051
	c0.196,0.121-0.239,0.209,0,0.381l-0.032-0.038c-0.196,0.099,0.021,0.252-0.158,0.362l-0.129-0.067
	c-0.156,0.03,0.308,0.18-0.07,0.148l0.177,0.03c-0.196,0.268,0,0.625,0.021,0.947c-0.268,0.19-0.633-0.08-0.381,0.137
	c-0.078,0,0.142,0.032,0.059,0.024c0.094,0.08-0.437,0.043-0.244,0.115c0.231,0.019,0.118,0.054,0.268,0.075
	c-0.169,0.113-0.381,0.11-0.225,0.244l-0.118-0.024c0.322,0.172,0.113,0.292,0.488,0.453l0.054,2.068
	c-0.158,0.657-0.054,1.341-0.349,1.99c-0.338,0.129-0.327,0.142-0.228,0.327l-0.105-0.016c0.268,0.035,0,0.129,0.268,0.169
	l-0.043,0.735c-0.03-0.043-0.244-0.078-0.228-0.032l0.166,0.062H88.5l0.252,0.051c0.231,0.62-0.3,1.204-0.239,1.816
	c-0.11,0.142-0.013,0.351,0.043,0.502c-0.357,0.472-0.644,0.931-0.402,1.389c0,0-0.679,0-0.832-0.18"/>
<path id="_Tracé_47_1_" fill="#5D3739" d="M91.593,60.441l-0.268-0.268L91.593,60.441z"/>
<polygon id="_Tracé_48_1_" fill="#5D3739" points="89.592,60.889 89.509,60.878 89.49,60.806 "/>
<path id="_Tracé_49_1_" fill="#5D3739" d="M89.34,61.243L89.2,61.001L89.34,61.243z"/>
<path id="_Tracé_50_1_" fill="#5D3739" d="M88.731,61.406l-0.131-0.08L88.731,61.406z"/>
<path id="_Tracé_51_1_" fill="#5D3739" d="M88.959,61.546h-0.148C88.905,61.586,88.784,61.447,88.959,61.546"/>
<path id="_Tracé_52_1_" fill="#5D3739" d="M88.285,62.238c0,0.021,0.083,0.097-0.048,0.075
	C88.331,62.313,88.13,62.16,88.285,62.238"/>
<polygon id="_Tracé_53_1_" fill="#5D3739" points="88.334,62.675 88.326,62.71 88.192,62.638 "/>
<polygon id="_Tracé_54_1_" fill="#5D3739" points="87.331,69.561 87.282,69.512 87.392,69.539 "/>
<path id="_Tracé_55_1_" fill="#5D3739" d="M86.84,72.511c0.064,0.048-0.115,0.013-0.131,0.019L86.84,72.511z"/>
<polygon id="_Tracé_56_1_" fill="#5D3739" points="87.202,74.174 87.199,74.161 87.435,74.196 "/>
<path id="_Tracé_57_1_" fill="#5D3739" d="M96.341,75.878c0.475,0.421-0.129,0.244,0.158,0.536c0.013,0.021-0.3-0.161-0.241-0.089
	c0.365,0.319,0.035,0.359-0.359,0.341l-0.08-0.048c-0.078,0,0.193,0.164,0.142,0.169l-0.158-0.075
	c0.166,0.089,0.054,0.083,0.18,0.158l-0.29-0.105l0.188,0.105c0.448,0.268-0.08,0.091,0.137,0.268l-0.129-0.062
	c0.241,0.228,0.131,0.322,0.188,0.475l-0.268-0.134c0.204,0.105,0.239,0.166,0.268,0.212c-0.217-0.091,0.169,0.15,0.035,0.126
	l-0.043-0.029c0.198,0.142-0.145-0.03,0.102,0.131L96,77.785c0.287,0.166-0.164-0.043-0.03,0.056l0.059,0.03l-0.051,0.032
	l-0.035-0.016c0.051,0.08-0.121,0.013,0.105,0.137c-0.188-0.08-0.062-0.08-0.338-0.207c0.156,0.268,0.035,0.367-0.043,0.502
	l-0.22-0.089l0.121,0.15l-0.134-0.056c-0.097-0.024,0.233,0.172,0.118,0.137l-0.212-0.134c0.161,0.123,0.118,0.137,0.158,0.196
	l-0.126-0.086c0.182,0.145-0.072,0.027,0.04,0.126l-0.126-0.083c-0.174-0.054,0.268,0.169,0.148,0.15l-0.139-0.091
	c0.217,0.169,0.107,0.177,0.169,0.268l-0.051-0.032v0.15c-0.064-0.021-0.306-0.198-0.268-0.134c0.252,0.158,0.067,0.134,0.365,0.287
	c-0.062,0-0.185,0-0.113,0.075c-0.086-0.075-0.314-0.18-0.322-0.217l-0.166-0.078c-0.099-0.067,0.048,0-0.086-0.075l0.035,0.107
	c0.137,0.123,0.41,0.33,0.418,0.392l-0.317-0.209l0.445,0.365c0,0.021-0.201-0.123-0.145-0.062l0.15,0.118
	c-0.03,0,0.032,0.097-0.22-0.056l-0.131-0.099l0.062,0.113l-0.035-0.021c-0.043,0,0.075,0.115,0.22,0.19
	c0,0-0.148-0.097-0.067-0.064c0.134,0.105,0.158,0.158,0.145,0.188l-0.166-0.129c0.106,0.097,0.196,0.209,0.268,0.333
	c0.113,0.078-0.207-0.156-0.139-0.121c-0.185-0.062,0.166,0.255-0.107,0.129l0.137,0.091c-0.03,0-0.196-0.107-0.145-0.046
	c-0.102-0.067,0.019,0.038,0.035,0.072l-0.051-0.048c0.067,0.075,0.148,0.268-0.03,0.212l0.193,0.207l-0.148-0.115l-0.142-0.043
	c0.164,0.156-0.083-0.204,0.032-0.07c-0.129-0.08,0.201,0.217,0,0.062c0,0.027,0.139,0.172-0.019,0.089
	c0.032,0.013-0.193-0.169-0.196-0.142l0.094,0.123l0.048,0.059c0.142,0.107-0.046,0.013,0.126,0.123
	c-0.118-0.083,0.038,0.102-0.196-0.083l-0.182-0.142l0.252,0.241l-0.091-0.056c0.287,0.217-0.048,0.013,0.158,0.193
	c-0.121-0.046-0.067,0.07-0.255-0.056c0.07,0.091,0.156,0.19,0.075,0.169l-0.086-0.089c-0.097-0.048-0.024,0,0,0.062l-0.303-0.164
	l0.317,0.268c-0.29-0.201,0.123,0.207-0.142,0.03l-0.193-0.18c-0.287-0.204,0.172,0.204,0,0.131l0.236,0.177
	c-0.153-0.102,0.089,0.156-0.139-0.038c0.072,0.075-0.102-0.027,0.118,0.156c-0.225-0.105,0,0.225-0.405-0.08l0.091,0.118
	c0.131,0.097-0.07-0.094,0.019-0.021l0.08,0.091c-0.059-0.027-0.08-0.03-0.252-0.201c-0.164-0.08,0.335,0.362,0.215,0.333
	l-0.123-0.078l0.134,0.158c-0.136-0.081-0.258-0.181-0.365-0.298l0.094,0.158l-0.201-0.15c0.148,0.11,0.078,0.091,0.11,0.134
	l-0.032-0.043l-0.03,0.03l0.182,0.11l0.099,0.15c-0.142-0.139-0.126-0.07-0.153-0.07l0.11,0.134l-0.126-0.094l0.021-0.016
	c-0.062-0.04-0.193-0.166-0.113-0.059s0.284,0.268,0.172,0.209l-0.131-0.153l-0.097-0.043l0.131,0.123l-0.067-0.054
	c0.131,0.139,0,0.08,0.161,0.233l-0.137-0.059h-0.013c-0.086-0.059-0.054,0,0.021,0.11l-0.027-0.043l0.051,0.126
	c-0.115-0.08-0.486-0.472-0.351-0.292c0.084,0.125,0.185,0.237,0.3,0.333c-0.121-0.048,0.056,0.193-0.174,0.03l0.105,0.121
	c-0.099,0,0.054,0.255-0.239,0.048l-0.198-0.196c0.102,0.121-0.131-0.102,0.064,0.094l0.228,0.196c0.035,0.091,0,0.139-0.131,0.048
	l0.123,0.129c-0.185-0.182-0.233-0.188-0.185-0.107l0.107,0.11l-0.121-0.102c0.03,0.043,0.231,0.236,0.105,0.148l-0.123-0.113
	c0.072,0.105,0.209,0.282,0.097,0.209l-0.177-0.145l0.156,0.166l-0.317-0.182c0.292,0.392,0.22,0.494,0.131,0.536l-0.08-0.086
	c-0.102-0.059,0.134,0.161,0.064,0.11l-0.268-0.268c-0.113-0.064,0.115,0.177,0.134,0.231c0.11,0.113-0.056-0.083,0.083,0.059
	c0.035,0.04-0.126-0.051,0.038,0.123l-0.249-0.268l0.064,0.094l-0.577-0.59l0.013,0.04c-0.185-0.164-0.158-0.231-0.268-0.268
	l0.384,0.41c0.016,0.08,0.384,0.413,0.33,0.435c-0.105-0.086,0-0.051-0.134-0.18s0.038,0.105-0.019,0.072l0.249,0.268l-0.185-0.164
	l0.217,0.244c0.212,0.231-0.08-0.032,0.072,0.153c-0.161-0.15-0.322-0.386-0.426-0.432c0.148,0.139,0.161,0.233,0.389,0.44
	l-0.244-0.247c-0.107-0.078,0.223,0.314-0.07,0.019l0.142,0.158l-0.182-0.15c-0.016,0.013,0.156,0.255-0.067,0.021
	c0.021,0.027-0.019,0.048,0.142,0.196c0.115,0.083-0.089-0.139,0.134,0.072c-0.185-0.169,0,0.048,0.035,0.118l-0.089-0.086
	l0.08,0.137l-0.131-0.129l0.126,0.142c0.035,0.099-0.239-0.236-0.225-0.166l-0.08-0.126l-0.086-0.038l0.33,0.392
	c0.035,0.072-0.142-0.134-0.038,0l-0.118-0.169l-0.231-0.174l0.268,0.311l-0.174-0.153l0.174,0.236l-0.354-0.268l-0.166-0.241H92.55
	c-0.137-0.19-0.129-0.121-0.268-0.317l0.038,0.11c0.197,0.222,0.381,0.455,0.553,0.697c0,0.115-0.59-0.638-0.268-0.169
	c0.07,0.064,0.22,0.292,0.182,0.188c-0.054,0,0.209,0.292,0.078,0.204l-0.362-0.424c0.075,0.091,0.08,0.054,0.064,0.024
	c-0.099-0.094-0.231-0.268-0.268-0.268c-0.038,0,0,0.067,0.102,0.209c0.102,0.142,0-0.038,0.134,0.129
	c0,0.089-0.193-0.15,0.021,0.142c0-0.038,0.139,0.121,0.225,0.231l0.027,0.091l-0.078-0.118c-0.107-0.035,0.139,0.209,0.075,0.22
	l-0.188-0.201c-0.134-0.19,0.126,0.035-0.118-0.255c-0.035,0,0.075,0.166,0,0.107l-0.024-0.072c-0.021,0-0.325-0.386-0.188-0.126
	l0.158,0.22l0.035,0.239c-0.156-0.228-0.067,0.021-0.198-0.233c0.11,0.121,0.164,0.054,0.024-0.169
	c-0.209-0.241,0.062,0.013-0.131-0.268c-0.035,0.021-0.228-0.236-0.357-0.4l0.043,0.102l0.247,0.314
	c-0.07-0.013-0.035,0.099,0.054,0.268l-0.174-0.268l-0.148,0.08c0.207,0.244,0,0.099,0.164,0.306l0.268,0.346l-0.123-0.166
	c0.08,0.158-0.185-0.215-0.046,0.032c-0.096-0.196-0.212-0.381-0.346-0.553c0.051,0.142-0.099-0.15-0.126-0.129l0.043,0.333
	c-0.18-0.182-0.161,0.062-0.223,0.097c-0.078-0.107-0.164-0.378-0.207-0.418c-0.032,0.016,0.129,0.268,0.035,0.177l-0.013-0.054
	c0,0.067-0.142-0.156-0.051,0.244l-0.059-0.303v0.083l-0.064-0.255c-0.072-0.198-0.04,0.051-0.07,0.07l0.056,0.174
	c-0.035,0.158-0.102,0-0.145,0.072v-0.182l-0.019,0.121c0-0.177-0.035-0.268-0.04-0.134l0.027-0.459l0.03,0.397
	c0.021,0.15,0.064,0.089,0.048-0.089l-0.021,0.094c-0.03-0.247,0-0.244-0.024-0.416v0.021v-0.158l0.04,0.22
	c-0.035-0.217-0.04-0.29,0-0.239c0.08,0.239,0-0.172,0.019-0.11l0.115,0.483l0.078,0.083l-0.142-0.502l0.059,0.153
	c0-0.086-0.11-0.308-0.075-0.268l0.139,0.062l0.089,0.137c-0.174-0.311,0-0.158-0.07-0.311c0.129,0.099,0-0.196,0.177,0.013
	c0-0.164,0-0.308,0.097-0.319l0.137,0.193c-0.097-0.148,0.097,0.097,0.089,0.062l-0.223-0.327c0.15,0.115,0.062-0.072-0.016-0.217
	l0.105,0.118c-0.174-0.252,0.038-0.072,0.11-0.072l0.164,0.126c-0.087-0.111-0.163-0.23-0.225-0.357l0.19,0.043
	c-0.177-0.349,0.07-0.268,0-0.499l0.142,0.129c-0.215-0.367,0.148-0.204,0.064-0.416l0.233,0.231
	c0.091,0.051-0.013-0.113-0.19-0.268c0.099,0.046-0.056-0.169,0.15,0c0.067,0.019-0.08-0.131-0.094-0.185
	c0.137,0.04,0.134,0,0.134-0.086h-0.027l0.172,0.156c-0.046-0.08,0.123,0-0.174-0.255c0.207,0.11-0.021-0.247,0.239-0.083
	l-0.129-0.15c0.038-0.048,0.236,0.059,0.142-0.105l0.142,0.131l-0.131-0.153c-0.099-0.198,0.252,0,0.268-0.08
	c-0.07-0.249,0.094-0.287,0.15-0.413l0.059,0.054c-0.201-0.231,0.298,0.123-0.027-0.196l0.164,0.094
	c-0.139-0.164,0.217,0.054,0.035-0.158l0.027,0.035c0.169,0.07,0-0.113,0.169-0.056l0.094,0.097c0.137,0.078-0.231-0.241,0.08-0.016
	l-0.145-0.115c0.193,0,0.078-0.241,0.08-0.389c0.241,0.07,0.536,0.373,0.338,0.15l-0.048-0.043c-0.07-0.083,0.373,0.217,0.22,0.086
	c-0.076-0.049-0.147-0.106-0.212-0.169c0.153,0.046,0.338,0.158,0.22,0.024l0.094,0.07c-0.255-0.239-0.059-0.172-0.37-0.435
	l0.131-0.899c0.207-0.196,0.185-0.515,0.512-0.646c0.308,0.102,0.306,0.091,0.231-0.03l0.097,0.056
	c-0.228-0.131,0-0.056-0.217-0.182l0.102-0.255l0.201,0.107l-0.145-0.091l0.067,0.027l-0.225-0.121
	c-0.118-0.268,0.502-0.362,0.558-0.636c0.131-0.016,0.072-0.137,0.072-0.252c1.397,0.239-1.365-0.877,2.849,0.247
	c0.456,0.464-1.328-1.073-1.507-0.177"/>
<path id="_Tracé_58_1_" fill="#5D3739" d="M55.392,68.198l0.054,0.099l0.193,0.362c0.343,0.378,0.641,1.296,1.497,2.414
	c0.016-0.013-0.038-0.121,0.268,0.268c1.454,1.609,0.805,0.746,2.012,1.719c-0.386-0.295-0.866-0.66-1.041-0.818
	c0.805,0.574,1.524,1.314,2.548,1.566c-0.381-0.182-0.673-0.349-0.19-0.19c-0.249-0.18,0.708,0.083,1.073,0.129
	c-0.483-0.196-0.869-0.349-1.041-0.429c0.378,0.096,0.749,0.217,1.11,0.362l-0.169-0.089l0.169,0.089
	c0.381,0.11,0.762,0.359,1.199,0.341c-0.241-0.021-0.459-0.064-0.351-0.064l-1.609-0.598c-0.048-0.027,0-0.013,0.107,0.019
	l-0.429-0.137l0.314,0.137c0.105,0.056-0.113-0.016-0.335-0.089c-0.429-0.164-0.536-0.19-0.716-0.354l-0.746-0.536
	c-0.362-0.086,1.982,1.371,0.684,0.636l-0.359-0.292c-0.536-0.421-1.328-0.944-1.668-1.261c-0.367-0.606-1.234-1.566-1.164-1.738
	c-0.504-1.937-4.756-6.019-1.371-7.317c0.376-0.241,0.335-0.33,1.234-1.003c0.188-0.107,0.48-0.268,0.392-0.204l0.646-0.445
	c-0.381,0.236-0.85,0.536-1.051,0.636c1.025-0.679-0.499,0.244-0.421,0.156l1.392-0.912l-0.177,0.094
	c-1.215,1.304-2.629,0.448-3.849,3.05c0.384,1.312,0.987,3.138,1.768,4.327L55.392,68.198z"/>
<path id="_Tracé_59_1_" fill="#5D3739" d="M64.029,26.171l-0.078,0.024c1.805-2.865,13.506-0.638,17.073-7.883
	c-0.671-5.418-7.183,1.237-9.072-1.285c-3.168-1.878-2.58-8.082-7.902-8.157C54.019,8.334,52.93,21.652,56.859,28.137
	c0.362,1.894,1.478,3.932,1.773,5.719c0.413,1.553-2.951,1.585-4.493,1.199c-4.05-0.51-8.074-0.925-12.07-1.245l0.805-0.223
	c-4.439-0.317-8.929,0.341-13.377,0.536c-4.874,0.622-8.983-0.043-10.15-4.624l1.363,2.787c-0.995-0.805-1.242-4.356-4.107-4.893
	c-2.709,1.261-2.524,4.981-2.843,6.998l-0.046-0.451c0.837-6.143-0.161,0.413,0.038-2.106l0.185-1.073l-0.172,0.622l-0.15,1.073
	c-0.032-0.126-0.102-0.04,0.067-1.073l-0.233,1.443c-0.351,2.599-0.697,3.423-0.826,2.712c0.067,0.77,0.094,0.137,0.41,3.525
	l-0.123-0.435l0.561,3.723l0.295,1.749c0.271,1.184,0.622,2.349,1.049,3.487l0.268,0.346c1.073,2.682,1.754,6.912,5.791,8.457
	c0.512-1.719-5.547,0.966-7.612-0.424c-1.027-0.19-4.978-1.057-6.974-2.913c0.29,0.268,0.426,0.681,0.832,0.936
	c1.406,0.899,4.512,2.216,7.739,2.578c1.647,0.11,3.474,0.113,5.048-0.435c0.48,0.078,2.521-1.073,1.658,0.024
	c-0.852-0.102-1.652-0.467-2.288-1.043l0.268,0.075c0.308,1.188,3.994,0.303,1.325,0.877l-0.37,0.247
	c3.458-0.038-1.577-0.952-2.36-3.294c-1.414-2.25-2.234-4.796-2.588-5.831c-1.406-4.474,1.285,2.792,0.536,0.687
	c1.878,4.828-1.204-4.23-1.073-6.271c-0.182-2.969-0.984-7.953,0.85-12.202c1.778-4.809,3.608,8.49,9.056,6.14
	c6.99,0.22,14.514-1.384,22.108,0.013c3.951,0.032,7.178,1.719,11.593,0.577c2.792-5.33-0.864-6.502-1.161-10.461
	c-3.128-5.096-0.751-15.756,3.884-15.311c3.417-0.773,6.405,0.166,7.167,4.603l-0.196-0.204c0.671,8.133,15.946-0.043,10.853,3.922
	c-3.093,3.487-9.182,5.161-13.76,4.737c-4.828,2.733-2.052,5.338-2.414,7.342c0.944,4.292,7.06,7.685,7.143,11.11
	c0.185,4.471-2.261,8.758-4.876,11.931c0.08,0.021-0.609,0.976,0.418-0.198c2.706-3.356,4.732-7.916,4.691-8.098
	c-0.081,0.535-0.244,1.054-0.483,1.54c0.518-0.84,0.577-1.832,0.888-2.763c0.159-0.603,0.202-1.231,0.126-1.851
	c-0.01-0.246,0.019-0.492,0.086-0.73c0.432-3.672-3.576-4.678-4.702-7.739c-1.21-1.99-3.259-4.072-2.234-7.798"/>
<polygon id="_Tracé_60_1_" fill="#FFFFFF" points="63.096,14.779 63.101,14.777 63.096,14.766 63.053,14.715 63.023,14.718 
	62.972,14.678 62.978,14.707 62.937,14.651 62.873,14.68 62.726,14.71 62.72,14.742 62.675,14.728 62.667,14.737 62.675,14.728 
	62.661,14.699 62.645,14.715 62.667,14.75 62.653,14.755 62.669,14.758 62.675,14.745 62.696,14.745 62.696,14.769 62.726,14.782 
	62.766,14.742 62.763,14.758 62.814,14.79 62.814,14.841 62.865,15.045 63.031,15.01 63.015,15.026 63.045,15.037 63.042,15.005 
	63.088,14.973 63.125,15.002 63.128,14.994 63.101,14.779 "/>
<path id="_Tracé_61_1_" fill="#FFFFFF" d="M62.943,16.18l0.046-0.013c0.188,0.587-0.732,0.805-0.805,0.19h0.158l-0.182-0.499
	l-0.059,0.059l0.03-0.373l0.035,0.024c-0.043,0.148,0.019,0,0.102,0.099v0.032h0.027v-0.03l0.051,0.048l0.019-0.032l0.357,0.083
	c0-0.027-0.134-0.056-0.062-0.113l0.035,0.024l-0.035-0.107l0.064-0.016v-0.091l-0.072-0.046l0.182-0.585l0.016-0.252l-0.102,0.04
	l-0.252,0.483l-0.046-0.024v-0.102l-0.078-0.035c-0.319-0.038-0.013,0.268-0.089,0.317c-0.129,0.067-0.137-0.148-0.15-0.094
	c-0.056-0.164-0.241,0-0.362,0.016c-0.244,0.089-0.33,0.357-0.37,0.679c0.016,0.536,0,1.119,0.496,1.502
	c0.148,0.317,1.009-0.043,0.952,0.091l0.421-0.15l0.021,0.043c0.488-0.121,0.453-0.778,0.402-1.194c0-0.19-0.15-0.18-0.04-0.268
	c0-0.268-0.3-0.459-0.408-0.657l-0.099,0.064c0.071,0.077,0.067,0.198-0.01,0.269c-0.015,0.014-0.032,0.026-0.051,0.034v-0.043
	l-0.062,0.107l0.056,0.027l-0.059,0.046l-0.129,0.268L62.943,16.18z"/>
<path id="_Tracé_62_1_" fill="#FFFFFF" d="M69.802,77.779c0.166-0.048-0.107-0.032,0-0.04l0.362-0.105
	c-0.295,0.105,0.164,0.182-0.359,0.145"/>
<path id="_Tracé_63_1_" fill="#FFFFFF" d="M70.303,77.302l0.046-0.08c0.097-0.024,0.303-0.078,0.196,0.019L70.303,77.302z"/>
<polygon id="_Tracé_64_1_" fill="#5D3739" points="69.769,76.366 69.887,76.387 69.721,76.446 "/>
<path id="_Tracé_65_1_" fill="#5D3739" d="M67.886,71.379l0.021-0.075c0.075,0,0.105,0.032,0.188,0.174
	c0,0.134,0.123,0.437,0.038,0.405v-0.032c-0.086,0.112-0.102,0.263-0.043,0.392c0.056,0.021,0.094-0.145,0.207,0l0.134,0.598
	l0.198,0.072l0.094,0.394l-0.099-0.062c0,0.089-0.129,0.083,0.016,0.314l0.325,0.314c0.051,0.268,0.373,0.569,0.512,0.826
	c0.357,0.131,0.365,0.764,0.668,0.805c0.161,0.402,0.33,0.376,0.555,0.536c-0.024,0.325-0.341-0.314-0.408-0.118
	c0,0.467,0.467,0.448,0,0.563c-0.032,0.102,0.166,0.126,0,0.217l-0.123-0.11l0.021,0.072h0.051c0.097,0.156-0.19,0.142-0.397,0.207
	c-0.094-0.07,0.097,0,0.099-0.072c0.003-0.072-0.115-0.207-0.359-0.233c-0.475,0.121-0.77-0.016-1.341-0.027
	c0.021,0.083-0.137,0.04-0.225,0.043c0.118-0.064-0.105-0.161-0.209-0.182c-0.134,0.038-0.164,0.193-0.373,0.166l0.131,0.158
	c0.171,0.004,0.342-0.013,0.51-0.051c0.083,0.18,0.703-0.03,0.63,0.182l-0.08-0.024c-0.325-0.099-0.496,0.118-0.805,0.182
	c-0.175-0.076-0.338-0.178-0.483-0.303l-0.362,0.035l-0.373-0.102l-0.038,0.038l-0.241-0.054c-0.035,0.139,0.314,0.164,0.52,0.223
	l-0.142,0.035l-0.059-0.04h-0.129c0,0.038,0.021,0.126-0.15,0.121l-0.097-0.097c-0.335-0.051-0.488,0.145-0.07,0.188l0.04-0.086
	l0.4,0.158c0.062,0.094-0.188,0.054-0.196,0.134c-0.062,0.105,0.268,0.182,0.421,0.217c0.158-0.051-0.091-0.094-0.198-0.115
	l0.233-0.139l0.139,0.078c0.07,0.051-0.019,0.164,0.105,0.158c0.357,0.046,0.032-0.156,0.33-0.148
	c-0.072-0.158-0.563-0.228-0.722-0.314h-0.137c-0.054-0.083,0.223-0.013,0.019-0.072c0.359-0.075,0.805,0.148,1.051,0.268
	c0,0.097,0.268,0.204,0.043,0.314l0.325,0.089c0.429-0.129,0.604,0.078,0.995,0l0.035-0.086c0.536,0.032-0.15,0.432,0.598,0.308
	c0.131-0.027,0.193-0.078,0.148-0.131l-0.343-0.051c0-0.043-0.244-0.027-0.105-0.121c0.333,0,0.469-0.156,0.743-0.131l0.072-0.099
	l0.451-0.225c0.405-0.139,0.059,0.126,0.067,0.204l0.373-0.142c0.315-0.277,0.43-0.718,0.29-1.113l0.048,0.038
	c0.078,0.268,0.177-0.129,0.129-0.317l-0.089-0.083c-0.268-0.086-0.394-0.595-0.614-0.88l0.027-0.059l-0.123-0.376
	c-0.212,0-0.158-0.223-0.306-0.386l-0.392-0.217c-0.185-0.491-0.494-0.633-0.587-1.073c-0.153,0-0.33-0.209-0.357,0.038
	c-0.22-0.426-0.056-0.92-0.158-1.32l-0.089-0.078c-0.292-0.062-0.912-0.435-0.952,0.07"/>
<polygon id="_Tracé_66_1_" fill="#5D3739" points="66.54,76.398 66.76,76.414 66.73,76.371 "/>
<path id="_Tracé_67_1_" fill="#FFFFFF" d="M66.304,68.013c-0.19,0.268-0.333,0.579-0.156,0.483l0.73-0.732
	C66.838,67.659,66.449,67.946,66.304,68.013"/>
<path id="_Tracé_68_1_" fill="#5D3739" d="M70.571,77.669l0.365-0.185l-0.126-0.035C70.499,77.535,70.773,77.57,70.571,77.669"/>
<path id="_Tracé_69_1_" fill="#FFFFFF" d="M66.379,69.668c0.051,0.03,0.062,0.11,0.099-0.013l0.019-0.223
	C66.497,69.478,66.282,69.684,66.379,69.668"/>
<polygon id="_Tracé_70_1_" fill="#FFFFFF" points="66.239,70.371 66.392,70.419 66.459,70.164 "/>
<path id="_Tracé_71_1_" fill="#FFFFFF" d="M66.969,69.266c-0.349,0.121-0.067,0.354-0.378,0.494
	c-0.166,0.386,0.021,0.349,0.182,0.335c0.075-0.139-0.164-0.097-0.083-0.349c0.094-0.139,0.22-0.268,0.319-0.215
	c0.233-0.22-0.129-0.097-0.04-0.268"/>
<polygon id="_Tracé_72_1_" fill="#FFFFFF" points="66.561,70.556 66.652,70.387 66.518,70.419 "/>
<polygon id="_Tracé_73_1_" fill="#FFFFFF" points="67.31,69.582 67.326,69.459 67.192,69.588 "/>
<polygon id="_Tracé_74_1_" fill="#FFFFFF" points="67.404,69.939 67.454,69.88 67.371,69.783 "/>
<path id="_Tracé_75_1_" fill="#5D3739" d="M68.423,70.025c0.204-0.572,0.181-1.201-0.064-1.757l-0.805-0.188
	c-0.3-0.035-0.456-0.174-0.536-0.062c-0.341,0.303-0.711,0.756-0.735,1.051l-0.156,0.072L65.95,69.66l-0.314,0.123
	c-0.102,0.354-0.536,0.673-0.574,1.046c-0.268,0.035-0.126,0.512-0.405,0.582c-0.249,0.298-0.362,0.708-0.268,0.869
	c-0.038-0.024-0.07-0.188-0.188-0.075l-0.013,0.091l-0.22,0.268l0.03,0.07c0.351-0.169,0.255,0.738,0.174,1.218l-0.064,0.153
	l0.429-0.437c-0.091,0,0.139-0.268-0.016-0.169l-0.059,0.094l-0.209,0.134c0.094-0.201,0.456-0.536,0.429-0.719l0.448-0.239
	c0.18-0.311,0.483-0.638,0.536-0.952c0.145-0.33,0.284-0.333,0.416-0.378c0.03-0.177,0.228-0.389,0.172-0.488
	c0.155-0.144,0.351-0.238,0.561-0.268c0.161-0.156,0.094-0.193,0.11-0.367c0.233-0.367,0.185,0.22,0.421-0.217
	c0.118-0.177,0.113-0.228,0.059-0.314l0.268-0.241c0.41-0.046-0.936-0.365-0.298-0.075c0.062,0.357,0.314,0.536,0.453,0.987
	c0.262,0.062,0.529-0.079,0.625-0.33"/>
<path id="_Tracé_76_1_" fill="#FFFFFF" d="M45.706,39.033l0.467,0.443c-0.343-3.087-3.24-6.059-5.314-8.125
	c-0.601-0.609-5.802-5.797-5.762-2.296c0.016,2.285,10.998,9.469,10.609,9.968"/>
<path id="_Tracé_77_1_" fill="#FFFFFF" d="M41.806,42.483l-0.153-0.306c-0.145,0.338-3.637-1.655-4.56-1.808
	c-1.019-0.169-5.255-0.282-5.552,1.322C31.243,43.295,40.465,43.073,41.806,42.483"/>
<path id="_Tracé_78_1_" fill="#5D3739" d="M38.877,44.848c0.105-0.051-0.062-0.207,0.067-0.089
	C38.931,44.854,38.912,44.926,38.877,44.848"/>
<path id="_Tracé_79_1_" fill="#5D3739" d="M39.287,44.709c0.317-0.625,0.781-0.024,1.124-0.44c0.043-0.027,0,0.338,0.102,0.247
	c0.327-0.486,0.885-0.249,1.365,0.059v0.094c0.091,0.062,0.153-0.268,0.247-0.231l0.016,0.174c0-0.188,0.145-0.105,0.164-0.247
	l0.121,0.295l0.019-0.217c0.056-0.518,0.349-0.046,0.483-0.346l0.024,0.139c0.185-0.405,0.665-0.351,0.719-0.732l0.198,0.231
	c-0.089-0.1-0.129-0.235-0.11-0.367c0.231,0.094-0.099-0.188,0.072-0.172l0.048,0.021c-0.198-0.148,0.129-0.056-0.153-0.177h0.172
	c-0.33-0.059,0.158-0.067,0-0.131h-0.07c-0.08-0.032,0.083-0.072,0.027-0.107l0.035-0.016c-0.083-0.072,0.089-0.204-0.148-0.094
	c0.185-0.126,0.086,0.064,0.362-0.11c-0.292-0.41-0.727-0.418-0.974-0.66l-0.051-0.268l-0.239,0.126v-0.153
	c-0.04-0.126-0.174,0.228-0.22,0.091l0.118-0.225c-0.139,0.161-0.223,0.091-0.333,0.115l0.086-0.126
	c-0.174,0.174-0.145-0.115-0.268-0.013l0.089-0.123c-0.051-0.22-0.161,0.268-0.228,0.123l0.089-0.142
	c-0.212,0.204-0.338,0.046-0.48,0.083l0.032-0.056c-0.121-0.016-0.198-0.148-0.37-0.094c-0.013-0.083,0.169-0.327,0.032-0.33
	c-0.126,0.268-0.252,0.016-0.327,0.357c-0.078-0.089-0.185-0.268-0.298-0.201c0.097-0.08,0.11-0.349,0.201-0.338v-0.193
	c0.059-0.11,0.046,0.067,0.094-0.083l-0.239-0.019c-0.15,0.137-0.362,0.416-0.499,0.394c0.107-0.08,0.102-0.319,0.164-0.343
	l-0.402,0.443c-0.048,0,0.083-0.22,0-0.174l-0.118,0.158c0-0.038-0.198,0-0.099-0.29l0.089-0.142l-0.201,0.03l0.016-0.04
	c-0.032-0.059-0.196,0.048-0.204,0.228c0.03,0.024,0.056-0.169,0.072-0.07c-0.054,0.101-0.17,0.153-0.282,0.126l0.113-0.188
	c-0.12,0.125-0.265,0.222-0.426,0.284c-0.048,0.131,0.115-0.231,0.107-0.153c-0.078-0.236-0.338,0.177-0.376-0.139
	c0.024-0.013-0.038,0.201-0.027,0.161c-0.056-0.038-0.013-0.239-0.067-0.174c0.019-0.123-0.059,0.016-0.105,0.038
	c-0.035,0.075,0-0.064,0.038-0.064c-0.086,0.056-0.381,0.268-0.507,0.067c0,0.075-0.131,0.284-0.164,0.268l0.038-0.185
	c-0.021-0.113-0.123,0.013-0.11-0.145c-0.102,0.215,0.311-0.174,0.19,0c0-0.15-0.174,0.287-0.123,0.035
	c-0.075,0-0.164,0.212-0.215,0.032c0.019,0.03,0.08-0.268,0.024-0.241l-0.126,0.142l-0.054,0.072
	c-0.021,0.182-0.089-0.03-0.067,0.177c0-0.153-0.153,0.083-0.123-0.217l0.027-0.233c-0.046,0.019-0.089,0.244-0.126,0.346
	l-0.013-0.11c-0.016,0.359-0.102-0.035-0.158,0.241c-0.089-0.131-0.228-0.027-0.268-0.268c-0.075,0.102-0.131,0.233-0.212,0.166
	l0.038-0.126c-0.051-0.102-0.064,0-0.107,0.056l-0.174-0.322l-0.032,0.424c-0.08-0.346-0.18,0.247-0.282-0.067l0.027-0.268
	c-0.097-0.343-0.115,0.268-0.231,0.115l0.051,0.292c-0.064-0.182-0.134,0.182-0.156-0.121c-0.024,0.11-0.131-0.086-0.091,0.198
	c-0.198-0.225-0.381,0.182-0.566-0.319c-0.013,0.051-0.086,0-0.046,0.15c0.04,0.15,0.035-0.115,0.067,0v0.126
	c-0.059-0.062-0.107-0.075-0.097-0.317c-0.156-0.169-0.038,0.491-0.188,0.424l-0.07-0.129l-0.027,0.223
	c-0.094-0.024-0.113-0.247-0.161-0.445l-0.083,0.209l-0.129-0.223c0.094,0.161,0,0.126-0.016,0.182v-0.056
	c-0.035-0.08-0.078,0-0.097,0.019l0.158,0.174l-0.04,0.193c-0.054-0.19-0.121-0.11-0.161-0.121s0,0.182,0,0.177
	c-0.038-0.097-0.072,0-0.089-0.142c0-0.032,0.064,0.086,0.056,0c-0.008-0.086-0.11-0.231-0.121-0.091
	c-0.011,0.139,0.142,0.362,0.021,0.268l-0.032-0.196l-0.11-0.072L34,41.066l-0.04-0.078c0.046,0.182-0.097,0.089-0.029,0.287
	l-0.174-0.099V41.16c-0.091-0.086-0.094,0.021-0.062,0.145l-0.019-0.035v0.164c-0.107-0.089-0.367-0.569-0.303-0.341
	c-0.046,0.046,0.118,0.327,0.201,0.405c-0.153-0.04-0.04,0.236-0.3,0.072l0.086,0.131c-0.212,0,0.04,0.284-0.284,0.158l-0.244-0.142
	c0.129,0.107-0.158-0.043,0.078,0.099l0.268,0.121c0.062,0.094,0.029,0.142-0.134,0.121l0.158,0.062
	c-0.241-0.089-0.306-0.056-0.239,0l0.153,0.04l-0.174-0.019c0.046,0.032,0.3,0.056,0.161,0.089l-0.161-0.024
	c0.153,0.054,0.405,0.072,0.292,0.072h-0.215h0.236c-0.113,0.024-0.126,0.046-0.319,0.105c0.563-0.097,0.268-0.078,0.426-0.024
	l-0.086,0.083c-0.043,0.089,0.161-0.148,0.121-0.08l-0.268,0.282c-0.029,0.121,0.198-0.121,0.252-0.15
	c0.102-0.123-0.083,0.067,0.048-0.083c0.035-0.046-0.027,0.123,0.118-0.064l-0.212,0.292l0.089-0.075
	c-0.107,0.255-0.357,0.349-0.518,0.646h0.048c-0.094,0.231-0.268,0.148-0.209,0.295c0.158-0.108,0.28-0.26,0.351-0.437
	c0.11,0,0.327-0.456,0.37-0.394c-0.051,0.134-0.062,0-0.148,0.169c-0.086,0.169,0.11-0.043,0.105,0.035l0.166-0.325l-0.072,0.241
	l0.15-0.298c0.148-0.268,0.048,0.094,0.177-0.115c-0.054,0.209-0.268,0.445-0.215,0.569c0.062-0.198,0.207-0.239,0.268-0.536
	l-0.115,0.327c0,0.142,0.241-0.325,0.123,0.072l0.086-0.201l-0.016,0.241c0.04,0.019,0.215-0.236,0.123,0.072
	c0.021-0.032,0.113,0,0.137-0.217c-0.016-0.142-0.113,0.139-0.059-0.156c-0.029,0.247,0.091,0,0.148-0.078l-0.03,0.121l0.118-0.129
	l-0.04,0.18l0.067-0.177c0.102-0.07-0.062,0.33,0.029,0.298l-0.097,0.126l0.062,0.11l0.169-0.491
	c0.054-0.056-0.024,0.196,0.054,0.04l-0.099,0.185c-0.021,0.051-0.021,0.29,0.046,0.306l0.107-0.389v0.239l0.11-0.282l0.099,0.456
	l-0.129,0.268h0.048c-0.105,0.22,0,0.174-0.07,0.416l0.126-0.097c-0.035-0.4,0.198-0.515,0.225-0.874
	c0.142-0.083-0.048,0.869,0.172,0.333c0-0.094,0.097-0.359,0-0.268c0.078,0.051,0.105-0.346,0.177-0.193
	c-0.089,0.139,0.032,0.367-0.099,0.566c0.024-0.118-0.048-0.091-0.064-0.062c0,0.139-0.062,0.354,0.03,0.365
	s0.126-0.027,0.139-0.212s-0.08,0-0.021-0.188c0.113-0.062,0.094,0.247,0.177-0.105c-0.07,0.021-0.056-0.19-0.04-0.33l0.083-0.075
	l-0.03,0.134c0.107,0.11,0.064-0.241,0.174-0.193l0.021,0.268c-0.048,0.225-0.153-0.123-0.174,0.252
	c0.072,0.027,0.121-0.161,0.18-0.056l-0.059,0.064c0.021,0.021,0,0.52,0.142,0.239l0.043-0.268l0.252-0.177
	c-0.035,0.268,0.134,0.04,0.032,0.308c-0.032-0.164-0.207-0.166-0.268,0.086c0.016,0.33-0.094-0.054-0.15,0.268
	c0.099,0.016,0.062,0.335,0.059,0.55l0.086-0.099v-0.4c0.11,0.067,0.228-0.03,0.303-0.217c0.03,0.102,0,0.3-0.04,0.311l0.41,0.059
	c-0.07-0.325,0.15-0.075,0.107-0.343l-0.054-0.432v0.209c0.062-0.174,0.07,0.287,0.139,0c-0.131,0.099-0.043,0.392-0.08,0.644
	c0.099-0.137-0.013,0.182,0.08,0.182l0.319-0.3c0.118,0.241,0.325,0,0.437,0c0.056,0.123,0,0.405,0.072,0.461
	c0.075,0-0.048-0.311,0.059-0.177v0.059c0.032-0.067,0.204,0.196,0.241-0.215l-0.038,0.306L38,44.062l-0.013,0.268
	c0.067,0.215,0.15-0.032,0.225-0.043l-0.048-0.182c0.131-0.139,0.22,0.043,0.346-0.019v0.18l0.07-0.105
	c-0.013,0.169,0.054,0.284,0.091,0.142l-0.193,0.432l0.027-0.392c-0.032-0.153-0.153-0.107-0.169,0.067l0.083-0.086
	c0.013,0.252-0.054,0.239-0.089,0.408l0.062-0.016l-0.174,0.145v-0.225c0,0.217-0.08,0.284-0.177,0.22
	c-0.067-0.252-0.185,0.166-0.295,0.091l0.177-0.488l-0.145-0.107l-0.161,0.518v-0.166c-0.086,0.083-0.089,0.327-0.193,0.268
	l-0.507-0.105v-0.166c-0.094,0.354-0.268,0.126-0.376,0.268c-0.169-0.156-0.405,0.118-0.469-0.169
	c-0.301,0.118-0.63,0.148-0.947,0.086l0.091-0.233c-0.086,0.169-0.021-0.139-0.083-0.107c0.04,0.193-0.113,0.233-0.177,0.37
	c-0.121-0.198-0.335-0.021-0.499,0.131l0.027-0.166c-0.188,0.306-0.314-0.024-0.467-0.121l-0.048-0.223
	c-0.161,0.231-0.204,0.198-0.386,0.319l-0.317-0.268c-0.491,0.29-0.823-0.156-1.403-0.319l0.094-0.174
	c-0.778,0.094-0.751-0.925-1.057-1.389l0.333-0.016c0.062-0.164-0.158-0.333-0.381-0.284c0.064-0.166-0.22-0.443,0.043-0.515
	c0.032-0.156-0.164-0.172-0.153-0.327c0.178-0.177,0.291-0.408,0.322-0.657l-0.051,0.056l0.225,0.067
	c-0.035-0.137,0.252-0.295-0.131-0.408c0.308-0.182,0.244-0.754,0.7-0.676l-0.075-0.196c0.204-0.164,0.536-0.134,0.604-0.397
	c0.062,0.024,0.046,0.188,0.131,0.142l-0.038-0.215c0.268-0.459,0.754-0.126,1.014-0.268c0.445-0.304,0.964-0.479,1.502-0.507v0.08
	c0.121-0.311,0.41,0.268,0.477-0.19c0.046,0.07,0.145,0.021,0.134,0.172c0.107-0.22,0.365,0.172,0.536-0.113l-0.046,0.043
	c0.193,0.161,0.338-0.091,0.536,0.054l-0.054,0.142c0.07,0.142,0.166-0.351,0.212,0.035V38.55c0.424,0.166,0.88-0.054,1.341-0.11
	c0.295,0.247-0.054,0.636,0.228,0.373c0,0.07,0.032-0.148,0.027-0.064c0.11-0.099,0.089,0.426,0.182,0.233
	c0-0.228,0.062-0.123,0.086-0.268c0.18,0.166,0.153,0.362,0.346,0.247l-0.038,0.115c0.268-0.268,0.429-0.035,0.711-0.365
	c1.113,0.3,1.864,0.486,2.704,0.805c0.979,0.746,0.714-0.268,2.988,1.878c-0.164,0.426-0.185,0.207,0.072,0.633l-0.107,0.027
	c0.255-0.078,0.107,0.357,0.354,0.359c0.075,1.003,0.075,1.553-0.625,2.259c0.08-0.131-0.043-0.317-0.139-0.19v0.247l-0.067-0.038
	c-0.048,0.105-0.07,0.295,0.075,0.268c-1.534,1.312-2.433,0.504-3.289,0.767c-0.22-0.083-0.507,0.043-0.719,0.105
	c-0.673-0.314-1.253-0.569-1.899-0.306c0,0,0.075-0.687,0.33-0.85"/>
<path id="_Tracé_80_1_" fill="#5D3739" d="M38.751,44.873l-0.043-0.381L38.751,44.873z"/>
<path id="_Tracé_81_1_" fill="#5D3739" d="M36.857,43.478l-0.032-0.075c0.024,0,0.056-0.121,0.07-0.054L36.857,43.478z"/>
<path id="_Tracé_82_1_" fill="#5D3739" d="M36.382,43.381l0.182-0.215L36.382,43.381z"/>
<path id="_Tracé_83_1_" fill="#5D3739" d="M36.001,42.85l0.035-0.148L36.001,42.85z"/>
<path id="_Tracé_84_1_" fill="#5D3739" d="M35.942,43.11l-0.054-0.137C35.889,43.073,35.975,42.917,35.942,43.11"/>
<path id="_Tracé_85_1_" fill="#5D3739" d="M35.079,42.668c-0.021,0-0.086,0.102-0.083-0.032
	C34.996,42.729,35.122,42.501,35.079,42.668"/>
<polygon id="_Tracé_86_1_" fill="#5D3739" points="34.644,42.786 34.612,42.78 34.663,42.638 "/>
<polygon id="_Tracé_87_1_" fill="#5D3739" points="35.953,40.691 35.91,40.755 35.905,40.637 "/>
<path id="_Tracé_88_1_" fill="#5D3739" d="M39.207,40.964c0.064-0.054-0.013,0.113-0.013,0.131L39.207,40.964z"/>
<polygon id="_Tracé_89_1_" fill="#5D3739" points="41.227,41.233 41.213,41.233 41.321,41.01 "/>
<path id="_Tracé_90_1_" fill="#5D3739" d="M46.141,41.726c0.193,0-0.091-0.233,0.126-0.056
	C46.245,41.758,46.202,41.823,46.141,41.726"/>
<path id="_Tracé_91_1_" fill="#5D3739" d="M46.843,41.466c-0.19-0.88,0.866-1.124,0.193-1.682c-0.043-0.054,0.338-0.04,0.22-0.161
	c-0.604-0.389-0.518-1.143-0.362-1.902h0.099c0.043-0.153-0.338-0.131-0.351-0.268l0.161-0.064
	c-0.185,0.051-0.188-0.158-0.341-0.139l0.22-0.233l-0.228,0.038c-0.555,0.072-0.209-0.426-0.574-0.536l0.129-0.054
	c-0.499-0.198-0.668-0.705-1.051-1.006l0.247-0.172c-0.142,0.089-0.324,0.077-0.453-0.03c0.156-0.185-0.306-0.038-0.292-0.228
	l0.048-0.024c-0.268,0.072,0-0.209-0.268-0.097l0.102-0.164c-0.29,0.166,0.032-0.231-0.156-0.198l-0.048,0.048l-0.11-0.177
	l0.027-0.035c-0.18-0.083-0.107-0.284-0.3-0.115c0.115-0.182,0.185,0.078,0.349-0.196c-0.574-0.308-0.955-0.805-1.387-1.231
	l0.075-0.249l-0.327-0.083l0.054-0.153c0-0.148-0.29,0.113-0.292-0.056l0.215-0.139c-0.215,0.067-0.29-0.054-0.421-0.099
	l0.137-0.075c-0.255,0.062-0.137-0.209-0.322-0.193l0.137-0.072c0-0.268-0.268,0.18-0.298-0.013l0.137-0.091
	c-0.284,0.07-0.413-0.156-0.593-0.182l0.048-0.043l-0.44-0.284c0-0.091,0.268-0.268,0.089-0.327
	c-0.198,0.223-0.308-0.107-0.456,0.215c-0.08-0.134-0.188-0.373-0.327-0.359c0.126-0.04,0.18-0.325,0.292-0.268l0.048-0.201
	c0.086-0.08,0.043,0.099,0.121-0.043l-0.287-0.134c-0.204,0.064-0.502,0.268-0.665,0.169c0.137-0.035,0.169-0.287,0.247-0.29
	l-0.558,0.268c-0.054-0.032,0.137-0.196,0.021-0.193l-0.164,0.11c0-0.038-0.233-0.102-0.083-0.354
	c0.051-0.11,0.115,0.016,0.126-0.11l-0.241-0.067l0.021-0.035c-0.032-0.086-0.244-0.043-0.268,0.145
	c0.035,0.04,0.091-0.158,0.097-0.04c-0.101,0.087-0.251,0.087-0.351,0l0.156-0.142c-0.191,0.068-0.398,0.075-0.593,0.019
	c-0.078,0.115,0.193-0.166,0.172-0.091c-0.056-0.327-0.488-0.051-0.491-0.317L37.662,29.2c-0.072-0.043,0.027-0.223-0.064-0.177
	c0.046-0.107-0.091,0-0.161,0.024c-0.064,0.064,0-0.064,0.064-0.054c-0.131,0.062-0.48,0.121-0.601-0.121
	c-0.021,0.075-0.182,0.239-0.215,0.215l0.062-0.177c-0.013-0.121-0.134-0.04-0.113-0.198c-0.131,0.185,0.381-0.04,0.22,0.078
	c0-0.164-0.228,0.215-0.145-0.021c-0.089-0.027-0.19,0.148-0.244-0.059c0.019,0.038,0.107-0.225,0.038-0.241l-0.15,0.094
	l-0.067,0.046c-0.019,0.177-0.094-0.072-0.067,0.148c0-0.156-0.161,0.013-0.145-0.268l0.024-0.223c-0.056,0-0.094,0.201-0.126,0.287
	l-0.021-0.113c0,0.365-0.08,0.027-0.083,0.327c-0.072-0.078-0.113,0.072-0.225-0.126c0,0.123,0.027,0.239-0.072,0.18l-0.035-0.105
	c-0.099-0.08-0.059,0-0.056,0.054c-0.11-0.094-0.235-0.168-0.37-0.22l0.292,0.338c-0.282-0.153,0.164,0.338-0.107,0.22l-0.215-0.188
	c-0.319-0.11,0.193,0.268,0.019,0.292l0.268,0.105c-0.174-0.035,0.121,0.188-0.153,0.067c0.091,0.064-0.129,0.083,0.153,0.153
	c-0.255,0.097-0.067,0.322-0.512,0.424l0.18,0.059c0.142-0.046-0.142-0.046-0.035-0.067l0.137,0.021
	c-0.043,0.051-0.043,0.099-0.303,0.067c-0.123,0.158,0.536,0.062,0.486,0.201l-0.126,0.08l0.225,0.016
	c-0.019,0.097-0.239,0.142-0.424,0.212l0.209,0.08l-0.204,0.18c0.148-0.137,0.121,0,0.169,0H35.1l0.027,0.115l0.15-0.217
	l0.174,0.013c-0.188,0.094-0.062,0.164-0.04,0.22l0.204-0.03c-0.083,0.062,0.054,0.091-0.097,0.131l-0.054-0.07
	c-0.032,0.072-0.185,0.169-0.019,0.164c0.126,0,0.311-0.233,0.29-0.064l-0.201,0.062v0.15l0.148-0.102l-0.059,0.059
	c0.174-0.083,0.164,0.107,0.349,0v0.228h-0.019c-0.04,0.118,0.08,0.148,0.209,0.113l-0.03,0.021l0.198,0.059
	c-0.043,0.161-0.491,0.469-0.247,0.4c0.067,0.078,0.338-0.099,0.402-0.207c0.024,0.215,0.343,0.161,0.268,0.48l0.161-0.075
	c0.153,0.236,0.579,0.228,0.502,0.628l-0.201,0.209c0.166-0.075-0.051,0.172,0.158-0.013l0.15-0.268
	c0.18,0.046,0.365,0.212,0.333,0.384l0.131-0.113c-0.18,0.182-0.115,0.292,0,0.282l0.118-0.107l-0.064,0.161
	c0.059,0,0.249-0.22,0.215-0.048l-0.094,0.142c0.158-0.032,0.402-0.107,0.394,0.056l-0.091,0.233l0.177-0.15
	c0.04,0.223,0.113,0.311,0.027,0.499c0.414-0.121,0.861,0.014,1.14,0.343l-0.083,0.086c0,0.145,0.172-0.129,0.174-0.024
	l-0.241,0.279c0.024,0.18,0.268-0.048,0.373-0.032c0.105-0.115-0.121,0.032,0.016-0.113c0.046-0.035,0.072,0.212,0.236,0.043
	l-0.236,0.268l0.137-0.035c-0.091,0.268-0.491,0.236-0.62,0.569l0.086,0.016c-0.099,0.236-0.338,0.089-0.239,0.268
	c0.139-0.038,0.413-0.268,0.416-0.381c0.182,0.056,0.416-0.384,0.555-0.255c-0.048,0.139-0.142-0.067-0.233,0.107
	c-0.091,0.174,0.207,0.03,0.223,0.129c0-0.123,0.196-0.268,0.268-0.268c0,0.148-0.182,0.134-0.094,0.236
	c0.102-0.089,0.268-0.091,0.233-0.233c0.233-0.212,0.059,0.158,0.268,0.013c-0.099,0.196-0.421,0.303-0.37,0.48
	c0.107-0.177,0.319-0.107,0.448-0.394l-0.204,0.287c0,0.15,0.4-0.174,0.164,0.169l0.153-0.148l-0.064,0.247
	c0.056,0.051,0.367-0.075,0.161,0.174c0.043,0,0.164,0.102,0.247-0.115c0-0.169-0.19,0.059-0.048-0.215
	c-0.097,0.239,0.131,0.067,0.228,0.038l-0.067,0.107l0.207-0.038l-0.105,0.158l0.148-0.126c0.172,0.016-0.18,0.282-0.029,0.325
	l-0.18,0.051l0.059,0.156l0.394-0.343c0.107,0-0.091,0.177,0.078,0.086l-0.209,0.097c-0.046,0.035-0.121,0.268-0.035,0.335
	c0.091,0,0.325-0.137,0.298-0.268c0.046,0.03,0.038,0.161-0.07,0.233c0.131,0.032,0.105-0.158,0.247-0.177l-0.07,0.512l-0.268,0.161
	l0.054,0.046c-0.215,0.126-0.067,0.172-0.268,0.327h0.188c0.123-0.397,0.459-0.319,0.644-0.628c0.212,0.048-0.432,0.767,0.072,0.456
	c0.03-0.097,0.268-0.247,0.115-0.247c0.07,0.107,0.268-0.225,0.306-0.021c-0.174,0.048-0.126,0.359-0.381,0.426
	c0.083-0.08-0.013-0.123-0.056-0.113c-0.04,0.139-0.225,0.268-0.126,0.354c0.083,0.021,0.172,0.086,0.268-0.075
	c0.097-0.161-0.11-0.054,0.054-0.185c0.166,0.043,0,0.3,0.268,0.056c-0.094-0.038,0.016-0.217,0.107-0.333h0.142l-0.102,0.097
	c0.086,0.19,0.196-0.166,0.314-0.024l-0.102,0.268c-0.174,0.156-0.139-0.241-0.349,0.072c0.086,0.083,0.236-0.043,0.268,0.102h-0.11
	c0.021,0.038-0.252,0.453,0.059,0.327l0.19-0.198l0.41,0.056c-0.19,0.201,0.153,0.153-0.126,0.29
	c0.051-0.158-0.169-0.317-0.384-0.15c-0.145,0.295-0.086-0.129-0.325,0.107c0.115,0.094-0.089,0.346-0.198,0.536l0.15-0.021
	l0.215-0.335c0.097,0.148,0.292,0.156,0.483,0.062c-0.016,0.115-0.153,0.268-0.217,0.228l0.451,0.4
	c0.11-0.333,0.223,0.083,0.322-0.18c-0.028-0.168,0.039-0.337,0.174-0.44l-0.11,0.182c0.18-0.078-0.078,0.306,0.164,0.148
	c-0.217-0.048-0.282,0.268-0.467,0.448c0.193-0.021-0.123,0.134-0.021,0.22l0.536,0.056c-0.016,0.3,0.362,0.314,0.499,0.421
	c0.236,0.585-0.284,0.295-0.217,0.486c0.051,0.064,0.252-0.177,0.193-0.035l-0.059,0.019c0.075-0.024-0.046,0.306,0.268,0.038
	l-0.239,0.196h0.105l-0.188,0.18c-0.075,0.22,0.174,0.118,0.268,0.182l0.072-0.18c0.225,0,0.207,0.29,0.37,0.236l-0.113,0.145
	l0.142-0.067c-0.115,0.142-0.072,0.268,0.035,0.164l-0.504,0.268c0-0.118,0.223-0.129,0.268-0.295
	c0.059-0.121-0.102-0.148-0.236-0.062h0.145c-0.153,0.193-0.223,0.134-0.367,0.22l0.072,0.048l-0.268-0.054l0.145-0.172
	c-0.158,0.15-0.268,0.131-0.333,0c0.115-0.22-0.322-0.107-0.402-0.373l0.555-0.038l-0.03-0.241c-0.161,0.051-0.41,0.148-0.593,0.021
	l0.148-0.067c0.013,0.204-0.268,0.223-0.311,0.15l-0.437-0.504l0.099-0.129c-0.306,0.204-0.346-0.121-0.536-0.089
	c-0.089-0.268-0.504-0.201-0.426-0.502c-0.406-0.118-0.78-0.328-1.092-0.614l0.204-0.142c-0.172,0.091,0.043-0.137-0.04-0.156
	c-0.046,0.201-0.236,0.126-0.37,0.209c-0.035-0.268-0.359-0.268-0.601-0.247l0.097-0.131c-0.327,0.131-0.327-0.215-0.469-0.392
	l0.021-0.244c-0.268,0.137-0.292,0.086-0.536,0.105l-0.268-0.424c-0.609,0-0.845-0.504-1.379-0.644l0.089-0.169
	c-0.641,0.019-0.872-0.649-1.322-0.783l0.247-0.225c-0.035-0.164-0.287-0.134-0.41,0.062c-0.035-0.161-0.354-0.102-0.241-0.359
	c-0.067-0.137-0.225,0-0.341-0.04c-0.08-0.207-0.245-0.369-0.453-0.445l0.038,0.056l0.131-0.196c-0.131,0-0.207-0.3-0.402,0.051
	c-0.051-0.349-0.609-0.295-0.598-0.695l-0.19,0.083c-0.185-0.204-0.207-0.563-0.475-0.604c0-0.07,0.174-0.07,0.115-0.158
	l-0.198,0.067c-0.443-0.207-0.408-0.805-0.692-1.073c-0.585-0.44-0.907-1.636-0.955-2.438h0.075
	c-0.231-0.341,0.472-0.62,0.115-0.968c0.094-0.051,0.126-0.268,0.244-0.161c-0.105-0.327,0.416-0.536,0.341-0.987v0.102
	c0.215-0.231,0.29-0.593,0.805-0.649l-0.035,0.172c0.207,0.062,0.164-0.453,0.421-0.156c0.078-0.038-0.021-0.198-0.075-0.164
	c0.974-0.402,1.609-0.464,2.312-0.239c0.44,0.394-0.113,0.633,0.322,0.488c0,0.08,0.062-0.131,0.046-0.056
	c0.18-0.043,0.089,0.491,0.244,0.335c0.04-0.236,0.105-0.097,0.164-0.228c0.225,0.252,0.182,0.459,0.475,0.392l-0.072,0.102
	c0.392-0.196,0.66,0.062,0.992-0.123l3.165,2.283c0.904,0.888,1.803,1.644,2.521,2.715c-0.054,0.445-0.03,0.459,0.268,0.628
	l-0.091,0.064c0.212-0.158,0.161,0.161,0.376,0.024l0.909,1.073c-0.075-0.043-0.268,0.056-0.204,0.115l0.198-0.024l-0.048,0.056
	l0.249-0.099c0.842,1.003,1.194,2.272,1.609,3.517c-0.019,0.338,0.198,0.74,0.346,1.073c0.115,0.536-0.292,3.144-2.256,3.487
	c0.151-0.366,0.358-0.705,0.614-1.006"/>
<path id="_Tracé_92_1_" fill="#5D3739" d="M45.899,41.681c-0.019-0.148-0.105-0.268,0.038-0.392L45.899,41.681z"/>
<polygon id="_Tracé_93_1_" fill="#5D3739" points="44.58,38.835 44.593,38.741 44.7,38.768 "/>
<path id="_Tracé_94_1_" fill="#5D3739" d="M44.081,38.325l0.333-0.03L44.081,38.325z"/>
<path id="_Tracé_95_1_" fill="#5D3739" d="M43.874,37.542l0.121-0.099L43.874,37.542z"/>
<path id="_Tracé_96_1_" fill="#5D3739" d="M43.684,37.724V37.55C43.625,37.633,43.823,37.579,43.684,37.724"/>
<path id="_Tracé_97_1_" fill="#5D3739" d="M42.782,36.592c-0.029,0-0.145,0.019-0.089-0.105
	C42.662,36.581,42.911,36.469,42.782,36.592"/>
<polygon id="_Tracé_98_1_" fill="#5D3739" points="42.176,36.329 42.131,36.302 42.251,36.206 "/>
<polygon id="_Tracé_99_1_" fill="#5D3739" points="35.291,29.221 35.334,29.288 35.232,29.229 "/>
<path id="_Tracé_100_1_" fill="#5D3739" d="M38.281,29.763c0.097-0.016-0.03,0.121-0.03,0.145L38.281,29.763z"/>
<polygon id="_Tracé_101_1_" fill="#5D3739" points="40.701,31.059 40.685,31.048 40.851,30.876 "/>
</svg>
