<svg id="Calque_1" data-name="Calque 1" xmlns="http://www.w3.org/2000/svg" viewBox="0 0 358.33 315.65"><defs><style>.cls-1{fill:#fff;}.cls-2{fill:#5d3739;}.cls-3{fill:#6d983e;}</style></defs><title>Duck</title><path id="_Tracé_" data-name="&lt;Tracé&gt;" class="cls-1" d="M538,186.44c11.11.91,72.48-11.41,47.94-22-10.65-4.6-24.39,2.24-32.87-8.25-9.16-11.35-3.29-22.19-23.09-19-1,15.47-2.66,34-1.59,49.28" transform="translate(-302.88 -132.13)"/><path id="_Tracé_2" data-name="&lt;Tracé&gt;" class="cls-2" d="M506.75,183.76c2.26,10.24,5.78,26.16,11,35.15,4,7,14.71,7.29,22.31,10-2.73-6-5.89-13.42-8.19-19.77-3.6-9.84-1.36-14.28,5.51-19.79,9.16-7.36,9.73-23.45,23.39-26.29-4.79-2.73-8.44-3.34-11.9-8.21-3.3-4.66-5-8.6-9.62-12.23-7.43-5.84-23.12-3.92-30.52,3.42-8.36,8.33-4.19,27.55-1.94,37.71" transform="translate(-302.88 -132.13)"/><path id="_Tracé_3" data-name="&lt;Tracé&gt;" class="cls-1" d="M382.51,232.49c-8,.17-14.32-11.63-21.23-11-9.31.79-9.13,24.93-8.91,31.29.43,11.91,4.2,25.72,11,35.59,4.78,7,12.07,10.65,17.17,17-4.71,4.53-12,2.14-17.78,4.23.19,4.5,33.24,11.59,38.42,13.1,12.3,3.63,23.76,9.67,35.89,13.34,11.84,3.6,31.39,2.26,42.9-2,23.05-8.45,45.15-33.79,58.76-53.43,6.6-9.52,13.92-20.32,9.58-32.33-3.22-9-15.85-20.38-26.17-20.65-13.69-.35-27.49,7.66-41,9.65-10.71,1.59-20.89-.71-31.63-.68-14.71,0-29.5-1.59-44.22-2.22-8.68-.36-19.11-2.92-27.56-1.9" transform="translate(-302.88 -132.13)"/><path id="_Tracé_4" data-name="&lt;Tracé&gt;" class="cls-2" d="M525.7,377.5c6.34-2.11,11.2-9.29,17.11-10.83,5.2-1.34,9.26,3.38,9.62,10,1.21,22.61-25.85.73-33.59-1.92" transform="translate(-302.88 -132.13)"/><path id="_Tracé_5" data-name="&lt;Tracé&gt;" class="cls-3" d="M591.28,396.45c-4.44-10.8-12.14-20.72-17.54-31.33,10.17,9.77,18.23,27.27,29.24,38.21.47-24.39-3.47-48.91-4.09-73.52,13.54,24.48,12.6,54,19.51,78.6,1.77-22.07,4-41.91,11.21-63.39,2.83,23.37-2.31,47.24,2.34,70.86,3.51-8.44,12.62-16.18,23-19.95-9.85,9.42-8.79,23.46-9.68,35.41-13-3-27.36-8.67-40.47-13.12" transform="translate(-302.88 -132.13)"/><path id="_Tracé_6" data-name="&lt;Tracé&gt;" class="cls-2" d="M537.15,387.94c1.1-.56-.58.39.86-1.48-.51,2.87-.51,1.26-.86,1.48" transform="translate(-302.88 -132.13)"/><path id="_Tracé_7" data-name="&lt;Tracé&gt;" class="cls-2" d="M307.59,300.1c4,0,5.93,4.69,9.75,5.14.42.08-.71,1.06.3,1.18,4-.17,8.23,2.87,11.69,5.89l-.36.23c.65.64,1.95-.2,2.74.09l-.27.62c.42-.64,1.6,0,2.08-.42l.42,1.26.68-.67c1.79-1.6,3.14.82,5.16.25l-.22.48c3.12-.66,6.54.8,9.84.42l-.18,1.11c.26-.84,1.29-1,2.17-1.11.31.89,1.54-.71,2.51-.18l-.1.18c.81-.86,1.1.6,1.75-.45l.45.7c.39-1.2,1.05.7,1.7.1v-.24c.59-.27.88.37,1.43.19l0,.15c1.28-.26,2,.48,2-.48.44.79-1.22.28-.52,1.43a121.72,121.72,0,0,1,12.71-1.24l1,.81c.4-.21,1.56-.28,1.88-.78-.14,0,.34.46.57.49.84.32.68-1.08,1.58-.73l-.19.94c.61-.76,1.6-.7,2.35-1.22l-.18.63c.7-1.06,1.69-.27,2.34-1l-.13.62c1.73.47-.55-1.63,1.81-.74-.32-.12-1-.08-.61.25,1.42.1,2.3,1.71,3.2,2.3l-.2.09c.83.82,1.36,1.93,2.5,2.65.08.5-1.16.74-.23,1.56.82-.75,1.66,1.31,2.16-.08.51.93,1.25,2.47,1.95,2.75-.6-.07-.66,1.33-1.29.72l-.08,1c-.39.24-.32-.63-.61-.08.32.32,1.44,1,1.57,1.43,1,.15,2.32-.08,3.54.44-.8,0-.57,1.09-1.05,1l2.92-.57c.38.2-.49.73.2.84l.81-.32c.05.19,1.56.74,1.07,1.72-.12.46-.72-.2-.56.39l1.57.57-.08.13c.33.44,1.52.48,1.38-.34-.27-.24-.25.62-.51.05a2.27,2.27,0,0,1,2.09.44l-.67.49a7.7,7.7,0,0,1,3.37.53c.25-.46-.76.61-.78.27.8,1.67,3,.61,3.79,1.8-.23,0,.18-.74.13-.6.66.24.35,1,.9.81-.12.43.62,0,1.11,0,.35-.21.06.25-.37.19.8-.19,3.5-.16,4.8.87a1.93,1.93,0,0,1,1.49-.68l-.3.63c.21.5,1.14.26,1.06.86.93-.63-2.94-.08-1.82-.44.13.62,1.61-.69,1.2.16.68.17,1.49-.42,2,.4-.16-.16-.73.78-.16.89,1,.16.32-.25,1.17-.26l.53-.14c.14-.65.85.35.61-.51,0,.58,1.41.07,1.19,1.11l-.26.85c.45,0,.83-.85,1.21-1.21l.11.4c.2-1.33,1,.16,1.59-.83.88.51,2.25.21,2.69,1,.74-.39,1.42-.87,2.24-.57l-.44.45c.5.41.64,0,1.12-.16-.11.2,1,.81,1.59,1.29.75-.4.5-1.11.58-1.56.64,1.33,2-.81,2.86.37-.25.19-1.06.66-.45,1,.65,1.31,1.34-1,2.4-.36l-.28-1.1c.49.68,1.59-.64,1.48.47.35-.39,1.25.37,1.13-.71,1.76.87,4.27-.56,5.38,1.32.24-.19.88,0,.74-.56-.43-.6-.58.44-.74,0l.29-.46c.55.22,1,.29.48,1.18,1.24.64,1.22-1.85,2.78-1.46l.52.53.83-.79c1,.16.59,1,.63,1.74.54-.13,1.19-.11,1.43-.68l.66.94c-.49-.68.44-.47.68-.66l-.24.19c.12.32.72.11,1,0L454.3,337l1-.68c-.1.75.89.49,1.32.56s.52-.69.65-.66c0,.37.82,0,.45.56-.16.14-.4-.35-.66,0,.33.27.32.94,1,.43s-.18-1.44.79-1l-.46.77.91.33v-.67l.12.32c.22-.72,1.32-.27,1.5-1.08l1.4.49-.08.06a1.3,1.3,0,0,0,1.66-.39l0,.15,1.3-.49c.75.47.37,2.52,1.12,1.63.73-.06,1.09-1.3.77-1.71,1.34.38,2.78-.79,4.05.17l.43-.63c1.95.15,4-1,5.62.14-.53.32,0,.65.06,1,.42-.63.6.57.69-.48-.1-.6-.07-.88-.64-1.08,1.12-.43,2.83-.59,3.52-.07-.34-.27-.12-.47.11-.66,0,1,.87,1,1.47.64l0-.59.48.56c.21-.23.1-1.27.75-.8l.26.59c.54-.57,1.23-1.5,2-1.11l.7.76c.28-.13.63-.69.08-.88l.84.2c10.33,7,2.8,2.32,5.07,4l-.54,1c2.21,1.6,2.86,4.22,3.6,6.49l-.44.08c-.18.72.84,0,.69.57-.46-.06-.71.77-1.36.46-.14,1,1.1.86,1.47,1.34.57-.13-.49-.32.22-.47.22,0,0,1.33.9,1.12l-1.28.43.62.35c-.67,1-2.31-.75-3.21.37l.35.44c-.65.81-1.52-.93-1.27.43.64.39,2,.35,2.12-.25.71,1,2.16-.31,2.57.85-.33.53-.49-.85-1.06-.35-.42.81.82.93.81,1.51.06-.67,1.06-.58,1.35-.32-.12.76-.91,0-.64.83.52-.05,1.22.42,1.22-.3,1.16-.25.1.88,1.09.84-.58.62-2,.12-2,1.13.63-.5,1.43.45,2.21-.53a1.05,1.05,0,0,1-1.08.77c-.13.71,1.72.31.59,1.3l.8-.3-.29,1c.3.39,1.89.61.86,1.25.2.05.87,1,1.26.14,0-.83-1-.27-.3-1.21-.45.9.7.69,1.2.82l-.34.32,1,.37-.49.49.72-.23c.86.5-.85.91-.11,1.5l-.87-.21c.18,0-.14.69.33.91l1.91-.69c.54.23-.43.63.42.62l-1,0c-.22,0-.54,1-.1,1.55.47.21,1.63.14,1.46-.61a.6.6,0,0,1-.3,1c.66.47.46-.52,1.2-.25l-.2,2.39-1.26.15.29.39c-1,.08-.28.7-1.19,1l1,.58c.45-1.75,2.14-.5,2.92-1.65,1.06.76-1.81,2.91.53,2.51.11-.43,1.23-.64.45-1,.4.72,1.26-.53,1.47.61-.82-.17-.46,1.55-1.65,1.32.36-.26-.13-.69-.32-.72-.14.63-1,.89-.44,1.55.37.36,1,.74,1.38.17s-.69-.4.11-.75c1,.38.34,1.33,1.59.57-.58-.28-.18-.95.18-1.32l.82.16-.47.31c.7,1,.89-.5,1.68.26l-.22,1.06c-.76.51-1-1.24-1.83-.08.56.48,1.23.08,1.54.78l-.57-.11c.16.19-.8,1.79.74,1.56.71,0,.43-.3.78-.69,1.06.57,1.64.35,2.31.72-.73.74,1,.87-.26,1.22,0-.72-1.36-1.67-2.32-1.14-.4,1.19-.66-.69-1.64.11.79.59,0,1.5-.36,2.2l.83.12.68-1.33a2.93,2.93,0,0,0,2.77.88c.08.51-.44,1.05-.82.83l3.13,2.44c0-1.51,1.25.59,1.32-.58-.39-.65-.39-1.69.19-1.95.27.31-.29.44-.29.76.75-.27.1,1.38,1,.8-1.13-.37-.94,1.12-1.58,1.8,1,.06-.37.57.34,1.08l3,.44c.73,1.24,2.81,1.13,3.79,1.49.35.64-.38,1.49.13,1.89.68.27-.11-1.27.72-.42l-.16.17c.37-.13,1.61,1.46,2.36.05l-.65,1,.62-.15-.35.9c.44.92,1.42.19,2.14.32l-.28-.77c1.34-.25,2,.57,3.22.59l-.17.64.78-.24c-.3.59.29,1.16.76.7l-2.19,1.2c-.44-.5.74-.68.55-1.39s-1.29-.66-1.62-.08l.85-.14c-.07.93-.71.75-1.17,1.3l.61.08-1.77.19c.6-.25-.13-.64.14-.85-.27.8-1.05.88-1.91.46-.43-1-1.89.06-2.85-.61l2.11-1.11c-.49-.65-.7-.26-1.18-.91-.49.46-1,1.28-2,1.3l.18-.6c-.86,0-1.2.83-2.12.28-1.51-1-3.36-1.43-4.38-2.42l.23-.56c-1.22.71-2.25-1.06-3.38-1.16-1.07-1.52-3.39-1.76-3.5-3.13-2.65-1.52-5.43-2.53-7.46-5l1-.23c-.81,0,.13-.64-.31-1-.1,1-1.12.06-1.78.14-.39-1.59-2.06-2.46-3.34-3l.43-.45c-1.68-.24-1.87-2.09-2.72-3.43.09-.3.36-.86,0-1.18-1.33-.07-1.56-.47-2.86-1.1l-1.57-3c-3.09-2.54-3.76-6.3-5.82-9.35l.58-.5c-2.7-2.8-2.52-7.52-3.86-10.43l1.25.06-.06-.72c1.68,1.08-4-2.92,3.7,2.36l-.27.2a.9.9,0,0,0-.3,1.12c-1-.22-2.36,1-3.13.08-1-.08-1.16.75-1.93,1a9.24,9.24,0,0,0-4.37.26l.43,0c.18-.29.15-.81-.3-.84-.62.39-2.45-.12-1.67,1.27-2-.64-4.33,1-6.25,0,.19.39-.27.49-.45.77-1.63.12-3.42-.6-4.69.16-.28-.2.38-.7-.29-.71-.38.17,0,.51-.46.77-2.62.84-5.4-.54-7.81-.27-4.27,1-8.75.62-12.86.84l0-.29c-1.38,1.14-3.24-1.13-4.35.57-.32-.28-1.24-.13-1-.68-1.11.78-3.07-.71-4.69.27l.42-.16c-1.62-.66-3.05.2-4.75-.42l.54-.5c-.64-.58-1.59,1.21-1.92-.21-.38,0-.28.71-.06.68-3.78-.54-8.13-.1-12.16-1.14-2.68-1.61.36-2.37-2.13-2-.11-.29-.26.5-.21.2-1,.15-.9-1.89-1.7-1.33,0,.9-.54.35-.71.85-1.57-1-1.64-1.84-3.22-1.61l.27-.39c-2,.63-3.72-.11-5.51.28-8.51-4.81-16.36-9.92-21.34-17.18,10.06-5.08-12.95,2-17.39-.37-2-1.21-2-1.08-4.3-.74l.08-.42c-.11,1-1.59,0-1.81.94l-9.62-.45c.54-.09.89-.87.25-.85l-.72.59-.07-.27c-.45.12-1,.58-.57.91-8.46-.82-16.56-3.59-24.19-7-1.67-1.2-4.42-2-6.49-2.71-5.58-3.36-8.75-8.68-14.68-11.45a5.49,5.49,0,0,1,4.71-.39" transform="translate(-302.88 -132.13)"/><path id="_Tracé_8" data-name="&lt;Tracé&gt;" class="cls-2" d="M535.93,387.77c-.14-.52-.77-.93-.12-1.47Z" transform="translate(-302.88 -132.13)"/><polygon id="_Tracé_9" data-name="&lt;Tracé&gt;" class="cls-2" points="217.57 244.97 217.46 244.55 218.04 244.73 217.57 244.97"/><path id="_Tracé_10" data-name="&lt;Tracé&gt;" class="cls-2" d="M517,374.19c.3-.32,1.26-.05,1.72.23Z" transform="translate(-302.88 -132.13)"/><path id="_Tracé_11" data-name="&lt;Tracé&gt;" class="cls-2" d="M514.76,370.32c0-.49.17-.6.53-.31Z" transform="translate(-302.88 -132.13)"/><path id="_Tracé_12" data-name="&lt;Tracé&gt;" class="cls-2" d="M513.91,370.93l-.23-.78c-.23.29.79.28.23.78" transform="translate(-302.88 -132.13)"/><path id="_Tracé_13" data-name="&lt;Tracé&gt;" class="cls-2" d="M508.37,364c-.16-.14-.72-.26-.49-.74-.1.41,1.06.43.49.74" transform="translate(-302.88 -132.13)"/><polygon id="_Tracé_14" data-name="&lt;Tracé&gt;" class="cls-2" points="202.38 229.03 202.15 228.79 202.73 228.6 202.38 229.03"/><polygon id="_Tracé_15" data-name="&lt;Tracé&gt;" class="cls-2" points="134.65 204.82 135.12 204.61 135.05 205.03 134.65 204.82"/><path id="_Tracé_16" data-name="&lt;Tracé&gt;" class="cls-2" d="M404.87,330.16c-.5,0,0-.53-.06-.62.35.18-.41.38.06.62" transform="translate(-302.88 -132.13)"/><polygon id="_Tracé_17" data-name="&lt;Tracé&gt;" class="cls-2" points="86.94 187.51 87.06 187.6 86.33 188.15 86.94 187.51"/><path id="_Tracé_18" data-name="&lt;Tracé&gt;" class="cls-2" d="M384.75,443.84c.92-3.29,5.18-3.24,6.88-6,.24-.27.57,1.13,1.06.45,1.54-2.94,5.79-4.7,9.42-4.89l-.05.39c.73,0,1-1.3,1.71-1.37l.2.61c-.12-.69,1-.69,1.12-1.27l1,.87,0-.87c.33-2.14,2.58-.75,3.64-2.15l.09.52c1.89-1.89,4.84-2.67,7.31-4l.24,1.11c-.09-.86.65-1.35,1.3-1.75.53.75,1-1.18,1.94-1l0,.21c.42-1.1,1,.2,1.27-1l.54.61c0-1.25,1,.49,1.41-.2l-.06-.24c.43-.38.81.2,1.22-.07l.07.13c1-.47,1.74.11,1.53-.82.51.69-1,.5-.16,1.5,3.27-1.48,6.91-1.81,10.4-2.35l.87.75,1.54-.91.48.45c.7.29.54-1.12,1.31-.81l-.14,1c.49-.83,1.29-.83,1.95-1.17l-.18.59c.67-.95,1.45,0,2-.66l-.16.58c1.18.5.15-1.19,1.16-.93l-.11.64c.74-1.15,2.2-1,3-1.48v.22c.93-.26,2-.09,3-.69.42.18,0,1.37,1,1-.18-1.11,1.63-.76.88-1.9.88,0,2.29.21,2.8-.26-.33.48.6,1.29-.08,1.5l.62.58c0,.46-.55-.07-.32.47.34-.1,1.34-.72,1.68-.59.57-.79,1-2.16,2-2.5-.44.54.47,1.18.17,1.42l1.14-2.35c.34-.13.22.85.69.48l.22-.78c.16.11,1.42-.53,1.77.53.23.41-.54.33-.08.65l1.27-.64,0,.15c.48.09,1.2-.67.61-1.2-.3,0,.23.63-.27.4a1.85,1.85,0,0,1,1.56-1.11l-.13.83a6.49,6.49,0,0,1,2.49-2c-.1-.51-.17,1-.37.76,1.39.49,2.35-1.46,3.63-.6-.16.12-.26-.71-.21-.58.61,0,.75.71,1.07.36.16.43.48-.21.85-.4.12-.36.14.19-.19.29a5.36,5.36,0,0,1,4-1.1,1.6,1.6,0,0,1,.83-1.21l.06.69c.37.36,1-.24,1.17.3.43-.91-2.27,1.15-1.57.37.37.51.94-1.26,1-.33.61-.13,1-1.09,1.7-.59-.19-.07-.24,1.05.22.87.81-.35.15-.39.77-.81l.36-.38c-.14-.66.78-.13.26-.77.27.51,1.14-.67,1.34.44l.12.87c.33-.16.35-1.05.53-1.51l.22.35c-.29-1.3.9-.14,1.06-1.24.89.23,1.95-.51,2.52.2.48-.56.87-1.18,1.62-1.09l-.23.55c.54.26.54-.12.86-.42,0,.21,1.06.52,1.66.84.48-.56.07-1.19,0-1.63.89,1.13,1.38-1.27,2.4-.32-.16.24-.67.86-.09,1,.91,1.12.8-1.22,1.83-.85l-.53-1c.57.55,1.07-1,1.33.14.17-.44,1.1.07.7-.93,1.67.48,3.24-1.47,4.68.1.16-.22.71-.19.44-.67-.52-.48-.33.54-.59.17l.1-.5c.52.1.88.08.74,1.05,1.18.35.41-2,1.83-2l.58.4.47-.93c.88,0,.78.84,1,1.55l1-.94.81.75c-.6-.54.23-.52.38-.76l-.15.24c.17.27.6-.06.84-.22l-1.08-.51.68-.86c.11.73.88.3,1.25.29s.27-.77.39-.77c.12.36.67-.13.51.48-.11.15-.42-.29-.55.11.34.2.5.86.91.23.32-.46-.51-1.37.4-1.13l-.2.82.82.17-.14-.66.16.29c0-.75,1.07-.52,1-1.32l1.26.19-.05.1c.52.24,1-.17,1.28-.7l0,.15,1-.75c.71.34.78,2.41,1.24,1.42.6-.2.68-1.47.32-1.82,1.21.15,2.21-1.26,3.44-.52l.25-.69c1.67-.13,3.22-1.84,4.78-.64-.43.31.09.66.17,1,.3-.62.6.57.56-.45l-.68-1.1c1-.4,2.51-.53,3.16,0-.33-.26-.15-.46.05-.64.08,1,.82,1,1.34.65v-.59l.45.58c.2-.21.09-1.24.73-.73l.22.6c.53-.51,1.29-1.39,2-.94l.58.81c.27-.11.69-.66.19-.87,1.14.44,1.83.45,2.21,1.16,1.75-1.95,4.53-2.22,6.7-2.26l-.06.46c.57.38.32-.83.72-.49-.2.4.39,1,0,1.44.78.54,1-.67,1.61-.81.11-.58-.45.32-.32-.4.11-.2,1.12.56,1.29-.29l-.12,1.32.51-.37c.55,1.08-1.46,1.69-.88,3l.46-.1c.39.95-1.24.91-.12,1.33.51-.38,1-1.6.56-2,1-.14.59-2,1.71-1.85.28.53-.91,0-.73.77.48.75,1.07-.29,1.54,0-.51-.37,0-1.22.34-1.35.54.49-.43.8.36,1,.18-.48.95-.8.34-1.21.37-1.12.82.39,1.34-.45.2.83-1,1.77-.13,2.27-.08-.79,1.18-.95.81-2.14a1.06,1.06,0,0,1,0,1.32c.45.53,1.34-1.3,1.36.26l.26-.78.54.94c.44.06,1.53-.93,1.35.25.16-.1,1.15.05.87-.8-.56-.57-.79.53-1-.63.34.95.92,0,1.31-.29v.46c.24-.16.73,0,.92-.49v.71l.31-.68c.93-.27,0,1.24.93,1.13l-.72.47c.15-.1.35.59.78.4l.87-1.83c.52-.24.11.73.67.13l-.72.7c-.12.19.27,1.09.89,1.15.45-.18,1.23-1,.63-1.44a.56.56,0,0,1,.39.89c.74-.08,0-.7.69-1l1.2,1.9-.79,1,.41.1c-.67.74.18.69-.27,1.53l1-.23c-.59-1.59,1.27-1.8,1.23-3.16,1.22-.16.2,3.33,1.73,1.49-.14-.37.59-1.28-.19-1,.68.3.7-1.2,1.47-.52-.73.42.43,1.45-.61,2.07.14-.43-.43-.41-.6-.32.22.55-.28,1.31.45,1.44.46,0,1.09,0,1.13-.66s-.72,0-.29-.75c.92-.1.87,1.07,1.47-.19-.58,0-.59-.81-.5-1.32l.72-.2-.22.49c1,.55.48-.86,1.47-.53l.3,1.07c-.38.81-1.41-.66-1.47.77.65.18,1-.49,1.54,0l-.5.18c.23.09.15,2,1.27,1.06.55-.32.21-.47.31-1,1.1,0,1.51-.43,2.2-.38-.32,1,1.2.31.24,1.2a1.45,1.45,0,0,0-2.32,0c.17,1.27-.8-.32-1.25.87.86.18.61,1.33.61,2.14l.66-.29,0-1.5a2.39,2.39,0,0,0,2.54-.48c.24.42,0,1.13-.38,1.13l3.38.71c-.46-1.31,1.25-.06,1-1.13-.51-.36-.87-1.3-.44-1.78.35.15-.11.52,0,.81.58-.58.5,1.15,1.14.22-1.09.2-.47,1.4-.84,2.29.84-.4-.15.65.57.78l2.64-.72c.86,1,2.59.45,3.49.57.4.54-.1,1.55.38,1.81.62.08-.25-1.21.57-.58l-.12.19c.32-.19,1.55,1,2-.46l-.45,1.1.52-.22-.23.95c.43.88,1.19.07,1.79.13l-.28-.72c1.12-.37,1.71.42,2.74.35l-.12.66.65-.3c-.22.61.26,1.12.66.64l-1.8,1.36c-.37-.47.59-.73.41-1.42s-1.11-.58-1.35,0l.7-.21c0,.94-.55.81-.9,1.39l.49,0-1.43.32c.47-.29-.14-.61.06-.85-.16.8-.79.95-1.5.61-.41-1-1.54.35-2.38,0l1.63-1.58-1.1-.6c-.35.57-.71,1.49-1.49,1.73l.08-.61c-.71.19-.86,1.09-1.67.78l-3.91-1,.08-.6c-.83,1.19-2.11.15-3,.57-1.26-.84-3.07,0-3.6-1.13a24.71,24.71,0,0,1-7.11-.58l.55-.81c-.55.56-.21-.56-.64-.51.36.8-.78.8-1.19,1.29-1-.89-2.53-.41-3.61,0l0-.61c-1.18.9-2.2-.14-3.41-.47l-.64-.82c-.8.91-1.14.81-2.19,1.34l-2.54-.9c-2.81,1.12-5.48,0-8.32.51l-.16-.73c-2.72,1.38-5.94.52-8.18,1.38l.15-1.23a1,1,0,0,0-1.35,1.3c-.76-.32-1.7.71-2.26-.25-.76-.16-.83.62-1.41.84A5.55,5.55,0,0,0,531,407l.35.06-.32-.85c-.47.37-2-.2-1.19,1.2-1.61-.59-3.23,1.57-4.86.81l-.24.84c-1.25.35-2.77-.06-3.62.87-.25-.13.15-.74-.37-.64l-.2.84c-1.87,1.28-4.35.4-6.18,1.09-3.14,1.69-6.62,2.21-10,3.29l-.05-.29c-.76,1.39-2.93-.37-3.32,1.5-.34-.21-1,.15-1-.44-.67,1-2.7,0-3.69,1.28l.28-.23c-1.46-.26-2.35.91-3.87.72l.29-.61c-.68-.4-.9,1.54-1.59.26-.29.1,0,.75.16.65-3.11.31-6.06,2.06-9.08,3.24-2.46-.37-.71-2.26-2.26-.93-.2-.23,0,.55-.07.27-.61.5-1.46-1.35-1.75-.55.4.81-.21.54-.1,1-1.55-.29-2-1-2.95-.17v-.46c-1,1.48-2.64,1.05-3.44,2.7-7.05,1.5-13.91,3.56-20.81,4.85-6.71.7-13.1,2.32-20,2.54-1.82-.95-1.93-.9-3.58-.17l0-.43c.1,1-1.21.28-1.18,1.23-2.65,0-4.65,1.08-7,1.92.35-.23.33-1.08-.1-.86l-.3.76-.15-.23c-.26.25-.47.83-.07,1-5.45,3.06-12.22,2.4-17.58,5.61-1.43.4-3,1.86-4.27,2.88-4.64,1.37-9,2.83-12.58,6.15,0,0-1-2.37.42-3.94" transform="translate(-302.88 -132.13)"/><polygon id="_Tracé_19" data-name="&lt;Tracé&gt;" class="cls-2" points="280.37 270.89 280.17 270.57 280.69 270.47 280.37 270.89"/><path id="_Tracé_20" data-name="&lt;Tracé&gt;" class="cls-2" d="M579.4,402c.15-.42,1-.62,1.54-.57Z" transform="translate(-302.88 -132.13)"/><path id="_Tracé_21" data-name="&lt;Tracé&gt;" class="cls-2" d="M576.06,399.6c-.24-.42-.13-.61.31-.52Z" transform="translate(-302.88 -132.13)"/><path id="_Tracé_22" data-name="&lt;Tracé&gt;" class="cls-2" d="M575.64,400.53l-.53-.59c0,.37.76-.11.53.59" transform="translate(-302.88 -132.13)"/><path id="_Tracé_23" data-name="&lt;Tracé&gt;" class="cls-2" d="M567.91,397.83c-.19,0-.67.29-.78-.22.15.36,1-.38.78.22" transform="translate(-302.88 -132.13)"/><polygon id="_Tracé_24" data-name="&lt;Tracé&gt;" class="cls-2" points="261.21 265.75 260.89 265.73 261.18 265.19 261.21 265.75"/><path id="_Tracé_25" data-name="&lt;Tracé&gt;" class="cls-2" d="M579.28,377.47c2.43-.2.49,1,2.1,1,.12,0-1.18.38-.83.4,1.91-.14,1.23.81.27,1.94l-.33.11c-.18.21,1-.15.85,0l-.6.26c.65-.28.4.07.9-.12l-1,.59.75-.28c1.82-.67.11.48,1.12.26l-.46.23c1.22-.18,1.27.36,1.84.55l-1,.58c.74-.42,1-.42,1.17-.41-.71.53.78-.24.43.14l-.16.1c.8-.41-.38.43.58-.11l-.54.44c1-.65-.47.48.09.21l.21-.13v.24l-.12.08c.36,0-.16.45.61-.11-.59.49-.35.06-1.22.78a1.84,1.84,0,0,1,1.71,1l-.61.62.7-.19-.37.38c-.22.31.91-.56.65-.2l-.77.53c.65-.37.65-.19.93-.26l-.48.32c.75-.41,0,.3.51.05l-.47.3c-.41.57,1-.65.73-.3l-.5.36c.9-.5.79-.1,1.15-.21l-.17.14.51.25c-.16.2-1.08.81-.82.82.88-.69.56-.06,1.5-.92-.06.23-.25.68.11.51-.37.22-1,.89-1.17.86l-.49.5-.34.21.41,0a8.67,8.67,0,0,1,1.91-1l-1.12.89,1.82-1.13c.08,0-.67.55-.39.45l.6-.41c-.1.11.38,0-.47.72l-.49.37.46-.08-.13.11c-.06.15.5-.13.94-.58,0-.06-.51.44-.31.18l.84-.29-.64.45,1.47-.58c.42-.31-.78.56-.58.35-.43.64,1.09-.29.37.53l.46-.4c0,.12-.57.6-.31.47-.35.29.16,0,.31-.05s-.16.15-.23.14c.36-.17,1.12-.31.76.29l.93-.52-.54.42c-.3.29.15.09-.3.46.72-.44-.8.13-.22-.16-.41.39,1-.53.24,0,.08.07.74-.35.3.13.07-.09-.78.55-.68.58l.52-.22.26-.13c.52-.42,0,.16.57-.36-.42.37.4,0-.47.65l-.69.53,1.1-.71-.29.27c1-.85,0,.18.86-.4-.27.39.17.27-.41.87.37-.18.79-.39.65-.11l-.38.25c-.27.3,0,.1.22,0l-.84,1,1.26-.91c-1,.91.84-.27,0,.58l-.81.54c-1,.89.88-.42.47.09l.83-.7c-.48.47.65-.2-.24.48.34-.2-.18.38.66-.28-.57.75.81.21-.63,1.48l.51-.22c.43-.42-.4.18-.09-.09l.41-.24c-.14.21-.17.32-.93.77-.43.55,1.57-.91,1.36-.47l-.38.39.69-.34c-.06.23-.77.64-1.39,1.08l.67-.19-.73.62c.53-.45.41-.2.58-.28l-.17.08.06.14.56-.58.62-.24c-.6.41-.35.42-.39.52l.59-.28c-.3.21,0,.15-.45.39l0-.1c-.21.19-.76.57-.31.38s1.2-.84.9-.44l-.66.34-.24.33.56-.37-.25.19c.6-.36.29.05,1-.36l-.33.46-.05,0c-.29.29,0,.22.41,0l-.12.08.49-.08c-.37.36-2.12,1.4-1.34,1a5.1,5.1,0,0,0,1.49-.78c-.28.41.77,0,0,.74l.54-.26c-.06.39,1.05.11,0,1l-.89.53c.55-.25-.49.39.4-.11l.93-.65c.39,0,.53.22.1.58l.58-.3c-.84.47-.88.65-.54.57l.52-.29-.49.36c.19-.06,1.11-.58.67-.22l-.53.34c.47-.14,1.28-.42.91-.09l-.72.49.8-.37-1,.94c1.78-.58,2.12-.2,2.23.19l-.41.18c-.31.27.73-.3.5-.1l-1.29.64c-.34.33.75-.14,1-.12.54-.24-.36.06.33-.23.19-.08-.37.43.45.08l-1.23.56.4-.08-2.83,1.16.15,0c-.8.46-1,.22-1.21.54l1.9-.77c.27.08,1.91-.78,1.9-.52-.44.27-.15-.13-.79.2s.4.05.2.25l1.27-.48-.83.43,1.15-.41c1.09-.38-.23.29.61.06a12.55,12.55,0,0,0-2.09.84,16.31,16.31,0,0,0,2.07-.67l-1.21.52c-.44.25,1.39-.26-.06.32l.76-.24-.8.42c0,.1,1.08-.05-.05.34.12,0,.12.21.88-.14.45-.29-.61.06.43-.39-.83.39.16.16.48.14l-.45.16.6,0-.66.23.69-.17c.39.11-1.17.43-.93.55h-.55c.12,0-.52.26-.27.29l1.86-.42c.29,0-.69.24-.05.17L602,402c-.19,0-1,.39-.94.52l1.45-.31-.78.32,1.08-.15-1.54.74-1.09.12v.09c-.84.1-.6.22-1.51.37l.44.08,3.25-.59c.4.19-3.13.83-1,.67.34-.12,1.35-.18.94-.28-.11.2,1.32-.15.83.16l-2.1.34c.43-.06.3-.17.17-.17-.49.15-1.31.25-1.28.4s.19.18.87,0-.13-.12.65-.2c.31.14-.84.38.51.24-.13-.12.63-.29,1.15-.37l.34.09-.5.07c-.32.3.91-.08.82.19l-1,.26c-.86.08.32-.4-1-.14,0,.15.67.09.34.29l-.29-.06c0,.06-1.87.37-.76.4l1-.09.87.39c-1,.06-.06.29-1.14.21.6-.13.48-.49-.5-.44-1.18.24.13-.2-1.1-.08,0,.18-1.18.32-1.94.44l.4.06,1.48-.21c-.17.21.26.34,1,.39a3,3,0,0,1-1.17.08l0,.68c1.17-.21.31.21,1.28.08l1.66-.25-.79.07c.67.06-1,.19,0,.26a8.62,8.62,0,0,0-2.4,0c.55.13-.69,0-.65.16l1.22.46c-.86.19.06.5.11.69-.44.08-1.51,0-1.69.07,0,.11,1.13,0,.68.11l-.21,0c.25.06-.68.24.86.41l-1.17-.13.3.1-1-.09c-.77.05.16.21.21.33h.68c.55.25-.1.29.18.5l-.68-.08.42.16c-.65-.11-1-.07-.51.05l-1.65-.45,1.45.2c.56,0,.35-.15-.29-.25l.32.15a10.74,10.74,0,0,1-1.5-.28l.07.09-.6-.26.84.06c-.81-.08-1.08-.19-.89-.29.94,0-.66-.26-.41-.37l1.87.32.35-.16-2-.27h.62c-.33-.12-1.23-.14-1.09-.26l.26-.56.59,0c-1.31-.05-.54-.28-1.14-.37.55-.24-.66-.37.36-.57-.53-.32-1-.52-.9-.91l.89-.11c-.65,0,.5-.14.36-.18l-1.47.16c.65-.3-.12-.34-.73-.32l.58-.15c-1.12.15-.18-.26,0-.48l.71-.34a8.23,8.23,0,0,1-1.49.2l.53-.58c-1.33.14-.56-.55-1.35-.56l.65-.34c-1.55.32-.68-.73-1.55-.67l1.09-.55c.27-.28-.44-.06-1.17.37.25-.26-.7.06.14-.49.12-.21-.56.15-.78.16.28-.42.13-.43-.2-.51l0,.09.74-.45c-.35.1.11-.43-1.11.37.59-.61-.9-.08-.06-.85l-.66.34c-.14-.16.43-.76-.24-.54l.6-.4-.68.34c-.8.15.26-1-.07-1.12-.94,0-.92-.67-1.31-1l.23-.17c-1,.53.68-1.05-.72-.13l.48-.52c-.71.37.37-.79-.53-.33l.14-.06c.4-.56-.4-.16-.06-.71l.45-.26c.38-.43-1.08.62,0-.32l-.53.42c.13-.73-1-.61-1.54-.82.4-.86,1.82-1.53.81-1.12l-.22.15c-.36.16,1.12-1.15.49-.73s-.41.26-.82.57c.28-.53.85-1.05.22-.79l.37-.28c-1.14.65-.77,0-2.06.8l-3.31-2c-.53-1.1-1.8-1.61-1.94-3,.79-1,.76-1,.18-1l.36-.22c-.82.55-.22-.18-1,.33l-.88-1.38c.14,0,.85-.37.74-.42l-.58.22.22-.15-.85.42c-1.45-.88-.37-3.08-1.2-4.18.26-.45-.31-.73-.67-1,.77-1.43,1.42-2.45.08-3.15a14.46,14.46,0,0,1,3.27-.29" transform="translate(-302.88 -132.13)"/><path id="_Tracé_26" data-name="&lt;Tracé&gt;" class="cls-2" d="M602.86,405l.55,0Z" transform="translate(-302.88 -132.13)"/><path id="_Tracé_27" data-name="&lt;Tracé&gt;" class="cls-2" d="M601.87,405.05l.46-.2c-.37,0,.26.13-.46.2" transform="translate(-302.88 -132.13)"/><path id="_Tracé_28" data-name="&lt;Tracé&gt;" class="cls-2" d="M602.78,403s-.41,0,.05-.2c-.33.12.57.09-.05.2" transform="translate(-302.88 -132.13)"/><polygon id="_Tracé_29" data-name="&lt;Tracé&gt;" class="cls-2" points="299.09 270.18 299.05 270.12 299.61 270 299.09 270.18"/><polygon id="_Tracé_30" data-name="&lt;Tracé&gt;" class="cls-2" points="291.37 259.6 291.59 259.53 291.23 259.77 291.37 259.6"/><path id="_Tracé_31" data-name="&lt;Tracé&gt;" class="cls-2" d="M591.09,387.76c-.25.12.3-.3.35-.35Z" transform="translate(-302.88 -132.13)"/><polygon id="_Tracé_32" data-name="&lt;Tracé&gt;" class="cls-2" points="284.79 254.91 284.81 254.91 284.1 255.46 284.79 254.91"/><path id="_Tracé_33" data-name="&lt;Tracé&gt;" class="cls-2" d="M600.69,342.11c-.21-.17-.73.25-.36-.07.36-.05.63-.05.36.07" transform="translate(-302.88 -132.13)"/><path id="_Tracé_34" data-name="&lt;Tracé&gt;" class="cls-2" d="M603.82,398.17c-2.31-.56,0-1.55-1.5-2.22-.1-.07,1.24,0,.94-.22-1.79-.63-.76-1.81.58-2.72l.36,0c.25-.18-.92-.32-.77-.5l.65,0c-.71,0-.33-.29-.86-.35l1.15-.2-.82-.06c-1.92-.21.11-.69-.88-1h.51c-1.17-.56-1-1.33-1.42-2l1.12,0c-.85,0-1.08-.21-1.25-.39.87-.11-.81-.27-.32-.51h.19c-.92-.12.53-.25-.58-.33l.69-.14c-1.23,0,.63-.25,0-.36l-.26,0c-.3-.12.33-.2.11-.31h.13c-.32-.25.36-.45-.61-.4.77-.12.37.25,1.47.05-1-.84-.84-1.76-.87-2.65l.86-.22-.68-.39.53-.13c.35-.17-1.06-.12-.65-.32l.93,0c-.74-.14-.64-.34-.88-.51l.56.05c-.85-.16.17-.36-.37-.52l.56,0c.66-.31-1.17,0-.78-.29l.63,0c-1-.18-.7-.57-1-.78h.23c-.13-.22.17-.49-.28-.74.25-.11,1.36,0,1.16-.27-1.11.05-.48-.42-1.74-.21.18-.23.6-.58.2-.73.43.08,1.36-.15,1.48,0l.65-.16c.46,0-.14.14.41.08l-.29-.43c-.69-.14-2-.25-2.12-.51l1.43-.05-2.16-.29c-.05-.09.88-.06.58-.17l-.71-.07c.13-.05-.29-.37.81-.45l.62,0-.42-.32h.15c.16-.12-.48-.31-1.08-.17,0,.09.66-.05.35.08-.63,0-.83-.25-.84-.42l.78,0a3.81,3.81,0,0,1-1.53-.67c-.52,0,1,.07.7.1.7-.34-1-.61,0-.92a2.53,2.53,0,0,1-.6,0c.05-.15.82-.17.53-.27.46,0-.14-.11-.27-.22-.33,0,.21,0,.26.06-.37-.13-1.08-.69-.44-1.05-.29,0-1.09-.16-1.06-.24h.69c.42-.09-.07-.27.52-.3-.84-.13.74.61.09.41.57-.09-1.11-.28-.17-.27,0-.14-.83-.25-.18-.43-.1.05,1,.08.92,0l-.57-.22-.29-.09c-.68,0,.1-.21-.67-.1.56-.05-.34-.31.77-.33H600a6.64,6.64,0,0,0-1.32-.19l.4-.05c-1.35.05.11-.23-.93-.31.46-.2,0-.49.84-.62-.44-.14-.92-.25-.65-.44l.45.07c.4-.12,0-.13-.19-.22l1.23-.38-1.58-.06c1.31-.2-.88-.38.29-.6l1,.05c1.3-.2-1-.23-.38-.49l-1.1.12c.67-.14-.66-.3.45-.33-.39-.05.34-.29-.72-.19.86-.42-.61-.86,1.24-1.19-.18-.05,0-.18-.55-.14s.43.11,0,.17l-.47,0c.24-.14.29-.23,1.2-.17.64-.3-1.84-.15-1.45-.5l.52-.14-.76-.11c.14-.23,1-.19,1.72-.24-.13-.1-.11-.24-.68-.24l.94-.22c-.68.15-.47-.06-.67-.1l.2,0c.32,0,.12-.17,0-.21l-.75.27-.65-.18c.71,0,.48-.22.56-.31s-.66-.07-.64-.11c.37,0,0-.16.58-.12.12,0-.37.11,0,.14s.93-.13.43-.22-1.43.12-1-.1l.73.05.36-.21-.67,0,.32,0c-.69,0-.24-.27-1-.25l.49-.33h.07c.37-.14.11-.25-.34-.31h.13l-.47-.24c.48-.2,2.52-.26,1.66-.36a3.67,3.67,0,0,0-1.66,0c.42-.3-.7-.53.32-.86l-.61-.06c.23-.42-.88-.75.41-1.19l1-.1c-.6,0,.6-.18-.42-.11l-1.12.22c-.35-.21-.39-.56.18-.75l-.66,0c1-.07,1.08-.26.74-.36l-.6,0,.6-.14c-.2,0-1.22.08-.69-.12L597,359c-.49-.1-1.33-.2-.84-.41l.84-.21-.86,0,1.26-.64c-1.83-.24-2-.86-1.9-1.37l.44-.05c.39-.18-.76,0-.47-.11l1.41-.16c.45-.25-.77-.17-1-.26-.58.05.38.05-.35.11-.21,0,.42-.32-.46-.24l1.33-.15-.42-.06,3.07-.21-.15-.08c.91-.23,1.05.17,1.33-.15a6.19,6.19,0,0,0-2.07.13c-.27-.22-2.08.15-2-.13.5-.14.15.2.86.05s-.42-.21-.18-.35l-1.39.13.9-.23-1.22.1c-1.15.07.29-.25-.6-.24.8-.17,1.86,0,2.24-.3a16.06,16.06,0,0,0-2.19.13l1.29-.2c.47-.17-1.43-.09.09-.33l-.79.05.85-.26c0-.11-1.09-.2.11-.34-.14,0-.11-.27-.92-.06-.49.21.61.09-.49.32.9-.23-.12-.19-.44-.24l.44-.08-.58-.11.68-.12-.7,0c-.37-.16,1.22-.21,1-.39l.55.07c-.11,0,.54-.17.31-.23l-1.91.12c-.29-.07.7-.15.05-.17l.78,0c.2,0,1-.27,1-.42l-1.5.14.83-.26-1.09,0,1.61-.61h1.08v-.09c.85,0,.65-.17,1.53-.23l-.42-.16c-1.4.42-2,.06-3.29.31-.39-.23,3.18-.66,1.1-.65-.34.1-1.35.13-1,.24.14-.19-1.3.09-.78-.21l2.1-.27c-.43.06-.32.18-.18.19.49-.14,1.31-.19,1.3-.37s-.18-.24-.87-.1.11.15-.66.2c-.28-.18.85-.39-.48-.28.11.12-.66.28-1.16.36l-.34-.12.51-.05c.33-.3-.92.07-.81-.2l1-.26c.86-.08-.33.41,1,.14.05-.16-.66-.09-.32-.32l.29.08c0-.06,1.87-.41.77-.48l-1,.13-.82-.39c1-.12.08-.3,1.12-.29-.57.18-.49.54.49.5,1.19-.31-.15.21,1.07.08,0-.21,1.17-.39,1.94-.55l-.42-.08-1.43.29c.18-.27-.26-.43-1-.45a2.45,2.45,0,0,1,1.17-.14l0-.88c-1.17.38-.3-.24-1.28,0l-1.63.47.78-.17c-.66,0,1-.35,0-.29.41.19,1.45-.21,2.38-.3-.53-.1.65-.1.63-.29l-1.16-.42c.84-.42-.06-.67-.12-.89.46-.19,1.5-.31,1.67-.47,0-.15-1.1.32-.66,0h.21c-.25,0,.66-.55-.82-.34l1.12-.15-.29-.06.94-.15c.79-.29-.15-.27-.2-.43l-.66.22c-.53-.16.11-.46-.16-.68l.66-.11-.42-.07c.64-.08,1.06-.31.51-.28l1.64.1-1.44.21c-.56.17-.35.36.28.29l-.33-.12a5.67,5.67,0,0,1,1.51-.09l-.06-.12.57.24-.83.17c.81-.13,1.07,0,.87.21-.92.31.63.25.4.53l-1.83,0-.36.37,1.93-.05-.59.12c.32.11,1.21-.05,1.06.19l-.27,1.08-.6.12c1.31-.07.54.43,1.12.53-.55.45.65.67-.37,1,.53.55,1,1,.88,1.71l-.88,0c.65,0-.5.16-.36.25l1.48,0c-.66.38.11.65.75.82l-.59.1c1.14.09.19.53,0,.88-.27.08-.82.21-.74.29a4.45,4.45,0,0,1,1.57.32l-.56.78c1.45.52.64,1.35,1.54,2l-.7.14c1.6.53.3,1.57,1.14,2.1l-1.23.08c-.35.23.37.39,1.23.25-.36.23.64.43-.36.65-.19.22.59.18.77.32-.43.44-.29.59,0,.93l.07-.1-.85.13c.33.11-.29.53,1.15.26-.8.48.77.87-.32,1.37l.75,0c0,.34-.72.77,0,1l-.7.11.74.05c.8.5-.65,1.2-.4,1.69.87.85.56,1.84.78,2.71h-.3c1.14.24-1.08.75.63.9-.27.08-.11.26-.67.25.81.19-.69.68.35,1l-.16-.08c-.61.36.3.63-.25,1l-.52-.09c-.55.15,1.26.27-.14.41l.67,0c-.47.8.41,1.58.78,2.37-.83.59-2.37.13-1.31.53-.28.06.53,0,.24,0,.4.15-1.58.33-.82.42.87-.08.48.07,1,.05-.54.37-1.31.47-.66.73H605c1.29.26.61.68,2.11.89l1.42,5.18c-.24,1.74.46,3.4-.27,5.18-1.18.46-1.15.49-.66.93h-.42c1,0,.1.31,1,.31l.15,1.9c-.12-.09-.93-.12-.86,0l.64.1-.27,0,.94.07c.89,1.62-1,3.35-.74,5-.39.41,0,1,.21,1.36-1.28,1.31-2.31,2.48-1.35,3.72,0,0-2.55-.05-3.15-.56" transform="translate(-302.88 -132.13)"/><path id="_Tracé_35" data-name="&lt;Tracé&gt;" class="cls-2" d="M600.81,342.34l-1.38.35Z" transform="translate(-302.88 -132.13)"/><path id="_Tracé_36" data-name="&lt;Tracé&gt;" class="cls-2" d="M596.22,347.1l-.28.11s-.45,0-.2-.09Z" transform="translate(-302.88 -132.13)"/><path id="_Tracé_37" data-name="&lt;Tracé&gt;" class="cls-2" d="M596,348.12l-.86-.2Z" transform="translate(-302.88 -132.13)"/><path id="_Tracé_38" data-name="&lt;Tracé&gt;" class="cls-2" d="M594.34,349.31l-.57.05Z" transform="translate(-302.88 -132.13)"/><path id="_Tracé_39" data-name="&lt;Tracé&gt;" class="cls-2" d="M595.32,349.22l-.47.22c.37-.05-.26-.13.47-.22" transform="translate(-302.88 -132.13)"/><path id="_Tracé_40" data-name="&lt;Tracé&gt;" class="cls-2" d="M594.26,351.36c0,.05.41.1-.07.21.33-.1-.58-.15.07-.21" transform="translate(-302.88 -132.13)"/><polygon id="_Tracé_41" data-name="&lt;Tracé&gt;" class="cls-2" points="292.12 220.03 292.15 220.11 291.6 220.15 292.12 220.03"/><polygon id="_Tracé_42" data-name="&lt;Tracé&gt;" class="cls-2" points="295.53 236.44 295.31 236.35 295.73 236.34 295.53 236.44"/><path id="_Tracé_43" data-name="&lt;Tracé&gt;" class="cls-2" d="M598.79,376c.28.09-.41.09-.46.1Z" transform="translate(-302.88 -132.13)"/><polygon id="_Tracé_44" data-name="&lt;Tracé&gt;" class="cls-2" points="298.22 247.79 298.2 247.76 299.1 247.74 298.22 247.79"/><path id="_Tracé_45" data-name="&lt;Tracé&gt;" class="cls-2" d="M637.73,324.12c0-.37-.57-.49-.1-.41Z" transform="translate(-302.88 -132.13)"/><path id="_Tracé_46" data-name="&lt;Tracé&gt;" class="cls-2" d="M621.89,402.72c-2.28-.79,0-2.28-1.41-3.27-.1-.13,1.24,0,.93-.3-1.75-1-.69-2.72.68-4l.36.08c.25-.24-.91-.53-.75-.79l.66,0c-.71-.07-.33-.46-.85-.58l1.14-.2-.79-.17c-1.93-.45.12-1-.86-1.56l.52.05c-1.18-1-.94-2.08-1.36-3.11l1.12.09a1.35,1.35,0,0,1-1.23-.74c.86,0-.76-.52-.25-.8l.2,0c-.88-.32.56-.3-.5-.59l.69-.09c-1.2-.21.67-.28.08-.52l-.26,0c-.27-.21.35-.26.18-.44h.13c-.27-.42.44-.59-.52-.68.78-.05.31.43,1.45.31-.85-1.38-.49-2.72-.34-4l.89-.19-.58-.68.53-.09c.39-.2-1-.38-.55-.61l.89.22c-.71-.3-.55-.59-.76-.88l.55.16c-.81-.38.23-.51-.28-.82l.54.16c.72-.33-1.12-.25-.7-.56l.61.15c-1-.44-.56-.94-.86-1.3l.21,0c-.07-.37.28-.71-.12-1.16.28-.12,1.35.2,1.19-.2-1.11-.11-.38-.68-1.65-.61.22-.3.7-.76.35-1,.4.2,1.36,0,1.43.28l.68-.12c.45.08-.18.2.4.2l-.23-.68c-.63-.32-1.88-.72-2-1.14l1.39.19-2-.81c0-.15.87.08.63-.15l-.69-.23c.12,0-.2-.59.91-.51l.59.15-.33-.55.17,0c.17-.15-.38-.54-1-.45,0,.11.66.05.31.16-.6-.19-.73-.5-.71-.74l.77.2a3.4,3.4,0,0,1-1.32-1.25c-.51-.07.92.27.65.29.78-.38-.85-1.13.25-1.37.08.07-.74-.08-.59-.07.1-.21.85-.09.59-.28.45.05-.1-.22-.21-.4-.3-.11.23,0,.25.14-.34-.26-.88-1.22-.14-1.6-.29-.05-1-.49-1-.59l.68.15c.42-.05,0-.39.59-.32-.79-.37.54,1,0,.61.58,0-1-.63-.09-.41,0-.24-.73-.57,0-.69-.12.05.91.33.88.13l-.49-.42-.24-.22c-.66-.1.13-.28-.62-.28.56.05-.27-.51.83-.31l.84.18c0-.16-.86-.37-1.22-.54h.41c-1.32-.23.16-.32-.83-.64.51-.23.17-.74,1-.76-.37-.28-.82-.57-.48-.79l.42.22c.42-.1.08-.2-.11-.38l1.32-.3-1.52-.43c1.34,0-.72-.78.5-.84l.94.31c1.33,0-.89-.58-.21-.8l-1.1-.11c.7,0-.53-.59.56-.36-.36-.18.41-.33-.64-.49,1-.39-.3-1.42,1.62-1.42-.15-.1.06-.26-.48-.32s.38.24,0,.23l-.43-.17c.26-.14.36-.26,1.2.06.73-.25-1.71-.72-1.22-1.11l.56-.08-.69-.4c.21-.26,1,0,1.74.15-.1-.19,0-.37-.56-.56l.94,0c-.69,0-.4-.22-.57-.33l.17.11.07-.31-.82.18-.58-.45c.72.17.56-.18.66-.29s-.63-.31-.58-.34h.59c.13.08-.36,0,0,.19.29,0,.93.11.49-.21s-1.43-.23-.93-.44l.71.29.42-.21-.66-.13.32,0c-.67-.22-.14-.46-.91-.67l.6-.32,0,0c.42-.08.2-.35-.22-.58l.14,0-.37-.49c.54-.13,2.5.41,1.72,0,0-.24-1.15-.61-1.57-.6.5-.32-.48-1,.59-1.18l-.56-.26c.37-.55-.56-1.43.82-1.65l1,.24c-.56-.28.64-.05-.35-.31l-1.14-.08c-.26-.42-.16-1,.41-1.05l-.62-.19c.94.23,1.12,0,.82-.28l-.56-.16h.61c-.18-.12-1.19-.35-.61-.44l.62.09c-.43-.3-1.13-.79-.61-.91H624l-.81-.28,1.47-.46c-1.58-1.08-1.41-2.08-1.09-2.83l.42.13c.44-.11-.72-.31-.4-.38l1.39.37c.53-.18-.65-.58-.78-.83-.56-.17.3.26-.4,0-.18-.1.54-.3-.29-.58l1.3.37-.37-.29,2.9,1.08-.09-.2c.92.07.88.71,1.3.37l-2-.72c-.13-.43-2-.71-1.76-1.11.52,0,0,.36.73.47s-.24-.49.05-.58a2,2,0,0,1-1.31-.48l.94.1-1.16-.43c-1.07-.43.39-.22-.41-.65.81.14,1.7.84,2.18.63-.74-.17-.87-.71-2-.87l1.27.34c.52,0-1.21-.85.28-.46l-.75-.31.92,0c.07-.16-.86-.85.28-.46-.1-.1.06-.45-.76-.55-.57.06.48.44-.63.23.94.11,0-.38-.25-.6l.44.11-.45-.5.68.2-.65-.31c-.22-.44,1.2.32,1.12-.06l.43.41.4-.2-1.74-.84c-.21-.27.71.16.14-.23l.66.48,1.1-.05c-.14-.22-.94-.76-1.35-.63l.86.08-1-.56h1.73l.94.61,0-.15c.76.49.65.11,1.47.53l-.27-.47c-1.46-.19-1.75-1-3-1.41-.18-.58,3.12.88,1.38-.32-.36-.05-1.2-.63-1-.22.26-.21-1.14-.68-.48-.8.38.44,1.35.25,1.93.88l-.3.17c.53.07,1.23.5,1.36.24,0-.21,0-.45-.62-.67s0,.28-.71-.12c-.1-.43,1,0-.17-.7,0,.26-.77,0-1.23-.2l-.17-.39.44.25c.52-.26-.79-.48-.49-.83l1,.21c.74.45-.62.43.69.91.17-.21-.43-.6,0-.69l.17.3c.1-.08,1.82.6,1-.21l-.91-.47-.34-1.13c.9.5.3-.4,1.11.33-.6-.13-.82.48,0,1,1.16.35-.31.23.78.83.16-.31,1.25.21,2,.48l-.26-.39-1.38-.53c.35-.26.11-.76-.45-1.27.39,0,1,.4,1,.56l.65-1.17c-1.17-.31,0-.57-1-.88l-1.6-.51.71.32c-.49-.47,1.06.24.22-.42.16.56,1.27.78,2,1.3-.35-.53.58.32.69.07l-.56-1.45c1,.11.71-.89,1-1.23.5.12,1.28.85,1.55.8s-1-.55-.41-.55l.16.15c-.11-.24,1-.06-.13-1.12l.81.82-.1-.32.71.64c.75.36.19-.43.32-.64l-.61-.34c-.12-.69.55-.46.64-.93l.46.49-.13-.47c.4.52.81.66.53.17l.75,1.64-1-1.12c-.45-.34-.57.09-.14.57l-.06-.41c.66.62.52.75.9,1.27l.07-.18.12.74-.64-.55c.6.57.66.88.34.92-.83-.45.18.77-.19.81l-1.15-1.5-.59.1,1.3,1.48-.51-.34c.12.36.86.86.55,1l-1.05.91-.54-.29c1.06.83.13.9.52,1.43-.73.18.09,1.21-.95,1a3.49,3.49,0,0,1-.41,2.57l-.76-.46c.54.38-.52-.11-.48.1.74.08.78.54,1.24.83-.83.09-.24.9.23,1.43l-.6-.19c1,.74-.09.81-.42,1.18h-.8c.87.55.76.66,1.24,1.19l-.89.72c1,1.34-.16,2,.43,3.25l-.71-.11c1.23,1.36-.41,2.21.15,3.23l-1.17-.37c-.42.19.16.68,1,.8-.44.18.41.79-.61.73-.26.22.52.45.64.72-.56.45-.48.68-.35,1.24l.1-.11-.87-.11c.3.28-.43.65,1,.76-.92.39.45,1.43-.76,1.76l.71.29c-.06.5-.95.85-.35,1.37l-.72-.07.7.29c.59.95-1,1.46-1,2.22.56,1.43,0,2.68-.13,3.94l-.28-.07c1,.6-1.31.75.3,1.38l-.74.19c.73.45-.89.78,0,1.42l-.12-.14c-.73.37.08.94-.59,1.35l-.48-.25c-.58.11,1.15.67-.26.55l.66.11c-.73,1,0,2.33.08,3.53-1,.71-2.36-.3-1.42.51-.29,0,.53.12.22.09.35.3-1.63.16-.91.43.86.07.44.2,1,.28-.63.42-1.42.41-.84.91l-.44-.09c1.2.64.42,1.09,1.82,1.69l.2,7.71c-.59,2.45-.2,5-1.3,7.42-1.26.48-1.22.53-.85,1.22l-.39-.06c1,.13,0,.48,1,.63l-.16,2.74c-.11-.16-.91-.29-.85-.12l.62.23h-.27l.94.19c.86,2.31-1.12,4.49-.89,6.77-.41.53-.05,1.31.16,1.87-1.33,1.76-2.4,3.47-1.5,5.18,0,0-2.53,0-3.1-.67" transform="translate(-302.88 -132.13)"/><path id="_Tracé_47" data-name="&lt;Tracé&gt;" class="cls-2" d="M637.61,324.45l-1-1Z" transform="translate(-302.88 -132.13)"/><polygon id="_Tracé_48" data-name="&lt;Tracé&gt;" class="cls-2" points="327.27 193.99 326.96 193.95 326.89 193.68 327.27 193.99"/><path id="_Tracé_49" data-name="&lt;Tracé&gt;" class="cls-2" d="M629.21,327.44l-.52-.9Z" transform="translate(-302.88 -132.13)"/><path id="_Tracé_50" data-name="&lt;Tracé&gt;" class="cls-2" d="M626.94,328.05l-.49-.3Z" transform="translate(-302.88 -132.13)"/><path id="_Tracé_51" data-name="&lt;Tracé&gt;" class="cls-2" d="M627.79,328.57l-.55,0c.35.15-.1-.37.55,0" transform="translate(-302.88 -132.13)"/><path id="_Tracé_52" data-name="&lt;Tracé&gt;" class="cls-2" d="M625.28,331.15c0,.08.31.36-.18.28.35,0-.4-.57.18-.28" transform="translate(-302.88 -132.13)"/><polygon id="_Tracé_53" data-name="&lt;Tracé&gt;" class="cls-2" points="322.58 200.65 322.55 200.78 322.05 200.51 322.58 200.65"/><polygon id="_Tracé_54" data-name="&lt;Tracé&gt;" class="cls-2" points="318.84 226.32 318.66 226.14 319.07 226.24 318.84 226.32"/><path id="_Tracé_55" data-name="&lt;Tracé&gt;" class="cls-2" d="M619.89,369.45c.24.18-.43.05-.49.07Z" transform="translate(-302.88 -132.13)"/><polygon id="_Tracé_56" data-name="&lt;Tracé&gt;" class="cls-2" points="318.36 243.52 318.35 243.47 319.23 243.6 318.36 243.52"/><path id="_Tracé_57" data-name="&lt;Tracé&gt;" class="cls-2" d="M655.31,382c1.77,1.57-.48.91.59,2,.05.08-1.12-.6-.9-.33,1.36,1.19.13,1.34-1.34,1.27l-.3-.18c-.29,0,.72.61.53.63l-.59-.28c.62.33.2.31.67.59l-1.08-.39.7.39c1.67,1-.3.34.51,1l-.48-.23c.9.85.49,1.2.7,1.77l-1-.5c.76.39.89.62,1,.79-.81-.34.63.56.13.47l-.16-.11c.74.53-.54-.11.38.49l-.63-.27c1.07.62-.61-.16-.11.21l.22.11-.19.12-.13-.06c.19.3-.45.05.39.51-.7-.3-.23-.3-1.26-.77.58,1,.13,1.37-.16,1.87l-.82-.33.45.56-.5-.21c-.36-.09.87.64.44.51l-.79-.5c.6.46.44.51.59.73l-.47-.32c.68.54-.27.1.15.47l-.47-.31c-.65-.2,1,.63.55.56l-.52-.34c.81.63.4.66.63,1l-.19-.12,0,.56c-.24-.08-1.14-.74-1-.5.94.59.25.5,1.36,1.07-.23,0-.69,0-.42.28-.32-.28-1.17-.67-1.2-.81l-.62-.29c-.37-.25.18,0-.32-.28l.13.4c.51.46,1.53,1.23,1.56,1.46l-1.18-.78,1.66,1.36c0,.08-.75-.46-.54-.23l.56.44c-.11,0,.12.36-.82-.21l-.49-.37.23.42-.13-.08c-.16,0,.28.43.82.71,0,0-.55-.36-.25-.24.5.39.59.59.54.7l-.62-.48a5.32,5.32,0,0,1,1,1.24c.42.29-.77-.58-.52-.45-.69-.23.62.95-.4.48l.51.34c-.11,0-.73-.4-.54-.17-.38-.25.07.14.13.27l-.19-.18c.25.28.55,1-.11.79l.72.77-.55-.43-.53-.16c.61.58-.31-.76.12-.26-.48-.3.75.81,0,.23,0,.1.52.64-.07.33.12.05-.72-.63-.73-.53l.35.46.18.22c.53.4-.17.05.47.46-.44-.31.14.38-.73-.31l-.68-.53.94.9-.34-.21c1.07.81-.18.05.59.72-.45-.17-.25.26-.95-.21.26.34.58.71.28.63l-.32-.33c-.36-.18-.09,0,0,.23l-1.13-.61,1.18,1c-1.08-.75.46.77-.53.11l-.72-.67c-1.07-.76.64.76,0,.49l.88.66c-.57-.38.33.58-.52-.14.27.28-.38-.1.44.58-.84-.39,0,.84-1.51-.3l.34.44c.49.36-.26-.35.07-.08l.3.34c-.22-.1-.3-.11-.94-.75-.61-.3,1.25,1.35.8,1.24l-.46-.29.5.59a6,6,0,0,1-1.36-1.11l.35.59-.75-.56c.55.41.29.34.41.5l-.12-.16-.11.11.68.41.37.56c-.53-.52-.47-.26-.57-.26l.41.5-.47-.35.08-.06c-.23-.15-.72-.62-.42-.22s1.06,1,.64.78l-.49-.57-.36-.16.49.46-.25-.2c.49.52,0,.3.6.87l-.51-.22-.05,0c-.32-.22-.2,0,.08.41L647,404l.19.47c-.43-.3-1.81-1.76-1.31-1.09a5.86,5.86,0,0,0,1.12,1.24c-.45-.18.21.72-.65.11l.39.45c-.37,0,.2.95-.89.18l-.74-.73c.38.45-.49-.38.24.35l.85.73c.13.34,0,.52-.49.18l.46.48c-.69-.68-.87-.7-.69-.4l.4.41-.45-.38c.11.16.86.88.39.55l-.46-.42c.27.39.78,1.05.36.78l-.66-.54.58.62-1.18-.68c1.09,1.46.82,1.84.49,2l-.3-.32c-.38-.22.5.6.24.41l-1-1c-.42-.24.43.66.5.86.41.42-.21-.31.31.22.13.15-.47-.19.14.46l-.93-1,.24.35L642,406.09l.05.15c-.69-.61-.59-.86-1-1l1.43,1.53c.06.3,1.43,1.54,1.23,1.62-.39-.32,0-.19-.5-.67s.14.39-.07.27l.93,1-.69-.61.81.91c.79.86-.3-.12.27.57-.6-.56-1.2-1.44-1.59-1.61.55.52.6.87,1.45,1.64l-.91-.92c-.4-.29.83,1.17-.26.07l.53.59-.68-.56c-.06.05.58.95-.25.08.08.1-.07.18.53.73.43.31-.33-.52.5.27-.69-.63,0,.18.13.44l-.33-.32.3.51-.49-.48.47.53c.13.37-.89-.88-.84-.62l-.3-.47-.32-.14,1.23,1.46c.13.27-.53-.5-.14,0l-.44-.63-.86-.65,1,1.16-.65-.57.65.88-1.32-1-.62-.9-.07,0c-.51-.71-.48-.45-1-1.18l.14.41a30,30,0,0,1,2.06,2.6c0,.43-2.2-2.38-1-.63.26.24.82,1.09.68.7-.2,0,.78,1.09.29.76L641,410.43c.28.34.3.2.24.09-.37-.35-.86-1-1-1s0,.25.38.78,0-.14.5.48c0,.33-.72-.56.08.53,0-.14.52.45.84.86l.1.34-.29-.44c-.4-.13.52.78.28.82l-.7-.75c-.5-.71.47.13-.44-.95-.13,0,.28.62,0,.4l-.09-.27c-.08,0-1.21-1.44-.7-.47l.59.82.13.89c-.58-.85-.25.08-.74-.87.41.45.61.2.09-.63-.78-.9.23.05-.49-1-.13.08-.85-.88-1.33-1.49l.16.38.92,1.17c-.26-.05-.13.37.2,1l-.65-1-.55.3c.77.91,0,.37.61,1.14l1,1.29-.46-.62c.3.59-.69-.8-.17.12a11.66,11.66,0,0,0-1.29-2.06c.19.53-.37-.56-.47-.48l.16,1.24c-.67-.68-.6.23-.83.36-.29-.4-.61-1.41-.77-1.56-.12.06.48,1,.13.66l-.05-.2c0,.25-.53-.58-.19.91l-.22-1.13,0,.31-.24-.95c-.27-.74-.15.19-.26.26l.21.65c-.13.59-.38,0-.54.27l0-.68-.07.45c0-.66-.13-1-.15-.5l.1-1.71.11,1.48c.08.56.24.33.18-.33l-.08.35c-.11-.92,0-.91-.09-1.55l0,.08,0-.59.15.82c-.13-.81-.15-1.08,0-.89.3.89,0-.64.07-.41l.43,1.8.29.31-.53-1.87.22.57c0-.32-.41-1.15-.28-1l.52.23.33.51c-.65-1.16,0-.59-.26-1.16.48.37,0-.73.66.05,0-.61,0-1.15.36-1.19l.51.72c-.36-.55.36.36.33.23l-.83-1.22c.56.43.23-.27-.06-.81l.39.44c-.65-.94.14-.27.41-.27l.61.47a7.53,7.53,0,0,1-.84-1.33l.71.16c-.66-1.3.26-1,0-1.86l.53.48c-.8-1.37.55-.76.24-1.55l.87.86c.34.19-.05-.42-.71-1,.37.17-.21-.63.56,0,.25.07-.3-.49-.35-.69.51.15.5,0,.5-.32l-.1,0,.64.58c-.17-.3.46,0-.65-.95.77.41-.08-.92.89-.31l-.48-.56c.14-.18.88.22.53-.39l.53.49-.49-.57c-.37-.74.94,0,1-.3-.26-.93.35-1.07.56-1.54l.22.2c-.75-.86,1.11.46-.1-.73l.61.35c-.52-.61.81.2.13-.59l.1.13c.63.26,0-.42.63-.21l.35.36c.51.29-.86-.9.3-.06l-.54-.43c.72,0,.29-.9.3-1.45.9.26,2,1.39,1.26.56l-.18-.16c-.26-.31,1.39.81.82.32a5.27,5.27,0,0,1-.79-.63c.57.17,1.26.59.82.09l.35.26c-.95-.89-.22-.64-1.38-1.62l.49-3.35c.77-.73.69-1.92,1.91-2.41,1.15.38,1.14.34.86-.11l.36.21c-.85-.49,0-.21-.81-.68l.38-.95.75.4-.54-.34.25.1-.84-.45c-.44-1,1.87-1.35,2.08-2.37.49-.06.27-.51.27-.94,5.21.89-5.09-3.27,10.62.92,1.7,1.73-4.95-4-5.62-.66" transform="translate(-302.88 -132.13)"/><path id="_Tracé_58" data-name="&lt;Tracé&gt;" class="cls-2" d="M502.65,353.37l.2.37.72,1.35c1.28,1.41,2.39,4.83,5.58,9,.06-.05-.14-.45,1,1,5.42,6,3,2.78,7.5,6.41-1.44-1.1-3.23-2.46-3.88-3.05,3,2.14,5.68,4.9,9.5,5.84-1.42-.68-2.51-1.3-.71-.71-.93-.67,2.64.31,4,.48-1.8-.73-3.24-1.3-3.88-1.6a33.19,33.19,0,0,1,4.14,1.35l-.63-.33.63.33c1.42.41,2.84,1.34,4.47,1.27-.9-.08-1.71-.24-1.31-.24l-6-2.23c-.18-.1,0-.05.4.07l-1.6-.51,1.17.51c.39.21-.42-.06-1.25-.33-1.6-.61-2-.71-2.67-1.32l-2.78-2c-1.35-.32,7.39,5.11,2.55,2.37l-1.34-1.09c-2-1.57-4.95-3.52-6.22-4.7-1.37-2.26-4.6-5.84-4.34-6.48-1.88-7.22-17.73-22.44-5.11-27.28,1.4-.9,1.25-1.23,4.6-3.74.7-.4,1.79-1,1.46-.76l2.41-1.66c-1.42.88-3.17,2-3.92,2.37,3.82-2.53-1.86.91-1.57.58l5.19-3.4-.66.35c-4.53,4.86-9.8,1.67-14.35,11.37,1.43,4.89,3.68,11.7,6.59,16.13Z" transform="translate(-302.88 -132.13)"/><path id="_Tracé_59" data-name="&lt;Tracé&gt;" class="cls-2" d="M534.85,196.69l-.29.09c6.73-10.68,50.35-2.38,63.65-29.39-2.5-20.2-26.78,4.61-33.82-4.79-11.81-7-9.62-30.13-29.46-30.41-37.4-2-41.46,47.65-26.81,71.83,1.35,7.06,5.51,14.66,6.61,21.32,1.54,5.79-11,5.91-16.75,4.47q-22.65-2.85-45-4.64l3-.83c-16.55-1.18-33.29,1.27-49.87,2-18.17,2.32-33.49-.16-37.84-17.24l5.08,10.39c-3.71-3-4.63-16.24-15.31-18.24-10.1,4.7-9.41,18.57-10.6,26.09l-.17-1.68c3.12-22.9-.6,1.54.14-7.85l.69-4-.64,2.32-.56,4c-.12-.47-.38-.15.25-4l-.87,5.38c-1.31,9.69-2.6,12.76-3.08,10.11.25,2.87.35.51,1.53,13.14l-.46-1.62,2.09,13.88,1.1,6.52a101.27,101.27,0,0,0,3.91,13l1,1.29c4,10,6.54,25.77,21.59,31.53,1.91-6.41-20.68,3.6-28.38-1.58-3.83-.71-18.56-3.94-26-10.86,1.08,1,1.59,2.54,3.1,3.49,5.24,3.35,16.82,8.26,28.85,9.61,6.14.41,12.95.42,18.82-1.62,1.79.29,9.4-4,6.18.09A15.42,15.42,0,0,1,368,304.6l1,.28c1.15,4.43,14.89,1.13,4.94,3.27l-1.38.92c12.89-.14-5.88-3.55-8.8-12.28-5.27-8.39-8.33-17.88-9.65-21.74-5.24-16.68,4.79,10.41,2,2.56,7,18-4.49-15.77-4-23.38-.68-11.07-3.67-29.65,3.17-45.49,6.63-17.93,13.45,31.65,33.76,22.89,26.06.82,54.11-5.16,82.42.05,14.73.12,26.76,6.41,43.22,2.15,10.41-19.87-3.22-24.24-4.33-39-11.66-19-2.8-58.74,14.48-57.08,12.74-2.88,23.88.62,26.72,17.16l-.73-.76c2.5,30.32,59.45-.16,40.46,14.62-11.53,13-34.23,19.24-51.3,17.66-18,10.19-7.65,19.9-9,27.37,3.52,16,26.32,28.65,26.63,41.42.69,16.67-8.43,32.65-18.18,44.48.3.08-2.27,3.64,1.56-.74,10.09-12.51,17.64-29.51,17.49-30.19a19.58,19.58,0,0,1-1.8,5.74c1.93-3.13,2.15-6.83,3.31-10.3a18.28,18.28,0,0,0,.47-6.9,8.73,8.73,0,0,1,.32-2.72c1.61-13.69-13.33-17.44-17.53-28.85-4.51-7.42-12.15-15.18-8.33-29.07" transform="translate(-302.88 -132.13)"/><polygon id="_Tracé_60" data-name="&lt;Tracé&gt;" class="cls-1" points="228.49 22.09 228.51 22.08 228.49 22.04 228.33 21.85 228.22 21.86 228.03 21.71 228.05 21.82 227.9 21.61 227.66 21.72 227.11 21.83 227.09 21.95 226.92 21.9 226.89 21.93 226.92 21.9 226.87 21.79 226.81 21.85 226.89 21.98 226.84 22 226.9 22.01 226.92 21.96 227 21.96 227 22.05 227.11 22.1 227.26 21.95 227.25 22.01 227.44 22.13 227.44 22.32 227.63 23.08 228.25 22.95 228.19 23.01 228.3 23.05 228.29 22.93 228.46 22.81 228.6 22.92 228.61 22.89 228.51 22.09 228.49 22.09"/><path id="_Tracé_61" data-name="&lt;Tracé&gt;" class="cls-1" d="M530.8,159.44l.17-.05c.7,2.19-2.73,3-3,.71l.59,0-.68-1.86-.22.22.11-1.39.13.09c-.16.55.07,0,.38.37l0,.12.1,0,0-.11.19.18.07-.12,1.33.31c0-.1-.5-.21-.23-.42l.13.09-.13-.4.24-.06v-.34l-.27-.17.68-2.18.06-.94-.38.15-.94,1.8-.17-.09v-.38l-.29-.13c-1.19-.14-.05,1-.33,1.18-.48.25-.51-.55-.56-.35-.21-.61-.9,0-1.35.06-.91.33-1.23,1.33-1.38,2.53.06,2,0,4.17,1.85,5.6.55,1.18,3.76-.16,3.55.34l1.57-.56.08.16c1.82-.45,1.69-2.9,1.5-4.45,0-.71-.56-.67-.15-1,0-1-1.12-1.71-1.52-2.45l-.37.24a.71.71,0,0,1-.23,1.13l0-.16-.23.4.21.1-.22.17-.48,1Z" transform="translate(-302.88 -132.13)"/><path id="_Tracé_62" data-name="&lt;Tracé&gt;" class="cls-1" d="M556.37,389.09c.62-.18-.4-.12,0-.15l1.35-.39c-1.1.39.61.68-1.34.54" transform="translate(-302.88 -132.13)"/><path id="_Tracé_63" data-name="&lt;Tracé&gt;" class="cls-1" d="M558.24,387.31l.17-.3c.36-.09,1.13-.29.73.07Z" transform="translate(-302.88 -132.13)"/><polygon id="_Tracé_64" data-name="&lt;Tracé&gt;" class="cls-2" points="253.37 251.69 253.81 251.77 253.19 251.99 253.37 251.69"/><path id="_Tracé_65" data-name="&lt;Tracé&gt;" class="cls-2" d="M549.23,365.23l.08-.28c.28,0,.39.12.7.65,0,.5.46,1.63.14,1.51l0-.12a1.42,1.42,0,0,0-.16,1.46c.21.08.35-.54.77,0l.5,2.23.74.27.35,1.47-.37-.23c0,.33-.48.31.06,1.17l1.21,1.17c.19,1,1.39,2.12,1.91,3.08,1.33.49,1.36,2.85,2.49,3,.6,1.5,1.23,1.4,2.07,2-.09,1.21-1.27-1.17-1.52-.44,0,1.74,1.74,1.67,0,2.1-.12.38.62.47,0,.81l-.46-.41.08.27.19,0c.36.58-.71.53-1.48.77-.35-.26.36,0,.37-.27s-.43-.77-1.34-.87c-1.77.45-2.87-.06-5-.1.08.31-.51.15-.84.16.44-.24-.39-.6-.78-.68-.5.14-.61.72-1.39.62l.49.59a7.82,7.82,0,0,0,1.9-.19c.31.67,2.62-.11,2.35.68l-.3-.09c-1.21-.37-1.85.44-3,.68a7,7,0,0,1-1.8-1.13l-1.35.13-1.39-.38-.14.14-.9-.2c-.13.52,1.17.61,1.94.83l-.53.13-.22-.15-.48,0c0,.14.08.47-.56.45l-.36-.36c-1.25-.19-1.82.54-.26.7l.15-.32,1.49.59c.23.35-.7.2-.73.5-.23.39,1,.68,1.57.81.59-.19-.34-.35-.74-.43l.87-.52.52.29c.26.19-.07.61.39.59,1.33.17.12-.58,1.23-.55-.27-.59-2.1-.85-2.69-1.17l-.51,0c-.2-.31.83-.05.07-.27,1.34-.28,3,.55,3.92,1,0,.36,1,.76.16,1.17l1.21.33c1.6-.48,2.25.29,3.71,0l.13-.32c2,.12-.56,1.61,2.23,1.15.49-.1.72-.29.55-.49l-1.28-.19c0-.16-.91-.1-.39-.45,1.24,0,1.75-.58,2.77-.49l.27-.37,1.68-.84c1.51-.52.22.47.25.76l1.39-.53a3.82,3.82,0,0,0,1.08-4.15l.18.14c.29,1,.66-.48.48-1.18l-.33-.31c-1-.32-1.47-2.22-2.29-3.28l.1-.22-.46-1.4c-.79,0-.59-.83-1.14-1.44l-1.46-.81c-.69-1.83-1.84-2.36-2.19-4-.57,0-1.23-.78-1.33.14-.82-1.59-.21-3.43-.59-4.92l-.33-.29c-1.09-.23-3.4-1.62-3.55.26" transform="translate(-302.88 -132.13)"/><polygon id="_Tracé_66" data-name="&lt;Tracé&gt;" class="cls-2" points="241.33 251.81 242.15 251.87 242.04 251.71 241.33 251.81"/><path id="_Tracé_67" data-name="&lt;Tracé&gt;" class="cls-1" d="M543.33,352.68c-.71,1-1.24,2.16-.58,1.8l2.72-2.73c-.15-.39-1.6.68-2.14.93" transform="translate(-302.88 -132.13)"/><path id="_Tracé_68" data-name="&lt;Tracé&gt;" class="cls-2" d="M559.24,388.68l1.36-.69-.47-.13c-1.16.32-.14.45-.89.82" transform="translate(-302.88 -132.13)"/><path id="_Tracé_69" data-name="&lt;Tracé&gt;" class="cls-1" d="M543.61,358.85c.19.11.23.41.37-.05l.07-.83c0,.17-.8.94-.44.88" transform="translate(-302.88 -132.13)"/><polygon id="_Tracé_70" data-name="&lt;Tracé&gt;" class="cls-1" points="240.21 229.34 240.78 229.52 241.03 228.57 240.21 229.34"/><path id="_Tracé_71" data-name="&lt;Tracé&gt;" class="cls-1" d="M545.81,357.35c-1.3.45-.25,1.32-1.41,1.84-.62,1.44.08,1.3.68,1.25.28-.52-.61-.36-.31-1.3.35-.52.82-1,1.19-.8.87-.82-.48-.36-.15-1" transform="translate(-302.88 -132.13)"/><polygon id="_Tracé_72" data-name="&lt;Tracé&gt;" class="cls-1" points="241.41 230.03 241.75 229.4 241.25 229.52 241.41 230.03"/><polygon id="_Tracé_73" data-name="&lt;Tracé&gt;" class="cls-1" points="244.2 226.4 244.26 225.94 243.76 226.42 244.2 226.4"/><polygon id="_Tracé_74" data-name="&lt;Tracé&gt;" class="cls-1" points="244.55 227.73 244.74 227.51 244.43 227.15 244.55 227.73"/><path id="_Tracé_75" data-name="&lt;Tracé&gt;" class="cls-2" d="M551.23,360.18a8.86,8.86,0,0,0-.24-6.55l-3-.7c-1.12-.13-1.7-.65-2-.23-1.27,1.13-2.65,2.82-2.74,3.92l-.58.27-.66,1.93-1.17.46c-.38,1.32-2,2.51-2.14,3.9-1,.13-.47,1.91-1.51,2.17-.93,1.11-1.35,2.64-1,3.24-.14-.09-.26-.7-.7-.28l-.05.34-.82,1,.11.26c1.31-.63.95,2.75.65,4.54l-.24.57,1.6-1.63c-.34,0,.52-1-.06-.63l-.22.35-.78.5c.35-.75,1.7-2,1.6-2.68l1.67-.89c.67-1.16,1.8-2.38,2-3.55.54-1.23,1.06-1.24,1.55-1.41.11-.66.85-1.45.64-1.82a3.91,3.91,0,0,1,2.09-1c.6-.58.35-.72.41-1.37.87-1.37.69.82,1.57-.81.44-.66.42-.85.22-1.17l1-.9c1.53-.17-3.49-1.36-1.11-.28.23,1.33,1.17,2,1.69,3.68a2,2,0,0,0,2.33-1.23" transform="translate(-302.88 -132.13)"/><path id="_Tracé_76" data-name="&lt;Tracé&gt;" class="cls-1" d="M466.54,244.64l1.74,1.65C467,234.78,456.2,223.7,448.47,216c-2.24-2.27-21.63-21.61-21.48-8.56.06,8.52,41,35.3,39.55,37.16" transform="translate(-302.88 -132.13)"/><path id="_Tracé_77" data-name="&lt;Tracé&gt;" class="cls-1" d="M452,257.5l-.57-1.14c-.54,1.26-13.56-6.17-17-6.74-3.8-.63-19.59-1.05-20.7,4.93S447,259.7,452,257.5" transform="translate(-302.88 -132.13)"/><path id="_Tracé_78" data-name="&lt;Tracé&gt;" class="cls-2" d="M441.08,266.32c.39-.19-.23-.77.25-.33-.05.35-.12.62-.25.33" transform="translate(-302.88 -132.13)"/><path id="_Tracé_79" data-name="&lt;Tracé&gt;" class="cls-2" d="M442.61,265.8c1.18-2.33,2.91-.09,4.19-1.64.16-.1,0,1.26.38.92,1.22-1.81,3.3-.93,5.09.22l0,.35c.34.23.57-1,.92-.86l.06.65c0-.7.54-.39.61-.92l.45,1.1.07-.81c.21-1.93,1.3-.17,1.8-1.29l.09.52c.69-1.51,2.48-1.31,2.68-2.73l.74.86a1.7,1.7,0,0,1-.41-1.37c.86.35-.37-.7.27-.64l.18.08c-.74-.55.48-.21-.57-.66h.64c-1.23-.22.59-.25,0-.49h-.26c-.3-.12.31-.27.1-.4l.13-.06c-.31-.27.33-.76-.55-.35.69-.47.32.24,1.35-.41-1.09-1.53-2.71-1.56-3.63-2.46l-.19-1-.89.47v-.57c-.15-.47-.65.85-.82.34l.44-.84c-.52.6-.83.34-1.24.43l.32-.47c-.65.65-.54-.43-1-.05l.33-.46c-.19-.82-.6,1-.85.46l.33-.53c-.79.76-1.26.17-1.79.31l.12-.21c-.45-.06-.74-.55-1.38-.35-.05-.31.63-1.22.12-1.23-.47,1-.94.06-1.22,1.33-.29-.33-.69-1-1.11-.75.36-.3.41-1.3.75-1.26l0-.72c.22-.41.17.25.35-.31l-.89-.07c-.56.51-1.35,1.55-1.86,1.47.4-.3.38-1.19.61-1.28l-1.5,1.65c-.18,0,.31-.82,0-.65l-.44.59c0-.14-.74,0-.37-1.08l.33-.53-.75.11.06-.15c-.12-.22-.73.18-.76.85.11.09.21-.63.27-.26a.94.94,0,0,1-1.05.47l.42-.7a4.44,4.44,0,0,1-1.59,1.06c-.18.49.43-.86.4-.57-.29-.88-1.26.66-1.4-.52.09-.05-.14.75-.1.6-.21-.14-.05-.89-.25-.65.07-.46-.22.06-.39.14-.13.28,0-.24.14-.24-.32.21-1.42,1-1.89.25,0,.28-.49,1.06-.61,1l.14-.69c-.08-.42-.46.05-.41-.54-.38.8,1.16-.65.71,0,0-.56-.65,1.07-.46.13-.28,0-.61.79-.8.12.07.11.3-1,.09-.9l-.47.53-.2.27c-.08.68-.33-.11-.25.66,0-.57-.57.31-.46-.81l.1-.87c-.17.07-.33.91-.47,1.29l-.05-.41c-.06,1.34-.38-.13-.59.9-.33-.49-.85-.1-1-1-.28.38-.49.87-.79.62l.14-.47c-.19-.38-.24,0-.4.21l-.65-1.2-.12,1.58c-.3-1.29-.67.92-1.05-.25l.1-1c-.36-1.28-.43,1-.86.43l.19,1.09c-.24-.68-.5.68-.58-.45-.09.41-.49-.32-.34.74-.74-.84-1.42.68-2.11-1.19-.05.19-.32,0-.17.56s.13-.43.25,0l0,.47c-.22-.23-.4-.28-.36-1.18-.58-.63-.14,1.83-.7,1.58l-.26-.48-.1.83c-.35-.09-.42-.92-.6-1.66l-.31.78-.48-.83c.35.6,0,.47-.06.68l0-.21c-.13-.3-.29,0-.36.07l.59.65-.15.72c-.2-.71-.45-.41-.6-.45s0,.68,0,.66c-.14-.36-.27,0-.33-.53,0-.12.24.32.21,0s-.41-.86-.45-.34.53,1.35.08,1l-.12-.73-.41-.27.23.62-.15-.29c.17.68-.36.33-.11,1.07l-.65-.37v-.06c-.34-.32-.35.08-.23.54l-.07-.13,0,.61c-.4-.33-1.37-2.12-1.13-1.27-.17.17.44,1.22.75,1.51-.57-.15-.15.88-1.12.27l.32.49c-.79,0,.15,1.06-1.06.59l-.91-.53c.48.4-.59-.16.29.37l1,.45c.23.35.11.53-.5.45l.59.23c-.9-.33-1.14-.21-.89,0l.57.15-.65-.07c.17.12,1.12.21.6.33l-.6-.09c.57.2,1.51.27,1.09.27l-.8,0,.88,0c-.42.09-.47.17-1.19.39,2.1-.36,1-.29,1.59-.09l-.32.31c-.16.33.6-.55.45-.3l-1,1.05c-.11.45.74-.45.94-.56.38-.46-.31.25.18-.31.13-.17-.1.46.44-.24l-.79,1.09.33-.28c-.4.95-1.33,1.3-1.93,2.41H419c-.35.86-1,.55-.78,1.1a3.58,3.58,0,0,0,1.31-1.63c.41,0,1.22-1.7,1.38-1.47-.19.5-.23,0-.55.63s.41-.16.39.13l.62-1.21-.27.9.56-1.11c.55-1,.18.35.66-.43-.2.78-1,1.66-.8,2.12.23-.74.77-.89,1-2l-.43,1.22c0,.53.9-1.21.46.27l.32-.75-.06.9c.15.07.8-.88.46.27.08-.12.42,0,.51-.81-.06-.53-.42.52-.22-.58-.11.92.34,0,.55-.29l-.11.45.44-.48-.15.67.25-.66c.38-.26-.23,1.23.11,1.11l-.36.47.23.41.63-1.83c.2-.21-.09.73.2.15l-.37.69c-.08.19-.08,1.08.17,1.14l.4-1.45,0,.89.41-1.05.37,1.7-.48,1,.18,0c-.39.82,0,.65-.26,1.55l.47-.36c-.13-1.49.74-1.92.84-3.26.53-.31-.18,3.24.64,1.24,0-.35.36-1.34,0-1,.29.19.39-1.29.66-.72-.33.52.12,1.37-.37,2.11.09-.44-.18-.34-.24-.23,0,.52-.23,1.32.11,1.36s.47-.1.52-.79-.3,0-.08-.7c.42-.23.35.92.66-.39-.26.08-.21-.71-.15-1.23l.31-.28-.11.5c.4.41.24-.9.65-.72l.08,1c-.18.84-.57-.46-.65.94.27.1.45-.6.67-.21l-.22.24c.08.08,0,1.94.53.89l.16-1,.94-.66c-.13,1,.5.15.12,1.15-.12-.61-.77-.62-1,.32.06,1.23-.35-.2-.56,1,.37.06.23,1.25.22,2.05l.32-.37,0-1.49c.41.25.85-.11,1.13-.81.11.38,0,1.12-.15,1.16l1.53.22c-.26-1.21.56-.28.4-1.28L433,259.3l0,.78c.23-.65.26,1.07.52,0-.49.37-.16,1.46-.3,2.4.37-.51-.05.68.3.68l1.19-1.12c.44.9,1.21,0,1.63,0,.21.46,0,1.51.27,1.72.28,0-.18-1.16.22-.66l0,.22c.12-.25.76.73.9-.8l-.14,1.14.22-.27-.05,1c.25.8.56-.12.84-.16l-.18-.68c.49-.52.82.16,1.29-.07v.67l.26-.39c-.05.63.2,1.06.34.53l-.72,1.61.1-1.46c-.12-.57-.57-.4-.63.25l.31-.32c.05.94-.2.89-.33,1.52l.23-.06-.65.54,0-.84c0,.81-.3,1.06-.66.82-.25-.94-.69.62-1.1.34l.66-1.82-.54-.4-.6,1.93v-.62c-.32.31-.33,1.22-.72,1l-1.89-.39v-.62c-.35,1.32-1,.47-1.4,1-.63-.58-1.51.44-1.75-.63a6.33,6.33,0,0,1-3.53.32l.34-.87c-.32.63-.08-.52-.31-.4.15.72-.42.87-.66,1.38-.45-.74-1.25-.08-1.86.49l.1-.62c-.7,1.14-1.17-.09-1.74-.45l-.18-.83c-.6.86-.76.74-1.44,1.19l-1.18-1c-1.83,1.08-3.07-.58-5.23-1.19l.35-.65c-2.9.35-2.8-3.45-3.94-5.18l1.24-.06c.23-.61-.59-1.24-1.42-1.06.24-.62-.82-1.65.16-1.92.12-.58-.61-.64-.57-1.22a4.18,4.18,0,0,0,1.2-2.45l-.19.21.84.25c-.13-.51.94-1.1-.49-1.52,1.15-.68.91-2.81,2.61-2.52l-.28-.73c.76-.61,2-.5,2.25-1.48.23.09.17.7.49.53l-.14-.8c1-1.71,2.81-.47,3.78-1a10.93,10.93,0,0,1,5.6-1.89v.3c.45-1.16,1.53,1,1.78-.71.17.26.54.08.5.64.4-.82,1.36.64,2-.42l-.17.16c.72.6,1.26-.34,2,.2l-.2.53c.26.53.62-1.31.79.13v-.66c1.58.62,3.28-.2,5-.41,1.1.92-.2,2.37.85,1.39,0,.26.12-.55.1-.24.41-.37.33,1.59.68.87,0-.85.23-.46.32-1,.67.62.57,1.35,1.29.92l-.14.43c1-1,1.6-.13,2.65-1.36,4.15,1.12,6.95,1.81,10.08,3,3.65,2.78,2.66-1,11.14,7-.61,1.59-.69.77.27,2.36l-.4.1c.95-.29.4,1.33,1.32,1.34.28,3.74.28,5.79-2.33,8.42.3-.49-.16-1.18-.52-.71l0,.92-.25-.14c-.18.39-.26,1.1.28,1-5.72,4.89-9.07,1.88-12.26,2.86-.82-.31-1.89.16-2.68.39-2.51-1.17-4.67-2.12-7.08-1.14,0,0,.28-2.56,1.23-3.17" transform="translate(-302.88 -132.13)"/><path id="_Tracé_80" data-name="&lt;Tracé&gt;" class="cls-2" d="M440.61,266.41l-.16-1.42Z" transform="translate(-302.88 -132.13)"/><path id="_Tracé_81" data-name="&lt;Tracé&gt;" class="cls-2" d="M433.55,261.21l-.12-.28c.09,0,.21-.45.26-.2Z" transform="translate(-302.88 -132.13)"/><path id="_Tracé_82" data-name="&lt;Tracé&gt;" class="cls-2" d="M431.78,260.85l.68-.8Z" transform="translate(-302.88 -132.13)"/><path id="_Tracé_83" data-name="&lt;Tracé&gt;" class="cls-2" d="M430.36,258.87l.13-.55Z" transform="translate(-302.88 -132.13)"/><path id="_Tracé_84" data-name="&lt;Tracé&gt;" class="cls-2" d="M430.14,259.84l-.2-.51c0,.37.32-.21.2.51" transform="translate(-302.88 -132.13)"/><path id="_Tracé_85" data-name="&lt;Tracé&gt;" class="cls-2" d="M426.92,258.19c-.08,0-.32.38-.31-.12,0,.35.47-.5.31.12" transform="translate(-302.88 -132.13)"/><polygon id="_Tracé_86" data-name="&lt;Tracé&gt;" class="cls-2" points="122.42 126.5 122.3 126.48 122.49 125.95 122.42 126.5"/><polygon id="_Tracé_87" data-name="&lt;Tracé&gt;" class="cls-2" points="127.3 118.69 127.14 118.93 127.12 118.49 127.3 118.69"/><path id="_Tracé_88" data-name="&lt;Tracé&gt;" class="cls-2" d="M442.31,251.84c.24-.2-.05.42-.05.49Z" transform="translate(-302.88 -132.13)"/><polygon id="_Tracé_89" data-name="&lt;Tracé&gt;" class="cls-2" points="146.96 120.71 146.91 120.71 147.31 119.88 146.96 120.71"/><path id="_Tracé_90" data-name="&lt;Tracé&gt;" class="cls-2" d="M468.16,254.68c.72,0-.34-.87.47-.21-.08.33-.24.57-.47.21" transform="translate(-302.88 -132.13)"/><path id="_Tracé_91" data-name="&lt;Tracé&gt;" class="cls-2" d="M470.78,253.71c-.71-3.28,3.23-4.19.72-6.27-.16-.2,1.26-.15.82-.6-2.25-1.45-1.93-4.26-1.35-7.09h.37c.16-.57-1.26-.49-1.31-1l.6-.24c-.69.19-.7-.59-1.27-.52l.82-.87-.85.14c-2.07.27-.78-1.59-2.14-2l.48-.2c-1.86-.74-2.49-2.63-3.92-3.75l.92-.64a1.45,1.45,0,0,1-1.69-.11c.58-.69-1.14-.14-1.09-.85l.18-.09c-1,.27,0-.78-1-.36l.38-.61c-1.08.62.12-.86-.58-.74l-.18.18-.41-.66.1-.13c-.67-.31-.4-1.06-1.12-.43.43-.68.69.29,1.3-.73-2.14-1.15-3.56-3-5.17-4.59l.28-.93-1.22-.31.2-.57c0-.55-1.08.42-1.09-.21l.8-.52c-.8.25-1.08-.2-1.57-.37l.51-.28c-.95.23-.51-.78-1.2-.72l.51-.27c0-1-1,.67-1.11-.05l.51-.34c-1.06.26-1.54-.58-2.21-.68l.18-.16-1.64-1.06c0-.34,1-1,.33-1.22-.74.83-1.15-.4-1.7.8-.3-.5-.7-1.39-1.22-1.34.47-.15.67-1.21,1.09-1l.18-.75c.32-.3.16.37.45-.16l-1.07-.5c-.76.24-1.87,1-2.48.63.51-.13.63-1.07.92-1.08l-2.08,1c-.2-.12.51-.73.08-.72l-.61.41c0-.14-.87-.38-.31-1.32.19-.41.43.06.47-.41l-.9-.25.08-.13c-.12-.32-.91-.16-1,.54.13.15.34-.59.36-.15a1,1,0,0,1-1.31,0l.58-.53a3.59,3.59,0,0,1-2.21.07c-.29.43.72-.62.64-.34-.21-1.22-1.82-.19-1.83-1.18l-.25.53c-.27-.16.1-.83-.24-.66.17-.4-.34,0-.6.09-.24.24,0-.24.24-.2-.49.23-1.79.45-2.24-.45-.08.28-.68.89-.8.8l.23-.66c-.05-.45-.5-.15-.42-.74-.49.69,1.42-.15.82.29,0-.61-.85.8-.54-.08-.33-.1-.71.55-.91-.22.07.14.4-.84.14-.9l-.56.35-.25.17c-.07.66-.35-.27-.25.55,0-.58-.6.05-.54-1l.09-.83c-.21,0-.35.75-.47,1.07l-.08-.42c0,1.36-.3.1-.31,1.22-.27-.29-.42.27-.84-.47,0,.46.1.89-.27.67l-.13-.39c-.37-.3-.22,0-.21.2a4.77,4.77,0,0,0-1.38-.82l1.09,1.26c-1.05-.57.61,1.26-.4.82l-.8-.7c-1.19-.41.72,1,.07,1.09l1,.39c-.65-.13.45.7-.57.25.34.24-.48.31.57.57-.95.36-.25,1.2-1.91,1.58l.67.22c.53-.17-.53-.17-.13-.25l.51.08c-.16.19-.16.37-1.13.25-.46.59,2,.23,1.81.75l-.47.3.84.06c-.07.36-.89.53-1.58.79l.78.3-.76.67c.55-.51.45,0,.63,0H427l.1.43.56-.81.65.05c-.7.35-.23.61-.15.82l.76-.11c-.31.23.2.34-.36.49l-.2-.26c-.12.27-.69.63-.07.61.47,0,1.16-.87,1.08-.24l-.75.23,0,.56.55-.38-.22.22c.65-.31.61.4,1.3,0v.85h-.07c-.15.44.3.55.78.42l-.11.08.74.22c-.16.6-1.83,1.75-.92,1.49.25.29,1.26-.37,1.5-.77.09.8,1.28.6,1,1.79l.6-.28c.57.88,2.16.85,1.87,2.34l-.75.78c.62-.28-.19.64.59-.05l.56-1c.67.17,1.36.79,1.24,1.43l.49-.42c-.67.68-.43,1.09,0,1.05l.44-.4-.24.6c.22,0,.93-.82.8-.18l-.35.53c.59-.12,1.5-.4,1.47.21l-.34.87.66-.56c.15.83.42,1.16.1,1.86a4.07,4.07,0,0,1,4.25,1.28l-.31.32c0,.54.64-.48.65-.09L444,229c.09.67,1-.18,1.39-.12.39-.43-.45.12.06-.42.17-.13.27.79.88.16l-.88,1,.51-.13c-.34,1-1.83.88-2.31,2.12l.32.06c-.37.88-1.26.33-.89,1,.52-.14,1.54-1,1.55-1.42.68.21,1.55-1.43,2.07-.95-.18.52-.53-.25-.87.4s.77.11.83.48c0-.46.73-1,1-1,0,.55-.68.5-.35.88.38-.33,1-.34.87-.87.87-.79.22.59,1,.05-.37.73-1.57,1.13-1.38,1.79.4-.66,1.19-.4,1.67-1.47l-.76,1.07c0,.56,1.49-.65.61.63l.57-.55-.24.92c.21.19,1.37-.28.6.65.16,0,.61.38.92-.43,0-.63-.71.22-.18-.8-.36.89.49.25.85.14l-.25.4.77-.14-.39.59.55-.47c.64.06-.67,1.05-.11,1.21l-.67.19.22.58,1.47-1.28c.4,0-.34.66.29.32l-.78.36c-.17.13-.45,1-.13,1.25.34,0,1.21-.51,1.11-1,.17.11.14.6-.26.87.49.12.39-.59.92-.66l-.26,1.91-1,.6.2.17c-.8.47-.25.64-1,1.22l.7,0c.46-1.48,1.71-1.19,2.4-2.34.79.18-1.61,2.86.27,1.7.11-.36,1-.92.43-.92.26.4,1-.84,1.14-.08-.65.18-.47,1.34-1.42,1.59.31-.3-.05-.46-.21-.42-.15.52-.84,1-.47,1.32.31.08.64.32,1-.28s-.41-.2.2-.69c.62.16,0,1.12,1,.21-.35-.14.06-.81.4-1.24l.53,0-.38.36c.32.71.73-.62,1.17-.09l-.38,1c-.65.58-.52-.9-1.3.27.32.31.88-.16,1,.38l-.41,0c.08.14-.94,1.69.22,1.22l.71-.74,1.53.21c-.71.75.57.57-.47,1.08.19-.59-.63-1.18-1.43-.56-.54,1.1-.32-.48-1.21.4.43.35-.33,1.29-.74,2l.56-.08.8-1.25c.36.55,1.09.58,1.8.23-.06.43-.57,1-.81.85l1.68,1.49c.41-1.24.83.31,1.2-.67a1.7,1.7,0,0,1,.65-1.64l-.41.68c.67-.29-.29,1.14.61.55-.81-.18-1.05,1-1.74,1.67.72-.08-.46.5-.08.82l2,.21c-.06,1.12,1.35,1.17,1.86,1.57.88,2.18-1.06,1.1-.81,1.81.19.24.94-.66.72-.13l-.22.07c.28-.09-.17,1.14,1,.14l-.89.73h.39l-.7.67c-.28.82.65.44,1,.68l.27-.67c.84,0,.77,1.08,1.38.88l-.42.54.53-.25c-.43.53-.27,1,.13.61l-1.88,1c0-.44.83-.48,1-1.1.22-.45-.38-.55-.88-.23l.54,0c-.57.72-.83.5-1.37.82l.27.18-1-.2.54-.64c-.59.56-1,.49-1.24,0,.43-.82-1.2-.4-1.5-1.39l2.07-.14-.11-.9c-.6.19-1.53.55-2.21.08l.55-.25c.05.76-1,.83-1.16.56l-1.63-1.88.37-.48c-1.14.76-1.29-.45-2-.33-.33-1-1.88-.75-1.59-1.87a10.24,10.24,0,0,1-4.07-2.29l.76-.53c-.64.34.16-.51-.15-.58-.17.75-.88.47-1.38.78-.13-1-1.34-1-2.24-.92l.36-.49c-1.22.49-1.22-.8-1.75-1.46l.08-.91c-1,.51-1.09.32-2,.39l-1-1.58c-2.27,0-3.15-1.88-5.14-2.4l.33-.63c-2.39.07-3.25-2.42-4.93-2.92l.92-.84c-.13-.61-1.07-.5-1.53.23-.13-.6-1.32-.38-.9-1.34-.25-.51-.84,0-1.27-.15a2.88,2.88,0,0,0-1.69-1.66l.14.21.49-.73c-.49,0-.77-1.12-1.5.19-.19-1.3-2.27-1.1-2.23-2.59l-.71.31c-.69-.76-.77-2.1-1.77-2.25,0-.26.65-.26.43-.59l-.74.25c-1.65-.77-1.52-3-2.58-4-2.18-1.64-3.38-6.1-3.56-9.09l.28,0c-.86-1.27,1.76-2.31.43-3.61.35-.19.47-1,.91-.6-.39-1.22,1.55-2,1.27-3.68l0,.38c.8-.86,1.08-2.21,3-2.42l-.13.64c.77.23.61-1.69,1.57-.58.29-.14-.08-.74-.28-.61,3.63-1.5,6-1.73,8.62-.89,1.64,1.47-.42,2.36,1.2,1.82,0,.3.23-.49.17-.21.67-.16.33,1.83.91,1.25.15-.88.39-.36.61-.85.84.94.68,1.71,1.77,1.46l-.27.38c1.46-.73,2.46.23,3.7-.46L454,210.37c3.37,3.31,6.72,6.13,9.4,10.12-.2,1.66-.11,1.71,1,2.34l-.34.24c.79-.59.6.6,1.4.09l3.39,4c-.28-.16-1,.21-.76.43l.74-.09-.18.21.93-.37c3.14,3.74,4.45,8.47,6,13.11-.07,1.26.74,2.76,1.29,4,.43,2-1.09,11.72-8.41,13a14,14,0,0,1,2.29-3.75" transform="translate(-302.88 -132.13)"/><path id="_Tracé_92" data-name="&lt;Tracé&gt;" class="cls-2" d="M467.26,254.51c-.07-.55-.39-1,.14-1.46Z" transform="translate(-302.88 -132.13)"/><polygon id="_Tracé_93" data-name="&lt;Tracé&gt;" class="cls-2" points="159.46 111.77 159.51 111.42 159.91 111.52 159.46 111.77"/><path id="_Tracé_94" data-name="&lt;Tracé&gt;" class="cls-2" d="M460.48,242l1.24-.11Z" transform="translate(-302.88 -132.13)"/><path id="_Tracé_95" data-name="&lt;Tracé&gt;" class="cls-2" d="M459.71,239.08l.45-.37Z" transform="translate(-302.88 -132.13)"/><path id="_Tracé_96" data-name="&lt;Tracé&gt;" class="cls-2" d="M459,239.76v-.65c-.22.31.52.11,0,.65" transform="translate(-302.88 -132.13)"/><path id="_Tracé_97" data-name="&lt;Tracé&gt;" class="cls-2" d="M455.64,235.54c-.11,0-.54.07-.33-.39-.12.35.81-.07.33.39" transform="translate(-302.88 -132.13)"/><polygon id="_Tracé_98" data-name="&lt;Tracé&gt;" class="cls-2" points="150.5 102.43 150.33 102.33 150.78 101.97 150.5 102.43"/><polygon id="_Tracé_99" data-name="&lt;Tracé&gt;" class="cls-2" points="124.83 75.93 124.99 76.18 124.61 75.96 124.83 75.93"/><path id="_Tracé_100" data-name="&lt;Tracé&gt;" class="cls-2" d="M438.86,210.08c.36-.06-.11.45-.11.54Z" transform="translate(-302.88 -132.13)"/><polygon id="_Tracé_101" data-name="&lt;Tracé&gt;" class="cls-2" points="145 82.78 144.94 82.74 145.56 82.1 145 82.78"/></svg>