<svg id="Calque_1" data-name="Calque 1" xmlns="http://www.w3.org/2000/svg" viewBox="0 0 30.95 46.84"><defs><style>.cls-1{fill:#f4f4f4;}.cls-2{fill:#62250e;}</style></defs><title>Egg</title><g id="Ebene_2" data-name="Ebene 2"><g id="Ebene_5" data-name="Ebene 5"><path class="cls-1" d="M60.31,36.84c0,6-10.24,5.66-12.7.87S41.37,19,44,16s7.41-16.1,10-8.48S60.37,17,60.31,36.84Z" transform="translate(-32.14 -1.61)"/></g><g id="_1" data-name=" 1"><path class="cls-2" d="M56.31,6.49c.6.94,1.16,1.9,1.73,2.84.21.37.39.77.59,1.11a3.37,3.37,0,0,1,.42.74c0,.11-.28.31-.33.48a1.09,1.09,0,0,0,.07.59c.17.58.46.56.83.94a5.22,5.22,0,0,1,.67,1.41c.21.48.41,1,.59,1.45a34.55,34.55,0,0,1,2.19,12A22.56,22.56,0,0,1,60.25,40a18.33,18.33,0,0,1-8,7.23,13,13,0,0,1-10.73.13A15.74,15.74,0,0,1,34,39c-2.8-6.61-2.06-14.53.21-21.18A31.85,31.85,0,0,1,40,7.41c1.17-1.34,2.59-3,4.24-3.63A4.47,4.47,0,0,0,45.29,3a4.54,4.54,0,0,1,1.14-.63c.12,0,.18-.2.36-.13a.44.44,0,0,1,.2.69c-.15.16-.36.1-.46.35s.1.37.33.45c-.12.27-.33.59-.46.84s-.39.31-.48.55,0,.43-.08.67a3.42,3.42,0,0,1-.23.42,5.89,5.89,0,0,0-.24.58,1.94,1.94,0,0,0-.32.45c-.06.17-.08.36-.14.54a5.67,5.67,0,0,1-.46,1.31,12.72,12.72,0,0,0-.67,1.33c-.07.08.12.18.09.27s-.19.12-.19.23,0,.37,0,.39a2.22,2.22,0,0,1-.18.22c-.05.06,0,.22,0,.31s-.19.08-.16.18.38.42.39.71-.07.26-.13.46c-.16.54.06.43-.35.81a1.76,1.76,0,0,0-.67.95c-.08.37,0,1-.53.85a15.45,15.45,0,0,1,.38-2.08c0-.4-.16-.72-.17-1.08a4.79,4.79,0,0,1,.27-.89c.26-.87.63-1.71.93-2.58.1-.29.19-.62.29-.83a4,4,0,0,0,.54-1.22c-.21.33-.57.51-.76.86a7.38,7.38,0,0,1-.73,1c-.2-.34-.22-.27-.11-.66a6.71,6.71,0,0,1,.36-.83c.08-.2.38-.82.07-1s-.53.7-.57.84c-.13.35-.22.25-.46.43a1.31,1.31,0,0,0-.29.56,2.75,2.75,0,0,1-.75,1.2,1.42,1.42,0,0,0-.62,1.18c.05.33.42.73.8.6s.29-.66.55-.79c.43-.21.29.34.22.56-.14.49-.34,1-.48,1.45s-.29,1-.44,1.46a.2.2,0,0,0-.17.19l0,.16-.22.39c0,.15.11.28,0,.43s-.39.24-.49.33c-.4.37-.32.69-.47,1.16s-.36.58-.44.1.28-.53,0-.84a9,9,0,0,0-.7,1.94c-.1.63-.17,1.28-.32,1.88a1.31,1.31,0,0,1-.21.58c-.21.24-.49.26-.53.61s.11.45.12.67-.16.58-.1.88.49.95.77,1c.5,0,.22-1,.24-1.32,0-.57.22-1.15.22-1.69a3.31,3.31,0,0,1,.28-1.7,1.17,1.17,0,0,1,.56,1.05c0,.32-.15.75.22.94.21-.24,0-.63.32-.82a1.25,1.25,0,0,1,.28,1.21c-.21.52-.76.52-1,.92s.07,1,.1,1.41a14.4,14.4,0,0,1,.16,2c-.25-.21-.83-.65-.77,0s.51.29.77.05a3.34,3.34,0,0,1,.14,1c-.09.19-.33.15-.62.17-.62.06-.77.37-.7,1s.32,1.15.43,1.78c0,.24.19.66,0,.88s-.42.09-.49.4c-.18.75.61.42.84.56s.11.88.58,1.1.43-.1.72.22a2.86,2.86,0,0,1,.38.94c.11.31.21.63.33.94a2.57,2.57,0,0,1,.21.52c-.91.18-1-1.7-1.83-1.48a5.38,5.38,0,0,0,.73,1.62,1.63,1.63,0,0,0,.31.27,1.22,1.22,0,0,1,.09.46c.07.13.25.22.36.32A4.32,4.32,0,0,0,42,37.43a2.67,2.67,0,0,0,.47.42c.43.09.08-.29.15-.4.74,0,1.22,1.2,1.64,1.69.57.68,1.31,1.33,1.95,2a11.93,11.93,0,0,0,2.25,1.69c.24.15.59.41.89.37s.33-.3.73-.25c.73.09,1.21.53,2,.43.5-.06,1.45-.27,1.71-.77s0-.26-.22-.44c0,0-.18,0-.24,0s0-.33-.1-.43c-.38-.49-1.25.05-.92-.92.75.52,1.33.15,2.08-.09a6.42,6.42,0,0,1,1-.2c.3,0,.38-.21.68-.3s.44,0,.72-.32.41-.5.63-.75a5.08,5.08,0,0,1,.52-.68c.21-.25.08-.1.38-.22.5-.14.63-.09.88-.56.4-.73.94-1.31,1.4-2a1.38,1.38,0,0,0,.25-.86c0-.45.25-.94.34-1.4a11.4,11.4,0,0,1,.67-3.05,1,1,0,0,0,.28-.45c0-.16-.27-.43-.31-.67s.17-.55.18-.74a5,5,0,0,0-.11-.56,3,3,0,0,1,.11-.73,4.38,4.38,0,0,1-.07-.45.28.28,0,0,0,.13-.29.4.4,0,0,1-.1-.33A8.66,8.66,0,0,1,62,25c0-.15-.12-.43-.12-.61s-.11-.1-.1-.23.2-.23.19-.4-.2-.17-.21-.29,0-.16,0-.33a9.83,9.83,0,0,0-.29-1.19,13.7,13.7,0,0,0-.67-2.59c-.32-.65-1.1-1-1.14-1.73,0-.4.15-.77.13-1.21a2.39,2.39,0,0,0-.5-1.11c-1.08-1.65-.85-3.94-2.31-5.37-.43-.39-.22-.41-.27-.95s-.34-.57-.53-.91a7.57,7.57,0,0,1-.37-1c0-.12-.22-.12-.16-.26s.56-.32.72-.31C57.07,7.69,56,6.49,56.31,6.49ZM36.7,25.33c.63-.33.43-2,.48-2.61,0-.28.3-2.67-.32-2.39-.29.15-.19.76-.2,1A11.91,11.91,0,0,1,36.52,23a3.6,3.6,0,0,0,.16,2.29c.32-.14-.48-.83,0,0Zm8.4,16a7.15,7.15,0,0,0-2-2.56c-.18-.15-.41-.35-.63-.08s.29.67.48.84a7.79,7.79,0,0,0,2.14,1.78c-.33-.69-.36-.15,0,0Zm-6-4.84a4.84,4.84,0,0,0,.66,1.55,3.2,3.2,0,0,0,.94,1.27c.88.39,0-.92-.24-1.12-.49-.55-.59-1.42-1.36-1.68.13.76.53.16,0,0ZM46.2,43c.24.21.9.78,1.24.57s-.27-.84-.47-1-.82-.58-1-.32.14.61.34.78S46.12,43,46.2,43Zm-3.5-1.82c.15.13.82.8,1,.56s-.59-1.05-.75-1.21-.76-.83-1-.31c-.14.33.51.76.7,1S42.5,41,42.7,41.21Zm1.55-34.8c.42-.11,2-1.63.94-1.83-.36-.08-1.31,1.5-.94,1.83C44.83,6.26,44.06,6.2,44.25,6.41Zm-8,24.4c.53.33.3-.85.27-1s-.1-1.41-.31-1.51c-.43-.16-.22.8-.2,1s-.07,1.19.21,1.52c.16.06,0-.11,0,0Zm3.85,5.07c.4-.31-.67-2.42-1-2.35-.66.15.71,2.09,1,2.35.2-.13-.59-.57,0,0Zm-1.64-3.05c.82.71.32-1.13-.06-1.46-.75-.66-.19,1.16.06,1.46.13.13-.28-.39,0,0Zm1.09-18c-.21-.12-.37.25-.22.39s.37-.24.22-.39.15.15,0,0Z" transform="translate(-32.14 -1.61)"/><path class="cls-2" d="M46.37,4.53c0-.83,1-1.08,1.56-1.11a2.17,2.17,0,0,0,1-.37,4.27,4.27,0,0,1,.52-.41l.17-.19.44.38a15,15,0,0,0-3.35,3.48c-.13.15-1,1.3-.55,1.44.27.08,1.06-1.41,1.26-1.62a9.68,9.68,0,0,1,3.53-2.35c.43-.17,1.7-.25.88-.83a1.87,1.87,0,0,0-1.69-.15c.2-.45.63-.44.6-1a3.93,3.93,0,0,1,1.84.69,10.17,10.17,0,0,1,2,1.38,6.87,6.87,0,0,1,1.5,1.92c.06.12.36.54.25.69s-.61.24-.72.32a4.4,4.4,0,0,0-2.15-2.68c-.47-.19-1,.07-1.53.12a4.82,4.82,0,0,0-1.59.3,9,9,0,0,0-4.68,5.38,31,31,0,0,0-1.46,7.45c-.08.6-.13,1.22-.16,1.81,0,.2,0,.55-.16.69s-.42-.05-.6.09c-.58.46,0,2-.14,2.62-.35-.08-.3-.09-.44-.39a.33.33,0,0,0-.24-.2,1.16,1.16,0,0,0,.2-.47,7.39,7.39,0,0,0,0-1.82c0-.63.06-1.27.1-1.9s.26-1.4,0-1.83c-.55.54-.52,1.93-.64,2.64a9.28,9.28,0,0,0-.21,2.88c-.36-.13-.22-.57-.41-.82-.15.18-.18.46-.41.57-.24-.35.21-1.76.29-2.17l.38-2.2c.05-.23.09-.83.27-1a.5.5,0,0,0,.41-.12.53.53,0,0,0,.13-.37,2,2,0,0,1,1-1.56c.24.22-.05,1-.08,1.26-.07.56-.13,1.13-.16,1.71s-.51,2.11,0,2.51a5.21,5.21,0,0,0,.52-2.12c.11-.79.22-1.59.32-2.38.2-1.63.41-3.27.73-4.89a9.82,9.82,0,0,1,1.52-4.19c.21-.24,1-.84,1-1.19,0-.62-.76-.07-1,.06C46.35,4.15,46.67,4.37,46.37,4.53Z" transform="translate(-32.14 -1.61)"/><path class="cls-2" d="M60.14,14.06c-.31-.21-.3-.6-.57-.87s-.5-.26-.67-.59A1.07,1.07,0,0,1,59,11.16a8,8,0,0,1,1.13,2.9C60,13.89,59.87,13.08,60.14,14.06Z" transform="translate(-32.14 -1.61)"/><path class="cls-2" d="M50.72,1.86a.72.72,0,0,1-.44.73c-.37.22-.12.37-.58,0a4.28,4.28,0,0,1-.55-.49c-.09-.07.14-.26,0-.43l1.54.21C50.75,2.06,50.19,1.76,50.72,1.86Z" transform="translate(-32.14 -1.61)"/><path class="cls-2" d="M47.16,2.74a1.09,1.09,0,0,0-.38-.57,3.54,3.54,0,0,1,1-.44c.5-.11.63,0,1,.37a6.36,6.36,0,0,1-1.63.64C47.07,2.53,47.7,2.67,47.16,2.74Z" transform="translate(-32.14 -1.61)"/><path class="cls-2" d="M48.73,2.15l-.42-.36c.16-.11.51-.07.72-.09-.17.29.35.61-.33.5C48.63,2,48.86,2.18,48.73,2.15Z" transform="translate(-32.14 -1.61)"/><path class="cls-2" d="M60.49,15.12c-.19-.16-.35-.3-.21-.55A.48.48,0,0,1,60.49,15.12Z" transform="translate(-32.14 -1.61)"/><path class="cls-2" d="M49.13,2.07c-.05,0-.24-.46,0-.46s0,.39,0,.46C49,1.94,49.24,1.9,49.13,2.07Z" transform="translate(-32.14 -1.61)"/><path class="cls-2" d="M46.56,2.21a.23.23,0,0,1-.32.1.19.19,0,0,1,.25-.13A.15.15,0,0,1,46.56,2.21Z" transform="translate(-32.14 -1.61)"/><path class="cls-2" d="M46.12,2.39a.24.24,0,0,1-.26.2h0A.27.27,0,0,1,46.12,2.39Z" transform="translate(-32.14 -1.61)"/><path class="cls-2" d="M58.71,10.67a.13.13,0,0,1-.12-.15.11.11,0,0,1,0,0,.16.16,0,0,1,.12.19Z" transform="translate(-32.14 -1.61)"/><path class="cls-2" d="M60.56,15.43a.17.17,0,0,1-.06-.22h0C60.6,15.27,60.63,15.34,60.56,15.43Z" transform="translate(-32.14 -1.61)"/><path class="cls-2" d="M60.64,15.65a.14.14,0,0,1-.09-.19s0,0,0,0a.16.16,0,0,1,.09.2Z" transform="translate(-32.14 -1.61)"/><path class="cls-2" d="M60.81,16.29a.15.15,0,0,1-.05-.19v0a.14.14,0,0,1,.06.19Z" transform="translate(-32.14 -1.61)"/><path class="cls-2" d="M59,11.09a.15.15,0,0,1-.12-.17.08.08,0,0,1,0,0,.16.16,0,0,1,.12.18A0,0,0,0,1,59,11.09Z" transform="translate(-32.14 -1.61)"/><path class="cls-2" d="M58.58,10.4a.16.16,0,0,1-.11-.21v0a.19.19,0,0,1,.12.22Z" transform="translate(-32.14 -1.61)"/><path class="cls-2" d="M48.91,1.71a.13.13,0,0,1-.18,0s0,0,0,0S48.81,1.6,48.91,1.71Z" transform="translate(-32.14 -1.61)"/><path class="cls-2" d="M50.35,38.69a13.25,13.25,0,0,1,1.33,1.37c.18.16.63.54.66.77s-.18.34-.07.54.72.05.95.31,0,.42.14.5.32,0,.42,0c.77.52-1.45,1.2-1.79,1.22a3,3,0,0,1-1.29-.23,2.29,2.29,0,0,0-.69-.26c-.29,0-.3.17-.57.24-.8.22-2.2-1.11-2.76-1.59s-.86-.9-1.3-1.35A12.69,12.69,0,0,1,44,38.8a5.94,5.94,0,0,0-1.11-1.24l-.25-.05a3.53,3.53,0,0,0-.28-.5c-.17-.23-.34-.45-.53-.66a12.34,12.34,0,0,0-1.16-1,4.22,4.22,0,0,1-.82-1.72c.45-.12.71.5.91.79a2.41,2.41,0,0,0,.36.48c.2.18.38.09.56.21s.16.6.39.74c.4.26.31-.16.27-.38a7.13,7.13,0,0,0-.51-1.25,13.4,13.4,0,0,1-.51-1.51,23,23,0,0,0-1.18-3.12,7.81,7.81,0,0,0,.12,1.28,5.44,5.44,0,0,1,.4,1.26c0,.35.08.3-.23.36a.79.79,0,0,1-.4,0c-.31-.16-.28-.49-.4-.78-.21-.46-.21-.18-.62-.29a.59.59,0,0,1-.36-.68c.15-.4.54-.16.53-.71a5.67,5.67,0,0,0-.19-1.3c-.14-.51-.62-1.46,0-1.85.26-.16.85.1,1-.13s-.08-.9-.1-1.14a17.57,17.57,0,0,0-.29-2.5c-.11-.48-.18-.76.22-1.13.13-.15.34-.16.48-.3s.24-.36.39-.51c.19.17,0,.56.16.79a.55.55,0,0,1,.23-.39,3,3,0,0,1-.21,1.88c-.14.29-.25.29-.34.65a4.51,4.51,0,0,0,0,1c0,.74.26,1.46.35,2.19s.13,1.68,1,1.19a7.5,7.5,0,0,1,.26,1.4c-.66-.31-.8.22-.6.8a13.07,13.07,0,0,1,.66,1.91,4.11,4.11,0,0,1,.56-.74,4.59,4.59,0,0,1,.94,2.38c-.12-.11-.56-.72-.73-.48s.41,1,.5,1.24c.22.48.5,1,.69,1.45a1,1,0,0,1,.11.45c0,.18-.21.35-.22.52a.47.47,0,0,0,.42.44c.58.11.55.13,1,.61a5.42,5.42,0,0,0,1.25.93c.53.33.61.23.5-.34.74,0,.19.88.53,1.25-.33.15-.61-.31-.93-.09a4.74,4.74,0,0,0,3,2.25c0-.6-.85-.85-.83-1.48a3.3,3.3,0,0,1,.9.67,3.57,3.57,0,0,0,.48.55,1.32,1.32,0,0,0,1.19.16c-.16-.39-.62-.54-1-.68s-.86-.42-.33-.64,1.1.42,1.7.15a3.68,3.68,0,0,0-1.69-1.75.85.85,0,0,0,.16-.67C51,39.4,50.34,39,50.35,38.69Zm-9-9.27c.27-.31-.39-.73-.64-.56-.42.32.28.8.64.56C41.49,29.25,41.15,29.57,41.36,29.42Z" transform="translate(-32.14 -1.61)"/><path class="cls-2" d="M58.11,38.19a19.85,19.85,0,0,1,1.1-1.81,4.87,4.87,0,0,0,.49-1.48c.25-1.23.52-2.46.69-3.74a10.69,10.69,0,0,0,.24-3.61,17.79,17.79,0,0,1-.31-3.33c0-1.21-.18-2.4-.25-3.61a2.48,2.48,0,0,0-.28-1.37c-.19-.24-.31-.27-.42-.57a7.32,7.32,0,0,1-.09-.93,32.39,32.39,0,0,0-1-3.47,9.87,9.87,0,0,0-.44-1.59c-.21-.43-.31-.34-.77-.13-.22-1-.4-1.94-.53-2.91,1.06.68,1.41,2.08,1.72,3.22.14.52.24,1.06.43,1.57s.64,1,.83,1.53,0,1,0,1.5a1.86,1.86,0,0,0,.75,1.28c.8.85.81,2.23,1.1,3.29a3,3,0,0,1,.25.87c0,.3-.17.2-.27.42-.25.4,0,1-.08,1.46-.13,1.2,0,2.36-.22,3.53s-.14,2.27-.33,3.41c-.1.63-.22,1.25-.3,1.87a8.64,8.64,0,0,0-.14,1.69l.48-.55c.25.65-.76,1.5-1.1,1.94-.53.61-.64,1.7-1.67,1.49C58.39,37.54,58.53,38.28,58.11,38.19Z" transform="translate(-32.14 -1.61)"/><path class="cls-2" d="M40.6,20.55c-.24-.1-.14-.41-.33-.55-.29.19-.1.59-.33.81-.46-.25-.12-1.17-.41-1.6l-.39-.34s.14-.26,0-.27,0,0-.09.11a1.68,1.68,0,0,0,0,.38c-.13.7-.14,1.38-.24,2.08,0,.37-.13.73-.16,1.11s.18,1,.06,1.18c-.29.51-1-.55-1.07-.85s.12-.72.08-1.1-.12-.48.17-.82a3.58,3.58,0,0,0,.67-2,14.77,14.77,0,0,1,.7-2.63c.29.25-.15,1.44.42,1.05.2-.16.13-.67.21-.88a1.61,1.61,0,0,1,.86-.9,1.48,1.48,0,0,1-.08.72.57.57,0,0,0,.08.36.76.76,0,0,1-.28.22c-.29.34-.57.5-.4,1s.67.58.76.91a3.25,3.25,0,0,1-.11,1,8.89,8.89,0,0,1-.06,1C40.37,20.44,40.71,19.87,40.6,20.55Zm-.33-1.14c-.07.09-.05.14.08.17s.07-.25-.08-.17.11,0,0,0Z" transform="translate(-32.14 -1.61)"/><path class="cls-2" d="M42.8,9a4.7,4.7,0,0,1-.38,1.09,1,1,0,0,1-.28.43c-.14.09-.23,0-.36,0-.41.24-.41,1.21-1.09.73S40.6,10,41,9.67a2.39,2.39,0,0,0,.67-1c.13-.33.15-.86.62-.88-.17.36-.28.74-.44,1.11-.09.19-.55.63-.4.88.34.63.94-1,1.11-1.15l.23.37C42.64,9.62,42.72,8.91,42.8,9Z" transform="translate(-32.14 -1.61)"/><path class="cls-2" d="M36.7,25.32A3.59,3.59,0,0,1,36.53,23c0-.4-.09-2.57.32-2.71.67-.21.35,2.07.32,2.39,0,.6.15,2.28-.48,2.6C36.2,24.48,37,25.17,36.7,25.32Z" transform="translate(-32.14 -1.61)"/><path class="cls-2" d="M42.14,15c-.54.1-.37.78-.58,1.14-.15.16-.15.36-.39.24s0-.5,0-.71a11.06,11.06,0,0,1,1-3c.44.69.09,1.61-.12,2.3C41.84,15,42.24,14.63,42.14,15Z" transform="translate(-32.14 -1.61)"/><path class="cls-2" d="M44.25,6.41c-.35-.37.62-1.92.94-1.83,1.12.23-.53,1.73-.94,1.83C44.06,6.2,44.83,6.26,44.25,6.41Z" transform="translate(-32.14 -1.61)"/><path class="cls-2" d="M56.57,9.55A2.92,2.92,0,0,1,56,8,1.33,1.33,0,0,1,56.57,9.55Z" transform="translate(-32.14 -1.61)"/><path class="cls-2" d="M43.69,8.48c-.73-.22.48-1.11.62-1.31a2.15,2.15,0,0,1-.62,1.31C43.59,8.44,44.08,8.13,43.69,8.48Z" transform="translate(-32.14 -1.61)"/><path class="cls-2" d="M39.83,25.53c-.22.25-.88.56-.79-.13s.75-.22.79.13C39.36,26,39.81,25.52,39.83,25.53Z" transform="translate(-32.14 -1.61)"/><path class="cls-2" d="M61.74,30.48a1.26,1.26,0,0,1,.1-1.1C62.29,29.83,62.29,29.83,61.74,30.48Z" transform="translate(-32.14 -1.61)"/><path class="cls-2" d="M43.54,11.86c.4.35.53.47.27,1-.19-.16-.6-.83-.27-1C44.08,12.31,43.37,11.93,43.54,11.86Z" transform="translate(-32.14 -1.61)"/><path class="cls-2" d="M43.19,6.75l-.71.72a.65.65,0,0,1,.27-.67c.08-.09.46-.37.42,0C43,7,43.25,6.68,43.19,6.75Z" transform="translate(-32.14 -1.61)"/><path class="cls-2" d="M56.08,40.27a1.29,1.29,0,0,1,.8-.52C56.69,40.23,56.57,40.3,56.08,40.27Z" transform="translate(-32.14 -1.61)"/><path class="cls-2" d="M56,7.88a1,1,0,0,1-.41-1A1,1,0,0,1,56,7.88Z" transform="translate(-32.14 -1.61)"/><path class="cls-2" d="M39.59,14.88c.16.15,0,.58-.22.39a.23.23,0,0,1,.22-.39Z" transform="translate(-32.14 -1.61)"/><path class="cls-2" d="M61.77,24.1a1.48,1.48,0,0,1-.08-.75C62,23.61,62.09,23.81,61.77,24.1Z" transform="translate(-32.14 -1.61)"/><path class="cls-2" d="M46.33,4.67a1.89,1.89,0,0,1-.45.93A.77.77,0,0,1,46.33,4.67Z" transform="translate(-32.14 -1.61)"/><path class="cls-2" d="M61.9,28.63a.51.51,0,0,1,0-.65C62.1,28.2,62.14,28.41,61.9,28.63Z" transform="translate(-32.14 -1.61)"/><path class="cls-2" d="M61.88,24.75c-.18-.15-.27-.31-.12-.54C62,24.36,62.07,24.52,61.88,24.75Z" transform="translate(-32.14 -1.61)"/><path class="cls-2" d="M61.91,27.54A.41.41,0,0,1,62,27,.35.35,0,0,1,61.91,27.54Z" transform="translate(-32.14 -1.61)"/><path class="cls-2" d="M43.84,10.72a.67.67,0,0,1-.15.59A.36.36,0,0,1,43.84,10.72Z" transform="translate(-32.14 -1.61)"/><path class="cls-2" d="M44,10.1a.52.52,0,0,1-.14.55C43.7,10.41,43.77,10.24,44,10.1Z" transform="translate(-32.14 -1.61)"/><path class="cls-2" d="M62,26.7a.32.32,0,0,1,0-.42.27.27,0,0,1,0,.39Z" transform="translate(-32.14 -1.61)"/><path class="cls-2" d="M45.34,6.75A.4.4,0,0,1,45,7.2.42.42,0,0,1,45.34,6.75Z" transform="translate(-32.14 -1.61)"/><path class="cls-2" d="M43.67,11.38a.38.38,0,0,1-.13.46C43.36,11.63,43.51,11.5,43.67,11.38Z" transform="translate(-32.14 -1.61)"/><path class="cls-2" d="M45.58,6.17a.39.39,0,0,1-.19.49C45.3,6.42,45.4,6.3,45.58,6.17Z" transform="translate(-32.14 -1.61)"/><path class="cls-2" d="M44.16,9.65a.34.34,0,0,1-.16.44A.31.31,0,0,1,44.16,9.65Z" transform="translate(-32.14 -1.61)"/><path class="cls-2" d="M40.78,14.72a.26.26,0,0,1,0,.35l0,0C40.56,14.94,40.63,14.82,40.78,14.72Z" transform="translate(-32.14 -1.61)"/><path class="cls-2" d="M41,14.1a.3.3,0,0,1-.14.34C40.77,14.26,40.84,14.15,41,14.1Z" transform="translate(-32.14 -1.61)"/><path class="cls-2" d="M44.28,9.29a.25.25,0,0,1-.09.34h0a.26.26,0,0,1,.11-.35Z" transform="translate(-32.14 -1.61)"/><path class="cls-2" d="M42,10.86c.13.12,0,.24-.1.33A.25.25,0,0,1,42,10.86Z" transform="translate(-32.14 -1.61)"/><path class="cls-2" d="M43.62,8.81c-.12-.11-.08-.25.07-.33C43.8,8.62,43.75,8.72,43.62,8.81Z" transform="translate(-32.14 -1.61)"/><path class="cls-2" d="M46.79,3a.22.22,0,0,1-.22.23H46.5A.26.26,0,0,1,46.79,3Z" transform="translate(-32.14 -1.61)"/><path class="cls-2" d="M62,25.38a.22.22,0,0,1,0-.31h0C62.09,25.16,62.08,25.27,62,25.38Z" transform="translate(-32.14 -1.61)"/><path class="cls-2" d="M43.78,12.89a.33.33,0,0,1-.13.37.25.25,0,0,1,.08-.34Z" transform="translate(-32.14 -1.61)"/><path class="cls-2" d="M43.63,13.55c.08.07,0,.16,0,.24a.16.16,0,0,1,0-.23Z" transform="translate(-32.14 -1.61)"/><path class="cls-2" d="M62,25.05a.12.12,0,0,1-.08-.15,0,0,0,0,1,0,0C62,24.94,62,25,62,25.05Z" transform="translate(-32.14 -1.61)"/><path class="cls-2" d="M62,25.6c-.08-.06-.11-.09,0-.21a.14.14,0,0,1,0,.2Z" transform="translate(-32.14 -1.61)"/><path class="cls-2" d="M61.85,28a.14.14,0,0,1,0-.2l0,0a.14.14,0,0,1,0,.21Z" transform="translate(-32.14 -1.61)"/><path class="cls-2" d="M61.86,29.19a.16.16,0,0,1,0-.21l0,0a.15.15,0,0,1,0,.22Z" transform="translate(-32.14 -1.61)"/><path class="cls-2" d="M42.27,12.56a.14.14,0,0,1,.11-.22.15.15,0,0,1-.07.21Z" transform="translate(-32.14 -1.61)"/><path class="cls-2" d="M55.24,40.57a.12.12,0,0,1,.15-.07.1.1,0,0,1,0,0,.14.14,0,0,1-.19,0Z" transform="translate(-32.14 -1.61)"/><path class="cls-2" d="M55.47,40.5a.14.14,0,0,1,.19,0h0a.13.13,0,0,1-.17.07Z" transform="translate(-32.14 -1.61)"/><path class="cls-2" d="M55.65,40.5a.15.15,0,0,1,.19-.1h0a.12.12,0,0,1-.14.11Z" transform="translate(-32.14 -1.61)"/><path class="cls-2" d="M41,21.52c0-.18.4-.77.52-.87.16.21.12.51.27.73s.18.16.28.25,0,.31,0,.45.09.26.08.35-.12.32-.09.39c.18.61.47-.1.66-.23.62-.4.54.66.5,1a3.22,3.22,0,0,1,0,.43,1,1,0,0,1-.21.47,1.63,1.63,0,0,0-.24,1.12c.1,1.69.86,3.16,1.2,4.7a4.94,4.94,0,0,0,.47,1.17c.11.22.56.88.29,1.08-.33-.37-.48-.82-1-.48a41.64,41.64,0,0,1-1.52-6.7c-.05-.28,0-2.12-.51-2s-.17,2.25-.16,2.58.44,2.23.13,2.46c-.9.66-.93-1.56-1-1.91a5.73,5.73,0,0,1-.19-2.72c.06-.18.24-.27.33-.38a3.5,3.5,0,0,0,.15-.62A2,2,0,0,0,41,21.52C41,21.39,41.25,22.18,41,21.52Z" transform="translate(-32.14 -1.61)"/><path class="cls-2" d="M44.73,32.62l.12-.15a22.71,22.71,0,0,0,1.39,2.45A5.31,5.31,0,0,0,48,37c.3-.54-.64-1.78-.86-2.29a29,29,0,0,1-1-2.83,21.63,21.63,0,0,1-.75-2.73c-.07-.42-.07-.85-.15-1.28a6.57,6.57,0,0,1-.31-1.31.7.7,0,0,0,.53-.05,36.42,36.42,0,0,0,1.32,5.94c.32.93.71,1.83,1.1,2.74s1.07,1.4,1.24,2.22c-.21-.18-.61-.29-.8,0s.18.47,0,.62a11,11,0,0,1-1.71-1.7c-.39-.52-.62-1.21-1.3-1.43a8.39,8.39,0,0,0,.78,1.82c.19.36,1,1.25.73,1.5s-.91-.79-1.13-1.06c-.44-.55-.8-1.14-1.19-1.68-.15-.13-.53-.46-.54-.67s.33-.38.38-.61-.2-.72-.4-1.06-.5-1,.11-1.11C44.42,32,44.59,32.62,44.73,32.62Z" transform="translate(-32.14 -1.61)"/><path class="cls-2" d="M47.17,29.18c-.43-.29-.38-.93-.46-1.39l-.3-1.68a30.57,30.57,0,0,1-.5-3.69c0-.77-.2-7.08.73-6.92.39.07,0,.75-.09,1a17.62,17.62,0,0,0-.22,1.76,22.87,22.87,0,0,0-.07,3.7,37.37,37.37,0,0,0,.43,3.78,11.2,11.2,0,0,1,.49,3.45C46.87,29,47.28,28.5,47.17,29.18Z" transform="translate(-32.14 -1.61)"/><path class="cls-2" d="M44.64,24.87a5.05,5.05,0,0,1-.21-2.08c0-.88,0-1.75,0-2.65a15.16,15.16,0,0,1,.25-2.52c.08-.41.18-2.15.67-2.3s0,1.57-.08,1.69A15.74,15.74,0,0,0,45,19.48c0,.9-.07,1.79-.06,2.69s-.22,1.95.31,2.54l-.55.14C44.29,24.11,44.8,24.81,44.64,24.87Z" transform="translate(-32.14 -1.61)"/><path class="cls-2" d="M43.85,29.86A13,13,0,0,1,42.92,27c-.14-.71-.54-2.14.24-2.61A12.06,12.06,0,0,1,44,27.51c.19.85.9,1.75-.16,2.35C43.18,28.46,44.58,29.5,43.85,29.86Z" transform="translate(-32.14 -1.61)"/><path class="cls-2" d="M48.36,34.3a11.54,11.54,0,0,1,1.54,2.42c.32.48.69.93,1,1.39.15.13.87.82.53.92-.53.2-1.64-1.66-1.87-2a6.9,6.9,0,0,1-1.22-2.72C48.67,34.57,48.49,35.07,48.36,34.3Z" transform="translate(-32.14 -1.61)"/><path class="cls-2" d="M44.64,24.87c.8-.2.87-.18.82.57,0,.39.24,1.11-.26,1.17s-.55-1.33-.55-1.73C44.8,24.81,44.61,24.91,44.64,24.87Z" transform="translate(-32.14 -1.61)"/><path class="cls-2" d="M48.18,23.78c-.07-.15-.4-1.68.16-1.32.29.19,0,1.09-.16,1.32C48,23.33,48.45,23.33,48.18,23.78Z" transform="translate(-32.14 -1.61)"/><path class="cls-2" d="M48,33c.16.14.55.65.43.88-.21.38-.42-.83-.43-.88C48.31,33.22,48,33.31,48,33Z" transform="translate(-32.14 -1.61)"/><path class="cls-2" d="M44.67,25.69a.31.31,0,0,1,.08.42l0,0A.31.31,0,0,1,44.67,25.69Z" transform="translate(-32.14 -1.61)"/><path class="cls-2" d="M44.62,31.88a.26.26,0,0,1-.18-.32v0a.26.26,0,0,1,.17.32Z" transform="translate(-32.14 -1.61)"/><path class="cls-2" d="M44.62,25.05a.19.19,0,0,1,0,.28s0,0,0,0a.22.22,0,0,1,0-.3Z" transform="translate(-32.14 -1.61)"/><path class="cls-2" d="M43.17,24c-.12-.1-.06-.24,0-.33a.22.22,0,0,1,0,.31Z" transform="translate(-32.14 -1.61)"/><path class="cls-2" d="M44,30.38a.22.22,0,0,1-.09-.3h0a.2.2,0,0,1,.12.26Z" transform="translate(-32.14 -1.61)"/><path class="cls-2" d="M44.1,30.83a.14.14,0,0,1-.09-.18l0,0a.14.14,0,0,1,.08.18Z" transform="translate(-32.14 -1.61)"/><path class="cls-2" d="M44.31,31.24a.11.11,0,0,1-.1-.12l0-.05C44.33,31.09,44.35,31.16,44.31,31.24Z" transform="translate(-32.14 -1.61)"/><path class="cls-2" d="M44.4,31.47a.16.16,0,0,1-.1-.2,0,0,0,0,1,0,0,.16.16,0,0,1,.1.2A0,0,0,0,1,44.4,31.47Z" transform="translate(-32.14 -1.61)"/><path class="cls-2" d="M44.64,25.42c.06,0,.09.07,0,.15S44.56,25.48,44.64,25.42Z" transform="translate(-32.14 -1.61)"/><path class="cls-2" d="M43.24,23.44a.2.2,0,0,1,0-.26.17.17,0,0,1,0,.23Z" transform="translate(-32.14 -1.61)"/><path class="cls-2" d="M43.25,23a.17.17,0,0,1,0-.24h0a.17.17,0,0,1,0,.24Z" transform="translate(-32.14 -1.61)"/><path class="cls-2" d="M41,16.23a.56.56,0,0,0,.33.19.12.12,0,0,1-.09.11,1.54,1.54,0,0,1-.18.84c-.11.31-.35,1-.55.93A1.33,1.33,0,0,1,40,17.2a1.56,1.56,0,0,1,1-1C41.11,16.32,40.92,16.27,41,16.23Z" transform="translate(-32.14 -1.61)"/><path class="cls-2" d="M39.15,18.84C38.84,18.57,39.4,18.45,39.15,18.84Z" transform="translate(-32.14 -1.61)"/><path class="cls-2" d="M40.3,19.43c.14-.06.12.1.08.17s-.12-.1-.08-.17S40.29,19.48,40.3,19.43Z" transform="translate(-32.14 -1.61)"/><path class="cls-2" d="M40.8,18.22c-.11-.17,0-.28.11-.37A.3.3,0,0,1,40.8,18.22Z" transform="translate(-32.14 -1.61)"/><path class="cls-2" d="M41.31,16.65a.13.13,0,0,1,0-.22C41.43,16.38,41.36,16.59,41.31,16.65Z" transform="translate(-32.14 -1.61)"/><path class="cls-2" d="M42,24.63c-.22-.08-.54.05-.58-.21s.28-.32.33-.38c-.34.17-.48-.71,0-.62s.44,1,.28,1.2C41.88,24.57,42.2,24.24,42,24.63Z" transform="translate(-32.14 -1.61)"/><path class="cls-2" d="M42.5,22l-.39.45c-.2-.27,0-.6-.1-.88.29,0,.3.26.46.41C42.38,22.12,42.37,21.81,42.5,22Z" transform="translate(-32.14 -1.61)"/><path class="cls-2" d="M42.15,22.62c.65.77-.35.39,0,0C42.25,22.73,42,22.76,42.15,22.62Z" transform="translate(-32.14 -1.61)"/><path class="cls-2" d="M41.76,28.17a.15.15,0,0,1,0,.21v0a.15.15,0,0,1,0-.21Z" transform="translate(-32.14 -1.61)"/><path class="cls-2" d="M42.1,25c-.06-.06-.1-.09,0-.19S42.17,24.92,42.1,25Z" transform="translate(-32.14 -1.61)"/></g></g></svg>