<?xml version="1.0" encoding="utf-8"?>
<!-- Generator: Adobe Illustrator 17.0.0, SVG Export Plug-In . SVG Version: 6.00 Build 0)  -->
<!DOCTYPE svg PUBLIC "-//W3C//DTD SVG 1.1//EN" "http://www.w3.org/Graphics/SVG/1.1/DTD/svg11.dtd" [
	<!ENTITY ns_flows "http://ns.adobe.com/Flows/1.0/">
	<!ENTITY ns_extend "http://ns.adobe.com/Extensibility/1.0/">
	<!ENTITY ns_ai "http://ns.adobe.com/AdobeIllustrator/10.0/">
	<!ENTITY ns_graphs "http://ns.adobe.com/Graphs/1.0/">
]>
<svg version="1.1" id="Слой_1" xmlns:x="&ns_extend;" xmlns:i="&ns_ai;" xmlns:graph="&ns_graphs;"
	 xmlns="http://www.w3.org/2000/svg" xmlns:xlink="http://www.w3.org/1999/xlink" xmlns:a="http://ns.adobe.com/AdobeSVGViewerExtensions/3.0/"
	 x="0px" y="0px" width="152px" height="152px" viewBox="0 0 152 152" enable-background="new 0 0 152 152" xml:space="preserve">
<path d="M151.277,75.075c0,0.487,0,0.973,0,1.46c-0.172,0.235-0.295,0.578-0.526,0.685c-0.741,0.341-0.499,0.868-0.434,1.446
	c0.133,1.2,0.277,2.416,0.224,3.617c-0.089,1.988-1.033,3.718-1.992,5.402c-0.437,0.769-0.498,1.468-0.326,2.32
	c0.387,1.928,0.772,3.869,0.941,5.824c0.159,1.837,0.056,3.53-1.294,5.226c-2.061,2.589-4.113,5.243-5.618,8.25
	c-0.935,1.867-2.275,3.56-3.012,5.492c-1.029,2.699-2.471,5.063-4.447,7.117c-1.84,1.913-3.493,3.923-4.546,6.409
	c-0.337,0.797-0.986,1.573-1.693,2.078c-1.474,1.052-3.061,1.956-4.641,2.851c-2.892,1.637-5.604,3.518-7.963,5.862
	c-1.475,1.466-3.001,2.802-4.969,3.597c-2.58,1.042-5.183,1.86-8.019,1.695c-0.532-0.031-1.145,0.109-1.611,0.368
	c-2.482,1.383-5.09,2.402-7.87,2.992c-0.645,0.137-1.281,0.342-1.899,0.574c-0.905,0.339-1.762,0.851-2.691,1.074
	c-1.946,0.467-3.926,0.798-5.894,1.168c-0.227,0.043-0.474-0.023-0.711-0.041c-0.872-0.066-1.769-0.294-2.611-0.165
	c-1.642,0.253-3.25,0.722-4.879,1.064c-0.41,0.086-0.873,0.127-1.271,0.027c-2.587-0.654-5.282-1.135-7.462-2.763
	c-1.089-0.813-2.114-0.934-3.285-0.667c-3.905,0.888-7.516-0.19-11.046-1.664c-2.051-0.857-3.428-2.574-4.831-4.215
	c-0.416-0.487-0.839-0.718-1.526-0.77c-6.379-0.488-11.501-3.131-14.821-8.803c-0.197-0.336-0.549-0.633-0.898-0.819
	c-2.727-1.453-5.473-2.872-8.207-4.311c-0.235-0.123-0.511-0.268-0.638-0.48c-1.523-2.541-3.344-4.931-4.023-7.905
	c-0.078-0.342-0.264-0.683-0.478-0.965c-1.831-2.409-3.927-4.564-6.402-6.309c-0.693-0.488-0.896-1.047-0.952-1.814
	c-0.214-2.928-0.832-5.755-2.236-8.369c-0.113-0.211-0.214-0.435-0.281-0.665c-0.36-1.244-0.65-2.512-1.074-3.734
	c-0.601-1.729-1.177-3.446-0.983-5.318c0.018-0.173,0.003-0.384-0.082-0.527c-1.324-2.223-1.381-4.712-1.329-7.159
	c0.073-3.445-1.006-6.57-2.248-9.683c0-0.304,0-0.608,0-0.912c0.968-2.172,1.925-4.349,2.909-6.514c0.509-1.12,0.77-2.261,0.79-3.51
	c0.036-2.307,0.164-4.615,0.348-6.915c0.212-2.655,0.535-5.301,0.792-7.953c0.151-1.557,0.662-2.935,1.757-4.097
	c0.331-0.351,0.564-0.836,0.726-1.3c1.228-3.517,2.573-6.939,5.755-9.255c1.226-0.892,2.326-1.954,3.521-2.891
	c2.312-1.814,4.226-3.872,4.978-6.849c0.313-1.24,1.07-2.316,2.194-3.043c0.991-0.641,1.983-1.284,2.994-1.891
	c2.279-1.369,4.621-2.555,7.396-2.444c0.155,0.006,0.378-0.189,0.47-0.349c1.634-2.837,4.189-4.877,6.304-7.297
	c0.114-0.131,0.28-0.24,0.443-0.301c2.851-1.06,5.769-1.8,8.831-1.906c0.476-0.017,1.018-0.157,1.4-0.424
	c1.118-0.783,2.151-1.687,3.255-2.492c1.337-0.975,2.809-1.411,4.472-0.961c0.239,0.065,0.529-0.026,0.79-0.074
	c1.784-0.328,3.553-0.803,5.352-0.963c2.862-0.255,5.768,0.216,8.607-0.607c1.127-0.327,2.33-0.51,3.402,0.319
	c0.117,0.09,0.359,0.067,0.53,0.033c3.306-0.649,6.609,0.014,9.913,0.014c0.174,0,0.353,0.067,0.521,0.127
	c3.053,1.087,6.093,2.214,9.163,3.252c1.276,0.431,2.755,0.423,3.895,1.058c1.703,0.947,3.181,2.296,4.773,3.45
	c0.32,0.232,0.713,0.491,1.081,0.505c3.19,0.117,6.228,0.885,9.171,2.066c0.433,0.173,0.86,0.462,1.178,0.802
	c1.632,1.742,3.424,3.273,5.507,4.457c0.277,0.157,0.568,0.39,0.715,0.662c1.063,1.961,2.616,3.497,4.28,4.92
	c4.593,3.928,3.796,2.454,5.73,8.564c0.341,1.076,0.957,1.879,1.83,2.62c2.175,1.847,4.264,3.798,6.348,5.749
	c0.748,0.7,1.352,1.487,1.43,2.634c0.176,2.589,0.724,5.1,1.961,7.422c0.124,0.234,0.149,0.522,0.208,0.788
	c0.267,1.212,0.459,2.446,0.808,3.634c0.594,2.023,1.151,4.075,1.972,6.009c0.893,2.104,1.406,4.188,0.945,6.455
	c-0.193,0.947-0.674,1.954-0.501,2.83C150.012,71.694,150.719,73.37,151.277,75.075z"/>
</svg>
